# Blender v2.92.0 OBJ File: ''
# www.blender.org
mtllib BJ39_500_100047_0013.mtl
o BJ39_500_100047_0013
v 179.634933 75.000000 -23.881948
v 282.386505 75.000000 -26.527401
v 228.283340 125.996452 -72.268982
v 51.216904 75.000000 -86.060226
v 178.258621 75.000000 -89.007950
v 50.683174 75.000000 -108.917664
v 21.893232 75.000000 -108.563797
v 226.656845 125.828522 -141.492386
v 119.887283 144.889526 -158.275894
v 206.273148 145.000000 -160.391907
v 108.894249 134.232056 -169.596634
v 81.177650 134.052719 -169.074417
v 85.999664 75.000000 -233.504028
v 212.194534 75.000000 -236.770874
v 18.718395 75.000000 -231.762299
v 276.873779 75.000000 -238.445251
v 274.116455 75.000000 -353.375153
v 16.737003 75.000000 -346.713013
v 83.040154 75.000000 -348.429230
v 209.235031 75.000000 -351.695709
v 103.177528 138.217209 -406.825470
v 74.480415 138.418839 -406.267273
v 197.368057 151.111328 -421.068024
v 115.306938 151.131439 -418.962341
v 13.580068 75.000000 -469.395996
v 41.543480 75.000000 -469.742035
v 41.124035 75.000000 -492.458679
v 270.384766 75.000000 -498.285858
v 179.634933 0.000000 -23.881948
v 282.386505 0.000000 -26.527401
v 276.873779 0.000000 -238.445251
v 212.194534 0.000000 -236.770874
v 209.235031 0.000000 -351.695709
v 274.116455 0.000000 -353.375153
v 270.384766 0.000000 -498.285858
v 41.124035 0.000000 -492.458679
v 41.543480 0.000000 -469.742035
v 13.580068 0.000000 -469.395996
v 16.737003 0.000000 -346.713013
v 83.040154 0.000000 -348.429230
v 85.999664 0.000000 -233.504028
v 18.718395 0.000000 -231.762299
v 21.893232 0.000000 -108.563797
v 50.683174 0.000000 -108.917664
v 51.216904 0.000000 -86.060226
v 178.258621 0.000000 -89.007950
vn -0.0189 -0.6786 -0.7342
vn 0.6938 0.7199 -0.0180
vn -0.0175 0.7364 -0.6763
vn -0.6964 0.7175 0.0179
vn 0.0086 0.7114 0.7027
vn -0.7047 0.7094 0.0165
vn 0.0163 0.7107 0.7033
vn -0.7163 0.6977 0.0151
vn 0.0000 -1.0000 -0.0000
vn -0.0191 -0.6751 -0.7375
vn 0.7121 0.7018 -0.0183
vn -0.0181 0.7035 -0.7105
vn -0.7226 0.6912 0.0133
vn -0.0087 0.7096 -0.7045
vn -0.7304 0.6827 0.0188
vn 0.0000 1.0000 0.0000
vn 0.0257 0.0000 0.9997
vn 0.9997 0.0000 -0.0260
vn -0.0259 0.0000 -0.9997
vn 0.9997 0.0000 -0.0257
vn 0.0259 0.0000 0.9997
vn -0.0254 0.0000 -0.9997
vn -0.9998 0.0000 0.0185
vn -0.0124 0.0000 -0.9999
vn -0.9997 0.0000 0.0257
vn -0.9997 0.0000 0.0258
vn 0.0123 0.0000 0.9999
vn -0.9997 0.0000 0.0233
vn 0.0232 0.0000 0.9997
vn -0.9998 0.0000 0.0211
usemtl None
s off
f 1//1 3//1 2//1
f 2//2 16//2 10//2 8//2 3//2
f 16//3 14//3 13//3 15//3 12//3 11//3 9//3 10//3
f 15//4 7//4 12//4
f 7//5 6//5 11//5 12//5
f 6//6 4//6 9//6 11//6
f 4//7 5//7 8//7 10//7 9//7
f 5//8 1//8 3//8 8//8
f 13//9 19//9 20//9 14//9
f 18//10 22//10 21//10 24//10 23//10 17//10 20//10 19//10
f 17//11 28//11 23//11
f 28//12 27//12 24//12 23//12
f 27//13 26//13 21//13 24//13
f 26//14 25//14 22//14 21//14
f 25//15 18//15 22//15
f 29//16 30//16 31//16 32//16 33//16 34//16 35//16 36//16 37//16 38//16 39//16 40//16 41//16 42//16 43//16 44//16 45//16 46//16
f 1//17 29//17 30//17 2//17
f 2//18 30//18 31//18 16//18
f 16//19 31//19 32//19 14//19
f 14//20 32//20 33//20 20//20
f 20//21 33//21 34//21 17//21
f 17//20 34//20 35//20 28//20
f 28//22 35//22 36//22 27//22
f 27//23 36//23 37//23 26//23
f 26//24 37//24 38//24 25//24
f 25//25 38//25 39//25 18//25
f 18//21 39//21 40//21 19//21
f 19//25 40//25 41//25 13//25
f 13//19 41//19 42//19 15//19
f 15//26 42//26 43//26 7//26
f 7//27 43//27 44//27 6//27
f 6//28 44//28 45//28 4//28
f 4//29 45//29 46//29 5//29
f 5//30 46//30 29//30 1//30
