# Blender v2.92.0 OBJ File: ''
# www.blender.org
mtllib BJ39_500_099048_0008_roof.mtl
o BJ39_500_099048_0008_roof
v 145.964905 75.000000 -382.759735
v 283.934784 75.000000 -324.319672
v 186.709900 144.998856 -285.875275
v 164.961090 145.000000 -234.539459
v 157.092972 139.768738 -230.396255
v 203.920471 75.000000 -135.442581
v 193.396545 75.000000 -138.627731
v 104.978416 139.942200 -106.914337
v 142.030533 75.000000 -16.449280
v 13.780720 75.000000 -70.771645
v 145.964905 0.000000 -382.759735
v 283.934784 0.000000 -324.319672
v 203.920471 0.000000 -135.442581
v 193.396545 0.000000 -138.627731
v 142.030533 0.000000 -16.449280
v 13.780720 0.000000 -70.771645
vt 0.479830 0.959080
vt 0.354660 0.734040
vt 0.530720 0.426870
vt 0.653370 0.655150
vt 0.046556 0.823950
vt 0.688920 0.663080
vt 0.557300 0.416570
vt 0.630780 0.288870
vt 0.959240 0.193230
vt 0.493120 0.047861
vn -0.6308 -0.7293 -0.2652
vn 0.2676 -0.7274 -0.6318
vn -0.1860 0.7666 0.6146
vn -0.6304 -0.7289 -0.2671
vn -0.2693 -0.7233 0.6358
vn 0.6269 -0.7325 0.2656
usemtl None
s off
f 9/1/1 8/2/1 5/3/1 7/4/1
f 10/5/2 8/2/2 9/1/2
f 7/4/3 6/6/3 4/7/3 5/3/3
f 6/6/4 4/7/4 3/8/4 2/9/4
f 2/9/5 3/8/5 1/10/5
f 1/10/6 3/8/6 4/7/6 5/3/6 8/2/6 10/5/6
