# Blender v2.92.0 OBJ File: ''
# www.blender.org
mtllib BJ39_500_100047_0007.mtl
o BJ39_500_100047_0007
v 456.783630 75.000000 -427.657471
v 594.497253 75.000000 -474.234497
v 218.094559 75.000000 -322.080414
v 169.891647 75.000000 -305.487457
v 32.316212 75.000000 -258.957092
v 354.932129 75.000000 -368.361237
v 548.421082 151.711884 -381.676849
v 235.787598 75.000000 -269.744904
v 187.506897 75.000000 -253.415527
v 376.006500 75.000000 -306.069031
v 485.398773 75.000000 -343.067383
v 122.094711 144.993927 -215.882675
v 309.805939 150.593674 -278.330841
v 336.831848 150.603378 -198.418228
v 149.411407 145.000000 -135.112473
v 351.413940 138.586533 -190.831741
v 165.589890 132.895782 -127.217079
v 586.085571 151.664413 -270.196655
v 577.514893 137.351852 -253.569672
v 227.707382 75.000000 -134.579895
v 275.964966 75.000000 -150.901443
v 416.463684 75.000000 -186.484634
v 525.852234 75.000000 -223.481735
v 360.081848 138.874176 -164.360703
v 174.599091 133.025742 -100.156540
v 586.596741 137.377777 -226.798492
v 106.016075 75.000000 -40.988853
v 291.904572 75.000000 -103.752586
v 314.206879 75.000000 -111.411728
v 128.131683 75.000000 -48.814678
v 679.604370 75.000000 -222.011902
v 657.497498 75.000000 -215.530716
v 322.443359 75.000000 -85.411987
v 252.399323 75.000000 -61.588726
v 136.761368 75.000000 -22.479700
v 437.495422 75.000000 -124.318451
v 550.902710 75.000000 -149.429123
v 666.667297 75.000000 -188.583145
v 456.783630 0.000000 -427.657471
v 594.497253 0.000000 -474.234497
v 679.604370 0.000000 -222.011902
v 657.497498 0.000000 -215.530716
v 666.667297 0.000000 -188.583145
v 550.902710 0.000000 -149.429123
v 525.852234 0.000000 -223.481735
v 416.463684 0.000000 -186.484634
v 437.495422 0.000000 -124.318451
v 322.443359 0.000000 -85.411987
v 314.206879 0.000000 -111.411728
v 291.904572 0.000000 -103.752586
v 275.964966 0.000000 -150.901443
v 227.707382 0.000000 -134.579895
v 252.399323 0.000000 -61.588726
v 136.761368 0.000000 -22.479700
v 128.131683 0.000000 -48.814678
v 106.016075 0.000000 -40.988853
v 32.316212 0.000000 -258.957092
v 169.891647 0.000000 -305.487457
v 187.506897 0.000000 -253.415527
v 235.787598 0.000000 -269.744904
v 218.094559 0.000000 -322.080414
v 354.932129 0.000000 -368.361237
v 376.006500 0.000000 -306.069031
v 485.398773 0.000000 -343.067383
vn 0.6598 -0.7197 -0.2162
vn -0.2288 -0.7277 -0.6467
vn 0.6639 -0.7134 -0.2245
vn 0.2272 -0.7049 0.6719
vn -0.6963 0.6830 0.2206
vn -0.2307 -0.7040 -0.6717
vn -0.2199 -0.7271 -0.6503
vn 0.6510 0.7265 -0.2202
vn 0.2286 0.7007 0.6759
vn 0.2338 -0.6837 0.6913
vn -0.6904 0.6847 0.2335
vn 0.6877 0.6877 -0.2327
vn 0.0000 1.0000 0.0000
vn 0.6820 -0.6940 -0.2306
vn 0.2275 0.7041 0.6726
vn 0.6635 0.7133 -0.2258
vn 0.2043 0.6873 0.6970
vn 0.6853 0.6906 -0.2312
vn -0.2322 0.6889 -0.6866
vn 0.0000 -1.0000 0.0000
vn 0.3204 0.0000 0.9473
vn -0.9475 0.0000 0.3197
vn -0.2813 0.0000 -0.9596
vn -0.9467 0.0000 0.3221
vn -0.3204 0.0000 -0.9473
vn 0.9473 0.0000 -0.3204
vn -0.9473 0.0000 0.3205
vn -0.3203 0.0000 -0.9473
vn 0.9533 0.0000 -0.3020
vn -0.3248 0.0000 -0.9458
vn 0.9473 0.0000 -0.3203
vn -0.9473 0.0000 0.3204
vn 0.9503 0.0000 -0.3114
vn -0.3336 0.0000 -0.9427
usemtl None
s off
f 35//1 30//1 17//1 25//1
f 30//2 27//2 15//2 17//2
f 27//3 5//3 12//3 15//3
f 5//4 4//4 12//4
f 33//5 24//5 16//5 29//5
f 29//6 28//6 14//6 16//6
f 35//7 25//7 34//7
f 34//8 20//8 9//8 4//8 12//8 15//8 17//8 25//8
f 33//9 36//9 24//9
f 3//10 6//10 13//10
f 23//11 37//11 26//11 19//11 18//11 7//11 1//11 11//11
f 36//12 22//12 10//12 6//12 13//12 14//12 16//12 24//12
f 22//13 23//13 11//13 10//13
f 28//14 21//14 8//14 3//14 13//14 14//14
f 8//13 9//13 20//13 21//13
f 37//15 38//15 26//15
f 38//16 32//16 19//16 26//16
f 32//17 31//17 18//17 19//17
f 31//18 2//18 7//18 18//18
f 2//19 1//19 7//19
f 39//20 40//20 41//20 42//20 43//20 44//20 45//20 46//20 47//20 48//20 49//20 50//20 51//20 52//20 53//20 54//20 55//20 56//20 57//20 58//20 59//20 60//20 61//20 62//20 63//20 64//20
f 1//21 39//21 40//21 2//21
f 2//22 40//22 41//22 31//22
f 31//23 41//23 42//23 32//23
f 32//24 42//24 43//24 38//24
f 38//25 43//25 44//25 37//25
f 37//26 44//26 45//26 23//26
f 23//25 45//25 46//25 22//25
f 22//27 46//27 47//27 36//27
f 36//28 47//28 48//28 33//28
f 33//29 48//29 49//29 29//29
f 29//30 49//30 50//30 28//30
f 28//31 50//31 51//31 21//31
f 21//25 51//25 52//25 20//25
f 20//32 52//32 53//32 34//32
f 34//25 53//25 54//25 35//25
f 35//33 54//33 55//33 30//33
f 30//34 55//34 56//34 27//34
f 27//31 56//31 57//31 5//31
f 5//21 57//21 58//21 4//21
f 4//32 58//32 59//32 9//32
f 9//21 59//21 60//21 8//21
f 8//31 60//31 61//31 3//31
f 3//21 61//21 62//21 6//21
f 6//27 62//27 63//27 10//27
f 10//21 63//21 64//21 11//21
f 11//26 64//26 39//26 1//26
