# Blender v2.92.0 OBJ File: ''
# www.blender.org
mtllib BJ39_500_100049_0008.mtl
o BJ39_500_100049_0008
v 113.434204 75.000000 -377.453125
v 16.247677 75.000000 -241.136124
v 133.878815 144.991211 -260.457550
v 161.288269 75.000000 -137.713898
v 118.742401 75.000000 -78.060486
v 227.946274 145.000000 -193.395035
v 192.466644 119.169846 -90.589912
v 234.984619 119.145317 -150.254639
v 204.508499 75.000000 -16.914080
v 344.134521 75.000000 -213.013931
v 113.434204 0.000000 -377.453125
v 16.247677 0.000000 -241.136124
v 161.288269 0.000000 -137.713898
v 118.742401 0.000000 -78.060486
v 204.508499 0.000000 -16.914080
v 344.134521 0.000000 -213.013931
vn -0.5192 0.7704 -0.3701
vn -0.3716 0.7684 0.5211
vn -0.5227 0.7667 -0.3728
vn -0.3717 0.7682 0.5213
vn 0.5242 0.7655 0.3732
vn -0.3731 -0.7660 0.5235
vn 0.0000 1.0000 0.0000
vn -0.8142 0.0000 -0.5805
vn -0.5806 0.0000 0.8142
vn -0.8141 0.0000 -0.5807
vn -0.5805 0.0000 0.8142
vn 0.8146 0.0000 0.5800
vn 0.5804 0.0000 -0.8143
usemtl None
s off
f 2//1 3//1 1//1
f 2//2 4//2 8//2 6//2 3//2
f 4//3 5//3 7//3 8//3
f 5//4 9//4 7//4
f 9//5 10//5 6//5 8//5 7//5
f 1//6 10//6 6//6 3//6
f 11//7 12//7 13//7 14//7 15//7 16//7
f 1//8 11//8 12//8 2//8
f 2//9 12//9 13//9 4//9
f 4//10 13//10 14//10 5//10
f 5//11 14//11 15//11 9//11
f 9//12 15//12 16//12 10//12
f 10//13 16//13 11//13 1//13
