# Blender v2.92.0 OBJ File: ''
# www.blender.org
mtllib BJ39_500_100048_0049.mtl
o BJ39_500_100048_0049
v 117.059456 75.000000 -292.423309
v 15.180938 75.000000 -200.560791
v 65.095039 145.000000 -245.568085
v 86.415062 75.000000 -93.325699
v 100.464012 75.000000 -105.993446
v 127.667625 75.000000 -47.575279
v 141.720016 75.000000 -60.246143
v 285.626648 75.000000 -105.338310
v 233.704987 144.942978 -58.520802
v 183.831161 75.000000 -13.550608
v 117.059456 0.000000 -292.423309
v 15.180938 0.000000 -200.560791
v 100.464012 0.000000 -105.993446
v 86.415062 0.000000 -93.325699
v 127.667625 0.000000 -47.575279
v 141.720016 0.000000 -60.246143
v 183.831161 0.000000 -13.550608
v 285.626648 0.000000 -105.338310
vn 0.0000 1.0000 -0.0000
vn -0.5357 0.6926 0.4831
vn 0.5254 0.7070 -0.4734
vn 0.6697 0.0000 0.7427
vn -0.6697 0.0000 -0.7427
vn -0.7426 0.0000 0.6697
vn -0.7427 0.0000 0.6697
vn 0.7429 0.0000 -0.6694
usemtl None
s off
f 5//1 4//1 6//1 7//1
f 9//2 3//2 2//2 5//2 7//2 10//2
f 9//3 8//3 1//3 3//3
f 1//4 3//4 2//4
f 10//5 9//5 8//5
f 11//1 12//1 13//1 14//1 15//1 16//1 17//1 18//1
f 1//5 11//5 12//5 2//5
f 2//6 12//6 13//6 5//6
f 5//5 13//5 14//5 4//5
f 4//7 14//7 15//7 6//7
f 6//4 15//4 16//4 7//4
f 7//6 16//6 17//6 10//6
f 10//4 17//4 18//4 8//4
f 8//8 18//8 11//8 1//8
