# Blender v2.92.0 OBJ File: ''
# www.blender.org
mtllib BJ39_500_100048_0045_roof.mtl
o BJ39_500_100048_0045_roof
v 115.360931 75.000000 -378.212677
v 369.503937 75.000000 -230.590408
v 237.346451 144.989716 -194.959061
v 149.000275 145.000000 -246.259552
v 245.873734 127.639320 -162.086273
v 219.473938 127.635490 -116.643539
v 145.899643 75.000000 -135.405136
v 17.630913 75.000000 -209.863647
v 245.863815 75.000000 -17.814375
v 120.029480 75.000000 -90.863701
v 115.360931 0.000000 -378.212677
v 369.503937 0.000000 -230.590408
v 245.863815 0.000000 -17.814375
v 120.029480 0.000000 -90.863701
v 145.899643 0.000000 -135.405136
v 17.630913 0.000000 -209.863647
vt 0.310150 0.770550
vt 0.567120 0.705450
vt 0.635310 0.955010
vt 0.377000 0.658070
vt 0.635330 0.590690
vt 0.613300 0.507680
vt 0.385010 0.378130
vt 0.045558 0.470040
vt 0.298090 0.044917
vt 0.954790 0.417700
vn 0.2957 -0.8081 -0.5094
vn 0.5055 -0.8113 0.2936
vn -0.2929 0.8121 0.5046
vn 0.5118 -0.8061 0.2971
vn -0.2935 -0.8115 0.5053
vn -0.5081 -0.8091 -0.2952
usemtl None
s off
f 10/1/1 6/2/1 9/3/1
f 10/1/2 7/4/2 5/5/2 6/2/2
f 5/5/3 3/6/3 4/7/3 8/8/3 7/4/3
f 8/8/4 1/9/4 4/7/4
f 1/9/5 2/10/5 3/6/5 4/7/5
f 2/10/6 9/3/6 6/2/6 5/5/6 3/6/6
