# Blender v2.92.0 OBJ File: ''
# www.blender.org
mtllib BJ39_500_098052_0024.mtl
o BJ39_500_098052_0024
v 263.756500 75.000000 -194.397476
v 231.570084 75.000000 -16.939732
v 218.027893 75.000000 -19.395914
v 216.579636 75.000000 -11.410910
v 190.714111 118.839874 -73.723427
v 195.119843 118.857834 -98.129753
v 170.734161 145.000000 -131.864441
v 144.385986 75.000000 -32.752548
v 142.937729 75.000000 -24.767538
v 131.898056 75.000000 -35.017521
v 136.318024 75.000000 -59.621319
v 102.955727 144.998062 -144.156769
v 11.371992 75.000000 -82.285576
v 24.962461 75.000000 -157.216232
v 39.094883 75.000000 -235.134933
v 33.295734 75.000000 -203.161423
v 12.173411 75.000000 -159.535812
v 20.506615 75.000000 -205.481018
v 263.756500 0.000000 -194.397476
v 231.570084 0.000000 -16.939732
v 218.027893 0.000000 -19.395914
v 216.579636 0.000000 -11.410910
v 142.937729 0.000000 -24.767538
v 144.385986 0.000000 -32.752548
v 131.898056 0.000000 -35.017521
v 136.318024 0.000000 -59.621319
v 11.371992 0.000000 -82.285576
v 24.962461 0.000000 -157.216232
v 12.173411 0.000000 -159.535812
v 20.506615 0.000000 -205.481018
v 33.295734 0.000000 -203.161423
v 39.094883 0.000000 -235.134933
vn 0.0000 -1.0000 -0.0000
vn 0.6462 0.7541 0.1172
vn 0.1191 0.7448 -0.6566
vn -0.1199 0.7409 0.6608
vn 0.1196 -0.7424 -0.6592
vn 0.6413 -0.7586 0.1152
vn -0.6522 0.7488 -0.1183
vn -0.9839 0.0000 -0.1785
vn 0.1785 0.0000 -0.9839
vn 0.9839 0.0000 0.1785
vn 0.9842 0.0000 0.1768
vn -0.1785 0.0000 0.9839
vn -0.1784 0.0000 0.9840
usemtl None
s off
f 3//1 4//1 9//1 8//1
f 2//2 1//2 7//2 6//2 5//2
f 1//3 15//3 12//3 7//3
f 13//4 11//4 6//4 7//4 12//4
f 10//5 5//5 2//5 3//5 8//5
f 10//6 11//6 6//6 5//6
f 15//7 16//7 14//7 13//7 12//7
f 14//1 17//1 18//1 16//1
f 19//1 20//1 21//1 22//1 23//1 24//1 25//1 26//1 27//1 28//1 29//1 30//1 31//1 32//1
f 1//8 19//8 20//8 2//8
f 2//9 20//9 21//9 3//9
f 3//8 21//8 22//8 4//8
f 4//9 22//9 23//9 9//9
f 9//10 23//10 24//10 8//10
f 8//9 24//9 25//9 10//9
f 10//11 25//11 26//11 11//11
f 11//9 26//9 27//9 13//9
f 13//10 27//10 28//10 14//10
f 14//9 28//9 29//9 17//9
f 17//10 29//10 30//10 18//10
f 18//12 30//12 31//12 16//12
f 16//10 31//10 32//10 15//10
f 15//13 32//13 19//13 1//13
