# Blender v2.92.0 OBJ File: ''
# www.blender.org
mtllib BK39_500_014032_0083.mtl
o BK39_500_014032_0083
v 138.281708 75.000000 -334.544861
v 347.357086 75.000000 -177.762558
v 206.936996 145.000000 -154.678665
v 159.251083 144.998489 -190.440353
v 225.983856 75.000000 -15.931602
v 16.919985 75.000000 -172.729218
v 138.281708 0.000000 -334.544861
v 347.357086 0.000000 -177.762558
v 225.983856 0.000000 -15.931602
v 16.919985 0.000000 -172.729218
vn 0.3451 -0.8181 -0.4601
vn 0.4635 0.8151 0.3476
vn 0.3379 0.8263 -0.4506
vn -0.4490 0.8277 -0.3367
vn 0.0000 -1.0000 0.0000
vn -0.5999 0.0000 0.8000
vn -0.8000 0.0000 -0.6000
vn 0.6000 0.0000 -0.8000
vn 0.8000 0.0000 0.6000
usemtl None
s off
f 3//1 5//1 6//1 4//1
f 5//2 2//2 3//2
f 2//3 1//3 4//3 3//3
f 1//4 6//4 4//4
f 7//5 8//5 9//5 10//5
f 1//6 7//6 8//6 2//6
f 2//7 8//7 9//7 5//7
f 5//8 9//8 10//8 6//8
f 6//9 10//9 7//9 1//9
