# Blender v2.92.0 OBJ File: ''
# www.blender.org
mtllib BK39_500_018027_0071_roof.mtl
o BK39_500_018027_0071_roof
v 14.457236 75.000000 -307.072906
v 127.390358 75.000000 -17.327515
v 127.497353 144.948013 -257.658844
v 178.097672 145.000000 -128.015640
v 148.867767 144.862167 -266.104065
v 238.827026 75.000000 -210.534225
v 289.620361 75.000000 -80.573883
v 194.498932 75.000000 -377.255798
v 256.704468 75.000000 -217.693222
v 14.457236 0.000000 -307.072906
v 127.390358 0.000000 -17.327515
v 289.620361 0.000000 -80.573883
v 238.827026 0.000000 -210.534225
v 256.704468 0.000000 -217.693222
v 194.498932 0.000000 -377.255798
vt 0.047401 0.220630
vt 0.418020 0.346040
vt 0.583930 0.675090
vt 0.417670 0.956020
vt 0.637700 0.042498
vt 0.488090 0.324610
vt 0.841650 0.447480
vt 0.783040 0.465650
vt 0.949570 0.795500
vn 0.5823 -0.7807 -0.2270
vn -0.2274 0.7797 -0.5834
vn -0.6005 -0.7646 0.2341
vn 0.2360 0.7727 0.5893
vn -0.2314 -0.7709 -0.5935
vn 0.5855 0.7777 -0.2288
usemtl None
s off
f 1/1/1 3/2/1 4/3/1 2/4/1
f 8/5/2 1/1/2 3/2/2 5/6/2
f 9/7/3 5/6/3 8/5/3
f 6/8/4 9/7/4 5/6/4 3/2/4
f 2/4/5 4/3/5 7/9/5
f 7/9/6 6/8/6 3/2/6 4/3/6
