# Blender v2.92.0 OBJ File: ''
# www.blender.org
mtllib BK39_500_014026_0073.mtl
o BK39_500_014026_0073
v 95.863365 75.000000 -22.906324
v 12.727058 75.000000 -159.886734
v 123.809654 75.000000 -39.869080
v 141.465790 75.000000 -10.154366
v 41.958710 75.000000 -177.621628
v 76.571617 140.967880 -198.668167
v 156.684402 144.781143 -68.424721
v 111.024719 75.000000 -219.523178
v 170.552979 74.999992 -125.966576
v 159.435898 75.000000 -143.438538
v 180.803802 75.000000 -132.206055
v 170.062866 75.000000 -149.855881
v 261.470245 145.000000 -132.051834
v 239.630447 75.000000 -168.012680
v 283.295898 75.000000 -96.066963
v 95.863365 0.000000 -22.906324
v 12.727058 0.000000 -159.886734
v 41.958710 0.000000 -177.621628
v 111.024719 0.000000 -219.523178
v 159.435898 0.000000 -143.438538
v 170.062866 0.000000 -149.855881
v 180.803802 0.000000 -132.206055
v 239.630447 0.000000 -168.012680
v 283.295898 0.000000 -96.066963
v 141.465790 0.000000 -10.154366
v 123.809654 0.000000 -39.869080
vn 0.4440 0.5153 0.7330
vn 0.4456 -0.5152 0.7321
vn 0.7202 0.5210 -0.4582
vn 0.0000 -1.0000 0.0000
vn -0.7326 0.5233 0.4353
vn -0.5187 -0.0006 -0.8550
vn 0.8549 -0.0002 -0.5188
vn 0.8549 0.0000 -0.5188
vn 0.5187 0.0000 0.8550
vn -0.8437 0.0000 0.5368
vn 0.5169 0.0000 0.8560
vn -0.8543 0.0000 0.5199
vn 0.5199 0.0000 0.8542
vn -0.8549 0.0000 0.5188
vn -0.5181 0.0000 -0.8553
vn 0.8597 0.0000 -0.5108
vn -0.5189 0.0000 -0.8549
usemtl None
s off
f 4//1 15//1 13//1 7//1
f 7//2 9//2 11//2 14//2 13//2
f 6//3 7//3 9//3 10//3 8//3
f 10//4 12//4 11//4 9//4
f 4//5 7//5 6//5 5//5 3//5
f 3//4 1//4 2//4 5//4
f 5//6 6//6 8//6
f 14//7 13//7 15//7
f 16//4 17//4 18//4 19//4 20//4 21//4 22//4 23//4 24//4 25//4 26//4
f 1//8 16//8 17//8 2//8
f 2//9 17//9 18//9 5//9
f 5//9 18//9 19//9 8//9
f 8//10 19//10 20//10 10//10
f 10//11 20//11 21//11 12//11
f 12//12 21//12 22//12 11//12
f 11//13 22//13 23//13 14//13
f 14//14 23//14 24//14 15//14
f 15//15 24//15 25//15 4//15
f 4//16 25//16 26//16 3//16
f 3//17 26//17 16//17 1//17
