# Blender v2.92.0 OBJ File: ''
# www.blender.org
mtllib BK39_500_016029_0042.mtl
o BK39_500_016029_0042
v 11.028729 75.000000 -327.545410
v 179.963776 75.000000 -364.436035
v 104.848663 145.000000 -309.884888
v 156.619385 144.918442 -73.179848
v 247.412155 75.000000 -55.444847
v 78.733925 75.000000 -18.610462
v 11.028729 0.000000 -327.545410
v 179.963776 0.000000 -364.436035
v 247.412155 0.000000 -55.444847
v 78.733925 0.000000 -18.610462
vn 0.1883 -0.4700 0.8624
vn 0.6210 0.7720 -0.1356
vn -0.1889 -0.4647 -0.8651
vn 0.6087 -0.7821 -0.1334
vn 0.0000 -1.0000 0.0000
vn 0.2133 0.0000 0.9770
vn -0.9770 0.0000 0.2133
vn -0.2133 0.0000 -0.9770
vn 0.9768 0.0000 -0.2141
usemtl None
s off
f 1//1 2//1 3//1
f 3//2 4//2 5//2 2//2
f 5//3 6//3 4//3
f 6//4 1//4 3//4 4//4
f 7//5 8//5 9//5 10//5
f 1//6 7//6 8//6 2//6
f 2//7 8//7 9//7 5//7
f 5//8 9//8 10//8 6//8
f 6//9 10//9 7//9 1//9
