# Blender v2.92.0 OBJ File: ''
# www.blender.org
mtllib BK39_500_016032_0003.mtl
o BK39_500_016032_0003
v 205.915756 75.000000 -338.907745
v 290.915588 75.000000 -374.664703
v 104.353027 75.000000 -284.928864
v 209.110092 75.000000 -328.342010
v 18.796715 75.000000 -224.475510
v 111.638336 75.000000 -262.417389
v 267.562286 105.546577 -312.670044
v 270.491302 105.827866 -304.618011
v 238.889465 145.000000 -229.053528
v 140.240814 136.009689 -173.818756
v 229.736313 135.902344 -210.569611
v 263.276428 75.000000 -125.951309
v 90.242805 75.000000 -54.560497
v 375.911377 75.000076 -172.422684
v 309.812775 75.000000 -15.400802
v 422.062836 75.000000 -62.562687
v 205.915756 0.000000 -338.907745
v 290.915588 0.000000 -374.664703
v 422.062836 0.000000 -62.562687
v 309.812775 0.000000 -15.400802
v 263.276428 0.000000 -125.951309
v 90.242805 0.000000 -54.560497
v 18.796715 0.000000 -224.475510
v 111.638336 0.000000 -262.417389
v 104.353027 0.000000 -284.928864
v 209.110092 0.000000 -328.342010
vn -0.2121 -0.8311 -0.5141
vn 0.0000 -1.0000 -0.0000
vn 0.5135 0.8305 -0.2158
vn -0.2079 0.8441 -0.4942
vn -0.4889 0.8597 0.1478
vn -0.2150 0.8274 -0.5188
vn -0.5082 0.8454 0.1645
vn -0.2078 0.8357 -0.5084
vn -0.5083 0.8343 0.2137
vn 0.0061 -1.0000 -0.0024
vn 0.3878 0.0000 0.9218
vn -0.9219 0.0000 0.3874
vn -0.3874 0.0000 -0.9219
vn 0.9217 0.0000 -0.3880
vn -0.3814 0.0000 -0.9244
vn 0.9218 0.0000 -0.3876
vn 0.3783 0.0000 0.9257
vn 0.9514 0.0000 -0.3079
vn 0.3828 0.0000 0.9238
vn 0.9572 0.0000 -0.2894
usemtl None
s off
f 13//1 10//1 11//1 9//1 14//1 12//1
f 14//2 16//2 15//2 12//2
f 14//3 2//3 7//3 8//3 9//3
f 2//4 1//4 7//4
f 1//5 4//5 8//5 7//5
f 4//6 3//6 9//6 8//6
f 3//7 6//7 11//7 9//7
f 6//8 5//8 10//8 11//8
f 5//9 13//9 10//9
f 2//10 14//10 16//10
f 17//2 18//2 19//2 20//2 21//2 22//2 23//2 24//2 25//2 26//2
f 1//11 17//11 18//11 2//11
f 2//12 18//12 19//12 16//12
f 16//13 19//13 20//13 15//13
f 15//14 20//14 21//14 12//14
f 12//15 21//15 22//15 13//15
f 13//16 22//16 23//16 5//16
f 5//17 23//17 24//17 6//17
f 6//18 24//18 25//18 3//18
f 3//19 25//19 26//19 4//19
f 4//20 26//20 17//20 1//20
