# Blender v2.92.0 OBJ File: ''
# www.blender.org
mtllib BK39_500_018029_0022_roof.mtl
o BK39_500_018029_0022_roof
v 312.372406 75.000000 -254.239578
v 16.953541 75.000000 -172.386398
v 256.247986 145.000000 -153.337830
v 119.219475 144.995255 -115.376434
v 356.638031 75.000000 -94.436745
v 61.212681 75.000000 -12.606930
v 312.372406 0.000000 -254.239578
v 16.953541 0.000000 -172.386398
v 61.212681 0.000000 -12.606930
v 356.638031 0.000000 -94.436745
vt 0.045452 0.351930
vt 0.164110 0.952610
vt 0.319620 0.566250
vt 0.956130 0.644970
vt 0.686990 0.423540
vt 0.837460 0.044212
vn -0.6198 0.7657 0.1717
vn 0.1714 0.7666 0.6189
vn 0.6300 0.7567 -0.1745
vn -0.1731 0.7615 -0.6246
usemtl None
s off
f 2/1/1 6/2/1 4/3/1
f 6/2/2 5/4/2 3/5/2 4/3/2
f 5/4/3 1/6/3 3/5/3
f 2/1/4 4/3/4 3/5/4 1/6/4
