# Blender v2.92.0 OBJ File: ''
# www.blender.org
mtllib BK39_500_017030_0023_roof.mtl
o BK39_500_017030_0023_roof
v 331.703369 75.000000 -201.241226
v 365.910767 75.000000 -58.822506
v 296.033966 75.000000 -192.876419
v 285.312408 75.000000 -234.473831
v 282.058441 139.991226 -109.677620
v 247.199707 140.075439 -101.399353
v 240.733688 145.000000 -105.225822
v 232.873245 144.756805 -136.772614
v 198.536636 120.403503 -157.944199
v 169.717163 75.000000 -206.065567
v 143.591415 75.000000 -313.165009
v 178.562363 75.000000 -13.836541
v 158.186539 75.000000 -98.769066
v 133.330917 120.247040 -142.109726
v 99.017632 130.869766 -232.739258
v 118.958130 131.001053 -150.377090
v 68.360695 75.000000 -77.190765
v 18.881136 75.000000 -283.212402
v 331.703369 0.000000 -201.241226
v 365.910767 0.000000 -58.822506
v 178.562363 0.000000 -13.836541
v 158.186539 0.000000 -98.769066
v 68.360695 0.000000 -77.190765
v 18.881136 0.000000 -283.212402
v 143.591415 0.000000 -313.165009
v 169.717163 0.000000 -206.065567
v 285.312408 0.000000 -234.473831
v 296.033966 0.000000 -192.876419
vt 0.466220 0.957820
vt 0.628550 0.679190
vt 0.645430 0.690860
vt 0.736450 0.665620
vt 0.955380 0.820660
vt 0.413020 0.698870
vt 0.518370 0.518460
vt 0.608020 0.583010
vt 0.178490 0.764660
vt 0.310600 0.541530
vt 0.348120 0.566740
vt 0.049298 0.136550
vt 0.258530 0.290430
vt 0.374910 0.045229
vt 0.443130 0.371750
vt 0.744940 0.285140
vt 0.772930 0.411960
vt 0.866070 0.386460
vn -0.1601 -0.7281 -0.6666
vn 0.6323 -0.7597 -0.1517
vn -0.1603 -0.7273 -0.6673
vn 0.6275 -0.7639 -0.1507
vn 0.1485 -0.7717 0.6184
vn -0.6483 -0.7448 0.1581
vn 0.1542 -0.7631 0.6276
vn -0.6587 -0.7330 0.1698
vn 0.1464 -0.7675 0.6241
vn -0.6633 -0.7312 0.1593
usemtl None
s off
f 12/1/1 7/2/1 6/3/1 5/4/1 2/5/1
f 12/1/2 13/6/2 9/7/2 8/8/2 7/2/2
f 13/6/3 17/9/3 16/10/3 14/11/3 9/7/3
f 17/9/4 18/12/4 15/13/4 16/10/4
f 18/12/5 11/14/5 15/13/5
f 11/14/6 10/15/6 14/11/6 16/10/6 15/13/6
f 10/15/7 4/16/7 8/8/7 9/7/7 14/11/7
f 4/16/8 3/17/8 6/3/8 7/2/8 8/8/8
f 3/17/9 1/18/9 5/4/9 6/3/9
f 1/18/10 2/5/10 5/4/10
