# Blender v2.92.0 OBJ File: ''
# www.blender.org
mtllib BK39_500_013029_0047_roof.mtl
o BK39_500_013029_0047_roof
v 255.746704 75.000000 -28.516359
v 341.406586 75.000000 -94.341675
v 225.636551 75.000000 -67.674316
v 157.255844 75.000000 -15.021386
v 267.725372 118.599190 -102.566963
v 168.245087 118.083672 -90.064911
v 236.384491 118.605621 -143.338684
v 184.536896 119.502815 -104.802704
v 191.150223 144.954361 -149.227982
v 92.470863 75.000000 -99.327156
v 105.982124 75.000000 -114.059723
v 139.277039 145.000000 -216.640045
v 16.745798 75.000000 -229.863724
v 155.392242 75.000000 -336.406708
v 255.746704 0.000000 -28.516359
v 341.406586 0.000000 -94.341675
v 155.392242 0.000000 -336.406708
v 16.745798 0.000000 -229.863724
v 105.982124 0.000000 -114.059723
v 92.470863 0.000000 -99.327156
v 157.255844 0.000000 -15.021386
v 225.636551 0.000000 -67.674316
vt 0.434060 0.047006
vt 0.953650 0.732740
vt 0.747840 0.709440
vt 0.660290 0.593940
vt 0.533940 0.577260
vt 0.389040 0.386290
vt 0.714380 0.919220
vt 0.630270 0.808290
vt 0.439260 0.957450
vt 0.469960 0.744860
vt 0.515470 0.703110
vt 0.258300 0.718620
vt 0.296040 0.676880
vt 0.046776 0.348830
vn -0.5014 -0.7747 0.3853
vn 0.3941 0.7627 0.5128
vn 0.4945 -0.7816 -0.3802
vn -0.3859 -0.7745 -0.5012
vn 0.4921 -0.7841 -0.3781
vn 0.4201 -0.8216 0.3853
vn 0.3870 -0.7725 0.5036
vn -0.4897 0.7860 0.3774
usemtl None
s off
f 14/1/1 2/2/1 5/3/1 7/4/1 9/5/1 12/6/1
f 5/3/2 1/7/2 2/2/2
f 1/7/3 3/8/3 7/4/3 5/3/3
f 3/8/4 4/9/4 6/10/4 8/11/4 9/5/4 7/4/4
f 4/9/5 10/12/5 6/10/5
f 10/12/6 11/13/6 8/11/6 6/10/6
f 12/6/7 13/14/7 14/1/7
f 13/14/8 11/13/8 8/11/8 9/5/8 12/6/8
