# Blender v2.92.0 OBJ File: ''
# www.blender.org
mtllib BK39_500_017032_0017.mtl
o BK39_500_017032_0017
v 253.919281 75.000000 -60.494587
v 78.023186 75.000000 -15.116909
v 316.110382 75.000000 -151.398087
v 236.025208 75.000000 -131.155945
v 315.283020 75.000000 -162.394287
v 392.186005 75.000000 -181.985291
v 142.921265 144.906891 -126.344643
v 129.423737 145.000000 -179.148575
v 215.924744 137.585678 -211.378052
v 136.607773 137.429245 -191.116852
v 297.683746 134.443054 -236.676987
v 220.462845 134.346359 -216.876877
v 353.850708 75.000000 -330.586456
v 18.937593 75.000000 -244.151642
v 253.919281 0.000000 -60.494587
v 78.023186 0.000000 -15.116909
v 18.937593 0.000000 -244.151642
v 353.850708 0.000000 -330.586456
v 392.186005 0.000000 -181.985291
v 315.283020 0.000000 -162.394287
v 316.110382 0.000000 -151.398087
v 236.025208 0.000000 -131.155945
vn -0.1517 -0.7946 -0.5879
vn 0.5914 -0.7918 -0.1526
vn 0.1528 -0.7912 0.5922
vn 0.5877 0.7948 -0.1516
vn -0.1517 -0.7890 -0.5954
vn -0.5470 -0.8361 0.0412
vn -0.1479 -0.7974 -0.5850
vn -0.5888 -0.7944 0.1491
vn 0.0000 -1.0000 0.0000
vn -0.2498 0.0000 -0.9683
vn 0.9683 0.0000 -0.2498
vn 0.2499 0.0000 0.9683
vn -0.9683 0.0000 0.2498
vn -0.2469 0.0000 -0.9690
vn -0.9972 0.0000 0.0750
vn -0.2451 0.0000 -0.9695
vn -0.9694 0.0000 0.2455
usemtl None
s off
f 2//1 7//1 1//1
f 2//2 14//2 8//2 7//2
f 14//3 13//3 11//3 12//3 9//3 10//3 8//3
f 11//4 6//4 13//4
f 11//5 6//5 5//5 12//5
f 5//6 3//6 9//6 12//6
f 3//7 4//7 10//7 9//7
f 4//8 1//8 7//8 8//8 10//8
f 15//9 16//9 17//9 18//9 19//9 20//9 21//9 22//9
f 1//10 15//10 16//10 2//10
f 2//11 16//11 17//11 14//11
f 14//12 17//12 18//12 13//12
f 13//13 18//13 19//13 6//13
f 6//14 19//14 20//14 5//14
f 5//15 20//15 21//15 3//15
f 3//16 21//16 22//16 4//16
f 4//17 22//17 15//17 1//17
