# Blender v2.92.0 OBJ File: ''
# www.blender.org
mtllib BK39_500_013029_0046_roof.mtl
o BK39_500_013029_0046_roof
v 153.099915 75.000000 -353.043884
v 320.774933 75.000000 -117.193184
v 85.229828 145.000000 -304.787170
v 252.991928 144.911743 -68.995224
v 13.828084 75.000000 -254.016083
v 181.678619 75.000000 -18.290382
v 153.099915 0.000000 -353.043884
v 320.774933 0.000000 -117.193184
v 181.678619 0.000000 -18.290382
v 13.828084 0.000000 -254.016083
vt 0.755200 0.813530
vt 0.254420 0.176250
vt 0.457010 0.045827
vt 0.957540 0.683260
vt 0.542320 0.950570
vt 0.041278 0.313470
vn -0.5244 -0.7655 0.3728
vn 0.5085 -0.7813 -0.3621
vn 0.5795 -0.0000 0.8150
vn -0.5795 -0.0000 -0.8150
usemtl None
s off
f 4/1/1 3/2/1 1/3/1 2/4/1
f 4/1/2 6/5/2 5/6/2 3/2/2
f 2/4/3 4/1/3 6/5/3
f 5/6/4 3/2/4 1/3/4
