# Blender v2.92.0 OBJ File: ''
# www.blender.org
mtllib BK39_500_014034_0004_roof.mtl
o BK39_500_014034_0004_roof
v 17.840076 75.000000 -169.053070
v 305.754944 75.000000 -261.476746
v 44.130230 145.000000 -87.248444
v 332.027740 144.951935 -179.728516
v 68.601532 75.000000 -11.105576
v 356.481598 75.000000 -103.637741
v 17.840076 0.000000 -169.053070
v 305.754944 0.000000 -261.476746
v 356.481598 0.000000 -103.637741
v 68.601532 0.000000 -11.105576
vt 0.183920 0.959620
vt 0.955710 0.623140
vt 0.890150 0.346440
vt 0.118310 0.682730
vt 0.047829 0.385260
vt 0.819720 0.049175
vn 0.2015 0.7525 0.6270
vn 0.1930 -0.7753 0.6014
vn 0.9520 -0.0000 -0.3060
vn -0.9520 -0.0000 0.3060
usemtl None
s off
f 5/1/1 6/2/1 4/3/1 3/4/1
f 3/4/2 1/5/2 2/6/2 4/3/2
f 2/6/3 4/3/3 6/2/3
f 5/1/4 3/4/4 1/5/4
