# Blender v2.92.0 OBJ File: ''
# www.blender.org
mtllib BK39_500_012028_0009_roof.mtl
o BK39_500_012028_0009_roof
v 125.969322 75.000000 -420.939056
v 520.472534 75.000000 -129.694565
v 424.508728 118.625961 -116.249512
v 318.945435 118.670387 -194.096466
v 147.256073 144.989090 -269.996155
v 260.917633 145.000000 -186.063705
v 439.405518 75.000000 -19.879755
v 333.390137 75.000000 -97.972755
v 106.640381 126.093933 -263.545654
v 190.222839 125.473785 -200.613068
v 24.129513 75.000000 -283.081360
v 156.351639 125.539452 -154.636246
v 82.096657 75.000000 -183.109848
v 33.882687 75.000000 -218.721985
v 285.005737 75.000000 -33.235664
v 206.294586 75.000000 -91.373871
v 48.438572 75.000000 -137.588715
v 172.820969 75.000000 -45.768139
v 125.969322 0.000000 -420.939056
v 520.472534 0.000000 -129.694565
v 439.405518 0.000000 -19.879755
v 333.390137 0.000000 -97.972755
v 285.005737 0.000000 -33.235664
v 206.294586 0.000000 -91.373871
v 172.820969 0.000000 -45.768139
v 48.438572 0.000000 -137.588715
v 82.096657 0.000000 -183.109848
v 33.882687 0.000000 -218.721985
v 24.129513 0.000000 -283.081360
vt 0.088715 0.688010
vt 0.150360 0.584780
vt 0.348390 0.545100
vt 0.286360 0.649350
vt 0.316520 0.896220
vt 0.377830 0.792800
vt 0.521990 0.924640
vt 0.477870 0.578090
vt 0.269700 0.387760
vt 0.195310 0.402390
vt 0.062056 0.504030
vt 0.584150 0.559870
vt 0.610600 0.777840
vt 0.804770 0.954920
vt 0.777490 0.736400
vt 0.953250 0.705910
vt 0.230710 0.045490
vt 0.044193 0.358090
vn 0.4427 -0.8348 0.3273
vn -0.3235 0.8386 0.4382
vn 0.4396 0.8383 0.3226
vn -0.3218 0.8406 0.4357
vn -0.4279 -0.8454 -0.3198
vn -0.3177 0.8444 0.4314
vn 0.4290 0.8460 0.3167
vn 0.3213 0.8410 -0.4353
vn -0.4408 0.8364 -0.3257
vn 0.5386 -0.8386 -0.0816
usemtl None
s off
f 17/1/1 13/2/1 10/3/1 12/4/1
f 17/1/2 18/5/2 12/4/2
f 18/5/3 16/6/3 10/3/3 12/4/3
f 16/6/4 15/7/4 6/8/4 5/9/4 9/10/4 14/11/4 13/2/4 10/3/4
f 6/8/5 4/12/5 8/13/5 15/7/5
f 8/13/6 7/14/6 3/15/6 4/12/6
f 7/14/7 2/16/7 3/15/7
f 2/16/8 1/17/8 5/9/8 6/8/8 4/12/8 3/15/8
f 5/9/9 1/17/9 11/18/9 9/10/9
f 14/11/10 11/18/10 9/10/10
