# Blender v2.92.0 OBJ File: ''
# www.blender.org
mtllib BK39_500_016029_0021.mtl
o BK39_500_016029_0021
v 202.120544 75.000000 -43.791756
v 79.916260 75.000000 -17.651857
v 131.180466 120.575058 -93.814911
v 213.508804 75.000000 -131.418655
v 184.719498 75.000000 -125.299088
v 210.005447 75.000000 -148.182999
v 274.894470 75.000000 -162.052780
v 114.232262 120.586304 -173.131500
v 126.227875 131.146744 -190.233032
v 122.791069 131.175079 -206.497696
v 176.259247 138.127548 -227.450760
v 149.435013 138.151962 -221.750641
v 138.513641 145.000000 -228.797638
v 132.195160 144.913712 -257.740662
v 239.398407 75.000000 -327.998322
v 213.297699 75.000000 -322.484772
v 12.973948 75.000000 -330.630219
v 202.472839 75.000000 -371.161987
v 202.120544 0.000000 -43.791756
v 79.916260 0.000000 -17.651857
v 12.973948 0.000000 -330.630219
v 202.472839 0.000000 -371.161987
v 213.297699 0.000000 -322.484772
v 239.398407 0.000000 -327.998322
v 274.894470 0.000000 -162.052780
v 210.005447 0.000000 -148.182999
v 213.508804 0.000000 -131.418655
v 184.719498 0.000000 -125.299088
vn 0.1230 -0.8090 0.5748
vn 0.5857 0.8000 -0.1302
vn -0.1229 0.8039 -0.5819
vn 0.5930 0.7951 -0.1268
vn -0.1250 -0.8014 -0.5850
vn 0.5947 0.7943 -0.1243
vn 0.1239 0.8031 0.5828
vn 0.5983 0.7910 -0.1277
vn 0.1216 0.8135 0.5687
vn 0.5553 -0.8231 -0.1188
vn 0.0000 -1.0000 0.0000
vn -0.2092 0.0000 -0.9779
vn 0.9779 0.0000 -0.2092
vn 0.2092 0.0000 0.9779
vn -0.9762 0.0000 0.2171
vn 0.2067 0.0000 0.9784
vn -0.9779 0.0000 0.2092
vn -0.2090 0.0000 -0.9779
vn -0.9789 0.0000 0.2046
vn -0.2079 0.0000 -0.9781
vn -0.9780 0.0000 0.2088
usemtl None
s off
f 14//1 17//1 18//1
f 14//2 13//2 12//2 16//2 18//2
f 12//3 11//3 15//3 16//3
f 11//4 7//4 15//4
f 7//5 6//5 10//5 13//5 12//5 11//5
f 10//6 9//6 4//6 6//6
f 4//7 9//7 8//7 5//7
f 8//8 3//8 1//8 5//8
f 3//9 2//9 1//9
f 2//10 17//10 14//10 13//10 10//10 9//10 8//10 3//10
f 19//11 20//11 21//11 22//11 23//11 24//11 25//11 26//11 27//11 28//11
f 1//12 19//12 20//12 2//12
f 2//13 20//13 21//13 17//13
f 17//14 21//14 22//14 18//14
f 18//15 22//15 23//15 16//15
f 16//16 23//16 24//16 15//16
f 15//17 24//17 25//17 7//17
f 7//18 25//18 26//18 6//18
f 6//19 26//19 27//19 4//19
f 4//20 27//20 28//20 5//20
f 5//21 28//21 19//21 1//21
