# Blender v2.92.0 OBJ File: ''
# www.blender.org
mtllib BK39_500_018028_0043_roof.mtl
o BK39_500_018028_0043_roof
v 225.445190 75.000000 -347.769501
v 299.815338 75.000000 -68.975067
v 152.351562 145.000000 -223.330048
v 174.883682 144.998215 -138.873123
v 110.219696 109.484718 -184.407547
v 72.840027 109.314102 -174.213791
v 75.261665 75.000000 -124.310074
v 49.742599 75.000000 -219.951767
v 29.583447 75.000000 -295.505280
v 103.970055 75.000000 -16.715315
v 40.549843 75.000000 -115.077240
v 15.149611 75.000000 -210.277771
v 225.445190 0.000000 -347.769501
v 299.815338 0.000000 -68.975067
v 103.970055 0.000000 -16.715315
v 75.261665 0.000000 -124.310074
v 40.549843 0.000000 -115.077240
v 15.149611 0.000000 -210.277771
v 49.742599 0.000000 -219.951767
v 29.583447 0.000000 -295.505280
vt 0.129550 0.684720
vt 0.232720 0.522700
vt 0.048401 0.423900
vt 0.240450 0.659420
vt 0.352140 0.494770
vt 0.332170 0.954200
vt 0.558730 0.619530
vt 0.486750 0.388140
vt 0.094516 0.190400
vt 0.158920 0.397390
vt 0.720270 0.047207
vt 0.957880 0.811030
vn -0.5742 0.8043 0.1532
vn 0.1478 0.8183 0.5555
vn -0.5540 0.8193 0.1478
vn 0.1518 -0.8259 0.5430
vn 0.1465 -0.8229 0.5490
vn -0.5442 -0.8263 0.1452
vn 0.1481 0.8185 0.5550
usemtl None
s off
f 11/1/1 6/2/1 12/3/1
f 11/1/2 7/4/2 5/5/2 6/2/2
f 7/4/3 10/6/3 4/7/3 3/8/3 9/9/3 8/10/3 5/5/3
f 12/3/4 8/10/4 5/5/4 6/2/4
f 9/9/5 1/11/5 3/8/5
f 1/11/6 2/12/6 4/7/6 3/8/6
f 10/6/7 2/12/7 4/7/7
