# Blender v2.92.0 OBJ File: ''
# www.blender.org
mtllib BK39_500_012031_0064.mtl
o BK39_500_012031_0064
v 15.013649 75.000000 -159.604095
v 67.253616 75.000000 -260.988464
v 71.254013 75.000000 -82.339088
v 90.967896 75.000000 -120.467590
v 143.349548 75.000000 -221.778671
v 175.037064 75.000000 -283.065338
v 137.082184 145.000000 -48.412567
v 240.703796 144.821732 -249.237244
v 204.899750 75.000000 -13.475641
v 308.342682 75.000000 -214.377731
v 15.013649 0.000000 -159.604095
v 67.253616 0.000000 -260.988464
v 143.349548 0.000000 -221.778671
v 175.037064 0.000000 -283.065338
v 308.342682 0.000000 -214.377731
v 204.899750 0.000000 -13.475641
v 71.254013 0.000000 -82.339088
v 90.967896 0.000000 -120.467590
vn 0.6011 0.7368 0.3095
vn 0.6102 -0.7267 0.3155
vn 0.0000 -1.0000 0.0000
vn 0.4580 -0.0001 -0.8889
vn -0.4580 -0.0001 0.8889
vn 0.8889 0.0000 0.4580
vn -0.4580 0.0000 0.8889
vn 0.8883 0.0000 0.4593
vn -0.8891 0.0000 -0.4578
vn 0.4580 0.0000 -0.8889
usemtl None
s off
f 7//1 9//1 10//1 8//1
f 3//2 4//2 5//2 6//2 8//2 7//2
f 4//3 1//3 2//3 5//3
f 6//4 8//4 10//4
f 9//5 7//5 3//5
f 11//3 12//3 13//3 14//3 15//3 16//3 17//3 18//3
f 1//6 11//6 12//6 2//6
f 2//7 12//7 13//7 5//7
f 5//8 13//8 14//8 6//8
f 6//7 14//7 15//7 10//7
f 10//9 15//9 16//9 9//9
f 9//10 16//10 17//10 3//10
f 3//8 17//8 18//8 4//8
f 4//10 18//10 11//10 1//10
