# Blender v2.92.0 OBJ File: ''
# www.blender.org
mtllib BK39_500_014027_0029_roof.mtl
o BK39_500_014027_0029_roof
v 17.123287 75.000000 -260.476257
v 59.181446 75.000000 -82.740646
v 109.058899 130.142334 -161.215469
v 107.732430 131.269119 -172.731689
v 120.013306 145.000000 -192.859970
v 91.097450 75.000000 -435.542786
v 126.282600 75.000000 -286.110504
v 189.855118 75.000000 -113.696388
v 190.093628 75.000000 -121.446365
v 211.522980 75.000000 -126.485268
v 236.166229 75.000000 -22.513338
v 220.462570 144.987991 -216.464584
v 225.386185 139.803024 -224.418900
v 190.014374 139.721329 -374.191010
v 254.110199 122.930771 -196.681335
v 278.422729 122.925491 -94.077118
v 251.461609 75.000000 -473.530182
v 351.812286 75.000000 -49.907734
v 17.123287 0.000000 -260.476257
v 59.181446 0.000000 -82.740646
v 189.855118 0.000000 -113.696388
v 190.093628 0.000000 -121.446365
v 211.522980 0.000000 -126.485268
v 236.166229 0.000000 -22.513338
v 351.812286 0.000000 -49.907734
v 251.461609 0.000000 -473.530182
v 91.097450 0.000000 -435.542786
v 126.282600 0.000000 -286.110504
vt 0.638290 0.954520
vt 0.752490 0.809950
vt 0.950840 0.899180
vt 0.571680 0.744470
vt 0.686780 0.602660
vt 0.513770 0.754650
vt 0.291170 0.651050
vt 0.324360 0.610380
vt 0.595840 0.562700
vt 0.513120 0.770310
vt 0.294750 0.674310
vt 0.159950 0.832850
vt 0.046279 0.473790
vt 0.341300 0.422000
vt 0.609150 0.546630
vt 0.246210 0.120120
vt 0.513550 0.244060
vt 0.679630 0.043373
vn -0.1440 -0.7808 -0.6079
vn 0.6222 -0.7688 -0.1475
vn -0.1449 -0.7740 -0.6164
vn -0.5567 -0.8305 -0.0171
vn -0.1493 -0.7619 -0.6303
vn 0.6206 -0.7703 -0.1468
vn 0.1410 -0.7872 0.6004
vn 0.6021 -0.7858 -0.1418
vn 0.1423 -0.7868 0.6006
vn -0.5997 -0.7875 0.1421
usemtl None
s off
f 11/1/1 16/2/1 18/3/1
f 11/1/2 10/4/2 15/5/2 16/2/2
f 10/4/3 9/6/3 4/7/3 5/8/3 12/9/3 15/5/3
f 9/6/4 8/10/4 3/11/4 4/7/4
f 8/10/5 2/12/5 3/11/5
f 2/12/6 1/13/6 5/8/6 4/7/6 3/11/6
f 1/13/7 7/14/7 13/15/7 12/9/7 5/8/7
f 7/14/8 6/16/8 14/17/8 13/15/8
f 6/16/9 17/18/9 14/17/9
f 17/18/10 18/3/10 16/2/10 15/5/10 12/9/10 13/15/10 14/17/10
