# Blender v2.92.0 OBJ File: ''
# www.blender.org
mtllib BK39_500_013028_0005.mtl
o BK39_500_013028_0005
v 18.022308 75.000000 -286.976624
v 335.496002 75.000000 -364.280396
v 217.425919 131.124008 -255.966354
v 281.794647 131.247330 -271.465088
v 133.106537 144.848663 -215.978073
v 203.976074 145.000000 -233.020020
v 307.131409 75.000000 -200.525909
v 371.628937 75.000000 -215.886536
v 62.562851 75.000000 -104.064651
v 132.606491 75.000000 -120.704239
v 231.936478 144.822632 -116.625710
v 147.848663 75.000000 -57.815594
v 330.846313 75.000000 -100.943817
v 215.198318 75.000000 -16.871695
v 291.149872 75.000000 -35.365902
v 18.022308 0.000000 -286.976624
v 335.496002 0.000000 -364.280396
v 371.628937 0.000000 -215.886536
v 307.131409 0.000000 -200.525909
v 330.846313 0.000000 -100.943817
v 291.149872 0.000000 -35.365902
v 215.198318 0.000000 -16.871695
v 147.848663 0.000000 -57.815594
v 132.606491 0.000000 -120.704239
v 62.562851 0.000000 -104.064651
vn 0.1421 0.7996 0.5835
vn 0.3099 -0.8026 -0.5098
vn 0.5733 -0.8075 -0.1390
vn -0.1392 -0.7983 -0.5860
vn 0.5755 -0.8057 -0.1401
vn 0.1390 -0.8092 0.5708
vn -0.5873 -0.7967 0.1430
vn -0.1391 -0.7995 -0.5843
vn -0.5857 -0.7984 0.1395
vn -0.5146 -0.7989 -0.3115
vn 0.0000 -1.0000 0.0000
vn 0.2366 0.0000 0.9716
vn -0.9716 0.0000 0.2366
vn -0.2317 0.0000 -0.9728
vn -0.9728 0.0000 0.2317
vn -0.8555 0.0000 -0.5178
vn -0.2366 0.0000 -0.9716
vn 0.5195 0.0000 -0.8545
vn 0.9719 0.0000 -0.2355
vn -0.2311 0.0000 -0.9729
vn 0.9716 0.0000 -0.2366
usemtl None
s off
f 14//1 15//1 11//1
f 14//2 12//2 11//2
f 12//3 10//3 6//3 11//3
f 10//4 9//4 5//4 6//4
f 9//5 1//5 5//5
f 1//6 2//6 4//6 3//6 6//6 5//6
f 2//7 8//7 4//7
f 8//8 7//8 3//8 4//8
f 7//9 13//9 11//9 6//9 3//9
f 13//10 15//10 11//10
f 16//11 17//11 18//11 19//11 20//11 21//11 22//11 23//11 24//11 25//11
f 1//12 16//12 17//12 2//12
f 2//13 17//13 18//13 8//13
f 8//14 18//14 19//14 7//14
f 7//15 19//15 20//15 13//15
f 13//16 20//16 21//16 15//16
f 15//17 21//17 22//17 14//17
f 14//18 22//18 23//18 12//18
f 12//19 23//19 24//19 10//19
f 10//20 24//20 25//20 9//20
f 9//21 25//21 16//21 1//21
