# Blender v2.92.0 OBJ File: ''
# www.blender.org
mtllib BK39_500_014027_0034.mtl
o BK39_500_014027_0034
v 51.817154 75.000000 -329.349823
v 189.338242 75.000000 -363.744873
v 119.794495 142.447174 -346.342590
v 70.056808 75.000000 -253.274185
v 70.119362 75.000000 -252.989670
v 139.252121 142.869675 -267.069397
v 11.925762 75.000000 -160.102631
v 86.436684 75.000000 -178.781540
v 30.579470 145.000000 -85.473312
v 173.553513 144.988525 -121.328026
v 47.895508 75.000000 -16.212339
v 263.103455 75.000000 -70.199890
v 51.817154 0.000000 -329.349823
v 189.338242 0.000000 -363.744873
v 263.103455 0.000000 -70.199890
v 47.895508 0.000000 -16.212339
v 11.925762 0.000000 -160.102631
v 86.436684 0.000000 -178.781540
v 70.119362 0.000000 -252.989670
v 70.056808 0.000000 -253.274185
vn 0.1704 0.7140 0.6791
vn 0.6646 0.7283 -0.1670
vn 0.6744 -0.7204 -0.1617
vn -0.6771 0.7206 0.1489
vn -0.1637 0.7396 -0.6528
vn -0.2426 0.0001 -0.9701
vn -0.9701 -0.0000 0.2425
vn 0.0000 -1.0000 0.0000
vn 0.2426 0.0000 0.9701
vn -0.9698 0.0000 0.2437
vn -0.2433 0.0000 -0.9699
vn 0.9701 0.0000 -0.2425
vn 0.2432 0.0000 0.9700
vn 0.9767 0.0000 -0.2148
vn 0.9767 0.0000 -0.2147
vn 0.9724 0.0000 -0.2331
usemtl None
s off
f 12//1 10//1 9//1 11//1
f 12//2 2//2 3//2 6//2 10//2
f 6//3 4//3 1//3 3//3
f 4//4 5//4 8//4 10//4 6//4
f 8//5 7//5 9//5 10//5
f 1//6 3//6 2//6
f 11//7 9//7 7//7
f 13//8 14//8 15//8 16//8 17//8 18//8 19//8 20//8
f 1//9 13//9 14//9 2//9
f 2//10 14//10 15//10 12//10
f 12//11 15//11 16//11 11//11
f 11//12 16//12 17//12 7//12
f 7//13 17//13 18//13 8//13
f 8//14 18//14 19//14 5//14
f 5//15 19//15 20//15 4//15
f 4//16 20//16 13//16 1//16
