# Blender v2.92.0 OBJ File: ''
# www.blender.org
mtllib BK39_500_013029_0021_roof.mtl
o BK39_500_013029_0021_roof
v 365.884949 75.000000 -73.147408
v 152.169708 75.000000 -17.644897
v 231.301178 144.973328 -153.478302
v 53.624882 75.000000 -119.441376
v 467.476471 75.000000 -228.062805
v 120.813622 75.000000 -137.007294
v 334.514374 75.000000 -193.311615
v 217.340561 145.000000 -206.788315
v 175.900269 123.450272 -229.936066
v 105.635796 123.486633 -211.624969
v 243.120300 122.302086 -249.205963
v 377.341949 122.237297 -284.177094
v 15.920391 75.000000 -264.622864
v 430.041748 75.000000 -372.206635
v 365.884949 0.000000 -73.147408
v 152.169708 0.000000 -17.644897
v 120.813622 0.000000 -137.007294
v 53.624882 0.000000 -119.441376
v 15.920391 0.000000 -264.622864
v 430.041748 0.000000 -372.206635
v 467.476471 0.000000 -228.062805
v 334.514374 0.000000 -193.311615
vt 0.215140 0.457370
vt 0.032424 0.321480
vt 0.875850 0.045624
vt 0.768520 0.271340
vt 0.495150 0.361010
vt 0.442650 0.469770
vt 0.358250 0.410420
vt 0.952090 0.415220
vt 0.681290 0.504330
vt 0.745180 0.812440
vt 0.471080 0.606470
vt 0.309920 0.954760
vt 0.246060 0.648700
vt 0.109220 0.693740
vn 0.1380 -0.8359 0.5312
vn 0.5251 0.8400 -0.1364
vn -0.1321 -0.8526 -0.5055
vn -0.5196 -0.8436 0.1356
vn 0.1335 0.8472 0.5142
vn 0.5156 -0.8460 -0.1355
vn -0.1360 -0.8431 -0.5202
vn 0.5329 -0.8348 -0.1384
usemtl None
s off
f 10/1/1 13/2/1 14/3/1 12/4/1 11/5/1 8/6/1 9/7/1
f 12/4/2 5/8/2 14/3/2
f 5/8/3 7/9/3 11/5/3 12/4/3
f 7/9/4 1/10/4 3/11/4 8/6/4 11/5/4
f 3/11/5 2/12/5 1/10/5
f 2/12/6 6/13/6 9/7/6 8/6/6 3/11/6
f 6/13/7 4/14/7 10/1/7 9/7/7
f 4/14/8 13/2/8 10/1/8
