# Blender v2.92.0 OBJ File: ''
# www.blender.org
mtllib BK39_500_012030_0055.mtl
o BK39_500_012030_0055
v 292.550751 75.000000 -294.872864
v 329.535187 75.000000 -146.900909
v 260.503540 75.000000 -129.935822
v 223.597229 75.000000 -277.579529
v 194.468033 75.000000 -394.110870
v 272.312012 75.000000 -82.696068
v 238.168015 130.099457 -202.750061
v 171.389359 129.981216 -186.170609
v 192.727417 75.000000 -62.765087
v 127.603462 144.964462 -279.508881
v 159.515976 145.000000 -151.648880
v 166.241104 75.000000 -18.661728
v 122.197884 75.000000 -45.101837
v 66.576065 75.000000 -147.978271
v 16.331940 75.000000 -349.586304
v 93.976021 75.000000 -38.034031
v 17.136631 75.000000 -135.620972
v 44.612110 75.000000 -25.695580
v 292.550751 0.000000 -294.872864
v 329.535187 0.000000 -146.900909
v 260.503540 0.000000 -129.935822
v 272.312012 0.000000 -82.696068
v 192.727417 0.000000 -62.765087
v 166.241104 0.000000 -18.661728
v 122.197884 0.000000 -45.101837
v 93.976021 0.000000 -38.034031
v 44.612110 0.000000 -25.695580
v 17.136631 0.000000 -135.620972
v 66.576065 0.000000 -147.978271
v 16.331940 0.000000 -349.586304
v 194.468033 0.000000 -394.110870
v 223.597229 0.000000 -277.579529
vn 0.0000 -1.0000 0.0000
vn 0.5913 -0.7928 -0.1474
vn 0.1438 -0.8051 0.5754
vn -0.1426 0.8101 -0.5687
vn -0.1448 -0.8029 -0.5782
vn 0.5846 0.7981 -0.1461
vn 0.1400 0.8098 0.5698
vn 0.5739 0.8063 -0.1434
vn -0.9702 0.0000 0.2425
vn -0.2387 0.0000 -0.9711
vn -0.9701 0.0000 0.2425
vn -0.2429 0.0000 -0.9700
vn -0.8573 0.0000 -0.5148
vn 0.5147 0.0000 -0.8574
vn -0.2425 0.0000 -0.9702
vn 0.9702 0.0000 -0.2425
vn 0.2425 0.0000 0.9702
vn 0.9703 0.0000 -0.2418
vn 0.2433 0.0000 0.9700
usemtl None
s off
f 17//1 14//1 16//1 18//1
f 12//1 13//1 9//1
f 15//2 10//2 11//2 16//2 14//2
f 5//3 10//3 15//3
f 4//4 8//4 7//4 1//4
f 16//5 11//5 6//5 9//5 13//5
f 6//6 3//6 8//6 4//6 5//6 10//6 11//6
f 3//7 2//7 7//7 8//7
f 2//8 1//8 7//8
f 19//1 20//1 21//1 22//1 23//1 24//1 25//1 26//1 27//1 28//1 29//1 30//1 31//1 32//1
f 1//9 19//9 20//9 2//9
f 2//10 20//10 21//10 3//10
f 3//11 21//11 22//11 6//11
f 6//12 22//12 23//12 9//12
f 9//13 23//13 24//13 12//13
f 12//14 24//14 25//14 13//14
f 13//12 25//12 26//12 16//12
f 16//15 26//15 27//15 18//15
f 18//16 27//16 28//16 17//16
f 17//17 28//17 29//17 14//17
f 14//18 29//18 30//18 15//18
f 15//17 30//17 31//17 5//17
f 5//11 31//11 32//11 4//11
f 4//19 32//19 19//19 1//19
