# Blender v2.92.0 OBJ File: ''
# www.blender.org
mtllib BK39_500_018026_0025_roof.mtl
o BK39_500_018026_0025_roof
v 315.287292 144.643967 -94.639664
v 333.682190 75.000000 -176.289352
v 296.396088 75.000000 -10.972321
v 35.538227 145.000000 -158.102356
v 54.067337 75.000000 -240.160263
v 16.588205 75.000000 -73.998787
v 333.682190 0.000000 -176.289352
v 296.396088 0.000000 -10.972321
v 16.588205 0.000000 -73.998787
v 54.067337 0.000000 -240.160263
vt 0.101540 0.370110
vt 0.900820 0.622950
vt 0.846850 0.956290
vt 0.047395 0.705180
vt 0.953380 0.297650
vt 0.154480 0.043186
vn 0.1385 -0.7763 -0.6149
vn 0.1424 0.7687 -0.6236
vn 0.9755 0.0003 0.2200
vn -0.9755 0.0003 -0.2200
usemtl None
s off
f 4/1/1 1/2/1 3/3/1 6/4/1
f 1/2/2 2/5/2 5/6/2 4/1/2
f 5/6/3 4/1/3 6/4/3
f 3/3/4 1/2/4 2/5/4
