# Blender v2.92.0 OBJ File: ''
# www.blender.org
mtllib BK39_500_016029_0043_roof.mtl
o BK39_500_016029_0043_roof
v 58.500618 75.000000 -256.079041
v 373.399689 75.000000 -173.856689
v 72.745819 144.969788 -164.909744
v 316.203369 145.000000 -101.303520
v 330.974396 75.000000 -11.396078
v 16.099016 75.000000 -93.709091
v 58.500618 0.000000 -256.079041
v 373.399689 0.000000 -173.856689
v 330.974396 0.000000 -11.396078
v 16.099016 0.000000 -93.709091
vt 0.186050 0.386950
vt 0.808700 0.623410
vt 0.954990 0.353690
vt 0.149620 0.048033
vt 0.846480 0.957640
vt 0.041174 0.651640
vn 0.1610 0.7706 -0.6166
vn 0.8554 0.4674 0.2234
vn 0.1628 -0.7654 -0.6227
vn 0.8562 -0.4657 0.2236
usemtl None
s off
f 3/1/1 4/2/1 2/3/1 1/4/1
f 4/2/2 5/5/2 2/3/2
f 5/5/3 6/6/3 3/1/3 4/2/3
f 6/6/4 1/4/4 3/1/4
