# Blender v2.92.0 OBJ File: ''
# www.blender.org
mtllib BK39_500_016032_0042_roof.mtl
o BK39_500_016032_0042_roof
v 124.890274 75.000000 -15.750051
v 358.225189 75.000000 -72.714928
v 281.576141 118.481232 -119.114914
v 245.570038 118.665871 -110.601112
v 199.439194 145.000000 -138.774048
v 292.328735 75.000000 -185.254639
v 328.724670 75.000000 -193.587280
v 46.540363 75.000000 -142.265884
v 91.461754 75.000000 -152.952454
v 184.097046 144.971832 -201.571014
v 138.093796 118.719147 -229.493454
v 93.090096 118.622894 -218.643204
v 258.319611 75.000000 -324.077850
v 16.582766 75.000000 -265.024536
v 124.890274 0.000000 -15.750051
v 358.225189 0.000000 -72.714928
v 328.724670 0.000000 -193.587280
v 292.328735 0.000000 -185.254639
v 258.319611 0.000000 -324.077850
v 16.582766 0.000000 -265.024536
v 46.540363 0.000000 -142.265884
v 91.461754 0.000000 -152.952454
vt 0.332150 0.953540
vt 0.530420 0.590640
vt 0.653110 0.673740
vt 0.748870 0.648630
vt 0.952730 0.785500
vt 0.874270 0.428950
vt 0.777470 0.453530
vt 0.687020 0.044018
vt 0.489620 0.405400
vt 0.044103 0.218220
vt 0.247580 0.355030
vt 0.367270 0.323030
vt 0.123780 0.580340
vt 0.243250 0.548810
vn -0.1343 -0.8241 -0.5503
vn 0.5491 0.8249 -0.1340
vn -0.1280 0.8190 -0.5593
vn 0.5522 0.8226 -0.1353
vn -0.1348 0.8230 -0.5518
vn -0.5511 0.8235 0.1345
vn 0.1310 0.8244 0.5507
vn -0.5514 0.8233 0.1343
usemtl None
s off
f 1/1/1 5/2/1 4/3/1 3/4/1 2/5/1
f 2/5/2 7/6/2 3/4/2
f 7/6/3 6/7/3 4/3/3 3/4/3
f 6/7/4 13/8/4 10/9/4 5/2/4 4/3/4
f 13/8/5 14/10/5 12/11/5 11/12/5 10/9/5
f 14/10/6 8/13/6 12/11/6
f 8/13/7 9/14/7 11/12/7 12/11/7
f 9/14/8 1/1/8 5/2/8 10/9/8 11/12/8
