# Blender v2.92.0 OBJ File: ''
# www.blender.org
mtllib BK39_500_013026_0041_roof.mtl
o BK39_500_013026_0041_roof
v 322.955414 75.000000 -390.987091
v 20.133823 75.000000 -296.583374
v 248.652832 136.936951 -281.040558
v 44.672230 136.838089 -217.588745
v 262.151031 144.982285 -273.975861
v 193.810883 75.000000 -177.384583
v 69.191162 75.000000 -138.703873
v 421.457733 75.000000 -73.979370
v 243.125168 75.000000 -18.566525
v 332.827789 145.000000 -46.439491
v 322.955414 0.000000 -390.987091
v 20.133823 0.000000 -296.583374
v 69.191162 0.000000 -138.703873
v 193.810883 0.000000 -177.384583
v 243.125168 0.000000 -18.566525
v 421.457733 0.000000 -73.979370
vt 0.156900 0.661700
vt 0.101300 0.469300
vt 0.563840 0.314540
vt 0.439480 0.567350
vt 0.551300 0.954720
vt 0.754710 0.886730
vt 0.594450 0.331770
vt 0.955690 0.819560
vt 0.732330 0.046373
vt 0.045655 0.276630
vn -0.1776 -0.8005 -0.5723
vn -0.5707 0.8018 0.1772
vn 0.5750 0.7984 -0.1787
vn -0.1782 0.8009 -0.5716
vn 0.9550 0.0001 -0.2967
vn -0.2967 0.0000 -0.9550
usemtl None
s off
f 7/1/1 4/2/1 3/3/1 6/4/1
f 6/4/2 9/5/2 10/6/2 5/7/2 3/3/2
f 10/6/3 8/8/3 1/9/3 5/7/3
f 1/9/4 2/10/4 4/2/4 3/3/4 5/7/4
f 2/10/5 4/2/5 7/1/5
f 9/5/6 10/6/6 8/8/6
