# Blender v2.92.0 OBJ File: ''
# www.blender.org
mtllib BK39_500_012030_0063.mtl
o BK39_500_012030_0063
v 502.688568 75.000000 -418.762360
v 587.553955 75.000000 -240.601227
v 576.171509 75.000000 -221.165451
v 615.612366 75.000000 -138.269501
v 572.778076 101.565811 -117.889763
v 472.739075 114.844315 -315.317505
v 468.171570 114.840500 -324.922150
v 545.884644 112.130547 -130.506653
v 511.377228 112.082588 -203.232956
v 463.535919 125.397942 -290.584808
v 467.477264 125.644417 -281.281769
v 541.576355 102.925140 -103.044075
v 447.889709 129.249191 -265.325043
v 373.325256 75.000000 -357.211487
v 434.034607 144.672272 -230.346893
v 378.502625 75.000000 -346.306274
v 483.345032 75.000000 -115.164886
v 498.729279 75.000000 -82.656837
v 345.042358 75.000000 -330.121918
v 349.408508 75.000000 -318.290649
v 417.854218 75.000000 -82.872467
v 422.902924 75.000000 -73.187614
v 360.541199 145.000000 -194.764725
v 286.498352 112.156578 -219.967606
v 367.312561 111.199158 -46.723515
v 334.411499 110.429955 -112.665276
v 206.211685 75.000000 -250.136414
v 187.150696 75.000000 -289.042328
v 257.020538 75.000000 -134.646622
v 311.592712 75.000000 -20.218464
v 177.852829 112.461060 -167.697678
v 143.493484 127.815338 -180.314972
v 102.813904 75.000000 -59.631435
v 29.373253 75.000000 -213.974014
v 502.688568 0.000000 -418.762360
v 587.553955 0.000000 -240.601227
v 576.171509 0.000000 -221.165451
v 615.612366 0.000000 -138.269501
v 498.729279 0.000000 -82.656837
v 483.345032 0.000000 -115.164886
v 417.854218 0.000000 -82.872467
v 422.902924 0.000000 -73.187614
v 311.592712 0.000000 -20.218464
v 257.020538 0.000000 -134.646622
v 102.813904 0.000000 -59.631435
v 29.373253 0.000000 -213.974014
v 187.150696 0.000000 -289.042328
v 206.211685 0.000000 -250.136414
v 349.408508 0.000000 -318.290649
v 345.042358 0.000000 -330.121918
v 378.502625 0.000000 -346.306274
v 373.325256 0.000000 -357.211487
vn 0.4497 0.8619 -0.2344
vn 0.2152 0.8737 0.4364
vn 0.4585 -0.8618 -0.2170
vn -0.4412 -0.8725 0.2099
vn -0.3259 -0.9259 -0.1908
vn 0.4394 0.8736 -0.2093
vn -0.2127 0.8688 -0.4471
vn -0.4382 0.8745 0.2080
vn -0.2179 0.8658 -0.4505
vn -0.4309 0.8883 0.1590
vn -0.2216 0.8568 -0.4656
vn 0.4659 0.8549 -0.2282
vn -0.2379 0.8327 -0.5000
vn -0.4624 0.8589 0.2200
vn 0.2201 0.8642 0.4524
vn 0.2016 0.9187 0.3396
vn 0.4567 -0.8625 -0.2178
vn 0.4296 0.0000 0.9030
vn 0.4297 -0.0003 0.9030
vn 0.0000 -1.0000 0.0000
vn -0.9028 0.0000 0.4300
vn -0.8629 0.0000 -0.5054
vn -0.9030 0.0000 0.4296
vn -0.4296 0.0000 -0.9030
vn 0.9039 0.0000 -0.4278
vn -0.4422 0.0000 -0.8969
vn -0.8867 0.0000 0.4623
vn -0.4297 0.0000 -0.9030
vn 0.9026 0.0000 -0.4305
vn -0.4374 0.0000 -0.8992
vn 0.9030 0.0000 -0.4297
vn -0.8980 0.0000 0.4400
vn 0.4298 0.0000 0.9029
vn 0.9382 0.0000 -0.3462
vn 0.4354 0.0000 0.9002
vn 0.9034 0.0000 -0.4289
usemtl None
s off
f 25//1 22//1 21//1 26//1
f 21//2 17//2 9//2 15//2 23//2 26//2
f 18//3 17//3 9//3 8//3 12//3
f 4//4 5//4 8//4 9//4 15//4 13//4 3//4
f 11//5 2//5 3//5 13//5
f 1//6 7//6 6//6 10//6 11//6 2//6
f 14//7 7//7 1//7
f 16//8 6//8 7//8 14//8
f 19//9 10//9 6//9 16//9
f 20//10 11//10 10//10 19//10
f 27//11 31//11 24//11 23//11 15//11 13//11 11//11 20//11
f 32//12 31//12 27//12 28//12
f 34//13 32//13 28//13
f 33//14 32//14 34//14
f 33//15 29//15 24//15 31//15 32//15
f 12//16 5//16 8//16
f 30//17 29//17 24//17 23//17 26//17 25//17
f 4//18 5//18 12//18 18//18
f 22//19 25//19 30//19
f 35//20 36//20 37//20 38//20 39//20 40//20 41//20 42//20 43//20 44//20 45//20 46//20 47//20 48//20 49//20 50//20 51//20 52//20
f 1//21 35//21 36//21 2//21
f 2//22 36//22 37//22 3//22
f 3//23 37//23 38//23 4//23
f 4//24 38//24 39//24 18//24
f 18//25 39//25 40//25 17//25
f 17//26 40//26 41//26 21//26
f 21//27 41//27 42//27 22//27
f 22//28 42//28 43//28 30//28
f 30//29 43//29 44//29 29//29
f 29//30 44//30 45//30 33//30
f 33//31 45//31 46//31 34//31
f 34//18 46//18 47//18 28//18
f 28//32 47//32 48//32 27//32
f 27//33 48//33 49//33 20//33
f 20//34 49//34 50//34 19//34
f 19//35 50//35 51//35 16//35
f 16//36 51//36 52//36 14//36
f 14//18 52//18 35//18 1//18
