# Blender v2.92.0 OBJ File: ''
# www.blender.org
mtllib BK39_500_016025_0074_roof.mtl
o BK39_500_016025_0074_roof
v 35.416428 145.000000 -141.495422
v 18.420088 75.000000 -226.723694
v 52.991383 75.000000 -53.394279
v 66.264717 75.000000 -56.051624
v 74.651924 75.000000 -14.000459
v 138.519867 75.000000 -70.517235
v 146.917480 75.000000 -28.414104
v 357.011780 144.897079 -205.744720
v 340.034607 75.000000 -290.846527
v 374.554871 75.000000 -117.771912
v 18.420088 0.000000 -226.723694
v 52.991383 0.000000 -53.394279
v 66.264717 0.000000 -56.051624
v 74.651924 0.000000 -14.000459
v 146.917480 0.000000 -28.414104
v 138.519867 0.000000 -70.517235
v 374.554871 0.000000 -117.771912
v 340.034607 0.000000 -290.846527
vt 0.906120 0.325430
vt 0.089889 0.536080
vt 0.046751 0.256640
vt 0.863030 0.046405
vt 0.950650 0.613860
vt 0.351570 0.768800
vt 0.168180 0.816220
vt 0.134500 0.824940
vt 0.189470 0.954100
vt 0.372890 0.906840
vn 0.1227 -0.7788 0.6152
vn -0.1207 -0.7888 -0.6027
vn 0.0000 1.0000 0.0000
vn 0.9807 -0.0000 -0.1956
vn -0.9807 -0.0000 0.1956
usemtl None
s off
f 8/1/1 1/2/1 2/3/1 9/4/1
f 8/1/2 10/5/2 6/6/2 4/7/2 3/8/2 1/2/2
f 5/9/3 7/10/3 6/6/3 4/7/3
f 9/4/4 8/1/4 10/5/4
f 3/8/5 1/2/5 2/3/5
