# Blender v2.92.0 OBJ File: ''
# www.blender.org
mtllib BK39_500_016027_0037.mtl
o BK39_500_016027_0037
v 341.352264 75.000000 -83.153687
v 305.224213 75.000000 -238.381393
v 241.436829 75.000000 -223.538361
v 219.197754 75.000000 -319.090729
v 249.797699 144.981339 -142.794037
v 121.874313 75.000000 -195.716721
v 99.636467 75.000000 -291.263733
v 115.014023 145.000000 -111.408440
v 52.504810 75.000000 -15.846643
v 16.356083 75.000000 -171.163116
v 341.352264 0.000000 -83.153687
v 305.224213 0.000000 -238.381393
v 241.436829 0.000000 -223.538361
v 219.197754 0.000000 -319.090729
v 99.636467 0.000000 -291.263733
v 121.874313 0.000000 -195.716721
v 16.356083 0.000000 -171.163116
v 52.504810 0.000000 -15.846643
vn 0.6614 0.7341 -0.1539
vn -0.1487 0.7548 -0.6388
vn 0.0000 -1.0000 0.0000
vn 0.1506 0.7480 0.6464
vn 0.6299 -0.7627 -0.1466
vn 0.0000 1.0000 0.0000
vn 0.9740 0.0000 -0.2267
vn -0.2266 0.0000 -0.9740
vn -0.2267 0.0000 -0.9740
vn -0.9740 0.0000 0.2267
vn 0.2269 0.0000 0.9739
usemtl None
s off
f 1//1 2//1 5//1
f 10//2 8//2 5//2 2//2 3//2 6//2
f 6//3 7//3 4//3 3//3
f 9//4 1//4 5//4 8//4
f 9//5 10//5 8//5
f 11//6 12//6 13//6 14//6 15//6 16//6 17//6 18//6
f 1//7 11//7 12//7 2//7
f 2//8 12//8 13//8 3//8
f 3//7 13//7 14//7 4//7
f 4//9 14//9 15//9 7//9
f 7//10 15//10 16//10 6//10
f 6//8 16//8 17//8 10//8
f 10//10 17//10 18//10 9//10
f 9//11 18//11 11//11 1//11
