# Blender v2.92.0 OBJ File: ''
# www.blender.org
mtllib BK39_500_013033_0025.mtl
o BK39_500_013033_0025
v 316.807404 75.000000 -171.684875
v 186.366089 75.000000 -15.732481
v 177.666779 144.444931 -122.465714
v 210.883423 144.786240 -162.754395
v 99.755951 75.000000 -153.311462
v 68.228355 75.000000 -114.479912
v 126.204140 145.000000 -233.291077
v 114.495522 75.000000 -340.921722
v 15.849472 75.000000 -222.896057
v 316.807404 0.000000 -171.684875
v 186.366089 0.000000 -15.732481
v 68.228355 0.000000 -114.479912
v 99.755951 0.000000 -153.311462
v 15.849472 0.000000 -222.896057
v 114.495522 0.000000 -340.921722
vn -0.4316 0.7396 0.5164
vn 0.5206 0.7344 0.4354
vn 0.4377 0.7312 -0.5232
vn -0.5125 0.7443 -0.4283
vn -0.4250 0.7461 0.5125
vn -0.5092 0.7549 -0.4134
vn 0.0000 -1.0000 0.0000
vn -0.7671 0.0000 -0.6416
vn 0.6413 0.0000 -0.7673
vn 0.7763 0.0000 0.6303
vn 0.6384 0.0000 -0.7697
vn 0.7673 0.0000 0.6413
vn -0.6416 0.0000 0.7670
usemtl None
s off
f 2//1 3//1 6//1
f 2//2 1//2 4//2 3//2
f 1//3 8//3 7//3 4//3
f 8//4 9//4 7//4
f 9//5 5//5 4//5 7//5
f 5//6 6//6 3//6 4//6
f 10//7 11//7 12//7 13//7 14//7 15//7
f 1//8 10//8 11//8 2//8
f 2//9 11//9 12//9 6//9
f 6//10 12//10 13//10 5//10
f 5//11 13//11 14//11 9//11
f 9//12 14//12 15//12 8//12
f 8//13 15//13 10//13 1//13
