# Blender v2.92.0 OBJ File: ''
# www.blender.org
mtllib BK39_500_014031_0080_roof.mtl
o BK39_500_014031_0080_roof
v 93.996712 145.000000 -332.670013
v 174.394119 75.000000 -352.489685
v 11.793305 75.000000 -312.404510
v 166.976196 144.955002 -36.454437
v 84.825478 75.000000 -16.202593
v 247.321732 75.000000 -56.262108
v 174.394119 0.000000 -352.489685
v 11.793305 0.000000 -312.404510
v 84.825478 0.000000 -16.202593
v 247.321732 0.000000 -56.262108
vt 0.045359 0.153380
vt 0.326250 0.956090
vt 0.642220 0.901210
vt 0.361530 0.098455
vt 0.951240 0.847530
vt 0.670750 0.044743
vn -0.6187 0.7707 0.1525
vn 0.6269 0.7637 -0.1543
vn 0.2394 -0.0000 0.9709
vn -0.2394 -0.0000 -0.9709
usemtl None
s off
f 3/1/1 5/2/1 4/3/1 1/4/1
f 4/3/2 6/5/2 2/6/2 1/4/2
f 6/5/3 4/3/3 5/2/3
f 3/1/4 1/4/4 2/6/4
