# Blender v2.92.0 OBJ File: ''
# www.blender.org
mtllib BK39_500_014028_0045.mtl
o BK39_500_014028_0045
v 305.444061 75.000000 -17.202089
v 483.913818 75.000000 -59.694904
v 368.625824 139.697769 -131.633636
v 70.271545 75.000000 -72.391022
v 280.359985 75.000000 -122.411682
v 458.865692 75.000000 -164.912720
v 498.301788 75.000000 -174.302185
v 343.446503 139.710831 -237.319412
v 139.013779 144.992279 -196.797714
v 378.177856 145.000000 -253.753006
v 24.356018 75.000000 -265.236267
v 452.377197 75.000000 -367.185516
v 305.444061 0.000000 -17.202089
v 483.913818 0.000000 -59.694904
v 458.865692 0.000000 -164.912720
v 498.301788 0.000000 -174.302185
v 452.377197 0.000000 -367.185516
v 24.356018 0.000000 -265.236267
v 70.271545 0.000000 -72.391022
v 280.359985 0.000000 -122.411682
vn 0.1288 0.8311 0.5410
vn 0.5457 0.8279 -0.1299
vn 0.5637 0.8150 -0.1342
vn -0.1392 0.7994 -0.5844
vn -0.5743 0.8071 0.1367
vn 0.1284 0.8323 0.5392
vn 0.5762 -0.8057 -0.1374
vn 0.0000 1.0000 0.0000
vn 0.2316 0.0000 0.9728
vn 0.9728 0.0000 -0.2316
vn -0.2317 0.0000 -0.9728
vn -0.9728 0.0000 0.2316
vn -0.9727 0.0000 0.2319
usemtl None
s off
f 1//1 2//1 3//1
f 2//2 6//2 8//2 3//2
f 7//3 12//3 10//3
f 12//4 11//4 9//4 10//4
f 11//5 4//5 9//5
f 4//6 5//6 8//6 6//6 7//6 10//6 9//6
f 1//7 5//7 8//7 3//7
f 13//8 14//8 15//8 16//8 17//8 18//8 19//8 20//8
f 1//9 13//9 14//9 2//9
f 2//10 14//10 15//10 6//10
f 6//9 15//9 16//9 7//9
f 7//10 16//10 17//10 12//10
f 12//11 17//11 18//11 11//11
f 11//12 18//12 19//12 4//12
f 4//9 19//9 20//9 5//9
f 5//13 20//13 13//13 1//13
