# Blender v2.92.0 OBJ File: ''
# www.blender.org
mtllib BK39_500_017028_0089_roof.mtl
o BK39_500_017028_0089_roof
v 13.364332 75.000000 -196.976669
v 52.268742 75.000000 -16.240946
v 66.899750 75.000000 -322.125977
v 90.403671 75.000000 -213.735718
v 120.789024 144.962921 -125.769409
v 164.853271 145.000000 -135.304977
v 156.316620 130.965805 -264.588470
v 179.443787 130.902725 -157.535751
v 214.035187 75.000000 -353.798004
v 276.306427 75.000000 -64.467613
v 13.364332 0.000000 -196.976669
v 52.268742 0.000000 -16.240946
v 276.306427 0.000000 -64.467613
v 214.035187 0.000000 -353.798004
v 66.899750 0.000000 -322.125977
v 90.403671 0.000000 -213.735718
vt 0.180860 0.955380
vt 0.417960 0.654480
vt 0.046243 0.458860
vt 0.956080 0.822890
vt 0.570430 0.628280
vt 0.740610 0.028028
vt 0.540890 0.273110
vt 0.620910 0.567210
vt 0.231490 0.115040
vt 0.312820 0.412810
vn -0.5999 0.7896 0.1291
vn 0.1268 0.7980 0.5891
vn 0.5837 0.8022 -0.1256
vn 0.1258 -0.8017 0.5843
vn -0.5835 0.8022 0.1265
vn 0.1283 -0.7973 0.5898
usemtl None
s off
f 2/1/1 5/2/1 1/3/1
f 2/1/2 10/4/2 6/5/2 5/2/2
f 10/4/3 9/6/3 7/7/3 8/8/3 6/5/3
f 7/7/4 3/9/4 9/6/4
f 7/7/5 3/9/5 4/10/5 8/8/5
f 6/5/6 5/2/6 1/3/6 4/10/6 8/8/6
