# Blender v2.92.0 OBJ File: ''
# www.blender.org
mtllib BK39_500_017030_0029_roof.mtl
o BK39_500_017030_0029_roof
v 528.273682 75.000000 -159.145142
v 484.902863 145.000000 -87.524376
v 456.421021 75.000000 -215.489243
v 450.924957 75.000000 -205.972824
v 442.414490 75.000000 -17.367203
v 432.296997 100.027565 -230.104919
v 411.224335 100.409683 -194.478745
v 406.784332 75.000000 -245.551483
v 401.081848 75.000000 -236.148315
v 379.375854 75.000000 -350.802979
v 377.264465 75.000000 -250.567596
v 295.129028 144.902344 -202.551865
v 296.512604 144.894684 -267.813873
v 272.123993 75.000000 -120.705360
v 210.445862 75.000000 -288.913208
v 211.841736 75.000000 -354.308228
v 26.340014 144.864960 -208.201279
v 24.619442 75.000000 -125.947945
v 28.108610 75.000000 -292.714874
v 528.273682 0.000000 -159.145142
v 450.924957 0.000000 -205.972824
v 456.421021 0.000000 -215.489243
v 406.784332 0.000000 -245.551483
v 401.081848 0.000000 -236.148315
v 377.264465 0.000000 -250.567596
v 379.375854 0.000000 -350.802979
v 211.841736 0.000000 -354.308228
v 210.445862 0.000000 -288.913208
v 28.108610 0.000000 -292.714874
v 24.619442 0.000000 -125.947945
v 272.123993 0.000000 -120.705360
v 442.414490 0.000000 -17.367203
vt 0.880040 0.764090
vt 0.802930 0.953190
vt 0.493870 0.674650
vt 0.535620 0.454040
vt 0.684690 0.324620
vt 0.727920 0.363480
vt 0.746320 0.475800
vt 0.818380 0.444820
vt 0.958750 0.571040
vt 0.784570 0.379770
vt 0.738270 0.338140
vt 0.828350 0.419170
vt 0.384470 0.044991
vt 0.381930 0.221260
vt 0.538140 0.278130
vt 0.051014 0.211010
vt 0.047804 0.438810
vt 0.044681 0.660520
vt 0.688520 0.054439
vn 0.3368 -0.7606 -0.5550
vn -0.3322 -0.7672 0.5487
vn -0.5496 0.7660 -0.3333
vn -0.5748 -0.7479 -0.3320
vn -0.6284 0.7778 -0.0134
vn 0.0133 0.7708 -0.6369
vn -0.0137 0.7622 0.6471
vn -0.6527 -0.7575 -0.0137
vn 0.0133 0.7713 -0.6363
vn 0.8554 -0.0000 0.5180
vn -0.9998 -0.0000 -0.0209
vn 0.5180 -0.0002 -0.8554
usemtl None
s off
f 2/1/1 5/2/1 14/3/1 12/4/1
f 12/4/2 11/5/2 9/6/2 7/7/2 4/8/2 1/9/2 2/1/2
f 7/7/3 6/10/3 8/11/3 9/6/3
f 6/10/4 3/12/4 4/8/4 7/7/4
f 16/13/5 15/14/5 12/4/5 13/15/5
f 15/14/6 19/16/6 17/17/6 12/4/6
f 17/17/7 18/18/7 14/3/7 12/4/7
f 12/4/8 13/15/8 10/19/8 11/5/8
f 10/19/9 16/13/9 13/15/9
f 1/9/10 2/1/10 5/2/10
f 18/18/11 17/17/11 19/16/11
f 8/11/12 6/10/12 3/12/12
