# Blender v2.92.0 OBJ File: ''
# www.blender.org
mtllib BK39_500_003055_0010.mtl
o BK39_500_003055_0010
v 363.182556 75.000000 -605.361267
v 131.415359 75.000000 -579.770691
v 202.601654 142.220154 -524.273743
v 262.151520 142.354004 -530.722778
v 308.417816 142.833038 -535.379761
v 242.324951 144.382324 -173.065002
v 345.193726 145.000000 -184.980240
v 296.783813 144.503403 -179.188278
v 18.040903 75.000000 -140.034744
v 176.643463 75.000000 -157.589005
v 182.361359 75.000000 -104.215248
v 415.783264 75.000000 -129.995331
v 188.192154 75.000000 -47.356976
v 30.230759 75.000000 -29.877218
v 363.182556 0.000000 -605.361267
v 131.415359 0.000000 -579.770691
v 176.643463 0.000000 -157.589005
v 18.040903 0.000000 -140.034744
v 30.230759 0.000000 -29.877218
v 188.192154 0.000000 -47.356976
v 182.361359 0.000000 -104.215248
v 415.783264 0.000000 -129.995331
vn -0.7330 -0.6754 0.0811
vn 0.0801 -0.6837 0.7254
vn -0.0819 -0.6654 -0.7419
vn -0.0109 0.9999 -0.0050
vn 0.0029 -1.0000 0.0058
vn 0.0000 1.0000 -0.0000
vn -0.7155 0.6944 0.0766
vn -0.1097 0.0000 -0.9940
vn -0.9943 0.0000 0.1065
vn -0.1100 0.0000 -0.9939
vn -0.9939 0.0000 0.1100
vn 0.1100 0.0000 0.9939
vn 0.9948 0.0000 -0.1020
vn 0.1098 0.0000 0.9940
vn 0.9939 0.0000 -0.1100
usemtl None
s off
f 12//1 7//1 5//1 1//1
f 1//2 5//2 4//2 3//2 2//2
f 11//3 6//3 8//3 7//3 12//3
f 8//4 7//4 5//4 4//4
f 4//5 8//5 6//5 3//5
f 13//6 11//6 10//6 9//6 14//6
f 11//7 6//7 3//7 2//7 10//7
f 15//6 16//6 17//6 18//6 19//6 20//6 21//6 22//6
f 1//8 15//8 16//8 2//8
f 2//9 16//9 17//9 10//9
f 10//10 17//10 18//10 9//10
f 9//11 18//11 19//11 14//11
f 14//12 19//12 20//12 13//12
f 13//13 20//13 21//13 11//13
f 11//14 21//14 22//14 12//14
f 12//15 22//15 15//15 1//15
