# Blender v2.92.0 OBJ File: ''
# www.blender.org
mtllib BK39_500_018030_0014.mtl
o BK39_500_018030_0014
v 22.129169 75.000000 -398.604614
v 153.784973 75.000000 -537.323853
v 154.354141 127.719238 -402.203186
v 134.445679 75.000000 -292.774811
v 89.380821 75.000000 -245.033203
v 135.165863 75.000000 -201.073456
v 61.318695 75.000000 -124.119301
v 266.469940 127.569901 -296.199402
v 347.710480 75.000000 -353.310791
v 349.687347 75.000000 -351.434967
v 134.684082 105.092339 -124.114975
v 156.939529 104.972115 -147.612244
v 266.840118 145.000000 -251.352921
v 285.253906 137.623184 -252.711761
v 266.370605 126.864777 -206.024124
v 211.056442 127.107727 -147.765472
v 134.574524 75.000000 -54.589828
v 157.060760 75.000000 -78.610970
v 349.850250 137.176025 -192.558777
v 215.574966 75.000000 -23.766390
v 285.802612 75.000000 -98.494873
v 457.801727 75.000000 -248.846817
v 457.747833 75.000000 -248.897949
v 309.949036 75.000000 -76.419693
v 466.117737 75.000000 -240.955856
v 22.129169 0.000000 -398.604614
v 153.784973 0.000000 -537.323853
v 347.710480 0.000000 -353.310791
v 349.687347 0.000000 -351.434967
v 457.801727 0.000000 -248.846817
v 457.747833 0.000000 -248.897949
v 466.117737 0.000000 -240.955856
v 309.949036 0.000000 -76.419693
v 285.802612 0.000000 -98.494873
v 215.574966 0.000000 -23.766390
v 157.060760 0.000000 -78.610970
v 134.574524 0.000000 -54.589828
v 61.318695 0.000000 -124.119301
v 135.165863 0.000000 -201.073456
v 89.380821 0.000000 -245.033203
v 134.445679 0.000000 -292.774811
vn -0.3524 0.8591 0.3713
vn 0.3911 0.8444 0.3661
vn 0.3503 -0.8589 -0.3737
vn -0.3261 0.8755 0.3567
vn -0.5607 -0.6343 -0.5322
vn -0.3706 -0.8610 -0.3483
vn -0.3271 -0.8799 0.3447
vn -0.3564 0.8709 -0.3383
vn 0.3374 -0.8706 -0.3581
vn -0.3559 0.8720 -0.3360
vn 0.3334 -0.8765 -0.3472
vn 0.3566 -0.8694 0.3422
vn 0.0000 -1.0000 0.0000
vn 0.7253 0.0000 0.6884
vn -0.6883 0.0000 0.7254
vn 0.6882 0.0000 -0.7255
vn -0.7253 0.0000 -0.6884
vn 0.6747 0.0000 -0.7381
vn -0.7287 0.0000 -0.6848
vn 0.6839 0.0000 -0.7296
vn -0.7300 0.0000 -0.6834
vn 0.6884 0.0000 -0.7253
vn 0.7215 0.0000 0.6924
vn 0.6926 0.0000 -0.7213
vn 0.7272 0.0000 0.6864
vn 0.6858 0.0000 -0.7278
usemtl None
s off
f 7//1 17//1 11//1
f 17//2 18//2 12//2 11//2
f 18//3 12//3 16//3 20//3
f 14//4 21//4 24//4 19//4
f 24//5 19//5 25//5
f 20//6 16//6 15//6 13//6 14//6 21//6
f 25//7 19//7 14//7 13//7 8//7 3//7 2//7 9//7 10//7 22//7 23//7
f 1//8 3//8 2//8
f 1//9 3//9 8//9 4//9
f 5//10 13//10 8//10 4//10
f 5//11 13//11 15//11 6//11
f 6//12 15//12 16//12 12//12 11//12 7//12
f 26//13 27//13 28//13 29//13 30//13 31//13 32//13 33//13 34//13 35//13 36//13 37//13 38//13 39//13 40//13 41//13
f 1//14 26//14 27//14 2//14
f 2//15 27//15 28//15 9//15
f 9//15 28//15 29//15 10//15
f 10//15 29//15 30//15 22//15
f 22//16 30//16 31//16 23//16
f 23//15 31//15 32//15 25//15
f 25//17 32//17 33//17 24//17
f 24//18 33//18 34//18 21//18
f 21//19 34//19 35//19 20//19
f 20//20 35//20 36//20 18//20
f 18//21 36//21 37//21 17//21
f 17//22 37//22 38//22 7//22
f 7//23 38//23 39//23 6//23
f 6//24 39//24 40//24 5//24
f 5//25 40//25 41//25 4//25
f 4//26 41//26 26//26 1//26
