# Blender v2.92.0 OBJ File: ''
# www.blender.org
mtllib BK39_500_016029_0019_roof.mtl
o BK39_500_016029_0019_roof
v 187.897476 75.000000 -48.092178
v 62.535870 75.000000 -16.594522
v 114.801521 121.899414 -95.958344
v 290.943817 75.000000 -147.020004
v 170.669342 75.000000 -116.826324
v 97.426025 121.912453 -165.212708
v 127.491699 121.998566 -172.882935
v 176.795410 144.996246 -217.994125
v 151.784210 145.000000 -211.720657
v 137.286026 136.587677 -219.988052
v 13.731878 75.000000 -210.890686
v 46.419209 75.000000 -219.364182
v 130.005127 136.488144 -248.544586
v 243.999893 75.000000 -333.859680
v 196.892792 75.000000 -322.053955
v 189.466553 75.000000 -350.634125
v 24.010988 75.000000 -309.064240
v 187.897476 0.000000 -48.092178
v 62.535870 0.000000 -16.594522
v 13.731878 0.000000 -210.890686
v 46.419209 0.000000 -219.364182
v 24.010988 0.000000 -309.064240
v 189.466553 0.000000 -350.634125
v 196.892792 0.000000 -322.053955
v 243.999893 0.000000 -333.859680
v 290.943817 0.000000 -147.020004
v 170.669342 0.000000 -116.826324
vt 0.426250 0.322770
vt 0.078725 0.157860
vt 0.621200 0.044594
vt 0.450120 0.400580
vt 0.645550 0.122470
vt 0.497650 0.423100
vt 0.579660 0.406010
vt 0.800000 0.090301
vt 0.953910 0.599400
vt 0.559570 0.681670
vt 0.319430 0.549830
vt 0.418010 0.528930
vt 0.376400 0.738530
vt 0.616060 0.868960
vt 0.205040 0.954780
vt 0.045023 0.425370
vt 0.152190 0.402280
vn 0.1433 -0.8087 0.5705
vn 0.5751 0.8043 -0.1494
vn -0.1432 0.8082 -0.5713
vn 0.5816 0.8003 -0.1461
vn -0.1428 -0.8099 -0.5690
vn 0.6019 0.7842 -0.1509
vn 0.1437 0.8076 0.5719
vn 0.5397 -0.8309 -0.1356
vn 0.1465 -0.8118 0.5653
vn 0.5550 -0.8202 -0.1386
usemtl None
s off
f 13/1/1 17/2/1 16/3/1
f 13/1/2 10/4/2 15/5/2 16/3/2
f 10/4/3 9/6/3 8/7/3 14/8/3 15/5/3
f 8/7/4 4/9/4 14/8/4
f 4/9/5 5/10/5 6/11/5 7/12/5 9/6/5 8/7/5
f 6/11/6 3/13/6 1/14/6 5/10/6
f 3/13/7 2/15/7 1/14/7
f 2/15/8 11/16/8 6/11/8 3/13/8
f 11/16/9 12/17/9 7/12/9 6/11/9
f 12/17/10 17/2/10 13/1/10 10/4/10 9/6/10 7/12/10
