# Blender v2.92.0 OBJ File: ''
# www.blender.org
mtllib BK39_500_013032_0029_roof.mtl
o BK39_500_013032_0029_roof
v 13.025332 75.000000 -137.357361
v 111.943581 75.000000 -263.473480
v 128.884674 145.000000 -151.498215
v 162.417130 144.999542 -125.196831
v 172.490402 75.000000 -12.283190
v 271.405579 75.000000 -138.395386
v 13.025332 0.000000 -137.357361
v 111.943581 0.000000 -263.473480
v 271.405579 0.000000 -138.395386
v 172.490402 0.000000 -12.283190
vt 0.045703 0.500520
vt 0.452230 0.449100
vt 0.569880 0.544740
vt 0.605230 0.955330
vt 0.952300 0.496740
vt 0.392780 0.041915
vn 0.3989 -0.7630 -0.5086
vn -0.5270 -0.7426 -0.4133
vn -0.4132 -0.7427 0.5268
vn 0.5093 -0.7623 0.3995
usemtl None
s off
f 1/1/1 3/2/1 4/3/1 5/4/1
f 5/4/2 4/3/2 6/5/2
f 6/5/3 4/3/3 3/2/3 2/6/3
f 2/6/4 3/2/4 1/1/4
