# Blender v2.92.0 OBJ File: ''
# www.blender.org
mtllib BK39_500_016031_0084.mtl
o BK39_500_016031_0084
v 290.069214 75.000000 -241.975906
v 262.326782 75.000000 -362.181763
v 280.655151 75.000000 -88.374634
v 247.406433 75.000000 -232.342697
v 217.667892 116.472992 -287.052856
v 175.682663 116.403648 -277.469940
v 183.063522 75.000000 -65.311630
v 188.814072 75.000000 -40.404995
v 145.287750 144.997986 -225.762314
v 159.761047 145.000000 -163.079498
v 121.097549 112.285019 -105.676308
v 126.985313 112.285347 -80.173370
v 82.654366 75.000000 -15.903442
v 15.850939 75.000000 -305.288544
v 290.069214 0.000000 -241.975906
v 262.326782 0.000000 -362.181763
v 15.850939 0.000000 -305.288544
v 82.654366 0.000000 -15.903442
v 188.814072 0.000000 -40.404995
v 183.063522 0.000000 -65.311630
v 280.655151 0.000000 -88.374634
v 247.406433 0.000000 -232.342697
vn -0.1300 -0.8161 -0.5631
vn 0.5291 -0.8397 -0.1222
vn 0.1235 -0.8359 0.5348
vn -0.5515 -0.8244 0.1273
vn 0.1254 0.8222 0.5552
vn -0.5551 -0.8219 0.1282
vn -0.1314 -0.8206 -0.5562
vn -0.5729 -0.8089 0.1323
vn 0.0000 1.0000 0.0000
vn 0.9744 0.0000 -0.2249
vn -0.2249 0.0000 -0.9744
vn -0.9744 0.0000 0.2249
vn 0.2249 0.0000 0.9744
vn 0.9744 0.0000 -0.2250
vn 0.2300 0.0000 0.9732
vn 0.2203 0.0000 0.9754
usemtl None
s off
f 13//1 12//1 8//1
f 13//2 14//2 9//2 10//2 11//2 12//2
f 14//3 2//3 5//3 6//3 9//3
f 2//4 1//4 5//4
f 5//5 6//5 4//5 1//5
f 6//6 4//6 3//6 10//6 9//6
f 10//7 3//7 7//7 11//7
f 11//8 7//8 8//8 12//8
f 15//9 16//9 17//9 18//9 19//9 20//9 21//9 22//9
f 1//10 15//10 16//10 2//10
f 2//11 16//11 17//11 14//11
f 14//12 17//12 18//12 13//12
f 13//13 18//13 19//13 8//13
f 8//14 19//14 20//14 7//14
f 7//15 20//15 21//15 3//15
f 3//14 21//14 22//14 4//14
f 4//16 22//16 15//16 1//16
