# Blender v2.92.0 OBJ File: ''
# www.blender.org
mtllib BK39_500_001047_0001_roof.mtl
o BK39_500_001047_0001_roof
v 537.231323 75.000000 -372.404816
v 674.890381 75.000000 -409.957062
v 288.460266 75.000000 -301.127991
v 425.916534 75.000000 -338.624939
v 240.719757 75.000000 -285.777100
v 35.703751 75.000000 -229.828903
v 552.734131 75.000000 -315.549042
v 440.556854 75.000000 -284.947998
v 303.680786 75.000000 -245.332855
v 103.269012 126.663994 -191.143478
v 170.305389 126.672462 -209.428116
v 255.349960 75.000000 -232.148605
v 628.933472 152.153137 -321.214508
v 379.191071 153.184570 -250.384338
v 193.932602 145.000000 -195.611557
v 64.088661 75.000000 -125.775520
v 132.085983 75.000000 -144.313171
v 649.247253 152.159058 -246.736313
v 398.946777 153.182861 -177.958084
v 213.645493 144.998611 -123.356987
v 386.980560 135.697403 -158.788391
v 665.525513 137.120834 -237.200272
v 232.842560 129.036972 -112.654839
v 586.712158 75.000000 -190.935974
v 474.544159 75.000000 -160.337448
v 289.212921 75.000000 -108.020287
v 337.542236 75.000000 -121.204102
v 672.377014 137.229538 -211.724411
v 239.301620 128.992722 -89.143806
v 394.498779 135.676208 -131.151825
v 594.519531 75.000000 -162.302704
v 622.739685 75.000000 -169.550247
v 483.096008 75.000000 -128.983047
v 455.934357 75.000000 -121.733841
v 189.826385 75.000000 -46.428020
v 160.979477 75.000000 -38.416687
v 739.527893 75.000000 -173.033890
v 629.746399 75.000000 -143.087082
v 463.368866 75.000000 -94.330032
v 353.080505 75.000000 -64.244217
v 305.197723 75.000000 -49.426388
v 197.156097 75.000000 -19.953705
v 537.231323 0.000000 -372.404816
v 674.890381 0.000000 -409.957062
v 739.527893 0.000000 -173.033890
v 629.746399 0.000000 -143.087082
v 622.739685 0.000000 -169.550247
v 594.519531 0.000000 -162.302704
v 586.712158 0.000000 -190.935974
v 474.544159 0.000000 -160.337448
v 483.096008 0.000000 -128.983047
v 455.934357 0.000000 -121.733841
v 463.368866 0.000000 -94.330032
v 353.080505 0.000000 -64.244217
v 337.542236 0.000000 -121.204102
v 289.212921 0.000000 -108.020287
v 305.197723 0.000000 -49.426388
v 197.156097 0.000000 -19.953705
v 189.826385 0.000000 -46.428020
v 160.979477 0.000000 -38.416687
v 132.085983 0.000000 -144.313171
v 64.088661 0.000000 -125.775520
v 35.703751 0.000000 -229.828903
v 240.719757 0.000000 -285.777100
v 255.349960 0.000000 -232.148605
v 303.680786 0.000000 -245.332855
v 288.460266 0.000000 -301.127991
v 425.916534 0.000000 -338.624939
v 440.556854 0.000000 -284.947998
v 552.734131 0.000000 -315.549042
vt 0.254720 0.953490
vt 0.309180 0.792210
vt 0.394310 0.884790
vt 0.245250 0.891780
vt 0.300830 0.737400
vt 0.276030 0.712450
vt 0.207980 0.910450
vt 0.170650 0.663610
vt 0.220030 0.511820
vt 0.250560 0.544030
vt 0.082802 0.706820
vt 0.133420 0.554440
vt 0.046129 0.464270
vt 0.311010 0.333850
vt 0.329910 0.458860
vt 0.373660 0.748200
vt 0.392350 0.428130
vt 0.436100 0.717470
vt 0.456180 0.850250
vt 0.509690 0.694280
vt 0.499970 0.629860
vt 0.515440 0.585180
vt 0.489910 0.416350
vt 0.372690 0.298070
vt 0.598670 0.780120
vt 0.589060 0.716240
vt 0.624160 0.699340
vt 0.550280 0.210660
vt 0.569190 0.335790
vt 0.613110 0.626250
vt 0.714130 0.264450
vt 0.758030 0.554930
vt 0.694100 0.131920
vt 0.812580 0.251250
vt 0.838820 0.424860
vt 0.768110 0.621670
vt 0.804570 0.604780
vt 0.859850 0.447090
vt 0.813630 0.666460
vt 0.868700 0.506470
vt 0.955460 0.596660
vt 0.871950 0.044389
vn -0.1832 -0.7178 -0.6717
vn 0.6502 -0.7382 -0.1800
vn 0.1923 0.6955 0.6924
vn 0.6669 -0.7226 -0.1820
vn -0.1840 -0.7145 -0.6750
vn 0.6605 -0.7289 -0.1802
vn 0.1801 -0.7295 0.6598
vn -0.6877 -0.7013 0.1876
vn 0.0000 -1.0000 0.0000
vn -0.6999 0.6883 0.1909
vn 0.1972 0.6624 0.7227
vn -0.7044 -0.6836 0.1911
vn -0.1933 -0.6618 -0.7243
vn -0.7266 -0.6579 0.1982
vn 0.1926 -0.6816 0.7059
vn 0.6918 -0.6971 -0.1886
vn 0.1864 0.6621 0.7259
vn -0.7028 0.6867 0.1861
vn 0.1972 0.6622 0.7229
vn 0.7252 0.6595 -0.1978
vn -0.1905 0.6899 -0.6984
usemtl None
s off
f 42/1/1 29/2/1 41/3/1
f 42/1/2 35/4/2 23/5/2 29/2/2
f 23/5/3 20/6/3 36/7/3 35/4/3
f 36/7/4 17/8/4 11/9/4 15/10/4 20/6/4
f 17/8/5 16/11/5 10/12/5 11/9/5
f 16/11/6 6/13/6 10/12/6
f 6/13/7 5/14/7 15/10/7 11/9/7 10/12/7
f 5/14/8 12/15/8 26/16/8 41/3/8 29/2/8 23/5/8 20/6/8 15/10/8
f 12/15/9 9/17/9 27/18/9 26/16/9
f 27/18/10 40/19/10 30/20/10 21/21/10 19/22/10 14/23/10 3/24/10 9/17/10
f 40/19/11 39/25/11 30/20/11
f 30/20/12 21/21/12 34/26/12 39/25/12
f 21/21/13 19/22/13 33/27/13 34/26/13
f 19/22/14 14/23/14 4/28/14 8/29/14 25/30/14 33/27/14
f 3/24/15 4/28/15 14/23/15
f 8/29/9 7/31/9 24/32/9 25/30/9
f 7/31/16 1/33/16 13/34/16 18/35/16 31/36/16 24/32/16
f 31/36/17 32/37/17 22/38/17 18/35/17
f 32/37/18 38/39/18 28/40/18 22/38/18
f 38/39/19 37/41/19 28/40/19
f 37/41/20 2/42/20 13/34/20 18/35/20 22/38/20 28/40/20
f 2/42/21 1/33/21 13/34/21
