# Blender v2.92.0 OBJ File: ''
# www.blender.org
mtllib BK39_500_016031_0051.mtl
o BK39_500_016031_0051
v 263.147064 75.000000 -21.934706
v 101.287697 75.000000 -14.068631
v 176.250717 144.487976 -100.154739
v 96.173637 75.000000 -117.622658
v 41.254665 75.000000 -114.956230
v 39.117661 75.000000 -158.894852
v 94.004128 75.000084 -161.553116
v 21.463444 75.000000 -158.039825
v 256.655334 75.000000 -171.715881
v 310.423615 75.000000 -174.713440
v 156.527298 132.934250 -232.833893
v 83.180992 130.840393 -226.814987
v 186.999847 130.703339 -234.353577
v 228.568787 130.432404 -236.347580
v 250.960754 75.000000 -303.104462
v 280.989807 75.000000 -304.312469
v 167.036072 145.000000 -298.561768
v 92.080658 79.097946 -295.096893
v 15.044943 75.000000 -291.242371
v 263.147064 0.000000 -21.934706
v 101.287697 0.000000 -14.068631
v 96.173637 0.000000 -117.622658
v 41.254665 0.000000 -114.956230
v 39.117661 0.000000 -158.894852
v 21.463444 0.000000 -158.039825
v 15.044943 0.000000 -291.242371
v 250.960754 0.000000 -303.104462
v 280.989807 0.000000 -304.312469
v 310.423615 0.000000 -174.713440
v 256.655334 0.000000 -171.715881
vn -0.0313 -0.7643 -0.6442
vn 0.6591 -0.7514 -0.0325
vn -0.0313 -0.7620 -0.6468
vn 0.6511 -0.7583 -0.0314
vn 0.0725 -0.7903 0.6084
vn -0.0000 1.0000 0.0000
vn -0.6394 -0.7684 0.0277
vn 0.0259 -0.7648 0.6437
vn -0.6262 -0.7666 0.1422
vn -0.0358 -0.7662 -0.6416
vn -0.0502 0.0046 -0.9987
vn 0.0000 -1.0000 0.0000
vn -0.0485 0.0000 -0.9988
vn 0.9988 0.0000 -0.0493
vn 0.9988 0.0000 -0.0486
vn -0.0484 0.0000 -0.9988
vn 0.9988 0.0000 -0.0481
vn 0.0502 0.0000 0.9987
vn 0.0402 0.0000 0.9992
vn -0.9752 0.0000 0.2215
vn -0.0557 0.0000 -0.9984
vn -0.9991 0.0000 0.0433
usemtl None
s off
f 2//1 3//1 1//1
f 2//2 4//2 7//2 11//2 18//2 17//2 3//2
f 7//3 6//3 8//3 12//3 11//3
f 8//4 19//4 12//4
f 19//5 18//5 11//5 12//5
f 7//6 6//6 5//6 4//6
f 17//7 15//7 13//7 9//7 1//7 3//7
f 15//8 16//8 14//8 13//8
f 16//9 10//9 14//9
f 10//10 9//10 13//10 14//10
f 19//11 18//11 17//11 15//11
f 20//12 21//12 22//12 23//12 24//12 25//12 26//12 27//12 28//12 29//12 30//12
f 1//13 20//13 21//13 2//13
f 2//14 21//14 22//14 4//14
f 4//13 22//13 23//13 5//13
f 5//15 23//15 24//15 6//15
f 6//16 24//16 25//16 8//16
f 8//17 25//17 26//17 19//17
f 19//18 26//18 27//18 15//18
f 15//19 27//19 28//19 16//19
f 16//20 28//20 29//20 10//20
f 10//21 29//21 30//21 9//21
f 9//22 30//22 20//22 1//22
