# Blender v2.92.0 OBJ File: ''
# www.blender.org
mtllib BK39_500_017028_00100.mtl
o BK39_500_017028_00100
v 243.740585 75.000000 -13.995625
v 351.498749 75.000000 -37.085056
v 287.568939 123.053703 -76.876755
v 231.349548 75.000000 -73.251839
v 49.303364 75.000000 -34.342960
v 274.706635 122.914452 -137.596939
v 112.603691 144.967224 -128.300522
v 245.156372 145.000000 -156.668793
v 305.031158 75.000000 -253.744797
v 272.207550 75.000000 -246.710281
v 169.541290 75.000000 -224.707626
v 15.582653 75.000000 -191.712372
v 263.590881 75.000000 -286.922974
v 160.923889 75.000000 -264.923767
v 243.740585 0.000000 -13.995625
v 351.498749 0.000000 -37.085056
v 305.031158 0.000000 -253.744797
v 272.207550 0.000000 -246.710281
v 263.590881 0.000000 -286.922974
v 160.923889 0.000000 -264.923767
v 169.541290 0.000000 -224.707626
v 15.582653 0.000000 -191.712372
v 49.303364 0.000000 -34.342960
v 231.349548 0.000000 -73.251839
vn -0.1417 -0.7364 -0.6615
vn 0.6489 0.7480 -0.1392
vn 0.1357 -0.7620 0.6332
vn 0.0000 1.0000 -0.0000
vn -0.6366 0.7591 0.1364
vn 0.1389 0.7472 0.6500
vn -0.6389 0.7576 0.1336
vn 0.2095 0.0000 0.9778
vn 0.9778 0.0000 -0.2097
vn -0.2096 0.0000 -0.9778
vn 0.9778 0.0000 -0.2095
vn -0.2095 0.0000 -0.9778
vn -0.9778 0.0000 0.2095
vn 0.2090 0.0000 0.9779
vn -0.9788 0.0000 0.2047
usemtl None
s off
f 1//1 3//1 2//1
f 2//2 9//2 8//2 6//2 3//2
f 8//3 7//3 12//3 11//3 10//3 9//3
f 10//4 13//4 14//4 11//4
f 12//5 5//5 7//5
f 5//6 4//6 6//6 8//6 7//6
f 4//7 1//7 3//7 6//7
f 15//4 16//4 17//4 18//4 19//4 20//4 21//4 22//4 23//4 24//4
f 1//8 15//8 16//8 2//8
f 2//9 16//9 17//9 9//9
f 9//10 17//10 18//10 10//10
f 10//11 18//11 19//11 13//11
f 13//12 19//12 20//12 14//12
f 14//13 20//13 21//13 11//13
f 11//10 21//10 22//10 12//10
f 12//13 22//13 23//13 5//13
f 5//14 23//14 24//14 4//14
f 4//15 24//15 15//15 1//15
