# Blender v2.92.0 OBJ File: ''
# www.blender.org
mtllib BK39_500_017031_0039_roof.mtl
o BK39_500_017031_0039_roof
v 212.265961 75.000000 -318.953918
v 360.525543 75.000000 -354.457581
v 303.173584 144.942688 -257.912354
v 253.324112 144.967545 -245.945496
v 18.453558 75.000000 -135.239059
v 398.012360 75.000000 -197.981232
v 295.522766 75.000000 -173.317062
v 134.828491 145.000000 -133.571533
v 130.652756 75.000000 -16.891752
v 212.265961 0.000000 -318.953918
v 360.525543 0.000000 -354.457581
v 398.012360 0.000000 -197.981232
v 295.522766 0.000000 -173.317062
v 130.652756 0.000000 -16.891752
v 18.453558 0.000000 -135.239059
vt 0.313320 0.954590
vt 0.323330 0.640940
vt 0.044253 0.636450
vt 0.607490 0.338860
vt 0.509030 0.142600
vt 0.864570 0.047157
vt 0.727030 0.306690
vt 0.954470 0.467790
vt 0.708690 0.534090
vn -0.4669 0.7656 0.4426
vn 0.4490 -0.7577 0.4736
vn 0.1527 -0.7550 0.6377
vn 0.6480 0.7456 -0.1552
vn 0.1535 0.7547 0.6379
vn 0.4476 0.7597 0.4718
usemtl None
s off
f 9/1/1 8/2/1 5/3/1
f 4/4/2 8/2/2 5/3/2 1/5/2
f 2/6/3 3/7/3 4/4/3 1/5/3
f 6/8/4 2/6/4 3/7/4
f 7/9/5 6/8/5 3/7/5 4/4/5
f 9/1/6 7/9/6 4/4/6 8/2/6
