# Blender v2.92.0 OBJ File: ''
# www.blender.org
mtllib BK39_500_015032_0009.mtl
o BK39_500_015032_0009
v 266.282898 75.000000 -350.762054
v 135.864426 75.000000 -319.968597
v 218.225525 127.426712 -270.374390
v 158.823044 75.000000 -222.343964
v 15.987922 75.000000 -188.692169
v 240.970306 127.481537 -173.973434
v 224.835403 144.968262 -147.606476
v 123.296310 145.000000 -123.643036
v 329.817017 75.000000 -82.308594
v 56.369785 75.000000 -17.664417
v 266.282898 0.000000 -350.762054
v 135.864426 0.000000 -319.968597
v 158.823044 0.000000 -222.343964
v 15.987922 0.000000 -188.692169
v 56.369785 0.000000 -17.664417
v 329.817017 0.000000 -82.308594
vn -0.1435 -0.7817 -0.6069
vn 0.5996 -0.7877 -0.1416
vn 0.1428 -0.7823 0.6063
vn -0.5899 0.7955 0.1387
vn -0.1414 0.7884 -0.5987
vn -0.6093 -0.7797 0.1442
vn 0.0000 1.0000 0.0000
vn -0.2298 0.0000 -0.9732
vn -0.9734 0.0000 0.2289
vn -0.2293 0.0000 -0.9734
vn -0.9732 0.0000 0.2298
vn 0.2301 0.0000 0.9732
vn 0.9731 0.0000 -0.2303
usemtl None
s off
f 8//1 7//1 9//1 10//1
f 10//2 5//2 8//2
f 5//3 4//3 6//3 7//3 8//3
f 6//4 3//4 2//4 4//4
f 3//5 1//5 2//5
f 1//6 9//6 7//6 6//6 3//6
f 11//7 12//7 13//7 14//7 15//7 16//7
f 1//8 11//8 12//8 2//8
f 2//9 12//9 13//9 4//9
f 4//10 13//10 14//10 5//10
f 5//11 14//11 15//11 10//11
f 10//12 15//12 16//12 9//12
f 9//13 16//13 11//13 1//13
