# Blender v2.92.0 OBJ File: ''
# www.blender.org
mtllib BK39_500_018028_0010_roof.mtl
o BK39_500_018028_0010_roof
v 32.143520 75.000000 -162.242172
v 54.423145 75.000000 -55.837452
v 34.366241 75.000000 -162.766373
v 14.000437 75.000000 -260.074585
v 65.564377 75.000000 -270.878204
v 96.816719 117.246185 -119.200081
v 46.739410 75.000000 -360.534027
v 85.721512 75.000038 -174.877747
v 152.046417 117.816681 -131.438004
v 147.097778 144.967072 -327.762909
v 212.473022 75.000000 -18.736137
v 179.783218 145.000000 -172.304230
v 198.424057 75.000000 -85.825516
v 295.905640 75.000000 -36.207272
v 220.219543 75.000000 -396.861359
v 282.032349 75.000000 -103.236885
v 32.143520 0.000000 -162.242172
v 54.423145 0.000000 -55.837452
v 198.424057 0.000000 -85.825516
v 212.473022 0.000000 -18.736137
v 295.905640 0.000000 -36.207272
v 282.032349 0.000000 -103.236885
v 220.219543 0.000000 -396.861359
v 46.739410 0.000000 -360.534027
v 65.564377 0.000000 -270.878204
v 14.000437 0.000000 -260.074585
v 34.366241 0.000000 -162.766373
vt 0.175560 0.865780
vt 0.312310 0.713460
vt 0.103690 0.609990
vt 0.640080 0.793690
vt 0.909780 0.751830
vt 0.579950 0.585810
vt 0.490470 0.684040
vt 0.685400 0.954960
vt 0.954530 0.912960
vt 0.710390 0.046006
vt 0.474510 0.212110
vt 0.150770 0.133330
vt 0.211500 0.348850
vt 0.276520 0.579620
vt 0.045163 0.374820
vt 0.110860 0.608730
vn -0.5998 0.7902 0.1256
vn 0.1265 0.7842 0.6075
vn 0.0000 1.0000 0.0000
vn 0.6185 0.7749 -0.1302
vn -0.1638 0.6012 -0.7821
vn -0.5945 0.7943 0.1248
vn -0.1371 0.8021 -0.5813
usemtl None
s off
f 2/1/1 6/2/1 1/3/1
f 2/1/2 13/4/2 16/5/2 12/6/2 9/7/2 6/2/2
f 13/4/3 11/8/3 14/9/3 16/5/3
f 16/5/4 15/10/4 10/11/4 12/6/4
f 15/10/5 7/12/5 10/11/5
f 7/12/6 5/13/6 8/14/6 9/7/6 12/6/6 10/11/6
f 5/13/3 4/15/3 3/16/3 8/14/3
f 3/16/7 1/3/7 6/2/7 9/7/7 8/14/7
