# Blender v2.92.0 OBJ File: ''
# www.blender.org
mtllib BK39_500_018029_0045_roof.mtl
o BK39_500_018029_0045_roof
v 331.508331 75.000000 -177.183365
v 313.024292 145.000000 -92.775093
v 295.031433 75.000000 -10.630068
v 15.768370 75.000000 -71.817932
v 52.185638 75.000000 -238.097931
v 33.726871 144.885147 -153.829254
v 331.508331 0.000000 -177.183365
v 295.031433 0.000000 -10.630068
v 15.768370 0.000000 -71.817932
v 52.185638 0.000000 -238.097931
vt 0.045311 0.712730
vt 0.847790 0.957480
vt 0.899500 0.628900
vt 0.096916 0.384680
vt 0.149960 0.047608
vt 0.952610 0.291270
vn -0.1369 0.7686 0.6249
vn -0.1341 -0.7770 0.6150
vn 0.9768 -0.0000 0.2139
vn -0.9768 -0.0000 -0.2139
usemtl None
s off
f 4/1/1 3/2/1 2/3/1 6/4/1
f 6/4/2 5/5/2 1/6/2 2/3/2
f 1/6/3 2/3/3 3/2/3
f 4/1/4 6/4/4 5/5/4
