# Blender v2.92.0 OBJ File: ''
# www.blender.org
mtllib BK39_500_017031_0016.mtl
o BK39_500_017031_0016
v 568.061096 75.000000 -64.328278
v 405.435150 75.000000 -24.880112
v 389.301270 75.000000 -91.324684
v 67.977417 75.000000 -13.367420
v 467.198914 144.967285 -126.779091
v 451.383942 144.973633 -191.942612
v 128.736145 145.000000 -113.696388
v 512.159790 75.000000 -294.775452
v 28.175226 75.000000 -177.452805
v 568.061096 0.000000 -64.328278
v 405.435150 0.000000 -24.880112
v 389.301270 0.000000 -91.324684
v 67.977417 0.000000 -13.367420
v 28.175226 0.000000 -177.452805
v 512.159790 0.000000 -294.775452
vn -0.1504 -0.7701 -0.6199
vn -0.6217 0.7686 0.1509
vn -0.1518 -0.7651 -0.6258
vn 0.6279 -0.7633 -0.1523
vn 0.1491 -0.7743 0.6150
vn 0.6251 0.7657 -0.1516
vn 0.0000 -1.0000 0.0000
vn -0.2357 0.0000 -0.9718
vn 0.9718 0.0000 -0.2360
vn -0.2358 0.0000 -0.9718
vn 0.9718 0.0000 -0.2357
vn 0.2356 0.0000 0.9719
vn -0.9718 0.0000 0.2357
usemtl None
s off
f 2//1 5//1 1//1
f 3//2 2//2 5//2 6//2
f 4//3 7//3 6//3 3//3
f 9//4 7//4 4//4
f 9//5 8//5 6//5 7//5
f 1//6 8//6 6//6 5//6
f 10//7 11//7 12//7 13//7 14//7 15//7
f 1//8 10//8 11//8 2//8
f 2//9 11//9 12//9 3//9
f 3//10 12//10 13//10 4//10
f 4//11 13//11 14//11 9//11
f 9//12 14//12 15//12 8//12
f 8//13 15//13 10//13 1//13
