# Blender v2.92.0 OBJ File: ''
# www.blender.org
mtllib BK39_500_018029_0025.mtl
o BK39_500_018029_0025
v 5.677839 75.000000 -199.681183
v 46.752735 75.000000 -42.039707
v 105.307053 145.000000 -140.416534
v 256.020813 75.000000 -13.238280
v 235.671768 75.000000 -91.285255
v 242.306519 144.983917 -176.109100
v 295.805969 121.165230 -81.118378
v 276.131165 121.183662 -156.667313
v 300.775726 75.000000 -276.521057
v 362.075043 75.000000 -40.871704
v 5.677839 0.000000 -199.681183
v 46.752735 0.000000 -42.039707
v 235.671768 0.000000 -91.285255
v 256.020813 0.000000 -13.238280
v 362.075043 0.000000 -40.871704
v 300.775726 0.000000 -276.521057
vn -0.6307 0.7585 0.1643
vn 0.1656 0.7543 0.6353
vn -0.6180 0.7695 0.1611
vn 0.1610 0.7697 0.6178
vn 0.6289 0.7601 -0.1636
vn -0.1631 0.7623 -0.6263
vn 0.0000 1.0000 0.0000
vn -0.9677 0.0000 0.2521
vn 0.2522 0.0000 0.9677
vn -0.9677 0.0000 0.2523
vn 0.2521 0.0000 0.9677
vn 0.9678 0.0000 -0.2518
vn -0.2520 0.0000 -0.9677
usemtl None
s off
f 1//1 2//1 3//1
f 2//2 5//2 8//2 6//2 3//2
f 5//3 4//3 7//3 8//3
f 4//4 10//4 7//4
f 10//5 9//5 6//5 8//5 7//5
f 1//6 3//6 6//6 9//6
f 11//7 12//7 13//7 14//7 15//7 16//7
f 1//8 11//8 12//8 2//8
f 2//9 12//9 13//9 5//9
f 5//10 13//10 14//10 4//10
f 4//11 14//11 15//11 10//11
f 10//12 15//12 16//12 9//12
f 9//13 16//13 11//13 1//13
