# Blender v2.92.0 OBJ File: ''
# www.blender.org
mtllib BK39_500_018026_0055_roof.mtl
o BK39_500_018026_0055_roof
v 154.309158 75.000000 -18.978611
v 17.164837 75.000000 -287.501221
v 202.792297 145.000000 -171.893814
v 170.055405 144.999115 -235.988129
v 362.935089 75.000000 -125.544052
v 225.779831 75.000000 -394.061096
v 154.309158 0.000000 -18.978611
v 17.164837 0.000000 -287.501221
v 225.779831 0.000000 -394.061096
v 362.935089 0.000000 -125.544052
vt 0.408230 0.954160
vt 0.536490 0.584800
vt 0.960150 0.696750
vt 0.449880 0.429980
vt 0.597300 0.048162
vt 0.045410 0.305550
vn -0.2378 -0.8524 -0.4656
vn -0.4445 -0.8665 0.2270
vn 0.2359 -0.8550 0.4618
vn 0.4698 -0.8495 -0.2399
usemtl None
s off
f 1/1/1 3/2/1 5/3/1
f 5/3/2 3/2/2 4/4/2 6/5/2
f 6/5/3 4/4/3 2/6/3
f 2/6/4 4/4/4 3/2/4 1/1/4
