# Blender v2.92.0 OBJ File: ''
# www.blender.org
mtllib BK39_500_017031_0027_roof.mtl
o BK39_500_017031_0027_roof
v 16.497255 75.000000 -181.183258
v 228.711472 75.000000 -14.625206
v 285.564880 144.761703 -87.022491
v 73.528450 145.000000 -253.840744
v 126.649460 75.000000 -321.482941
v 338.487518 75.000000 -154.448227
v 16.497255 0.000000 -181.183258
v 228.711472 0.000000 -14.625206
v 338.487518 0.000000 -154.448227
v 126.649460 0.000000 -321.482941
vt 0.642450 0.956470
vt 0.046341 0.460760
vt 0.206540 0.244520
vt 0.802150 0.741000
vt 0.355760 0.043205
vt 0.950810 0.540330
vn 0.3729 -0.7970 -0.4751
vn 0.3908 0.7756 -0.4957
vn -0.7866 0.0002 -0.6175
vn 0.7865 0.0002 0.6175
usemtl None
s off
f 2/1/1 1/2/1 4/3/1 3/4/1
f 5/5/2 4/3/2 3/4/2 6/6/2
f 2/1/3 3/4/3 6/6/3
f 5/5/4 4/3/4 1/2/4
