# Blender v2.92.0 OBJ File: ''
# www.blender.org
mtllib BK39_500_016025_0029.mtl
o BK39_500_016025_0029
v 182.068146 75.000000 -402.039856
v 327.237549 75.000000 -86.491013
v 151.499359 144.494873 -297.907440
v 228.198425 145.000000 -129.949982
v 136.507172 135.149139 -303.124115
v 109.608154 134.996246 -290.949097
v 98.546600 75.000000 -207.379028
v 183.222580 75.000000 -20.288218
v 14.649663 75.000000 -325.029663
v 73.802261 75.000000 -196.363617
v 182.068146 0.000000 -402.039856
v 327.237549 0.000000 -86.491013
v 183.222580 0.000000 -20.288218
v 98.546600 0.000000 -207.379028
v 73.802261 0.000000 -196.363617
v 14.649663 0.000000 -325.029663
vn -0.2734 -0.7560 -0.5947
vn -0.6341 -0.7161 0.2917
vn 0.2705 -0.7622 0.5881
vn 0.5814 -0.7684 -0.2673
vn -0.2607 -0.7676 -0.5856
vn 0.5743 -0.7762 -0.2599
vn 0.0000 -1.0000 0.0000
vn -0.9085 0.0000 0.4179
vn -0.4177 0.0000 -0.9086
vn 0.9110 0.0000 -0.4123
vn -0.4067 0.0000 -0.9136
vn 0.9086 0.0000 -0.4177
vn 0.4179 0.0000 0.9085
usemtl None
s off
f 8//1 4//1 2//1
f 2//2 4//2 3//2 1//2
f 1//3 3//3 5//3 6//3 9//3
f 9//4 6//4 10//4
f 10//5 6//5 5//5 7//5
f 7//6 5//6 3//6 4//6 8//6
f 11//7 12//7 13//7 14//7 15//7 16//7
f 1//8 11//8 12//8 2//8
f 2//9 12//9 13//9 8//9
f 8//10 13//10 14//10 7//10
f 7//11 14//11 15//11 10//11
f 10//12 15//12 16//12 9//12
f 9//13 16//13 11//13 1//13
