# Blender v2.92.0 OBJ File: ''
# www.blender.org
mtllib BK39_500_017030_0003.mtl
o BK39_500_017030_0003
v 10.897021 75.000000 -33.057171
v 36.068275 75.000000 -433.177856
v 101.280411 144.713394 -27.349005
v 126.824623 145.000000 -427.468201
v 189.788483 75.000000 -21.781885
v 215.695068 75.000000 -421.854736
v 10.897021 0.000000 -33.057171
v 36.068275 0.000000 -433.177856
v 215.695068 0.000000 -421.854736
v 189.788483 0.000000 -21.781885
vn -0.6088 0.7924 -0.0383
vn 0.6167 0.7862 0.0399
vn 0.0629 -0.0002 -0.9980
vn -0.0629 -0.0002 0.9980
vn 0.0000 -1.0000 0.0000
vn 0.9980 0.0000 0.0628
vn -0.0629 0.0000 0.9980
vn -0.9979 0.0000 -0.0646
vn 0.0629 0.0000 -0.9980
usemtl None
s off
f 3//1 4//1 2//1 1//1
f 3//2 5//2 6//2 4//2
f 2//3 4//3 6//3
f 5//4 3//4 1//4
f 7//5 8//5 9//5 10//5
f 1//6 7//6 8//6 2//6
f 2//7 8//7 9//7 6//7
f 6//8 9//8 10//8 5//8
f 5//9 10//9 7//9 1//9
