# Blender v2.92.0 OBJ File: ''
# www.blender.org
mtllib BK39_500_017026_0059.mtl
o BK39_500_017026_0059
v 343.290161 75.000000 -214.496368
v 376.126038 75.000000 -170.991623
v 339.512054 94.435852 -179.080856
v 352.324371 75.000000 -153.054428
v 240.557968 75.000000 -301.120087
v 319.585785 75.000000 -196.425781
v 367.200226 75.000000 -133.347244
v 314.845856 94.374573 -160.379623
v 224.619690 136.514160 -187.851334
v 237.163666 136.758148 -170.700302
v 235.097443 144.999161 -155.434372
v 229.519485 145.000000 -151.225815
v 178.727676 118.420815 -157.126404
v 105.395409 75.000000 -199.090286
v 116.932335 75.000000 -182.740799
v 210.949661 75.000000 -15.415810
v 166.671173 75.000000 -73.590294
v 98.780632 118.334877 -96.969879
v 17.149511 75.000000 -107.480362
v 87.551956 75.000000 -14.202559
v 343.290161 0.000000 -214.496368
v 376.126038 0.000000 -170.991623
v 352.324371 0.000000 -153.054428
v 367.200226 0.000000 -133.347244
v 210.949661 0.000000 -15.415810
v 166.671173 0.000000 -73.590294
v 87.551956 0.000000 -14.202559
v 17.149511 0.000000 -107.480362
v 116.932335 0.000000 -182.740799
v 105.395409 0.000000 -199.090286
v 240.557968 0.000000 -301.120087
v 319.585785 0.000000 -196.425781
vn 0.3520 0.8115 0.4664
vn -0.4829 -0.7962 0.3645
vn 0.3391 0.8261 0.4500
vn -0.3641 0.7996 -0.4776
vn 0.4979 0.7816 -0.3758
vn 0.3649 -0.7957 0.4835
vn 0.4578 -0.8283 -0.3230
vn 0.3622 -0.7988 0.4803
vn 0.4734 -0.8051 -0.3573
vn -0.3536 -0.8081 -0.4711
vn 0.4656 -0.8110 -0.3543
vn 0.0000 -1.0000 0.0000
vn -0.7982 0.0000 0.6024
vn -0.6018 0.0000 -0.7986
vn -0.7981 0.0000 0.6025
vn -0.6024 0.0000 -0.7982
vn 0.7957 0.0000 -0.6057
vn -0.6003 0.0000 -0.7998
vn 0.7982 0.0000 -0.6024
vn 0.6022 0.0000 0.7984
vn 0.8171 0.0000 -0.5766
vn 0.6025 0.0000 0.7981
vn 0.6063 0.0000 0.7953
usemtl None
s off
f 16//1 7//1 11//1 12//1
f 7//2 11//2 10//2 9//2 5//2 6//2 8//2 4//2
f 8//3 4//3 2//3 3//3
f 8//4 3//4 1//4 6//4
f 3//5 2//5 1//5
f 5//6 9//6 14//6
f 14//7 9//7 10//7 15//7
f 15//8 10//8 11//8 12//8 13//8 18//8 19//8
f 19//9 18//9 20//9
f 20//10 18//10 13//10 17//10
f 17//11 13//11 12//11 16//11
f 21//12 22//12 23//12 24//12 25//12 26//12 27//12 28//12 29//12 30//12 31//12 32//12
f 1//13 21//13 22//13 2//13
f 2//14 22//14 23//14 4//14
f 4//15 23//15 24//15 7//15
f 7//16 24//16 25//16 16//16
f 16//17 25//17 26//17 17//17
f 17//18 26//18 27//18 20//18
f 20//19 27//19 28//19 19//19
f 19//20 28//20 29//20 15//20
f 15//21 29//21 30//21 14//21
f 14//22 30//22 31//22 5//22
f 5//15 31//15 32//15 6//15
f 6//23 32//23 21//23 1//23
