# Blender v2.92.0 OBJ File: ''
# www.blender.org
mtllib BK39_500_016026_0065.mtl
o BK39_500_016026_0065
v 186.955429 75.000000 -413.213348
v 20.437744 75.000000 -274.987366
v 241.293991 75.000000 -440.712952
v 195.627502 75.000000 -402.778625
v 287.620758 75.000000 -384.943390
v 241.967407 75.000000 -347.019989
v 76.129082 144.985291 -207.941025
v 174.501343 144.977524 -289.612213
v 163.989410 75.000000 -164.349091
v 133.425064 75.000000 -138.969757
v 350.989624 145.000000 -77.207619
v 283.176239 75.000000 -20.877207
v 419.148193 75.000000 -133.826645
v 186.955429 0.000000 -413.213348
v 20.437744 0.000000 -274.987366
v 133.425064 0.000000 -138.969757
v 163.989410 0.000000 -164.349091
v 283.176239 0.000000 -20.877207
v 419.148193 0.000000 -133.826645
v 241.967407 0.000000 -347.019989
v 287.620758 0.000000 -384.943390
v 241.293991 0.000000 -440.712952
v 195.627502 0.000000 -402.778625
vn -0.3931 -0.7883 -0.4734
vn 0.4783 -0.7831 -0.3974
vn -0.4767 -0.7847 0.3962
vn 0.0000 -1.0000 0.0000
vn 0.3999 -0.7797 0.4817
vn 0.7692 0.0000 -0.6390
vn -0.6390 0.0000 -0.7692
vn 0.0000 1.0000 0.0000
vn -0.6387 0.0000 -0.7694
vn -0.7692 0.0000 0.6390
vn 0.6388 0.0000 0.7693
vn 0.6390 0.0000 0.7692
vn 0.7691 0.0000 -0.6392
usemtl None
s off
f 7//1 8//1 9//1 10//1
f 9//2 8//2 11//2 12//2
f 11//3 8//3 1//3 4//3 6//3 13//3
f 3//4 5//4 6//4 4//4
f 1//5 8//5 7//5 2//5
f 2//6 7//6 10//6
f 12//7 11//7 13//7
f 14//8 15//8 16//8 17//8 18//8 19//8 20//8 21//8 22//8 23//8
f 1//9 14//9 15//9 2//9
f 2//10 15//10 16//10 10//10
f 10//11 16//11 17//11 9//11
f 9//10 17//10 18//10 12//10
f 12//12 18//12 19//12 13//12
f 13//13 19//13 20//13 6//13
f 6//12 20//12 21//12 5//12
f 5//6 21//6 22//6 3//6
f 3//7 22//7 23//7 4//7
f 4//13 23//13 14//13 1//13
