# Blender v2.92.0 OBJ File: ''
# www.blender.org
mtllib BK39_500_016027_0040.mtl
o BK39_500_016027_0040
v 23.675558 75.000000 -247.107285
v 79.787926 75.000000 -15.446507
v 171.600586 144.997940 -159.350922
v 350.654816 145.000000 -202.726120
v 433.974335 75.000000 -346.508911
v 490.090515 75.000000 -114.832458
v 23.675558 0.000000 -247.107285
v 79.787926 0.000000 -15.446507
v 490.090515 0.000000 -114.832458
v 433.974335 0.000000 -346.508911
vn 0.1199 0.8605 0.4951
vn -0.4804 0.8693 0.1164
vn 0.1185 -0.8640 0.4893
vn 0.5059 0.8538 -0.1225
vn 0.0000 1.0000 0.0000
vn -0.9719 0.0000 0.2354
vn 0.2354 0.0000 0.9719
vn 0.9719 0.0000 -0.2354
vn -0.2355 0.0000 -0.9719
usemtl None
s off
f 2//1 6//1 4//1 3//1
f 3//2 1//2 2//2
f 1//3 5//3 4//3 3//3
f 4//4 6//4 5//4
f 7//5 8//5 9//5 10//5
f 1//6 7//6 8//6 2//6
f 2//7 8//7 9//7 6//7
f 6//8 9//8 10//8 5//8
f 5//9 10//9 7//9 1//9
