# Blender v2.92.0 OBJ File: ''
# www.blender.org
mtllib BK39_500_014026_0002.mtl
o BK39_500_014026_0002
v 210.444656 75.000000 -20.706371
v 14.576994 75.000000 -325.356018
v 246.854401 106.804573 -44.049061
v 143.915894 107.512329 -205.937790
v 135.853668 132.776917 -282.006470
v 121.588623 132.631317 -303.828003
v 285.076569 75.000000 -68.699135
v 207.153671 75.000000 -192.686218
v 158.661667 144.981995 -277.221405
v 202.301041 145.000000 -305.145935
v 145.737167 75.000000 -409.675964
v 159.502258 75.000000 -388.965790
v 333.504852 75.000000 -273.451447
v 230.146683 75.000000 -434.216919
v 210.444656 0.000000 -20.706371
v 14.576994 0.000000 -325.356018
v 145.737167 0.000000 -409.675964
v 159.502258 0.000000 -388.965790
v 230.146683 0.000000 -434.216919
v 333.504852 0.000000 -273.451447
v 207.153671 0.000000 -192.686218
v 285.076569 0.000000 -68.699135
vn -0.4983 0.8056 0.3204
vn 0.4852 0.8195 -0.3050
vn 0.3144 0.8120 0.4918
vn -0.5051 -0.7997 0.3247
vn 0.3229 -0.8010 0.5041
vn -0.4920 -0.8068 0.3270
vn 0.3268 -0.7967 0.5084
vn 0.5409 -0.0019 0.8411
vn 0.0000 -1.0000 0.0000
vn 0.8412 0.0000 -0.5408
vn 0.5408 0.0000 0.8412
vn -0.8328 0.0000 0.5535
vn 0.5394 0.0000 0.8421
vn -0.8412 0.0000 0.5408
vn -0.5386 0.0000 -0.8426
vn -0.8467 0.0000 0.5321
vn -0.5409 0.0000 -0.8411
usemtl None
s off
f 2//1 1//1 3//1 4//1 9//1 5//1 6//1
f 3//2 7//2 8//2 4//2
f 8//3 13//3 10//3 9//3 4//3
f 10//4 14//4 13//4
f 5//5 12//5 14//5 10//5 9//5
f 6//6 11//6 12//6 5//6
f 2//7 11//7 6//7
f 7//8 3//8 1//8
f 15//9 16//9 17//9 18//9 19//9 20//9 21//9 22//9
f 1//10 15//10 16//10 2//10
f 2//11 16//11 17//11 11//11
f 11//12 17//12 18//12 12//12
f 12//13 18//13 19//13 14//13
f 14//14 19//14 20//14 13//14
f 13//15 20//15 21//15 8//15
f 8//16 21//16 22//16 7//16
f 7//17 22//17 15//17 1//17
