# Blender v2.92.0 OBJ File: ''
# www.blender.org
mtllib BK39_500_002052_0042_roof.mtl
o BK39_500_002052_0042_roof
v 286.058868 75.000000 -211.123749
v 167.320175 75.000000 -313.144196
v 272.254883 75.000000 -195.072052
v 331.058929 75.000000 -144.547562
v 121.987236 75.000000 -260.365021
v 101.479790 75.000000 -277.985046
v 178.220551 145.000000 -210.144745
v 154.788696 144.990265 -182.880127
v 67.243851 75.000000 -238.138824
v 87.757812 75.000000 -220.513199
v 122.251129 122.481720 -182.198349
v 255.105713 75.000000 -56.147789
v 277.063232 75.000000 -37.281864
v 177.019592 75.000000 -84.329399
v 257.830048 75.000000 -14.896919
v 171.971664 75.000000 -78.459503
v 136.072922 75.000000 -109.487808
v 89.646767 122.287880 -144.558884
v 100.340500 75.000000 -68.633240
v 18.039391 75.000000 -139.343079
v 286.058868 0.000000 -211.123749
v 167.320175 0.000000 -313.144196
v 121.987236 0.000000 -260.365021
v 101.479790 0.000000 -277.985046
v 67.243851 0.000000 -238.138824
v 87.757812 0.000000 -220.513199
v 18.039391 0.000000 -139.343079
v 100.340500 0.000000 -68.633240
v 136.072922 0.000000 -109.487808
v 171.971664 0.000000 -78.459503
v 177.019592 0.000000 -84.329399
v 257.830048 0.000000 -14.896919
v 277.063232 0.000000 -37.281864
v 255.105713 0.000000 -56.147789
v 331.058929 0.000000 -144.547562
v 272.254883 0.000000 -195.072052
vt 0.051837 0.573870
vt 0.257610 0.557920
vt 0.288330 0.790110
vt 0.351300 0.442820
vt 0.391010 0.665170
vt 0.444800 0.440730
vt 0.494170 0.760060
vt 0.512130 0.357360
vt 0.822010 0.354360
vt 0.782340 0.403450
vt 0.508680 0.742110
vt 0.740890 0.954440
vt 0.796160 0.885990
vt 0.733060 0.828290
vt 0.951320 0.557960
vt 0.480810 0.042372
vt 0.350540 0.203780
vt 0.252180 0.325650
vt 0.193230 0.271750
vt 0.291610 0.149890
vn 0.4449 -0.7308 -0.5178
vn -0.4755 -0.7752 -0.4159
vn 0.4698 -0.6956 -0.5435
vn -0.4953 -0.7571 -0.4260
vn 0.0000 1.0000 0.0000
vn 0.4575 0.7122 -0.5324
vn -0.5162 0.7328 -0.4434
vn 0.0000 -1.0000 0.0000
usemtl None
s off
f 20/1/1 18/2/1 19/3/1
f 19/3/2 18/2/2 11/4/2 17/5/2
f 17/5/3 11/4/3 8/6/3 16/7/3
f 16/7/4 8/6/4 7/8/4 1/9/4 3/10/4 14/11/4
f 15/12/5 13/13/5 12/14/5 4/15/5 3/10/5 14/11/5
f 7/8/6 1/9/6 2/16/6
f 20/1/7 18/2/7 11/4/7 8/6/7 7/8/7 2/16/7 5/17/7 10/18/7
f 9/19/8 6/20/8 5/17/8 10/18/8
