# Blender v2.92.0 OBJ File: ''
# www.blender.org
mtllib BK39_500_016024_0027.mtl
o BK39_500_016024_0027
v 96.409523 75.000000 -555.204285
v 262.165466 75.000000 -532.198303
v 175.172943 145.000000 -528.055969
v 230.356857 75.000000 -303.288208
v 249.204346 75.000000 -300.500732
v 55.771370 75.000000 -260.259705
v 31.828970 75.000000 -263.507782
v 222.075134 131.493576 -236.204987
v 152.362167 131.752274 -246.202499
v 116.614128 135.749573 -182.177231
v 39.458347 135.738815 -192.656708
v 211.406204 75.000000 -166.910263
v 230.299347 75.000000 -164.288651
v 12.579259 75.000000 -124.819656
v 36.658932 75.000000 -121.545135
v 109.886246 144.770340 -56.181225
v 26.689201 75.000000 -49.186474
v 191.862000 75.000000 -26.260796
v 96.409523 0.000000 -555.204285
v 262.165466 0.000000 -532.198303
v 230.356857 0.000000 -303.288208
v 249.204346 0.000000 -300.500732
v 230.299347 0.000000 -164.288651
v 211.406204 0.000000 -166.910263
v 191.862000 0.000000 -26.260796
v 26.689201 0.000000 -49.186474
v 36.658932 0.000000 -121.545135
v 12.579259 0.000000 -124.819656
v 31.828970 0.000000 -263.507782
v 55.771370 0.000000 -260.259705
vn 0.1340 0.2237 -0.9654
vn 0.6270 0.7741 0.0871
vn -0.0862 0.7786 0.6215
vn 0.0938 0.7672 -0.6345
vn -0.9436 -0.3041 -0.1310
vn -0.1330 0.2546 0.9579
vn 0.6444 -0.7595 0.0888
vn 0.0877 -0.7592 -0.6450
vn -0.0887 -0.7515 0.6538
vn -0.9526 0.2739 -0.1322
vn 0.0000 -1.0000 0.0000
vn -0.1375 0.0000 0.9905
vn -0.9905 0.0000 -0.1376
vn -0.1463 0.0000 0.9892
vn -0.9905 0.0000 -0.1375
vn 0.1374 0.0000 -0.9905
vn 0.1375 0.0000 -0.9905
vn 0.9906 0.0000 0.1365
vn 0.1347 0.0000 -0.9909
vn 0.9905 0.0000 0.1375
vn -0.1344 0.0000 0.9909
usemtl None
s off
f 3//1 2//1 1//1
f 3//2 16//2 18//2 12//2 9//2 4//2 2//2
f 12//3 13//3 8//3 9//3
f 9//4 8//4 5//4 4//4
f 5//5 13//5 8//5
f 16//6 17//6 18//6
f 17//7 15//7 10//7 6//7 1//7 3//7 16//7
f 15//8 14//8 11//8 10//8
f 11//9 7//9 6//9 10//9
f 7//10 14//10 11//10
f 19//11 20//11 21//11 22//11 23//11 24//11 25//11 26//11 27//11 28//11 29//11 30//11
f 1//12 19//12 20//12 2//12
f 2//13 20//13 21//13 4//13
f 4//14 21//14 22//14 5//14
f 5//15 22//15 23//15 13//15
f 13//16 23//16 24//16 12//16
f 12//13 24//13 25//13 18//13
f 18//17 25//17 26//17 17//17
f 17//18 26//18 27//18 15//18
f 15//19 27//19 28//19 14//19
f 14//20 28//20 29//20 7//20
f 7//21 29//21 30//21 6//21
f 6//18 30//18 19//18 1//18
