# Blender v2.92.0 OBJ File: ''
# www.blender.org
mtllib BK39_500_017025_0082_roof.mtl
o BK39_500_017025_0082_roof
v 347.166870 75.000000 -212.346252
v 249.061676 75.000000 -327.527283
v 263.538544 144.972046 -243.167160
v 98.111885 145.000000 -102.240395
v 115.618294 75.000000 -15.033225
v 17.458199 75.000000 -130.278656
v 347.166870 0.000000 -212.346252
v 249.061676 0.000000 -327.527283
v 17.458199 0.000000 -130.278656
v 115.618294 0.000000 -15.033225
vt 0.269540 0.701050
vt 0.724010 0.288980
vt 0.684240 0.042318
vt 0.047962 0.619070
vt 0.953760 0.379100
vt 0.317630 0.956040
vn -0.4467 0.7248 -0.5245
vn 0.6458 0.5295 -0.5500
vn -0.4340 -0.7431 -0.5093
vn 0.6478 -0.5254 -0.5517
usemtl None
s off
f 4/1/1 3/2/1 2/3/1 6/4/1
f 3/2/2 1/5/2 2/3/2
f 1/5/3 5/6/3 4/1/3 3/2/3
f 5/6/4 6/4/4 4/1/4
