# Blender v2.92.0 OBJ File: ''
# www.blender.org
mtllib BK39_500_015025_0018_roof.mtl
o BK39_500_015025_0018_roof
v 345.708679 75.000000 -78.134789
v 70.790314 75.000000 -11.735518
v 127.251411 145.000000 -106.420380
v 249.663956 144.961014 -135.940750
v 100.435028 124.825554 -122.715858
v 140.731705 75.000000 -188.612396
v 309.285339 75.000000 -229.199371
v 83.229126 124.870300 -194.047699
v 123.927048 75.000000 -258.485565
v 17.315083 75.000000 -232.780121
v 345.708679 0.000000 -78.134789
v 70.790314 0.000000 -11.735518
v 17.315083 0.000000 -232.780121
v 123.927048 0.000000 -258.485565
v 140.731705 0.000000 -188.612396
v 309.285339 0.000000 -229.199371
vt 0.195550 0.956540
vt 0.351520 0.605850
vt 0.689680 0.496520
vt 0.955000 0.710610
vt 0.854380 0.151110
vt 0.388760 0.301440
vt 0.277440 0.545500
vt 0.229910 0.281300
vt 0.342340 0.042646
vt 0.047832 0.137850
vn -0.1559 -0.7475 -0.6456
vn 0.6408 0.7520 -0.1545
vn -0.1578 0.7389 -0.6551
vn -0.6555 -0.7386 0.1576
vn 0.1605 -0.7289 0.6655
vn -0.6532 0.7406 0.1580
usemtl None
s off
f 2/1/1 3/2/1 4/3/1 1/4/1
f 1/4/2 7/5/2 4/3/2
f 7/5/3 6/6/3 5/7/3 3/2/3 4/3/3
f 5/7/4 8/8/4 9/9/4 6/6/4
f 8/8/5 10/10/5 9/9/5
f 10/10/6 2/1/6 3/2/6 5/7/6 8/8/6
