# Blender v2.92.0 OBJ File: ''
# www.blender.org
mtllib BK39_500_014034_0068.mtl
o BK39_500_014034_0068
v 11.471829 75.000000 -213.311157
v 82.597260 75.000000 -12.996288
v 151.486862 144.452606 -37.343372
v 80.873154 145.000000 -237.938110
v 155.187302 75.000000 -264.204163
v 225.187500 75.000000 -63.496883
v 11.471829 0.000000 -213.311157
v 82.597260 0.000000 -12.996288
v 225.187500 0.000000 -63.496883
v 155.187302 0.000000 -264.204163
vn -0.6492 0.7248 0.2305
vn 0.6270 0.7477 -0.2187
vn -0.3338 0.0007 -0.9426
vn 0.3338 0.0007 0.9426
vn 0.0000 1.0000 0.0000
vn -0.9424 0.0000 0.3346
vn 0.3338 0.0000 0.9426
vn 0.9442 0.0000 -0.3293
vn -0.3338 0.0000 -0.9426
usemtl None
s off
f 1//1 2//1 3//1 4//1
f 3//2 6//2 5//2 4//2
f 2//3 3//3 6//3
f 5//4 4//4 1//4
f 7//5 8//5 9//5 10//5
f 1//6 7//6 8//6 2//6
f 2//7 8//7 9//7 6//7
f 6//8 9//8 10//8 5//8
f 5//9 10//9 7//9 1//9
