# Blender v2.92.0 OBJ File: ''
# www.blender.org
mtllib BK39_500_015032_0001_roof.mtl
o BK39_500_015032_0001_roof
v 402.587219 75.000000 -40.057762
v 354.071991 75.000000 -241.909286
v 338.153687 116.194191 -122.801140
v 349.613770 116.275795 -74.753365
v 301.183868 145.000000 -147.016342
v 312.176361 75.000000 -18.290199
v 300.782623 75.000000 -66.482079
v 167.228195 75.000000 -196.444702
v 140.631287 75.000000 -308.330841
v 144.110672 144.798767 -109.031654
v 98.003197 131.479614 -234.022919
v 125.227722 131.314713 -120.237061
v 19.350094 75.000000 -279.130920
v 83.202034 75.000000 -14.185377
v 402.587219 0.000000 -40.057762
v 354.071991 0.000000 -241.909286
v 167.228195 0.000000 -196.444702
v 140.631287 0.000000 -308.330841
v 19.350094 0.000000 -279.130920
v 83.202034 0.000000 -14.185377
v 300.782623 0.000000 -66.482079
v 312.176361 0.000000 -18.290199
vt 0.196700 0.955950
vt 0.340690 0.661390
vt 0.712020 0.543430
vt 0.799420 0.618630
vt 0.711070 0.793530
vt 0.045745 0.133130
vt 0.231690 0.273220
vt 0.296050 0.626590
vt 0.395340 0.389920
vt 0.332460 0.042451
vt 0.837050 0.248730
vt 0.951740 0.875600
vt 0.826510 0.767850
vt 0.738010 0.943200
vn -0.1559 -0.7451 -0.6484
vn 0.6327 -0.7593 -0.1525
vn 0.6748 0.7204 -0.1604
vn -0.1573 0.7407 -0.6532
vn 0.1560 -0.7513 0.6412
vn -0.6701 -0.7246 0.1611
vn -0.1561 -0.7452 -0.6483
vn 0.6238 -0.7675 -0.1475
usemtl None
s off
f 14/1/1 10/2/1 5/3/1 3/4/1 7/5/1
f 14/1/2 13/6/2 11/7/2 12/8/2 10/2/2
f 12/8/3 8/9/3 9/10/3 11/7/3
f 9/10/4 13/6/4 11/7/4
f 8/9/5 2/11/5 5/3/5 10/2/5 12/8/5
f 2/11/6 1/12/6 4/13/6 3/4/6 5/3/6
f 1/12/7 6/14/7 4/13/7
f 6/14/8 7/5/8 3/4/8 4/13/8
