# Blender v2.92.0 OBJ File: ''
# www.blender.org
mtllib BK39_500_018029_0010_roof.mtl
o BK39_500_018029_0010_roof
v 329.775848 75.000000 -87.722969
v 268.523132 75.000000 -312.111053
v 231.270035 120.728294 -245.085922
v 248.308640 120.914070 -181.841415
v 228.690948 144.988174 -146.575394
v 163.403458 75.000000 -283.441376
v 180.168198 75.000000 -220.345718
v 121.719681 145.000000 -117.419914
v 60.565166 75.000000 -14.311724
v 16.532497 75.000000 -175.768616
v 329.775848 0.000000 -87.722969
v 268.523132 0.000000 -312.111053
v 163.403458 0.000000 -283.441376
v 180.168198 0.000000 -220.345718
v 16.532497 0.000000 -175.768616
v 60.565166 0.000000 -14.311724
vt 0.047782 0.462480
vt 0.175040 0.956230
vt 0.351790 0.640920
vt 0.953110 0.731730
vt 0.660960 0.551760
vt 0.717660 0.443910
vt 0.668410 0.250500
vt 0.776080 0.045532
vt 0.472260 0.133210
vt 0.520720 0.326160
vn -0.6085 0.7760 0.1659
vn 0.1691 0.7659 0.6203
vn -0.6262 -0.7607 0.1709
vn -0.1685 0.7681 -0.6177
vn -0.6130 0.7731 0.1629
vn 0.1683 -0.7680 0.6179
usemtl None
s off
f 10/1/1 9/2/1 8/3/1
f 9/2/2 1/4/2 5/5/2 8/3/2
f 1/4/3 5/5/3 4/6/3 3/7/3 2/8/3
f 6/9/4 3/7/4 2/8/4
f 7/10/5 4/6/5 3/7/5 6/9/5
f 10/1/6 7/10/6 4/6/6 5/5/6 8/3/6
