# Blender v2.92.0 OBJ File: ''
# www.blender.org
mtllib BK39_500_018029_0034.mtl
o BK39_500_018029_0034
v 243.134598 75.000000 -17.893038
v 377.320465 75.000000 -108.186447
v 266.700531 144.999771 -132.414078
v 161.384781 75.000000 -139.382019
v 99.667610 75.000000 -97.852623
v 56.632946 75.000000 -161.806824
v 118.456573 75.000000 -203.177917
v 68.425743 75.000000 -169.742172
v 173.687393 145.000000 -270.641998
v 17.808008 75.000000 -244.965637
v 67.732323 75.000000 -278.559601
v 194.637360 75.000000 -379.674744
v 60.450764 75.000000 -289.380768
v 243.134598 0.000000 -17.893038
v 377.320465 0.000000 -108.186447
v 194.637360 0.000000 -379.674744
v 60.450764 0.000000 -289.380768
v 67.732323 0.000000 -278.559601
v 17.808008 0.000000 -244.965637
v 68.425743 0.000000 -169.742172
v 56.632946 0.000000 -161.806824
v 99.667610 0.000000 -97.852623
v 161.384781 0.000000 -139.382019
vn -0.5331 0.7663 0.3587
vn 0.3628 0.7600 0.5392
vn 0.5531 0.7453 -0.3722
vn 0.3709 -0.7475 0.5511
vn 0.0000 1.0000 0.0000
vn 0.5583 0.0000 0.8297
vn 0.8297 0.0000 -0.5583
vn -0.5583 0.0000 -0.8297
vn -0.8297 0.0000 0.5583
usemtl None
s off
f 13//1 11//1 7//1 4//1 1//1 3//1 9//1
f 1//2 2//2 3//2
f 2//3 12//3 9//3 3//3
f 13//4 12//4 9//4
f 11//5 10//5 8//5 7//5
f 8//5 6//5 5//5 4//5 7//5
f 14//5 15//5 16//5 17//5 18//5 19//5 20//5 21//5 22//5 23//5
f 1//6 14//6 15//6 2//6
f 2//7 15//7 16//7 12//7
f 12//8 16//8 17//8 13//8
f 13//9 17//9 18//9 11//9
f 11//8 18//8 19//8 10//8
f 10//9 19//9 20//9 8//9
f 8//8 20//8 21//8 6//8
f 6//9 21//9 22//9 5//9
f 5//6 22//6 23//6 4//6
f 4//9 23//9 14//9 1//9
