# Blender v2.92.0 OBJ File: ''
# www.blender.org
mtllib BK39_500_016027_0079.mtl
o BK39_500_016027_0079
v 266.288879 75.000000 -68.576447
v 180.826019 75.000000 -425.286652
v 135.577057 136.547516 -256.677307
v 119.338112 136.764664 -323.195129
v 151.631332 144.830276 -141.562149
v 127.356789 145.000000 -241.894913
v 120.789986 113.611633 -89.255157
v 102.397881 112.993668 -83.957901
v 17.130442 75.000000 -386.059265
v 33.783310 75.000000 -319.101044
v 12.165079 75.000000 -313.054138
v 56.812862 75.000000 -130.298996
v 64.410408 75.000000 -20.190777
v 39.460762 75.000000 -124.350342
v 266.288879 0.000000 -68.576447
v 180.826019 0.000000 -425.286652
v 17.130442 0.000000 -386.059265
v 33.783310 0.000000 -319.101044
v 12.165079 0.000000 -313.054138
v 56.812862 0.000000 -130.298996
v 39.460762 0.000000 -124.350342
v 64.410408 0.000000 -20.190777
vn -0.5752 0.8063 0.1378
vn 0.1764 -0.8392 0.5145
vn 0.5762 -0.8051 -0.1408
vn 0.1549 -0.8180 0.5539
vn 0.5748 -0.8057 -0.1430
vn 0.1370 -0.8088 0.5719
vn 0.1355 0.8136 0.5655
vn 0.5780 0.8042 -0.1385
vn 0.0000 1.0000 0.0000
vn 0.9725 0.0000 -0.2330
vn -0.2330 0.0000 -0.9725
vn -0.9704 0.0000 0.2414
vn -0.2694 0.0000 -0.9630
vn -0.9714 0.0000 0.2373
vn -0.3243 0.0000 -0.9460
vn -0.9725 0.0000 0.2329
vn 0.2331 0.0000 0.9725
usemtl None
s off
f 14//1 13//1 8//1
f 14//2 12//2 7//2 8//2
f 12//3 11//3 6//3 5//3 7//3
f 11//4 10//4 3//4 6//4
f 10//5 9//5 4//5 3//5
f 9//6 2//6 4//6
f 13//7 1//7 5//7 7//7 8//7
f 1//8 2//8 4//8 3//8 6//8 5//8
f 15//9 16//9 17//9 18//9 19//9 20//9 21//9 22//9
f 1//10 15//10 16//10 2//10
f 2//11 16//11 17//11 9//11
f 9//12 17//12 18//12 10//12
f 10//13 18//13 19//13 11//13
f 11//14 19//14 20//14 12//14
f 12//15 20//15 21//15 14//15
f 14//16 21//16 22//16 13//16
f 13//17 22//17 15//17 1//17
