# Blender v2.92.0 OBJ File: ''
# www.blender.org
mtllib BK39_500_017029_0011.mtl
o BK39_500_017029_0011
v 366.731781 75.000000 -138.021637
v 87.165207 75.000000 -13.813275
v 52.594830 144.844849 -91.591240
v 332.091309 145.000000 -215.975342
v 17.695389 75.000000 -170.128220
v 297.107239 75.000000 -294.683624
v 366.731781 0.000000 -138.021637
v 87.165207 0.000000 -13.813275
v 17.695389 0.000000 -170.128220
v 297.107239 0.000000 -294.683624
vn -0.2576 -0.7730 -0.5797
vn 0.2568 -0.7760 0.5760
vn -0.9138 -0.0001 0.4061
vn 0.9138 -0.0001 -0.4061
vn 0.0000 -1.0000 0.0000
vn -0.4060 0.0000 -0.9139
vn 0.9138 0.0000 -0.4061
vn 0.4072 0.0000 0.9134
vn -0.9138 0.0000 0.4061
usemtl None
s off
f 3//1 4//1 1//1 2//1
f 3//2 5//2 6//2 4//2
f 2//3 3//3 5//3
f 6//4 4//4 1//4
f 7//5 8//5 9//5 10//5
f 1//6 7//6 8//6 2//6
f 2//7 8//7 9//7 5//7
f 5//8 9//8 10//8 6//8
f 6//9 10//9 7//9 1//9
