# Blender v2.92.0 OBJ File: ''
# www.blender.org
mtllib BK39_500_015032_0018_roof.mtl
o BK39_500_015032_0018_roof
v 313.165588 75.000000 -381.403046
v 417.945587 75.000000 -249.845963
v 366.091675 145.000000 -314.951965
v 124.807396 75.000000 -16.389391
v 20.108444 75.000000 -147.844803
v 72.993057 144.945892 -81.444656
v 313.165588 0.000000 -381.403046
v 417.945587 0.000000 -249.845963
v 124.807396 0.000000 -16.389391
v 20.108444 0.000000 -147.844803
vt 0.166270 0.795880
vt 0.833920 0.210650
vt 0.952040 0.373820
vt 0.284300 0.958920
vt 0.045805 0.629460
vt 0.713360 0.044103
vn -0.4010 -0.7653 -0.5035
vn 0.3963 -0.7718 0.4973
vn 0.7822 -0.0000 -0.6230
vn -0.7822 -0.0000 0.6230
usemtl None
s off
f 6/1/1 3/2/1 2/3/1 4/4/1
f 6/1/2 5/5/2 1/6/2 3/2/2
f 1/6/3 3/2/3 2/3/3
f 4/4/4 6/1/4 5/5/4
