# Blender v2.92.0 OBJ File: ''
# www.blender.org
mtllib BK39_500_014030_0008.mtl
o BK39_500_014030_0008
v 182.374664 75.000000 -364.626862
v 14.080245 75.000000 -316.655487
v 124.617630 145.000000 -255.917862
v 40.772614 75.000000 -223.643372
v 21.499537 75.000000 -217.472153
v 213.024490 75.000000 -256.866577
v 237.143951 75.000000 -263.792542
v 138.681015 144.951614 -206.688461
v 121.661537 125.848701 -177.455078
v 100.631920 125.480232 -171.243790
v 167.324524 126.049477 -190.170593
v 171.235565 126.050064 -176.417328
v 186.229553 135.601334 -167.916245
v 122.280403 75.000000 -112.168419
v 56.613720 75.000000 -94.254265
v 203.158524 135.613678 -108.430359
v 149.515472 75.000000 -16.376398
v 295.748383 75.000000 -58.059120
v 182.374664 0.000000 -364.626862
v 14.080245 0.000000 -316.655487
v 40.772614 0.000000 -223.643372
v 21.499537 0.000000 -217.472153
v 56.613720 0.000000 -94.254265
v 122.280403 0.000000 -112.168419
v 149.515472 0.000000 -16.376398
v 295.748383 0.000000 -58.059120
v 237.143951 0.000000 -263.792542
v 213.024490 0.000000 -256.866577
vn 0.1815 -0.8036 0.5668
vn 0.5988 -0.7825 -0.1707
vn -0.5922 0.7877 0.1699
vn 0.1698 -0.7850 0.5957
vn -0.6102 -0.7730 0.1736
vn -0.1692 0.7901 -0.5892
vn 0.6033 0.7788 -0.1719
vn -0.1740 -0.7729 -0.6103
vn -0.1651 -0.7789 -0.6051
vn 0.5960 -0.7849 -0.1695
vn 0.0000 1.0000 0.0000
vn -0.2741 0.0000 -0.9617
vn -0.9612 0.0000 0.2758
vn -0.3049 0.0000 -0.9524
vn -0.9617 0.0000 0.2741
vn 0.2632 0.0000 0.9647
vn -0.9619 0.0000 0.2735
vn 0.2741 0.0000 0.9617
vn 0.9617 0.0000 -0.2740
vn -0.2760 0.0000 -0.9612
vn 0.9619 0.0000 -0.2736
usemtl None
s off
f 9//1 10//1 5//1 4//1
f 10//2 15//2 5//2
f 8//3 3//3 2//3 4//3 9//3
f 2//4 1//4 3//4
f 6//5 12//5 11//5 8//5 3//5 1//5
f 13//6 7//6 6//6 12//6
f 13//7 16//7 18//7 7//7
f 18//8 17//8 16//8
f 8//9 11//9 14//9 15//9 10//9 9//9
f 17//10 14//10 11//10 12//10 13//10 16//10
f 19//11 20//11 21//11 22//11 23//11 24//11 25//11 26//11 27//11 28//11
f 1//12 19//12 20//12 2//12
f 2//13 20//13 21//13 4//13
f 4//14 21//14 22//14 5//14
f 5//15 22//15 23//15 15//15
f 15//16 23//16 24//16 14//16
f 14//17 24//17 25//17 17//17
f 17//18 25//18 26//18 18//18
f 18//19 26//19 27//19 7//19
f 7//20 27//20 28//20 6//20
f 6//21 28//21 19//21 1//21
