# Blender v2.92.0 OBJ File: ''
# www.blender.org
mtllib BK39_500_017028_0017.mtl
o BK39_500_017028_0017
v 327.447754 75.000000 -157.120605
v 263.007477 75.000000 -12.747063
v 222.482361 145.000000 -116.106033
v 117.685158 144.990051 -162.873795
v 14.901625 75.000000 -123.497719
v 79.320251 75.000000 -267.822754
v 327.447754 0.000000 -157.120605
v 263.007477 0.000000 -12.747063
v 14.901625 0.000000 -123.497719
v 79.320251 0.000000 -267.822754
vn -0.6107 0.7435 -0.2726
vn -0.2725 0.7437 0.6105
vn 0.6050 0.7490 0.2700
vn -0.2679 -0.7535 0.6004
vn 0.0000 -1.0000 0.0000
vn -0.9132 0.0000 -0.4076
vn 0.4076 0.0000 -0.9132
vn 0.9132 0.0000 0.4076
vn -0.4074 0.0000 0.9132
usemtl None
s off
f 5//1 4//1 6//1
f 5//2 2//2 3//2 4//2
f 2//3 1//3 3//3
f 6//4 1//4 3//4 4//4
f 7//5 8//5 9//5 10//5
f 1//6 7//6 8//6 2//6
f 2//7 8//7 9//7 5//7
f 5//8 9//8 10//8 6//8
f 6//9 10//9 7//9 1//9
