# Blender v2.92.0 OBJ File: ''
# www.blender.org
mtllib BK39_500_013031_0069.mtl
o BK39_500_013031_0069
v 195.757660 75.000000 -24.551193
v 17.885239 75.000000 -94.430420
v 130.939728 142.154236 -117.609741
v 75.005165 75.000000 -328.538574
v 106.584373 75.000000 -320.152252
v 170.285278 145.000000 -393.982544
v 231.696198 142.160034 -373.992279
v 352.871948 75.000000 -424.305878
v 144.707611 75.000000 -506.103821
v 195.757660 0.000000 -24.551193
v 17.885239 0.000000 -94.430420
v 106.584373 0.000000 -320.152252
v 75.005165 0.000000 -328.538574
v 144.707611 0.000000 -506.103821
v 352.871948 0.000000 -424.305878
vn 0.2668 -0.6837 -0.6792
vn -0.5396 -0.8148 -0.2121
vn -0.2169 -0.8051 0.5521
vn 0.6832 -0.6792 0.2682
vn 0.1601 -0.7816 -0.6029
vn -0.5307 0.8215 -0.2086
vn 0.0000 -1.0000 0.0000
vn 0.3657 0.0000 -0.9308
vn 0.9307 0.0000 0.3657
vn 0.2567 0.0000 -0.9665
vn 0.9309 0.0000 0.3654
vn -0.3657 0.0000 0.9307
vn -0.9307 0.0000 -0.3658
usemtl None
s off
f 2//1 3//1 1//1
f 1//2 3//2 7//2 8//2
f 8//3 7//3 6//3 9//3
f 9//4 6//4 4//4
f 4//5 6//5 7//5 5//5
f 2//6 3//6 7//6 5//6
f 10//7 11//7 12//7 13//7 14//7 15//7
f 1//8 10//8 11//8 2//8
f 2//9 11//9 12//9 5//9
f 5//10 12//10 13//10 4//10
f 4//11 13//11 14//11 9//11
f 9//12 14//12 15//12 8//12
f 8//13 15//13 10//13 1//13
