# Blender v2.92.0 OBJ File: ''
# www.blender.org
mtllib BK39_500_016026_0005_roof.mtl
o BK39_500_016026_0005_roof
v 28.204090 75.000099 -355.039642
v 14.475853 75.000000 -426.974792
v 107.630806 75.000000 -22.017977
v 123.771194 145.000000 -331.278534
v 180.872086 144.273056 -87.950615
v 175.739807 75.000000 -393.892303
v 160.128311 75.000000 -459.643463
v 277.113434 75.000000 -61.143295
v 198.912338 75.000000 -399.994659
v 14.475853 0.000000 -426.974792
v 107.630806 0.000000 -22.017977
v 277.113434 0.000000 -61.143295
v 198.912338 0.000000 -399.994659
v 175.739807 0.000000 -393.892303
v 160.128311 0.000000 -459.643463
vt 0.372420 0.954320
vt 0.625850 0.817530
vt 0.958870 0.873150
vt 0.428270 0.312700
vt 0.688280 0.170140
vt 0.097592 0.263400
vt 0.608100 0.182800
vt 0.554080 0.046383
vt 0.050089 0.114160
vn -0.1852 -0.5677 -0.8021
vn -0.6038 -0.7849 0.1393
vn 0.2110 -0.5600 0.8012
vn 0.0000 1.0000 -0.0000
vn 0.6079 -0.7807 -0.1450
vn -0.0000 -1.0000 0.0000
usemtl None
s off
f 3/1/1 5/2/1 8/3/1
f 8/3/2 5/2/2 4/4/2 9/5/2
f 9/5/3 4/4/3 1/6/3 6/7/3
f 6/7/4 7/8/4 2/9/4 1/6/4
f 1/6/5 4/4/5 5/2/5 3/1/5
f 3/1/6 1/6/6 2/9/6
