# Blender v2.92.0 OBJ File: ''
# www.blender.org
mtllib BK39_500_018028_0089.mtl
o BK39_500_018028_0089
v 287.181458 75.000000 -175.428131
v 134.296951 75.000000 -348.193359
v 313.553375 75.000000 -47.436382
v 216.197037 144.827988 -140.128250
v 77.052353 144.710220 -297.561768
v 238.264069 145.000000 -32.093922
v 141.926773 75.000000 -100.531296
v 15.824780 75.000000 -243.396927
v 159.031937 75.000000 -16.012571
v 287.181458 0.000000 -175.428131
v 134.296951 0.000000 -348.193359
v 15.824780 0.000000 -243.396927
v 141.926773 0.000000 -100.531296
v 159.031937 0.000000 -16.012571
v 313.553375 0.000000 -47.436382
vn 0.6416 -0.7560 -0.1298
vn -0.6596 -0.7392 0.1359
vn -0.5047 -0.7388 0.4466
vn -0.4865 0.7609 0.4294
vn 0.6626 0.0001 0.7490
vn -0.1993 0.0004 -0.9799
vn 0.0000 1.0000 0.0000
vn 0.7489 0.0000 -0.6627
vn -0.6626 0.0000 -0.7490
vn -0.7497 0.0000 0.6618
vn -0.9801 0.0000 0.1984
vn 0.1993 0.0000 0.9799
vn 0.9794 0.0000 -0.2018
usemtl None
s off
f 9//1 7//1 4//1 6//1
f 6//2 4//2 1//2 3//2
f 4//3 5//3 2//3 1//3
f 4//4 5//4 8//4 7//4
f 2//5 5//5 8//5
f 9//6 6//6 3//6
f 10//7 11//7 12//7 13//7 14//7 15//7
f 1//8 10//8 11//8 2//8
f 2//9 11//9 12//9 8//9
f 8//10 12//10 13//10 7//10
f 7//11 13//11 14//11 9//11
f 9//12 14//12 15//12 3//12
f 3//13 15//13 10//13 1//13
