# Blender v2.92.0 OBJ File: ''
# www.blender.org
mtllib BK39_500_014032_0046.mtl
o BK39_500_014032_0046
v 330.539337 75.000000 -74.442787
v 83.651428 75.000000 -15.718042
v 201.226624 144.995117 -152.141754
v 163.361023 145.000000 -143.142609
v 129.698486 126.817772 -164.561371
v 111.628685 126.817680 -240.582291
v 189.495819 75.000000 -262.581970
v 280.619080 75.000000 -284.219330
v 15.720952 75.000000 -301.508423
v 171.435211 75.000000 -338.563568
v 330.539337 0.000000 -74.442787
v 83.651428 0.000000 -15.718042
v 15.720952 0.000000 -301.508423
v 171.435211 0.000000 -338.563568
v 189.495819 0.000000 -262.581970
v 280.619080 0.000000 -284.219330
vn 0.1279 0.8333 0.5378
vn 0.5297 0.8387 -0.1261
vn -0.1239 0.8440 -0.5218
vn 0.5250 0.8419 -0.1248
vn -0.1242 0.8438 -0.5221
vn -0.5326 0.8369 0.1266
vn 0.0000 -1.0000 0.0000
vn -0.2314 0.0000 -0.9729
vn 0.9729 0.0000 -0.2313
vn 0.2315 0.0000 0.9728
vn -0.9729 0.0000 0.2313
vn 0.2310 0.0000 0.9729
vn -0.9728 0.0000 0.2315
usemtl None
s off
f 4//1 2//1 1//1 3//1
f 1//2 8//2 3//2
f 8//3 7//3 5//3 4//3 3//3
f 7//4 10//4 6//4 5//4
f 10//5 9//5 6//5
f 9//6 2//6 4//6 5//6 6//6
f 11//7 12//7 13//7 14//7 15//7 16//7
f 1//8 11//8 12//8 2//8
f 2//9 12//9 13//9 9//9
f 9//10 13//10 14//10 10//10
f 10//11 14//11 15//11 7//11
f 7//12 15//12 16//12 8//12
f 8//13 16//13 11//13 1//13
