# Blender v2.92.0 OBJ File: ''
# www.blender.org
mtllib BK39_500_018029_0071.mtl
o BK39_500_018029_0071
v 11.647861 75.000000 -341.044403
v 91.745262 145.000000 -349.525330
v 172.936676 75.000000 -358.095398
v 174.706833 75.000000 -341.092163
v 229.021454 75.000000 -346.834625
v 237.874420 75.000000 -263.094757
v 240.892639 75.000000 -260.653687
v 189.456421 75.000000 -199.414536
v 246.726746 75.000000 -205.469025
v 46.090816 75.000000 -16.068985
v 125.891052 144.737747 -24.490646
v 206.775330 75.000000 -33.057175
v 11.647861 0.000000 -341.044403
v 172.936676 0.000000 -358.095398
v 174.706833 0.000000 -341.092163
v 229.021454 0.000000 -346.834625
v 237.874420 0.000000 -263.094757
v 240.892639 0.000000 -260.653687
v 246.726746 0.000000 -205.469025
v 189.456421 0.000000 -199.414536
v 206.775330 0.000000 -33.057175
v 46.090816 0.000000 -16.068985
vn -0.6523 0.7548 0.0691
vn 0.6474 0.7592 -0.0674
vn 0.0000 -1.0000 0.0000
vn -0.1051 -0.0002 -0.9945
vn 0.1051 -0.0002 0.9945
vn 0.1051 0.0000 0.9945
vn -0.9946 0.0000 0.1035
vn -0.9945 0.0000 0.1051
vn -0.6288 0.0000 0.7775
vn -0.1051 0.0000 -0.9945
vn 0.9944 0.0000 -0.1054
usemtl None
s off
f 1//1 10//1 11//1 2//1
f 11//2 12//2 8//2 4//2 3//2 2//2
f 4//3 5//3 6//3 7//3 9//3 8//3
f 1//4 2//4 3//4
f 12//5 11//5 10//5
f 13//3 14//3 15//3 16//3 17//3 18//3 19//3 20//3 21//3 22//3
f 1//6 13//6 14//6 3//6
f 3//7 14//7 15//7 4//7
f 4//6 15//6 16//6 5//6
f 5//8 16//8 17//8 6//8
f 6//9 17//9 18//9 7//9
f 7//8 18//8 19//8 9//8
f 9//10 19//10 20//10 8//10
f 8//7 20//7 21//7 12//7
f 12//10 21//10 22//10 10//10
f 10//11 22//11 13//11 1//11
