# Blender v2.92.0 OBJ File: ''
# www.blender.org
mtllib BK39_500_016027_0072.mtl
o BK39_500_016027_0072
v 18.033560 75.000000 -336.384369
v 52.504128 75.000000 -190.490967
v 136.965042 75.000000 -17.559587
v 93.900993 75.000000 -200.113953
v 97.671181 130.866104 -283.500549
v 101.476265 130.873322 -267.432587
v 126.512665 113.087730 -252.384155
v 170.625107 144.723145 -223.626373
v 197.121262 145.000000 -112.690422
v 145.398117 75.000000 -366.479370
v 159.336258 75.000000 -307.756165
v 229.591125 121.838768 -93.587471
v 229.990952 75.000000 -324.815979
v 269.847595 75.000000 -160.011993
v 291.508514 121.736320 -108.097122
v 357.621246 75.000000 -69.689926
v 332.821350 75.000000 -174.642227
v 18.033560 0.000000 -336.384369
v 52.504128 0.000000 -190.490967
v 93.900993 0.000000 -200.113953
v 136.965042 0.000000 -17.559587
v 357.621246 0.000000 -69.689926
v 332.821350 0.000000 -174.642227
v 269.847595 0.000000 -160.011993
v 229.990952 0.000000 -324.815979
v 159.336258 0.000000 -307.756165
v 145.398117 0.000000 -366.479370
vn -0.6268 -0.7650 0.1481
vn 0.1458 -0.7647 0.6276
vn -0.6319 -0.7598 0.1528
vn -0.1495 0.7711 -0.6190
vn 0.6308 0.7613 -0.1497
vn -0.1437 0.7806 -0.6082
vn -0.6324 0.7601 0.1494
vn 0.1491 0.7526 0.6414
vn 0.1528 0.7474 0.6466
vn -0.6391 0.7542 0.1508
vn 0.0000 1.0000 0.0000
vn -0.9732 0.0000 0.2299
vn 0.2264 0.0000 0.9740
vn -0.9733 0.0000 0.2296
vn 0.2299 0.0000 0.9732
vn 0.9732 0.0000 -0.2300
vn -0.2263 0.0000 -0.9741
vn 0.9720 0.0000 -0.2351
vn -0.2347 0.0000 -0.9721
vn 0.9730 0.0000 -0.2309
vn -0.2300 0.0000 -0.9732
usemtl None
s off
f 15//1 17//1 16//1
f 15//2 12//2 14//2 17//2
f 9//3 8//3 13//3 14//3 12//3
f 7//4 8//4 13//4 11//4
f 5//5 6//5 7//5 11//5 10//5
f 1//6 5//6 10//6
f 1//7 2//7 6//7 5//7
f 2//8 4//8 7//8 6//8
f 3//9 16//9 15//9 12//9 9//9
f 4//10 3//10 9//10 8//10 7//10
f 18//11 19//11 20//11 21//11 22//11 23//11 24//11 25//11 26//11 27//11
f 1//12 18//12 19//12 2//12
f 2//13 19//13 20//13 4//13
f 4//14 20//14 21//14 3//14
f 3//15 21//15 22//15 16//15
f 16//16 22//16 23//16 17//16
f 17//17 23//17 24//17 14//17
f 14//18 24//18 25//18 13//18
f 13//19 25//19 26//19 11//19
f 11//20 26//20 27//20 10//20
f 10//21 27//21 18//21 1//21
