# Blender v2.92.0 OBJ File: ''
# www.blender.org
mtllib BK39_500_015030_0063_roof.mtl
o BK39_500_015030_0063_roof
v 65.036270 75.000000 -137.320312
v 20.664066 75.000000 -280.872620
v 111.417648 135.714554 -231.023483
v 201.037369 75.000000 -18.797712
v 155.714127 75.000000 -165.376877
v 204.511566 135.704224 -259.814117
v 257.333313 144.830231 -126.906700
v 218.779831 145.000000 -252.297318
v 229.655258 132.768646 -271.353271
v 369.771454 75.000000 -70.954498
v 323.308838 75.000000 -222.982712
v 336.024506 132.944992 -304.008087
v 428.148712 75.000000 -254.936615
v 385.292511 75.000000 -393.587402
v 65.036270 0.000000 -137.320312
v 20.664066 0.000000 -280.872620
v 385.292511 0.000000 -393.587402
v 428.148712 0.000000 -254.936615
v 323.308838 0.000000 -222.982712
v 369.771454 0.000000 -70.954498
v 201.037369 0.000000 -18.797712
v 155.714127 0.000000 -165.376877
vt 0.448740 0.954260
vt 0.574400 0.691220
vt 0.825380 0.827360
vt 0.347580 0.597620
vt 0.456500 0.367850
vt 0.488350 0.386140
vt 0.145170 0.665890
vt 0.248700 0.437900
vt 0.046125 0.316610
vt 0.860030 0.042366
vt 0.750050 0.260320
vt 0.512620 0.339770
vt 0.955690 0.379720
vt 0.721670 0.457460
vn -0.1853 -0.7787 -0.5995
vn 0.6034 -0.7753 -0.1866
vn -0.1848 -0.7805 -0.5972
vn 0.6160 -0.7644 -0.1904
vn 0.1867 -0.7749 0.6039
vn -0.5914 -0.7854 0.1828
vn -0.1800 -0.7865 -0.5907
vn -0.5815 -0.7939 0.1777
usemtl None
s off
f 4/1/1 7/2/1 10/3/1
f 4/1/2 5/4/2 6/5/2 8/6/2 7/2/2
f 5/4/3 1/7/3 3/8/3 6/5/3
f 1/7/4 2/9/4 3/8/4
f 2/9/5 14/10/5 12/11/5 9/12/5 8/6/5 6/5/5 3/8/5
f 14/10/6 13/13/6 12/11/6
f 13/13/7 11/14/7 9/12/7 12/11/7
f 11/14/8 10/3/8 7/2/8 8/6/8 9/12/8
