# Blender v2.92.0 OBJ File: ''
# www.blender.org
mtllib BK39_500_017026_0017.mtl
o BK39_500_017026_0017
v 43.404419 75.000000 -108.561462
v 109.188377 75.000000 -20.398123
v 18.454126 75.000000 -256.279419
v 98.609116 75.000000 -149.756790
v 114.807953 75.000076 -128.229202
v 156.220078 75.000000 -76.790337
v 166.427948 75.000000 -63.106777
v 132.208450 145.000000 -240.270111
v 199.641647 75.000000 -192.101807
v 239.374908 75.000000 -138.843521
v 232.882996 75.000000 -217.129745
v 284.459167 75.000000 -147.958450
v 301.021057 75.000000 -160.316101
v 344.167847 75.000000 -102.490158
v 217.833694 144.843140 -304.516968
v 242.775909 128.996796 -300.898743
v 295.003052 129.036652 -230.925980
v 350.930511 75.000000 -197.556030
v 394.077332 75.000000 -139.730072
v 232.381332 75.000000 -416.228668
v 379.720703 75.000000 -219.037827
v 43.404419 0.000000 -108.561462
v 109.188377 0.000000 -20.398123
v 166.427948 0.000000 -63.106777
v 156.220078 0.000000 -76.790337
v 239.374908 0.000000 -138.843521
v 199.641647 0.000000 -192.101807
v 232.882996 0.000000 -217.129745
v 284.459167 0.000000 -147.958450
v 301.021057 0.000000 -160.316101
v 344.167847 0.000000 -102.490158
v 394.077332 0.000000 -139.730072
v 350.930511 0.000000 -197.556030
v 379.720703 0.000000 -219.037827
v 232.381332 0.000000 -416.228668
v 18.454126 0.000000 -256.279419
v 98.609116 0.000000 -149.756790
vn 0.0000 1.0000 0.0000
vn 0.3988 0.7486 0.5297
vn 0.5462 -0.7319 -0.4073
vn -0.3995 -0.7441 -0.5354
vn -0.5324 -0.7472 0.3978
vn 0.3917 -0.7564 0.5239
vn 0.5215 -0.7577 -0.3924
vn 0.0000 -1.0000 -0.0000
vn -0.8015 0.0000 0.5980
vn 0.5980 0.0000 0.8015
vn 0.8015 0.0000 -0.5979
vn 0.5981 0.0000 0.8014
vn 0.8015 0.0000 -0.5980
vn 0.6015 0.0000 0.7989
vn -0.8017 0.0000 0.5978
vn 0.8011 0.0000 -0.5986
vn -0.5988 0.0000 -0.8009
vn -0.7991 0.0000 0.6013
vn -0.5981 0.0000 -0.8014
usemtl None
s off
f 6//1 10//1 9//1 5//1
f 5//2 9//2 11//2 16//2 15//2 8//2
f 11//3 16//3 17//3 12//3
f 13//1 14//1 19//1 18//1
f 12//4 17//4 21//4 18//4 13//4
f 21//5 17//5 16//5 15//5 20//5
f 20//6 15//6 8//6 3//6
f 3//7 8//7 5//7 4//7
f 1//8 4//8 5//8 6//8 7//8 2//8
f 22//1 23//1 24//1 25//1 26//1 27//1 28//1 29//1 30//1 31//1 32//1 33//1 34//1 35//1 36//1 37//1
f 1//9 22//9 23//9 2//9
f 2//10 23//10 24//10 7//10
f 7//11 24//11 25//11 6//11
f 6//12 25//12 26//12 10//12
f 10//13 26//13 27//13 9//13
f 9//14 27//14 28//14 11//14
f 11//15 28//15 29//15 12//15
f 12//10 29//10 30//10 13//10
f 13//9 30//9 31//9 14//9
f 14//10 31//10 32//10 19//10
f 19//13 32//13 33//13 18//13
f 18//10 33//10 34//10 21//10
f 21//16 34//16 35//16 20//16
f 20//17 35//17 36//17 3//17
f 3//18 36//18 37//18 4//18
f 4//19 37//19 22//19 1//19
