# Blender v2.92.0 OBJ File: ''
# www.blender.org
mtllib BK39_500_018028_0097.mtl
o BK39_500_018028_0097
v 116.382767 75.000000 -14.744138
v 12.047671 75.000000 -218.343552
v 78.424362 143.335526 -252.372833
v 184.384048 145.000000 -49.587029
v 137.064819 75.000000 -282.426117
v 244.442520 75.000000 -80.391724
v 209.485275 75.000000 -146.164856
v 187.804459 75.000000 -308.431183
v 258.178741 75.000000 -171.134232
v 116.382767 0.000000 -14.744138
v 12.047671 0.000000 -218.343552
v 137.064819 0.000000 -282.426117
v 187.804459 0.000000 -308.431183
v 258.178741 0.000000 -171.134232
v 209.485275 0.000000 -146.164856
v 244.442520 0.000000 -80.391724
vn 0.6012 -0.7374 -0.3081
vn -0.6357 -0.6941 0.3379
vn 0.0000 -1.0000 0.0000
vn -0.4562 -0.0001 -0.8899
vn 0.4562 -0.0002 0.8899
vn 0.8900 0.0000 -0.4561
vn 0.4562 0.0000 0.8899
vn 0.4561 0.0000 0.8899
vn -0.8899 0.0000 0.4561
vn -0.4563 0.0000 -0.8898
vn -0.8830 0.0000 0.4693
vn -0.4562 0.0000 -0.8899
usemtl None
s off
f 1//1 2//1 3//1 4//1
f 4//2 3//2 5//2 7//2 6//2
f 5//3 8//3 9//3 7//3
f 2//4 3//4 5//4
f 6//5 4//5 1//5
f 10//3 11//3 12//3 13//3 14//3 15//3 16//3
f 1//6 10//6 11//6 2//6
f 2//7 11//7 12//7 5//7
f 5//8 12//8 13//8 8//8
f 8//9 13//9 14//9 9//9
f 9//10 14//10 15//10 7//10
f 7//11 15//11 16//11 6//11
f 6//12 16//12 10//12 1//12
