# Blender v2.92.0 OBJ File: ''
# www.blender.org
mtllib BK39_500_016032_0044.mtl
o BK39_500_016032_0044
v 388.741272 75.000000 -56.858643
v 233.738586 75.000000 -14.237963
v 426.638397 75.000000 -80.037636
v 385.476654 75.000000 -68.718758
v 291.153168 145.000000 -113.072113
v 206.220779 75.000000 -117.047867
v 360.049316 75.000023 -161.093857
v 55.113068 75.000000 -75.764732
v 401.095825 75.000000 -172.930481
v 417.639648 75.000000 -177.701248
v 271.465179 144.767410 -185.587860
v 251.978455 131.026337 -196.883270
v 282.226654 130.976868 -205.262909
v 337.738617 130.668945 -220.904572
v 100.365517 130.910522 -155.322906
v 383.727753 75.000000 -301.028625
v 20.631189 75.000000 -201.159866
v 388.741272 0.000000 -56.858643
v 233.738586 0.000000 -14.237963
v 206.220779 0.000000 -117.047867
v 55.113068 0.000000 -75.764732
v 20.631189 0.000000 -201.159866
v 383.727753 0.000000 -301.028625
v 417.639648 0.000000 -177.701248
v 401.095825 0.000000 -172.930481
v 426.638397 0.000000 -80.037636
v 385.476654 0.000000 -68.718758
vn -0.1745 -0.7529 -0.6346
vn 0.6316 -0.7567 -0.1690
vn 0.6386 0.7492 -0.1758
vn 0.0000 1.0000 0.0000
vn -0.1824 -0.7527 -0.6326
vn 0.6239 0.7624 -0.1716
vn -0.1724 0.7598 -0.6269
vn -0.6303 0.7568 0.1733
vn 0.1721 0.7572 0.6301
vn 0.0000 -1.0000 0.0000
vn -0.2651 0.0000 -0.9642
vn 0.9660 0.0000 -0.2586
vn -0.2635 0.0000 -0.9646
vn 0.9642 0.0000 -0.2651
vn 0.2652 0.0000 0.9642
vn -0.9642 0.0000 0.2651
vn -0.2771 0.0000 -0.9608
vn -0.9641 0.0000 0.2654
usemtl None
s off
f 2//1 5//1 1//1
f 2//2 6//2 12//2 11//2 5//2
f 5//3 1//3 4//3 7//3 13//3 11//3
f 4//4 3//4 9//4 7//4
f 13//5 14//5 10//5 9//5 7//5
f 10//6 16//6 14//6
f 16//7 17//7 15//7 12//7 11//7 13//7 14//7
f 17//8 8//8 15//8
f 8//9 6//9 12//9 15//9
f 18//10 19//10 20//10 21//10 22//10 23//10 24//10 25//10 26//10 27//10
f 1//11 18//11 19//11 2//11
f 2//12 19//12 20//12 6//12
f 6//13 20//13 21//13 8//13
f 8//14 21//14 22//14 17//14
f 17//15 22//15 23//15 16//15
f 16//16 23//16 24//16 10//16
f 10//17 24//17 25//17 9//17
f 9//16 25//16 26//16 3//16
f 3//11 26//11 27//11 4//11
f 4//18 27//18 18//18 1//18
