# Blender v2.92.0 OBJ File: ''
# www.blender.org
mtllib BK39_500_017029_0001.mtl
o BK39_500_017029_0001
v 295.512085 75.000000 -69.496216
v 82.168831 75.000000 -17.498129
v 143.747025 144.908371 -121.440598
v 193.452820 144.999557 -133.670914
v 88.060150 75.791412 -196.874832
v 41.281799 75.792259 -185.252594
v 158.999252 145.000000 -275.029877
v 58.942486 75.000000 -312.114990
v 13.085773 75.000000 -300.938293
v 220.774872 75.000000 -376.134552
v 53.288414 75.000000 -335.312958
v 295.512085 0.000000 -69.496216
v 82.168831 0.000000 -17.498129
v 13.085773 0.000000 -300.938293
v 58.942486 0.000000 -312.114990
v 53.288414 0.000000 -335.312958
v 220.774872 0.000000 -376.134552
vn -0.1489 -0.7774 -0.6111
vn 0.6166 -0.7720 -0.1539
vn 0.1504 -0.7817 0.6052
vn 0.0016 -1.0000 0.0065
vn 0.6030 -0.7841 -0.1470
vn 0.1520 -0.7667 0.6237
vn -0.6222 -0.7681 0.1516
vn -0.9716 -0.0002 0.2368
vn 0.0000 -1.0000 0.0000
vn -0.2368 0.0000 -0.9716
vn 0.9716 0.0000 -0.2368
vn 0.2368 0.0000 0.9716
vn -0.9716 0.0000 0.2368
usemtl None
s off
f 2//1 3//1 4//1 1//1
f 2//2 6//2 3//2
f 6//3 5//3 4//3 3//3
f 6//4 9//4 8//4 5//4
f 8//5 11//5 7//5 4//5 5//5
f 11//6 10//6 7//6
f 10//7 1//7 4//7 7//7
f 2//8 6//8 9//8
f 12//9 13//9 14//9 15//9 16//9 17//9
f 1//10 12//10 13//10 2//10
f 2//11 13//11 14//11 9//11
f 9//12 14//12 15//12 8//12
f 8//11 15//11 16//11 11//11
f 11//12 16//12 17//12 10//12
f 10//13 17//13 12//13 1//13
