# Blender v2.92.0 OBJ File: ''
# www.blender.org
mtllib BK39_500_014027_0067.mtl
o BK39_500_014027_0067
v 385.376862 75.000000 -395.154663
v 425.877869 75.000000 -245.372818
v 330.054810 129.175827 -301.130341
v 285.407440 75.000000 -207.371735
v 318.202637 75.000000 -86.359856
v 192.939331 129.206100 -264.082458
v 178.186340 144.626801 -237.587463
v 200.966629 145.000000 -151.571274
v 195.341354 139.348221 -142.221115
v 127.486160 139.517639 -124.087822
v 60.979332 75.000000 -307.608795
v 86.612671 75.000000 -208.509033
v 18.225063 75.000000 -190.485382
v 64.918434 75.000000 -17.797592
v 385.376862 0.000000 -395.154663
v 425.877869 0.000000 -245.372818
v 285.407440 0.000000 -207.371735
v 318.202637 0.000000 -86.359856
v 64.918434 0.000000 -17.797592
v 18.225063 0.000000 -190.485382
v 86.612671 0.000000 -208.509033
v 60.979332 0.000000 -307.608795
vn -0.5702 0.8069 0.1542
vn 0.1565 0.8008 0.5782
vn 0.5683 0.8083 -0.1540
vn 0.1479 0.8242 0.5467
vn 0.5509 0.8211 -0.1490
vn -0.1508 0.8156 -0.5586
vn -0.5687 0.8093 0.1471
vn -0.1463 0.8189 -0.5550
vn 0.0000 -1.0000 0.0000
vn -0.9653 0.0000 0.2610
vn -0.2611 0.0000 -0.9653
vn -0.9652 0.0000 0.2616
vn -0.2613 0.0000 -0.9653
vn 0.9653 0.0000 -0.2610
vn 0.2548 0.0000 0.9670
vn 0.9681 0.0000 -0.2504
vn 0.2606 0.0000 0.9655
usemtl None
s off
f 14//1 10//1 13//1
f 14//2 5//2 8//2 9//2 10//2
f 5//3 4//3 6//3 7//3 8//3
f 4//4 2//4 3//4 6//4
f 2//5 1//5 3//5
f 1//6 11//6 7//6 6//6 3//6
f 11//7 12//7 9//7 8//7 7//7
f 12//8 13//8 10//8 9//8
f 15//9 16//9 17//9 18//9 19//9 20//9 21//9 22//9
f 1//10 15//10 16//10 2//10
f 2//11 16//11 17//11 4//11
f 4//12 17//12 18//12 5//12
f 5//13 18//13 19//13 14//13
f 14//14 19//14 20//14 13//14
f 13//15 20//15 21//15 12//15
f 12//16 21//16 22//16 11//16
f 11//17 22//17 15//17 1//17
