# Blender v2.92.0 OBJ File: ''
# www.blender.org
mtllib BK39_500_017029_0032.mtl
o BK39_500_017029_0032
v 333.080139 75.000000 -131.961166
v 114.293831 75.000000 -18.405348
v 190.934052 125.119286 -137.750854
v 81.933029 124.842827 -80.737572
v 203.586823 144.961609 -175.818802
v 93.463669 75.000000 -167.692078
v 48.971634 75.000000 -144.237289
v 106.314682 145.000000 -363.169891
v 190.447769 75.000000 -406.843964
v 16.209576 75.000000 -316.391449
v 333.080139 0.000000 -131.961166
v 114.293831 0.000000 -18.405348
v 48.971634 0.000000 -144.237289
v 93.463669 0.000000 -167.692078
v 16.209576 0.000000 -316.391449
v 190.447769 0.000000 -406.843964
vn -0.2666 -0.8155 -0.5137
vn 0.2666 -0.8205 0.5057
vn 0.5037 -0.8233 -0.2617
vn -0.5273 -0.8044 0.2736
vn -0.8875 -0.0000 0.4607
vn -0.4607 -0.0000 -0.8875
vn 0.0000 -1.0000 0.0000
vn -0.4607 0.0000 -0.8876
vn 0.8875 0.0000 -0.4607
vn 0.4663 0.0000 0.8846
vn 0.8874 0.0000 -0.4610
vn 0.4607 0.0000 0.8875
vn -0.8876 0.0000 0.4606
usemtl None
s off
f 2//1 4//1 3//1 5//1 1//1
f 4//2 7//2 6//2 3//2
f 6//3 10//3 8//3 5//3 3//3
f 8//4 9//4 1//4 5//4
f 2//5 4//5 7//5
f 10//6 8//6 9//6
f 11//7 12//7 13//7 14//7 15//7 16//7
f 1//8 11//8 12//8 2//8
f 2//9 12//9 13//9 7//9
f 7//10 13//10 14//10 6//10
f 6//11 14//11 15//11 10//11
f 10//12 15//12 16//12 9//12
f 9//13 16//13 11//13 1//13
