# Blender v2.92.0 OBJ File: ''
# www.blender.org
mtllib BK39_500_018025_0017.mtl
o BK39_500_018025_0017
v 22.181732 75.000000 -184.451996
v 120.024696 75.000000 -28.998095
v 71.173210 145.000000 -106.599648
v 250.388855 75.000000 -111.948311
v 309.519043 75.000000 -18.710226
v 280.288818 144.526962 -238.924667
v 388.087006 144.211914 -68.156532
v 463.725525 75.000000 -115.765022
v 403.522003 75.000000 -211.563278
v 334.758606 75.000000 -381.147888
v 430.417999 75.000000 -229.151047
v 382.858490 143.712860 -304.732880
v 22.181732 0.000000 -184.451996
v 120.024696 0.000000 -28.998095
v 250.388855 0.000000 -111.948311
v 309.519043 0.000000 -18.710226
v 463.725525 0.000000 -115.765022
v 403.522003 0.000000 -211.563278
v 430.417999 0.000000 -229.151047
v 334.758606 0.000000 -381.147888
vn 0.5184 0.7906 -0.3258
vn 0.3338 0.7925 0.5104
vn -0.5048 0.8017 0.3201
vn -0.3257 -0.7949 -0.5119
vn 0.3225 -0.7958 0.5125
vn 0.8463 0.0001 -0.5327
vn -0.5327 0.0000 -0.8463
vn -0.8463 0.0001 0.5326
vn 0.0000 1.0000 0.0000
vn -0.8463 0.0000 0.5327
vn 0.5368 0.0000 0.8437
vn -0.8445 0.0000 0.5356
vn 0.5327 0.0000 0.8463
vn 0.8467 0.0000 -0.5321
vn 0.5473 0.0000 0.8369
vn 0.8463 0.0000 -0.5326
vn -0.5326 0.0000 -0.8464
usemtl None
s off
f 7//1 8//1 9//1 6//1
f 9//2 11//2 12//2 6//2
f 7//3 6//3 4//3 5//3
f 4//4 2//4 3//4 6//4
f 3//5 1//5 10//5 12//5 6//5
f 1//6 3//6 2//6
f 5//7 7//7 8//7
f 11//8 12//8 10//8
f 13//9 14//9 15//9 16//9 17//9 18//9 19//9 20//9
f 1//10 13//10 14//10 2//10
f 2//11 14//11 15//11 4//11
f 4//12 15//12 16//12 5//12
f 5//13 16//13 17//13 8//13
f 8//14 17//14 18//14 9//14
f 9//15 18//15 19//15 11//15
f 11//16 19//16 20//16 10//16
f 10//17 20//17 13//17 1//17
