# Blender v2.92.0 OBJ File: ''
# www.blender.org
mtllib BK39_500_014030_0011.mtl
o BK39_500_014030_0011
v 299.268951 75.000000 -418.124176
v 38.269852 75.000000 -357.036285
v 65.723480 75.000000 -239.737320
v 17.697620 75.000000 -228.494965
v 202.924744 145.000000 -254.022446
v 141.288742 107.989143 -199.872604
v 91.878372 108.001389 -188.284775
v 221.695236 144.999619 -173.820023
v 44.617363 75.000000 -113.479958
v 92.632874 75.000000 -124.763634
v 377.822418 75.000000 -82.468811
v 116.829155 75.000000 -21.382061
v 299.268951 0.000000 -418.124176
v 38.269852 0.000000 -357.036285
v 65.723480 0.000000 -239.737320
v 17.697620 0.000000 -228.494965
v 44.617363 0.000000 -113.479958
v 92.632874 0.000000 -124.763634
v 116.829155 0.000000 -21.382061
v 377.822418 0.000000 -82.468811
vn -0.4434 0.8903 0.1038
vn -0.1156 0.8618 -0.4940
vn 0.4514 -0.8860 -0.1057
vn -0.1075 -0.8828 -0.4574
vn -0.1032 0.8916 -0.4409
vn -0.1117 -0.8717 -0.4771
vn 0.4583 0.8823 -0.1073
vn 0.0000 1.0000 0.0000
vn -0.2279 0.0000 -0.9737
vn -0.9737 0.0000 0.2279
vn 0.2288 0.0000 0.9735
vn 0.2279 0.0000 0.9737
vn 0.9737 0.0000 -0.2279
usemtl None
s off
f 8//1 5//1 2//1 3//1 6//1 10//1 12//1
f 3//2 4//2 7//2 6//2
f 7//3 9//3 4//3
f 10//4 9//4 7//4 6//4
f 5//5 1//5 2//5
f 8//6 11//6 12//6
f 11//7 1//7 5//7 8//7
f 13//8 14//8 15//8 16//8 17//8 18//8 19//8 20//8
f 1//9 13//9 14//9 2//9
f 2//10 14//10 15//10 3//10
f 3//9 15//9 16//9 4//9
f 4//10 16//10 17//10 9//10
f 9//11 17//11 18//11 10//11
f 10//10 18//10 19//10 12//10
f 12//12 19//12 20//12 11//12
f 11//13 20//13 13//13 1//13
