# Blender v2.92.0 OBJ File: ''
# www.blender.org
mtllib BK39_500_013030_0051.mtl
o BK39_500_013030_0051
v 367.626770 75.000000 -287.488403
v 411.323608 75.000000 -93.535789
v 264.287537 75.000000 -60.409698
v 218.883362 75.000000 -261.931580
v 265.831482 75.000000 -53.557053
v 220.588989 75.000000 -254.361313
v 154.872589 144.998901 -157.239594
v 163.174408 145.000000 -120.386703
v 45.164059 75.000000 -222.793228
v 90.659485 75.000000 -20.797316
v 92.096947 75.000000 -14.415093
v 47.042538 75.000000 -214.452957
v 85.072395 75.000000 -45.603611
v 19.169300 75.000000 -208.173187
v 62.798561 75.000000 -14.520037
v 367.626770 0.000000 -287.488403
v 411.323608 0.000000 -93.535789
v 264.287537 0.000000 -60.409698
v 265.831482 0.000000 -53.557053
v 92.096947 0.000000 -14.415093
v 90.659485 0.000000 -20.797316
v 62.798561 0.000000 -14.520037
v 19.169300 0.000000 -208.173187
v 47.042538 0.000000 -214.452957
v 45.164059 0.000000 -222.793228
v 218.883362 0.000000 -261.931580
v 220.588989 0.000000 -254.361313
vn 0.1368 -0.7828 0.6070
vn -0.6182 -0.7736 0.1393
vn 0.0000 1.0000 0.0000
vn -0.1371 -0.7818 -0.6083
vn 0.5882 -0.7978 -0.1325
vn 0.0000 -1.0000 0.0000
vn -0.9755 0.0000 0.2198
vn -0.2198 0.0000 -0.9755
vn 0.9756 0.0000 -0.2197
vn 0.9755 0.0000 -0.2198
vn 0.2198 0.0000 0.9755
usemtl None
s off
f 7//1 9//1 4//1
f 4//2 6//2 3//2 5//2 8//2 7//2
f 3//3 2//3 1//3 6//3
f 5//4 11//4 8//4
f 11//5 10//5 13//5 12//5 9//5 7//5 8//5
f 10//6 15//6 13//6
f 15//6 14//6 12//6 13//6
f 16//6 17//6 18//6 19//6 20//6 21//6 22//6 23//6 24//6 25//6 26//6 27//6
f 1//7 16//7 17//7 2//7
f 2//8 17//8 18//8 3//8
f 3//7 18//7 19//7 5//7
f 5//8 19//8 20//8 11//8
f 11//9 20//9 21//9 10//9
f 10//8 21//8 22//8 15//8
f 15//10 22//10 23//10 14//10
f 14//11 23//11 24//11 12//11
f 12//9 24//9 25//9 9//9
f 9//11 25//11 26//11 4//11
f 4//7 26//7 27//7 6//7
f 6//11 27//11 16//11 1//11
