# Blender v2.92.0 OBJ File: ''
# www.blender.org
mtllib BK39_500_016027_0054_roof.mtl
o BK39_500_016027_0054_roof
v 323.447968 75.000000 -180.501129
v 298.002411 75.000000 -11.490696
v 255.593842 75.000000 -190.720520
v 266.738647 75.000000 -265.512390
v 223.348495 144.984482 -107.639702
v 216.631744 101.998894 -162.663742
v 227.955475 101.929947 -238.060303
v 210.954086 75.000000 -273.911194
v 199.667877 75.000000 -199.143433
v 111.545715 145.000000 -124.458618
v 14.659929 75.000000 -54.067287
v 40.119671 75.000000 -223.172699
v 323.447968 0.000000 -180.501129
v 298.002411 0.000000 -11.490696
v 14.659929 0.000000 -54.067287
v 40.119671 0.000000 -223.172699
v 199.667877 0.000000 -199.143433
v 210.954086 0.000000 -273.911194
v 266.738647 0.000000 -265.512390
v 255.593842 0.000000 -190.720520
vt 0.044290 0.810290
vt 0.900310 0.959680
vt 0.674770 0.622320
vt 0.337000 0.563300
vt 0.977180 0.366660
vt 0.121210 0.216940
vt 0.772190 0.330810
vt 0.654480 0.429250
vt 0.603230 0.301250
vt 0.637320 0.038908
vt 0.688690 0.164700
vt 0.805860 0.068378
vn -0.0951 0.7682 0.6330
vn 0.6149 0.7831 0.0926
vn 0.0934 0.7790 -0.6200
vn 0.6272 -0.7731 0.0944
vn 0.7635 -0.6354 0.1153
vn 0.6106 0.7867 0.0910
vn -0.0943 -0.7740 0.6261
usemtl None
s off
f 11/1/1 2/2/1 5/3/1 10/4/1
f 2/2/2 1/5/2 5/3/2
f 12/6/3 10/4/3 5/3/3 1/5/3 3/7/3 6/8/3 9/9/3
f 11/1/4 12/6/4 10/4/4
f 9/9/5 8/10/5 7/11/5 6/8/5
f 6/8/6 3/7/6 4/12/6 7/11/6
f 7/11/7 8/10/7 4/12/7
