# Blender v2.92.0 OBJ File: ''
# www.blender.org
mtllib BK39_500_015029_0004_roof.mtl
o BK39_500_015029_0004_roof
v 26.589283 75.000000 -255.762863
v 98.965744 75.000000 -17.882183
v 135.520905 111.866188 -83.624283
v 121.512924 112.088936 -130.787689
v 153.828247 145.000000 -190.522156
v 200.176834 75.000000 -48.660767
v 186.898331 75.000000 -94.444710
v 233.648468 75.000000 -108.668869
v 241.092377 75.000000 -83.914642
v 286.015411 130.686157 -209.037582
v 293.655121 130.798859 -184.187820
v 392.672150 75.000000 -130.005936
v 384.917694 75.000000 -154.693893
v 431.382843 75.000000 -168.831329
v 446.106750 75.000000 -120.368126
v 411.994873 144.923508 -268.955688
v 483.709015 112.288445 -188.606232
v 469.051666 112.283401 -236.824326
v 548.968628 75.000000 -151.644882
v 475.852020 75.000000 -392.055817
v 26.589283 0.000000 -255.762863
v 98.965744 0.000000 -17.882183
v 200.176834 0.000000 -48.660767
v 186.898331 0.000000 -94.444710
v 233.648468 0.000000 -108.668869
v 241.092377 0.000000 -83.914642
v 392.672150 0.000000 -130.005936
v 384.917694 0.000000 -154.693893
v 431.382843 0.000000 -168.831329
v 446.106750 0.000000 -120.368126
v 548.968628 0.000000 -151.644882
v 475.852020 0.000000 -392.055817
vt 0.172720 0.956380
vt 0.349350 0.881320
vt 0.236510 0.796040
vt 0.046404 0.376190
vt 0.268460 0.535310
vt 0.212060 0.681010
vt 0.326180 0.769650
vt 0.407760 0.734950
vt 0.499150 0.490150
vt 0.671760 0.622700
vt 0.752850 0.588220
vt 0.818590 0.422380
vt 0.719010 0.344010
vt 0.420750 0.795330
vt 0.512490 0.550760
vt 0.685290 0.682910
vt 0.778550 0.706420
vt 0.844170 0.539980
vt 0.958060 0.630130
vt 0.830460 0.043766
vn 0.1677 0.8172 0.5515
vn 0.5387 -0.8264 -0.1639
vn 0.5529 0.8176 -0.1604
vn 0.1652 0.8233 0.5430
vn -0.5515 0.8175 0.1658
vn 0.1655 0.8223 0.5444
vn -0.5540 -0.8141 0.1740
vn -0.5315 0.8315 0.1615
vn 0.1646 0.8246 0.5413
vn 0.5598 0.8110 -0.1703
vn -0.1672 0.8175 -0.5511
usemtl None
s off
f 2/1/1 6/2/1 3/3/1
f 2/1/2 1/4/2 5/5/2 4/6/2 3/3/2
f 3/3/3 6/2/3 7/7/3 4/6/3
f 7/7/4 8/8/4 10/9/4 13/10/4 14/11/4 18/12/4 16/13/4 5/5/4 4/6/4
f 8/8/5 9/14/5 11/15/5 10/9/5
f 9/14/6 12/16/6 11/15/6
f 11/15/7 10/9/7 13/10/7 12/16/7
f 14/11/8 15/17/8 17/18/8 18/12/8
f 15/17/9 19/19/9 17/18/9
f 19/19/10 20/20/10 16/13/10 18/12/10 17/18/10
f 1/4/11 5/5/11 16/13/11 20/20/11
