# Blender v2.92.0 OBJ File: ''
# www.blender.org
mtllib BK39_500_017026_0007.mtl
o BK39_500_017026_0007
v 118.732071 75.000000 -14.302999
v 55.391754 75.000000 -96.604942
v 75.300568 75.000000 -111.381531
v 11.785062 75.000000 -195.631973
v 127.402771 133.268082 -87.176102
v 148.810425 132.996887 -103.357788
v 151.139648 145.000000 -118.787834
v 101.746315 144.496872 -183.529587
v 104.389091 125.486473 -207.784698
v 238.956161 75.000000 -106.908600
v 139.619507 125.443520 -234.912262
v 169.975967 75.000000 -196.300537
v 206.274765 75.000000 -224.305176
v 147.853439 75.000000 -300.211243
v 118.732071 0.000000 -14.302999
v 55.391754 0.000000 -96.604942
v 75.300568 0.000000 -111.381531
v 11.785062 0.000000 -195.631973
v 147.853439 0.000000 -300.211243
v 206.274765 0.000000 -224.305176
v 169.975967 0.000000 -196.300537
v 238.956161 0.000000 -106.908600
vn 0.5947 -0.6609 -0.4577
vn -0.4536 -0.6690 -0.5889
vn -0.5915 -0.6646 0.4565
vn -0.4377 -0.6976 -0.5673
vn -0.5835 -0.6766 0.4491
vn 0.4469 -0.6798 0.5815
vn 0.5851 -0.6805 -0.4411
vn 0.4504 -0.6549 0.6069
vn 0.0000 -1.0000 0.0000
vn 0.7925 0.0000 -0.6099
vn 0.5960 0.0000 0.8030
vn 0.7985 0.0000 -0.6020
vn 0.6094 0.0000 0.7929
vn -0.7925 0.0000 0.6099
vn -0.6108 0.0000 -0.7918
vn -0.7917 0.0000 0.6109
vn -0.6102 0.0000 -0.7922
usemtl None
s off
f 2//1 5//1 1//1
f 1//2 5//2 6//2 7//2 10//2
f 10//3 7//3 8//3 9//3 12//3
f 12//4 9//4 11//4 13//4
f 13//5 11//5 14//5
f 14//6 11//6 9//6 8//6 4//6
f 4//7 8//7 7//7 6//7 3//7
f 3//8 6//8 5//8 2//8
f 15//9 16//9 17//9 18//9 19//9 20//9 21//9 22//9
f 1//10 15//10 16//10 2//10
f 2//11 16//11 17//11 3//11
f 3//12 17//12 18//12 4//12
f 4//13 18//13 19//13 14//13
f 14//14 19//14 20//14 13//14
f 13//15 20//15 21//15 12//15
f 12//16 21//16 22//16 10//16
f 10//17 22//17 15//17 1//17
