# Blender v2.92.0 OBJ File: ''
# www.blender.org
mtllib BK39_500_018031_0030_roof.mtl
o BK39_500_018031_0030_roof
v 166.416901 75.000000 -396.808044
v 15.754613 75.000000 -359.455994
v 109.538895 136.871384 -302.986572
v 193.750702 75.000000 -285.879547
v 325.607605 75.000000 -318.538422
v 137.112518 136.805466 -191.429993
v 264.141693 137.716217 -221.708618
v 344.681274 137.753357 -241.609024
v 257.382294 145.000000 -210.557037
v 149.520752 144.974899 -183.873184
v 141.686646 136.409439 -170.923218
v 358.678558 75.000000 -162.375732
v 156.026276 135.989563 -110.899841
v 363.998352 75.000000 -163.686996
v 362.393707 75.000000 -146.490982
v 338.274231 75.000000 -140.531082
v 235.251785 74.150772 -113.983765
v 100.569160 75.000000 -17.368155
v 249.014954 74.142883 -54.150925
v 353.276154 75.000000 -80.019165
v 166.416901 0.000000 -396.808044
v 15.754613 0.000000 -359.455994
v 100.569160 0.000000 -17.368155
v 353.276154 0.000000 -80.019165
v 338.274231 0.000000 -140.531082
v 362.393707 0.000000 -146.490982
v 358.678558 0.000000 -162.375732
v 363.998352 0.000000 -163.686996
v 325.607605 0.000000 -318.538422
v 193.750702 0.000000 -285.879547
vt 0.041242 0.135920
vt 0.286750 0.271670
vt 0.435650 0.046135
vt 0.263270 0.958250
vt 0.408450 0.733410
vt 0.370910 0.589130
vt 0.391420 0.558000
vt 0.358930 0.539830
vt 0.651870 0.869830
vt 0.615840 0.726000
vt 0.924810 0.807650
vt 0.885530 0.662180
vt 0.948670 0.647860
vt 0.673780 0.493850
vt 0.691470 0.467050
vt 0.938950 0.609670
vt 0.952880 0.606520
vt 0.902310 0.419210
vt 0.507200 0.312790
vt 0.852380 0.234280
vn -0.1503 0.7810 -0.6062
vn -0.6059 0.7813 0.1502
vn 0.1537 0.7835 0.6021
vn -0.6059 -0.7832 0.1393
vn -0.0077 1.0000 0.0019
vn 0.1500 0.7805 0.6069
vn -0.6076 -0.7814 0.1421
vn 0.1474 0.7879 0.5980
vn 0.1492 -0.7840 0.6025
vn -0.6050 -0.7822 0.1491
vn 0.2406 0.0225 0.9704
vn -0.9706 0.0000 0.2406
usemtl None
s off
f 2/1/1 3/2/1 1/3/1
f 2/1/2 18/4/2 13/5/2 11/6/2 10/7/2 6/8/2 3/2/2
f 18/4/3 19/9/3 13/5/3
f 13/5/4 11/6/4 17/10/4 19/9/4
f 19/9/5 20/11/5 16/12/5 17/10/5
f 16/12/6 15/13/6 9/14/6 10/7/6 11/6/6 17/10/6
f 9/14/7 7/15/7 12/16/7 15/13/7
f 12/16/8 14/17/8 8/18/8 7/15/8
f 6/8/9 4/19/9 5/20/9 8/18/9 7/15/9 9/14/9 10/7/9
f 1/3/10 4/19/10 6/8/10 3/2/10
f 18/4/11 19/9/11 20/11/11
f 14/17/12 8/18/12 5/20/12
