# Blender v2.92.0 OBJ File: ''
# www.blender.org
mtllib BK39_500_017031_0070.mtl
o BK39_500_017031_0070
v 334.958557 75.000000 -57.414169
v 192.207916 75.000000 -14.942091
v 174.052536 75.000000 -74.753548
v 131.355865 75.000000 -62.678783
v 240.005157 128.521088 -108.858391
v 222.555832 128.642365 -166.913391
v 107.135971 75.000000 -142.687119
v 51.017624 75.000000 -125.359505
v 193.570862 144.981430 -182.609482
v 190.499268 145.000000 -192.842667
v 88.232170 119.569023 -198.847687
v 147.140350 119.332741 -216.708023
v 16.503904 75.000000 -241.346970
v 258.808167 75.000000 -313.419067
v 334.958557 0.000000 -57.414169
v 192.207916 0.000000 -14.942091
v 174.052536 0.000000 -74.753548
v 131.355865 0.000000 -62.678783
v 107.135971 0.000000 -142.687119
v 51.017624 0.000000 -125.359505
v 16.503904 0.000000 -241.346970
v 258.808167 0.000000 -313.419067
vn -0.1636 -0.8190 -0.5500
vn 0.5657 -0.8065 -0.1717
vn -0.1576 -0.8151 -0.5574
vn 0.5704 -0.8030 -0.1727
vn -0.1774 -0.7991 -0.5745
vn 0.5928 -0.7858 -0.1764
vn 0.1679 -0.8083 0.5643
vn 0.5502 0.8188 -0.1637
vn 0.0000 -1.0000 0.0000
vn -0.2852 0.0000 -0.9585
vn 0.9569 0.0000 -0.2905
vn -0.2721 0.0000 -0.9623
vn 0.9571 0.0000 -0.2897
vn -0.2950 0.0000 -0.9555
vn 0.9585 0.0000 -0.2852
vn 0.2851 0.0000 0.9585
vn -0.9585 0.0000 0.2851
usemtl None
s off
f 2//1 5//1 1//1
f 3//2 6//2 5//2 2//2
f 4//3 9//3 6//3 3//3
f 7//4 12//4 10//4 9//4 4//4
f 8//5 11//5 12//5 7//5
f 13//6 11//6 8//6
f 14//7 10//7 12//7 11//7 13//7
f 1//8 14//8 10//8 9//8 6//8 5//8
f 15//9 16//9 17//9 18//9 19//9 20//9 21//9 22//9
f 1//10 15//10 16//10 2//10
f 2//11 16//11 17//11 3//11
f 3//12 17//12 18//12 4//12
f 4//13 18//13 19//13 7//13
f 7//14 19//14 20//14 8//14
f 8//15 20//15 21//15 13//15
f 13//16 21//16 22//16 14//16
f 14//17 22//17 15//17 1//17
