# Blender v2.92.0 OBJ File: ''
# www.blender.org
mtllib BK39_500_018031_0025_roof.mtl
o BK39_500_018031_0025_roof
v 232.821869 75.000000 -226.781174
v 395.848450 75.000000 -204.707428
v 467.939270 75.000000 -194.946350
v 395.799225 75.000000 -204.714096
v 232.765274 75.000000 -226.788849
v 132.942062 75.000000 -240.304871
v 129.320450 75.000000 -213.353882
v 42.539909 75.000000 -225.213974
v 369.338898 145.000000 -116.650734
v 207.600082 144.969803 -138.589645
v 107.225143 135.799057 -140.671112
v 194.667114 135.771530 -128.754883
v 211.684067 129.829391 -118.954033
v 443.941803 75.000000 -18.296440
v 22.215334 75.000000 -75.600365
v 272.379059 75.000000 -41.608276
v 133.520462 75.000000 -60.476295
v 198.543381 130.026825 -20.469213
v 268.372223 75.000000 -10.984097
v 129.357925 75.000000 -29.868496
v 232.821869 0.000000 -226.781174
v 395.848450 0.000000 -204.707428
v 395.799225 0.000000 -204.714096
v 467.939270 0.000000 -194.946350
v 443.941803 0.000000 -18.296440
v 272.379059 0.000000 -41.608276
v 268.372223 0.000000 -10.984097
v 129.357925 0.000000 -29.868496
v 133.520462 0.000000 -60.476295
v 22.215334 0.000000 -75.600365
v 42.539909 0.000000 -225.213974
v 129.320450 0.000000 -213.353882
v 132.942062 0.000000 -240.304871
v 232.765274 0.000000 -226.788849
vt 0.045337 0.693930
vt 0.218830 0.430480
vt 0.086816 0.088203
vt 0.272490 0.755160
vt 0.432010 0.518400
vt 0.555880 0.831550
vt 0.906000 0.925930
vt 0.753750 0.527730
vt 0.423670 0.438910
vt 0.397280 0.478730
vt 0.954980 0.210740
vt 0.271310 0.027106
vt 0.475030 0.081827
vt 0.475150 0.081858
vt 0.807850 0.171220
vt 0.807750 0.171200
vt 0.263920 0.136220
vt 0.264000 0.879070
vt 0.405190 0.917130
vt 0.547700 0.955530
vn -0.6216 0.7788 -0.0844
vn -0.0842 0.7806 0.6194
vn -0.6205 -0.7797 -0.0843
vn -0.0819 -0.7920 0.6050
vn -0.6188 0.7811 -0.0832
vn -0.0853 -0.7768 0.6239
vn -0.6133 0.7854 -0.0834
vn 0.6103 0.7882 0.0798
vn -0.1346 -0.0000 0.9909
usemtl None
s off
f 15/1/1 11/2/1 8/3/1
f 15/1/2 17/4/2 13/5/2 16/6/2 14/7/2 9/8/2 10/9/2 12/10/2 11/2/2
f 9/8/3 3/11/3 14/7/3
f 6/12/4 5/13/4 1/14/4 2/15/4 4/16/4 3/11/4 9/8/4 10/9/4
f 7/17/5 12/10/5 10/9/5 6/12/5
f 8/3/6 7/17/6 12/10/6 11/2/6
f 17/4/7 20/18/7 18/19/7 13/5/7
f 18/19/8 19/20/8 16/6/8 13/5/8
f 19/20/9 18/19/9 20/18/9
