# Blender v2.92.0 OBJ File: ''
# www.blender.org
mtllib BK39_500_018030_0021.mtl
o BK39_500_018030_0021
v 52.336174 75.000000 -395.558411
v 391.752411 75.000000 -316.761810
v 264.372589 125.990501 -275.493256
v 313.499512 126.264908 -263.707062
v 110.648026 131.199402 -303.944275
v 221.236618 131.490616 -277.866211
v 234.958786 144.992004 -255.923309
v 312.925690 75.000000 -197.256760
v 361.251709 75.000000 -185.312073
v 18.769413 75.000000 -250.847961
v 129.993225 75.000000 -224.228790
v 214.540909 145.000000 -168.088669
v 178.166748 122.500618 -146.582901
v 280.888916 75.000000 -59.368530
v 221.718918 75.000000 -73.150047
v 88.839462 75.000000 -47.288410
v 209.271271 75.000000 -19.350403
v 151.750015 122.552467 -32.693508
v 52.336174 0.000000 -395.558411
v 391.752411 0.000000 -316.761810
v 361.251709 0.000000 -185.312073
v 312.925690 0.000000 -197.256760
v 280.888916 0.000000 -59.368530
v 221.718918 0.000000 -73.150047
v 209.271271 0.000000 -19.350403
v 88.839462 0.000000 -47.288410
v 129.993225 0.000000 -224.228790
v 18.769413 0.000000 -250.847961
vn -0.5775 0.8053 -0.1343
vn 0.6111 0.7788 0.1414
vn 0.1385 -0.7921 -0.5945
vn -0.6012 -0.7868 -0.1397
vn 0.1491 -0.7835 -0.6032
vn -0.6076 -0.7816 -0.1410
vn -0.1344 -0.8043 0.5789
vn -0.5718 0.8096 -0.1326
vn 0.1420 -0.7925 -0.5931
vn -0.2260 -0.0000 0.9741
vn 0.0000 -1.0000 0.0000
vn -0.2261 0.0000 0.9741
vn -0.9741 0.0000 -0.2260
vn 0.2399 0.0000 -0.9708
vn -0.9741 0.0000 -0.2263
vn 0.2268 0.0000 -0.9739
vn -0.9743 0.0000 -0.2254
vn 0.2260 0.0000 -0.9741
vn 0.9740 0.0000 0.2265
vn 0.2328 0.0000 -0.9725
vn 0.9741 0.0000 0.2260
usemtl None
s off
f 16//1 18//1 13//1 12//1 7//1 6//1 11//1
f 18//2 17//2 15//2 13//2
f 15//3 13//3 12//3 14//3
f 14//4 12//4 7//4 3//4 8//4
f 8//5 3//5 4//5 9//5
f 9//6 4//6 2//6
f 2//7 4//7 3//7 7//7 6//7 5//7 1//7
f 10//8 5//8 1//8
f 10//9 5//9 6//9 11//9
f 17//10 18//10 16//10
f 19//11 20//11 21//11 22//11 23//11 24//11 25//11 26//11 27//11 28//11
f 1//12 19//12 20//12 2//12
f 2//13 20//13 21//13 9//13
f 9//14 21//14 22//14 8//14
f 8//15 22//15 23//15 14//15
f 14//16 23//16 24//16 15//16
f 15//17 24//17 25//17 17//17
f 17//18 25//18 26//18 16//18
f 16//19 26//19 27//19 11//19
f 11//20 27//20 28//20 10//20
f 10//21 28//21 19//21 1//21
