# Blender v2.92.0 OBJ File: ''
# www.blender.org
mtllib BK39_500_016031_0058.mtl
o BK39_500_016031_0058
v 199.288132 75.000000 -323.792938
v 308.355347 75.000000 -348.925446
v 18.679939 75.000000 -245.227905
v 150.050507 75.000000 -275.498260
v 215.773682 75.000000 -252.250168
v 295.821625 75.000023 -270.874207
v 158.794800 75.000000 -238.993408
v 99.958244 122.083923 -195.922638
v 108.641914 122.194130 -158.995163
v 219.254364 145.000000 -151.711151
v 147.924881 144.953262 -135.183197
v 348.703979 75.000000 -173.825439
v 320.777527 75.000000 -167.382874
v 71.569496 75.000000 -15.994581
v 342.222595 75.000000 -78.450996
v 199.288132 0.000000 -323.792938
v 308.355347 0.000000 -348.925446
v 348.703979 0.000000 -173.825439
v 320.777527 0.000000 -167.382874
v 342.222595 0.000000 -78.450996
v 71.569496 0.000000 -15.994581
v 18.679939 0.000000 -245.227905
v 150.050507 0.000000 -275.498260
v 158.794800 0.000000 -238.993408
v 215.773682 0.000000 -252.250168
vn -0.5541 0.8226 0.1278
vn 0.1300 -0.8153 0.5642
vn -0.5578 -0.8192 0.1336
vn -0.1311 0.8157 -0.5634
vn 0.5487 0.8255 -0.1323
vn -0.0000 -1.0000 0.0000
vn -0.1298 -0.8166 -0.5624
vn 0.2245 0.0000 0.9745
vn -0.9745 0.0000 0.2245
vn -0.2248 0.0000 -0.9744
vn -0.9721 0.0000 0.2344
vn -0.2249 0.0000 -0.9744
vn 0.9744 0.0000 -0.2248
vn -0.9725 0.0000 0.2329
vn 0.2266 0.0000 0.9740
vn 0.9745 0.0000 -0.2245
usemtl None
s off
f 14//1 11//1 9//1 8//1 3//1
f 3//2 4//2 8//2
f 8//3 4//3 7//3 9//3
f 9//4 11//4 10//4 6//4 5//4 7//4
f 10//5 15//5 13//5 6//5
f 6//6 5//6 1//6 2//6 12//6 13//6
f 14//7 11//7 10//7 15//7
f 16//6 17//6 18//6 19//6 20//6 21//6 22//6 23//6 24//6 25//6
f 1//8 16//8 17//8 2//8
f 2//9 17//9 18//9 12//9
f 12//10 18//10 19//10 13//10
f 13//11 19//11 20//11 15//11
f 15//12 20//12 21//12 14//12
f 14//13 21//13 22//13 3//13
f 3//8 22//8 23//8 4//8
f 4//14 23//14 24//14 7//14
f 7//15 24//15 25//15 5//15
f 5//16 25//16 16//16 1//16
