# Blender v2.92.0 OBJ File: ''
# www.blender.org
mtllib BK39_500_013030_0087.mtl
o BK39_500_013030_0087
v 321.590454 75.000000 -55.929974
v 239.401962 75.000000 -528.646667
v 235.886337 144.990768 -41.028965
v 153.687195 145.000000 -513.739868
v 145.141434 75.000000 -25.241947
v 118.707863 75.000000 -177.233353
v 92.466873 75.000000 -328.117432
v 62.929417 75.000000 -497.955994
v 41.984222 75.000000 -163.890198
v 15.743682 75.000000 -314.774353
v 321.590454 0.000000 -55.929974
v 239.401962 0.000000 -528.646667
v 62.929417 0.000000 -497.955994
v 92.466873 0.000000 -328.117432
v 15.743682 0.000000 -314.774353
v 41.984222 0.000000 -163.890198
v 118.707863 0.000000 -177.233353
v 145.141434 0.000000 -25.241947
vn 0.5961 -0.7962 -0.1037
vn 0.0000 1.0000 0.0000
vn -0.6176 -0.7791 0.1074
vn 0.1713 0.0000 0.9852
vn -0.1713 -0.0001 -0.9852
vn 0.9852 0.0000 -0.1713
vn -0.1713 0.0000 -0.9852
vn -0.9852 0.0000 0.1713
usemtl None
s off
f 4//1 3//1 5//1 6//1 7//1 8//1
f 7//2 10//2 9//2 6//2
f 3//3 4//3 2//3 1//3
f 2//4 4//4 8//4
f 5//5 3//5 1//5
f 11//2 12//2 13//2 14//2 15//2 16//2 17//2 18//2
f 1//6 11//6 12//6 2//6
f 2//7 12//7 13//7 8//7
f 8//8 13//8 14//8 7//8
f 7//7 14//7 15//7 10//7
f 10//8 15//8 16//8 9//8
f 9//4 16//4 17//4 6//4
f 6//8 17//8 18//8 5//8
f 5//4 18//4 11//4 1//4
