# Blender v2.92.0 OBJ File: ''
# www.blender.org
mtllib BK39_500_014029_0057.mtl
o BK39_500_014029_0057
v 368.438324 75.000000 -51.176765
v 252.122589 75.000000 -21.553423
v 246.197540 75.000000 -45.472980
v 139.725906 75.000000 -18.212404
v 298.269257 110.863045 -93.961838
v 292.590698 110.800896 -116.437897
v 341.955597 75.000000 -154.138199
v 415.825409 75.000000 -174.013184
v 113.372070 75.000000 -122.711235
v 59.460175 75.000000 -109.548454
v 226.036652 145.000000 -155.840622
v 217.256165 144.948822 -190.306335
v 232.813995 131.128006 -218.465256
v 305.601410 130.815292 -237.527023
v 171.712097 122.619232 -217.823151
v 119.114380 122.463608 -204.716934
v 293.616394 130.637970 -285.727570
v 20.442486 75.000000 -262.732391
v 187.231506 75.000000 -305.156799
v 175.034286 75.000000 -355.574097
v 357.698120 75.000000 -402.100830
v 368.438324 0.000000 -51.176765
v 252.122589 0.000000 -21.553423
v 246.197540 0.000000 -45.472980
v 139.725906 0.000000 -18.212404
v 113.372070 0.000000 -122.711235
v 59.460175 0.000000 -109.548454
v 20.442486 0.000000 -262.732391
v 187.231506 0.000000 -305.156799
v 175.034286 0.000000 -355.574097
v 357.698120 0.000000 -402.100830
v 415.825409 0.000000 -174.013184
v 341.955597 0.000000 -154.138199
vn 0.1285 0.8537 0.5047
vn 0.5138 0.8477 -0.1322
vn 0.1370 0.8498 0.5091
vn 0.5061 0.8527 -0.1290
vn -0.1229 0.8673 -0.4823
vn 0.4768 -0.8714 -0.1154
vn -0.1251 0.8616 -0.4920
vn -0.4886 0.8636 0.1244
vn 0.1229 0.8552 0.5036
vn -0.4967 0.8588 0.1253
vn 0.1315 0.8478 0.5137
vn -0.4848 0.8663 0.1201
vn 0.0000 -1.0000 0.0000
vn -0.2468 0.0000 -0.9691
vn 0.9707 0.0000 -0.2404
vn -0.2480 0.0000 -0.9688
vn 0.9696 0.0000 -0.2445
vn -0.2372 0.0000 -0.9715
vn 0.9691 0.0000 -0.2468
vn 0.2465 0.0000 0.9691
vn 0.9720 0.0000 -0.2351
vn 0.2468 0.0000 0.9691
vn -0.9690 0.0000 0.2470
vn -0.2598 0.0000 -0.9657
vn -0.9685 0.0000 0.2491
usemtl None
s off
f 2//1 1//1 5//1
f 1//2 7//2 13//2 12//2 11//2 6//2 5//2
f 7//3 8//3 14//3 13//3
f 8//4 21//4 17//4 14//4
f 20//5 17//5 21//5
f 19//6 20//6 17//6 14//6
f 18//7 16//7 15//7 12//7 13//7 14//7 19//7
f 18//8 10//8 16//8
f 10//9 9//9 15//9 16//9
f 9//10 4//10 11//10 12//10 15//10
f 4//11 3//11 6//11 11//11
f 3//12 2//12 5//12 6//12
f 22//13 23//13 24//13 25//13 26//13 27//13 28//13 29//13 30//13 31//13 32//13 33//13
f 1//14 22//14 23//14 2//14
f 2//15 23//15 24//15 3//15
f 3//16 24//16 25//16 4//16
f 4//17 25//17 26//17 9//17
f 9//18 26//18 27//18 10//18
f 10//19 27//19 28//19 18//19
f 18//20 28//20 29//20 19//20
f 19//21 29//21 30//21 20//21
f 20//22 30//22 31//22 21//22
f 21//23 31//23 32//23 8//23
f 8//24 32//24 33//24 7//24
f 7//25 33//25 22//25 1//25
