# Blender v2.92.0 OBJ File: ''
# www.blender.org
mtllib BK39_500_014032_0030_roof.mtl
o BK39_500_014032_0030_roof
v 14.035867 75.000000 -196.048019
v 113.414848 75.000000 -325.926056
v 129.168228 145.000000 -209.882538
v 77.439293 75.000000 -83.414528
v 108.382713 75.000000 -123.867630
v 180.620071 144.995132 -170.512024
v 155.432999 121.397163 -92.926292
v 185.605804 121.406410 -132.353531
v 294.805511 75.000000 -187.101990
v 164.448135 75.000000 -16.837837
v 14.035867 0.000000 -196.048019
v 113.414848 0.000000 -325.926056
v 294.805511 0.000000 -187.101990
v 164.448135 0.000000 -16.837837
v 77.439293 0.000000 -83.414528
v 108.382713 0.000000 -123.867630
vt 0.368230 0.047000
vt 0.045571 0.426760
vt 0.419380 0.386310
vt 0.957160 0.452920
vt 0.586430 0.501430
vt 0.351890 0.637810
vt 0.602620 0.613000
vt 0.504650 0.728290
vt 0.251430 0.756100
vt 0.533920 0.950770
vn -0.5119 0.7645 -0.3917
vn -0.3930 -0.7628 0.5135
vn -0.3975 0.7564 0.5195
vn 0.5058 -0.7710 0.3869
vn -0.3920 0.7641 0.5124
vn 0.5207 0.7549 0.3987
usemtl None
s off
f 2/1/1 1/2/1 3/3/1
f 3/3/2 2/1/2 9/4/2 6/5/2
f 1/2/3 5/6/3 8/7/3 6/5/3 3/3/3
f 8/7/4 7/8/4 4/9/4 5/6/4
f 4/9/5 10/10/5 7/8/5
f 10/10/6 9/4/6 6/5/6 8/7/6 7/8/6
