# Blender v2.92.0 OBJ File: ''
# www.blender.org
mtllib BK39_500_014029_0056_roof.mtl
o BK39_500_014029_0056_roof
v 21.028728 75.000000 -285.543365
v 58.344173 75.000000 -133.181320
v 145.087265 75.000000 -20.222607
v 114.224480 75.000000 -147.138046
v 116.805008 123.129135 -226.981308
v 172.905945 123.049133 -240.861511
v 175.008896 75.000000 -378.698395
v 187.827698 75.000000 -326.406525
v 216.611145 144.995926 -214.165024
v 231.399963 145.000000 -153.378159
v 232.865005 130.978516 -242.036636
v 304.038971 131.025635 -259.392853
v 292.225616 131.029526 -307.611572
v 365.704895 75.000000 -74.253021
v 339.996155 75.000000 -179.876572
v 358.548126 75.000000 -423.648102
v 413.846985 75.000000 -197.808563
v 21.028728 0.000000 -285.543365
v 58.344173 0.000000 -133.181320
v 114.224480 0.000000 -147.138046
v 145.087265 0.000000 -20.222607
v 365.704895 0.000000 -74.253021
v 339.996155 0.000000 -179.876572
v 413.846985 0.000000 -197.808563
v 358.548126 0.000000 -423.648102
v 175.008896 0.000000 -378.698395
v 187.827698 0.000000 -326.406525
vt 0.048231 0.356880
vt 0.133820 0.700040
vt 0.267900 0.488780
vt 0.261980 0.668610
vt 0.396570 0.457520
vt 0.332770 0.954450
vt 0.530730 0.654550
vt 0.496810 0.517650
vt 0.838770 0.832760
vt 0.534090 0.454870
vt 0.779810 0.594870
vt 0.949190 0.554490
vt 0.697340 0.415780
vt 0.822360 0.045838
vt 0.670240 0.307180
vt 0.401400 0.147080
vt 0.430800 0.264850
vn -0.5049 0.8543 0.1237
vn 0.1286 0.8475 0.5150
vn -0.5042 0.8549 0.1226
vn 0.1287 0.8410 0.5255
vn -0.5157 -0.8475 0.1255
vn 0.1291 0.8372 0.5315
vn 0.5052 0.8541 -0.1237
vn -0.1190 0.8658 -0.4861
vn -0.4861 0.8657 0.1192
vn 0.1230 -0.8559 0.5022
usemtl None
s off
f 1/1/1 2/2/1 5/3/1
f 2/2/2 4/4/2 6/5/2 5/3/2
f 4/4/3 3/6/3 10/7/3 9/8/3 6/5/3
f 3/6/4 14/9/4 10/7/4
f 10/7/5 9/8/5 11/10/5 15/11/5 14/9/5
f 15/11/6 17/12/6 12/13/6 11/10/6
f 17/12/7 16/14/7 13/15/7 12/13/7
f 7/16/8 13/15/8 16/14/8
f 7/16/9 8/17/9 12/13/9 13/15/9
f 1/1/10 8/17/10 12/13/10 11/10/10 9/8/10 6/5/10 5/3/10
