# Blender v2.92.0 OBJ File: ''
# www.blender.org
mtllib BK39_500_018031_0065_roof.mtl
o BK39_500_018031_0065_roof
v 136.983673 75.000000 -323.265839
v 256.900116 75.000000 -353.887787
v 264.132263 95.305923 -328.521088
v 288.390930 75.000000 -335.446533
v 230.291275 133.748795 -268.359283
v 16.450680 75.000000 -182.933838
v 163.020996 75.000000 -220.097656
v 33.553932 128.944336 -116.374290
v 121.050812 128.575699 -139.044159
v 256.281708 133.922211 -166.306168
v 146.760208 145.000000 -123.977348
v 246.512665 144.936676 -149.353439
v 295.187225 112.873405 -119.916344
v 50.868229 75.000000 -49.031708
v 70.795700 75.000000 -54.306728
v 303.460663 112.920372 -87.471123
v 80.492691 75.000000 -15.677034
v 260.383179 75.000000 -61.588566
v 268.145386 75.000000 -30.920467
v 360.511658 75.000000 -54.661858
v 136.983673 0.000000 -323.265839
v 256.900116 0.000000 -353.887787
v 288.390930 0.000000 -335.446533
v 360.511658 0.000000 -54.661858
v 268.145386 0.000000 -30.920467
v 260.383179 0.000000 -61.588566
v 80.492691 0.000000 -15.677034
v 70.795700 0.000000 -54.306728
v 50.868229 0.000000 -49.031708
v 16.450680 0.000000 -182.933838
v 163.020996 0.000000 -220.097656
vt 0.715050 0.916660
vt 0.961360 0.852660
vt 0.809230 0.764230
vt 0.694360 0.833990
vt 0.787170 0.676780
vt 0.769040 0.095831
vt 0.704350 0.114500
vt 0.614110 0.276660
vt 0.683420 0.551740
vt 0.657370 0.597430
vt 0.685070 0.046125
vt 0.365290 0.128660
vt 0.434720 0.406740
vt 0.043868 0.506920
vt 0.089477 0.686320
vt 0.322800 0.625220
vt 0.391360 0.665830
vt 0.135650 0.867840
vt 0.188790 0.853620
vt 0.214650 0.957740
vn 0.1584 0.7715 0.6162
vn -0.6001 0.7854 0.1519
vn 0.6074 0.7789 -0.1560
vn 0.3760 0.6681 -0.6420
vn -0.1510 0.7923 -0.5912
vn -0.5880 0.7952 0.1484
vn -0.1518 0.7866 -0.5985
vn 0.1569 0.7901 0.5926
vn -0.5928 0.7915 0.1488
vn 0.1534 0.7845 0.6009
vn -0.9685 -0.0001 0.2489
usemtl None
s off
f 19/1/1 20/2/1 16/3/1
f 18/4/2 19/1/2 16/3/2 13/5/2
f 20/2/3 4/6/3 3/7/3 5/8/3 10/9/3 12/10/3 13/5/3 16/3/3
f 2/11/4 3/7/4 4/6/4
f 1/12/5 5/8/5 3/7/5 2/11/5
f 1/12/6 7/13/6 10/9/6 5/8/6
f 6/14/7 8/15/7 9/16/7 11/17/7 12/10/7 10/9/7 7/13/7
f 8/15/8 14/18/8 15/19/8 9/16/8
f 15/19/9 17/20/9 11/17/9 9/16/9
f 17/20/10 18/4/10 13/5/10 12/10/10 11/17/10
f 14/18/11 8/15/11 6/14/11
