# Blender v2.92.0 OBJ File: ''
# www.blender.org
mtllib BK39_500_017027_0027_roof.mtl
o BK39_500_017027_0027_roof
v 165.415634 75.000000 -144.276443
v 257.194458 75.000000 -21.969824
v 112.053589 75.000000 -217.351944
v 20.944405 75.000000 -338.768097
v 238.175720 145.147964 -101.144791
v 92.806290 144.968552 -295.534332
v 139.977692 75.000000 -238.304062
v 194.289215 75.000000 -165.926132
v 328.018463 75.000000 -266.197632
v 273.673981 75.000000 -338.619507
v 397.606049 144.851501 -221.100067
v 296.007355 75.000000 -355.376770
v 251.520248 145.000000 -414.662720
v 442.201874 75.000000 -161.627991
v 204.850708 75.000000 -476.856110
v 350.875183 75.000000 -283.335846
v 165.415634 0.000000 -144.276443
v 257.194458 0.000000 -21.969824
v 442.201874 0.000000 -161.627991
v 350.875183 0.000000 -283.335846
v 328.018463 0.000000 -266.197632
v 273.673981 0.000000 -338.619507
v 296.007355 0.000000 -355.376770
v 204.850708 0.000000 -476.856110
v 20.944405 0.000000 -338.768097
v 112.053589 0.000000 -217.351944
v 139.977692 0.000000 -238.304062
v 194.289215 0.000000 -165.926132
vt 0.858760 0.557800
vt 0.514420 0.797710
vt 0.357270 0.711450
vt 0.419630 0.668150
vt 0.708460 0.467600
vt 0.757830 0.433330
vt 0.555500 0.956060
vt 0.955080 0.676740
vt 0.591090 0.322760
vt 0.639320 0.289250
vt 0.543240 0.170670
vt 0.200450 0.408930
vt 0.242020 0.565300
vt 0.302330 0.523390
vt 0.045236 0.322460
vt 0.442440 0.046288
vn 0.4007 -0.7442 0.5344
vn 0.4126 0.7287 0.5465
vn -0.7265 0.4183 0.5452
vn 0.4121 0.7270 0.5492
vn 0.4017 -0.7432 0.5350
vn -0.7292 0.4108 0.5472
vn 0.0000 1.0000 0.0000
vn -0.7999 0.0004 0.6002
vn -0.7999 0.0000 0.6002
usemtl None
s off
f 11/1/1 5/2/1 1/3/1 8/4/1 9/5/1 16/6/1
f 2/7/2 14/8/2 11/1/2 5/2/2
f 2/7/3 5/2/3 1/3/3
f 10/9/4 12/10/4 13/11/4 6/12/4 3/13/4 7/14/4
f 13/11/5 6/12/5 4/15/5 15/16/5
f 3/13/6 6/12/6 4/15/6
f 9/5/7 10/9/7 7/14/7 8/4/7
f 14/8/8 11/1/8 16/6/8
f 12/10/9 13/11/9 15/16/9
