# Blender v2.92.0 OBJ File: ''
# www.blender.org
mtllib BK39_500_012032_0053_roof.mtl
o BK39_500_012032_0053_roof
v 281.241669 75.000000 -15.549239
v 384.116730 75.000000 -121.895889
v 279.875824 138.552032 -117.443741
v 183.354706 75.000000 -110.107887
v 138.489365 75.000000 -64.910919
v 179.401779 138.586029 -214.555313
v 168.481949 145.000000 -214.492172
v 135.169556 144.739410 -180.489151
v 166.643509 75.000000 -332.213043
v 19.477730 75.000000 -180.028931
v 281.241669 0.000000 -15.549239
v 384.116730 0.000000 -121.895889
v 166.643509 0.000000 -332.213043
v 19.477730 0.000000 -180.028931
v 138.489365 0.000000 -64.910919
v 183.354706 0.000000 -110.107887
vt 0.699610 0.955190
vt 0.696210 0.661550
vt 0.955510 0.648720
vt 0.456110 0.682690
vt 0.446270 0.381680
vt 0.414540 0.042614
vt 0.419110 0.381870
vt 0.048452 0.481180
vt 0.336240 0.479860
vt 0.344500 0.812940
vn -0.4763 -0.7489 -0.4607
vn 0.4586 -0.7512 -0.4747
vn 0.4471 0.7657 -0.4623
vn -0.4629 0.7650 -0.4477
vn -0.4544 0.7569 0.4698
vn 0.4540 0.7686 0.4507
usemtl None
s off
f 1/1/1 3/2/1 2/3/1
f 1/1/2 4/4/2 6/5/2 3/2/2
f 3/2/3 2/3/3 9/6/3 7/7/3 6/5/3
f 9/6/4 10/8/4 8/9/4 7/7/4
f 10/8/5 5/10/5 8/9/5
f 5/10/6 4/4/6 6/5/6 7/7/6 8/9/6
