# Blender v2.92.0 OBJ File: ''
# www.blender.org
mtllib BK39_500_016027_0006.mtl
o BK39_500_016027_0006
v 475.716492 75.000000 -56.906395
v 379.407745 75.000000 -463.113525
v 387.210876 124.383385 -113.347359
v 352.395142 124.570168 -258.993347
v 326.768921 138.946762 -274.835358
v 313.711334 139.034683 -329.345062
v 303.389069 144.800079 -335.889923
v 325.394928 75.000000 -21.236567
v 290.461456 75.000000 -166.053040
v 250.369476 75.000000 -155.831482
v 237.209747 75.000000 -210.165680
v 196.007599 145.000000 -310.088806
v 137.422272 114.006508 -344.662018
v 113.941528 75.000000 -180.186920
v 91.025635 75.000000 -275.034515
v 50.892231 75.000000 -266.583588
v 37.619701 113.143578 -322.322296
v 24.245880 75.000000 -378.811127
v 475.716492 0.000000 -56.906395
v 379.407745 0.000000 -463.113525
v 24.245880 0.000000 -378.811127
v 50.892231 0.000000 -266.583588
v 91.025635 0.000000 -275.034515
v 113.941528 0.000000 -180.186920
v 237.209747 0.000000 -210.165680
v 250.369476 0.000000 -155.831482
v 290.461456 0.000000 -166.053040
v 325.394928 0.000000 -21.236567
vn 0.1142 0.8323 0.5424
vn 0.1268 -0.8357 0.5343
vn 0.5447 0.8286 -0.1291
vn -0.1266 -0.8364 -0.5333
vn 0.5029 -0.8558 -0.1213
vn -0.1365 -0.8334 -0.5355
vn 0.5153 -0.8479 -0.1248
vn 0.1295 0.8364 0.5325
vn -0.5209 0.8443 0.1259
vn 0.9730 0.0010 -0.2310
vn 0.0000 1.0000 0.0000
vn 0.9730 0.0000 -0.2307
vn -0.2309 0.0000 -0.9730
vn -0.9730 0.0000 0.2310
vn 0.2061 0.0000 0.9785
vn -0.9720 0.0000 0.2349
vn 0.2363 0.0000 0.9717
vn -0.9719 0.0000 0.2354
vn 0.2470 0.0000 0.9690
vn -0.9721 0.0000 0.2345
vn 0.2309 0.0000 0.9730
usemtl None
s off
f 16//1 15//1 13//1 17//1
f 17//2 18//2 2//2 7//2 12//2 13//2
f 7//3 6//3 5//3 4//3 3//3 1//3 2//3
f 8//4 3//4 1//4
f 8//5 9//5 4//5 3//5
f 9//6 10//6 5//6 4//6
f 10//7 11//7 6//7 5//7
f 14//8 11//8 6//8 7//8 12//8
f 15//9 14//9 12//9 13//9
f 18//10 17//10 16//10
f 19//11 20//11 21//11 22//11 23//11 24//11 25//11 26//11 27//11 28//11
f 1//12 19//12 20//12 2//12
f 2//13 20//13 21//13 18//13
f 18//14 21//14 22//14 16//14
f 16//15 22//15 23//15 15//15
f 15//16 23//16 24//16 14//16
f 14//17 24//17 25//17 11//17
f 11//18 25//18 26//18 10//18
f 10//19 26//19 27//19 9//19
f 9//20 27//20 28//20 8//20
f 8//21 28//21 19//21 1//21
