# Blender v2.92.0 OBJ File: ''
# www.blender.org
mtllib BK39_500_016032_0042.mtl
o BK39_500_016032_0042
v 124.890274 75.000000 -15.750051
v 358.225189 75.000000 -72.714928
v 281.576141 118.481232 -119.114914
v 245.570038 118.665871 -110.601112
v 199.439194 145.000000 -138.774048
v 292.328735 75.000000 -185.254639
v 328.724670 75.000000 -193.587280
v 46.540363 75.000000 -142.265884
v 91.461754 75.000000 -152.952454
v 184.097046 144.971832 -201.571014
v 138.093796 118.719147 -229.493454
v 93.090096 118.622894 -218.643204
v 258.319611 75.000000 -324.077850
v 16.582766 75.000000 -265.024536
v 124.890274 0.000000 -15.750051
v 358.225189 0.000000 -72.714928
v 328.724670 0.000000 -193.587280
v 292.328735 0.000000 -185.254639
v 258.319611 0.000000 -324.077850
v 16.582766 0.000000 -265.024536
v 46.540363 0.000000 -142.265884
v 91.461754 0.000000 -152.952454
vn -0.1343 -0.8241 -0.5503
vn 0.5491 0.8249 -0.1340
vn -0.1280 0.8190 -0.5593
vn 0.5522 0.8226 -0.1353
vn -0.1348 0.8230 -0.5518
vn -0.5511 0.8235 0.1345
vn 0.1310 0.8244 0.5507
vn -0.5514 0.8233 0.1343
vn 0.0000 1.0000 0.0000
vn 0.2372 0.0000 0.9715
vn 0.9715 0.0000 -0.2371
vn -0.2232 0.0000 -0.9748
vn 0.9713 0.0000 -0.2379
vn -0.2373 0.0000 -0.9714
vn -0.9715 0.0000 0.2371
vn 0.2314 0.0000 0.9729
vn -0.9716 0.0000 0.2367
usemtl None
s off
f 1//1 5//1 4//1 3//1 2//1
f 2//2 7//2 3//2
f 7//3 6//3 4//3 3//3
f 6//4 13//4 10//4 5//4 4//4
f 13//5 14//5 12//5 11//5 10//5
f 14//6 8//6 12//6
f 8//7 9//7 11//7 12//7
f 9//8 1//8 5//8 10//8 11//8
f 15//9 16//9 17//9 18//9 19//9 20//9 21//9 22//9
f 1//10 15//10 16//10 2//10
f 2//11 16//11 17//11 7//11
f 7//12 17//12 18//12 6//12
f 6//13 18//13 19//13 13//13
f 13//14 19//14 20//14 14//14
f 14//15 20//15 21//15 8//15
f 8//16 21//16 22//16 9//16
f 9//17 22//17 15//17 1//17
