# Blender v2.92.0 OBJ File: ''
# www.blender.org
mtllib BK39_500_018024_0004_roof.mtl
o BK39_500_018024_0004_roof
v 136.449997 75.000000 -76.512230
v 31.305584 75.000000 -157.398987
v 265.347961 75.000000 -23.891857
v 158.789001 75.000000 -105.892952
v 124.400917 115.749969 -169.037796
v 251.409317 111.705978 -109.820015
v 221.728882 111.784935 -132.821976
v 146.871140 115.684685 -198.417480
v 118.951920 75.000000 -271.312561
v 23.813705 75.000000 -344.841339
v 212.110489 144.210663 -206.656311
v 340.790497 75.000000 -121.959335
v 310.244141 75.000000 -145.813751
v 396.704193 75.000000 -171.817978
v 356.333313 75.000000 -203.275238
v 250.913132 133.373657 -286.170197
v 154.357971 133.290482 -360.627594
v 291.570374 145.000000 -307.811798
v 381.428528 124.316399 -281.617798
v 340.257080 124.216019 -313.499634
v 234.750809 75.000000 -421.815857
v 139.439423 75.000000 -495.140869
v 493.563782 75.000000 -297.721069
v 271.005768 75.000000 -468.936218
v 136.449997 0.000000 -76.512230
v 31.305584 0.000000 -157.398987
v 118.951920 0.000000 -271.312561
v 23.813705 0.000000 -344.841339
v 139.439423 0.000000 -495.140869
v 234.750809 0.000000 -421.815857
v 271.005768 0.000000 -468.936218
v 493.563782 0.000000 -297.721069
v 396.704193 0.000000 -171.817978
v 356.333313 0.000000 -203.275238
v 310.244141 0.000000 -145.813751
v 340.790497 0.000000 -121.959335
v 265.347961 0.000000 -23.891857
v 158.789001 0.000000 -105.892952
vt 0.299720 0.305150
vt 0.270760 0.045971
vt 0.046240 0.335570
vt 0.455830 0.187250
vt 0.487210 0.448610
vt 0.230970 0.477240
vt 0.060788 0.696730
vt 0.241560 0.674300
vt 0.285190 0.617690
vt 0.411870 0.601820
vt 0.566160 0.406910
vt 0.526220 0.096462
vt 0.740640 0.457380
vt 0.770300 0.668940
vt 0.958380 0.426360
vt 0.660690 0.395950
vt 0.691910 0.608330
vt 0.602420 0.719050
vt 0.430540 0.744080
vt 0.488170 0.788400
vt 0.661730 0.765010
vt 0.515240 0.953970
vt 0.308330 0.795970
vt 0.264950 0.852580
vn -0.4182 0.8495 -0.3217
vn -0.3128 -0.8583 0.4067
vn 0.3265 -0.8456 -0.4224
vn -0.4133 0.8533 -0.3180
vn 0.4195 0.8485 0.3227
vn 0.3167 0.8545 -0.4117
vn -0.3308 0.8428 0.4246
vn -0.4032 -0.8560 -0.3234
vn 0.3041 0.8694 -0.3895
vn -0.3969 -0.8656 -0.3054
vn 0.3198 -0.8515 -0.4156
vn 0.4201 0.8494 0.3194
vn 0.3204 -0.8508 -0.4164
usemtl None
s off
f 17/1/1 22/2/1 10/3/1
f 22/2/2 21/4/2 16/5/2 17/1/2
f 16/5/3 9/6/3 10/3/3 17/1/3
f 9/6/4 2/7/4 5/8/4 8/9/4 11/10/4 18/11/4 24/12/4 21/4/4 16/5/4
f 19/13/5 14/14/5 23/15/5
f 18/11/6 20/16/6 19/13/6 23/15/6 24/12/6
f 20/16/7 15/17/7 14/14/7 19/13/7
f 15/17/8 13/18/8 7/19/8 11/10/8 18/11/8 20/16/8
f 7/19/9 6/20/9 12/21/9 13/18/9
f 12/21/10 3/22/10 6/20/10
f 3/22/11 4/23/11 8/9/11 11/10/11 7/19/11 6/20/11
f 5/8/12 1/24/12 4/23/12 8/9/12
f 1/24/13 2/7/13 5/8/13
