# Blender v2.92.0 OBJ File: ''
# www.blender.org
mtllib BK39_500_016032_0059_roof.mtl
o BK39_500_016032_0059_roof
v 17.462259 75.000000 -555.408264
v 144.391434 75.000000 -27.806650
v 121.511917 145.000000 -491.713257
v 207.769241 144.943710 -132.874100
v 187.851410 75.000000 -596.337708
v 314.579132 75.000000 -68.687531
v 17.462259 0.000000 -555.408264
v 144.391434 0.000000 -27.806650
v 314.579132 0.000000 -68.687531
v 187.851410 0.000000 -596.337708
vt 0.434910 0.955370
vt 0.625810 0.786720
vt 0.947530 0.889750
vt 0.565820 0.042797
vt 0.366000 0.210730
vt 0.052597 0.108490
vn -0.1460 -0.7806 -0.6077
vn 0.6014 0.7858 -0.1444
vn 0.1472 -0.7764 0.6128
vn -0.6126 0.7765 0.1474
usemtl None
s off
f 2/1/1 4/2/1 6/3/1
f 6/3/2 5/4/2 3/5/2 4/2/2
f 3/5/3 1/6/3 5/4/3
f 1/6/4 2/1/4 4/2/4 3/5/4
