# Blender v2.92.0 OBJ File: ''
# www.blender.org
mtllib BK39_500_016033_0021.mtl
o BK39_500_016033_0021
v 12.409892 75.000000 -330.944885
v 183.418411 75.000000 -373.468933
v 99.930206 145.000000 -352.709778
v 261.047913 75.000000 -60.338123
v 90.278999 75.000000 -17.873516
v 177.677383 144.901932 -39.605194
v 12.409892 0.000000 -330.944885
v 183.418411 0.000000 -373.468933
v 261.047913 0.000000 -60.338123
v 90.278999 0.000000 -17.873516
vn 0.5950 -0.7900 -0.1480
vn -0.6126 -0.7757 0.1519
vn -0.2413 -0.0000 -0.9704
vn 0.2413 -0.0000 0.9704
vn 0.0000 -1.0000 0.0000
vn -0.9706 0.0000 0.2406
vn 0.9704 0.0000 -0.2414
usemtl None
s off
f 5//1 1//1 3//1 6//1
f 4//2 6//2 3//2 2//2
f 1//3 3//3 2//3
f 4//4 6//4 5//4
f 7//5 8//5 9//5 10//5
f 1//4 7//4 8//4 2//4
f 2//6 8//6 9//6 4//6
f 4//3 9//3 10//3 5//3
f 5//7 10//7 7//7 1//7
