# Blender v2.92.0 OBJ File: ''
# www.blender.org
mtllib BK39_500_013033_0051.mtl
o BK39_500_013033_0051
v 18.021553 75.000000 -264.363068
v 82.094177 125.884300 -272.800812
v 144.264832 75.000000 -280.982605
v 153.630920 75.000000 -207.412781
v 27.704569 75.000000 -191.013016
v 344.471344 75.000000 -232.266479
v 99.911575 125.628159 -135.345993
v 356.050873 144.520889 -144.421524
v 39.338425 145.000000 -102.559349
v 51.285130 75.000000 -11.809892
v 367.901215 75.000000 -54.291241
v 18.021553 0.000000 -264.363068
v 144.264832 0.000000 -280.982605
v 153.630920 0.000000 -207.412781
v 344.471344 0.000000 -232.266479
v 367.901215 0.000000 -54.291241
v 51.285130 0.000000 -11.809892
v 27.704569 0.000000 -191.013016
vn 0.0808 0.7943 0.6021
vn -0.0797 0.7867 -0.6121
vn -0.6133 0.7857 0.0810
vn -0.6251 -0.7765 0.0796
vn -0.1305 -0.0001 -0.9914
vn 0.9914 -0.0002 -0.1305
vn -0.9915 -0.0001 0.1305
vn 0.0000 -1.0000 0.0000
vn 0.1305 0.0000 0.9914
vn -0.9920 0.0000 0.1263
vn 0.1291 0.0000 0.9916
vn -0.9914 0.0000 0.1305
vn -0.1330 0.0000 -0.9911
vn 0.9915 0.0000 -0.1305
vn 0.9914 0.0000 -0.1309
usemtl None
s off
f 8//1 9//1 10//1 11//1
f 8//2 6//2 4//2 7//2 5//2 9//2
f 7//3 2//3 1//3 5//3
f 2//4 3//4 4//4 7//4
f 1//5 2//5 3//5
f 6//6 8//6 11//6
f 10//7 9//7 5//7
f 12//8 13//8 14//8 15//8 16//8 17//8 18//8
f 1//9 12//9 13//9 3//9
f 3//10 13//10 14//10 4//10
f 4//11 14//11 15//11 6//11
f 6//12 15//12 16//12 11//12
f 11//13 16//13 17//13 10//13
f 10//14 17//14 18//14 5//14
f 5//15 18//15 12//15 1//15
