# Blender v2.92.0 OBJ File: ''
# www.blender.org
mtllib BK39_500_015032_0063_roof.mtl
o BK39_500_015032_0063_roof
v 79.145500 75.000000 -15.212301
v 219.015747 75.000000 -48.616936
v 205.974289 75.000000 -105.472137
v 297.239136 75.000000 -127.199982
v 132.820679 132.928406 -100.168327
v 119.270180 133.140930 -158.053299
v 277.456787 144.533722 -210.061722
v 130.222534 145.000000 -175.596191
v 112.948746 133.498184 -186.437332
v 101.383606 133.214188 -233.352859
v 257.174225 75.000000 -294.955566
v 167.509705 75.000000 -274.332031
v 155.802780 75.000000 -320.337158
v 14.351732 75.000000 -286.564453
v 79.145500 0.000000 -15.212301
v 219.015747 0.000000 -48.616936
v 205.974289 0.000000 -105.472137
v 297.239136 0.000000 -127.199982
v 257.174225 0.000000 -294.955566
v 167.509705 0.000000 -274.332031
v 155.802780 0.000000 -320.337158
v 14.351732 0.000000 -286.564453
vt 0.253670 0.954590
vt 0.701970 0.854870
vt 0.425710 0.700990
vt 0.660170 0.685160
vt 0.382280 0.528200
vt 0.952690 0.620300
vt 0.889280 0.372950
vt 0.417380 0.475830
vt 0.824280 0.119540
vt 0.536890 0.181100
vt 0.362020 0.443470
vt 0.499370 0.043770
vt 0.324950 0.303420
vt 0.045999 0.144580
vn 0.1479 0.7711 0.6193
vn 0.6085 0.7812 -0.1396
vn 0.1464 0.7747 0.6151
vn -0.1397 0.7821 -0.6073
vn 0.5982 0.7867 -0.1522
vn -0.1461 0.7775 -0.6117
vn -0.6100 0.7789 0.1457
vn -0.9726 0.0001 0.2323
usemtl None
s off
f 1/1/1 2/2/1 5/3/1
f 2/2/2 3/4/2 6/5/2 5/3/2
f 3/4/3 4/6/3 7/7/3 8/8/3 6/5/3
f 7/7/4 11/9/4 12/10/4 9/11/4 8/8/4
f 12/10/5 13/12/5 10/13/5 9/11/5
f 13/12/6 14/14/6 10/13/6
f 14/14/7 1/1/7 5/3/7 6/5/7 8/8/7 9/11/7 10/13/7
f 4/6/8 7/7/8 11/9/8
