# Blender v2.92.0 OBJ File: ''
# www.blender.org
mtllib BK39_500_016032_0078_roof.mtl
o BK39_500_016032_0078_roof
v 302.469360 75.000000 -72.408188
v 54.115246 75.000000 -11.087411
v 202.887527 144.998474 -133.214417
v 115.964439 145.000000 -111.754219
v 262.765259 75.000000 -233.216980
v 14.408679 75.000000 -171.906250
v 302.469360 0.000000 -72.408188
v 54.115246 0.000000 -11.087411
v 14.408679 0.000000 -171.906250
v 262.765259 0.000000 -233.216980
vt 0.170710 0.954560
vt 0.365820 0.541990
vt 0.045453 0.295470
vt 0.954160 0.703250
vt 0.640020 0.454040
vt 0.828910 0.044193
vn -0.6208 0.7689 0.1533
vn 0.1546 0.7641 0.6263
vn 0.6299 0.7610 -0.1555
vn -0.1548 0.7634 -0.6271
usemtl None
s off
f 2/1/1 4/2/1 6/3/1
f 2/1/2 1/4/2 3/5/2 4/2/2
f 1/4/3 5/6/3 3/5/3
f 5/6/4 6/3/4 4/2/4 3/5/4
