# Blender v2.92.0 OBJ File: ''
# www.blender.org
mtllib BK39_500_017031_0061_roof.mtl
o BK39_500_017031_0061_roof
v 15.472099 75.000000 -283.821014
v 80.790710 75.000000 -15.812089
v 164.630981 145.000000 -193.002548
v 172.835953 144.999985 -159.336670
v 247.514038 75.000000 -340.373566
v 273.317474 75.000000 -234.498718
v 312.832428 75.000000 -72.364670
v 289.725006 75.000000 -167.176208
v 15.472099 0.000000 -283.821014
v 80.790710 0.000000 -15.812089
v 312.832428 0.000000 -72.364670
v 289.725006 0.000000 -167.176208
v 273.317474 0.000000 -234.498718
v 247.514038 0.000000 -340.373566
vt 0.246310 0.955710
vt 0.526940 0.553680
vt 0.953760 0.797300
vt 0.047171 0.204980
vt 0.501920 0.459380
vt 0.754620 0.046573
vt 0.833290 0.343140
vt 0.883310 0.531720
vn -0.1211 -0.8594 -0.4968
vn 0.4793 -0.8698 -0.1168
vn 0.1167 -0.8701 0.4789
vn -0.5038 -0.8550 0.1228
usemtl None
s off
f 2/1/1 4/2/1 7/3/1
f 1/4/2 3/5/2 4/2/2 2/1/2
f 5/6/3 3/5/3 1/4/3
f 5/6/4 6/7/4 8/8/4 7/3/4 4/2/4 3/5/4
