# Blender v2.92.0 OBJ File: ''
# www.blender.org
mtllib BK39_500_016029_0021_roof.mtl
o BK39_500_016029_0021_roof
v 202.120544 75.000000 -43.791756
v 79.916260 75.000000 -17.651857
v 131.180466 120.575058 -93.814911
v 213.508804 75.000000 -131.418655
v 184.719498 75.000000 -125.299088
v 210.005447 75.000000 -148.182999
v 274.894470 75.000000 -162.052780
v 114.232262 120.586304 -173.131500
v 126.227875 131.146744 -190.233032
v 122.791069 131.175079 -206.497696
v 176.259247 138.127548 -227.450760
v 149.435013 138.151962 -221.750641
v 138.513641 145.000000 -228.797638
v 132.195160 144.913712 -257.740662
v 239.398407 75.000000 -327.998322
v 213.297699 75.000000 -322.484772
v 12.973948 75.000000 -330.630219
v 202.472839 75.000000 -371.161987
v 202.120544 0.000000 -43.791756
v 79.916260 0.000000 -17.651857
v 12.973948 0.000000 -330.630219
v 202.472839 0.000000 -371.161987
v 213.297699 0.000000 -322.484772
v 239.398407 0.000000 -327.998322
v 274.894470 0.000000 -162.052780
v 210.005447 0.000000 -148.182999
v 213.508804 0.000000 -131.418655
v 184.719498 0.000000 -125.299088
vt 0.459010 0.337430
vt 0.045048 0.150050
vt 0.703030 0.045856
vt 0.480950 0.411830
vt 0.518870 0.429950
vt 0.740620 0.170990
vt 0.612010 0.415290
vt 0.831240 0.156820
vt 0.954490 0.583410
vt 0.729190 0.619070
vt 0.426360 0.469160
vt 0.438290 0.510970
vt 0.741350 0.662160
vt 0.396640 0.554930
vt 0.641390 0.677890
vt 0.455490 0.758830
vt 0.701810 0.887420
vt 0.277490 0.954620
vn 0.1230 -0.8090 0.5748
vn 0.5857 0.8000 -0.1302
vn -0.1229 0.8039 -0.5819
vn 0.5930 0.7951 -0.1268
vn -0.1250 -0.8014 -0.5850
vn 0.5947 0.7943 -0.1243
vn 0.1239 0.8031 0.5828
vn 0.5983 0.7910 -0.1277
vn 0.1216 0.8135 0.5687
vn 0.5553 -0.8231 -0.1188
usemtl None
s off
f 14/1/1 17/2/1 18/3/1
f 14/1/2 13/4/2 12/5/2 16/6/2 18/3/2
f 12/5/3 11/7/3 15/8/3 16/6/3
f 11/7/4 7/9/4 15/8/4
f 7/9/5 6/10/5 10/11/5 13/4/5 12/5/5 11/7/5
f 10/11/6 9/12/6 4/13/6 6/10/6
f 4/13/7 9/12/7 8/14/7 5/15/7
f 8/14/8 3/16/8 1/17/8 5/15/8
f 3/16/9 2/18/9 1/17/9
f 2/18/10 17/2/10 14/1/10 13/4/10 10/11/10 9/12/10 8/14/10 3/16/10
