# Blender v2.92.0 OBJ File: ''
# www.blender.org
mtllib BK39_500_015033_0050_roof.mtl
o BK39_500_015033_0050_roof
v 159.126923 75.000000 -18.817453
v 339.229431 75.000000 -59.818401
v 232.655777 144.993469 -124.998245
v 311.244232 75.000000 -182.638290
v 320.210022 75.000000 -186.412445
v 50.898701 75.000000 -126.326271
v 130.399139 75.000000 -144.802216
v 324.378754 75.000000 -194.532654
v 319.006561 75.000000 -218.130814
v 313.389160 75.000000 -224.191757
v 302.348724 75.000000 -221.678375
v 208.988480 145.000000 -228.830414
v 111.871864 134.673569 -220.836151
v 191.992874 134.533585 -239.267853
v 15.792458 75.000000 -280.531219
v 275.468414 75.000000 -339.649109
v 159.126923 0.000000 -18.817453
v 339.229431 0.000000 -59.818401
v 311.244232 0.000000 -182.638290
v 320.210022 0.000000 -186.412445
v 324.378754 0.000000 -194.532654
v 319.006561 0.000000 -218.130814
v 313.389160 0.000000 -224.191757
v 302.348724 0.000000 -221.678375
v 275.468414 0.000000 -339.649109
v 15.792458 0.000000 -280.531219
v 50.898701 0.000000 -126.326271
v 130.399139 0.000000 -144.802216
vt 0.314250 0.383140
vt 0.044361 0.216390
vt 0.773790 0.051259
vt 0.587050 0.360810
vt 0.539310 0.331650
vt 0.653530 0.650840
vt 0.446990 0.947440
vt 0.952890 0.832910
vt 0.366290 0.595520
vt 0.142970 0.647130
vt 0.874280 0.489840
vt 0.849290 0.380790
vt 0.880310 0.373770
vt 0.896090 0.390700
vt 0.911180 0.456610
vt 0.899470 0.479290
vn 0.1332 -0.7999 0.5852
vn 0.1389 0.7799 0.6103
vn 0.5772 -0.8060 -0.1316
vn -0.1373 -0.7952 -0.5906
vn 0.5810 -0.8031 -0.1323
vn 0.6009 0.7875 -0.1369
vn 0.0000 -1.0000 0.0000
usemtl None
s off
f 13/1/1 15/2/1 16/3/1 12/4/1 14/5/1
f 3/6/2 1/7/2 2/8/2
f 1/7/3 7/9/3 14/5/3 12/4/3 3/6/3
f 7/9/4 6/10/4 13/1/4 14/5/4
f 6/10/5 15/2/5 13/1/5
f 12/4/6 3/6/6 2/8/6 4/11/6 11/12/6 16/3/6
f 11/12/7 10/13/7 9/14/7 8/15/7 5/16/7 4/11/7
