# Blender v2.92.0 OBJ File: ''
# www.blender.org
mtllib BK39_500_012032_0075.mtl
o BK39_500_012032_0075
v 180.448517 75.000000 -33.945118
v 58.795033 144.809769 -150.274445
v 14.347039 75.000000 -192.781998
v 190.308243 75.000000 -44.254982
v 217.327255 75.000000 -18.417980
v 176.108307 144.983017 -150.408295
v 89.159508 75.000000 -270.073578
v 32.636673 75.000000 -324.127319
v 200.606842 145.016800 -176.084671
v 335.334808 75.000000 -141.824188
v 308.321411 75.000000 -167.655838
v 95.964287 75.000000 -390.352081
v 318.126617 75.000000 -177.908691
v 197.461639 145.000000 -293.295441
v 152.891281 75.000000 -335.917267
v 180.448517 0.000000 -33.945118
v 14.347039 0.000000 -192.781998
v 89.159508 0.000000 -270.073578
v 32.636673 0.000000 -324.127319
v 95.964287 0.000000 -390.352081
v 152.891281 0.000000 -335.917267
v 318.126617 0.000000 -177.908691
v 308.321411 0.000000 -167.655838
v 335.334808 0.000000 -141.824188
v 217.327255 0.000000 -18.417980
v 190.308243 0.000000 -44.254982
vn 0.0000 -1.0000 0.0000
vn -0.4638 -0.7669 -0.4436
vn 0.0007 -0.8571 -0.5151
vn 0.0015 -1.0000 0.0001
vn -0.5116 -0.8591 0.0139
vn -0.5392 0.6610 -0.5219
vn -0.6911 -0.0000 0.7227
vn 0.6911 0.0000 -0.7227
vn 0.7185 0.0000 0.6955
vn 0.7227 0.0000 0.6911
vn -0.6911 0.0000 0.7228
vn -0.7227 0.0000 -0.6912
vn -0.7227 0.0000 -0.6911
usemtl None
s off
f 4//1 11//1 10//1 5//1
f 4//2 1//2 6//2 9//2 13//2 11//2
f 1//3 2//3 6//3
f 2//4 14//4 9//4 6//4
f 14//5 13//5 9//5
f 14//6 15//6 7//6 3//6 2//6
f 7//1 8//1 12//1 15//1
f 1//7 2//7 3//7
f 15//8 14//8 13//8
f 16//1 17//1 18//1 19//1 20//1 21//1 22//1 23//1 24//1 25//1 26//1
f 1//8 16//8 17//8 3//8
f 3//9 17//9 18//9 7//9
f 7//8 18//8 19//8 8//8
f 8//10 19//10 20//10 12//10
f 12//11 20//11 21//11 15//11
f 15//7 21//7 22//7 13//7
f 13//12 22//12 23//12 11//12
f 11//7 23//7 24//7 10//7
f 10//13 24//13 25//13 5//13
f 5//8 25//8 26//8 4//8
f 4//12 26//12 16//12 1//12
