# Blender v2.92.0 OBJ File: ''
# www.blender.org
mtllib BK39_500_018027_0074_roof.mtl
o BK39_500_018027_0074_roof
v 15.021973 75.000000 -339.404724
v 81.331337 75.000000 -18.491571
v 175.401093 144.889404 -37.923744
v 109.238678 145.000000 -358.876923
v 202.325348 75.000000 -378.107178
v 248.414764 75.000000 -154.008591
v 268.338623 75.000000 -57.133610
v 308.737915 75.000000 -166.473175
v 262.441376 75.000000 -390.528900
v 15.021973 0.000000 -339.404724
v 81.331337 0.000000 -18.491571
v 268.338623 0.000000 -57.133610
v 248.414764 0.000000 -154.008591
v 308.737915 0.000000 -166.473175
v 262.441376 0.000000 -390.528900
v 202.325348 0.000000 -378.107178
vt 0.251800 0.954900
vt 0.046508 0.172180
vt 0.338200 0.124690
vt 0.543040 0.907500
vt 0.955840 0.593970
vt 0.769090 0.624370
vt 0.626390 0.077787
vt 0.812510 0.047490
vt 0.830770 0.860650
vn 0.5762 -0.8086 -0.1191
vn 0.0000 -1.0000 0.0000
vn -0.5808 -0.8052 0.1195
vn -0.2024 0.0001 -0.9793
vn 0.2024 0.0001 0.9793
usemtl None
s off
f 2/1/1 1/2/1 4/3/1 3/4/1
f 8/5/2 6/6/2 5/7/2 9/8/2
f 7/9/3 3/4/3 4/3/3 5/7/3 6/6/3
f 2/1/4 3/4/4 7/9/4
f 5/7/5 4/3/5 1/2/5
