# Blender v2.92.0 OBJ File: ''
# www.blender.org
mtllib BK39_500_013028_0004_roof.mtl
o BK39_500_013028_0004_roof
v 21.894403 75.000000 -271.699738
v 73.548431 75.000000 -36.892345
v 168.505508 145.000000 -179.559906
v 215.254379 75.000000 -69.083481
v 227.633194 75.000000 -16.021498
v 238.157028 110.745247 -136.123642
v 265.428467 110.730042 -142.292557
v 289.156403 121.490166 -127.398560
v 291.896515 121.462601 -115.430672
v 259.488434 75.000000 -323.964264
v 283.788971 75.000000 -213.623672
v 308.426178 75.000000 -219.170868
v 337.624207 85.913582 -205.219894
v 360.998901 75.000000 -191.232788
v 392.231659 75.000000 -52.226082
v 21.894403 0.000000 -271.699738
v 73.548431 0.000000 -36.892345
v 215.254379 0.000000 -69.083481
v 227.633194 0.000000 -16.021498
v 392.231659 0.000000 -52.226082
v 360.998901 0.000000 -191.232788
v 308.426178 0.000000 -219.170868
v 283.788971 0.000000 -213.623672
v 259.488434 0.000000 -323.964264
vt 0.522460 0.797410
vt 0.644240 0.582720
vt 0.701840 0.626400
vt 0.708490 0.661490
vt 0.552510 0.953020
vt 0.952020 0.846840
vt 0.876210 0.439200
vt 0.819480 0.398180
vt 0.748610 0.357270
vt 0.688810 0.373540
vt 0.578050 0.600810
vt 0.629830 0.049958
vt 0.408990 0.473430
vt 0.053142 0.203230
vt 0.178520 0.891810
vn 0.4664 -0.8779 -0.1088
vn 0.1047 0.8733 0.4758
vn 0.4721 0.8752 -0.1061
vn -0.1051 0.8781 -0.4669
vn 0.4923 0.8636 -0.1084
vn -0.4819 0.8698 0.1060
vn 0.1130 0.8602 0.4973
vn -0.1073 0.8665 -0.4876
vn -0.4656 0.1257 0.8761
usemtl None
s off
f 4/1/1 7/2/1 8/3/1 9/4/1 5/5/1
f 5/5/2 15/6/2 9/4/2
f 15/6/3 14/7/3 13/8/3 8/3/3 9/4/3
f 13/8/4 12/9/4 11/10/4 6/11/4 7/2/4 8/3/4
f 11/10/5 10/12/5 3/13/5 6/11/5
f 1/14/6 2/15/6 3/13/6
f 2/15/7 4/1/7 7/2/7 6/11/7 3/13/7
f 10/12/8 1/14/8 3/13/8
f 14/7/9 13/8/9 12/9/9
