# Blender v2.92.0 OBJ File: ''
# www.blender.org
mtllib BK39_500_017032_0032.mtl
o BK39_500_017032_0032
v 14.493546 75.000000 -506.677307
v 33.608555 75.000000 -352.395294
v 59.117348 75.000000 -186.883026
v 68.057632 75.000000 -114.682014
v 51.710499 75.000000 -354.557404
v 92.474045 75.000000 -25.750088
v 72.257423 75.000000 -188.821609
v 81.246307 75.000000 -116.315346
v 98.889107 97.304077 -154.408401
v 112.888985 97.403694 -156.302582
v 98.687744 121.650093 -438.335419
v 117.296585 121.676338 -440.602081
v 154.893860 129.049454 -234.493454
v 168.445328 129.086548 -125.673409
v 156.169739 140.269608 -372.055176
v 170.683533 140.310043 -255.516724
v 162.816071 145.000000 -380.779205
v 159.588699 144.976181 -406.497925
v 213.495529 107.600220 -476.325104
v 270.239655 75.000000 -47.774399
v 256.663574 75.000000 -156.286835
v 225.139969 107.533974 -477.883118
v 293.721832 75.000000 -161.025070
v 279.154236 75.000000 -277.443176
v 293.302765 75.000000 -279.140900
v 274.384338 75.000000 -428.054657
v 272.307739 75.000000 -538.694641
v 285.810028 75.000000 -429.697113
v 14.493546 0.000000 -506.677307
v 33.608555 0.000000 -352.395294
v 51.710499 0.000000 -354.557404
v 72.257423 0.000000 -188.821609
v 59.117348 0.000000 -186.883026
v 68.057632 0.000000 -114.682014
v 81.246307 0.000000 -116.315346
v 92.474045 0.000000 -25.750088
v 270.239655 0.000000 -47.774399
v 256.663574 0.000000 -156.286835
v 293.721832 0.000000 -161.025070
v 279.154236 0.000000 -277.443176
v 293.302765 0.000000 -279.140900
v 274.384338 0.000000 -428.054657
v 285.810028 0.000000 -429.697113
v 272.307739 0.000000 -538.694641
vn -0.5282 0.8466 0.0654
vn 0.0652 0.8477 0.5265
vn 0.0740 -0.8620 0.5014
vn -0.5210 0.8511 0.0646
vn -0.0611 -0.8571 -0.5115
vn 0.5234 -0.8496 -0.0648
vn 0.0631 -0.8588 0.5084
vn 0.5102 0.8578 -0.0632
vn -0.0712 -0.8659 -0.4951
vn -0.5105 -0.8574 0.0649
vn 0.0614 0.8571 0.5115
vn 0.5054 0.8606 -0.0632
vn 0.0650 0.8585 0.5087
vn 0.5056 0.8605 -0.0633
vn 0.0634 0.8567 0.5119
vn 0.0000 1.0000 0.0000
vn -0.9924 0.0000 0.1230
vn 0.1186 0.0000 0.9929
vn -0.1460 0.0000 -0.9893
vn -0.9924 0.0000 0.1229
vn 0.1229 0.0000 0.9924
vn 0.1230 0.0000 0.9924
vn 0.9923 0.0000 -0.1241
vn 0.1268 0.0000 0.9919
vn 0.9923 0.0000 -0.1242
vn 0.1191 0.0000 0.9929
vn 0.9920 0.0000 -0.1260
vn 0.1423 0.0000 0.9898
vn 0.9924 0.0000 -0.1229
vn -0.1232 0.0000 -0.9924
usemtl None
s off
f 4//1 9//1 3//1
f 4//2 8//2 10//2 9//2
f 9//3 3//3 7//3 10//3
f 6//4 14//4 13//4 16//4 15//4 17//4 18//4 12//4 5//4 7//4 10//4 8//4
f 5//5 2//5 11//5 12//5
f 2//6 1//6 11//6
f 1//7 27//7 22//7 19//7 18//7 12//7 11//7
f 22//8 28//8 27//8
f 22//9 28//9 26//9 19//9
f 25//10 17//10 18//10 19//10 26//10
f 15//11 24//11 25//11 17//11
f 16//12 23//12 24//12 15//12
f 13//13 21//13 23//13 16//13
f 13//14 14//14 20//14 21//14
f 14//15 6//15 20//15
f 29//16 30//16 31//16 32//16 33//16 34//16 35//16 36//16 37//16 38//16 39//16 40//16 41//16 42//16 43//16 44//16
f 1//17 29//17 30//17 2//17
f 2//18 30//18 31//18 5//18
f 5//17 31//17 32//17 7//17
f 7//19 32//19 33//19 3//19
f 3//20 33//20 34//20 4//20
f 4//21 34//21 35//21 8//21
f 8//17 35//17 36//17 6//17
f 6//22 36//22 37//22 20//22
f 20//23 37//23 38//23 21//23
f 21//24 38//24 39//24 23//24
f 23//25 39//25 40//25 24//25
f 24//26 40//26 41//26 25//26
f 25//27 41//27 42//27 26//27
f 26//28 42//28 43//28 28//28
f 28//29 43//29 44//29 27//29
f 27//30 44//30 29//30 1//30
