# Blender v2.92.0 OBJ File: ''
# www.blender.org
mtllib BK39_500_013030_0017_roof.mtl
o BK39_500_013030_0017_roof
v 16.715126 75.000000 -264.994598
v 71.074959 75.000000 -23.138159
v 114.972473 117.701500 -89.033012
v 99.248985 117.776314 -159.447220
v 103.625435 75.000000 -284.557770
v 99.890289 75.000000 -302.831757
v 127.381119 144.980530 -200.688934
v 163.660629 75.000000 -118.925972
v 179.538788 75.000000 -47.378071
v 169.603302 145.000000 -210.168167
v 122.065010 75.000000 -432.894073
v 149.220444 75.000000 -313.513092
v 178.805847 133.678284 -226.673340
v 198.667496 133.541687 -231.318253
v 205.497589 139.733551 -241.452332
v 233.216019 139.455872 -247.815521
v 214.046661 131.257248 -379.332855
v 240.844330 131.073166 -260.376770
v 263.325745 75.000000 -166.943558
v 269.490662 75.000000 -142.623077
v 264.973175 75.000000 -464.832825
v 327.992340 75.000000 -182.675201
v 16.715126 0.000000 -264.994598
v 71.074959 0.000000 -23.138159
v 179.538788 0.000000 -47.378071
v 163.660629 0.000000 -118.925972
v 269.490662 0.000000 -142.623077
v 263.325745 0.000000 -166.943558
v 327.992340 0.000000 -182.675201
v 264.973175 0.000000 -464.832825
v 122.065010 0.000000 -432.894073
v 149.220444 0.000000 -313.513092
v 99.890289 0.000000 -302.831757
v 103.625435 0.000000 -284.557770
vt 0.618630 0.219480
vt 0.352790 0.109270
vt 0.765820 0.043554
vt 0.696080 0.464250
vt 0.674030 0.490090
vt 0.947950 0.624130
vt 0.593920 0.503180
vt 0.574180 0.524040
vt 0.516780 0.533590
vt 0.761060 0.656490
vt 0.490180 0.567560
vt 0.778870 0.706540
vt 0.368150 0.587060
vt 0.286850 0.671920
vt 0.473010 0.755300
vt 0.518900 0.902510
vt 0.332290 0.816800
vt 0.205420 0.952390
vt 0.048310 0.454740
vt 0.299500 0.414490
vt 0.288700 0.376890
vt 0.431270 0.354910
vn 0.1339 -0.7894 0.5991
vn 0.6203 0.7721 -0.1385
vn 0.1421 0.7992 0.5841
vn 0.6373 0.7535 -0.1615
vn 0.1363 0.7817 0.6086
vn -0.6055 -0.7844 0.1344
vn 0.1342 0.7884 0.6003
vn 0.5831 -0.8017 -0.1311
vn 0.1376 -0.7793 0.6113
vn 0.5672 -0.8154 -0.1159
vn 0.1308 -0.7861 0.6041
vn 0.5713 -0.8104 -0.1300
usemtl None
s off
f 17/1/1 11/2/1 21/3/1
f 17/1/2 18/4/2 16/5/2 22/6/2 21/3/2
f 16/5/3 15/7/3 14/8/3 13/9/3 19/10/3 22/6/3
f 13/9/4 10/11/4 20/12/4 19/10/4
f 10/11/5 7/13/5 4/14/5 8/15/5 20/12/5
f 8/15/6 9/16/6 3/17/6 4/14/6
f 3/17/7 2/18/7 9/16/7
f 2/18/8 1/19/8 7/13/8 4/14/8 3/17/8
f 1/19/9 5/20/9 14/8/9 13/9/9 10/11/9 7/13/9
f 5/20/10 6/21/10 15/7/10 14/8/10
f 6/21/11 12/22/11 18/4/11 16/5/11 15/7/11
f 12/22/12 11/2/12 17/1/12 18/4/12
