# Blender v2.92.0 OBJ File: ''
# www.blender.org
mtllib BK39_500_016031_0022_roof.mtl
o BK39_500_016031_0022_roof
v 267.245758 75.000000 -336.118927
v 18.732962 75.000000 -275.333221
v 97.022697 120.773544 -223.054016
v 142.028976 120.797523 -234.025040
v 184.305817 144.983887 -206.623520
v 51.215282 75.000000 -142.290665
v 94.456665 75.000000 -152.796402
v 196.949066 145.000000 -154.904221
v 347.218903 75.000000 -185.467133
v 306.568512 75.000000 -175.597733
v 257.299713 113.332085 -120.346397
v 262.366638 113.166275 -100.771439
v 294.911896 117.519028 -101.363243
v 270.609131 117.529121 -95.445869
v 124.842812 75.000000 -28.263527
v 216.558929 75.000000 -50.690834
v 225.998505 75.000000 -15.991550
v 379.449097 75.000000 -53.457439
v 267.245758 0.000000 -336.118927
v 18.732962 0.000000 -275.333221
v 51.215282 0.000000 -142.290665
v 94.456665 0.000000 -152.796402
v 124.842812 0.000000 -28.263527
v 216.558929 0.000000 -50.690834
v 225.998505 0.000000 -15.991550
v 379.449097 0.000000 -53.457439
v 347.218903 0.000000 -185.467133
v 306.568512 0.000000 -175.597733
vt 0.569270 0.954700
vt 0.681640 0.729620
vt 0.742850 0.712850
vt 0.955790 0.848560
vt 0.545490 0.856400
vt 0.648110 0.659080
vt 0.660870 0.714530
vt 0.314470 0.919930
vt 0.496090 0.561180
vt 0.237930 0.567150
vt 0.357760 0.337040
vt 0.464250 0.414660
vt 0.129010 0.596910
vt 0.244390 0.368120
vt 0.047186 0.220020
vt 0.673160 0.047822
vt 0.772210 0.502560
vt 0.874610 0.474600
vn -0.1276 -0.8428 -0.5228
vn 0.5346 -0.8325 -0.1454
vn -0.1310 -0.8342 -0.5357
vn 0.5569 -0.8194 -0.1359
vn -0.1323 -0.8283 -0.5445
vn 0.5672 -0.8119 -0.1385
vn 0.1308 -0.8347 0.5349
vn -0.5168 -0.8467 0.1266
vn 0.1233 -0.8527 0.5077
vn 0.5003 0.8572 -0.1222
usemtl None
s off
f 17/1/1 14/2/1 13/3/1 18/4/1
f 17/1/2 16/5/2 11/6/2 12/7/2 14/2/2
f 16/5/3 15/8/3 8/9/3 11/6/3
f 15/8/4 7/10/4 4/11/4 5/12/4 8/9/4
f 7/10/5 6/13/5 3/14/5 4/11/5
f 6/13/6 2/15/6 3/14/6
f 2/15/7 1/16/7 5/12/7 4/11/7 3/14/7
f 1/16/8 10/17/8 12/7/8 11/6/8 8/9/8 5/12/8
f 10/17/9 9/18/9 13/3/9 14/2/9 12/7/9
f 18/4/10 9/18/10 13/3/10
