# Blender v2.92.0 OBJ File: ''
# www.blender.org
mtllib BK39_500_015032_0063.mtl
o BK39_500_015032_0063
v 79.145500 75.000000 -15.212301
v 219.015747 75.000000 -48.616936
v 205.974289 75.000000 -105.472137
v 297.239136 75.000000 -127.199982
v 132.820679 132.928406 -100.168327
v 119.270180 133.140930 -158.053299
v 277.456787 144.533722 -210.061722
v 130.222534 145.000000 -175.596191
v 112.948746 133.498184 -186.437332
v 101.383606 133.214188 -233.352859
v 257.174225 75.000000 -294.955566
v 167.509705 75.000000 -274.332031
v 155.802780 75.000000 -320.337158
v 14.351732 75.000000 -286.564453
v 79.145500 0.000000 -15.212301
v 219.015747 0.000000 -48.616936
v 205.974289 0.000000 -105.472137
v 297.239136 0.000000 -127.199982
v 257.174225 0.000000 -294.955566
v 167.509705 0.000000 -274.332031
v 155.802780 0.000000 -320.337158
v 14.351732 0.000000 -286.564453
vn 0.1479 0.7711 0.6193
vn 0.6085 0.7812 -0.1396
vn 0.1464 0.7747 0.6151
vn -0.1397 0.7821 -0.6073
vn 0.5982 0.7867 -0.1522
vn -0.1461 0.7775 -0.6117
vn -0.6100 0.7789 0.1457
vn -0.9726 0.0001 0.2323
vn 0.0000 1.0000 0.0000
vn 0.2323 0.0000 0.9726
vn 0.9747 0.0000 -0.2236
vn 0.2316 0.0000 0.9728
vn 0.9726 0.0000 -0.2323
vn -0.2242 0.0000 -0.9746
vn 0.9691 0.0000 -0.2466
vn -0.2322 0.0000 -0.9727
vn -0.9727 0.0000 0.2323
usemtl None
s off
f 1//1 2//1 5//1
f 2//2 3//2 6//2 5//2
f 3//3 4//3 7//3 8//3 6//3
f 7//4 11//4 12//4 9//4 8//4
f 12//5 13//5 10//5 9//5
f 13//6 14//6 10//6
f 14//7 1//7 5//7 6//7 8//7 9//7 10//7
f 4//8 7//8 11//8
f 15//9 16//9 17//9 18//9 19//9 20//9 21//9 22//9
f 1//10 15//10 16//10 2//10
f 2//11 16//11 17//11 3//11
f 3//12 17//12 18//12 4//12
f 4//13 18//13 19//13 11//13
f 11//14 19//14 20//14 12//14
f 12//15 20//15 21//15 13//15
f 13//16 21//16 22//16 14//16
f 14//17 22//17 15//17 1//17
