# Blender v2.92.0 OBJ File: ''
# www.blender.org
mtllib BK39_500_018025_0044.mtl
o BK39_500_018025_0044
v 227.523178 75.000000 -316.469086
v 91.239685 75.000000 -274.516296
v 15.405566 75.000000 -199.523804
v 104.660614 75.000000 -226.875595
v 176.895645 135.700455 -228.855545
v 190.516296 136.188293 -182.582504
v 183.082794 145.000000 -170.136993
v 38.096577 144.935654 -125.780876
v 200.463165 133.740051 -160.436890
v 218.231812 133.783218 -102.535606
v 157.919312 75.000000 -69.158730
v 64.314751 75.000000 -40.577343
v 307.723785 75.000000 -55.934807
v 174.508286 75.000000 -14.943515
v 227.523178 0.000000 -316.469086
v 91.239685 0.000000 -274.516296
v 104.660614 0.000000 -226.875595
v 15.405566 0.000000 -199.523804
v 64.314751 0.000000 -40.577343
v 157.919312 0.000000 -69.158730
v 174.508286 0.000000 -14.943515
v 307.723785 0.000000 -55.934807
vn -0.1878 -0.7696 -0.6102
vn 0.6283 -0.7538 -0.1923
vn 0.6053 0.7738 -0.1863
vn 0.1946 -0.7501 0.6321
vn -0.6303 0.7558 0.1776
vn -0.1968 0.7409 -0.6421
vn 0.1803 0.7868 0.5903
vn 0.9558 0.0000 -0.2941
vn 0.0000 1.0000 0.0000
vn -0.2942 0.0000 -0.9557
vn -0.9625 0.0000 0.2712
vn -0.2930 0.0000 -0.9561
vn -0.9558 0.0000 0.2941
vn 0.2920 0.0000 0.9564
vn -0.9562 0.0000 0.2926
vn 0.2941 0.0000 0.9558
vn 0.9557 0.0000 -0.2942
usemtl None
s off
f 14//1 10//1 13//1
f 14//2 11//2 9//2 10//2
f 13//3 1//3 5//3 6//3 7//3 9//3 10//3
f 5//4 2//4 1//4
f 2//5 4//5 6//5 5//5
f 4//6 3//6 8//6 7//6 6//6
f 8//7 12//7 11//7 9//7 7//7
f 3//8 8//8 12//8
f 15//9 16//9 17//9 18//9 19//9 20//9 21//9 22//9
f 1//10 15//10 16//10 2//10
f 2//11 16//11 17//11 4//11
f 4//12 17//12 18//12 3//12
f 3//13 18//13 19//13 12//13
f 12//14 19//14 20//14 11//14
f 11//15 20//15 21//15 14//15
f 14//16 21//16 22//16 13//16
f 13//17 22//17 15//17 1//17
