# Blender v2.92.0 OBJ File: ''
# www.blender.org
mtllib BK39_500_016031_0011_roof.mtl
o BK39_500_016031_0011_roof
v 13.744410 75.000000 -264.722748
v 74.752121 75.000000 -15.294227
v 143.035522 144.999954 -188.165924
v 153.080170 145.000000 -147.099167
v 222.639816 75.000000 -315.816376
v 283.649109 75.000000 -66.388077
v 13.744410 0.000000 -264.722748
v 74.752121 0.000000 -15.294227
v 283.649109 0.000000 -66.388077
v 222.639816 0.000000 -315.816376
vt 0.249170 0.953650
vt 0.510270 0.554240
vt 0.945500 0.798820
vt 0.045815 0.197810
vt 0.476790 0.429800
vt 0.742130 0.042981
vn -0.1280 -0.8424 -0.5235
vn 0.5304 -0.8378 -0.1297
vn 0.1317 -0.8323 0.5385
vn 0.5295 0.8384 -0.1295
usemtl None
s off
f 2/1/1 4/2/1 6/3/1
f 2/1/2 1/4/2 3/5/2 4/2/2
f 1/4/3 5/6/3 3/5/3
f 6/3/4 5/6/4 3/5/4 4/2/4
