# Blender v2.92.0 OBJ File: ''
# www.blender.org
mtllib BK39_500_015032_0071_roof.mtl
o BK39_500_015032_0071_roof
v 18.234381 75.000000 -209.707306
v 271.283905 75.000000 -367.129303
v 236.703049 145.000000 -216.625153
v 163.952347 144.997299 -171.371948
v 147.526398 109.012924 -96.982651
v 153.322037 107.010986 -82.049240
v 385.153656 75.000000 -184.121384
v 217.792938 75.000000 -80.028877
v 219.212845 75.000000 -68.108116
v 137.752792 75.000000 -17.413786
v 18.234381 0.000000 -209.707306
v 271.283905 0.000000 -367.129303
v 385.153656 0.000000 -184.121384
v 217.792938 0.000000 -80.028877
v 219.212845 0.000000 -68.108116
v 137.752792 0.000000 -17.413786
vt 0.341820 0.954650
vt 0.543950 0.822640
vt 0.380450 0.786330
vt 0.366070 0.747440
vt 0.540430 0.791590
vt 0.955720 0.520520
vt 0.587350 0.435870
vt 0.406830 0.553720
vt 0.673160 0.043934
vt 0.045247 0.453890
vn 0.2989 0.8245 0.4804
vn -0.4454 -0.8937 0.0531
vn 0.2910 0.8345 0.4679
vn 0.4592 0.8411 -0.2857
vn -0.2845 0.8426 -0.4573
vn -0.4757 0.8284 0.2957
usemtl None
s off
f 10/1/1 9/2/1 6/3/1
f 6/3/2 5/4/2 8/5/2 9/2/2
f 8/5/3 7/6/3 3/7/3 4/8/3 5/4/3
f 7/6/4 2/9/4 3/7/4
f 2/9/5 1/10/5 4/8/5 3/7/5
f 1/10/6 10/1/6 6/3/6 5/4/6 4/8/6
