# Blender v2.92.0 OBJ File: ''
# www.blender.org
mtllib BK39_500_014032_0031.mtl
o BK39_500_014032_0031
v 183.767410 75.000000 -358.172302
v 321.507629 75.000000 -249.070679
v 130.812256 75.000000 -315.470734
v 326.544525 75.000000 -160.428009
v 280.306213 75.000000 -197.054138
v 142.568283 75.000000 -306.158600
v 144.852905 145.000000 -188.634918
v 198.284927 144.999390 -146.311539
v 211.819458 75.000000 -15.588221
v 16.083591 75.000000 -170.626419
v 183.767410 0.000000 -358.172302
v 321.507629 0.000000 -249.070679
v 280.306213 0.000000 -197.054138
v 326.544525 0.000000 -160.428009
v 211.819458 0.000000 -15.588221
v 16.083591 0.000000 -170.626419
v 130.812256 0.000000 -315.470734
v 142.568283 0.000000 -306.158600
vn -0.4821 0.7886 -0.3818
vn 0.3707 -0.8023 -0.4680
vn 0.4754 0.7951 0.3765
vn 0.3794 0.7917 -0.4789
vn 0.0000 1.0000 0.0000
vn 0.0000 -1.0000 0.0000
vn -0.6209 0.0000 0.7839
vn -0.7839 0.0000 -0.6209
vn 0.6209 0.0000 -0.7839
vn 0.7839 0.0000 0.6209
usemtl None
s off
f 7//1 3//1 10//1
f 7//2 8//2 9//2 10//2
f 9//3 4//3 8//3
f 4//4 5//4 6//4 3//4 7//4 8//4
f 5//5 2//5 1//5 6//5
f 11//6 12//6 13//6 14//6 15//6 16//6 17//6 18//6
f 1//7 11//7 12//7 2//7
f 2//8 12//8 13//8 5//8
f 5//7 13//7 14//7 4//7
f 4//8 14//8 15//8 9//8
f 9//9 15//9 16//9 10//9
f 10//10 16//10 17//10 3//10
f 3//7 17//7 18//7 6//7
f 6//10 18//10 11//10 1//10
