# Blender v2.92.0 OBJ File: ''
# www.blender.org
mtllib BK39_500_015027_0016_roof.mtl
o BK39_500_015027_0016_roof
v 35.767559 144.786499 -67.321640
v 50.818626 75.000000 -10.936672
v 21.248821 75.000000 -121.723305
v 433.510040 145.000000 -173.586273
v 448.604462 75.000000 -117.028076
v 418.944031 75.000000 -228.153610
v 50.818626 0.000000 -10.936672
v 21.248821 0.000000 -121.723305
v 418.944031 0.000000 -228.153610
v 448.604462 0.000000 -117.028076
vt 0.076263 0.718320
vt 0.924330 0.273700
vt 0.956510 0.510340
vt 0.108360 0.954240
vt 0.045307 0.490700
vt 0.893270 0.045382
vn -0.1977 -0.6415 -0.7412
vn 0.2012 -0.6279 0.7518
vn -0.9662 0.0000 0.2579
vn 0.9662 0.0000 -0.2579
usemtl None
s off
f 1/1/1 4/2/1 5/3/1 2/4/1
f 1/1/2 3/5/2 6/6/2 4/2/2
f 5/3/3 4/2/3 6/6/3
f 3/5/4 1/1/4 2/4/4
