# Blender v2.92.0 OBJ File: ''
# www.blender.org
mtllib BK39_500_013027_0069.mtl
o BK39_500_013027_0069
v 352.492371 75.000000 -397.681671
v 414.706848 75.000000 -55.536892
v 266.255096 145.000000 -278.364166
v 310.263367 144.972473 -36.576763
v 243.774460 131.536270 -294.308502
v 178.598373 75.000000 -200.848083
v 211.781418 75.000000 -18.701504
v 19.357178 75.000000 -337.948303
v 48.530128 75.000000 -177.228119
v 34.085583 131.700317 -256.466522
v 352.492371 0.000000 -397.681671
v 414.706848 0.000000 -55.536892
v 211.781418 0.000000 -18.701504
v 178.598373 0.000000 -200.848083
v 48.530128 0.000000 -177.228119
v 19.357178 0.000000 -337.948303
vn -0.5637 0.8196 0.1027
vn -0.1029 -0.8177 -0.5664
vn 0.0997 -0.8251 0.5561
vn -0.5415 -0.8349 0.0985
vn 0.1786 -0.0000 0.9839
vn -0.9839 -0.0011 0.1786
vn 0.0000 -1.0000 0.0000
vn -0.9839 0.0000 0.1789
vn -0.1786 0.0000 -0.9839
vn 0.9838 0.0000 -0.1792
vn -0.1787 0.0000 -0.9839
vn 0.9839 0.0000 -0.1786
vn 0.1765 0.0000 0.9843
usemtl None
s off
f 4//1 3//1 5//1 6//1 7//1
f 6//2 9//2 10//2 5//2
f 10//3 8//3 1//3 3//3 5//3
f 1//4 2//4 4//4 3//4
f 2//5 4//5 7//5
f 9//6 10//6 8//6
f 11//7 12//7 13//7 14//7 15//7 16//7
f 1//8 11//8 12//8 2//8
f 2//9 12//9 13//9 7//9
f 7//10 13//10 14//10 6//10
f 6//11 14//11 15//11 9//11
f 9//12 15//12 16//12 8//12
f 8//13 16//13 11//13 1//13
