# Blender v2.92.0 OBJ File: ''
# www.blender.org
mtllib BK39_500_004054_0025.mtl
o BK39_500_004054_0025
v 14.926545 75.000000 -208.956863
v 291.435486 75.000000 -239.572617
v 167.703812 144.986145 -225.873001
v 36.897476 75.000000 -10.656790
v 313.461121 75.000000 -41.278591
v 189.705032 145.000000 -27.575693
v 14.926545 0.000000 -208.956863
v 291.435486 0.000000 -239.572617
v 313.461121 0.000000 -41.278591
v 36.897476 0.000000 -10.656790
vn -0.4119 0.9101 0.0456
vn 0.4871 0.8717 -0.0541
vn -0.1100 -0.0000 -0.9939
vn 0.1100 -0.0000 0.9939
vn 0.0000 -1.0000 0.0000
vn -0.9939 0.0000 0.1104
vn 0.9939 0.0000 -0.1101
usemtl None
s off
f 4//1 6//1 3//1 1//1
f 6//2 5//2 2//2 3//2
f 1//3 3//3 2//3
f 5//4 6//4 4//4
f 7//5 8//5 9//5 10//5
f 1//4 7//4 8//4 2//4
f 2//6 8//6 9//6 5//6
f 5//3 9//3 10//3 4//3
f 4//7 10//7 7//7 1//7
