# Blender v2.92.0 OBJ File: ''
# www.blender.org
mtllib BK39_500_015025_0013.mtl
o BK39_500_015025_0013
v 33.122368 111.604683 -147.498154
v 19.463446 75.000000 -203.801956
v 47.428444 75.000000 -88.593697
v 52.560520 75.000000 -211.310913
v 39.616169 75.000000 -264.312531
v 92.798500 75.000000 -99.573418
v 107.097771 75.000000 -40.295372
v 123.897552 111.191895 -168.762787
v 143.006729 127.154823 -200.584702
v 155.332947 127.157753 -203.572693
v 190.489227 144.957413 -181.791901
v 161.336655 75.000000 -404.249115
v 186.645248 75.000000 -300.013428
v 262.691559 75.000000 -20.598839
v 249.841904 75.000000 -74.547401
v 241.672180 145.000000 -194.147400
v 274.154358 119.575478 -245.338852
v 231.448853 119.582077 -421.270538
v 312.650513 117.167236 -104.232422
v 299.359375 117.094719 -159.530029
v 399.369995 75.000000 -53.780251
v 305.809113 75.000000 -439.323242
v 19.463446 0.000000 -203.801956
v 47.428444 0.000000 -88.593697
v 92.798500 0.000000 -99.573418
v 107.097771 0.000000 -40.295372
v 249.841904 0.000000 -74.547401
v 262.691559 0.000000 -20.598839
v 399.369995 0.000000 -53.780251
v 305.809113 0.000000 -439.323242
v 161.336655 0.000000 -404.249115
v 186.645248 0.000000 -300.013428
v 39.616169 0.000000 -264.312531
v 52.560520 0.000000 -211.310913
vn -0.1224 -0.8549 -0.5041
vn 0.5128 -0.8498 -0.1221
vn -0.1189 -0.8604 -0.4955
vn 0.5076 -0.8528 -0.1225
vn -0.1216 -0.8560 -0.5024
vn 0.1182 -0.8454 0.5209
vn 0.5067 -0.8532 -0.1237
vn 0.1220 -0.8559 0.5025
vn -0.5108 0.8507 0.1240
vn -0.4892 -0.8640 0.1187
vn -0.2359 -0.0000 -0.9718
vn -0.9718 -0.0002 0.2359
vn 0.0000 1.0000 0.0000
vn -0.9718 0.0000 0.2359
vn 0.2352 0.0000 0.9719
vn -0.9721 0.0000 0.2345
vn 0.2333 0.0000 0.9724
vn -0.9728 0.0000 0.2317
vn 0.2359 0.0000 0.9718
vn 0.9718 0.0000 -0.2358
vn -0.2360 0.0000 -0.9718
vn -0.9714 0.0000 0.2373
vn -0.2213 0.0000 -0.9752
usemtl None
s off
f 14//1 19//1 21//1
f 14//2 15//2 20//2 19//2
f 15//3 7//3 11//3 16//3 20//3
f 7//4 6//4 10//4 11//4
f 6//5 3//5 1//5 8//5 9//5 10//5
f 1//6 2//6 4//6 8//6
f 4//7 5//7 9//7 8//7
f 5//8 13//8 17//8 16//8 11//8 10//8 9//8
f 17//9 18//9 12//9 13//9
f 18//10 22//10 21//10 19//10 20//10 16//10 17//10
f 12//11 18//11 22//11
f 3//12 1//12 2//12
f 23//13 24//13 25//13 26//13 27//13 28//13 29//13 30//13 31//13 32//13 33//13 34//13
f 2//14 23//14 24//14 3//14
f 3//15 24//15 25//15 6//15
f 6//16 25//16 26//16 7//16
f 7//17 26//17 27//17 15//17
f 15//18 27//18 28//18 14//18
f 14//19 28//19 29//19 21//19
f 21//20 29//20 30//20 22//20
f 22//11 30//11 31//11 12//11
f 12//14 31//14 32//14 13//14
f 13//21 32//21 33//21 5//21
f 5//22 33//22 34//22 4//22
f 4//23 34//23 23//23 2//23
