# Blender v2.92.0 OBJ File: ''
# www.blender.org
mtllib BK39_500_017024_0023_roof.mtl
o BK39_500_017024_0023_roof
v 354.686279 75.000000 -180.359192
v 402.889038 75.000000 -280.066498
v 228.052109 75.000000 -24.477146
v 312.969421 75.000000 -200.633423
v 334.880920 108.454620 -256.246582
v 293.522522 108.432083 -276.301941
v 282.958893 75.000000 -338.111786
v 298.866394 75.000000 -369.961121
v 185.683243 145.000000 -179.486832
v 219.742050 144.972137 -250.043259
v 204.546082 119.278320 -327.402618
v 194.098785 119.186867 -306.183350
v 202.248383 123.283783 -336.035492
v 183.178146 123.281845 -345.261078
v 16.805714 75.000000 -126.601860
v 98.511124 75.000000 -295.580261
v 68.522079 75.000000 -310.093750
v 135.628021 75.000000 -448.903137
v 354.686279 0.000000 -180.359192
v 402.889038 0.000000 -280.066498
v 282.958893 0.000000 -338.111786
v 298.866394 0.000000 -369.961121
v 135.628021 0.000000 -448.903137
v 68.522079 0.000000 -310.093750
v 98.511124 0.000000 -295.580261
v 16.805714 0.000000 -126.601860
v 228.052109 0.000000 -24.477146
v 312.969421 0.000000 -200.633423
vt 0.039824 0.732340
vt 0.440010 0.620540
vt 0.540410 0.948250
vt 0.233440 0.375090
vt 0.484710 0.307820
vt 0.459950 0.352680
vt 0.520720 0.471370
vt 0.162370 0.344410
vt 0.434070 0.270060
vt 0.479260 0.289570
vt 0.321390 0.050945
vt 0.708210 0.217840
vt 0.670520 0.285180
vt 0.954710 0.407890
vt 0.793560 0.458250
vt 0.695550 0.415850
vt 0.840490 0.618690
vt 0.741630 0.575830
vn 0.2178 -0.8658 -0.4505
vn 0.4293 -0.8790 0.2076
vn 0.2218 -0.8606 -0.4584
vn 0.4334 -0.8765 0.2095
vn -0.2411 -0.8327 0.4985
vn -0.5017 -0.8279 -0.2506
vn -0.2387 -0.8365 0.4932
vn -0.4948 -0.8355 -0.2392
vn 0.2140 -0.8720 -0.4403
vn -0.4981 -0.8332 -0.2401
usemtl None
s off
f 15/1/1 9/2/1 3/3/1
f 15/1/2 16/4/2 11/5/2 12/6/2 10/7/2 9/2/2
f 16/4/3 17/8/3 14/9/3 13/10/3 11/5/3
f 14/9/4 17/8/4 18/11/4
f 18/11/5 8/12/5 13/10/5 14/9/5
f 8/12/6 7/13/6 12/6/6 11/5/6 13/10/6
f 7/13/7 2/14/7 5/15/7 6/16/7 10/7/7 12/6/7
f 2/14/8 1/17/8 5/15/8
f 1/17/9 4/18/9 6/16/9 5/15/9
f 4/18/10 3/3/10 9/2/10 10/7/10 6/16/10
