# Blender v2.92.0 OBJ File: ''
# www.blender.org
mtllib BK39_500_012029_0067.mtl
o BK39_500_012029_0067
v 22.317232 75.000000 -125.426949
v 152.972260 75.000000 -19.126648
v 200.225281 75.000000 -77.177757
v 208.968781 75.000000 -70.823311
v 142.102524 144.859543 -140.768188
v 195.851242 109.371117 -138.222198
v 237.586823 108.251816 -106.005913
v 123.664841 75.000000 -250.299957
v 72.342857 75.000000 -292.010010
v 255.483444 75.000000 -145.063339
v 263.845276 75.000000 -138.246918
v 290.726624 75.000000 -188.360153
v 242.375610 144.954163 -264.138123
v 191.387512 145.000000 -305.649109
v 307.948914 144.962311 -289.141174
v 314.148315 138.405334 -299.675568
v 179.437439 75.000000 -423.641388
v 259.934235 75.000000 -357.994568
v 417.927521 75.000000 -236.840424
v 413.971100 75.000000 -251.706940
v 285.001007 75.000000 -367.556396
v 282.444214 75.000000 -376.533813
v 325.300476 100.770912 -350.819794
v 311.757446 98.575676 -387.744507
v 460.879028 75.000000 -269.006989
v 345.361176 75.000000 -390.581024
v 341.506287 75.000000 -399.057678
v 438.603363 139.014587 -346.390320
v 418.379517 75.000000 -418.434174
v 22.317232 0.000000 -125.426949
v 152.972260 0.000000 -19.126648
v 200.225281 0.000000 -77.177757
v 208.968781 0.000000 -70.823311
v 263.845276 0.000000 -138.246918
v 255.483444 0.000000 -145.063339
v 290.726624 0.000000 -188.360153
v 417.927521 0.000000 -236.840424
v 413.971100 0.000000 -251.706940
v 460.879028 0.000000 -269.006989
v 418.379517 0.000000 -418.434174
v 345.361176 0.000000 -390.581024
v 341.506287 0.000000 -399.057678
v 282.444214 0.000000 -376.533813
v 285.001007 0.000000 -367.556396
v 259.934235 0.000000 -357.994568
v 179.437439 0.000000 -423.641388
v 72.342857 0.000000 -292.010010
v 123.664841 0.000000 -250.299957
vn 0.3938 -0.7815 -0.4840
vn 0.4988 -0.7664 0.4048
vn 0.3991 -0.7744 -0.4910
vn 0.4975 -0.7672 0.4048
vn -0.4049 -0.7678 0.4965
vn -0.2322 0.7586 -0.6088
vn 0.5791 -0.7984 -0.1649
vn 0.5425 0.8030 -0.2467
vn -0.2157 -0.7820 -0.5848
vn -0.5816 -0.7986 0.1548
vn 0.2216 0.7829 0.5814
vn 0.4917 0.7734 0.4002
vn -0.3946 -0.7810 0.4841
vn -0.3480 0.8060 0.4788
vn -0.7756 -0.0004 -0.6312
vn -0.9618 -0.0040 0.2736
vn 0.3563 0.0013 0.9344
vn 0.0000 1.0000 0.0000
vn -0.6311 0.0000 0.7757
vn 0.7755 0.0000 0.6313
vn -0.5879 0.0000 0.8089
vn 0.7756 0.0000 0.6312
vn 0.6318 0.0000 -0.7751
vn 0.3561 0.0000 0.9344
vn 0.9664 0.0000 -0.2572
vn 0.3460 0.0000 0.9382
vn 0.9619 0.0000 -0.2736
vn -0.3564 0.0000 -0.9343
vn 0.9103 0.0000 -0.4140
vn -0.3563 0.0000 -0.9344
vn -0.9618 0.0000 0.2739
vn 0.6320 0.0000 -0.7750
vn -0.7757 0.0000 -0.6311
vn -0.6307 0.0000 0.7760
vn -0.7765 0.0000 -0.6302
usemtl None
s off
f 1//1 5//1 2//1
f 8//2 13//2 5//2 1//2
f 9//3 14//3 13//3 8//3
f 17//4 14//4 9//4
f 18//5 13//5 14//5 17//5
f 13//6 15//6 16//6 28//6 29//6 26//6 23//6 21//6 18//6
f 22//7 24//7 23//7 21//7
f 27//8 24//8 23//8 26//8
f 20//9 16//9 28//9 25//9
f 19//10 15//10 16//10 20//10
f 12//11 19//11 15//11 13//11
f 10//12 12//12 13//12 5//12 2//12 3//12 6//12
f 7//13 6//13 10//13 11//13
f 4//14 7//14 6//14 3//14
f 4//15 7//15 11//15
f 25//16 28//16 29//16
f 27//17 24//17 22//17
f 30//18 31//18 32//18 33//18 34//18 35//18 36//18 37//18 38//18 39//18 40//18 41//18 42//18 43//18 44//18 45//18 46//18 47//18 48//18
f 1//19 30//19 31//19 2//19
f 2//20 31//20 32//20 3//20
f 3//21 32//21 33//21 4//21
f 4//22 33//22 34//22 11//22
f 11//23 34//23 35//23 10//23
f 10//20 35//20 36//20 12//20
f 12//24 36//24 37//24 19//24
f 19//25 37//25 38//25 20//25
f 20//26 38//26 39//26 25//26
f 25//27 39//27 40//27 29//27
f 29//28 40//28 41//28 26//28
f 26//29 41//29 42//29 27//29
f 27//30 42//30 43//30 22//30
f 22//31 43//31 44//31 21//31
f 21//28 44//28 45//28 18//28
f 18//32 45//32 46//32 17//32
f 17//33 46//33 47//33 9//33
f 9//34 47//34 48//34 8//34
f 8//35 48//35 30//35 1//35
