# Blender v2.92.0 OBJ File: ''
# www.blender.org
mtllib BK39_500_012032_0040_roof.mtl
o BK39_500_012032_0040_roof
v 87.040390 145.000000 -319.673248
v 19.142784 75.000000 -250.229401
v 152.723633 75.000000 -386.837219
v 323.898071 144.839096 -87.769508
v 389.422424 75.000000 -154.786850
v 256.149139 75.000000 -18.492523
v 19.142784 0.000000 -250.229401
v 152.723633 0.000000 -386.837219
v 389.422424 0.000000 -154.786850
v 256.149139 0.000000 -18.492523
vt 0.791930 0.782750
vt 0.212810 0.208730
vt 0.046804 0.380620
vt 0.626280 0.954230
vt 0.952130 0.616860
vt 0.373410 0.042482
vn -0.4088 0.8112 0.4181
vn 0.4183 0.8019 -0.4267
vn -0.7150 0.0001 -0.6991
vn 0.7150 0.0001 0.6991
usemtl None
s off
f 4/1/1 1/2/1 2/3/1 6/4/1
f 4/1/2 5/5/2 3/6/2 1/2/2
f 6/4/3 4/1/3 5/5/3
f 3/6/4 1/2/4 2/3/4
