# Blender v2.92.0 OBJ File: ''
# www.blender.org
mtllib BK39_500_016030_0058_roof.mtl
o BK39_500_016030_0058_roof
v 487.739471 75.000000 -377.108551
v 25.337549 75.000000 -237.942169
v 394.622131 106.912949 -295.537384
v 452.874573 106.936409 -313.029907
v 517.791016 75.000000 -277.200897
v 460.178101 75.000000 -259.940552
v 352.992035 144.310699 -220.259109
v 57.691273 145.000000 -130.227585
v 376.188446 133.042908 -207.524582
v 393.704498 132.936066 -149.905624
v 316.072174 75.000000 -86.427338
v 91.768623 75.000000 -17.116673
v 512.739929 75.000000 -85.207108
v 333.046051 75.000000 -31.157133
v 487.739471 0.000000 -377.108551
v 25.337549 0.000000 -237.942169
v 91.768623 0.000000 -17.116673
v 316.072174 0.000000 -86.427338
v 333.046051 0.000000 -31.157133
v 512.739929 0.000000 -85.207108
v 460.178101 0.000000 -259.940552
v 517.791016 0.000000 -277.200897
vt 0.614480 0.921120
vt 0.583160 0.781200
vt 0.694070 0.474620
vt 0.726390 0.620490
vt 0.946010 0.784290
vt 0.955330 0.298230
vt 0.849040 0.341920
vt 0.728090 0.251800
vt 0.835560 0.207520
vt 0.899890 0.045295
vt 0.651280 0.442380
vt 0.046748 0.397610
vt 0.106440 0.670310
vt 0.169310 0.956670
vn 0.5061 -0.8484 -0.1554
vn 0.1486 0.8567 0.4939
vn -0.1482 -0.8563 -0.4947
vn -0.5022 -0.8514 0.1511
vn -0.4973 -0.8546 0.1496
vn 0.1523 -0.8490 0.5060
vn -0.1505 -0.8603 -0.4871
vn 0.9576 0.0007 -0.2881
usemtl None
s off
f 14/1/1 11/2/1 9/3/1 10/4/1
f 13/5/2 10/4/2 14/1/2
f 5/6/3 6/7/3 3/8/3 4/9/3
f 1/10/4 5/6/4 4/9/4
f 6/7/5 13/5/5 10/4/5 9/3/5 7/11/5 3/8/5
f 2/12/6 1/10/6 4/9/6 3/8/6 7/11/6 8/13/6
f 8/13/7 7/11/7 9/3/7 11/2/7 12/14/7
f 2/12/8 8/13/8 12/14/8
