# Blender v2.92.0 OBJ File: ''
# www.blender.org
mtllib BK39_500_014028_0018.mtl
o BK39_500_014028_0018
v 80.602707 75.000000 -16.368593
v 259.910980 75.000000 -60.540943
v 244.306030 124.715797 -124.065056
v 174.465546 125.700264 -108.193970
v 144.625946 145.000000 -126.995522
v 137.386917 144.994888 -156.448685
v 228.397552 75.000000 -188.911911
v 125.752510 137.354843 -163.297684
v 221.213425 75.000000 -187.418167
v 107.829132 137.295242 -235.972900
v 202.484329 75.000000 -263.550171
v 185.688538 75.000000 -259.211151
v 167.659683 75.000000 -331.989197
v 12.454937 75.000000 -293.894379
v 80.602707 0.000000 -16.368593
v 259.910980 0.000000 -60.540943
v 228.397552 0.000000 -188.911911
v 221.213425 0.000000 -187.418167
v 202.484329 0.000000 -263.550171
v 185.688538 0.000000 -259.211151
v 167.659683 0.000000 -331.989197
v 12.454937 0.000000 -293.894379
vn 0.6022 -0.7845 -0.1479
vn 0.1476 -0.7852 0.6014
vn -0.5910 -0.7933 0.1464
vn 0.1563 -0.7806 0.6052
vn -0.6011 -0.7853 0.1479
vn 0.1447 0.7961 0.5875
vn -0.1216 0.8019 -0.5850
vn -0.9712 -0.0002 0.2384
vn 0.0000 1.0000 0.0000
vn 0.2392 0.0000 0.9710
vn 0.9712 0.0000 -0.2384
vn -0.2036 0.0000 -0.9791
vn 0.9710 0.0000 -0.2389
vn -0.2501 0.0000 -0.9682
vn 0.9707 0.0000 -0.2405
vn -0.2384 0.0000 -0.9712
vn -0.9711 0.0000 0.2385
usemtl None
s off
f 1//1 14//1 10//1 8//1 6//1 5//1
f 14//2 13//2 10//2
f 13//3 12//3 8//3 10//3
f 12//4 11//4 6//4 8//4
f 11//5 9//5 4//5 5//5 6//5
f 1//6 2//6 3//6 4//6 5//6
f 3//7 7//7 9//7 4//7
f 2//8 3//8 7//8
f 15//9 16//9 17//9 18//9 19//9 20//9 21//9 22//9
f 1//10 15//10 16//10 2//10
f 2//11 16//11 17//11 7//11
f 7//12 17//12 18//12 9//12
f 9//13 18//13 19//13 11//13
f 11//14 19//14 20//14 12//14
f 12//15 20//15 21//15 13//15
f 13//16 21//16 22//16 14//16
f 14//17 22//17 15//17 1//17
