# Blender v2.92.0 OBJ File: ''
# www.blender.org
mtllib BK39_500_014026_0065.mtl
o BK39_500_014026_0065
v 145.597931 75.000000 -332.816132
v 16.805429 75.000000 -225.303299
v 80.663605 144.512970 -278.627838
v 248.772034 75.000000 -210.287506
v 264.454498 75.000000 -223.376450
v 336.920868 75.000000 -136.568161
v 321.610077 75.000000 -123.785728
v 191.915359 75.000000 -15.519589
v 256.234741 145.000000 -69.201195
v 145.597931 0.000000 -332.816132
v 16.805429 0.000000 -225.303299
v 191.915359 0.000000 -15.519589
v 321.610077 0.000000 -123.785728
v 336.920868 0.000000 -136.568161
v 264.454498 0.000000 -223.376450
v 248.772034 0.000000 -210.287506
vn -0.4922 0.7674 0.4109
vn 0.4857 0.7725 -0.4090
vn 0.0000 -1.0000 -0.0000
vn 0.6408 0.0002 0.7677
vn -0.6408 0.0001 -0.7677
vn 0.0000 1.0000 0.0000
vn -0.6408 0.0000 -0.7677
vn -0.7677 0.0000 0.6408
vn 0.6408 0.0000 0.7677
vn 0.6409 0.0000 0.7676
vn 0.7677 0.0000 -0.6408
vn 0.7649 0.0000 -0.6441
usemtl None
s off
f 2//1 8//1 9//1 3//1
f 9//2 7//2 4//2 1//2 3//2
f 4//3 5//3 6//3 7//3
f 1//4 3//4 2//4
f 8//5 9//5 7//5
f 10//6 11//6 12//6 13//6 14//6 15//6 16//6
f 1//7 10//7 11//7 2//7
f 2//8 11//8 12//8 8//8
f 8//9 12//9 13//9 7//9
f 7//10 13//10 14//10 6//10
f 6//11 14//11 15//11 5//11
f 5//7 15//7 16//7 4//7
f 4//12 16//12 10//12 1//12
