# Blender v2.92.0 OBJ File: ''
# www.blender.org
mtllib BK39_500_016026_0050_roof.mtl
o BK39_500_016026_0050_roof
v 239.427567 75.000000 -18.688063
v 33.851414 75.000000 -43.310066
v 144.629745 144.971802 -101.009979
v 56.195408 75.000000 -230.635361
v 12.511453 75.000000 -236.275314
v 164.868546 145.000000 -270.334991
v 143.021545 128.057251 -298.085358
v 72.881805 127.837364 -306.814972
v 280.348755 75.000000 -360.337341
v 30.946995 75.000000 -390.218140
v 239.427567 0.000000 -18.688063
v 33.851414 0.000000 -43.310066
v 56.195408 0.000000 -230.635361
v 12.511453 0.000000 -236.275314
v 30.946995 0.000000 -390.218140
v 280.348755 0.000000 -360.337341
vt 0.115530 0.894620
vt 0.493620 0.754230
vt 0.817160 0.954530
vt 0.562690 0.342250
vt 0.956820 0.123270
vt 0.488130 0.274730
vt 0.248740 0.253490
vt 0.105620 0.050564
vt 0.042701 0.425120
vt 0.191790 0.438840
vn 0.0838 -0.7096 -0.6996
vn -0.5546 -0.8295 -0.0664
vn -0.0668 -0.8273 0.5577
vn 0.7107 -0.6984 0.0851
vn 0.0720 -0.8269 -0.5577
vn 0.5574 -0.8276 0.0665
usemtl None
s off
f 2/1/1 3/2/1 1/3/1
f 1/3/2 3/2/2 6/4/2 9/5/2
f 9/5/3 6/4/3 7/6/3 8/7/3 10/8/3
f 10/8/4 8/7/4 5/9/4
f 5/9/5 8/7/5 7/6/5 4/10/5
f 4/10/6 7/6/6 6/4/6 3/2/6 2/1/6
