# Blender v2.92.0 OBJ File: ''
# www.blender.org
mtllib BK39_500_017028_0091_roof.mtl
o BK39_500_017028_0091_roof
v 16.658224 75.000000 -185.497803
v 291.576324 75.000000 -245.503937
v 233.123215 144.981766 -147.916779
v 114.630577 145.000000 -122.031387
v 268.973267 117.812805 -125.357597
v 50.691113 75.000000 -29.735458
v 228.002975 75.000000 -68.500778
v 281.002533 117.785339 -70.236237
v 240.515747 75.000000 -11.326884
v 337.916290 75.000000 -32.608326
v 16.658224 0.000000 -185.497803
v 291.576324 0.000000 -245.503937
v 337.916290 0.000000 -32.608326
v 240.515747 0.000000 -11.326884
v 228.002975 0.000000 -68.500778
v 50.691113 0.000000 -29.735458
vt 0.142790 0.884300
vt 0.322900 0.525170
vt 0.046925 0.278220
vt 0.642260 0.733460
vt 0.757670 0.512230
vt 0.656690 0.424450
vt 0.677510 0.955930
vt 0.791560 0.726710
vt 0.951880 0.873120
vt 0.821340 0.044732
vn -0.6336 0.7612 0.1384
vn 0.1442 0.7378 0.6594
vn -0.6196 0.7731 0.1356
vn 0.1405 0.7527 0.6432
vn 0.6531 0.7438 -0.1422
vn 0.1376 -0.7640 0.6303
usemtl None
s off
f 6/1/1 4/2/1 1/3/1
f 6/1/2 7/4/2 5/5/2 3/6/2 4/2/2
f 7/4/3 9/7/3 8/8/3 5/5/3
f 9/7/4 10/9/4 8/8/4
f 10/9/5 2/10/5 3/6/5 5/5/5 8/8/5
f 4/2/6 1/3/6 2/10/6 3/6/6
