# Blender v2.92.0 OBJ File: ''
# www.blender.org
mtllib BK39_500_001047_0004.mtl
o BK39_500_001047_0004
v 621.260925 75.000000 -341.755219
v 650.381104 75.000000 -244.176392
v 593.100952 119.103630 -279.438934
v 594.034302 75.000000 -228.474701
v 610.700012 75.000000 -169.898499
v 536.610718 118.622780 -263.138763
v 518.558777 145.000000 -225.507217
v 517.734497 75.000000 -142.498566
v 522.888794 75.000000 -116.242714
v 459.886261 144.897064 -208.092834
v 445.170441 127.885429 -183.641617
v 451.898804 126.771935 -156.284088
v 361.373871 75.000000 -235.042068
v 353.418213 75.000000 -261.683502
v 397.696747 75.000000 -113.406181
v 407.168976 75.000000 -81.686096
v 252.854218 75.000000 -202.647598
v 297.635620 75.000000 -52.927460
v 289.230896 75.000000 -81.027420
v 243.455872 75.000000 -234.069565
v 217.983810 134.153595 -120.401649
v 226.163208 134.197159 -92.908600
v 193.606873 154.315399 -134.133484
v 169.950867 75.000000 -44.494137
v 178.013992 75.000000 -17.218922
v 138.310959 154.292358 -117.634949
v 30.565777 75.000000 -170.454803
v 76.479691 75.000000 -16.645874
v 621.260925 0.000000 -341.755219
v 650.381104 0.000000 -244.176392
v 594.034302 0.000000 -228.474701
v 610.700012 0.000000 -169.898499
v 517.734497 0.000000 -142.498566
v 522.888794 0.000000 -116.242714
v 407.168976 0.000000 -81.686096
v 397.696747 0.000000 -113.406181
v 289.230896 0.000000 -81.027420
v 297.635620 0.000000 -52.927460
v 178.013992 0.000000 -17.218922
v 169.950867 0.000000 -44.494137
v 76.479691 0.000000 -16.645874
v 30.565777 0.000000 -170.454803
v 243.455872 0.000000 -234.069565
v 252.854218 0.000000 -202.647598
v 361.373871 0.000000 -235.042068
v 353.418213 0.000000 -261.683502
vn 0.6316 -0.7525 -0.1867
vn 0.2030 0.7044 0.6801
vn 0.2021 0.7064 0.6784
vn -0.6900 -0.6937 0.2064
vn -0.6409 0.7434 0.1913
vn 0.1997 -0.7166 0.6683
vn 0.0000 -1.0000 0.0000
vn -0.6015 0.7784 0.1796
vn 0.1893 0.7499 0.6339
vn -0.6293 -0.7673 0.1235
vn 0.1870 0.7501 0.6344
vn -0.6638 -0.7237 0.1889
vn -0.1789 -0.7456 -0.6419
vn 0.6722 0.7127 -0.2006
vn -0.1860 0.7604 -0.6222
vn -0.9582 0.0000 0.2860
vn -0.2684 0.0000 -0.9633
vn -0.9618 0.0000 0.2737
vn -0.2827 0.0000 -0.9592
vn -0.9813 0.0000 0.1926
vn -0.2861 0.0000 -0.9582
vn 0.9582 0.0000 -0.2861
vn -0.2860 0.0000 -0.9582
vn -0.9581 0.0000 0.2866
vn 0.9590 0.0000 -0.2835
vn -0.2855 0.0000 -0.9584
vn 0.9582 0.0000 -0.2860
vn 0.2863 0.0000 0.9581
vn 0.2860 0.0000 0.9582
vn 0.2864 0.0000 0.9581
usemtl None
s off
f 21//1 22//1 25//1 24//1
f 25//2 18//2 22//2
f 28//3 24//3 21//3 23//3 26//3
f 23//4 20//4 17//4 19//4 18//4 22//4 21//4
f 28//5 26//5 27//5
f 27//6 20//6 23//6 26//6
f 17//7 13//7 15//7 19//7
f 15//8 16//8 12//8 11//8 10//8 14//8 13//8
f 16//9 9//9 12//9
f 12//10 11//10 8//10 9//10
f 8//11 5//11 7//11 10//11 11//11
f 7//12 6//12 4//12 5//12
f 6//13 3//13 2//13 4//13
f 2//14 1//14 3//14
f 1//15 14//15 10//15 7//15 6//15 3//15
f 29//7 30//7 31//7 32//7 33//7 34//7 35//7 36//7 37//7 38//7 39//7 40//7 41//7 42//7 43//7 44//7 45//7 46//7
f 1//16 29//16 30//16 2//16
f 2//17 30//17 31//17 4//17
f 4//18 31//18 32//18 5//18
f 5//19 32//19 33//19 8//19
f 8//20 33//20 34//20 9//20
f 9//21 34//21 35//21 16//21
f 16//22 35//22 36//22 15//22
f 15//23 36//23 37//23 19//23
f 19//24 37//24 38//24 18//24
f 18//23 38//23 39//23 25//23
f 25//25 39//25 40//25 24//25
f 24//26 40//26 41//26 28//26
f 28//27 41//27 42//27 27//27
f 27//28 42//28 43//28 20//28
f 20//24 43//24 44//24 17//24
f 17//29 44//29 45//29 13//29
f 13//22 45//22 46//22 14//22
f 14//30 46//30 29//30 1//30
