# Blender v2.92.0 OBJ File: ''
# www.blender.org
mtllib BK39_500_017031_0017.mtl
o BK39_500_017031_0017
v 26.533176 75.000000 -178.433578
v 510.983765 75.000000 -296.799652
v 129.096100 145.000000 -115.518776
v 449.926270 144.915192 -194.013992
v 465.751648 144.873505 -129.471039
v 66.739021 75.000000 -14.154736
v 388.894073 75.000000 -93.078812
v 567.082214 75.000000 -67.260056
v 405.002747 75.000000 -27.592422
v 26.533176 0.000000 -178.433578
v 510.983765 0.000000 -296.799652
v 567.082214 0.000000 -67.260056
v 405.002747 0.000000 -27.592422
v 388.894073 0.000000 -93.078812
v 66.739021 0.000000 -14.154736
vn -0.1527 -0.7668 -0.6235
vn -0.6239 0.7662 0.1535
vn 0.1515 0.7707 0.6189
vn -0.6227 -0.7675 0.1522
vn 0.1504 -0.7736 0.6156
vn 0.6189 -0.7707 -0.1515
vn 0.0000 -1.0000 0.0000
vn 0.2373 0.0000 0.9714
vn -0.9714 0.0000 0.2374
vn -0.2377 0.0000 -0.9713
vn 0.9711 0.0000 -0.2389
vn -0.2380 0.0000 -0.9713
vn 0.9713 0.0000 -0.2377
usemtl None
s off
f 6//1 3//1 4//1 7//1
f 9//2 5//2 4//2 7//2
f 8//3 5//3 9//3
f 2//4 8//4 5//4 4//4
f 1//5 2//5 4//5 3//5
f 3//6 6//6 1//6
f 10//7 11//7 12//7 13//7 14//7 15//7
f 1//8 10//8 11//8 2//8
f 2//9 11//9 12//9 8//9
f 8//10 12//10 13//10 9//10
f 9//11 13//11 14//11 7//11
f 7//12 14//12 15//12 6//12
f 6//13 15//13 10//13 1//13
