# Blender v2.92.0 OBJ File: ''
# www.blender.org
mtllib BK39_500_018028_0080.mtl
o BK39_500_018028_0080
v 12.845338 75.000000 -147.575073
v 34.333797 75.000000 -40.136673
v 75.668831 75.000000 -48.402714
v 78.963226 121.449326 -104.699959
v 42.489117 75.000000 -337.203674
v 77.842125 75.000000 -160.607635
v 107.072350 75.000000 -18.401096
v 144.168198 121.463806 -117.756775
v 166.850433 144.982178 -150.463715
v 142.853699 145.000000 -270.443390
v 214.075012 75.000000 -39.802410
v 223.364792 75.000000 -77.938438
v 208.690323 75.000000 -370.445129
v 265.458282 75.000000 -86.356155
v 12.845338 0.000000 -147.575073
v 34.333797 0.000000 -40.136673
v 75.668831 0.000000 -48.402714
v 107.072350 0.000000 -18.401096
v 214.075012 0.000000 -39.802410
v 223.364792 0.000000 -77.938438
v 265.458282 0.000000 -86.356155
v 208.690323 0.000000 -370.445129
v 42.489117 0.000000 -337.203674
v 77.842125 0.000000 -160.607635
vn -0.1271 -0.7614 -0.6357
vn 0.0000 1.0000 -0.0000
vn 0.6232 -0.7721 -0.1246
vn 0.1268 -0.7642 0.6324
vn 0.6220 -0.7731 -0.1245
vn 0.1245 -0.7725 0.6227
vn -0.6271 -0.7688 0.1253
vn -0.9806 0.0000 0.1961
vn 0.1961 0.0000 0.9806
vn -0.6908 0.0000 0.7231
vn 0.9716 0.0000 0.2367
vn 0.9806 0.0000 -0.1960
vn -0.1961 0.0000 -0.9806
vn -0.9805 0.0000 0.1963
vn -0.1966 0.0000 -0.9805
usemtl None
s off
f 2//1 4//1 8//1 9//1 14//1 12//1 3//1
f 3//2 7//2 11//2 12//2
f 2//3 1//3 4//3
f 1//4 6//4 8//4 4//4
f 6//5 5//5 10//5 9//5 8//5
f 5//6 13//6 10//6
f 13//7 14//7 9//7 10//7
f 15//2 16//2 17//2 18//2 19//2 20//2 21//2 22//2 23//2 24//2
f 1//8 15//8 16//8 2//8
f 2//9 16//9 17//9 3//9
f 3//10 17//10 18//10 7//10
f 7//9 18//9 19//9 11//9
f 11//11 19//11 20//11 12//11
f 12//9 20//9 21//9 14//9
f 14//12 21//12 22//12 13//12
f 13//13 22//13 23//13 5//13
f 5//14 23//14 24//14 6//14
f 6//15 24//15 15//15 1//15
