# Blender v2.92.0 OBJ File: ''
# www.blender.org
mtllib BK39_500_016031_0070.mtl
o BK39_500_016031_0070
v 157.665482 75.000000 -361.167908
v 241.436234 75.000000 -57.753822
v 168.014069 145.000000 -37.627090
v 84.589325 144.664322 -341.159760
v 95.405960 75.000000 -17.746218
v 12.335091 75.000000 -321.353394
v 157.665482 0.000000 -361.167908
v 241.436234 0.000000 -57.753822
v 95.405960 0.000000 -17.746218
v 12.335091 0.000000 -321.353394
vn 0.6568 -0.7323 -0.1797
vn 0.6524 0.7361 -0.1801
vn 0.2642 -0.0002 0.9645
vn -0.2642 -0.0002 -0.9645
vn 0.0000 -1.0000 0.0000
vn -0.9639 0.0000 0.2661
vn -0.2642 0.0000 -0.9645
vn 0.9645 0.0000 -0.2639
vn 0.2642 0.0000 0.9645
usemtl None
s off
f 5//1 6//1 4//1 3//1
f 3//2 2//2 1//2 4//2
f 2//3 3//3 5//3
f 6//4 4//4 1//4
f 7//5 8//5 9//5 10//5
f 1//6 7//6 8//6 2//6
f 2//7 8//7 9//7 5//7
f 5//8 9//8 10//8 6//8
f 6//9 10//9 7//9 1//9
