# Blender v2.92.0 OBJ File: ''
# www.blender.org
mtllib BK39_500_018024_0023.mtl
o BK39_500_018024_0023
v 61.204224 75.000000 -279.493927
v 123.792740 144.840515 -265.726288
v 186.992920 75.000000 -251.820084
v 8.603221 75.000000 -41.504330
v 134.679123 75.000000 -13.767056
v 71.333801 145.000000 -27.701332
v 61.204224 0.000000 -279.493927
v 186.992920 0.000000 -251.820084
v 134.679123 0.000000 -13.767056
v 8.603221 0.000000 -41.504330
vn -0.7164 -0.6797 -0.1574
vn 0.7195 -0.6761 0.1590
vn 0.2149 -0.0000 -0.9766
vn -0.2149 -0.0000 0.9766
vn 0.0000 -1.0000 0.0000
vn -0.9767 0.0000 -0.2146
vn 0.9764 0.0000 0.2158
usemtl None
s off
f 6//1 2//1 3//1 5//1
f 6//2 4//2 1//2 2//2
f 1//3 2//3 3//3
f 5//4 6//4 4//4
f 7//5 8//5 9//5 10//5
f 1//4 7//4 8//4 3//4
f 3//6 8//6 9//6 5//6
f 5//3 9//3 10//3 4//3
f 4//7 10//7 7//7 1//7
