# Blender v2.92.0 OBJ File: ''
# www.blender.org
mtllib BK39_500_018029_0002.mtl
o BK39_500_018029_0002
v 24.880505 75.000000 -276.397430
v 116.124130 124.448822 -260.032745
v 225.118057 75.000000 -403.132477
v 164.045868 116.108337 -302.864441
v 226.086349 144.991333 -298.840881
v 110.040115 75.000000 -141.123825
v 178.409286 75.000000 -228.964050
v 244.193481 75.000000 -85.047096
v 288.721375 75.000000 -143.405060
v 361.788879 145.000000 -193.602036
v 366.476593 121.096420 -153.472672
v 320.724365 120.836151 -94.028610
v 330.505554 75.000000 -18.099478
v 477.481995 75.000000 -207.445297
v 24.880505 0.000000 -276.397430
v 225.118057 0.000000 -403.132477
v 477.481995 0.000000 -207.445297
v 330.505554 0.000000 -18.099478
v 244.193481 0.000000 -85.047096
v 288.721375 0.000000 -143.405060
v 178.409286 0.000000 -228.964050
v 110.040115 0.000000 -141.123825
vn -0.4953 0.8108 0.3118
vn 0.4631 0.8097 0.3604
vn -0.3911 0.7699 0.5043
vn 0.5096 0.7641 0.3956
vn -0.3966 0.7624 0.5113
vn 0.5068 -0.7704 0.3867
vn -0.3983 -0.7599 0.5137
vn 0.3314 -0.7848 0.5236
vn 0.0000 -1.0000 0.0000
vn 0.5348 0.0000 0.8450
vn -0.6128 0.0000 0.7903
vn -0.7899 0.0000 -0.6132
vn 0.6129 0.0000 -0.7902
vn 0.7950 0.0000 0.6066
vn -0.7891 0.0000 -0.6142
vn 0.8463 0.0000 -0.5328
usemtl None
s off
f 1//1 6//1 2//1
f 6//2 7//2 4//2 2//2
f 7//3 9//3 11//3 10//3 5//3 4//3
f 13//4 14//4 10//4 11//4 12//4
f 8//5 13//5 12//5
f 8//6 9//6 11//6 12//6
f 5//7 3//7 14//7 10//7
f 1//8 3//8 5//8 4//8 2//8
f 15//9 16//9 17//9 18//9 19//9 20//9 21//9 22//9
f 1//10 15//10 16//10 3//10
f 3//11 16//11 17//11 14//11
f 14//12 17//12 18//12 13//12
f 13//13 18//13 19//13 8//13
f 8//14 19//14 20//14 9//14
f 9//13 20//13 21//13 7//13
f 7//15 21//15 22//15 6//15
f 6//16 22//16 15//16 1//16
