# Blender v2.92.0 OBJ File: ''
# www.blender.org
mtllib BK39_500_012031_0001_roof.mtl
o BK39_500_012031_0001_roof
v 143.784286 75.000000 -19.455811
v 347.468231 75.000000 -115.550560
v 60.302586 145.000000 -196.278793
v 264.076019 144.931198 -292.203247
v 17.588503 75.000000 -286.767059
v 221.395859 75.000000 -382.598785
v 143.784286 0.000000 -19.455811
v 347.468231 0.000000 -115.550560
v 221.395859 0.000000 -382.598785
v 17.588503 0.000000 -286.767059
vt 0.165670 0.510530
vt 0.725480 0.271310
vt 0.954580 0.711840
vt 0.395010 0.951480
vt 0.048320 0.284870
vt 0.608230 0.045888
vn -0.1438 -0.9415 -0.3048
vn 0.2439 -0.8194 0.5187
vn -0.9043 0.0001 0.4269
vn 0.9043 0.0001 -0.4269
usemtl None
s off
f 3/1/1 4/2/1 2/3/1 1/4/1
f 3/1/2 5/5/2 6/6/2 4/2/2
f 2/3/3 4/2/3 6/6/3
f 5/5/4 3/1/4 1/4/4
