# Blender v2.92.0 OBJ File: ''
# www.blender.org
mtllib BK39_500_018024_0024.mtl
o BK39_500_018024_0024
v 203.857178 75.000000 -15.389297
v 256.569550 75.000000 -263.238678
v 183.258453 143.661026 -278.825165
v 129.115387 145.000000 -31.266603
v 109.883934 70.140083 -294.411621
v 54.677235 70.414337 -47.092670
v 65.738663 75.000000 -303.793762
v 13.047445 75.000000 -55.939209
v 203.857178 0.000000 -15.389297
v 256.569550 0.000000 -263.238678
v 65.738663 0.000000 -303.793762
v 13.047445 0.000000 -55.939209
vn 0.1048 0.9942 0.0223
vn -0.6830 0.7142 -0.1532
vn 0.6607 0.7374 0.1405
vn -0.2079 0.0001 0.9782
vn 0.2079 0.0001 -0.9782
vn 0.0000 1.0000 0.0000
vn 0.9781 0.0000 0.2080
vn 0.2079 0.0000 -0.9782
vn -0.9781 0.0000 -0.2079
vn -0.2079 0.0000 0.9782
usemtl None
s off
f 6//1 5//1 7//1 8//1
f 6//2 4//2 3//2 5//2
f 4//3 1//3 2//3 3//3
f 2//4 3//4 5//4 7//4
f 8//5 6//5 4//5 1//5
f 9//6 10//6 11//6 12//6
f 1//7 9//7 10//7 2//7
f 2//8 10//8 11//8 7//8
f 7//9 11//9 12//9 8//9
f 8//10 12//10 9//10 1//10
