# Blender v2.92.0 OBJ File: ''
# www.blender.org
mtllib BK39_500_016025_0018_roof.mtl
o BK39_500_016025_0018_roof
v 422.104919 75.000000 -212.046371
v 378.682068 75.000000 -390.109467
v 311.823761 145.000000 -277.452972
v 339.632141 75.000000 -90.956184
v 321.714661 75.000000 -164.429947
v 259.450409 75.000000 -172.438248
v 264.769531 75.000000 -150.543121
v 282.622711 75.000000 -77.053764
v 286.361359 75.000000 -61.664310
v 150.746643 144.977646 -238.199493
v 177.705582 144.957932 -127.335518
v 131.775055 144.797424 -233.820648
v 109.628128 75.000000 -18.565550
v 82.468163 75.000000 -130.145935
v 63.869728 75.000000 -126.088409
v 20.764460 75.000000 -302.818817
v 422.104919 0.000000 -212.046371
v 378.682068 0.000000 -390.109467
v 20.764460 0.000000 -302.818817
v 63.869728 0.000000 -126.088409
v 82.468163 0.000000 -130.145935
v 109.628128 0.000000 -18.565550
v 286.361359 0.000000 -61.664310
v 282.622711 0.000000 -77.053764
v 339.632141 0.000000 -90.956184
v 321.714661 0.000000 -164.429947
v 264.769531 0.000000 -150.543121
v 259.450409 0.000000 -172.438248
vt 0.248030 0.954610
vt 0.402050 0.688670
vt 0.647880 0.849230
vt 0.639420 0.811600
vt 0.768400 0.777610
vt 0.727860 0.597970
vt 0.599030 0.631920
vt 0.186580 0.681790
vt 0.341060 0.417610
vt 0.144500 0.691720
vt 0.298130 0.428310
vt 0.586990 0.578390
vt 0.705480 0.321630
vt 0.954990 0.481550
vt 0.856750 0.046187
vt 0.046978 0.259610
vn -0.1459 -0.7880 -0.5981
vn 0.0000 1.0000 0.0000
vn -0.5886 0.7956 0.1433
vn -0.1299 -0.7928 -0.5955
vn -0.1456 -0.7882 -0.5980
vn -0.5960 -0.7898 0.1448
vn -0.5897 -0.7947 0.1438
vn 0.1419 -0.8008 0.5818
vn 0.5892 -0.7951 -0.1437
usemtl None
s off
f 13/1/1 11/2/1 9/3/1
f 8/4/2 4/5/2 5/6/2 7/7/2
f 14/8/3 13/1/3 11/2/3 10/9/3
f 15/10/4 12/11/4 10/9/4 14/8/4
f 6/12/5 10/9/5 3/13/5 1/14/5
f 6/12/6 7/7/6 8/4/6 9/3/6 11/2/6 10/9/6
f 1/14/7 3/13/7 2/15/7
f 2/15/8 3/13/8 10/9/8 12/11/8 16/16/8
f 16/16/9 12/11/9 15/10/9
