# Blender v2.92.0 OBJ File: ''
# www.blender.org
mtllib BK39_500_017028_0073.mtl
o BK39_500_017028_0073
v 393.703583 75.000000 -82.017525
v 361.046082 75.000000 -237.246368
v 297.918549 144.932571 -144.474030
v 200.165741 75.000000 -326.268311
v 170.389694 75.000000 -467.801636
v 199.327576 75.000000 -203.407822
v 173.845108 75.000000 -320.691589
v 169.484100 145.000000 -117.523247
v 112.376167 137.215607 -382.341888
v 105.016228 137.220230 -380.788025
v 149.096939 129.876709 -130.463348
v 97.968697 129.179886 -369.644440
v 107.843864 75.000000 -21.855215
v 20.660820 75.000000 -436.300690
v 393.703583 0.000000 -82.017525
v 361.046082 0.000000 -237.246368
v 199.327576 0.000000 -203.407822
v 173.845108 0.000000 -320.691589
v 200.165741 0.000000 -326.268311
v 170.389694 0.000000 -467.801636
v 20.660820 0.000000 -436.300690
v 107.843864 0.000000 -21.855215
vn -0.1347 -0.7563 -0.6402
vn -0.6401 -0.7564 0.1347
vn 0.1368 -0.7440 0.6540
vn -0.6328 -0.7620 0.1375
vn -0.1344 -0.7613 -0.6343
vn -0.6279 -0.7670 0.1321
vn -0.1349 0.7552 -0.6414
vn -0.6443 0.7526 0.1355
vn 0.0000 1.0000 0.0000
vn 0.9786 0.0000 -0.2059
vn -0.2048 0.0000 -0.9788
vn 0.9772 0.0000 -0.2123
vn 0.2073 0.0000 0.9783
vn -0.2059 0.0000 -0.9786
vn -0.9786 0.0000 0.2059
vn 0.2059 0.0000 0.9786
usemtl None
s off
f 13//1 8//1 3//1 1//1
f 3//2 2//2 1//2
f 8//3 11//3 6//3 2//3 3//3
f 11//4 12//4 7//4 6//4
f 12//5 10//5 9//5 4//5 7//5
f 9//6 5//6 4//6
f 5//7 14//7 10//7 9//7
f 14//8 13//8 8//8 11//8 12//8 10//8
f 15//9 16//9 17//9 18//9 19//9 20//9 21//9 22//9
f 1//10 15//10 16//10 2//10
f 2//11 16//11 17//11 6//11
f 6//12 17//12 18//12 7//12
f 7//13 18//13 19//13 4//13
f 4//10 19//10 20//10 5//10
f 5//14 20//14 21//14 14//14
f 14//15 21//15 22//15 13//15
f 13//16 22//16 15//16 1//16
