# Blender v2.92.0 OBJ File: ''
# www.blender.org
mtllib BK39_500_012032_0029.mtl
o BK39_500_012032_0029
v 239.256363 75.000000 -17.643164
v 478.907349 75.000000 -23.235748
v 415.233948 126.652847 -86.532936
v 307.399231 126.631012 -83.989075
v 475.962860 75.000000 -149.827682
v 371.822235 75.000000 -147.345718
v 235.963379 75.000000 -183.894440
v 143.016357 75.000000 -182.683609
v 142.351852 75.000000 -208.799286
v 30.120661 75.000000 -206.360687
v 303.744476 126.373528 -251.015564
v 279.392853 145.000000 -274.714233
v 233.814224 144.823349 -273.892761
v 220.600433 135.158020 -286.618256
v 104.564590 135.090500 -284.011597
v 366.485107 75.000000 -371.126953
v 26.471972 75.000000 -363.221985
v 239.256363 0.000000 -17.643164
v 478.907349 0.000000 -23.235748
v 475.962860 0.000000 -149.827682
v 371.822235 0.000000 -147.345718
v 366.485107 0.000000 -371.126953
v 26.471972 0.000000 -363.221985
v 30.120661 0.000000 -206.360687
v 142.351852 0.000000 -208.799286
v 143.016357 0.000000 -182.683609
v 235.963379 0.000000 -183.894440
vn 0.0135 0.7845 0.6200
vn 0.6189 -0.7853 -0.0144
vn 0.0138 -0.8031 0.5956
vn -0.6165 -0.7872 0.0147
vn 0.0153 -0.7674 0.6409
vn -0.6388 -0.7692 0.0149
vn -0.0145 -0.7818 -0.6234
vn 0.5965 -0.8025 -0.0118
vn -0.0080 -0.7902 -0.6128
vn 0.5998 -0.8000 -0.0153
vn 0.0000 1.0000 0.0000
vn 0.0233 0.0000 0.9997
vn 0.9997 0.0000 -0.0233
vn -0.0238 0.0000 -0.9997
vn 0.9997 0.0000 -0.0238
vn -0.0232 0.0000 -0.9997
vn -0.9997 0.0000 0.0233
vn 0.0217 0.0000 0.9998
vn -0.9997 0.0000 0.0254
vn 0.0130 0.0000 0.9999
vn -0.9998 0.0000 0.0198
usemtl None
s off
f 10//1 9//1 14//1 15//1
f 15//2 10//2 17//2
f 17//3 16//3 12//3 13//3 14//3 15//3
f 16//4 6//4 4//4 11//4 12//4
f 6//5 5//5 3//5 4//5
f 5//6 2//6 3//6
f 2//7 1//7 4//7 3//7
f 1//8 7//8 11//8 4//8
f 8//9 13//9 12//9 11//9 7//9
f 8//10 9//10 14//10 13//10
f 18//11 19//11 20//11 21//11 22//11 23//11 24//11 25//11 26//11 27//11
f 1//12 18//12 19//12 2//12
f 2//13 19//13 20//13 5//13
f 5//14 20//14 21//14 6//14
f 6//15 21//15 22//15 16//15
f 16//16 22//16 23//16 17//16
f 17//17 23//17 24//17 10//17
f 10//18 24//18 25//18 9//18
f 9//19 25//19 26//19 8//19
f 8//20 26//20 27//20 7//20
f 7//21 27//21 18//21 1//21
