# Blender v2.92.0 OBJ File: ''
# www.blender.org
mtllib BK39_500_018026_0048_roof.mtl
o BK39_500_018026_0048_roof
v 17.049442 75.000000 -119.071693
v 204.182571 75.000000 -349.357727
v 267.267212 145.000000 -297.895569
v 79.856560 144.708496 -67.805618
v 330.680511 75.000000 -246.135925
v 143.019684 75.000000 -16.278557
v 17.049442 0.000000 -119.071693
v 204.182571 0.000000 -349.357727
v 330.680511 0.000000 -246.135925
v 143.019684 0.000000 -16.278557
vt 0.230130 0.814230
vt 0.770220 0.183850
vt 0.952970 0.325650
vt 0.412160 0.955400
vt 0.049134 0.673780
vt 0.588420 0.042856
vn -0.5034 -0.7600 -0.4110
vn 0.5060 -0.7583 0.4112
vn 0.6322 -0.0002 -0.7748
vn -0.6322 -0.0002 0.7748
usemtl None
s off
f 4/1/1 3/2/1 5/3/1 6/4/1
f 4/1/2 1/5/2 2/6/2 3/2/2
f 2/6/3 3/2/3 5/3/3
f 6/4/4 4/1/4 1/5/4
