# Blender v2.92.0 OBJ File: ''
# www.blender.org
mtllib BK39_500_018030_0023.mtl
o BK39_500_018030_0023
v 51.287979 75.000000 -351.339508
v 388.969421 75.000000 -275.682495
v 265.884460 117.180733 -249.645599
v 329.059967 117.361893 -235.260956
v 110.709679 137.230637 -258.927795
v 219.710678 137.520889 -234.137360
v 226.995575 145.000000 -222.998840
v 366.152618 75.000000 -173.864685
v 301.740601 75.000000 -188.761154
v 18.371288 75.000000 -204.430298
v 125.375381 75.000000 -179.746948
v 206.498688 144.947357 -132.887207
v 186.414581 131.646286 -121.251213
v 265.948395 75.000000 -31.881052
v 235.135635 75.000000 -39.313244
v 95.278526 75.000000 -46.983124
v 230.368820 75.000000 -16.714045
v 166.698898 132.221085 -30.955359
v 51.287979 0.000000 -351.339508
v 388.969421 0.000000 -275.682495
v 366.152618 0.000000 -173.864685
v 301.740601 0.000000 -188.761154
v 265.948395 0.000000 -31.881052
v 235.135635 0.000000 -39.313244
v 230.368820 0.000000 -16.714045
v 95.278526 0.000000 -46.983124
v 125.375381 0.000000 -179.746948
v 18.371288 0.000000 -204.430298
vn 0.6452 0.7518 0.1361
vn 0.1498 -0.7694 -0.6210
vn -0.6398 -0.7546 -0.1460
vn 0.1432 -0.7721 -0.6192
vn -0.6336 -0.7605 -0.1420
vn -0.1372 -0.7785 0.6125
vn 0.6077 -0.7824 0.1362
vn -0.6006 0.7878 -0.1362
vn 0.1448 -0.7647 -0.6279
vn -0.2186 -0.0004 0.9758
vn 0.0000 -1.0000 0.0000
vn -0.2186 0.0000 0.9758
vn -0.9758 0.0000 -0.2187
vn 0.2253 0.0000 -0.9743
vn -0.9749 0.0000 -0.2224
vn 0.2345 0.0000 -0.9721
vn -0.9785 0.0000 -0.2064
vn 0.2186 0.0000 -0.9758
vn 0.9753 0.0000 0.2211
vn 0.2248 0.0000 -0.9744
vn 0.9758 0.0000 0.2186
usemtl None
s off
f 18//1 17//1 15//1 13//1
f 13//2 12//2 14//2 15//2
f 14//3 12//3 7//3 3//3 9//3
f 9//4 3//4 4//4 8//4
f 8//5 4//5 2//5
f 2//6 4//6 3//6 7//6 6//6 5//6 1//6
f 1//7 5//7 10//7
f 16//8 18//8 13//8 12//8 7//8 6//8 11//8
f 10//9 5//9 6//9 11//9
f 17//10 18//10 16//10
f 19//11 20//11 21//11 22//11 23//11 24//11 25//11 26//11 27//11 28//11
f 1//12 19//12 20//12 2//12
f 2//13 20//13 21//13 8//13
f 8//14 21//14 22//14 9//14
f 9//15 22//15 23//15 14//15
f 14//16 23//16 24//16 15//16
f 15//17 24//17 25//17 17//17
f 17//18 25//18 26//18 16//18
f 16//19 26//19 27//19 11//19
f 11//20 27//20 28//20 10//20
f 10//21 28//21 19//21 1//21
