# Blender v2.92.0 OBJ File: ''
# www.blender.org
mtllib BK39_500_018028_0099.mtl
o BK39_500_018028_0099
v 191.578552 75.000000 -379.316681
v 18.907194 75.000000 -295.470215
v 216.686081 75.000000 -327.770386
v 247.769257 75.000000 -342.864014
v 145.136200 144.926620 -255.795044
v 289.076599 75.000000 -295.178375
v 36.547215 75.000000 -159.041031
v 75.758347 75.000000 -178.081528
v 88.399574 75.000038 -151.979385
v 50.460564 75.000000 -130.316696
v 38.573246 75.000000 -123.529182
v 308.826599 75.000000 -254.505707
v 184.184738 145.000000 -175.397858
v 370.421204 75.000000 -255.473846
v 167.826218 119.107193 -127.354401
v 113.381493 117.629555 -98.611443
v 396.775665 75.000000 -201.200150
v 300.991638 75.000000 -154.689209
v 313.173523 75.000000 -129.679520
v 88.552559 75.000000 -20.535549
v 191.578552 0.000000 -379.316681
v 18.907194 0.000000 -295.470215
v 75.758347 0.000000 -178.081528
v 36.547215 0.000000 -159.041031
v 50.460564 0.000000 -130.316696
v 38.573246 0.000000 -123.529182
v 88.552559 0.000000 -20.535549
v 313.173523 0.000000 -129.679520
v 300.991638 0.000000 -154.689209
v 396.775665 0.000000 -201.200150
v 370.421204 0.000000 -255.473846
v 308.826599 0.000000 -254.505707
v 289.076599 0.000000 -295.178375
v 247.769257 0.000000 -342.864014
v 216.686081 0.000000 -327.770386
vn -0.5288 0.8092 0.2561
vn -0.2665 0.7924 -0.5488
vn 0.5299 0.8078 -0.2581
vn 0.2549 0.8123 0.5246
vn -0.5423 0.7979 0.2632
vn -0.2913 0.8093 -0.5101
vn -0.0000 1.0000 -0.0000
vn -0.4368 0.0000 -0.8996
vn -0.9000 0.0000 0.4359
vn -0.4959 0.0000 -0.8684
vn -0.8997 0.0000 0.4366
vn 0.4370 0.0000 0.8994
vn 0.8990 0.0000 -0.4379
vn 0.4368 0.0000 0.8996
vn 0.8996 0.0000 -0.4368
vn -0.0157 0.0000 -0.9999
vn 0.7558 0.0000 -0.6547
usemtl None
s off
f 9//1 15//1 13//1 5//1 2//1 8//1
f 2//2 5//2 1//2
f 13//3 19//3 18//3 3//3 1//3 5//3
f 20//4 19//4 13//4 15//4 16//4
f 11//5 20//5 16//5
f 11//6 16//6 15//6 9//6 10//6
f 7//7 10//7 9//7 8//7
f 18//7 17//7 14//7 12//7 6//7 4//7 3//7
f 21//7 22//7 23//7 24//7 25//7 26//7 27//7 28//7 29//7 30//7 31//7 32//7 33//7 34//7 35//7
f 1//8 21//8 22//8 2//8
f 2//9 22//9 23//9 8//9
f 8//8 23//8 24//8 7//8
f 7//9 24//9 25//9 10//9
f 10//10 25//10 26//10 11//10
f 11//11 26//11 27//11 20//11
f 20//12 27//12 28//12 19//12
f 19//13 28//13 29//13 18//13
f 18//14 29//14 30//14 17//14
f 17//15 30//15 31//15 14//15
f 14//16 31//16 32//16 12//16
f 12//15 32//15 33//15 6//15
f 6//17 33//17 34//17 4//17
f 4//8 34//8 35//8 3//8
f 3//13 35//13 21//13 1//13
