# Blender v2.92.0 OBJ File: ''
# www.blender.org
mtllib BK39_500_014033_0005_roof.mtl
o BK39_500_014033_0005_roof
v 377.252655 75.000000 -200.477814
v 180.524094 75.000000 -373.903748
v 206.597870 145.000000 -187.126785
v 192.893509 145.000000 -199.207855
v 215.485062 75.000000 -16.974178
v 18.756523 75.000000 -190.400162
v 377.252655 0.000000 -200.477814
v 180.524094 0.000000 -373.903748
v 18.756523 0.000000 -190.400162
v 215.485062 0.000000 -16.974178
vt 0.523030 0.521410
vt 0.545530 0.956590
vt 0.047485 0.513040
vt 0.488340 0.490520
vt 0.955070 0.487270
vt 0.457020 0.043724
vn 0.3296 -0.8669 -0.3739
vn 0.3799 0.8623 0.3349
vn 0.3274 0.8689 -0.3713
vn -0.3670 0.8722 -0.3235
usemtl None
s off
f 3/1/1 5/2/1 6/3/1 4/4/1
f 5/2/2 1/5/2 3/1/2
f 1/5/3 2/6/3 4/4/3 3/1/3
f 2/6/4 6/3/4 4/4/4
