# Blender v2.92.0 OBJ File: ''
# www.blender.org
mtllib BK39_500_016027_0099_roof.mtl
o BK39_500_016027_0099_roof
v 331.239288 75.000000 -48.723785
v 401.215027 75.000000 -66.885628
v 337.892029 75.000000 -50.878696
v 194.186386 75.000000 -14.077060
v 246.901108 134.411850 -95.992195
v 400.366058 75.000000 -170.395233
v 313.222229 75.000000 -148.471985
v 307.047028 75.000000 -146.918457
v 376.563324 75.000000 -164.407043
v 161.581696 75.000000 -143.267853
v 52.028896 75.000000 -117.182938
v 221.368973 134.661942 -198.383255
v 230.340195 144.961121 -213.245209
v 299.560455 145.000000 -230.706985
v 212.887131 133.071121 -224.205017
v 35.896004 132.007141 -180.803680
v 358.471344 75.000000 -336.129852
v 18.417994 75.000000 -250.099350
v 331.239288 0.000000 -48.723785
v 194.186386 0.000000 -14.077060
v 161.581696 0.000000 -143.267853
v 52.028896 0.000000 -117.182938
v 18.417994 0.000000 -250.099350
v 358.471344 0.000000 -336.129852
v 400.366058 0.000000 -170.395233
v 376.563324 0.000000 -164.407043
v 401.215027 0.000000 -66.885628
v 337.892029 0.000000 -50.878696
v 313.222229 0.000000 -148.471985
v 307.047028 0.000000 -146.918457
vt 0.123580 0.665190
vt 0.383800 0.590660
vt 0.505670 0.359410
vt 0.085264 0.483420
vt 0.461250 0.959780
vt 0.586460 0.725740
vt 0.525820 0.433190
vt 0.547130 0.390730
vt 0.786790 0.860790
vt 0.729330 0.580230
vt 0.744000 0.575790
vt 0.894450 0.530270
vt 0.950990 0.513160
vt 0.711550 0.340840
vt 0.802590 0.854630
vt 0.953000 0.808900
vt 0.851480 0.039629
vt 0.043748 0.285430
vn 0.1519 0.7549 0.6380
vn -0.6214 0.7676 0.1568
vn 0.1633 0.7457 0.6459
vn 0.6253 0.7650 -0.1540
vn 0.1572 0.7648 0.6249
vn 0.0000 1.0000 0.0000
vn 0.6253 0.7642 -0.1581
vn 0.1529 -0.7818 0.6045
vn -0.9695 -0.0008 0.2452
usemtl None
s off
f 11/1/1 10/2/1 15/3/1 16/4/1
f 10/2/2 4/5/2 5/6/2 12/7/2 13/8/2 15/3/2
f 4/5/3 1/9/3 5/6/3
f 1/9/4 8/10/4 12/7/4 5/6/4
f 8/10/5 7/11/5 9/12/5 6/13/5 14/14/5 13/8/5 12/7/5
f 7/11/6 3/15/6 2/16/6 9/12/6
f 6/13/7 17/17/7 14/14/7
f 16/4/8 18/18/8 17/17/8 14/14/8 13/8/8 15/3/8
f 11/1/9 16/4/9 18/18/9
