# Blender v2.92.0 OBJ File: ''
# www.blender.org
mtllib BK39_500_015032_0061.mtl
o BK39_500_015032_0061
v 277.127441 75.000000 -471.366547
v 352.855530 75.000000 -188.750473
v 319.598724 75.000000 -179.107681
v 347.460968 75.000000 -75.187874
v 236.183563 115.598495 -399.261688
v 264.508270 115.865387 -292.075806
v 251.294083 129.047394 -268.365540
v 257.614349 129.041519 -244.811081
v 245.855072 116.692741 -222.281128
v 248.395493 116.690903 -212.816238
v 191.233963 75.000000 -334.222534
v 163.439148 75.000000 -440.936096
v 219.913895 145.000000 -161.605560
v 223.891251 144.978043 -146.893097
v 158.082413 75.000000 -325.122894
v 176.193069 75.000000 -257.718384
v 198.353882 133.228546 -173.969955
v 120.366974 133.173111 -153.206345
v 137.046158 75.000000 -68.831345
v 149.740311 75.000000 -22.271944
v 16.323624 75.000000 -214.979050
v 60.845497 75.000000 -48.625984
v 277.127441 0.000000 -471.366547
v 352.855530 0.000000 -188.750473
v 319.598724 0.000000 -179.107681
v 347.460968 0.000000 -75.187874
v 149.740311 0.000000 -22.271944
v 137.046158 0.000000 -68.831345
v 60.845497 0.000000 -48.625984
v 16.323624 0.000000 -214.979050
v 176.193069 0.000000 -257.718384
v 158.082413 0.000000 -325.122894
v 191.233963 0.000000 -334.222534
v 163.439148 0.000000 -440.936096
vn 0.5375 -0.8305 -0.1465
vn -0.1470 -0.8225 -0.5494
vn 0.5509 0.8214 -0.1477
vn -0.1441 0.8299 -0.5389
vn -0.5476 0.8238 0.1466
vn 0.1438 0.8278 0.5423
vn 0.1554 0.8298 0.5359
vn 0.5526 0.8202 -0.1481
vn 0.1465 -0.8241 0.5472
vn -0.5430 0.8277 0.1414
vn -0.1489 0.8267 -0.5426
vn -0.5632 0.8124 0.1513
vn 0.0000 -1.0000 0.0000
vn -0.9659 0.0000 0.2588
vn -0.2785 0.0000 -0.9604
vn -0.9659 0.0000 0.2590
vn -0.2585 0.0000 -0.9660
vn 0.9648 0.0000 -0.2630
vn -0.2563 0.0000 -0.9666
vn 0.9660 0.0000 -0.2585
vn 0.2583 0.0000 0.9661
vn 0.9657 0.0000 -0.2595
vn 0.2647 0.0000 0.9643
vn 0.9677 0.0000 -0.2521
vn 0.2586 0.0000 0.9660
usemtl None
s off
f 20//1 19//1 17//1 13//1 14//1
f 14//2 4//2 20//2
f 14//3 4//3 3//3 9//3 10//3 13//3
f 10//4 16//4 21//4 18//4 17//4 13//4
f 21//5 22//5 18//5
f 22//6 19//6 17//6 18//6
f 3//7 2//7 8//7 9//7
f 2//8 1//8 5//8 6//8 7//8 8//8
f 5//9 12//9 1//9
f 12//10 11//10 6//10 5//10
f 11//11 15//11 7//11 6//11
f 15//12 16//12 10//12 9//12 8//12 7//12
f 23//13 24//13 25//13 26//13 27//13 28//13 29//13 30//13 31//13 32//13 33//13 34//13
f 1//14 23//14 24//14 2//14
f 2//15 24//15 25//15 3//15
f 3//16 25//16 26//16 4//16
f 4//17 26//17 27//17 20//17
f 20//18 27//18 28//18 19//18
f 19//19 28//19 29//19 22//19
f 22//20 29//20 30//20 21//20
f 21//21 30//21 31//21 16//21
f 16//22 31//22 32//22 15//22
f 15//23 32//23 33//23 11//23
f 11//24 33//24 34//24 12//24
f 12//25 34//25 23//25 1//25
