# Blender v2.92.0 OBJ File: ''
# www.blender.org
mtllib BK39_500_016032_0073_roof.mtl
o BK39_500_016032_0073_roof
v 13.328239 75.000000 -269.002747
v 211.137253 75.000000 -319.721527
v 139.500381 145.000000 -194.060486
v 162.530090 131.854263 -180.321701
v 179.254807 132.080490 -113.806175
v 63.645771 75.000000 -72.769547
v 101.492981 75.000000 -81.947533
v 118.114861 75.000000 -14.472217
v 278.859467 75.000000 -55.684021
v 13.328239 0.000000 -269.002747
v 211.137253 0.000000 -319.721527
v 278.859467 0.000000 -55.684021
v 118.114861 0.000000 -14.472217
v 101.492981 0.000000 -81.947533
v 63.645771 0.000000 -72.769547
vt 0.405890 0.956800
vt 0.616000 0.660280
vt 0.958280 0.833780
vt 0.348770 0.755380
vt 0.558520 0.461730
vt 0.479380 0.420710
vt 0.218710 0.782780
vt 0.045802 0.197010
vt 0.725560 0.045607
vn -0.1430 -0.8176 -0.5578
vn 0.5496 -0.8244 -0.1354
vn 0.1352 0.8192 0.5573
vn 0.5423 -0.8286 -0.1391
vn 0.1387 -0.8294 0.5411
vn -0.5532 -0.8209 0.1419
usemtl None
s off
f 8/1/1 5/2/1 9/3/1
f 8/1/2 7/4/2 4/5/2 5/2/2
f 4/5/3 3/6/3 6/7/3 7/4/3
f 6/7/4 1/8/4 3/6/4
f 1/8/5 2/9/5 3/6/5
f 2/9/6 9/3/6 5/2/6 4/5/6 3/6/6
