# Blender v2.92.0 OBJ File: ''
# www.blender.org
mtllib BK39_500_013028_0037.mtl
o BK39_500_013028_0037
v 264.973389 75.000000 -324.629852
v 162.160538 75.000000 -282.684845
v 177.765167 75.000000 -244.101028
v 17.862026 75.000000 -179.450226
v 234.981827 118.624199 -251.678741
v 250.000336 118.670212 -214.701324
v 131.325317 145.000000 -131.385117
v 231.498123 144.884369 -172.041367
v 273.011017 119.685524 -154.873642
v 83.966568 75.000000 -17.416361
v 244.424103 75.000000 -82.790329
v 301.026337 119.697670 -86.143875
v 373.977051 75.000000 -57.370804
v 271.767212 75.000000 -15.671942
v 264.973389 0.000000 -324.629852
v 162.160538 0.000000 -282.684845
v 177.765167 0.000000 -244.101028
v 17.862026 0.000000 -179.450226
v 83.966568 0.000000 -17.416361
v 244.424103 0.000000 -82.790329
v 271.767212 0.000000 -15.671942
v 373.977051 0.000000 -57.370804
vn 0.2403 0.7715 0.5891
vn 0.5926 -0.7685 -0.2414
vn -0.2354 -0.7815 -0.5778
vn 0.5808 -0.7788 -0.2370
vn 0.2348 -0.7794 0.5808
vn 0.5704 -0.7883 -0.2307
vn 0.2316 -0.7900 0.5676
vn -0.5734 -0.7852 0.2338
vn 0.0000 1.0000 0.0000
vn -0.3777 0.0000 -0.9259
vn -0.9271 0.0000 0.3749
vn -0.3748 0.0000 -0.9271
vn -0.9259 0.0000 0.3777
vn 0.3773 0.0000 0.9261
vn -0.9261 0.0000 0.3773
vn 0.3777 0.0000 0.9259
vn 0.9259 0.0000 -0.3777
usemtl None
s off
f 14//1 13//1 12//1
f 14//2 11//2 9//2 12//2
f 11//3 10//3 7//3 8//3 9//3
f 10//4 4//4 7//4
f 4//5 3//5 6//5 8//5 7//5
f 3//6 2//6 5//6 6//6
f 2//7 1//7 5//7
f 1//8 13//8 12//8 9//8 8//8 6//8 5//8
f 15//9 16//9 17//9 18//9 19//9 20//9 21//9 22//9
f 1//10 15//10 16//10 2//10
f 2//11 16//11 17//11 3//11
f 3//12 17//12 18//12 4//12
f 4//13 18//13 19//13 10//13
f 10//14 19//14 20//14 11//14
f 11//15 20//15 21//15 14//15
f 14//16 21//16 22//16 13//16
f 13//17 22//17 15//17 1//17
