# Blender v2.92.0 OBJ File: ''
# www.blender.org
mtllib BK39_500_014034_0036.mtl
o BK39_500_014034_0036
v 24.847530 75.000000 -205.274323
v 150.504395 75.000000 -293.753418
v 132.712280 131.902542 -188.540680
v 169.698257 112.126114 -181.343201
v 221.526947 75.000000 -192.844406
v 411.947784 75.000000 -326.962250
v 113.089912 75.000000 -79.954414
v 156.909668 75.000000 -110.505768
v 208.742523 112.188347 -125.726357
v 221.530685 119.070541 -123.978638
v 274.144073 119.168877 -160.881805
v 320.856079 144.993423 -153.426544
v 391.910736 145.000000 -203.461731
v 205.008743 75.000000 -41.806820
v 315.646820 126.979851 -119.758293
v 260.029022 75.000000 -80.233383
v 321.230591 125.523575 -108.510025
v 410.122009 75.000000 -99.701134
v 518.328796 75.000000 -175.881393
v 306.120728 75.000000 -14.787520
v 412.814056 75.000000 -89.905830
v 24.847530 0.000000 -205.274323
v 150.504395 0.000000 -293.753418
v 221.526947 0.000000 -192.844406
v 411.947784 0.000000 -326.962250
v 518.328796 0.000000 -175.881393
v 410.122009 0.000000 -99.701134
v 412.814056 0.000000 -89.905830
v 306.120728 0.000000 -14.787520
v 260.029022 0.000000 -80.233383
v 205.008743 0.000000 -41.806820
v 156.909668 0.000000 -110.505768
v 113.089912 0.000000 -79.954414
vn -0.4796 0.8099 0.3377
vn 0.3375 0.8073 0.4841
vn -0.4815 0.8090 0.3371
vn 0.3468 0.7958 0.4965
vn -0.4955 0.7955 0.3489
vn 0.3435 0.8024 0.4880
vn -0.4997 -0.8552 0.1373
vn 0.3407 0.8060 0.4840
vn 0.5108 0.7808 -0.3597
vn 0.3549 -0.7875 0.5039
vn -0.4938 -0.7971 0.3476
vn 0.3457 -0.7997 0.4909
vn 0.0000 -1.0000 0.0000
vn 0.5757 0.0000 0.8176
vn -0.8178 0.0000 0.5756
vn 0.5758 0.0000 0.8176
vn -0.8176 0.0000 0.5757
vn -0.5757 0.0000 -0.8177
vn -0.9642 0.0000 0.2650
vn 0.8176 0.0000 -0.5758
vn -0.5726 0.0000 -0.8198
vn 0.8192 0.0000 -0.5735
vn -0.5719 0.0000 -0.8203
vn 0.8176 0.0000 -0.5757
usemtl None
s off
f 1//1 7//1 3//1
f 7//2 8//2 4//2 3//2
f 8//3 14//3 10//3 9//3 4//3
f 14//4 16//4 11//4 10//4
f 16//5 20//5 17//5 15//5 12//5 11//5
f 20//6 21//6 17//6
f 17//7 15//7 18//7 21//7
f 18//8 19//8 13//8 12//8 15//8
f 19//9 6//9 13//9
f 5//10 6//10 13//10 12//10 11//10 10//10 9//10
f 3//11 2//11 5//11 9//11 4//11
f 3//12 1//12 2//12
f 22//13 23//13 24//13 25//13 26//13 27//13 28//13 29//13 30//13 31//13 32//13 33//13
f 1//14 22//14 23//14 2//14
f 2//15 23//15 24//15 5//15
f 5//16 24//16 25//16 6//16
f 6//17 25//17 26//17 19//17
f 19//18 26//18 27//18 18//18
f 18//19 27//19 28//19 21//19
f 21//18 28//18 29//18 20//18
f 20//20 29//20 30//20 16//20
f 16//21 30//21 31//21 14//21
f 14//22 31//22 32//22 8//22
f 8//23 32//23 33//23 7//23
f 7//24 33//24 22//24 1//24
