# Blender v2.92.0 OBJ File: ''
# www.blender.org
mtllib BK39_500_017028_0034.mtl
o BK39_500_017028_0034
v 16.468159 75.000000 -108.324112
v 181.396164 75.000000 -367.510254
v 132.870148 144.988083 -134.401657
v 206.671600 145.000000 -250.354736
v 161.336914 75.000000 -16.134485
v 326.320038 75.000000 -275.285553
v 16.468159 0.000000 -108.324112
v 181.396164 0.000000 -367.510254
v 326.320038 0.000000 -275.285553
v 161.336914 0.000000 -16.134485
vn 0.3425 -0.7701 -0.5382
vn 0.5393 -0.7690 0.3432
vn -0.3407 -0.7729 0.5353
vn -0.5268 -0.7810 -0.3354
vn 0.0000 -1.0000 0.0000
vn 0.8437 0.0000 0.5369
vn -0.5369 0.0000 0.8437
vn -0.8436 0.0000 -0.5370
vn 0.5369 0.0000 -0.8437
usemtl None
s off
f 1//1 3//1 5//1
f 1//2 2//2 4//2 3//2
f 2//3 6//3 4//3
f 5//4 3//4 4//4 6//4
f 7//5 8//5 9//5 10//5
f 1//6 7//6 8//6 2//6
f 2//7 8//7 9//7 6//7
f 6//8 9//8 10//8 5//8
f 5//9 10//9 7//9 1//9
