# Blender v2.92.0 OBJ File: ''
# www.blender.org
mtllib BK39_500_016031_0009_roof.mtl
o BK39_500_016031_0009_roof
v 232.559219 144.947891 -21.832914
v 284.039734 75.000000 -34.386768
v 183.213562 75.000000 -9.804304
v 163.427185 75.000000 -20.371025
v 179.663818 75.000000 -24.329708
v 146.030533 75.000000 -37.946091
v 97.634644 144.714172 -26.142399
v 48.878479 75.000000 -14.259795
v 156.373962 75.000000 -49.300159
v 144.002594 75.000000 -46.283909
v 130.889954 75.000000 -159.175095
v 117.347939 75.000000 -155.873383
v 142.752289 75.000000 -175.370331
v 13.284393 75.000000 -158.868729
v 240.212372 75.000000 -214.377014
v 188.654205 145.051941 -201.808929
v 110.834572 75.000000 -182.652817
v 139.236221 75.000000 -189.757950
v 62.238285 145.000000 -170.808838
v 284.039734 0.000000 -34.386768
v 183.213562 0.000000 -9.804304
v 179.663818 0.000000 -24.329708
v 163.427185 0.000000 -20.371025
v 156.373962 0.000000 -49.300159
v 144.002594 0.000000 -46.283909
v 146.030533 0.000000 -37.946091
v 48.878479 0.000000 -14.259795
v 13.284393 0.000000 -158.868729
v 110.834572 0.000000 -182.652817
v 117.347939 0.000000 -155.873383
v 130.889954 0.000000 -159.175095
v 142.752289 0.000000 -175.370331
v 139.236221 0.000000 -189.757950
v 240.212372 0.000000 -214.377014
vt 0.630950 0.095027
vt 0.803390 0.038668
vt 0.949970 0.845800
vt 0.777790 0.902090
vt 0.612750 0.956030
vt 0.600880 0.890900
vt 0.477430 0.213590
vt 0.465670 0.149070
vt 0.437760 0.286210
vt 0.522990 0.778920
vt 0.546580 0.908650
vt 0.481610 0.792450
vt 0.392470 0.301020
vt 0.326540 0.882770
vt 0.208150 0.234040
vt 0.370680 0.180930
vt 0.488400 0.829840
vt 0.163470 0.936050
vt 0.044429 0.287580
vn -0.7745 -0.6038 0.1886
vn 0.7860 -0.5876 -0.1921
vn 0.0000 1.0000 0.0000
vn 0.0000 -1.0000 0.0000
vn -0.7906 -0.5814 0.1923
vn 0.7881 -0.5842 -0.1940
vn 0.2369 0.0000 0.9715
vn 0.2369 0.0001 0.9715
vn -0.2369 0.0001 -0.9715
vn -0.2369 0.0000 -0.9715
usemtl None
s off
f 16/1/1 15/2/1 2/3/1 1/4/1
f 3/5/2 5/6/2 13/7/2 18/8/2 16/1/2 1/4/2
f 13/7/3 11/9/3 9/10/3 4/11/3 5/6/3
f 9/10/4 10/12/4 12/13/4 11/9/4
f 7/14/5 19/15/5 17/16/5 12/13/5 10/12/5 6/17/5
f 7/14/6 8/18/6 14/19/6 19/15/6
f 15/2/7 16/1/7 18/8/7
f 17/16/8 19/15/8 14/19/8
f 8/18/9 7/14/9 6/17/9
f 3/5/10 1/4/10 2/3/10
