# Blender v2.92.0 OBJ File: ''
# www.blender.org
mtllib BK39_500_016027_0045.mtl
o BK39_500_016027_0045
v 288.949829 75.000000 -360.643066
v 319.085999 75.000000 -226.768250
v 238.399567 140.146225 -276.171722
v 264.748718 75.000000 -75.420158
v 234.972321 75.000000 -207.847275
v 150.214554 140.127945 -256.315948
v 173.315292 144.806396 -129.981689
v 146.125412 145.000000 -249.929077
v 169.012421 139.516830 -123.324860
v 142.201920 75.000000 -47.897221
v 144.420761 75.000000 -38.138451
v 85.679054 75.000000 -177.172607
v 55.770695 75.000000 -308.086212
v 97.648849 139.298996 -107.062889
v 84.624382 120.402763 -74.290672
v 82.578728 120.392509 -83.338959
v 48.603016 75.000000 -16.569286
v 16.108662 75.000000 -161.078568
v 288.949829 0.000000 -360.643066
v 319.085999 0.000000 -226.768250
v 234.972321 0.000000 -207.847275
v 264.748718 0.000000 -75.420158
v 142.201920 0.000000 -47.897221
v 144.420761 0.000000 -38.138451
v 48.603016 0.000000 -16.569286
v 16.108662 0.000000 -161.078568
v 85.679054 0.000000 -177.172607
v 55.770695 0.000000 -308.086212
vn 0.1502 0.7293 0.6675
vn -0.6534 -0.7423 0.1486
vn 0.1512 0.7240 0.6730
vn -0.6542 -0.7419 0.1471
vn -0.1543 -0.7112 -0.6859
vn -0.6756 -0.7214 0.1521
vn -0.1483 0.7382 -0.6581
vn -0.6646 0.7317 0.1518
vn -0.1513 0.7412 -0.6540
vn -0.6719 0.7251 0.1511
vn 0.0000 -1.0000 0.0000
vn -0.9756 0.0000 0.2196
vn -0.2195 0.0000 -0.9756
vn -0.9756 0.0000 0.2194
vn -0.2191 0.0000 -0.9757
vn -0.9751 0.0000 0.2217
vn -0.2196 0.0000 -0.9756
vn 0.9756 0.0000 -0.2194
vn 0.2254 0.0000 0.9743
vn 0.9749 0.0000 -0.2227
vn 0.2199 0.0000 0.9755
usemtl None
s off
f 17//1 11//1 15//1
f 15//2 16//2 10//2 11//2
f 10//3 4//3 7//3 9//3 14//3 16//3
f 7//4 8//4 6//4 5//4 4//4
f 6//5 3//5 2//5 5//5
f 3//6 1//6 2//6
f 13//7 8//7 6//7 3//7 1//7
f 13//8 12//8 9//8 7//8 8//8
f 18//9 14//9 9//9 12//9
f 18//10 17//10 15//10 16//10 14//10
f 19//11 20//11 21//11 22//11 23//11 24//11 25//11 26//11 27//11 28//11
f 1//12 19//12 20//12 2//12
f 2//13 20//13 21//13 5//13
f 5//14 21//14 22//14 4//14
f 4//15 22//15 23//15 10//15
f 10//16 23//16 24//16 11//16
f 11//17 24//17 25//17 17//17
f 17//18 25//18 26//18 18//18
f 18//19 26//19 27//19 12//19
f 12//20 27//20 28//20 13//20
f 13//21 28//21 19//21 1//21
