# Blender v2.92.0 OBJ File: ''
# www.blender.org
mtllib BK39_500_014032_0056_roof.mtl
o BK39_500_014032_0056_roof
v 10.012877 75.000000 -233.702454
v 79.130280 144.934052 -251.776794
v 149.098923 75.000000 -270.072693
v 67.667458 75.000000 -12.771567
v 206.884689 75.000000 -49.176102
v 136.850311 145.000000 -30.861965
v 10.012877 0.000000 -233.702454
v 149.098923 0.000000 -270.072693
v 206.884689 0.000000 -49.176102
v 67.667458 0.000000 -12.771567
vt 0.642490 0.890950
vt 0.371500 0.110330
vt 0.699990 0.045679
vt 0.971290 0.826230
vt 0.317690 0.954870
vt 0.047009 0.174200
vn -0.6725 -0.7189 0.1759
vn 0.6769 -0.7146 -0.1766
vn -0.2530 -0.0000 -0.9675
vn 0.2530 -0.0000 0.9675
usemtl None
s off
f 6/1/1 2/2/1 3/3/1 5/4/1
f 6/1/2 4/5/2 1/6/2 2/2/2
f 1/6/3 2/2/3 3/3/3
f 5/4/4 6/1/4 4/5/4
