# Blender v2.92.0 OBJ File: ''
# www.blender.org
mtllib BK39_500_016030_0030_roof.mtl
o BK39_500_016030_0030_roof
v 259.560516 75.000000 -59.235294
v 86.457397 75.000000 -16.517830
v 150.049377 144.986710 -123.900887
v 119.317070 145.000000 -248.492462
v 185.922516 75.000000 -357.943298
v 12.740536 75.000000 -315.206390
v 259.560516 0.000000 -59.235294
v 86.457397 0.000000 -16.517830
v 12.740536 0.000000 -315.206390
v 185.922516 0.000000 -357.943298
vt 0.316690 0.955720
vt 0.046669 0.154940
vt 0.437060 0.333800
vt 0.549630 0.667830
vt 0.950770 0.841190
vt 0.681030 0.040366
vn 0.6066 -0.7808 -0.1497
vn 0.1481 0.7861 0.6001
vn -0.5925 -0.7922 0.1461
vn -0.1468 0.7904 -0.5948
usemtl None
s off
f 2/1/1 6/2/1 4/3/1 3/4/1
f 1/5/2 3/4/2 2/1/2
f 5/6/3 1/5/3 3/4/3 4/3/3
f 5/6/4 6/2/4 4/3/4
