# Blender v2.92.0 OBJ File: ''
# www.blender.org
mtllib BK39_500_013028_0052.mtl
o BK39_500_013028_0052
v 321.362579 75.000000 -74.588470
v 284.757568 75.000000 -236.398819
v 216.481049 75.000000 -220.956360
v 207.480225 75.000000 -258.619141
v 223.008575 144.981415 -137.113022
v 164.763702 130.420227 -141.692093
v 156.232681 130.211746 -178.501282
v 115.745033 145.000000 -112.829933
v 73.975151 75.000000 -228.420868
v 82.455345 75.000000 -190.642960
v 53.412868 75.000000 -13.871841
v 16.783531 75.000000 -175.789597
v 321.362579 0.000000 -74.588470
v 284.757568 0.000000 -236.398819
v 216.481049 0.000000 -220.956360
v 207.480225 0.000000 -258.619141
v 73.975151 0.000000 -228.420868
v 82.455345 0.000000 -190.642960
v 16.783531 0.000000 -175.789597
v 53.412868 0.000000 -13.871841
vn -0.6305 0.7630 0.1426
vn 0.1420 -0.7653 0.6278
vn -0.6079 0.7822 0.1364
vn 0.1405 -0.7710 0.6212
vn -0.6105 -0.7784 0.1459
vn -0.1427 -0.7634 -0.6299
vn 0.6326 0.7612 -0.1431
vn 0.0000 1.0000 0.0000
vn 0.9754 0.0000 -0.2206
vn -0.2206 0.0000 -0.9754
vn 0.9726 0.0000 -0.2324
vn -0.9757 0.0000 0.2190
vn -0.9754 0.0000 0.2206
vn 0.2210 0.0000 0.9753
usemtl None
s off
f 8//1 12//1 11//1
f 12//2 10//2 6//2 3//2 2//2 5//2 8//2
f 6//3 7//3 9//3 10//3
f 9//4 4//4 7//4
f 4//5 3//5 6//5 7//5
f 11//6 8//6 5//6 1//6
f 1//7 2//7 5//7
f 13//8 14//8 15//8 16//8 17//8 18//8 19//8 20//8
f 1//9 13//9 14//9 2//9
f 2//10 14//10 15//10 3//10
f 3//11 15//11 16//11 4//11
f 4//10 16//10 17//10 9//10
f 9//12 17//12 18//12 10//12
f 10//10 18//10 19//10 12//10
f 12//13 19//13 20//13 11//13
f 11//14 20//14 13//14 1//14
