# Blender v2.92.0 OBJ File: ''
# www.blender.org
mtllib BK39_500_018027_0033.mtl
o BK39_500_018027_0033
v 271.722717 142.704407 -96.828056
v 335.823517 75.000000 -146.821823
v 169.615021 75.000000 -17.438147
v 207.194962 75.000000 -46.691418
v 109.712105 75.000000 -169.332748
v 73.395592 75.000000 -141.056671
v 148.378464 75.000000 -391.520142
v 15.383944 75.000000 -288.005219
v 82.006439 145.000000 -339.958984
v 335.823517 0.000000 -146.821823
v 207.194962 0.000000 -46.691418
v 169.615021 0.000000 -17.438147
v 73.395592 0.000000 -141.056671
v 109.712105 0.000000 -169.332748
v 15.383944 0.000000 -288.005219
v 148.378464 0.000000 -391.520142
vn 0.0000 -1.0000 0.0000
vn 0.4995 -0.7700 -0.3970
vn -0.5081 -0.7684 0.3892
vn 0.6142 0.0011 0.7891
vn -0.6143 0.0011 -0.7891
vn -0.6143 0.0000 -0.7891
vn 0.7891 0.0000 -0.6142
vn 0.6143 0.0000 0.7890
vn 0.7828 0.0000 -0.6222
vn 0.6142 0.0000 0.7891
vn -0.7939 0.0000 0.6081
usemtl None
s off
f 3//1 6//1 5//1 4//1
f 1//2 4//2 5//2 8//2 9//2
f 2//3 1//3 9//3 7//3
f 7//4 9//4 8//4
f 4//5 1//5 2//5
f 10//1 11//1 12//1 13//1 14//1 15//1 16//1
f 2//6 10//6 11//6 4//6
f 4//6 11//6 12//6 3//6
f 3//7 12//7 13//7 6//7
f 6//8 13//8 14//8 5//8
f 5//9 14//9 15//9 8//9
f 8//10 15//10 16//10 7//10
f 7//11 16//11 10//11 2//11
