# Blender v2.92.0 OBJ File: ''
# www.blender.org
mtllib BK39_500_014027_0086.mtl
o BK39_500_014027_0086
v 286.128784 75.000000 -185.719284
v 188.743225 75.000000 -284.920074
v 247.998398 75.000000 -48.495747
v 148.105194 145.000000 -148.073410
v 112.002235 75.000000 -13.398291
v 51.471813 75.000000 -249.493515
v 13.694039 75.000000 -113.538918
v 286.128784 0.000000 -185.719284
v 188.743225 0.000000 -284.920074
v 51.471813 0.000000 -249.493515
v 13.694039 0.000000 -113.538918
v 112.002235 0.000000 -13.398291
v 247.998398 0.000000 -48.495747
vn -0.1248 -0.8663 -0.4837
vn 0.4768 0.8689 0.1325
vn 0.3490 0.8723 -0.3426
vn -0.1241 0.8680 -0.4808
vn -0.4847 0.8643 -0.1347
vn 0.3593 -0.8640 -0.3527
vn 0.0000 1.0000 0.0000
vn 0.7136 0.0000 -0.7005
vn -0.2499 0.0000 -0.9683
vn -0.9635 0.0000 -0.2677
vn -0.7136 0.0000 0.7005
vn 0.2499 0.0000 0.9683
vn 0.9635 0.0000 0.2677
usemtl None
s off
f 5//1 4//1 3//1
f 3//2 1//2 4//2
f 1//3 2//3 4//3
f 2//4 6//4 4//4
f 4//5 6//5 7//5
f 4//6 5//6 7//6
f 8//7 9//7 10//7 11//7 12//7 13//7
f 1//8 8//8 9//8 2//8
f 2//9 9//9 10//9 6//9
f 6//10 10//10 11//10 7//10
f 7//11 11//11 12//11 5//11
f 5//12 12//12 13//12 3//12
f 3//13 13//13 8//13 1//13
