# Blender v2.92.0 OBJ File: ''
# www.blender.org
mtllib BK39_500_016031_0016.mtl
o BK39_500_016031_0016
v 90.133461 75.000000 -18.570461
v 544.366211 75.000000 -132.456833
v 190.465149 145.000000 -194.024628
v 362.963776 144.757034 -236.752228
v 54.747604 89.811523 -281.591492
v 451.860443 88.658371 -381.255005
v 480.495483 75.000000 -388.419281
v 26.026337 75.000000 -274.358856
v 90.133461 0.000000 -18.570461
v 544.366211 0.000000 -132.456833
v 480.495483 0.000000 -388.419281
v 26.026337 0.000000 -274.358856
vn 0.4339 -0.8944 -0.1087
vn 0.1012 -0.9049 0.4135
vn -0.4074 -0.9076 0.1017
vn -0.1053 -0.9015 -0.4198
vn 0.2434 0.0016 0.9699
vn 0.0000 1.0000 0.0000
vn 0.2432 0.0000 0.9700
vn 0.9702 0.0000 -0.2421
vn -0.2434 0.0000 -0.9699
vn -0.9700 0.0000 0.2431
usemtl None
s off
f 1//1 8//1 5//1 3//1
f 5//2 6//2 4//2 3//2
f 6//3 7//3 2//3 4//3
f 2//4 1//4 3//4 4//4
f 7//5 6//5 5//5 8//5
f 9//6 10//6 11//6 12//6
f 1//7 9//7 10//7 2//7
f 2//8 10//8 11//8 7//8
f 7//9 11//9 12//9 8//9
f 8//10 12//10 9//10 1//10
