# Blender v2.92.0 OBJ File: ''
# www.blender.org
mtllib BK39_500_013030_0053_roof.mtl
o BK39_500_013030_0053_roof
v 209.611816 75.000000 -44.706543
v 104.574333 75.000000 -19.308168
v 205.710388 75.000000 -60.555218
v 314.197571 75.000000 -86.806122
v 146.132843 119.198570 -83.189751
v 289.038635 75.000000 -190.919022
v 349.105103 75.000000 -205.436630
v 180.100479 75.000008 -164.589508
v 116.739250 118.975227 -203.703033
v 246.611023 144.761368 -267.007172
v 141.093063 145.000000 -241.799606
v 103.883308 120.533852 -265.254517
v 308.462006 75.000000 -373.506592
v 140.847839 75.000000 -333.964050
v 84.681374 119.939056 -341.585846
v 121.444473 75.000000 -408.319427
v 16.735088 75.000000 -383.011017
v 209.611816 0.000000 -44.706543
v 104.574333 0.000000 -19.308168
v 16.735088 0.000000 -383.011017
v 121.444473 0.000000 -408.319427
v 140.847839 0.000000 -333.964050
v 308.462006 0.000000 -373.506592
v 349.105103 0.000000 -205.436630
v 289.038635 0.000000 -190.919022
v 314.197571 0.000000 -86.806122
v 205.710388 0.000000 -60.555218
vt 0.232640 0.200030
vt 0.045976 0.103020
vt 0.333640 0.043748
vt 0.285390 0.378800
vt 0.386940 0.217880
vt 0.387620 0.433720
vt 0.677500 0.374690
vt 0.847420 0.125280
vt 0.959080 0.518880
vt 0.794060 0.552880
vt 0.494780 0.614540
vt 0.320710 0.522940
vt 0.565140 0.858180
vt 0.863180 0.796710
vt 0.575860 0.895300
vt 0.401460 0.805180
vt 0.287290 0.954780
vn 0.1467 -0.7812 0.6068
vn 0.6298 0.7592 -0.1643
vn -0.1412 0.7886 -0.5985
vn 0.6160 0.7735 -0.1490
vn -0.1502 -0.7690 -0.6213
vn 0.0000 1.0000 0.0000
vn -0.6258 -0.7646 0.1540
vn 0.1517 0.7639 0.6272
vn 0.6063 -0.7817 -0.1464
usemtl None
s off
f 15/1/1 17/2/1 16/3/1
f 15/1/2 12/4/2 14/5/2 16/3/2
f 12/4/3 11/6/3 10/7/3 13/8/3 14/5/3
f 10/7/4 7/9/4 13/8/4
f 7/9/5 6/10/5 8/11/5 9/12/5 11/6/5 10/7/5
f 8/11/6 3/13/6 4/14/6 6/10/6
f 3/13/7 1/15/7 5/16/7 9/12/7 8/11/7
f 5/16/8 2/17/8 1/15/8
f 2/17/9 17/2/9 15/1/9 12/4/9 11/6/9 9/12/9 5/16/9
