# Blender v2.92.0 OBJ File: ''
# www.blender.org
mtllib BK39_500_013033_0070.mtl
o BK39_500_013033_0070
v 16.344492 75.000000 -189.130173
v 115.472321 75.000000 -317.878540
v 99.420509 145.000000 -231.071793
v 261.466034 144.999405 -106.307945
v 341.217468 75.000000 -144.069199
v 242.090836 75.000000 -15.322371
v 16.344492 0.000000 -189.130173
v 115.472321 0.000000 -317.878540
v 341.217468 0.000000 -144.069199
v 242.090836 0.000000 -15.322371
vn -0.6873 -0.4976 -0.5292
vn 0.4058 0.7467 -0.5271
vn -0.6869 0.4984 -0.5289
vn -0.3908 0.7679 0.5076
vn 0.0000 -1.0000 0.0000
vn 0.7924 0.0000 0.6101
vn -0.6101 0.0000 0.7924
vn -0.7924 0.0000 -0.6101
vn 0.6101 0.0000 -0.7924
usemtl None
s off
f 6//1 4//1 5//1
f 5//2 2//2 3//2 4//2
f 2//3 1//3 3//3
f 1//4 6//4 4//4 3//4
f 7//5 8//5 9//5 10//5
f 1//6 7//6 8//6 2//6
f 2//7 8//7 9//7 5//7
f 5//8 9//8 10//8 6//8
f 6//9 10//9 7//9 1//9
