# Blender v2.92.0 OBJ File: ''
# www.blender.org
mtllib BK39_500_013033_0060.mtl
o BK39_500_013033_0060
v 360.709686 75.000000 -183.793503
v 295.663483 75.000000 -271.144745
v 391.011841 75.000000 -122.472374
v 285.757843 75.000000 -263.785187
v 350.961700 75.000000 -176.243225
v 201.469131 75.000000 -376.950226
v 296.315582 125.246803 -203.818787
v 274.093994 125.502846 -186.963333
v 234.864227 144.441299 -204.952393
v 165.146942 144.592468 -298.277191
v 306.292419 145.000000 -108.030632
v 264.806458 75.000000 -28.494646
v 75.093468 75.000000 -282.839539
v 216.962128 75.000000 -94.144753
v 120.517494 75.000000 -222.226028
v 100.720230 143.942001 -104.684814
v 18.485609 75.000000 -145.395676
v 113.716515 75.000000 -17.512236
v 360.709686 0.000000 -183.793503
v 295.663483 0.000000 -271.144745
v 285.757843 0.000000 -263.785187
v 201.469131 0.000000 -376.950226
v 75.093468 0.000000 -282.839539
v 120.517494 0.000000 -222.226028
v 18.485609 0.000000 -145.395676
v 113.716515 0.000000 -17.512236
v 216.962128 0.000000 -94.144753
v 264.806458 0.000000 -28.494646
v 391.011841 0.000000 -122.472374
v 350.961700 0.000000 -176.243225
vn -0.5217 -0.4868 -0.7006
vn 0.4045 -0.7348 0.5445
vn 0.4119 0.7399 0.5319
vn 0.6294 0.6198 -0.4687
vn -0.5133 0.5113 -0.6893
vn 0.5411 0.7381 -0.4030
vn 0.5203 -0.7598 -0.3899
vn 0.5308 -0.7541 -0.3868
vn -0.3954 -0.7482 -0.5328
vn 0.3871 -0.7654 0.5141
vn 0.6865 -0.5170 -0.5112
vn 0.0000 1.0000 0.0000
vn 0.8021 0.0000 -0.5973
vn -0.5964 0.0000 -0.8027
vn 0.8020 0.0000 -0.5973
vn -0.5973 0.0000 -0.8020
vn -0.8002 0.0000 0.5997
vn -0.6015 0.0000 -0.7988
vn -0.8020 0.0000 0.5973
vn 0.5960 0.0000 0.8030
vn -0.8082 0.0000 0.5890
vn 0.5972 0.0000 0.8021
vn 0.6123 0.0000 0.7906
usemtl None
s off
f 12//1 11//1 3//1
f 4//2 2//2 7//2 8//2
f 8//3 5//3 1//3 7//3
f 1//4 2//4 7//4
f 6//5 13//5 10//5
f 3//6 5//6 8//6 4//6 6//6 10//6 9//6 11//6
f 9//7 15//7 13//7 10//7
f 9//8 11//8 12//8 14//8
f 16//9 9//9 14//9 18//9
f 16//10 17//10 15//10 9//10
f 18//11 17//11 16//11
f 19//12 20//12 21//12 22//12 23//12 24//12 25//12 26//12 27//12 28//12 29//12 30//12
f 1//13 19//13 20//13 2//13
f 2//14 20//14 21//14 4//14
f 4//15 21//15 22//15 6//15
f 6//16 22//16 23//16 13//16
f 13//17 23//17 24//17 15//17
f 15//18 24//18 25//18 17//18
f 17//19 25//19 26//19 18//19
f 18//20 26//20 27//20 14//20
f 14//21 27//21 28//21 12//21
f 12//22 28//22 29//22 3//22
f 3//15 29//15 30//15 5//15
f 5//23 30//23 19//23 1//23
