# Blender v2.92.0 OBJ File: ''
# www.blender.org
mtllib BK39_500_017028_0057_roof.mtl
o BK39_500_017028_0057_roof
v 84.506500 145.000000 -418.569458
v 154.978043 75.000000 -451.736542
v 14.354653 75.000000 -385.541595
v 186.076981 75.000000 -20.908134
v 255.986420 144.753922 -53.810959
v 326.205750 75.000000 -86.870979
v 154.978043 0.000000 -451.736542
v 14.354653 0.000000 -385.541595
v 186.076981 0.000000 -20.908134
v 326.205750 0.000000 -86.870979
vt 0.542500 0.955890
vt 0.041850 0.186620
vt 0.246370 0.116940
vt 0.746320 0.886470
vt 0.951040 0.816730
vt 0.451830 0.046969
vn 0.6062 -0.7423 -0.2855
vn 0.6051 0.7438 -0.2840
vn 0.4259 -0.0001 0.9048
vn -0.4259 -0.0001 -0.9048
usemtl None
s off
f 4/1/1 3/2/1 1/3/1 5/4/1
f 5/4/2 6/5/2 2/6/2 1/3/2
f 6/5/3 5/4/3 4/1/3
f 3/2/4 1/3/4 2/6/4
