# Blender v2.92.0 OBJ File: ''
# www.blender.org
mtllib BK39_500_015031_0085_roof.mtl
o BK39_500_015031_0085_roof
v 113.151436 75.000000 -266.055298
v 195.585220 75.000000 -337.546051
v 17.868475 75.000000 -150.311035
v 129.383682 75.000000 -246.563995
v 189.965561 117.706787 -259.026947
v 206.011215 117.899208 -240.143600
v 251.718079 75.000000 -272.825775
v 278.484375 75.000000 -295.806671
v 142.637695 145.000000 -139.604752
v 202.004456 144.928848 -190.966797
v 245.120255 121.239792 -188.402847
v 271.029633 121.173988 -210.760101
v 135.155701 75.000000 -15.056056
v 355.924744 75.000000 -206.504044
v 224.118423 75.000000 -92.203354
v 345.820740 75.000000 -197.741989
v 250.070358 75.000000 -62.275826
v 371.774323 75.000000 -167.812561
v 113.151436 0.000000 -266.055298
v 195.585220 0.000000 -337.546051
v 251.718079 0.000000 -272.825775
v 278.484375 0.000000 -295.806671
v 355.924744 0.000000 -206.504044
v 345.820740 0.000000 -197.741989
v 371.774323 0.000000 -167.812561
v 250.070358 0.000000 -62.275826
v 224.118423 0.000000 -92.203354
v 135.155701 0.000000 -15.056056
v 17.868475 0.000000 -150.311035
v 129.383682 0.000000 -246.563995
vt 0.366680 0.604520
vt 0.347440 0.957350
vt 0.045934 0.574190
vt 0.519290 0.459020
vt 0.630130 0.466280
vt 0.696730 0.402950
vt 0.914970 0.415000
vt 0.889000 0.439820
vt 0.576140 0.738800
vt 0.642850 0.823580
vt 0.955720 0.524610
vt 0.715900 0.162020
vt 0.647090 0.227120
vt 0.502790 0.043779
vt 0.488340 0.266210
vt 0.529590 0.319710
vt 0.290880 0.246300
vt 0.332610 0.301520
vn 0.4728 -0.7800 -0.4100
vn -0.4045 -0.7867 -0.4664
vn 0.0000 1.0000 0.0000
vn -0.4543 -0.7990 0.3940
vn -0.3987 0.7909 -0.4643
vn 0.4597 0.7935 -0.3987
vn -0.3989 0.7932 -0.4600
vn -0.4738 0.7873 0.3946
vn -0.4022 0.7881 -0.4660
usemtl None
s off
f 9/1/1 13/2/1 3/3/1
f 9/1/2 10/4/2 11/5/2 12/6/2 14/7/2 16/8/2 15/9/2 13/2/2
f 15/9/3 17/10/3 18/11/3 16/8/3
f 12/6/4 8/12/4 14/7/4
f 8/12/5 7/13/5 11/5/5 12/6/5
f 7/13/6 2/14/6 5/15/6 6/16/6 10/4/6 11/5/6
f 2/14/7 1/17/7 5/15/7
f 1/17/8 4/18/8 6/16/8 5/15/8
f 4/18/9 3/3/9 9/1/9 10/4/9 6/16/9
