# Blender v2.92.0 OBJ File: ''
# www.blender.org
mtllib BK39_500_014031_0045_roof.mtl
o BK39_500_014031_0045_roof
v 36.079128 75.000000 -189.029221
v 55.159954 144.829071 -106.391632
v 76.038795 75.000000 -15.987441
v 732.412170 75.000000 -167.529800
v 711.486328 145.000000 -258.156219
v 692.354431 75.000000 -340.995056
v 36.079128 0.000000 -189.029221
v 76.038795 0.000000 -15.987441
v 732.412170 0.000000 -167.529800
v 692.354431 0.000000 -340.995056
vt 0.099267 0.954960
vt 0.956150 0.528090
vt 0.928830 0.272800
vt 0.072010 0.700310
vt 0.047101 0.467520
vt 0.903860 0.039451
vn 0.1353 0.7990 0.5859
vn 0.1434 -0.7720 0.6192
vn 0.9744 0.0000 -0.2250
vn -0.9744 0.0000 0.2250
usemtl None
s off
f 3/1/1 4/2/1 5/3/1 2/4/1
f 2/4/2 1/5/2 6/6/2 5/3/2
f 1/5/3 2/4/3 3/1/3
f 4/2/4 5/3/4 6/6/4
