# Blender v2.92.0 OBJ File: ''
# www.blender.org
mtllib BK39_500_013031_0009.mtl
o BK39_500_013031_0009
v 20.611071 75.000000 -12.428743
v 0.709625 75.000000 -200.850510
v 10.698689 145.000000 -106.275467
v 352.227783 75.000000 -237.910828
v 372.121887 75.000000 -49.558285
v 362.213409 144.974289 -143.370560
v 20.611071 0.000000 -12.428743
v 0.709625 0.000000 -200.850510
v 352.227783 0.000000 -237.910828
v 372.121887 0.000000 -49.558285
vn -0.0626 -0.8032 -0.5925
vn 0.0622 -0.8054 0.5895
vn -0.9945 -0.0000 0.1050
vn 0.9945 -0.0000 -0.1050
vn 0.0000 -1.0000 0.0000
vn 0.1048 0.0000 0.9945
vn -0.1050 0.0000 -0.9945
usemtl None
s off
f 3//1 6//1 5//1 1//1
f 3//2 2//2 4//2 6//2
f 1//3 3//3 2//3
f 4//4 6//4 5//4
f 7//5 8//5 9//5 10//5
f 1//4 7//4 8//4 2//4
f 2//6 8//6 9//6 4//6
f 4//3 9//3 10//3 5//3
f 5//7 10//7 7//7 1//7
