# Blender v2.92.0 OBJ File: ''
# www.blender.org
mtllib BK39_500_016027_0096_roof.mtl
o BK39_500_016027_0096_roof
v 237.482635 75.000000 -48.519730
v 101.746758 75.000000 -17.013369
v 483.383453 75.000000 -107.350693
v 353.866608 75.000000 -77.271843
v 473.876099 75.000000 -143.513870
v 496.453247 75.000000 -149.709869
v 401.394989 131.659836 -154.917099
v 153.574371 136.288040 -98.238014
v 85.115318 75.000000 -87.134598
v 67.409241 75.000000 -82.563507
v 331.101318 75.000000 -175.281738
v 214.698944 75.000000 -146.655197
v 392.849823 131.215530 -189.492661
v 402.830322 143.344925 -206.950226
v 137.185165 136.437668 -168.069794
v 125.586655 145.000000 -174.481628
v 118.969032 144.998169 -202.994812
v 388.784027 143.355438 -267.475037
v 446.926910 75.000000 -363.304474
v 24.951668 75.000000 -265.556671
v 237.482635 0.000000 -48.519730
v 101.746758 0.000000 -17.013369
v 85.115318 0.000000 -87.134598
v 67.409241 0.000000 -82.563507
v 24.951668 0.000000 -265.556671
v 446.926910 0.000000 -363.304474
v 496.453247 0.000000 -149.709869
v 473.876099 0.000000 -143.513870
v 483.383453 0.000000 -107.350693
v 353.866608 0.000000 -77.271843
v 331.101318 0.000000 -175.281738
v 214.698944 0.000000 -146.655197
vt 0.679210 0.796650
vt 0.927800 0.717500
vt 0.770430 0.592320
vt 0.754030 0.501340
vt 0.909550 0.622330
vt 0.773190 0.455390
vt 0.952890 0.606030
vt 0.635510 0.538730
vt 0.746230 0.296120
vt 0.857830 0.043936
vt 0.047892 0.301170
vt 0.129380 0.782730
vt 0.241050 0.540840
vt 0.228350 0.465800
vt 0.163370 0.770700
vt 0.263310 0.557710
vt 0.195290 0.955230
vt 0.294770 0.741480
vt 0.455820 0.872320
vt 0.412090 0.614070
vn 0.1488 0.7532 0.6407
vn -0.6234 -0.7645 0.1639
vn -0.1719 -0.7602 -0.6265
vn -0.6465 0.7480 0.1502
vn -0.6407 -0.7533 0.1486
vn -0.6532 0.7419 0.1516
vn 0.1712 0.7286 0.6632
vn -0.6453 0.7485 0.1530
vn 0.1521 0.7399 0.6553
vn -0.1463 0.7612 -0.6318
vn -0.6391 -0.7546 0.1484
vn 0.1600 0.7424 0.6506
usemtl None
s off
f 4/1/1 3/2/1 7/3/1
f 13/4/2 5/5/2 3/2/2 7/3/2
f 14/6/3 6/7/3 5/5/3 13/4/3
f 11/8/4 4/1/4 7/3/4 13/4/4 14/6/4 18/9/4
f 18/9/5 19/10/5 6/7/5 14/6/5
f 20/11/6 10/12/6 16/13/6 17/14/6
f 10/12/7 9/15/7 15/16/7 16/13/7
f 9/15/8 2/17/8 8/18/8 15/16/8
f 2/17/9 1/19/9 8/18/9
f 20/11/10 17/14/10 18/9/10 19/10/10
f 17/14/11 12/20/11 1/19/11 8/18/11 15/16/11 16/13/11
f 12/20/12 11/8/12 18/9/12 17/14/12
