# Blender v2.92.0 OBJ File: ''
# www.blender.org
mtllib BK39_500_015032_0081_roof.mtl
o BK39_500_015032_0081_roof
v 243.955780 75.000000 -62.965504
v 91.754456 75.000000 -14.850193
v 288.874481 75.000000 -93.756866
v 239.187302 75.000000 -78.049423
v 144.027115 145.000488 -115.847404
v 201.098083 76.008087 -194.733200
v 251.701828 76.017952 -211.917938
v 114.367943 145.000000 -209.666931
v 176.232117 126.576889 -251.007263
v 127.677948 127.035042 -235.116211
v 215.917648 75.000000 -324.538086
v 14.029089 75.000000 -260.714935
v 243.955780 0.000000 -62.965504
v 91.754456 0.000000 -14.850193
v 14.029089 0.000000 -260.714935
v 215.917648 0.000000 -324.538086
v 288.874481 0.000000 -93.756866
v 239.187302 0.000000 -78.049423
vt 0.478500 0.659270
vt 0.810480 0.814810
vt 0.304830 0.956320
vt 0.794640 0.770440
vt 0.668100 0.427260
vt 0.424180 0.308480
vt 0.379960 0.383330
vt 0.046608 0.233190
vt 0.717330 0.045476
vt 0.585490 0.261740
vt 0.836220 0.376710
vt 0.959720 0.724240
vn -0.1977 -0.7548 -0.6255
vn 0.6308 0.7499 -0.1994
vn 0.6266 -0.7537 -0.1981
vn 0.2000 -0.7481 0.6327
vn -0.6152 -0.7619 0.2024
vn 0.2045 0.7713 0.6027
vn -0.0025 -1.0000 -0.0078
vn 0.9400 -0.1677 -0.2972
usemtl None
s off
f 5/1/1 1/2/1 2/3/1
f 1/2/2 4/4/2 6/5/2 10/6/2 8/7/2 5/1/2
f 5/1/3 2/3/3 12/8/3 8/7/3
f 12/8/4 11/9/4 9/10/4 10/6/4 8/7/4
f 11/9/5 7/11/5 9/10/5
f 6/5/6 7/11/6 9/10/6 10/6/6
f 7/11/7 3/12/7 4/4/7 6/5/7
f 11/9/8 7/11/8 3/12/8
