# Blender v2.92.0 OBJ File: ''
# www.blender.org
mtllib BK39_500_013027_0002_roof.mtl
o BK39_500_013027_0002_roof
v 305.061890 75.000000 -535.549133
v 348.332916 75.000000 -443.433685
v 433.199738 75.000000 -205.307388
v 326.053741 75.000000 -432.618347
v 283.130859 109.334946 -467.136505
v 254.644058 75.000000 -511.650757
v 260.316925 109.413994 -456.188995
v 159.899704 75.000000 -641.198608
v 215.009964 75.000000 -526.467896
v 389.699951 75.000000 -80.672035
v 349.520477 75.000000 -165.151077
v 299.214386 145.000000 -253.830399
v 237.349899 144.943497 -385.266754
v 207.579132 107.929939 -433.698517
v 196.518631 125.628868 -398.549164
v 95.519997 124.971092 -610.974060
v 315.430023 115.281342 -106.062943
v 274.025757 115.131599 -193.603287
v 279.541534 75.000000 -28.921400
v 22.217194 75.000000 -576.524475
v 305.061890 0.000000 -535.549133
v 348.332916 0.000000 -443.433685
v 326.053741 0.000000 -432.618347
v 433.199738 0.000000 -205.307388
v 349.520477 0.000000 -165.151077
v 389.699951 0.000000 -80.672035
v 279.541534 0.000000 -28.921400
v 22.217194 0.000000 -576.524475
v 159.899704 0.000000 -641.198608
v 215.009964 0.000000 -526.467896
v 254.644058 0.000000 -511.650757
vt 0.615730 0.957030
vt 0.048937 0.143350
vt 0.210400 0.092163
vt 0.432860 0.407800
vt 0.522800 0.427540
vt 0.659060 0.622840
vt 0.603580 0.712330
vt 0.694780 0.842400
vt 0.352200 0.047253
vt 0.473590 0.217730
vt 0.457220 0.355570
vt 0.560890 0.239750
vt 0.671940 0.204240
vt 0.623640 0.305890
vt 0.573390 0.322160
vt 0.767250 0.341110
vt 0.718180 0.357180
vt 0.954180 0.694940
vt 0.769870 0.754600
vt 0.858370 0.880130
vn 0.4752 -0.8511 -0.2233
vn -0.5182 -0.8182 0.2489
vn -0.1209 -0.9385 0.3234
vn 0.2347 -0.8366 0.4951
vn -0.5198 -0.8186 0.2442
vn -0.2479 -0.8233 -0.5107
vn -0.5170 -0.8206 0.2437
vn -0.2453 -0.8238 -0.5111
vn -0.5263 -0.8126 0.2503
vn -0.2525 -0.8045 -0.5376
vn -0.4252 -0.0003 -0.9051
usemtl None
s off
f 19/1/1 20/2/1 16/3/1 15/4/1 13/5/1 12/6/1 18/7/1 17/8/1
f 16/3/2 8/9/2 9/10/2 14/11/2 15/4/2
f 9/10/3 6/12/3 14/11/3
f 6/12/4 1/13/4 5/14/4 7/15/4 13/5/4 15/4/4 14/11/4
f 1/13/5 2/16/5 5/14/5
f 2/16/6 4/17/6 7/15/6 5/14/6
f 4/17/7 3/18/7 12/6/7 13/5/7 7/15/7
f 3/18/8 11/19/8 18/7/8 12/6/8
f 11/19/9 10/20/9 17/8/9 18/7/9
f 10/20/10 19/1/10 17/8/10
f 20/2/11 16/3/11 8/9/11
