# Blender v2.92.0 OBJ File: ''
# www.blender.org
mtllib BK39_500_018026_0019.mtl
o BK39_500_018026_0019
v 140.150406 75.000000 -419.001892
v 287.537354 75.000000 -225.955170
v 304.334869 75.000000 -95.655251
v 289.790924 75.000000 -93.779549
v 124.388390 144.892059 -309.336029
v 211.201080 145.000000 -195.427948
v 215.364151 144.992020 -163.205582
v 297.186096 75.000000 -36.438324
v 13.844748 75.000000 -322.612396
v 133.183029 75.000000 -165.746765
v 158.795059 75.000000 -76.885246
v 144.921204 75.000000 -75.095955
v 166.190247 75.000000 -19.544022
v 140.150406 0.000000 -419.001892
v 287.537354 0.000000 -225.955170
v 304.334869 0.000000 -95.655251
v 289.790924 0.000000 -93.779549
v 297.186096 0.000000 -36.438324
v 166.190247 0.000000 -19.544022
v 158.795059 0.000000 -76.885246
v 144.921204 0.000000 -75.095955
v 133.183029 0.000000 -165.746765
v 13.844748 0.000000 -322.612396
vn 0.0000 -1.0000 -0.0000
vn -0.0852 -0.7459 -0.6606
vn -0.6549 -0.7510 0.0844
vn -0.5264 -0.7493 0.4019
vn 0.4060 -0.7431 0.5320
vn 0.5238 -0.7528 -0.3985
vn 0.6476 -0.7573 -0.0839
vn -0.7948 0.0000 0.6068
vn -0.9918 0.0000 0.1279
vn -0.1279 0.0000 -0.9918
vn 0.9918 0.0000 -0.1279
vn 0.9917 0.0000 -0.1284
vn 0.7959 0.0000 -0.6055
vn 0.6067 0.0000 0.7950
usemtl None
s off
f 13//1 11//1 4//1 8//1
f 11//2 12//2 7//2 3//2 4//2
f 3//3 7//3 6//3 2//3
f 2//4 6//4 5//4 1//4
f 1//5 5//5 9//5
f 9//6 5//6 6//6 10//6
f 10//7 6//7 7//7 12//7
f 14//1 15//1 16//1 17//1 18//1 19//1 20//1 21//1 22//1 23//1
f 1//8 14//8 15//8 2//8
f 2//9 15//9 16//9 3//9
f 3//10 16//10 17//10 4//10
f 4//9 17//9 18//9 8//9
f 8//10 18//10 19//10 13//10
f 13//11 19//11 20//11 11//11
f 11//10 20//10 21//10 12//10
f 12//12 21//12 22//12 10//12
f 10//13 22//13 23//13 9//13
f 9//14 23//14 14//14 1//14
