# Blender v2.92.0 OBJ File: ''
# www.blender.org
mtllib BK39_500_017032_0018.mtl
o BK39_500_017032_0018
v 280.257904 75.000000 -145.943726
v 243.932526 75.000000 -294.108459
v 186.581268 144.730820 -201.408356
v 198.263855 75.000000 -125.470581
v 216.966446 75.000000 -50.027332
v 124.028732 145.000000 -106.197411
v 105.507858 144.901154 -181.357727
v 69.131081 75.000000 -13.781487
v 14.243542 75.000000 -237.847412
v 280.257904 0.000000 -145.943726
v 243.932526 0.000000 -294.108459
v 14.243542 0.000000 -237.847412
v 69.131081 0.000000 -13.781487
v 216.966446 0.000000 -50.027332
v 198.263855 0.000000 -125.470581
vn -0.1605 -0.7386 -0.6548
vn 0.6613 -0.7325 -0.1620
vn 0.1604 -0.7386 0.6548
vn 0.6484 0.7446 -0.1590
vn -0.1632 -0.7391 -0.6536
vn -0.6543 -0.7386 0.1622
vn 0.0000 1.0000 0.0000
vn 0.9712 0.0000 -0.2381
vn -0.2379 0.0000 -0.9713
vn -0.9713 0.0000 0.2379
vn 0.2381 0.0000 0.9712
vn 0.9706 0.0000 -0.2406
vn 0.2423 0.0000 0.9702
usemtl None
s off
f 8//1 6//1 5//1
f 8//2 9//2 7//2 6//2
f 9//3 2//3 3//3 7//3
f 3//4 1//4 2//4
f 1//5 4//5 7//5 3//5
f 4//6 5//6 6//6 7//6
f 10//7 11//7 12//7 13//7 14//7 15//7
f 1//8 10//8 11//8 2//8
f 2//9 11//9 12//9 9//9
f 9//10 12//10 13//10 8//10
f 8//11 13//11 14//11 5//11
f 5//12 14//12 15//12 4//12
f 4//13 15//13 10//13 1//13
