# Blender v2.92.0 OBJ File: ''
# www.blender.org
mtllib BK39_500_014027_0079.mtl
o BK39_500_014027_0079
v 20.428600 75.000000 -177.640335
v 381.262573 75.000000 -274.612122
v 370.493164 145.000000 -184.561401
v 69.323105 144.938553 -103.700417
v 203.355774 137.212463 -129.891647
v 219.155930 138.054382 -74.789047
v 298.328583 75.000000 -76.771660
v 151.591568 75.000000 -37.412117
v 425.209045 75.000000 -110.805069
v 64.328781 75.000000 -14.005518
v 153.882217 75.000000 -28.863132
v 300.916779 75.000000 -68.315445
v 20.428600 0.000000 -177.640335
v 381.262573 0.000000 -274.612122
v 425.209045 0.000000 -110.805069
v 298.328583 0.000000 -76.771660
v 300.916779 0.000000 -68.315445
v 153.882217 0.000000 -28.863132
v 151.591568 0.000000 -37.412117
v 64.328781 0.000000 -14.005518
vn -0.8964 0.3724 0.2405
vn 0.6219 -0.7652 -0.1666
vn -0.6092 -0.7708 0.1865
vn -0.2376 -0.3990 -0.8856
vn -0.1642 -0.7734 -0.6122
vn 0.8701 0.4341 -0.2334
vn -0.1660 0.7689 -0.6175
vn 0.0000 -1.0000 0.0000
vn 0.2595 0.0000 0.9657
vn -0.9658 0.0000 0.2591
vn -0.2591 0.0000 -0.9659
vn -0.9562 0.0000 0.2927
vn -0.2592 0.0000 -0.9658
vn 0.9659 0.0000 -0.2588
vn 0.9658 0.0000 -0.2591
usemtl None
s off
f 10//1 4//1 1//1
f 8//2 5//2 6//2 11//2
f 12//3 6//3 5//3 7//3
f 12//4 11//4 6//4
f 8//5 10//5 4//5 3//5 9//5 7//5 5//5
f 9//6 2//6 3//6
f 2//7 1//7 4//7 3//7
f 13//8 14//8 15//8 16//8 17//8 18//8 19//8 20//8
f 1//9 13//9 14//9 2//9
f 2//10 14//10 15//10 9//10
f 9//11 15//11 16//11 7//11
f 7//12 16//12 17//12 12//12
f 12//13 17//13 18//13 11//13
f 11//14 18//14 19//14 8//14
f 8//11 19//11 20//11 10//11
f 10//15 20//15 13//15 1//15
