# Blender v2.92.0 OBJ File: ''
# www.blender.org
mtllib BK39_500_016027_0061.mtl
o BK39_500_016027_0061
v 283.260162 75.000000 -121.472008
v 66.645805 75.000000 -225.716492
v 255.930374 144.500412 -64.209778
v 39.084873 145.000000 -168.059326
v 230.020264 75.000000 -10.007131
v 13.021336 75.000000 -113.451401
v 283.260162 0.000000 -121.472008
v 66.645805 0.000000 -225.716492
v 13.021336 0.000000 -113.451401
v 230.020264 0.000000 -10.007131
vn -0.3255 0.6540 0.6829
vn -0.3203 -0.6742 0.6655
vn 0.9023 0.0003 0.4310
vn -0.9024 0.0003 -0.4310
vn 0.0000 1.0000 0.0000
vn 0.4336 0.0000 -0.9011
vn -0.9023 0.0000 -0.4310
vn -0.4303 0.0000 0.9027
vn 0.9024 0.0000 0.4310
usemtl None
s off
f 6//1 5//1 3//1 4//1
f 4//2 2//2 1//2 3//2
f 2//3 4//3 6//3
f 5//4 3//4 1//4
f 7//5 8//5 9//5 10//5
f 1//6 7//6 8//6 2//6
f 2//7 8//7 9//7 6//7
f 6//8 9//8 10//8 5//8
f 5//9 10//9 7//9 1//9
