# Blender v2.92.0 OBJ File: ''
# www.blender.org
mtllib BK39_500_018025_0017_roof.mtl
o BK39_500_018025_0017_roof
v 22.181732 75.000000 -184.451996
v 120.024696 75.000000 -28.998095
v 71.173210 145.000000 -106.599648
v 250.388855 75.000000 -111.948311
v 309.519043 75.000000 -18.710226
v 280.288818 144.526962 -238.924667
v 388.087006 144.211914 -68.156532
v 463.725525 75.000000 -115.765022
v 403.522003 75.000000 -211.563278
v 334.758606 75.000000 -381.147888
v 430.417999 75.000000 -229.151047
v 382.858490 143.712860 -304.732880
v 22.181732 0.000000 -184.451996
v 120.024696 0.000000 -28.998095
v 250.388855 0.000000 -111.948311
v 309.519043 0.000000 -18.710226
v 463.725525 0.000000 -115.765022
v 403.522003 0.000000 -211.563278
v 430.417999 0.000000 -229.151047
v 334.758606 0.000000 -381.147888
vt 0.798530 0.829610
vt 0.954170 0.710590
vt 0.830290 0.471090
vt 0.576730 0.402690
vt 0.885630 0.427120
vt 0.787770 0.238170
vt 0.515200 0.720130
vt 0.636870 0.953220
vt 0.246960 0.927500
vt 0.146450 0.733500
vt 0.045641 0.538870
vt 0.688800 0.047130
vn 0.5184 0.7906 -0.3258
vn 0.3338 0.7925 0.5104
vn -0.5048 0.8017 0.3201
vn -0.3257 -0.7949 -0.5119
vn 0.3225 -0.7958 0.5125
vn 0.8463 0.0001 -0.5327
vn -0.5327 0.0000 -0.8463
vn -0.8463 0.0001 0.5326
usemtl None
s off
f 7/1/1 8/2/1 9/3/1 6/4/1
f 9/3/2 11/5/2 12/6/2 6/4/2
f 7/1/3 6/4/3 4/7/3 5/8/3
f 4/7/4 2/9/4 3/10/4 6/4/4
f 3/10/5 1/11/5 10/12/5 12/6/5 6/4/5
f 1/11/6 3/10/6 2/9/6
f 5/8/7 7/1/7 8/2/7
f 11/5/8 12/6/8 10/12/8
