# Blender v2.92.0 OBJ File: ''
# www.blender.org
mtllib BK39_500_017027_0049_roof.mtl
o BK39_500_017027_0049_roof
v 212.247726 145.000000 -193.715607
v 265.127136 75.000000 -123.837402
v 158.415161 75.000000 -264.852722
v 66.137291 144.974594 -83.113937
v 12.324565 75.000000 -154.225479
v 118.997810 75.000000 -13.261312
v 265.127136 0.000000 -123.837402
v 158.415161 0.000000 -264.852722
v 12.324565 0.000000 -154.225479
v 118.997810 0.000000 -13.261312
vt 0.429590 0.952130
vt 0.957140 0.552930
vt 0.766240 0.300670
vt 0.238760 0.699950
vt 0.571900 0.043853
vt 0.044493 0.443230
vn 0.3766 0.7813 0.4977
vn -0.3727 0.7867 -0.4921
vn -0.7974 -0.0000 0.6034
vn 0.7974 -0.0000 -0.6034
usemtl None
s off
f 6/1/1 2/2/1 1/3/1 4/4/1
f 4/4/2 1/3/2 3/5/2 5/6/2
f 6/1/3 4/4/3 5/6/3
f 3/5/4 1/3/4 2/2/4
