# Blender v2.92.0 OBJ File: ''
# www.blender.org
mtllib BK39_500_013031_0048_roof.mtl
o BK39_500_013031_0048_roof
v 122.076340 75.000000 -15.711533
v 240.670029 75.000000 -44.897705
v 167.752075 121.299690 -87.468529
v 225.633789 75.000000 -105.607651
v 395.285767 75.000000 -147.394028
v 103.691467 75.000000 -93.146622
v 50.438545 75.000000 -80.374527
v 152.165314 121.055885 -151.727341
v 249.040237 132.008453 -190.859375
v 162.946732 132.206268 -169.929794
v 153.379196 126.141670 -175.628891
v 97.940041 126.136848 -162.325790
v 261.899384 145.000000 -212.140717
v 280.630127 144.998642 -216.752319
v 18.376627 75.000000 -210.647232
v 158.505264 75.000000 -244.288376
v 350.745422 75.000000 -328.358551
v 150.427490 75.000000 -279.058838
v 122.076340 0.000000 -15.711533
v 240.670029 0.000000 -44.897705
v 225.633789 0.000000 -105.607651
v 395.285767 0.000000 -147.394028
v 350.745422 0.000000 -328.358551
v 150.427490 0.000000 -279.058838
v 158.505264 0.000000 -244.288376
v 18.376627 0.000000 -210.647232
v 50.438545 0.000000 -80.374527
v 103.691467 0.000000 -93.146622
vt 0.294870 0.954190
vt 0.405200 0.744990
vt 0.581330 0.869100
vt 0.367550 0.557650
vt 0.545010 0.692110
vt 0.393590 0.504580
vt 0.601550 0.443560
vt 0.632610 0.381510
vt 0.677850 0.368070
vt 0.954800 0.570280
vt 0.847210 0.042686
vt 0.363350 0.186420
vt 0.382860 0.287790
vt 0.370480 0.487960
vt 0.236570 0.526750
vt 0.044388 0.385870
vt 0.121830 0.765670
vt 0.250460 0.728440
vn -0.1479 -0.7855 -0.6010
vn -0.5896 -0.7944 0.1460
vn -0.1421 -0.8044 -0.5769
vn -0.5770 -0.8043 0.1420
vn 0.1451 -0.7946 0.5895
vn 0.5840 -0.8003 -0.1357
vn 0.1436 -0.7885 0.5980
vn 0.5964 -0.7892 -0.1468
vn -0.1394 -0.8018 -0.5811
vn 0.5881 -0.7966 -0.1396
usemtl None
s off
f 1/1/1 3/2/1 2/3/1
f 2/3/2 3/2/2 8/4/2 4/5/2
f 4/5/3 8/4/3 10/6/3 9/7/3 13/8/3 14/9/3 5/10/3
f 5/10/4 14/9/4 17/11/4
f 17/11/5 14/9/5 13/8/5 18/12/5
f 18/12/6 13/8/6 9/7/6 16/13/6
f 16/13/7 9/7/7 10/6/7 11/14/7 12/15/7 15/16/7
f 15/16/8 12/15/8 7/17/8
f 7/17/9 12/15/9 11/14/9 6/18/9
f 6/18/10 11/14/10 10/6/10 8/4/10 3/2/10 1/1/10
