# Blender v2.92.0 OBJ File: ''
# www.blender.org
mtllib BK39_500_014034_0016.mtl
o BK39_500_014034_0016
v 157.540070 75.000000 -309.254120
v 87.902016 144.909500 -274.436554
v 12.365026 75.000000 -236.666687
v 230.235626 75.000000 -224.631561
v 206.001160 75.000000 -212.514313
v 246.042450 75.000000 -193.017883
v 221.831818 75.000000 -180.912598
v 268.073914 75.000000 -88.602463
v 198.346893 145.000000 -53.737503
v 122.711006 75.000000 -15.920926
v 157.540070 0.000000 -309.254120
v 12.365026 0.000000 -236.666687
v 122.711006 0.000000 -15.920926
v 268.073914 0.000000 -88.602463
v 221.831818 0.000000 -180.912598
v 246.042450 0.000000 -193.017883
v 230.235626 0.000000 -224.631561
v 206.001160 0.000000 -212.514313
vn -0.5704 0.7703 0.2851
vn 0.5974 0.7441 -0.2992
vn 0.0000 1.0000 0.0000
vn 0.4472 0.0000 0.8944
vn -0.4472 0.0000 -0.8944
vn -0.8945 0.0000 0.4471
vn 0.8941 0.0000 -0.4479
vn 0.8944 0.0000 -0.4472
usemtl None
s off
f 3//1 10//1 9//1 2//1
f 9//2 8//2 7//2 5//2 1//2 2//2
f 7//3 6//3 4//3 5//3
f 1//4 2//4 3//4
f 10//5 9//5 8//5
f 11//3 12//3 13//3 14//3 15//3 16//3 17//3 18//3
f 1//5 11//5 12//5 3//5
f 3//6 12//6 13//6 10//6
f 10//4 13//4 14//4 8//4
f 8//7 14//7 15//7 7//7
f 7//4 15//4 16//4 6//4
f 6//8 16//8 17//8 4//8
f 4//5 17//5 18//5 5//5
f 5//7 18//7 11//7 1//7
