# Blender v2.92.0 OBJ File: ''
# www.blender.org
mtllib BK39_500_017028_0098_roof.mtl
o BK39_500_017028_0098_roof
v 131.838516 75.000000 -377.825745
v 203.203003 75.000000 -42.801029
v 144.104965 144.957977 -30.200233
v 72.704659 145.000000 -365.218903
v 82.211494 75.000000 -17.004850
v 10.774010 75.000000 -352.015656
v 131.838516 0.000000 -377.825745
v 203.203003 0.000000 -42.801029
v 82.211494 0.000000 -17.004850
v 10.774010 0.000000 -352.015656
vt 0.385970 0.957060
vt 0.050582 0.111070
vt 0.341340 0.077730
vt 0.676550 0.923740
vt 0.618960 0.045895
vt 0.954000 0.891920
vn 0.7253 -0.6708 -0.1547
vn -0.7402 -0.6537 0.1577
vn 0.2085 -0.0000 0.9780
vn -0.2085 -0.0000 -0.9780
usemtl None
s off
f 5/1/1 6/2/1 4/3/1 3/4/1
f 3/4/2 4/3/2 1/5/2 2/6/2
f 2/6/3 3/4/3 5/1/3
f 6/2/4 4/3/4 1/5/4
