# Blender v2.92.0 OBJ File: ''
# www.blender.org
mtllib BK39_500_015031_0055.mtl
o BK39_500_015031_0055
v 554.774231 75.000000 -77.455750
v 499.031158 75.000000 -299.124420
v 412.843048 145.000000 -158.733276
v 382.869629 144.999924 -151.195923
v 370.204346 138.297043 -159.378815
v 305.873810 75.000000 -14.866388
v 299.923126 75.000000 -38.744698
v 268.658478 138.137985 -134.112595
v 232.903671 119.336716 -157.007492
v 199.541733 75.000000 -14.024890
v 184.482162 75.000000 -72.240524
v 111.947395 119.324829 -126.610542
v 62.338882 75.000000 -41.564934
v 27.395458 75.000000 -180.521210
v 554.774231 0.000000 -77.455750
v 499.031158 0.000000 -299.124420
v 27.395458 0.000000 -180.521210
v 62.338882 0.000000 -41.564934
v 184.482162 0.000000 -72.240524
v 199.541733 0.000000 -14.024890
v 299.923126 0.000000 -38.744698
v 305.873810 0.000000 -14.866388
vn 0.4953 0.8597 -0.1246
vn 0.1281 0.8510 0.5093
vn 0.5289 -0.8384 -0.1318
vn 0.1276 0.8458 0.5181
vn -0.5282 0.8381 0.1366
vn -0.1298 -0.8462 -0.5168
vn -0.5250 0.8408 0.1320
vn 0.1267 -0.8545 0.5038
vn 0.0000 1.0000 0.0000
vn 0.9698 0.0000 -0.2439
vn -0.2439 0.0000 -0.9698
vn -0.9698 0.0000 0.2439
vn 0.2436 0.0000 0.9699
vn -0.9681 0.0000 0.2504
vn 0.2391 0.0000 0.9710
vn -0.9703 0.0000 0.2418
vn 0.2439 0.0000 0.9698
usemtl None
s off
f 3//1 1//1 2//1
f 3//2 4//2 6//2 1//2
f 6//3 7//3 5//3 4//3
f 5//4 8//4 10//4 7//4
f 8//5 9//5 11//5 10//5
f 11//6 13//6 12//6 9//6
f 12//7 14//7 13//7
f 14//8 2//8 3//8 4//8 5//8 8//8 9//8 12//8
f 15//9 16//9 17//9 18//9 19//9 20//9 21//9 22//9
f 1//10 15//10 16//10 2//10
f 2//11 16//11 17//11 14//11
f 14//12 17//12 18//12 13//12
f 13//13 18//13 19//13 11//13
f 11//14 19//14 20//14 10//14
f 10//15 20//15 21//15 7//15
f 7//16 21//16 22//16 6//16
f 6//17 22//17 15//17 1//17
