# Blender v2.92.0 OBJ File: ''
# www.blender.org
mtllib BK39_500_017025_0022.mtl
o BK39_500_017025_0022
v 15.636984 75.000000 -148.133316
v 198.450943 75.000000 -303.562744
v 67.968689 143.837814 -86.562431
v 251.668137 145.000000 -240.961243
v 112.071182 59.376057 -34.686611
v 296.086212 59.920464 -188.697586
v 312.559052 75.000000 -169.319321
v 129.140854 75.000000 -14.603943
v 15.636984 0.000000 -148.133316
v 198.450943 0.000000 -303.562744
v 312.559052 0.000000 -169.319321
v 129.140854 0.000000 -14.603943
vn -0.4201 0.7612 -0.4941
vn 0.4986 0.6276 0.5979
vn -0.3288 0.8602 -0.3898
vn 0.7619 -0.0001 -0.6477
vn -0.7619 -0.0001 0.6477
vn 0.0000 -1.0000 0.0000
vn 0.6477 0.0000 0.7619
vn -0.7619 0.0000 0.6477
vn -0.6448 0.0000 -0.7644
vn 0.7619 0.0000 -0.6477
usemtl None
s off
f 3//1 4//1 2//1 1//1
f 3//2 5//2 6//2 4//2
f 5//3 8//3 7//3 6//3
f 2//4 4//4 6//4 7//4
f 8//5 5//5 3//5 1//5
f 9//6 10//6 11//6 12//6
f 1//7 9//7 10//7 2//7
f 2//8 10//8 11//8 7//8
f 7//9 11//9 12//9 8//9
f 8//10 12//10 9//10 1//10
