# Blender v2.92.0 OBJ File: ''
# www.blender.org
mtllib BK39_500_014027_0015.mtl
o BK39_500_014027_0015
v 349.332153 75.000000 -82.975365
v 97.704834 75.000000 -18.186386
v 202.352264 145.000000 -115.108391
v 155.891800 144.993027 -295.634399
v 268.796906 75.000000 -395.808563
v 17.213100 75.000000 -331.030792
v 349.332153 0.000000 -82.975365
v 97.704834 0.000000 -18.186386
v 17.213100 0.000000 -331.030792
v 268.796906 0.000000 -395.808563
vn -0.1791 -0.6956 -0.6958
vn 0.4475 0.8868 -0.1152
vn -0.4718 0.8733 0.1214
vn 0.1778 -0.7013 0.6903
vn 0.0000 -1.0000 0.0000
vn -0.2493 0.0000 -0.9684
vn 0.9685 0.0000 -0.2492
vn 0.2493 0.0000 0.9684
vn -0.9684 0.0000 0.2493
usemtl None
s off
f 2//1 3//1 1//1
f 1//2 5//2 4//2 3//2
f 2//3 3//3 4//3 6//3
f 6//4 5//4 4//4
f 7//5 8//5 9//5 10//5
f 1//6 7//6 8//6 2//6
f 2//7 8//7 9//7 6//7
f 6//8 9//8 10//8 5//8
f 5//9 10//9 7//9 1//9
