# Blender v2.92.0 OBJ File: ''
# www.blender.org
mtllib BK39_500_015027_0005_roof.mtl
o BK39_500_015027_0005_roof
v 258.117584 75.000000 -62.879890
v 177.724030 75.000000 -357.170471
v 152.594101 145.000000 -123.068474
v 116.967041 144.988480 -253.539413
v 93.194160 75.000000 -17.858778
v 12.861815 75.000000 -312.166199
v 258.117584 0.000000 -62.879890
v 177.724030 0.000000 -357.170471
v 12.861815 0.000000 -312.166199
v 93.194160 0.000000 -17.858778
vt 0.343890 0.952250
vt 0.563080 0.670940
vt 0.952460 0.831870
vt 0.047461 0.165330
vt 0.431610 0.322090
vt 0.655810 0.044999
vn -0.1664 -0.7750 -0.6096
vn 0.6132 -0.7720 -0.1674
vn 0.1686 -0.7682 0.6176
vn -0.6092 -0.7753 0.1664
usemtl None
s off
f 5/1/1 3/2/1 1/3/1
f 5/1/2 6/4/2 4/5/2 3/2/2
f 6/4/3 2/6/3 4/5/3
f 2/6/4 1/3/4 3/2/4 4/5/4
