# Blender v2.92.0 OBJ File: ''
# www.blender.org
mtllib BK39_500_016026_0004_roof.mtl
o BK39_500_016026_0004_roof
v 396.706604 75.000000 -215.749298
v 350.433228 75.000000 -229.847855
v 349.534546 75.000000 -222.469971
v 329.077759 75.000000 -228.702728
v 396.342041 75.000000 -168.369949
v 383.465759 75.000000 -172.290970
v 83.183075 75.000000 -263.731506
v 317.967163 75.000000 -192.236267
v 138.004929 144.980835 -159.715805
v 296.479919 145.000000 -111.433899
v 102.579994 120.725731 -141.740875
v 139.615295 75.000000 -76.209724
v 348.832855 75.000000 -12.438261
v 85.723305 120.703316 -86.381851
v 123.263779 75.000000 -22.598652
v 19.490986 75.000000 -54.216213
v 396.706604 0.000000 -215.749298
v 350.433228 0.000000 -229.847855
v 349.534546 0.000000 -222.469971
v 329.077759 0.000000 -228.702728
v 317.967163 0.000000 -192.236267
v 83.183075 0.000000 -263.731506
v 19.490986 0.000000 -54.216213
v 123.263779 0.000000 -22.598652
v 139.615295 0.000000 -76.209724
v 348.832855 0.000000 -12.438261
v 396.342041 0.000000 -168.369949
v 383.465759 0.000000 -172.290970
vt 0.046853 0.803560
vt 0.206070 0.687020
vt 0.296310 0.918120
vt 0.246590 0.486450
vt 0.335610 0.723880
vt 0.331740 0.421320
vt 0.712690 0.596250
vt 0.838540 0.954930
vt 0.952750 0.389960
vt 0.199960 0.044451
vt 0.764340 0.303490
vt 0.921790 0.375760
vt 0.953620 0.218300
vt 0.842390 0.167220
vt 0.840230 0.193950
vt 0.791050 0.171370
vn 0.1965 -0.7386 -0.6449
vn -0.6145 -0.7663 -0.1874
vn 0.1928 -0.7502 -0.6324
vn -0.6347 -0.7482 -0.1934
vn 0.6180 -0.7634 0.1879
vn -0.1871 -0.7666 0.6143
vn 0.0000 1.0000 0.0000
usemtl None
s off
f 16/1/1 14/2/1 15/3/1
f 15/3/2 14/2/2 11/4/2 12/5/2
f 12/5/3 11/4/3 9/6/3 10/7/3 13/8/3
f 13/8/4 10/7/4 5/9/4
f 7/10/5 9/6/5 11/4/5 14/2/5 16/1/5
f 5/9/6 10/7/6 9/6/6 7/10/6 8/11/6 6/12/6
f 6/12/7 1/13/7 2/14/7 3/15/7 4/16/7 8/11/7
