# Blender v2.92.0 OBJ File: ''
# www.blender.org
mtllib BK39_500_016031_0051_roof.mtl
o BK39_500_016031_0051_roof
v 263.147064 75.000000 -21.934706
v 101.287697 75.000000 -14.068631
v 176.250717 144.487976 -100.154739
v 96.173637 75.000000 -117.622658
v 41.254665 75.000000 -114.956230
v 39.117661 75.000000 -158.894852
v 94.004128 75.000084 -161.553116
v 21.463444 75.000000 -158.039825
v 256.655334 75.000000 -171.715881
v 310.423615 75.000000 -174.713440
v 156.527298 132.934250 -232.833893
v 83.180992 130.840393 -226.814987
v 186.999847 130.703339 -234.353577
v 228.568787 130.432404 -236.347580
v 250.960754 75.000000 -303.104462
v 280.989807 75.000000 -304.312469
v 167.036072 145.000000 -298.561768
v 92.080658 79.097946 -295.096893
v 15.044943 75.000000 -291.242371
v 263.147064 0.000000 -21.934706
v 101.287697 0.000000 -14.068631
v 96.173637 0.000000 -117.622658
v 41.254665 0.000000 -114.956230
v 39.117661 0.000000 -158.894852
v 21.463444 0.000000 -158.039825
v 15.044943 0.000000 -291.242371
v 250.960754 0.000000 -303.104462
v 280.989807 0.000000 -304.312469
v 310.423615 0.000000 -174.713440
v 256.655334 0.000000 -171.715881
vt 0.318510 0.955620
vt 0.554250 0.684050
vt 0.827510 0.930810
vt 0.302430 0.628950
vt 0.295610 0.490370
vt 0.492220 0.265510
vt 0.289560 0.069095
vt 0.525270 0.058165
vt 0.123010 0.498750
vt 0.067495 0.501450
vt 0.261580 0.284500
vt 0.047311 0.081254
vt 0.129730 0.637360
vt 0.789180 0.043834
vt 0.588050 0.260710
vt 0.807090 0.458310
vt 0.883620 0.040024
vt 0.718770 0.254420
vt 0.976170 0.448850
vn -0.0313 -0.7643 -0.6442
vn 0.6591 -0.7514 -0.0325
vn -0.0313 -0.7620 -0.6468
vn 0.6511 -0.7583 -0.0314
vn 0.0725 -0.7903 0.6084
vn -0.0000 1.0000 0.0000
vn -0.6394 -0.7684 0.0277
vn 0.0259 -0.7648 0.6437
vn -0.6262 -0.7666 0.1422
vn -0.0358 -0.7662 -0.6416
vn -0.0502 0.0046 -0.9987
usemtl None
s off
f 2/1/1 3/2/1 1/3/1
f 2/1/2 4/4/2 7/5/2 11/6/2 18/7/2 17/8/2 3/2/2
f 7/5/3 6/9/3 8/10/3 12/11/3 11/6/3
f 8/10/4 19/12/4 12/11/4
f 19/12/5 18/7/5 11/6/5 12/11/5
f 7/5/6 6/9/6 5/13/6 4/4/6
f 17/8/7 15/14/7 13/15/7 9/16/7 1/3/7 3/2/7
f 15/14/8 16/17/8 14/18/8 13/15/8
f 16/17/9 10/19/9 14/18/9
f 10/19/10 9/16/10 13/15/10 14/18/10
f 19/12/11 18/7/11 17/8/11 15/14/11
