# Blender v2.92.0 OBJ File: ''
# www.blender.org
mtllib BK39_500_018030_0002.mtl
o BK39_500_018030_0002
v 357.506775 75.000000 -230.143784
v 349.413635 75.000000 -301.254425
v 349.417969 75.000000 -301.216217
v 348.104675 75.000000 -312.755707
v 357.576538 75.000000 -229.530685
v 359.004150 75.000000 -216.986816
v 304.108032 117.076927 -260.640381
v 300.078033 75.000000 -210.274277
v 318.641083 75.000000 -48.137817
v 285.106812 75.000000 -44.396801
v 286.486145 75.000000 -28.825668
v 247.824203 117.075180 -254.226776
v 220.452225 144.967285 -219.884720
v 232.074753 145.000000 -118.048653
v 209.619843 136.425659 -228.211349
v 217.473831 130.616318 -100.070091
v 225.373459 129.754501 -21.860216
v 162.815811 75.000000 -14.745738
v 147.277527 75.000000 -151.336578
v 99.369781 136.444290 -215.623505
v 34.047729 75.000000 -154.088852
v 21.933176 75.000000 -260.533844
v 35.811825 75.000000 -138.588547
v 20.243067 75.000000 -275.384033
v 21.542513 75.000000 -263.966431
v 34.122936 75.000000 -153.428070
v 357.506775 0.000000 -230.143784
v 349.413635 0.000000 -301.254425
v 349.417969 0.000000 -301.216217
v 348.104675 0.000000 -312.755707
v 20.243067 0.000000 -275.384033
v 21.933176 0.000000 -260.533844
v 21.542513 0.000000 -263.966431
v 34.122936 0.000000 -153.428070
v 34.047729 0.000000 -154.088852
v 35.811825 0.000000 -138.588547
v 147.277527 0.000000 -151.336578
v 162.815811 0.000000 -14.745738
v 286.486145 0.000000 -28.825668
v 285.106812 0.000000 -44.396801
v 318.641083 0.000000 -48.137817
v 300.078033 0.000000 -210.274277
v 359.004150 0.000000 -216.986816
v 357.576538 0.000000 -229.530685
vn 0.6624 0.7468 -0.0587
vn 0.0735 0.7488 0.6587
vn -0.6633 -0.7445 0.0759
vn 0.0732 0.7625 0.6429
vn 0.6427 0.7626 -0.0731
vn -0.6520 0.7546 0.0742
vn -0.0757 0.7436 -0.6643
vn 0.0754 0.7483 0.6591
vn 0.6457 -0.7600 -0.0735
vn -0.1131 0.0001 -0.9936
vn 0.0000 1.0000 0.0000
vn 0.9936 0.0000 -0.1131
vn -0.9936 0.0000 0.1127
vn -0.1133 0.0000 -0.9936
vn -0.9936 0.0000 0.1131
vn 0.1136 0.0000 0.9935
vn -0.9936 0.0000 0.1130
vn 0.1131 0.0000 0.9936
vn 0.9961 0.0000 -0.0882
vn 0.1109 0.0000 0.9938
vn 0.9935 0.0000 -0.1137
vn 0.1132 0.0000 0.9936
usemtl None
s off
f 11//1 10//1 16//1 17//1
f 9//2 14//2 16//2 10//2
f 8//3 9//3 14//3 13//3 12//3
f 6//4 7//4 12//4 8//4
f 4//5 7//5 6//5 5//5 1//5 2//5 3//5
f 18//6 17//6 16//6 14//6 13//6 15//6 19//6
f 20//7 15//7 13//7 12//7 7//7 4//7 24//7
f 19//8 15//8 20//8 23//8
f 24//9 20//9 23//9 21//9 26//9 25//9 22//9
f 18//10 17//10 11//10
f 27//11 28//11 29//11 30//11 31//11 32//11 33//11 34//11 35//11 36//11 37//11 38//11 39//11 40//11 41//11 42//11 43//11 44//11
f 1//12 27//12 28//12 2//12
f 2//13 28//13 29//13 3//13
f 3//12 29//12 30//12 4//12
f 4//14 30//14 31//14 24//14
f 24//15 31//15 32//15 22//15
f 22//12 32//12 33//12 25//12
f 25//15 33//15 34//15 26//15
f 26//12 34//12 35//12 21//12
f 21//15 35//15 36//15 23//15
f 23//16 36//16 37//16 19//16
f 19//17 37//17 38//17 18//17
f 18//18 38//18 39//18 11//18
f 11//19 39//19 40//19 10//19
f 10//20 40//20 41//20 9//20
f 9//21 41//21 42//21 8//21
f 8//22 42//22 43//22 6//22
f 6//12 43//12 44//12 5//12
f 5//12 44//12 27//12 1//12
