# Blender v2.92.0 OBJ File: ''
# www.blender.org
mtllib BK39_500_016031_0018_roof.mtl
o BK39_500_016031_0018_roof
v 302.423828 75.000000 -67.157806
v 206.871780 144.976364 -43.453094
v 117.370483 75.000000 -21.249697
v 199.922989 75.000000 -480.592285
v 104.338615 145.000000 -456.879761
v 14.807152 75.000000 -434.668640
v 302.423828 0.000000 -67.157806
v 117.370483 0.000000 -21.249697
v 14.807152 0.000000 -434.668640
v 199.922989 0.000000 -480.592285
vt 0.369090 0.957670
vt 0.046563 0.134130
vt 0.328110 0.089881
vt 0.650540 0.913440
vt 0.628690 0.042645
vt 0.951020 0.866220
vn 0.5867 -0.7966 -0.1456
vn -0.5623 -0.8151 0.1394
vn 0.2408 -0.0000 0.9706
vn -0.2408 -0.0000 -0.9706
usemtl None
s off
f 3/1/1 6/2/1 5/3/1 2/4/1
f 5/3/2 4/5/2 1/6/2 2/4/2
f 1/6/3 2/4/3 3/1/3
f 6/2/4 5/3/4 4/5/4
