# Blender v2.92.0 OBJ File: ''
# www.blender.org
mtllib BK39_500_016027_0040_roof.mtl
o BK39_500_016027_0040_roof
v 23.675558 75.000000 -247.107285
v 79.787926 75.000000 -15.446507
v 171.600586 144.997940 -159.350922
v 350.654816 145.000000 -202.726120
v 433.974335 75.000000 -346.508911
v 490.090515 75.000000 -114.832458
v 23.675558 0.000000 -247.107285
v 79.787926 0.000000 -15.446507
v 490.090515 0.000000 -114.832458
v 433.974335 0.000000 -346.508911
vt 0.155230 0.957450
vt 0.953480 0.683660
vt 0.682210 0.441530
vt 0.333850 0.561020
vt 0.046061 0.319260
vt 0.844310 0.045430
vn 0.1199 0.8605 0.4951
vn -0.4804 0.8693 0.1164
vn 0.1185 -0.8640 0.4893
vn 0.5059 0.8538 -0.1225
usemtl None
s off
f 2/1/1 6/2/1 4/3/1 3/4/1
f 3/4/2 1/5/2 2/1/2
f 1/5/3 5/6/3 4/3/3 3/4/3
f 4/3/4 6/2/4 5/6/4
