# Blender v2.92.0 OBJ File: ''
# www.blender.org
mtllib BK39_500_015026_0024.mtl
o BK39_500_015026_0024
v 14.433152 75.000000 -420.580231
v 121.965828 75.000000 -21.617842
v 161.681961 124.742188 -134.416672
v 169.478470 124.732773 -105.441200
v 104.989494 129.300522 -368.594391
v 129.333267 129.443329 -279.022186
v 181.312515 144.994095 -167.501816
v 155.007263 145.000000 -265.129211
v 242.137299 75.000000 -86.730980
v 250.332703 75.000000 -56.222923
v 181.697189 75.000000 -367.588379
v 156.669342 75.000000 -458.923462
v 218.524506 75.000000 -377.932434
v 293.363007 75.000000 -100.098457
v 14.433152 0.000000 -420.580231
v 121.965828 0.000000 -21.617842
v 250.332703 0.000000 -56.222923
v 242.137299 0.000000 -86.730980
v 293.363007 0.000000 -100.098457
v 218.524506 0.000000 -377.932434
v 181.697189 0.000000 -367.588379
v 156.669342 0.000000 -458.923462
vn 0.1543 -0.8053 0.5724
vn 0.5720 0.8051 -0.1567
vn -0.1644 0.7940 -0.5853
vn 0.5901 0.7916 -0.1589
vn -0.1513 -0.8006 -0.5798
vn 0.5851 0.7956 -0.1572
vn 0.1528 0.8095 0.5669
vn 0.5717 -0.8059 -0.1541
vn 0.0000 1.0000 0.0000
vn -0.9655 0.0000 0.2602
vn 0.2603 0.0000 0.9655
vn 0.9658 0.0000 -0.2594
vn 0.2525 0.0000 0.9676
vn 0.9656 0.0000 -0.2601
vn -0.2704 0.0000 -0.9627
vn 0.9644 0.0000 -0.2643
vn -0.2603 0.0000 -0.9655
usemtl None
s off
f 5//1 1//1 12//1
f 5//2 6//2 11//2 12//2
f 6//3 8//3 13//3 11//3
f 8//4 7//4 14//4 13//4
f 14//5 9//5 3//5 7//5
f 3//6 4//6 10//6 9//6
f 4//7 2//7 10//7
f 2//8 1//8 5//8 6//8 8//8 7//8 3//8 4//8
f 15//9 16//9 17//9 18//9 19//9 20//9 21//9 22//9
f 1//10 15//10 16//10 2//10
f 2//11 16//11 17//11 10//11
f 10//12 17//12 18//12 9//12
f 9//13 18//13 19//13 14//13
f 14//14 19//14 20//14 13//14
f 13//15 20//15 21//15 11//15
f 11//16 21//16 22//16 12//16
f 12//17 22//17 15//17 1//17
