# Blender v2.92.0 OBJ File: ''
# www.blender.org
mtllib BK39_500_018028_0017.mtl
o BK39_500_018028_0017
v 387.900116 75.000000 -37.088837
v 287.301178 75.000000 -14.682828
v 391.053497 75.000000 -71.736732
v 380.696899 75.000000 -69.430046
v 280.097931 75.000000 -47.024078
v 205.642685 75.000000 -30.440977
v 189.255554 75.000000 -104.279854
v 153.259506 75.000000 -96.702744
v 276.840302 145.000000 -144.703354
v 51.062923 75.000000 -101.711716
v 148.387604 75.000000 -122.655815
v 263.642700 144.984421 -204.073608
v 256.013611 140.227615 -208.884476
v 219.311584 140.064758 -200.932724
v 204.141495 130.016220 -211.306152
v 105.731110 129.747879 -189.754547
v 336.640839 75.000000 -316.111786
v 19.061958 75.000000 -245.377716
v 387.900116 0.000000 -37.088837
v 287.301178 0.000000 -14.682828
v 280.097931 0.000000 -47.024078
v 205.642685 0.000000 -30.440977
v 189.255554 0.000000 -104.279854
v 153.259506 0.000000 -96.702744
v 148.387604 0.000000 -122.655815
v 51.062923 0.000000 -101.711716
v 19.061958 0.000000 -245.377716
v 336.640839 0.000000 -316.111786
v 391.053497 0.000000 -71.736732
v 380.696899 0.000000 -69.430046
vn 0.5882 -0.7980 -0.1310
vn 0.1245 0.8061 0.5786
vn -0.6012 0.7911 0.1129
vn 0.1221 0.8053 0.5801
vn -0.5820 0.8028 0.1292
vn 0.1280 0.8082 0.5749
vn 0.0000 1.0000 0.0000
vn 0.5766 0.8069 -0.1284
vn 0.1303 -0.8005 0.5849
vn 0.0000 -1.0000 0.0000
vn -0.2174 0.0000 -0.9761
vn 0.9761 0.0000 -0.2174
vn 0.9762 0.0000 -0.2167
vn -0.2060 0.0000 -0.9786
vn 0.9828 0.0000 -0.1845
vn -0.2104 0.0000 -0.9776
vn 0.2174 0.0000 0.9761
vn -0.9761 0.0000 0.2173
vn -0.9761 0.0000 0.2174
usemtl None
s off
f 10//1 18//1 16//1
f 10//2 11//2 15//2 16//2
f 11//3 8//3 14//3 15//3
f 8//4 7//4 13//4 14//4
f 7//5 6//5 9//5 12//5 13//5
f 6//6 5//6 4//6 3//6 9//6
f 5//7 2//7 1//7 4//7
f 3//8 17//8 12//8 9//8
f 18//9 17//9 12//9 13//9 14//9 15//9 16//9
f 19//10 20//10 21//10 22//10 23//10 24//10 25//10 26//10 27//10 28//10 29//10 30//10
f 1//11 19//11 20//11 2//11
f 2//12 20//12 21//12 5//12
f 5//11 21//11 22//11 6//11
f 6//13 22//13 23//13 7//13
f 7//14 23//14 24//14 8//14
f 8//15 24//15 25//15 11//15
f 11//16 25//16 26//16 10//16
f 10//12 26//12 27//12 18//12
f 18//17 27//17 28//17 17//17
f 17//18 28//18 29//18 3//18
f 3//11 29//11 30//11 4//11
f 4//19 30//19 19//19 1//19
