# Blender v2.92.0 OBJ File: ''
# www.blender.org
mtllib BK39_500_016029_0079.mtl
o BK39_500_016029_0079
v 13.847909 75.000000 -287.917114
v 216.094650 75.000000 -332.325745
v 140.797379 145.000000 -208.946182
v 150.890427 144.999908 -162.991394
v 121.960663 120.433861 -119.576408
v 127.297356 120.378090 -94.880630
v 196.696198 75.000000 -67.767006
v 270.593811 75.000000 -84.181152
v 201.737869 75.000000 -44.089520
v 73.581276 75.000000 -15.948112
v 13.847909 0.000000 -287.917114
v 216.094650 0.000000 -332.325745
v 270.593811 0.000000 -84.181152
v 196.696198 0.000000 -67.767006
v 201.737869 0.000000 -44.089520
v 73.581276 0.000000 -15.948112
vn 0.1195 -0.8305 0.5441
vn -0.5601 -0.8193 0.1230
vn 0.1220 0.8268 0.5491
vn 0.5763 0.8080 -0.1227
vn -0.1220 -0.8223 -0.5558
vn 0.5345 -0.8370 -0.1174
vn 0.0000 -1.0000 0.0000
vn 0.2145 0.0000 0.9767
vn -0.9767 0.0000 0.2145
vn -0.2168 0.0000 -0.9762
vn -0.9781 0.0000 0.2083
vn -0.2145 0.0000 -0.9767
vn 0.9767 0.0000 -0.2145
usemtl None
s off
f 3//1 1//1 2//1
f 2//2 8//2 4//2 3//2
f 4//3 5//3 7//3 8//3
f 5//4 6//4 9//4 7//4
f 9//5 10//5 6//5
f 10//6 1//6 3//6 4//6 5//6 6//6
f 11//7 12//7 13//7 14//7 15//7 16//7
f 1//8 11//8 12//8 2//8
f 2//9 12//9 13//9 8//9
f 8//10 13//10 14//10 7//10
f 7//11 14//11 15//11 9//11
f 9//12 15//12 16//12 10//12
f 10//13 16//13 11//13 1//13
