# Blender v2.92.0 OBJ File: ''
# www.blender.org
mtllib BK39_500_013026_0062_roof.mtl
o BK39_500_013026_0062_roof
v 484.161407 75.000000 -179.116440
v 371.291931 75.000000 -107.024117
v 339.684998 75.000000 -156.198761
v 132.367416 75.000000 -23.754177
v 391.053375 121.715561 -199.199814
v 358.485321 121.775864 -250.028503
v 312.140137 144.787994 -260.673218
v 163.471207 145.000000 -166.067093
v 319.223297 129.574142 -290.517883
v 210.543518 75.000000 -312.565826
v 23.598631 75.000000 -194.046906
v 254.039368 129.472000 -392.849457
v 279.473877 75.000000 -499.590302
v 145.923904 75.000000 -414.287994
v 484.161407 0.000000 -179.116440
v 371.291931 0.000000 -107.024117
v 339.684998 0.000000 -156.198761
v 132.367416 0.000000 -23.754177
v 23.598631 0.000000 -194.046906
v 210.543518 0.000000 -312.565826
v 145.923904 0.000000 -414.287994
v 279.473877 0.000000 -499.590302
vt 0.046546 0.628260
vt 0.322430 0.681860
vt 0.261080 0.954490
vt 0.669990 0.700770
vt 0.707070 0.521020
vt 0.615660 0.500630
vt 0.732330 0.794970
vt 0.771310 0.618390
vt 0.954950 0.656870
vt 0.551230 0.042930
vt 0.501060 0.247410
vt 0.629630 0.443450
vt 0.287820 0.206340
vt 0.415270 0.401210
vn 0.4743 -0.8266 -0.3029
vn 0.3022 0.8275 0.4731
vn -0.4837 0.8181 0.3109
vn -0.3077 -0.8205 -0.4818
vn 0.4788 0.8229 -0.3058
vn -0.3129 0.8137 -0.4898
vn -0.4760 0.8258 0.3024
vn 0.3101 -0.8152 0.4892
usemtl None
s off
f 11/1/1 8/2/1 4/3/1
f 4/3/2 3/4/2 6/5/2 7/6/2 8/2/2
f 3/4/3 2/7/3 5/8/3 6/5/3
f 5/8/4 1/9/4 2/7/4
f 1/9/5 13/10/5 12/11/5 9/12/5 7/6/5 6/5/5 5/8/5
f 13/10/6 14/13/6 12/11/6
f 14/13/7 10/14/7 9/12/7 12/11/7
f 11/1/8 10/14/8 9/12/8 7/6/8 8/2/8
