# Blender v2.92.0 OBJ File: ''
# www.blender.org
mtllib BK39_500_016026_0008.mtl
o BK39_500_016026_0008
v 297.090820 144.862793 -93.981644
v 300.561981 75.000000 -180.568390
v 293.666351 75.000000 -8.723216
v 14.319721 75.000000 -19.903170
v 21.229250 75.000000 -192.085800
v 17.744471 145.000000 -105.329292
v 300.561981 0.000000 -180.568390
v 293.666351 0.000000 -8.723216
v 14.319721 0.000000 -19.903170
v 21.229250 0.000000 -192.085800
vn 0.0253 -0.7737 -0.6330
vn -0.0259 -0.7785 0.6271
vn 0.9992 0.0000 0.0401
vn -0.9992 0.0000 -0.0401
vn 0.0000 -1.0000 0.0000
vn 0.0400 0.0000 -0.9992
vn -0.0412 0.0000 0.9992
usemtl None
s off
f 6//1 1//1 3//1 4//1
f 1//2 6//2 5//2 2//2
f 5//3 6//3 4//3
f 3//4 1//4 2//4
f 7//5 8//5 9//5 10//5
f 2//4 7//4 8//4 3//4
f 3//6 8//6 9//6 4//6
f 4//3 9//3 10//3 5//3
f 5//7 10//7 7//7 2//7
