# Blender v2.92.0 OBJ File: ''
# www.blender.org
mtllib BK39_500_014028_0016_roof.mtl
o BK39_500_014028_0016_roof
v 59.803524 75.000000 -14.518351
v 398.273193 75.000000 -74.049210
v 40.030380 144.875259 -126.990227
v 378.478271 145.000000 -186.724258
v 19.735527 75.000000 -242.512634
v 358.132751 75.000000 -302.450348
v 59.803524 0.000000 -14.518351
v 398.273193 0.000000 -74.049210
v 358.132751 0.000000 -302.450348
v 19.735527 0.000000 -242.512634
vt 0.095996 0.599400
vt 0.907620 0.410960
vt 0.955090 0.766410
vt 0.143410 0.954200
vt 0.858830 0.045898
vt 0.047327 0.234980
vn -0.0904 -0.8530 -0.5140
vn -0.0893 0.8591 -0.5040
vn -0.9849 0.0001 0.1731
vn 0.9849 0.0001 -0.1731
usemtl None
s off
f 3/1/1 4/2/1 2/3/1 1/4/1
f 4/2/2 6/5/2 5/6/2 3/1/2
f 2/3/3 4/2/3 6/5/3
f 5/6/4 3/1/4 1/4/4
