# Blender v2.92.0 OBJ File: ''
# www.blender.org
mtllib BK39_500_017030_0023.mtl
o BK39_500_017030_0023
v 331.703369 75.000000 -201.241226
v 365.910767 75.000000 -58.822506
v 296.033966 75.000000 -192.876419
v 285.312408 75.000000 -234.473831
v 282.058441 139.991226 -109.677620
v 247.199707 140.075439 -101.399353
v 240.733688 145.000000 -105.225822
v 232.873245 144.756805 -136.772614
v 198.536636 120.403503 -157.944199
v 169.717163 75.000000 -206.065567
v 143.591415 75.000000 -313.165009
v 178.562363 75.000000 -13.836541
v 158.186539 75.000000 -98.769066
v 133.330917 120.247040 -142.109726
v 99.017632 130.869766 -232.739258
v 118.958130 131.001053 -150.377090
v 68.360695 75.000000 -77.190765
v 18.881136 75.000000 -283.212402
v 331.703369 0.000000 -201.241226
v 365.910767 0.000000 -58.822506
v 178.562363 0.000000 -13.836541
v 158.186539 0.000000 -98.769066
v 68.360695 0.000000 -77.190765
v 18.881136 0.000000 -283.212402
v 143.591415 0.000000 -313.165009
v 169.717163 0.000000 -206.065567
v 285.312408 0.000000 -234.473831
v 296.033966 0.000000 -192.876419
vn -0.1601 -0.7281 -0.6666
vn 0.6323 -0.7597 -0.1517
vn -0.1603 -0.7273 -0.6673
vn 0.6275 -0.7639 -0.1507
vn 0.1485 -0.7717 0.6184
vn -0.6483 -0.7448 0.1581
vn 0.1542 -0.7631 0.6276
vn -0.6587 -0.7330 0.1698
vn 0.1464 -0.7675 0.6241
vn -0.6633 -0.7312 0.1593
vn 0.0000 -1.0000 0.0000
vn -0.9723 0.0000 0.2335
vn -0.2335 0.0000 -0.9724
vn 0.9724 0.0000 -0.2333
vn -0.2336 0.0000 -0.9723
vn 0.9724 0.0000 -0.2335
vn 0.2335 0.0000 0.9723
vn -0.9715 0.0000 0.2370
vn 0.2387 0.0000 0.9711
vn -0.9684 0.0000 0.2496
vn 0.2283 0.0000 0.9736
usemtl None
s off
f 12//1 7//1 6//1 5//1 2//1
f 12//2 13//2 9//2 8//2 7//2
f 13//3 17//3 16//3 14//3 9//3
f 17//4 18//4 15//4 16//4
f 18//5 11//5 15//5
f 11//6 10//6 14//6 16//6 15//6
f 10//7 4//7 8//7 9//7 14//7
f 4//8 3//8 6//8 7//8 8//8
f 3//9 1//9 5//9 6//9
f 1//10 2//10 5//10
f 19//11 20//11 21//11 22//11 23//11 24//11 25//11 26//11 27//11 28//11
f 1//12 19//12 20//12 2//12
f 2//13 20//13 21//13 12//13
f 12//14 21//14 22//14 13//14
f 13//15 22//15 23//15 17//15
f 17//16 23//16 24//16 18//16
f 18//17 24//17 25//17 11//17
f 11//18 25//18 26//18 10//18
f 10//19 26//19 27//19 4//19
f 4//20 27//20 28//20 3//20
f 3//21 28//21 19//21 1//21
