# Blender v2.92.0 OBJ File: ''
# www.blender.org
mtllib BK39_500_002053_0011.mtl
o BK39_500_002053_0011
v 342.324768 75.000000 -324.640747
v 249.529099 75.000000 -18.356949
v 153.159424 144.999649 -130.272919
v 200.871277 145.000000 -287.754059
v 13.699126 75.000000 -89.807457
v 106.492477 75.000000 -396.091949
v 342.324768 0.000000 -324.640747
v 249.529099 0.000000 -18.356949
v 13.699126 0.000000 -89.807457
v 106.492477 0.000000 -396.091949
vn -0.4685 -0.8720 -0.1419
vn -0.1960 -0.7370 0.6469
vn -0.1921 0.7491 0.6340
vn 0.4771 -0.8669 0.1445
vn 0.0000 -1.0000 0.0000
vn -0.9570 0.0000 -0.2900
vn 0.2900 0.0000 -0.9570
vn 0.9570 0.0000 0.2899
vn -0.2900 0.0000 0.9570
usemtl None
s off
f 3//1 4//1 1//1 2//1
f 4//2 6//2 1//2
f 5//3 2//3 3//3
f 5//4 6//4 4//4 3//4
f 7//5 8//5 9//5 10//5
f 1//6 7//6 8//6 2//6
f 2//7 8//7 9//7 5//7
f 5//8 9//8 10//8 6//8
f 6//9 10//9 7//9 1//9
