# Blender v2.92.0 OBJ File: ''
# www.blender.org
mtllib BK39_500_014030_0003_roof.mtl
o BK39_500_014030_0003_roof
v 249.174637 75.000000 -55.826073
v 85.163414 75.000000 -16.681122
v 151.959183 144.830200 -119.216995
v 271.285858 75.000000 -203.658310
v 216.955704 75.000000 -191.052475
v 173.771606 145.000000 -268.765900
v 119.352455 144.853546 -255.955841
v 231.612778 75.000000 -369.886322
v 13.300172 75.000000 -317.763580
v 249.174637 0.000000 -55.826073
v 85.163414 0.000000 -16.681122
v 13.300172 0.000000 -317.763580
v 231.612778 0.000000 -369.886322
v 271.285858 0.000000 -203.658310
v 216.955704 0.000000 -191.052475
vt 0.533190 0.691150
vt 0.874300 0.855370
vt 0.298820 0.956780
vt 0.761250 0.505050
vt 0.418780 0.336900
vt 0.046667 0.176780
vt 0.812680 0.041745
vt 0.609720 0.303720
vt 0.951880 0.472390
vn -0.1482 -0.7698 -0.6208
vn 0.6403 0.7529 -0.1525
vn 0.6014 -0.7860 -0.1435
vn 0.1477 -0.7717 0.6187
vn 0.6417 0.7515 -0.1532
vn -0.1432 -0.7736 -0.6173
usemtl None
s off
f 3/1/1 1/2/1 2/3/1
f 1/2/2 5/4/2 7/5/2 3/1/2
f 2/3/3 9/6/3 7/5/3 3/1/3
f 9/6/4 8/7/4 6/8/4 7/5/4
f 4/9/5 8/7/5 6/8/5
f 4/9/6 5/4/6 7/5/6 6/8/6
