# Blender v2.92.0 OBJ File: ''
# www.blender.org
mtllib BK39_500_017027_0010_roof.mtl
o BK39_500_017027_0010_roof
v 141.277954 75.000000 -357.975037
v 56.748322 75.813385 -208.851807
v 21.382023 75.000000 -146.290833
v 134.548477 145.000000 -261.851196
v 89.832817 75.000000 -107.520851
v 127.415398 75.841934 -171.724411
v 85.562202 75.000000 -99.983620
v 241.990967 143.438080 -203.223389
v 180.035110 143.581665 -93.514290
v 258.623322 133.515274 -207.968796
v 285.367371 75.000000 -109.217155
v 233.125092 75.000000 -16.405844
v 417.428223 133.418976 -118.155846
v 486.057617 75.000000 -162.684631
v 414.479553 75.000000 -36.309013
v 141.277954 0.000000 -357.975037
v 21.382023 0.000000 -146.290833
v 89.832817 0.000000 -107.520851
v 85.562202 0.000000 -99.983620
v 233.125092 0.000000 -16.405844
v 285.367371 0.000000 -109.217155
v 414.479553 0.000000 -36.309013
v 486.057617 0.000000 -162.684631
vt 0.167770 0.731950
vt 0.353010 0.749290
vt 0.457110 0.956020
vt 0.474490 0.455170
vt 0.507100 0.442440
vt 0.559540 0.707190
vt 0.812700 0.902660
vt 0.818490 0.683230
vt 0.953050 0.563850
vt 0.263820 0.297990
vt 0.277020 0.040281
vt 0.111270 0.440080
vt 0.249830 0.539610
vt 0.176140 0.711740
vt 0.041926 0.607800
vn 0.4232 -0.5125 -0.7472
vn -0.5508 -0.7749 -0.3100
vn -0.3080 0.7796 0.5453
vn -0.7307 -0.5430 -0.4139
vn -0.3091 -0.7790 0.5456
vn 0.7457 -0.5126 0.4255
vn 0.2978 -0.7686 -0.5662
vn 0.5448 -0.7796 0.3087
vn 0.0056 -0.9999 -0.0098
vn 0.8679 0.0722 0.4915
usemtl None
s off
f 7/1/1 9/2/1 12/3/1
f 12/3/2 9/2/2 8/4/2 10/5/2 11/6/2
f 15/7/3 13/8/3 10/5/3 11/6/3
f 15/7/4 13/8/4 14/9/4
f 14/9/5 13/8/5 10/5/5 8/4/5 4/10/5 1/11/5
f 1/11/6 4/10/6 2/12/6
f 2/12/7 4/10/7 8/4/7 6/13/7
f 7/1/8 5/14/8 6/13/8 8/4/8 9/2/8
f 3/15/9 2/12/9 6/13/9 5/14/9
f 1/11/10 2/12/10 3/15/10
