# Blender v2.92.0 OBJ File: ''
# www.blender.org
mtllib BK39_500_012032_0062.mtl
o BK39_500_012032_0062
v 351.219086 75.000000 -138.441772
v 244.598373 75.000000 -28.405334
v 227.843140 75.000000 -44.812782
v 200.481842 75.000000 -17.188730
v 240.485352 131.333282 -137.841202
v 223.134949 131.286346 -154.743622
v 195.737289 145.000000 -155.024628
v 171.662308 144.999969 -178.353302
v 171.400803 130.845459 -205.718430
v 123.067444 130.850845 -252.543076
v 37.446293 75.000000 -175.170837
v 64.131271 75.000000 -202.978363
v 15.743054 75.000000 -249.845856
v 122.523521 75.000000 -360.047516
v 351.219086 0.000000 -138.441772
v 244.598373 0.000000 -28.405334
v 227.843140 0.000000 -44.812782
v 200.481842 0.000000 -17.188730
v 37.446293 0.000000 -175.170837
v 64.131271 0.000000 -202.978363
v 15.743054 0.000000 -249.845856
v 122.523521 0.000000 -360.047516
vn -0.4166 -0.8146 -0.4037
vn 0.4191 -0.8008 -0.4280
vn -0.4064 -0.8202 -0.4026
vn 0.4109 -0.8071 -0.4240
vn 0.4291 -0.8040 0.4117
vn 0.4099 -0.8080 -0.4232
vn 0.4282 -0.8028 0.4149
vn -0.4092 -0.8088 0.4223
vn 0.0000 -1.0000 0.0000
vn -0.7182 0.0000 -0.6959
vn 0.6997 0.0000 -0.7145
vn -0.7105 0.0000 -0.7037
vn 0.6959 0.0000 -0.7181
vn 0.7215 0.0000 0.6924
vn 0.6957 0.0000 -0.7183
vn 0.7182 0.0000 0.6959
vn -0.6959 0.0000 0.7182
usemtl None
s off
f 2//1 5//1 1//1
f 2//2 3//2 6//2 5//2
f 3//3 4//3 7//3 6//3
f 4//4 11//4 8//4 7//4
f 11//5 12//5 9//5 8//5
f 12//6 13//6 10//6 9//6
f 13//7 14//7 10//7
f 14//8 1//8 5//8 6//8 7//8 8//8 9//8 10//8
f 15//9 16//9 17//9 18//9 19//9 20//9 21//9 22//9
f 1//10 15//10 16//10 2//10
f 2//11 16//11 17//11 3//11
f 3//12 17//12 18//12 4//12
f 4//13 18//13 19//13 11//13
f 11//14 19//14 20//14 12//14
f 12//15 20//15 21//15 13//15
f 13//16 21//16 22//16 14//16
f 14//17 22//17 15//17 1//17
