# Blender v2.92.0 OBJ File: ''
# www.blender.org
mtllib BK39_500_018026_0013.mtl
o BK39_500_018026_0013
v 342.720367 75.000000 -74.863617
v 117.544350 75.000000 -21.026346
v 201.972763 144.619095 -161.135391
v 315.629456 75.000000 -190.968445
v 511.954803 75.000000 -239.120590
v 298.133942 83.659676 -201.649780
v 193.442627 144.679947 -197.241516
v 187.629257 145.000000 -223.821747
v 171.484390 136.777283 -233.090439
v 210.724731 127.890732 -256.685699
v 409.914429 127.546875 -304.945831
v 472.563110 75.000000 -403.895264
v 247.070557 75.000000 -349.884277
v 146.560059 136.662064 -336.513702
v 221.081482 75.000000 -456.893341
v 24.559948 75.000000 -409.908875
v 342.720367 0.000000 -74.863617
v 117.544350 0.000000 -21.026346
v 24.559948 0.000000 -409.908875
v 221.081482 0.000000 -456.893341
v 247.070557 0.000000 -349.884277
v 472.563110 0.000000 -403.895264
v 511.954803 0.000000 -239.120590
v 315.629456 0.000000 -190.968445
vn -0.1192 -0.8587 -0.4985
vn -0.4965 -0.8603 0.1159
vn -0.4980 -0.8616 0.0985
vn 0.1261 -0.8409 0.5264
vn 0.1219 0.8592 0.4969
vn -0.5161 -0.8476 0.1234
vn -0.5070 -0.8531 0.1231
vn 0.1223 -0.8506 0.5114
vn 0.5047 -0.8548 -0.1207
vn 0.0000 -1.0000 0.0000
vn -0.2325 0.0000 -0.9726
vn 0.9726 0.0000 -0.2326
vn 0.2325 0.0000 0.9726
vn -0.9718 0.0000 0.2360
vn 0.2329 0.0000 0.9725
vn -0.9726 0.0000 0.2325
vn -0.2382 0.0000 -0.9712
vn -0.9738 0.0000 0.2272
usemtl None
s off
f 2//1 3//1 1//1
f 1//2 3//2 7//2 6//2 4//2
f 10//3 6//3 7//3 8//3
f 9//4 13//4 12//4 11//4 10//4 8//4
f 4//5 5//5 11//5 10//5 6//5
f 5//6 11//6 12//6
f 14//7 15//7 13//7 9//7
f 16//8 15//8 14//8
f 16//9 14//9 9//9 8//9 7//9 3//9 2//9
f 17//10 18//10 19//10 20//10 21//10 22//10 23//10 24//10
f 1//11 17//11 18//11 2//11
f 2//12 18//12 19//12 16//12
f 16//13 19//13 20//13 15//13
f 15//14 20//14 21//14 13//14
f 13//15 21//15 22//15 12//15
f 12//16 22//16 23//16 5//16
f 5//17 23//17 24//17 4//17
f 4//18 24//18 17//18 1//18
