# Blender v2.92.0 OBJ File: ''
# www.blender.org
mtllib BK39_500_018029_0048_roof.mtl
o BK39_500_018029_0048_roof
v 360.888794 145.000000 -324.233429
v 292.348938 75.000000 -370.876038
v 430.019012 75.000000 -277.184479
v 200.441910 75.000000 -234.367676
v 105.304588 75.000000 -300.117615
v 63.619518 130.686951 -238.899719
v 213.221603 130.188766 -136.314285
v 184.304321 144.437500 -63.147541
v 116.316689 75.000000 -109.417534
v 20.067503 75.000000 -174.878738
v 252.870499 75.000000 -16.464111
v 292.348938 0.000000 -370.876038
v 430.019012 0.000000 -277.184479
v 252.870499 0.000000 -16.464111
v 116.316689 0.000000 -109.417534
v 20.067503 0.000000 -174.878738
v 105.304588 0.000000 -300.117615
v 200.441910 0.000000 -234.367676
vt 0.044202 0.549280
vt 0.256200 0.718000
vt 0.469650 0.648670
vt 0.140130 0.384280
vt 0.231950 0.226500
vt 0.441500 0.395960
vt 0.405960 0.837250
vt 0.794910 0.164350
vt 0.643940 0.044134
vt 0.556980 0.957570
vt 0.947180 0.285610
vn -0.3284 0.8118 0.4828
vn -0.3417 -0.7993 0.4944
vn -0.5352 0.7641 -0.3603
vn 0.5309 0.7668 0.3607
vn 0.8267 0.0003 0.5626
vn 0.5627 -0.0001 -0.8267
vn -0.5626 0.0000 0.8267
usemtl None
s off
f 10/1/1 9/2/1 7/3/1 6/4/1
f 6/4/2 5/5/2 4/6/2 7/3/2
f 7/3/3 9/2/3 8/7/3 1/8/3 2/9/3 4/6/3
f 8/7/4 11/10/4 3/11/4 1/8/4
f 5/5/5 6/4/5 10/1/5
f 9/2/6 8/7/6 11/10/6
f 3/11/7 1/8/7 2/9/7
