# Blender v2.92.0 OBJ File: ''
# www.blender.org
mtllib BK39_500_015033_0054.mtl
o BK39_500_015033_0054
v 436.629211 75.000000 -204.174637
v 407.614044 75.000000 -323.093262
v 367.441803 131.165009 -247.886536
v 249.474747 75.000000 -158.580795
v 275.511536 75.000000 -51.614086
v 177.375046 131.128830 -201.544189
v 166.716766 144.987122 -182.805435
v 185.425400 145.000000 -105.886757
v 136.507385 122.662491 -201.429596
v 96.791687 75.000000 -139.228500
v 126.897514 75.000000 -15.353416
v 82.936516 122.296005 -188.782761
v 45.951725 75.000000 -127.614037
v 21.255308 75.000000 -228.805099
v 436.629211 0.000000 -204.174637
v 407.614044 0.000000 -323.093262
v 21.255308 0.000000 -228.805099
v 45.951725 0.000000 -127.614037
v 96.791687 0.000000 -139.228500
v 126.897514 0.000000 -15.353416
v 275.511536 0.000000 -51.614086
v 249.474747 0.000000 -158.580795
vn 0.6828 0.7114 -0.1666
vn -0.1634 -0.7234 -0.6708
vn 0.6644 0.7297 -0.1617
vn 0.1628 0.7268 0.6672
vn -0.1570 0.7492 -0.6434
vn -0.6479 0.7453 0.1575
vn -0.1508 -0.7358 -0.6601
vn 0.6646 -0.7294 -0.1622
vn 0.0000 1.0000 0.0000
vn 0.9715 0.0000 -0.2370
vn -0.2371 0.0000 -0.9715
vn -0.9715 0.0000 0.2371
vn 0.2227 0.0000 0.9749
vn -0.9717 0.0000 0.2362
vn 0.2370 0.0000 0.9715
vn 0.9716 0.0000 -0.2365
vn 0.2367 0.0000 0.9716
usemtl None
s off
f 3//1 1//1 2//1
f 1//2 4//2 6//2 3//2
f 7//3 8//3 5//3 4//3 6//3
f 8//4 11//4 5//4
f 12//5 9//5 7//5 6//5 3//5 2//5 14//5
f 9//6 10//6 11//6 8//6 7//6
f 10//7 13//7 12//7 9//7
f 13//8 14//8 12//8
f 15//9 16//9 17//9 18//9 19//9 20//9 21//9 22//9
f 1//10 15//10 16//10 2//10
f 2//11 16//11 17//11 14//11
f 14//12 17//12 18//12 13//12
f 13//13 18//13 19//13 10//13
f 10//14 19//14 20//14 11//14
f 11//15 20//15 21//15 5//15
f 5//16 21//16 22//16 4//16
f 4//17 22//17 15//17 1//17
