# Blender v2.92.0 OBJ File: ''
# www.blender.org
mtllib BK39_500_013028_0004.mtl
o BK39_500_013028_0004
v 21.894403 75.000000 -271.699738
v 73.548431 75.000000 -36.892345
v 168.505508 145.000000 -179.559906
v 215.254379 75.000000 -69.083481
v 227.633194 75.000000 -16.021498
v 238.157028 110.745247 -136.123642
v 265.428467 110.730042 -142.292557
v 289.156403 121.490166 -127.398560
v 291.896515 121.462601 -115.430672
v 259.488434 75.000000 -323.964264
v 283.788971 75.000000 -213.623672
v 308.426178 75.000000 -219.170868
v 337.624207 85.913582 -205.219894
v 360.998901 75.000000 -191.232788
v 392.231659 75.000000 -52.226082
v 21.894403 0.000000 -271.699738
v 73.548431 0.000000 -36.892345
v 215.254379 0.000000 -69.083481
v 227.633194 0.000000 -16.021498
v 392.231659 0.000000 -52.226082
v 360.998901 0.000000 -191.232788
v 308.426178 0.000000 -219.170868
v 283.788971 0.000000 -213.623672
v 259.488434 0.000000 -323.964264
vn 0.4664 -0.8779 -0.1088
vn 0.1047 0.8733 0.4758
vn 0.4721 0.8752 -0.1061
vn -0.1051 0.8781 -0.4669
vn 0.4923 0.8636 -0.1084
vn -0.4819 0.8698 0.1060
vn 0.1130 0.8602 0.4973
vn -0.1073 0.8665 -0.4876
vn -0.4656 0.1257 0.8761
vn 0.0000 1.0000 0.0000
vn -0.9766 0.0000 0.2148
vn 0.2215 0.0000 0.9752
vn -0.9739 0.0000 0.2272
vn 0.2148 0.0000 0.9767
vn 0.9757 0.0000 -0.2192
vn 0.4693 0.0000 -0.8831
vn -0.2197 0.0000 -0.9756
vn 0.9766 0.0000 -0.2151
vn -0.2148 0.0000 -0.9766
usemtl None
s off
f 4//1 7//1 8//1 9//1 5//1
f 5//2 15//2 9//2
f 15//3 14//3 13//3 8//3 9//3
f 13//4 12//4 11//4 6//4 7//4 8//4
f 11//5 10//5 3//5 6//5
f 1//6 2//6 3//6
f 2//7 4//7 7//7 6//7 3//7
f 10//8 1//8 3//8
f 14//9 13//9 12//9
f 16//10 17//10 18//10 19//10 20//10 21//10 22//10 23//10 24//10
f 1//11 16//11 17//11 2//11
f 2//12 17//12 18//12 4//12
f 4//13 18//13 19//13 5//13
f 5//14 19//14 20//14 15//14
f 15//15 20//15 21//15 14//15
f 14//16 21//16 22//16 12//16
f 12//17 22//17 23//17 11//17
f 11//18 23//18 24//18 10//18
f 10//19 24//19 16//19 1//19
