# Blender v2.92.0 OBJ File: ''
# www.blender.org
mtllib BK39_500_018031_0073_roof.mtl
o BK39_500_018031_0073_roof
v 378.662598 75.000000 -252.734497
v 355.020874 75.000000 -354.364044
v 316.216583 116.893875 -292.476532
v 309.000214 75.000000 -236.517548
v 344.914124 75.000000 -79.530655
v 319.327484 75.000000 -48.077263
v 313.716827 75.000000 -72.959053
v 247.445419 116.901306 -276.476685
v 221.774475 145.000000 -235.050690
v 242.591888 144.871826 -144.754593
v 210.363831 137.169876 -242.278183
v 251.763611 131.242645 -32.358936
v 230.422653 131.496155 -125.579170
v 185.446518 75.000000 -16.932474
v 154.254471 75.000000 -151.201416
v 103.157616 137.078751 -217.465866
v 83.660591 123.624985 -229.909439
v 56.886406 75.000000 -285.042664
v 17.938833 75.000000 -254.478943
v 47.666077 75.000000 -126.645981
v 378.662598 0.000000 -252.734497
v 355.020874 0.000000 -354.364044
v 56.886406 0.000000 -285.042664
v 17.938833 0.000000 -254.478943
v 47.666077 0.000000 -126.645981
v 154.254471 0.000000 -151.201416
v 185.446518 0.000000 -16.932474
v 319.327484 0.000000 -48.077263
v 313.716827 0.000000 -72.959053
v 344.914124 0.000000 -79.530655
v 309.000214 0.000000 -236.517548
vt 0.634170 0.912780
vt 0.804350 0.870410
vt 0.790220 0.803340
vt 0.580410 0.661510
vt 0.868800 0.785630
vt 0.611060 0.609830
vt 0.778340 0.362490
vt 0.623290 0.254780
vt 0.558630 0.366440
vt 0.953810 0.318770
vt 0.796520 0.211650
vt 0.894260 0.044841
vt 0.388550 0.592450
vt 0.467120 0.954360
vt 0.529880 0.346960
vt 0.143290 0.231690
vt 0.210730 0.380300
vt 0.259840 0.413840
vt 0.045186 0.314070
vt 0.120070 0.658640
vn 0.6144 0.7768 -0.1385
vn 0.1310 0.7722 0.6218
vn 0.6182 0.7732 -0.1414
vn 0.1408 0.7837 0.6049
vn -0.6124 -0.7776 0.1425
vn -0.6203 0.7710 0.1441
vn -0.1429 0.7757 -0.6147
vn -0.3891 0.7764 -0.4958
vn -0.6229 0.7688 0.1449
vn 0.1420 0.7747 0.6162
vn -0.2266 0.0000 -0.9740
usemtl None
s off
f 12/1/1 6/2/1 7/3/1 13/4/1
f 7/3/2 5/5/2 10/6/2 13/4/2
f 5/5/3 4/7/3 8/8/3 9/9/3 10/6/3
f 4/7/4 1/10/4 3/11/4 8/8/4
f 3/11/5 2/12/5 1/10/5
f 15/13/6 14/14/6 12/1/6 13/4/6 10/6/6 9/9/6 11/15/6
f 18/16/7 17/17/7 16/18/7 11/15/7 9/9/7 8/8/7 3/11/7 2/12/7
f 19/19/8 17/17/8 18/16/8
f 19/19/9 20/20/9 16/18/9 17/17/9
f 20/20/10 15/13/10 11/15/10 16/18/10
f 14/14/11 12/1/11 6/2/11
