# Blender v2.92.0 OBJ File: ''
# www.blender.org
mtllib BK39_500_017025_0051.mtl
o BK39_500_017025_0051
v 158.636551 144.034500 -22.660275
v 72.622879 75.000000 -16.626873
v 244.787018 75.000000 -28.714422
v 33.594833 75.000000 -131.276505
v 64.878456 75.000000 -134.395203
v 236.463425 75.000000 -147.424637
v 412.676636 75.000000 -159.664581
v 27.253984 145.000000 -221.091232
v 144.478531 143.672134 -231.061752
v 406.380585 143.744736 -249.348892
v 20.854164 75.000000 -312.515015
v 400.074951 75.000000 -339.131836
v 72.622879 0.000000 -16.626873
v 244.787018 0.000000 -28.714422
v 236.463425 0.000000 -147.424637
v 412.676636 0.000000 -159.664581
v 400.074951 0.000000 -339.131836
v 20.854164 0.000000 -312.515015
v 33.594833 0.000000 -131.276505
v 64.878456 0.000000 -134.395203
vn -0.0425 0.7947 -0.6055
vn 0.0421 0.7944 0.6060
vn 0.0609 0.7894 0.6109
vn 0.6229 0.7811 -0.0437
vn 0.6237 -0.7806 -0.0410
vn -0.9975 -0.0004 0.0701
vn 0.9975 -0.0000 -0.0700
vn 0.0700 -0.0001 0.9975
vn 0.0000 1.0000 0.0000
vn 0.0700 0.0000 0.9975
vn 0.9976 0.0000 -0.0699
vn 0.0693 0.0000 0.9976
vn -0.0700 0.0000 -0.9975
vn -0.9975 0.0000 0.0701
vn 0.0992 0.0000 0.9951
vn -0.9978 0.0000 0.0656
usemtl None
s off
f 8//1 9//1 10//1 12//1 11//1
f 9//2 6//2 7//2 10//2
f 8//3 4//3 5//3 9//3
f 9//4 1//4 3//4 6//4
f 1//5 2//5 5//5 9//5
f 4//6 8//6 11//6
f 12//7 10//7 7//7
f 3//8 1//8 2//8
f 13//9 14//9 15//9 16//9 17//9 18//9 19//9 20//9
f 2//10 13//10 14//10 3//10
f 3//11 14//11 15//11 6//11
f 6//12 15//12 16//12 7//12
f 7//7 16//7 17//7 12//7
f 12//13 17//13 18//13 11//13
f 11//14 18//14 19//14 4//14
f 4//15 19//15 20//15 5//15
f 5//16 20//16 13//16 2//16
