# Blender v2.92.0 OBJ File: ''
# www.blender.org
mtllib BK39_500_016029_0012.mtl
o BK39_500_016029_0012
v 305.816376 75.000000 -287.712494
v 16.871098 75.000000 -216.628784
v 249.938751 129.464432 -189.538254
v 161.200333 129.649429 -167.420853
v 145.785461 145.000000 -139.833054
v 344.117828 75.000000 -132.078995
v 255.098022 75.000000 -109.614677
v 266.686676 75.000000 -63.276672
v 66.725029 75.000000 -14.062984
v 305.816376 0.000000 -287.712494
v 16.871098 0.000000 -216.628784
v 66.725029 0.000000 -14.062984
v 266.686676 0.000000 -63.276672
v 255.098022 0.000000 -109.614677
v 344.117828 0.000000 -132.078995
vn 0.1322 -0.8329 0.5373
vn 0.5573 0.8189 -0.1371
vn -0.1392 -0.8225 -0.5515
vn 0.5612 0.8157 -0.1403
vn -0.1341 -0.8277 -0.5450
vn 0.5322 -0.8364 -0.1310
vn 0.0000 1.0000 0.0000
vn -0.2389 0.0000 -0.9710
vn -0.9710 0.0000 0.2390
vn 0.2390 0.0000 0.9710
vn 0.9701 0.0000 -0.2426
vn 0.2447 0.0000 0.9696
vn 0.9710 0.0000 -0.2390
usemtl None
s off
f 5//1 2//1 1//1 3//1 4//1
f 1//2 3//2 6//2
f 6//3 7//3 4//3 3//3
f 5//4 8//4 7//4 4//4
f 5//5 8//5 9//5
f 9//6 2//6 5//6
f 10//7 11//7 12//7 13//7 14//7 15//7
f 1//8 10//8 11//8 2//8
f 2//9 11//9 12//9 9//9
f 9//10 12//10 13//10 8//10
f 8//11 13//11 14//11 7//11
f 7//12 14//12 15//12 6//12
f 6//13 15//13 10//13 1//13
