# Blender v2.92.0 OBJ File: ''
# www.blender.org
mtllib BK39_500_012028_0005.mtl
o BK39_500_012028_0005
v 334.628571 75.000000 -123.745667
v 295.363953 75.000000 -292.445496
v 314.376068 145.000000 -210.831863
v 187.789459 75.000000 -266.331085
v 161.203369 75.000000 -379.215515
v 186.401703 75.000000 -89.226028
v 197.468689 75.000000 -42.582840
v 147.131165 144.350815 -171.031815
v 130.238342 133.001740 -180.911255
v 87.818192 132.806061 -362.139587
v 145.446426 117.607712 -30.475494
v 122.085716 117.430534 -129.894089
v 93.470474 75.000000 -18.380379
v 17.302734 75.000000 -345.727814
v 334.628571 0.000000 -123.745667
v 295.363953 0.000000 -292.445496
v 187.789459 0.000000 -266.331085
v 161.203369 0.000000 -379.215515
v 17.302734 0.000000 -345.727814
v 93.470474 0.000000 -18.380379
v 197.468689 0.000000 -42.582840
v 186.401703 0.000000 -89.226028
vn 0.6077 -0.7815 -0.1414
vn 0.6068 0.7817 -0.1440
vn 0.1398 0.7874 0.6004
vn -0.1512 0.7675 -0.6230
vn 0.5925 0.7934 -0.1395
vn -0.9740 0.0002 0.2267
vn 0.2267 0.0000 0.9740
vn -0.2267 0.0000 -0.9740
vn 0.0000 1.0000 0.0000
vn 0.9740 0.0000 -0.2267
vn -0.2359 0.0000 -0.9718
vn 0.9734 0.0000 -0.2292
vn -0.9740 0.0000 0.2266
vn 0.9730 0.0000 -0.2309
vn 0.2268 0.0000 0.9739
usemtl None
s off
f 13//1 14//1 10//1 9//1 8//1 12//1 11//1
f 11//2 7//2 6//2 12//2
f 6//3 1//3 3//3 8//3 12//3
f 3//4 2//4 4//4 9//4 8//4
f 9//5 4//5 5//5 10//5
f 1//6 3//6 2//6
f 5//7 10//7 14//7
f 13//8 11//8 7//8
f 15//9 16//9 17//9 18//9 19//9 20//9 21//9 22//9
f 1//10 15//10 16//10 2//10
f 2//11 16//11 17//11 4//11
f 4//12 17//12 18//12 5//12
f 5//8 18//8 19//8 14//8
f 14//13 19//13 20//13 13//13
f 13//7 20//7 21//7 7//7
f 7//14 21//14 22//14 6//14
f 6//15 22//15 15//15 1//15
