# Blender v2.92.0 OBJ File: ''
# www.blender.org
mtllib BK39_500_017032_0016_roof.mtl
o BK39_500_017032_0016_roof
v 363.138428 75.000000 -133.890366
v 310.720612 75.000000 -335.502899
v 308.143433 75.000000 -51.124622
v 291.469818 75.000000 -115.236427
v 235.783966 144.999283 -207.743073
v 227.978531 145.000000 -205.712570
v 205.572495 123.541885 -167.079926
v 222.726807 123.547913 -101.085052
v 171.506485 75.000000 -15.599991
v 135.173889 75.000000 -155.450638
v 102.418686 75.000000 -281.344971
v 157.985138 75.000000 -67.646042
v 40.706001 75.000000 -37.154297
v 17.878529 75.000000 -124.954666
v 363.138428 0.000000 -133.890366
v 310.720612 0.000000 -335.502899
v 102.418686 0.000000 -281.344971
v 135.173889 0.000000 -155.450638
v 17.878529 0.000000 -124.954666
v 40.706001 0.000000 -37.154297
v 157.985138 0.000000 -67.646042
v 171.506485 0.000000 -15.599991
v 308.143433 0.000000 -51.124622
v 291.469818 0.000000 -115.236427
vt 0.106840 0.893840
vt 0.046925 0.642990
vt 0.354790 0.555860
vt 0.414660 0.806730
vt 0.539560 0.522630
vt 0.598370 0.412250
vt 0.268820 0.196160
vt 0.618860 0.406450
vt 0.815540 0.041420
vt 0.953120 0.617460
vt 0.765010 0.670750
vt 0.808780 0.853930
vt 0.584580 0.711190
vt 0.450150 0.955430
vn 0.0000 -1.0000 0.0000
vn -0.5459 0.8257 0.1420
vn -0.1398 0.8315 -0.5376
vn -0.5380 -0.8313 0.1399
vn -0.1411 -0.8285 -0.5420
vn -0.5511 -0.8221 0.1433
vn 0.5459 -0.8257 -0.1418
vn 0.1436 0.8211 0.5524
usemtl None
s off
f 13/1/1 14/2/1 10/3/1 12/4/1
f 7/5/2 6/6/2 11/7/2 10/3/2
f 6/6/3 5/8/3 2/9/3 11/7/3
f 5/8/4 2/9/4 1/10/4
f 1/10/5 4/11/5 7/5/5 6/6/5 5/8/5
f 4/11/6 3/12/6 8/13/6 7/5/6
f 9/14/7 12/4/7 10/3/7 7/5/7 8/13/7
f 9/14/8 3/12/8 8/13/8
