# Blender v2.92.0 OBJ File: ''
# www.blender.org
mtllib BK39_500_013028_0037_roof.mtl
o BK39_500_013028_0037_roof
v 264.973389 75.000000 -324.629852
v 162.160538 75.000000 -282.684845
v 177.765167 75.000000 -244.101028
v 17.862026 75.000000 -179.450226
v 234.981827 118.624199 -251.678741
v 250.000336 118.670212 -214.701324
v 131.325317 145.000000 -131.385117
v 231.498123 144.884369 -172.041367
v 273.011017 119.685524 -154.873642
v 83.966568 75.000000 -17.416361
v 244.424103 75.000000 -82.790329
v 301.026337 119.697670 -86.143875
v 373.977051 75.000000 -57.370804
v 271.767212 75.000000 -15.671942
v 264.973389 0.000000 -324.629852
v 162.160538 0.000000 -282.684845
v 177.765167 0.000000 -244.101028
v 17.862026 0.000000 -179.450226
v 83.966568 0.000000 -17.416361
v 244.424103 0.000000 -82.790329
v 271.767212 0.000000 -15.671942
v 373.977051 0.000000 -57.370804
vt 0.695060 0.954040
vt 0.956460 0.831760
vt 0.769890 0.747380
vt 0.625130 0.757210
vt 0.698240 0.545830
vt 0.214750 0.948930
vt 0.335870 0.614710
vt 0.592070 0.495480
vt 0.045683 0.473750
vt 0.454640 0.284160
vt 0.639390 0.370380
vt 0.414730 0.171010
vt 0.600980 0.261940
vt 0.677680 0.048006
vn 0.2403 0.7715 0.5891
vn 0.5926 -0.7685 -0.2414
vn -0.2354 -0.7815 -0.5778
vn 0.5808 -0.7788 -0.2370
vn 0.2348 -0.7794 0.5808
vn 0.5704 -0.7883 -0.2307
vn 0.2316 -0.7900 0.5676
vn -0.5734 -0.7852 0.2338
usemtl None
s off
f 14/1/1 13/2/1 12/3/1
f 14/1/2 11/4/2 9/5/2 12/3/2
f 11/4/3 10/6/3 7/7/3 8/8/3 9/5/3
f 10/6/4 4/9/4 7/7/4
f 4/9/5 3/10/5 6/11/5 8/8/5 7/7/5
f 3/10/6 2/12/6 5/13/6 6/11/6
f 2/12/7 1/14/7 5/13/7
f 1/14/8 13/2/8 12/3/8 9/5/8 8/8/8 6/11/8 5/13/8
