# Blender v2.92.0 OBJ File: ''
# www.blender.org
mtllib BK39_500_014031_0022.mtl
o BK39_500_014031_0022
v 109.006241 75.000000 -349.004822
v 43.197166 75.000000 -266.613007
v 63.716568 75.000000 -249.707489
v 18.220102 75.000000 -191.497803
v 118.011169 116.653320 -274.379547
v 139.028519 116.815269 -257.333618
v 76.390739 75.000000 -145.059433
v 33.122440 75.000000 -89.980698
v 145.851227 145.000000 -206.255844
v 159.961716 120.097351 -153.493622
v 117.509087 119.818100 -100.059715
v 196.901749 144.996063 -165.495010
v 216.892624 133.559525 -168.046036
v 169.233704 75.000000 -70.941711
v 125.349495 75.000000 -16.308224
v 258.088501 133.744537 -134.848862
v 208.193970 75.000000 -39.839245
v 226.825211 75.000000 -63.538364
v 361.819580 75.000000 -147.116623
v 268.187103 75.000000 -29.901522
v 109.006241 0.000000 -349.004822
v 43.197166 0.000000 -266.613007
v 63.716568 0.000000 -249.707489
v 18.220102 0.000000 -191.497803
v 76.390739 0.000000 -145.059433
v 33.122440 0.000000 -89.980698
v 125.349495 0.000000 -16.308224
v 169.233704 0.000000 -70.941711
v 208.193970 0.000000 -39.839245
v 226.825211 0.000000 -63.538364
v 268.187103 0.000000 -29.901522
v 361.819580 0.000000 -147.116623
vn -0.3713 0.8037 0.4649
vn 0.4738 0.7941 0.3806
vn 0.4699 -0.8018 0.3692
vn -0.3800 0.7931 0.4760
vn 0.4944 0.7775 0.3887
vn -0.3889 0.7875 0.4782
vn 0.4882 0.7807 0.3900
vn 0.3870 0.7845 -0.4846
vn -0.4794 0.7897 -0.3829
vn -0.3903 0.7894 0.4738
vn -0.4788 0.7941 -0.3742
vn 0.0000 1.0000 0.0000
vn -0.7814 0.0000 -0.6241
vn -0.6359 0.0000 0.7718
vn -0.7879 0.0000 -0.6158
vn -0.6239 0.0000 0.7815
vn -0.7864 0.0000 -0.6178
vn -0.6241 0.0000 0.7813
vn 0.7796 0.0000 0.6262
vn 0.7861 0.0000 0.6180
vn -0.6309 0.0000 0.7758
vn 0.7813 0.0000 0.6241
vn 0.6240 0.0000 -0.7814
usemtl None
s off
f 8//1 15//1 11//1
f 15//2 14//2 10//2 11//2
f 11//3 8//3 7//3 10//3
f 4//4 7//4 10//4 14//4 17//4 12//4 9//4
f 17//5 18//5 13//5 12//5
f 18//6 20//6 16//6 13//6
f 20//7 19//7 16//7
f 1//8 5//8 6//8 9//8 12//8 13//8 16//8 19//8
f 2//9 5//9 1//9
f 2//10 3//10 6//10 5//10
f 3//11 4//11 9//11 6//11
f 21//12 22//12 23//12 24//12 25//12 26//12 27//12 28//12 29//12 30//12 31//12 32//12
f 1//13 21//13 22//13 2//13
f 2//14 22//14 23//14 3//14
f 3//15 23//15 24//15 4//15
f 4//16 24//16 25//16 7//16
f 7//17 25//17 26//17 8//17
f 8//18 26//18 27//18 15//18
f 15//19 27//19 28//19 14//19
f 14//16 28//16 29//16 17//16
f 17//20 29//20 30//20 18//20
f 18//21 30//21 31//21 20//21
f 20//22 31//22 32//22 19//22
f 19//23 32//23 21//23 1//23
