# Blender v2.92.0 OBJ File: ''
# www.blender.org
mtllib BK39_500_012031_0037.mtl
o BK39_500_012031_0037
v 268.137360 75.000000 -97.705276
v 97.835129 75.000000 -263.176575
v 182.861359 145.000000 -96.683807
v 101.112885 144.997559 -176.116272
v 184.516052 75.000000 -11.647177
v 14.219924 75.000000 -177.124725
v 268.137360 0.000000 -97.705276
v 97.835129 0.000000 -263.176575
v 14.219924 0.000000 -177.124725
v 184.516052 0.000000 -11.647177
vn -0.5428 -0.6536 -0.5274
vn 0.5297 -0.6497 -0.5452
vn 0.5330 -0.6691 0.5179
vn -0.5285 -0.6518 0.5439
vn 0.0000 1.0000 0.0000
vn 0.6969 0.0000 -0.7172
vn -0.7172 0.0000 -0.6969
vn -0.6969 0.0000 0.7172
vn 0.7172 0.0000 0.6969
usemtl None
s off
f 5//1 3//1 1//1
f 5//2 6//2 4//2 3//2
f 6//3 2//3 4//3
f 2//4 1//4 3//4 4//4
f 7//5 8//5 9//5 10//5
f 1//6 7//6 8//6 2//6
f 2//7 8//7 9//7 6//7
f 6//8 9//8 10//8 5//8
f 5//9 10//9 7//9 1//9
