# Blender v2.92.0 OBJ File: ''
# www.blender.org
mtllib BK39_500_016029_0035_roof.mtl
o BK39_500_016029_0035_roof
v 338.038239 75.000000 -218.078110
v 364.498932 75.000000 -111.886215
v 323.801819 75.000000 -214.879913
v 308.090668 75.000000 -276.680084
v 301.829071 108.734001 -151.236069
v 285.588745 108.852272 -147.381866
v 241.634491 75.000000 -324.528290
v 257.101257 75.000000 -263.854675
v 247.938644 128.382095 -169.821930
v 198.079453 128.347229 -157.340729
v 166.282379 145.000000 -176.551407
v 163.691437 144.982529 -186.826019
v 193.737015 75.000000 -43.345299
v 187.664352 75.000000 -67.820900
v 119.482315 109.025185 -106.271622
v 125.188515 109.018539 -83.319221
v 81.312546 75.000000 -15.339243
v 18.153873 75.000000 -268.857819
v 338.038239 0.000000 -218.078110
v 364.498932 0.000000 -111.886215
v 187.664352 0.000000 -67.820900
v 193.737015 0.000000 -43.345299
v 81.312546 0.000000 -15.339243
v 18.153873 0.000000 -268.857819
v 241.634491 0.000000 -324.528290
v 257.101257 0.000000 -263.854675
v 308.090668 0.000000 -276.680084
v 323.801819 0.000000 -214.879913
vt 0.632550 0.045505
vt 0.428510 0.450510
vt 0.435290 0.480730
vt 0.518530 0.537230
vt 0.673040 0.223960
vt 0.649050 0.500520
vt 0.806520 0.186240
vt 0.747610 0.566520
vt 0.847650 0.368000
vt 0.790130 0.555190
vt 0.884920 0.358590
vt 0.954190 0.670920
vt 0.047523 0.209240
vt 0.212860 0.954880
vt 0.327720 0.754940
vt 0.312780 0.687440
vt 0.507160 0.872510
vt 0.491270 0.800530
vn 0.5217 0.8427 -0.1330
vn -0.1255 0.8575 -0.4990
vn 0.5171 0.8458 -0.1315
vn -0.1112 0.8617 -0.4951
vn 0.5332 0.8355 -0.1329
vn 0.1258 -0.8538 0.5051
vn -0.4846 0.8663 0.1207
vn 0.1266 0.8520 0.5080
vn 0.4980 0.8583 -0.1236
vn 0.1292 0.8451 0.5187
usemtl None
s off
f 7/1/1 12/2/1 11/3/1 10/4/1 8/5/1
f 8/5/2 10/4/2 9/6/2 4/7/2
f 9/6/3 6/8/3 3/9/3 4/7/3
f 6/8/4 5/10/4 1/11/4 3/9/4
f 5/10/5 2/12/5 1/11/5
f 12/2/6 18/13/6 7/1/6
f 18/13/7 17/14/7 16/15/7 15/16/7 11/3/7 12/2/7
f 17/14/8 13/17/8 16/15/8
f 13/17/9 14/18/9 15/16/9 16/15/9
f 14/18/10 2/12/10 5/10/10 6/8/10 9/6/10 10/4/10 11/3/10 15/16/10
