# Blender v2.92.0 OBJ File: ''
# www.blender.org
mtllib BK39_500_015030_0051.mtl
o BK39_500_015030_0051
v 125.986992 145.000000 -669.826843
v 19.599787 75.000000 -638.203552
v 225.847717 75.000000 -699.510132
v 405.419739 75.000000 -95.272331
v 305.574188 144.989365 -65.593506
v 199.203140 75.000000 -33.975063
v 19.599787 0.000000 -638.203552
v 225.847717 0.000000 -699.510132
v 405.419739 0.000000 -95.272331
v 199.203140 0.000000 -33.975063
vn -0.5113 0.8458 0.1520
vn 0.5346 0.8300 -0.1589
vn -0.2849 0.0000 -0.9585
vn 0.2849 0.0000 0.9585
vn 0.0000 -1.0000 0.0000
vn -0.9586 0.0000 0.2849
vn 0.9586 0.0000 -0.2849
usemtl None
s off
f 5//1 1//1 2//1 6//1
f 5//2 4//2 3//2 1//2
f 6//3 5//3 4//3
f 3//4 1//4 2//4
f 7//5 8//5 9//5 10//5
f 2//4 7//4 8//4 3//4
f 3//6 8//6 9//6 4//6
f 4//3 9//3 10//3 6//3
f 6//7 10//7 7//7 2//7
