# Blender v2.92.0 OBJ File: ''
# www.blender.org
mtllib BK39_500_017026_0049_roof.mtl
o BK39_500_017026_0049_roof
v 384.090515 75.000000 -135.905472
v 283.975861 75.000000 -15.433584
v 272.180511 144.850830 -125.327560
v 286.202087 75.000000 -217.231110
v 250.093155 144.832382 -143.705078
v 222.942200 75.000000 -66.288956
v 207.794098 75.000000 -295.831055
v 196.947891 75.000000 -232.559784
v 109.684692 145.000000 -167.627670
v 95.617416 75.000000 -315.060822
v 84.777138 75.000000 -251.824173
v 16.780102 75.000000 -101.125549
v 43.819584 75.000000 -258.858276
v 384.090515 0.000000 -135.905472
v 283.975861 0.000000 -15.433584
v 222.942200 0.000000 -66.288956
v 16.780102 0.000000 -101.125549
v 43.819584 0.000000 -258.858276
v 84.777138 0.000000 -251.824173
v 95.617416 0.000000 -315.060822
v 207.794098 0.000000 -295.831055
v 196.947891 0.000000 -232.559784
v 286.202087 0.000000 -217.231110
vt 0.704650 0.953090
vt 0.675390 0.619070
vt 0.953080 0.586910
vt 0.620580 0.563210
vt 0.710180 0.339720
vt 0.272170 0.490490
vt 0.108730 0.213200
vt 0.210370 0.234580
vt 0.488700 0.293130
vt 0.237260 0.042368
vt 0.515620 0.100820
vt 0.041638 0.692630
vt 0.553210 0.798510
vn -0.5083 -0.7504 -0.4224
vn -0.4213 -0.7518 0.5072
vn -0.1124 -0.7475 0.6547
vn 0.0000 -1.0000 0.0000
vn 0.6475 -0.7539 0.1110
vn 0.1089 -0.7568 -0.6445
vn 0.4305 -0.7401 -0.5166
usemtl None
s off
f 2/1/1 3/2/1 1/3/1
f 1/3/2 3/2/2 5/4/2 4/5/2
f 4/5/3 5/4/3 9/6/3 13/7/3 11/8/3 8/9/3
f 11/8/4 10/10/4 7/11/4 8/9/4
f 13/7/5 9/6/5 12/12/5
f 12/12/6 9/6/6 5/4/6 6/13/6
f 6/13/7 5/4/7 3/2/7 2/1/7
