# Blender v2.92.0 OBJ File: ''
# www.blender.org
mtllib BK39_500_014028_0006.mtl
o BK39_500_014028_0006
v 15.970069 75.000000 -366.176849
v 168.085831 75.000000 -403.960754
v 219.358627 75.000000 -346.470398
v 184.505234 75.000000 -337.810547
v 107.847198 140.402924 -310.215027
v 124.128738 140.403152 -244.619080
v 130.459473 144.916595 -240.796204
v 154.473282 145.000000 -246.663101
v 188.775757 122.034584 -227.243210
v 257.324432 75.000000 -194.303375
v 300.626984 75.000000 -205.770264
v 150.328568 75.000000 -161.367508
v 71.503036 75.000000 -142.438934
v 213.587387 122.112381 -127.398285
v 240.093246 141.524597 -111.621880
v 185.536682 75.000000 -19.166885
v 337.600128 75.000000 -56.937698
v 15.970069 0.000000 -366.176849
v 168.085831 0.000000 -403.960754
v 184.505234 0.000000 -337.810547
v 219.358627 0.000000 -346.470398
v 257.324432 0.000000 -194.303375
v 300.626984 0.000000 -205.770264
v 337.600128 0.000000 -56.937698
v 185.536682 0.000000 -19.166885
v 150.328568 0.000000 -161.367508
v 71.503036 0.000000 -142.438934
vn 0.1581 0.7549 0.6365
vn 0.6433 -0.7489 -0.1593
vn 0.6139 0.7745 -0.1525
vn -0.1692 0.7504 -0.6390
vn 0.6077 0.7795 -0.1516
vn -0.1574 0.7575 -0.6336
vn 0.6095 0.7782 -0.1513
vn -0.1567 0.7599 -0.6309
vn -0.6346 0.7567 0.1575
vn 0.1516 0.7604 0.6314
vn 0.0000 -1.0000 0.0000
vn 0.2411 0.0000 0.9705
vn -0.9705 0.0000 0.2409
vn -0.9703 0.0000 0.2421
vn 0.2560 0.0000 0.9667
vn -0.9705 0.0000 0.2411
vn -0.2411 0.0000 -0.9705
vn 0.9707 0.0000 -0.2403
vn -0.2335 0.0000 -0.9724
vn 0.9706 0.0000 -0.2409
usemtl None
s off
f 16//1 17//1 15//1
f 16//2 12//2 9//2 14//2 15//2
f 17//3 11//3 15//3
f 11//4 10//4 14//4 15//4
f 10//5 3//5 8//5 9//5 14//5
f 3//6 4//6 6//6 7//6 8//6
f 4//7 2//7 5//7 6//7
f 2//8 1//8 5//8
f 1//9 13//9 7//9 6//9 5//9
f 13//10 12//10 9//10 8//10 7//10
f 18//11 19//11 20//11 21//11 22//11 23//11 24//11 25//11 26//11 27//11
f 1//12 18//12 19//12 2//12
f 2//13 19//13 20//13 4//13
f 4//12 20//12 21//12 3//12
f 3//14 21//14 22//14 10//14
f 10//15 22//15 23//15 11//15
f 11//16 23//16 24//16 17//16
f 17//17 24//17 25//17 16//17
f 16//18 25//18 26//18 12//18
f 12//19 26//19 27//19 13//19
f 13//20 27//20 18//20 1//20
