# Blender v2.92.0 OBJ File: ''
# www.blender.org
mtllib BK39_500_016030_0048_roof.mtl
o BK39_500_016030_0048_roof
v 169.398834 75.000000 -378.733765
v 15.689770 75.000000 -298.620239
v 132.816849 144.957306 -261.093994
v 222.709549 75.000000 -276.103546
v 259.564545 75.000000 -295.213013
v 39.941135 75.000000 -117.192543
v 94.931328 75.000000 -145.717255
v 184.476715 145.000000 -161.527115
v 223.167786 144.962219 -181.639709
v 171.552383 121.174377 -122.274391
v 115.008652 121.224739 -92.874901
v 91.800491 75.000000 -17.692451
v 337.476105 75.000000 -145.728241
v 169.398834 0.000000 -378.733765
v 15.689770 0.000000 -298.620239
v 94.931328 0.000000 -145.717255
v 39.941135 0.000000 -117.192543
v 91.800491 0.000000 -17.692451
v 337.476105 0.000000 -145.728241
v 259.564545 0.000000 -295.213013
v 222.709549 0.000000 -276.103546
vt 0.259320 0.955430
vt 0.324880 0.766060
vt 0.112830 0.704800
vt 0.268170 0.632950
vt 0.484610 0.692000
vt 0.478530 0.046011
vt 0.375190 0.342330
vt 0.044321 0.247810
vt 0.521120 0.593130
vt 0.629120 0.304530
vt 0.733230 0.256390
vt 0.630420 0.542470
vt 0.953320 0.632930
vn -0.5686 0.7674 0.2963
vn 0.2927 -0.7721 0.5642
vn 0.2888 -0.7808 0.5541
vn 0.5574 -0.7783 -0.2889
vn -0.5573 -0.7782 0.2895
vn -0.2944 0.7687 -0.5679
vn -0.5645 -0.7712 0.2942
vn 0.2944 0.7709 0.5648
usemtl None
s off
f 12/1/1 11/2/1 6/3/1
f 7/4/2 10/5/2 11/2/2 6/3/2
f 1/6/3 3/7/3 2/8/3
f 2/8/4 3/7/4 8/9/4 10/5/4 7/4/4
f 4/10/5 8/9/5 3/7/5 1/6/5
f 5/11/6 4/10/6 8/9/6 9/12/6
f 13/13/7 9/12/7 5/11/7
f 12/1/8 13/13/8 9/12/8 8/9/8 10/5/8 11/2/8
