# Blender v2.92.0 OBJ File: ''
# www.blender.org
mtllib BK39_500_014034_0062_roof.mtl
o BK39_500_014034_0062_roof
v 17.141825 75.000000 -269.736969
v 333.654602 75.000000 -345.108734
v 293.680786 118.110283 -280.331818
v 247.441345 118.503273 -268.817017
v 106.673294 135.926453 -212.962997
v 210.886749 136.128464 -237.520615
v 224.020386 144.933685 -229.361786
v 311.217255 75.000000 -228.110001
v 358.561035 75.000000 -240.429810
v 51.664268 75.000000 -124.723183
v 154.228973 75.000000 -148.646194
v 249.632202 145.000000 -121.752541
v 185.630981 75.000000 -16.273335
v 352.323181 75.000000 -55.955257
v 17.141825 0.000000 -269.736969
v 333.654602 0.000000 -345.108734
v 358.561035 0.000000 -240.429810
v 311.217255 0.000000 -228.110001
v 352.323181 0.000000 -55.955257
v 185.630981 0.000000 -16.273335
v 154.228973 0.000000 -148.646194
v 51.664268 0.000000 -124.723183
vt 0.492390 0.955050
vt 0.934540 0.845430
vt 0.662150 0.663670
vt 0.825510 0.369860
vt 0.656340 0.257410
vt 0.594220 0.366400
vt 0.951090 0.335830
vt 0.778990 0.225600
vt 0.885030 0.046661
vt 0.045469 0.254870
vt 0.282950 0.411700
vt 0.559380 0.343870
vt 0.137040 0.655460
vt 0.409100 0.589380
vn 0.1444 0.7819 0.6065
vn 0.6201 0.7705 -0.1481
vn 0.1554 0.7868 0.5973
vn 0.6078 0.7808 -0.1446
vn -0.1449 0.7801 -0.6086
vn -0.6186 0.7718 0.1473
vn 0.1450 0.7696 0.6218
vn -0.6116 0.7778 0.1451
usemtl None
s off
f 13/1/1 14/2/1 12/3/1
f 14/2/2 8/4/2 4/5/2 7/6/2 12/3/2
f 8/4/3 9/7/3 3/8/3 4/5/3
f 9/7/4 2/9/4 3/8/4
f 1/10/5 5/11/5 6/12/5 7/6/5 4/5/5 3/8/5 2/9/5
f 1/10/6 10/13/6 5/11/6
f 10/13/7 11/14/7 6/12/7 5/11/7
f 11/14/8 13/1/8 12/3/8 7/6/8 6/12/8
