# Blender v2.92.0 OBJ File: ''
# www.blender.org
mtllib BK39_500_014026_0042.mtl
o BK39_500_014026_0042
v 26.590548 75.000000 -413.223358
v 85.780647 75.000000 -481.821136
v 121.413681 75.000000 -451.074890
v 131.440079 75.000000 -462.694885
v 62.223587 75.000000 -382.477112
v 18.914185 75.000000 -332.284149
v 138.083801 145.000000 -339.255096
v 140.778412 75.000000 -162.854614
v 172.408600 75.000000 -199.916122
v 200.468216 75.000000 -112.150818
v 174.550552 75.000000 -80.230354
v 289.204315 144.962463 -208.875397
v 257.092072 144.850189 -171.454254
v 262.182404 111.525238 -115.889252
v 236.226913 111.031410 -84.899284
v 411.199524 75.000000 -221.214661
v 240.451263 75.000000 -23.338972
v 26.590548 0.000000 -413.223358
v 85.780647 0.000000 -481.821136
v 121.413681 0.000000 -451.074890
v 131.440079 0.000000 -462.694885
v 411.199524 0.000000 -221.214661
v 240.451263 0.000000 -23.338972
v 174.550552 0.000000 -80.230354
v 200.468216 0.000000 -112.150818
v 140.778412 0.000000 -162.854614
v 172.408600 0.000000 -199.916122
v 18.914185 0.000000 -332.284149
v 62.223587 0.000000 -382.477112
vn -0.4207 0.7648 0.4879
vn 0.4790 -0.7744 0.4133
vn -0.4037 -0.7864 0.4677
vn 0.4835 0.7695 0.4172
vn -0.4149 0.7725 0.4806
vn 0.4856 -0.7802 0.3943
vn -0.4202 0.7607 0.4947
vn 0.4902 -0.7647 0.4183
vn 0.0000 -1.0000 -0.0000
vn 0.7571 0.0000 0.6533
vn -0.6533 0.0000 0.7571
vn -0.6534 0.0000 0.7570
vn -0.7571 0.0000 -0.6533
vn 0.6535 0.0000 -0.7570
vn 0.7763 0.0000 0.6303
vn 0.6474 0.0000 -0.7621
vn 0.7606 0.0000 0.6492
vn 0.6531 0.0000 -0.7573
vn 0.6533 0.0000 -0.7571
usemtl None
s off
f 6//1 9//1 12//1 7//1
f 6//2 5//2 3//2 4//2 7//2
f 4//3 16//3 12//3 7//3
f 17//4 16//4 12//4 13//4 14//4 15//4
f 11//5 17//5 15//5
f 11//6 10//6 14//6 15//6
f 8//7 10//7 14//7 13//7
f 8//8 9//8 12//8 13//8
f 5//9 1//9 2//9 3//9
f 18//9 19//9 20//9 21//9 22//9 23//9 24//9 25//9 26//9 27//9 28//9 29//9
f 1//10 18//10 19//10 2//10
f 2//11 19//11 20//11 3//11
f 3//10 20//10 21//10 4//10
f 4//12 21//12 22//12 16//12
f 16//13 22//13 23//13 17//13
f 17//14 23//14 24//14 11//14
f 11//15 24//15 25//15 10//15
f 10//16 25//16 26//16 8//16
f 8//17 26//17 27//17 9//17
f 9//18 27//18 28//18 6//18
f 6//10 28//10 29//10 5//10
f 5//19 29//19 18//19 1//19
