# Blender v2.92.0 OBJ File: ''
# www.blender.org
mtllib BK39_500_016027_0002.mtl
o BK39_500_016027_0002
v 19.492634 75.000000 -317.832520
v 368.283508 75.000000 -406.345551
v 196.482864 135.607452 -285.171417
v 318.442139 135.765457 -315.918915
v 176.482803 137.369690 -277.840363
v 114.981033 137.339417 -262.271729
v 188.599045 145.000000 -271.148499
v 57.137222 75.000000 -169.468857
v 115.092163 75.000000 -184.103882
v 406.839844 75.000000 -254.385086
v 285.487518 75.000000 -224.007050
v 157.062927 75.000000 -18.619534
v 246.619186 144.806427 -41.341686
v 326.332611 75.000000 -61.568920
v 19.492634 0.000000 -317.832520
v 368.283508 0.000000 -406.345551
v 406.839844 0.000000 -254.385086
v 285.487518 0.000000 -224.007050
v 326.332611 0.000000 -61.568920
v 157.062927 0.000000 -18.619534
v 115.092163 0.000000 -184.103882
v 57.137222 0.000000 -169.468857
vn 0.1544 -0.7786 0.6083
vn -0.6010 0.7846 0.1525
vn 0.1555 0.7724 0.6158
vn -0.5843 0.7979 0.1482
vn 0.6276 0.7624 -0.1578
vn 0.1455 0.8005 0.5814
vn 0.6326 0.7577 -0.1605
vn 0.2459 -0.0000 0.9693
vn 0.0000 -1.0000 0.0000
vn 0.2460 0.0000 0.9693
vn -0.9693 0.0000 0.2459
vn -0.2428 0.0000 -0.9701
vn -0.9698 0.0000 0.2439
vn -0.2459 0.0000 -0.9693
vn 0.9693 0.0000 -0.2458
vn -0.2448 0.0000 -0.9696
vn 0.9693 0.0000 -0.2459
usemtl None
s off
f 1//1 2//1 4//1 3//1 7//1 5//1 6//1
f 1//2 8//2 6//2
f 6//3 8//3 9//3 5//3
f 9//4 12//4 13//4 7//4 5//4
f 13//5 14//5 11//5 3//5 7//5
f 11//6 10//6 4//6 3//6
f 10//7 2//7 4//7
f 14//8 13//8 12//8
f 15//9 16//9 17//9 18//9 19//9 20//9 21//9 22//9
f 1//10 15//10 16//10 2//10
f 2//11 16//11 17//11 10//11
f 10//12 17//12 18//12 11//12
f 11//13 18//13 19//13 14//13
f 14//14 19//14 20//14 12//14
f 12//15 20//15 21//15 9//15
f 9//16 21//16 22//16 8//16
f 8//17 22//17 15//17 1//17
