# Blender v2.92.0 OBJ File: ''
# www.blender.org
mtllib BK39_500_015031_0060.mtl
o BK39_500_015031_0060
v 191.413010 75.000000 -40.798843
v 84.231285 75.000000 -15.975618
v 332.905731 75.000000 -122.752464
v 181.519058 75.000000 -87.760033
v 127.920944 119.180862 -81.685257
v 117.445152 119.564278 -129.147568
v 142.584991 145.000000 -167.034363
v 234.643539 144.933472 -188.229431
v 129.367447 136.447464 -174.877350
v 294.013519 75.000000 -290.759674
v 183.312927 75.000000 -265.374298
v 111.355789 136.309998 -251.893860
v 16.968927 75.000000 -306.540894
v 165.480286 75.000000 -340.918732
v 191.413010 0.000000 -40.798843
v 84.231285 0.000000 -15.975618
v 16.968927 0.000000 -306.540894
v 165.480286 0.000000 -340.918732
v 183.312927 0.000000 -265.374298
v 294.013519 0.000000 -290.759674
v 332.905731 0.000000 -122.752464
v 181.519058 0.000000 -87.760033
vn -0.1426 -0.7749 -0.6158
vn -0.6217 -0.7722 0.1310
vn 0.1422 0.7756 0.6150
vn 0.6368 0.7568 -0.1474
vn -0.1404 0.7782 -0.6121
vn 0.6253 0.7663 -0.1476
vn -0.1433 0.7723 -0.6189
vn -0.5943 0.7924 0.1376
vn 0.0000 -1.0000 0.0000
vn -0.2256 0.0000 -0.9742
vn 0.9742 0.0000 -0.2255
vn 0.2255 0.0000 0.9742
vn -0.9733 0.0000 0.2297
vn 0.2235 0.0000 0.9747
vn -0.9742 0.0000 0.2255
vn -0.2252 0.0000 -0.9743
vn -0.9785 0.0000 0.2062
usemtl None
s off
f 5//1 1//1 2//1
f 5//2 6//2 4//2 1//2
f 4//3 3//3 8//3 7//3 6//3
f 3//4 10//4 8//4
f 10//5 11//5 9//5 7//5 8//5
f 11//6 14//6 12//6 9//6
f 14//7 13//7 12//7
f 13//8 2//8 5//8 6//8 7//8 9//8 12//8
f 15//9 16//9 17//9 18//9 19//9 20//9 21//9 22//9
f 1//10 15//10 16//10 2//10
f 2//11 16//11 17//11 13//11
f 13//12 17//12 18//12 14//12
f 14//13 18//13 19//13 11//13
f 11//14 19//14 20//14 10//14
f 10//15 20//15 21//15 3//15
f 3//16 21//16 22//16 4//16
f 4//17 22//17 15//17 1//17
