# Blender v2.92.0 OBJ File: ''
# www.blender.org
mtllib BK39_500_015031_0070.mtl
o BK39_500_015031_0070
v 303.046234 75.000000 -79.728302
v 228.157700 75.000000 -336.121735
v 154.320343 145.000000 -195.041473
v 166.896774 144.999725 -151.985474
v 88.146164 75.000000 -351.500854
v 103.292908 75.000000 -299.647675
v 33.812485 75.000000 -335.629547
v 48.959232 75.000000 -283.776367
v 13.658891 75.000000 -273.464844
v 88.552444 75.000000 -17.072891
v 303.046234 0.000000 -79.728302
v 228.157700 0.000000 -336.121735
v 103.292908 0.000000 -299.647675
v 88.146164 0.000000 -351.500854
v 33.812485 0.000000 -335.629547
v 48.959232 0.000000 -283.776367
v 13.658891 0.000000 -273.464844
v 88.552444 0.000000 -17.072891
vn -0.1530 -0.8381 -0.5237
vn 0.5054 -0.8502 -0.1476
vn 0.0000 -1.0000 0.0000
vn -0.1460 0.8536 -0.5000
vn 0.5139 0.8446 -0.1501
vn 0.0000 1.0000 0.0000
vn 0.9599 0.0000 -0.2804
vn -0.2804 0.0000 -0.9599
vn -0.9599 0.0000 0.2804
vn 0.2804 0.0000 0.9599
usemtl None
s off
f 4//1 1//1 10//1
f 10//2 9//2 3//2 4//2
f 8//3 7//3 5//3 6//3
f 2//4 6//4 8//4 9//4 3//4
f 1//5 2//5 3//5 4//5
f 11//6 12//6 13//6 14//6 15//6 16//6 17//6 18//6
f 1//7 11//7 12//7 2//7
f 2//8 12//8 13//8 6//8
f 6//7 13//7 14//7 5//7
f 5//8 14//8 15//8 7//8
f 7//9 15//9 16//9 8//9
f 8//8 16//8 17//8 9//8
f 9//9 17//9 18//9 10//9
f 10//10 18//10 11//10 1//10
