# Blender v2.92.0 OBJ File: ''
# www.blender.org
mtllib BK39_500_018026_0032.mtl
o BK39_500_018026_0032
v 16.194731 75.000000 -220.936905
v 169.364624 75.000000 -15.989982
v 254.703812 145.000000 -79.762611
v 101.402245 144.895447 -284.619904
v 333.148834 75.000000 -138.392090
v 179.734634 75.000000 -343.155792
v 16.194731 0.000000 -220.936905
v 169.364624 0.000000 -15.989982
v 333.148834 0.000000 -138.392090
v 179.734634 0.000000 -343.155792
vn -0.4399 0.8357 0.3287
vn -0.4654 -0.8135 0.3487
vn -0.5986 0.0001 -0.8010
vn 0.5986 0.0001 0.8010
vn 0.0000 1.0000 0.0000
vn -0.8010 0.0000 0.5986
vn 0.5986 0.0000 0.8010
vn 0.8003 0.0000 -0.5996
vn -0.5986 0.0000 -0.8010
usemtl None
s off
f 3//1 4//1 1//1 2//1
f 3//2 4//2 6//2 5//2
f 2//3 3//3 5//3
f 6//4 4//4 1//4
f 7//5 8//5 9//5 10//5
f 1//6 7//6 8//6 2//6
f 2//7 8//7 9//7 5//7
f 5//8 9//8 10//8 6//8
f 6//9 10//9 7//9 1//9
