# Blender v2.92.0 OBJ File: ''
# www.blender.org
mtllib BK39_500_017031_0040.mtl
o BK39_500_017031_0040
v 67.752014 75.000000 -12.201418
v 14.988779 75.000000 -227.716156
v 142.461761 144.991867 -136.141998
v 137.547943 145.000000 -156.262634
v 143.829117 138.892227 -166.654282
v 262.054352 75.000000 -59.794361
v 253.374542 75.000000 -95.420692
v 324.664154 75.000000 -112.863388
v 302.014526 138.903885 -205.375992
v 280.598907 75.000000 -292.762390
v 67.752014 0.000000 -12.201418
v 14.988779 0.000000 -227.716156
v 280.598907 0.000000 -292.762390
v 324.664154 0.000000 -112.863388
v 253.374542 0.000000 -95.420692
v 262.054352 0.000000 -59.794361
vn -0.1341 -0.8261 -0.5473
vn -0.5642 -0.8141 0.1375
vn 0.1324 0.8304 0.5412
vn 0.1377 -0.8153 0.5624
vn 0.5494 -0.8246 -0.1345
vn 0.9713 -0.0002 -0.2379
vn 0.0000 -1.0000 0.0000
vn 0.9713 0.0000 -0.2378
vn 0.2379 0.0000 0.9713
vn -0.9713 0.0000 0.2379
vn -0.2377 0.0000 -0.9713
vn -0.9716 0.0000 0.2367
vn -0.2379 0.0000 -0.9713
usemtl None
s off
f 1//1 3//1 6//1
f 5//2 7//2 6//2 3//2 4//2
f 8//3 9//3 5//3 7//3
f 2//4 10//4 9//4 5//4 4//4
f 1//5 2//5 4//5 3//5
f 10//6 9//6 8//6
f 11//7 12//7 13//7 14//7 15//7 16//7
f 1//8 11//8 12//8 2//8
f 2//9 12//9 13//9 10//9
f 10//10 13//10 14//10 8//10
f 8//11 14//11 15//11 7//11
f 7//12 15//12 16//12 6//12
f 6//13 16//13 11//13 1//13
