# Blender v2.92.0 OBJ File: ''
# www.blender.org
mtllib BK39_500_013033_0009.mtl
o BK39_500_013033_0009
v 17.650282 75.000000 -121.915428
v 232.155060 75.000000 -397.972290
v 249.999084 145.000000 -280.573486
v 138.185806 144.989990 -136.695496
v 151.175888 75.000000 -18.137045
v 365.717285 75.000000 -294.165436
v 17.650282 0.000000 -121.915428
v 232.155060 0.000000 -397.972290
v 365.717285 0.000000 -294.165436
v 151.175888 0.000000 -18.137045
vn -0.3883 0.7743 0.4997
vn -0.5089 -0.7645 -0.3956
vn 0.3992 0.7596 -0.5136
vn -0.4980 0.7760 -0.3870
vn 0.0000 -1.0000 0.0000
vn 0.7896 0.0000 0.6136
vn -0.6137 0.0000 0.7896
vn -0.7896 0.0000 -0.6137
vn 0.6137 0.0000 -0.7896
usemtl None
s off
f 5//1 4//1 1//1
f 4//2 3//2 6//2 5//2
f 6//3 2//3 3//3
f 2//4 1//4 4//4 3//4
f 7//5 8//5 9//5 10//5
f 1//6 7//6 8//6 2//6
f 2//7 8//7 9//7 6//7
f 6//8 9//8 10//8 5//8
f 5//9 10//9 7//9 1//9
