# Blender v2.92.0 OBJ File: ''
# www.blender.org
mtllib BK39_500_018025_0044_roof.mtl
o BK39_500_018025_0044_roof
v 227.523178 75.000000 -316.469086
v 91.239685 75.000000 -274.516296
v 15.405566 75.000000 -199.523804
v 104.660614 75.000000 -226.875595
v 176.895645 135.700455 -228.855545
v 190.516296 136.188293 -182.582504
v 183.082794 145.000000 -170.136993
v 38.096577 144.935654 -125.780876
v 200.463165 133.740051 -160.436890
v 218.231812 133.783218 -102.535606
v 157.919312 75.000000 -69.158730
v 64.314751 75.000000 -40.577343
v 307.723785 75.000000 -55.934807
v 174.508286 75.000000 -14.943515
v 227.523178 0.000000 -316.469086
v 91.239685 0.000000 -274.516296
v 104.660614 0.000000 -226.875595
v 15.405566 0.000000 -199.523804
v 64.314751 0.000000 -40.577343
v 157.919312 0.000000 -69.158730
v 174.508286 0.000000 -14.943515
v 307.723785 0.000000 -55.934807
vt 0.538610 0.954990
vt 0.673550 0.691160
vt 0.949760 0.831520
vt 0.487410 0.791690
vt 0.618710 0.516760
vt 0.702230 0.046780
vt 0.545970 0.310680
vt 0.588010 0.450050
vt 0.565070 0.487540
vt 0.281600 0.173140
vt 0.323030 0.316640
vt 0.047548 0.399020
vt 0.117580 0.621140
vt 0.198500 0.877780
vn -0.1878 -0.7696 -0.6102
vn 0.6283 -0.7538 -0.1923
vn 0.6053 0.7738 -0.1863
vn 0.1946 -0.7501 0.6321
vn -0.6303 0.7558 0.1776
vn -0.1968 0.7409 -0.6421
vn 0.1803 0.7868 0.5903
vn 0.9558 0.0000 -0.2941
usemtl None
s off
f 14/1/1 10/2/1 13/3/1
f 14/1/2 11/4/2 9/5/2 10/2/2
f 13/3/3 1/6/3 5/7/3 6/8/3 7/9/3 9/5/3 10/2/3
f 5/7/4 2/10/4 1/6/4
f 2/10/5 4/11/5 6/8/5 5/7/5
f 4/11/6 3/12/6 8/13/6 7/9/6 6/8/6
f 8/13/7 12/14/7 11/4/7 9/5/7 7/9/7
f 3/12/8 8/13/8 12/14/8
