# Blender v2.92.0 OBJ File: ''
# www.blender.org
mtllib BK39_500_018027_0016_roof.mtl
o BK39_500_018027_0016_roof
v 275.808044 75.000000 -410.671204
v 121.692474 75.000000 -376.208038
v 217.263214 140.927505 -317.749542
v 16.929075 75.000000 -205.702301
v 152.827652 75.000000 -235.834229
v 248.906586 141.034302 -175.687927
v 118.185005 144.730240 -142.145081
v 245.402603 145.000000 -170.019547
v 286.531128 115.866302 -142.862167
v 53.571548 75.000000 -41.846619
v 297.539612 115.311440 -96.625191
v 249.359955 76.964798 -86.663635
v 154.699921 75.000000 -63.739326
v 164.937378 75.000000 -17.948080
v 261.366760 76.993752 -39.535618
v 354.175873 75.000000 -60.265060
v 275.808044 0.000000 -410.671204
v 121.692474 0.000000 -376.208038
v 152.827652 0.000000 -235.834229
v 16.929075 0.000000 -205.702301
v 53.571548 0.000000 -41.846619
v 154.699921 0.000000 -63.739326
v 164.937378 0.000000 -17.948080
v 354.175873 0.000000 -60.265060
vt 0.444580 0.958260
vt 0.416980 0.851770
vt 0.672130 0.798460
vt 0.704490 0.908060
vt 0.954650 0.859850
vt 0.801990 0.775290
vt 0.772320 0.667760
vt 0.144400 0.902680
vt 0.318560 0.669430
vt 0.661460 0.604610
vt 0.045631 0.521620
vt 0.411930 0.451550
vt 0.670910 0.591420
vt 0.328010 0.125100
vt 0.585620 0.261050
vt 0.743420 0.044951
vn 0.0197 -0.9998 -0.0044
vn 0.1542 0.7724 0.6161
vn 0.5962 -0.7884 -0.1514
vn -0.1348 -0.7708 -0.6227
vn 0.6192 -0.7729 -0.1385
vn 0.1383 -0.7693 0.6237
vn 0.6179 -0.7742 -0.1371
vn 0.1410 -0.7634 0.6304
vn 0.6327 0.7613 -0.1415
vn -0.2182 -0.0119 -0.9758
usemtl None
s off
f 14/1/1 13/2/1 12/3/1 15/4/1
f 16/5/2 11/6/2 15/4/2
f 9/7/3 11/6/3 15/4/3 12/3/3
f 10/8/4 7/9/4 8/10/4 9/7/4 12/3/4 13/2/4
f 4/11/5 7/9/5 10/8/5
f 5/12/6 6/13/6 8/10/6 7/9/6 4/11/6
f 2/14/7 3/15/7 6/13/7 5/12/7
f 1/16/8 3/15/8 2/14/8
f 16/5/9 1/16/9 3/15/9 6/13/9 8/10/9 9/7/9 11/6/9
f 14/1/10 15/4/10 16/5/10
