# Blender v2.92.0 OBJ File: ''
# www.blender.org
mtllib BK39_500_014029_0013_roof.mtl
o BK39_500_014029_0013_roof
v 468.600311 75.000000 -95.922112
v 438.525208 75.000000 -287.900360
v 356.287903 145.000000 -177.993668
v 355.243530 75.000000 -78.167480
v 360.687164 75.000000 -43.442345
v 245.588318 144.978226 -160.624207
v 251.417801 144.989899 -123.334938
v 175.460541 144.963501 -149.621964
v 160.509995 131.888809 -128.690033
v 167.894119 75.000000 -13.239747
v 162.459198 75.000000 -48.105389
v 114.188789 131.702744 -121.172005
v 62.372776 75.000000 -228.777069
v 68.500046 75.000000 -193.375656
v 47.837231 75.000000 -30.156675
v 23.455894 75.000000 -185.810013
v 468.600311 0.000000 -95.922112
v 438.525208 0.000000 -287.900360
v 62.372776 0.000000 -228.777069
v 68.500046 0.000000 -193.375656
v 23.455894 0.000000 -185.810013
v 47.837231 0.000000 -30.156675
v 162.459198 0.000000 -48.105389
v 167.894119 0.000000 -13.239747
v 360.687164 0.000000 -43.442345
v 355.243530 0.000000 -78.167480
vt 0.341940 0.956010
vt 0.734600 0.855670
vt 0.512050 0.590250
vt 0.723510 0.740310
vt 0.500180 0.466360
vt 0.330870 0.840180
vt 0.097428 0.899810
vt 0.357350 0.502920
vt 0.326900 0.572460
vt 0.232560 0.597440
vt 0.954380 0.681320
vt 0.725640 0.408660
vt 0.893130 0.043520
vt 0.127030 0.239940
vt 0.139510 0.357560
vt 0.047772 0.382690
vn 0.0913 0.8076 0.5826
vn 0.5837 0.8068 -0.0915
vn 0.5685 -0.8179 -0.0886
vn 0.0897 0.8147 0.5729
vn 0.0897 0.8150 0.5724
vn 0.5732 0.8145 -0.0898
vn -0.0916 0.8074 -0.5828
vn -0.5728 0.8137 0.0991
vn 0.0968 -0.8116 0.5761
vn -0.5730 0.8146 0.0898
usemtl None
s off
f 10/1/1 5/2/1 7/3/1
f 5/2/2 4/4/2 6/5/2 7/3/2
f 7/3/3 10/1/3 11/6/3 6/5/3
f 15/7/4 11/6/4 6/5/4 8/8/4 9/9/4 12/10/4
f 4/4/5 1/11/5 3/12/5 6/5/5
f 1/11/6 2/13/6 3/12/6
f 13/14/7 8/8/7 6/5/7 3/12/7 2/13/7
f 13/14/8 14/15/8 9/9/8 8/8/8
f 16/16/9 14/15/9 9/9/9 12/10/9
f 16/16/10 15/7/10 12/10/10
