# Blender v2.92.0 OBJ File: ''
# www.blender.org
mtllib BK39_500_012030_0050.mtl
o BK39_500_012030_0050
v 524.427002 75.000000 -74.941238
v 275.602661 75.000000 -16.717335
v 259.526886 75.000000 -85.913956
v 76.592575 75.000000 -43.422146
v 341.683960 130.779037 -118.510010
v 424.720123 130.765320 -137.918900
v 330.138336 124.677971 -125.961182
v 348.120148 109.140160 -156.000214
v 416.426758 109.839104 -170.785034
v 317.621857 124.645248 -179.610504
v 338.115509 108.228920 -204.966156
v 405.643188 108.898170 -220.955292
v 447.250031 75.000000 -235.922043
v 484.908356 75.000000 -244.713959
v 162.144272 144.783997 -176.030594
v 279.231171 145.000000 -203.576385
v 378.652100 75.000000 -260.325043
v 301.470673 125.630875 -241.774811
v 437.840393 75.000000 -275.137756
v 297.539886 125.608055 -258.709412
v 25.709339 75.000000 -262.027405
v 201.638672 75.000000 -303.967621
v 355.321838 75.000000 -359.906158
v 197.239532 75.000000 -323.107727
v 524.427002 0.000000 -74.941238
v 275.602661 0.000000 -16.717335
v 259.526886 0.000000 -85.913956
v 76.592575 0.000000 -43.422146
v 25.709339 0.000000 -262.027405
v 201.638672 0.000000 -303.967621
v 197.239532 0.000000 -323.107727
v 355.321838 0.000000 -359.906158
v 378.652100 0.000000 -260.325043
v 437.840393 0.000000 -275.137756
v 447.250031 0.000000 -235.922043
v 484.908356 0.000000 -244.713959
vn 0.5240 -0.8430 -0.1217
vn 0.1214 0.8440 0.5224
vn 0.5105 -0.8516 -0.1188
vn 0.1201 -0.8555 0.5037
vn 0.5059 -0.8547 -0.1163
vn 0.1155 -0.8604 0.4963
vn -0.5236 -0.8431 0.1227
vn -0.0137 0.9998 -0.0158
vn 0.1466 -0.7971 0.5858
vn -0.5939 -0.7918 0.1425
vn 0.1194 -0.8509 0.5116
vn -0.1260 -0.8332 -0.5384
vn -0.5439 -0.8295 0.1266
vn 0.0000 -1.0000 0.0000
vn -0.2278 0.0000 -0.9737
vn 0.9741 0.0000 -0.2263
vn -0.2263 0.0000 -0.9741
vn 0.9740 0.0000 -0.2267
vn 0.2319 0.0000 0.9727
vn 0.9746 0.0000 -0.2240
vn 0.2267 0.0000 0.9740
vn -0.9736 0.0000 0.2281
vn 0.2428 0.0000 0.9701
vn -0.9724 0.0000 0.2333
vn 0.2274 0.0000 0.9738
vn -0.9740 0.0000 0.2267
usemtl None
s off
f 3//1 10//1 7//1 5//1 2//1
f 4//2 3//2 10//2 16//2 15//2
f 21//3 15//3 4//3
f 21//4 22//4 18//4 16//4 15//4
f 24//5 20//5 18//5 22//5
f 24//6 23//6 20//6
f 23//7 17//7 11//7 8//7 7//7 10//7 16//7 18//7 20//7
f 8//8 9//8 12//8 11//8
f 19//9 12//9 11//9 17//9
f 19//10 13//10 9//10 12//10
f 13//11 14//11 6//11 5//11 7//11 8//11 9//11
f 2//12 5//12 6//12 1//12
f 14//13 1//13 6//13
f 25//14 26//14 27//14 28//14 29//14 30//14 31//14 32//14 33//14 34//14 35//14 36//14
f 1//15 25//15 26//15 2//15
f 2//16 26//16 27//16 3//16
f 3//17 27//17 28//17 4//17
f 4//18 28//18 29//18 21//18
f 21//19 29//19 30//19 22//19
f 22//20 30//20 31//20 24//20
f 24//21 31//21 32//21 23//21
f 23//22 32//22 33//22 17//22
f 17//23 33//23 34//23 19//23
f 19//24 34//24 35//24 13//24
f 13//25 35//25 36//25 14//25
f 14//26 36//26 25//26 1//26
