# Blender v2.92.0 OBJ File: ''
# www.blender.org
mtllib BK39_500_018028_0011.mtl
o BK39_500_018028_0011
v 300.284393 75.000000 -19.179632
v 379.242889 75.000000 -36.905285
v 290.544220 75.000000 -62.566460
v 71.598373 75.000000 -13.203390
v 369.486603 75.000000 -80.364624
v 138.069229 145.000000 -115.992233
v 270.656891 144.779633 -145.608749
v 102.850983 121.483612 -138.805450
v 331.434174 75.000000 -249.863403
v 145.615189 75.000000 -208.758362
v 17.915539 75.000000 -252.073837
v 74.612495 121.544350 -264.802948
v 130.294693 75.000000 -277.302185
v 300.284393 0.000000 -19.179632
v 379.242889 0.000000 -36.905285
v 369.486603 0.000000 -80.364624
v 331.434174 0.000000 -249.863403
v 145.615189 0.000000 -208.758362
v 130.294693 0.000000 -277.302185
v 17.915539 0.000000 -252.073837
v 71.598373 0.000000 -13.203390
v 290.544220 0.000000 -62.566460
vn -0.6100 0.7805 0.1371
vn 0.1392 0.7743 0.6173
vn 0.0000 1.0000 0.0000
vn 0.6317 0.7621 -0.1418
vn -0.1336 0.7858 -0.6038
vn 0.6168 0.7749 -0.1379
vn 0.2190 0.0000 0.9757
vn 0.9757 0.0000 -0.2190
vn -0.2160 0.0000 -0.9764
vn 0.9759 0.0000 -0.2181
vn -0.2190 0.0000 -0.9757
vn -0.9757 0.0000 0.2193
vn 0.2199 0.0000 0.9755
vn -0.9757 0.0000 0.2190
usemtl None
s off
f 4//1 6//1 8//1 12//1 11//1
f 4//2 3//2 5//2 7//2 6//2
f 5//3 3//3 1//3 2//3
f 5//4 9//4 7//4
f 9//5 10//5 8//5 6//5 7//5
f 10//6 13//6 12//6 8//6
f 13//7 12//7 11//7
f 14//3 15//3 16//3 17//3 18//3 19//3 20//3 21//3 22//3
f 1//7 14//7 15//7 2//7
f 2//8 15//8 16//8 5//8
f 5//8 16//8 17//8 9//8
f 9//9 17//9 18//9 10//9
f 10//10 18//10 19//10 13//10
f 13//11 19//11 20//11 11//11
f 11//12 20//12 21//12 4//12
f 4//13 21//13 22//13 3//13
f 3//14 22//14 14//14 1//14
