# Blender v2.92.0 OBJ File: ''
# www.blender.org
mtllib BK39_500_013033_0004.mtl
o BK39_500_013033_0004
v 49.347824 75.000000 -91.306183
v 126.613800 75.000000 -17.148476
v 66.984703 75.000000 -109.472244
v 16.036825 75.000000 -158.558136
v 126.227554 117.817940 -94.573837
v 144.331329 117.759399 -113.324593
v 144.537979 144.976028 -163.009903
v 218.347870 145.000000 -239.934845
v 340.420380 75.000000 -239.852264
v 212.098007 75.000000 -363.011658
v 49.347824 0.000000 -91.306183
v 126.613800 0.000000 -17.148476
v 340.420380 0.000000 -239.852264
v 212.098007 0.000000 -363.011658
v 16.036825 0.000000 -158.558136
v 66.984703 0.000000 -109.472244
vn 0.4225 -0.7922 -0.4402
vn 0.4515 -0.7772 0.4383
vn 0.4190 -0.7971 -0.4349
vn 0.4441 -0.7883 0.4258
vn -0.4418 -0.7700 0.4604
vn -0.4487 -0.7830 -0.4308
vn 0.0000 1.0000 0.0000
vn -0.6924 0.0000 0.7215
vn 0.7214 0.0000 0.6926
vn 0.6924 0.0000 -0.7215
vn -0.7218 0.0000 -0.6921
vn -0.6938 0.0000 0.7201
vn -0.7175 0.0000 -0.6966
usemtl None
s off
f 1//1 5//1 2//1
f 1//2 3//2 6//2 5//2
f 3//3 4//3 7//3 6//3
f 4//4 10//4 8//4 7//4
f 10//5 9//5 8//5
f 9//6 2//6 5//6 6//6 7//6 8//6
f 11//7 12//7 13//7 14//7 15//7 16//7
f 1//8 11//8 12//8 2//8
f 2//9 12//9 13//9 9//9
f 9//10 13//10 14//10 10//10
f 10//11 14//11 15//11 4//11
f 4//12 15//12 16//12 3//12
f 3//13 16//13 11//13 1//13
