# Blender v2.92.0 OBJ File: ''
# www.blender.org
mtllib BK39_500_016027_0082.mtl
o BK39_500_016027_0082
v 486.428497 75.000000 -344.551697
v 538.274597 75.000000 -126.268173
v 512.671692 144.850403 -234.089996
v 24.660923 75.000000 -235.410522
v 50.947311 145.000000 -124.709167
v 76.617195 75.000000 -16.659317
v 486.428497 0.000000 -344.551697
v 538.274597 0.000000 -126.268173
v 76.617195 0.000000 -16.659317
v 24.660923 0.000000 -235.410522
vn 0.1232 0.8460 0.5188
vn -0.1205 0.8517 -0.5099
vn 0.9729 -0.0001 -0.2311
vn -0.9729 -0.0001 0.2311
vn 0.0000 -1.0000 0.0000
vn -0.9729 0.0000 0.2311
vn -0.2310 0.0000 -0.9730
vn 0.9729 0.0000 -0.2311
vn 0.2300 0.0000 0.9732
usemtl None
s off
f 6//1 2//1 3//1 5//1
f 3//2 1//2 4//2 5//2
f 1//3 3//3 2//3
f 6//4 5//4 4//4
f 7//5 8//5 9//5 10//5
f 1//6 7//6 8//6 2//6
f 2//7 8//7 9//7 6//7
f 6//8 9//8 10//8 4//8
f 4//9 10//9 7//9 1//9
