# Blender v2.92.0 OBJ File: ''
# www.blender.org
mtllib BK39_500_014033_0055_roof.mtl
o BK39_500_014033_0055_roof
v 234.853592 75.000000 -55.798019
v 64.267365 75.000000 -12.643408
v 149.248108 144.886734 -34.138702
v 181.819641 75.000000 -266.512787
v 10.956779 75.000000 -223.288849
v 96.073868 145.000000 -244.824509
v 234.853592 0.000000 -55.798019
v 64.267365 0.000000 -12.643408
v 10.956779 0.000000 -223.288849
v 181.819641 0.000000 -266.512787
vt 0.606700 0.877640
vt 0.390540 0.122490
vt 0.044540 0.199680
vt 0.261250 0.954680
vt 0.954690 0.800010
vt 0.739100 0.044757
vn -0.6043 0.7819 0.1529
vn 0.6018 0.7841 -0.1515
vn 0.2453 -0.0000 0.9695
vn -0.2452 -0.0000 -0.9695
usemtl None
s off
f 3/1/1 6/2/1 5/3/1 2/4/1
f 3/1/2 1/5/2 4/6/2 6/2/2
f 1/5/3 3/1/3 2/4/3
f 5/3/4 6/2/4 4/6/4
