# Blender v2.92.0 OBJ File: ''
# www.blender.org
mtllib BK39_500_018028_0058_roof.mtl
o BK39_500_018028_0058_roof
v 342.270782 75.000000 -150.397781
v 83.678596 75.000000 -18.302326
v 272.725708 115.983521 -174.858185
v 236.478638 115.945305 -156.286331
v 115.173355 132.701920 -118.846436
v 180.077179 132.881607 -152.263977
v 186.604111 144.921173 -173.219864
v 295.583008 75.000000 -241.804550
v 260.214508 75.000000 -223.632614
v 16.321663 75.000000 -150.179932
v 80.751167 75.000000 -183.608658
v 136.262238 145.000000 -271.307495
v 176.761566 75.000000 -386.597717
v 18.038143 75.000000 -305.526215
v 342.270782 0.000000 -150.397781
v 83.678596 0.000000 -18.302326
v 16.321663 0.000000 -150.179932
v 80.751167 0.000000 -183.608658
v 18.038143 0.000000 -305.526215
v 176.761566 0.000000 -386.597717
v 260.214508 0.000000 -223.632614
v 295.583008 0.000000 -241.804550
vt 0.232440 0.954700
vt 0.319930 0.705830
vt 0.045338 0.628270
vt 0.950750 0.627730
vt 0.757570 0.567180
vt 0.656890 0.613150
vt 0.518340 0.571240
vt 0.500210 0.623110
vt 0.821060 0.401470
vt 0.722820 0.446450
vt 0.491000 0.043075
vt 0.378510 0.328450
vt 0.050106 0.243750
vt 0.224310 0.545520
vn -0.5486 0.7877 0.2802
vn 0.2769 0.7934 0.5421
vn -0.5591 -0.7783 0.2856
vn -0.2928 0.7677 -0.5700
vn 0.5518 0.7846 -0.2826
vn 0.2907 -0.7692 0.5691
vn -0.5479 0.7876 0.2818
vn -0.2848 0.7859 -0.5489
usemtl None
s off
f 2/1/1 5/2/1 10/3/1
f 2/1/2 1/4/2 3/5/2 4/6/2 7/7/2 6/8/2 5/2/2
f 3/5/3 8/9/3 1/4/3
f 8/9/4 9/10/4 4/6/4 3/5/4
f 9/10/5 13/11/5 12/12/5 7/7/5 4/6/5
f 12/12/6 14/13/6 13/11/6
f 12/12/7 14/13/7 11/14/7 6/8/7 7/7/7
f 6/8/8 11/14/8 10/3/8 5/2/8
