# Blender v2.92.0 OBJ File: ''
# www.blender.org
mtllib BK39_500_015028_0004.mtl
o BK39_500_015028_0004
v 269.888000 75.000000 -406.503326
v 347.572296 75.000000 -51.859783
v 201.521484 111.187462 -346.103943
v 214.776550 111.257126 -284.874847
v 244.871109 111.809868 -141.797760
v 257.632172 112.238548 -79.128342
v 157.759491 145.000000 -197.827133
v 116.835464 75.000000 -372.935211
v 122.900055 75.000000 -344.596191
v 193.046326 75.000000 -17.981903
v 187.530350 75.000000 -47.069763
v 121.844429 144.926422 -190.059738
v 16.463352 75.000000 -321.095825
v 81.487740 75.000000 -24.623180
v 269.888000 0.000000 -406.503326
v 347.572296 0.000000 -51.859783
v 193.046326 0.000000 -17.981903
v 187.530350 0.000000 -47.069763
v 81.487740 0.000000 -24.623180
v 16.463352 0.000000 -321.095825
v 122.900055 0.000000 -344.596191
v 116.835464 0.000000 -372.935211
vn 0.1349 0.7765 0.6154
vn -0.4376 0.8953 0.0830
vn 0.6668 -0.7308 -0.1462
vn -0.0859 -0.9100 -0.4056
vn -0.0908 0.9071 -0.4111
vn -0.4151 0.9055 0.0888
vn -0.1354 0.7748 -0.6175
vn -0.4038 -0.9106 0.0885
vn 0.0000 -1.0000 0.0000
vn -0.9768 0.0000 0.2140
vn -0.2142 0.0000 -0.9768
vn 0.9825 0.0000 -0.1863
vn -0.2071 0.0000 -0.9783
vn 0.9768 0.0000 -0.2142
vn 0.2156 0.0000 0.9765
vn 0.9779 0.0000 -0.2093
vn 0.2142 0.0000 0.9768
usemtl None
s off
f 10//1 2//1 6//1
f 6//2 5//2 11//2 10//2
f 14//3 13//3 12//3
f 11//4 14//4 12//4 7//4 5//4
f 7//5 4//5 9//5 13//5 12//5
f 4//6 3//6 8//6 9//6
f 3//7 1//7 8//7
f 1//8 2//8 6//8 5//8 7//8 4//8 3//8
f 15//9 16//9 17//9 18//9 19//9 20//9 21//9 22//9
f 1//10 15//10 16//10 2//10
f 2//11 16//11 17//11 10//11
f 10//12 17//12 18//12 11//12
f 11//13 18//13 19//13 14//13
f 14//14 19//14 20//14 13//14
f 13//15 20//15 21//15 9//15
f 9//16 21//16 22//16 8//16
f 8//17 22//17 15//17 1//17
