# Blender v2.92.0 OBJ File: ''
# www.blender.org
mtllib BK39_500_013029_0015_roof.mtl
o BK39_500_013029_0015_roof
v 18.781437 75.000000 -206.523026
v 89.277496 75.000000 -73.593269
v 121.183640 136.316345 -174.501175
v 241.711563 75.000000 -18.002522
v 184.283539 75.000000 -123.282623
v 218.504807 136.569412 -225.748947
v 233.097305 145.000000 -221.618103
v 319.617065 143.593857 -59.232460
v 246.099426 119.588928 -264.285675
v 285.758423 119.904602 -284.870239
v 394.089722 75.000000 -98.802956
v 319.405182 75.000000 -242.206161
v 360.699554 75.000000 -263.202057
v 309.123260 75.000000 -360.475250
v 18.781437 0.000000 -206.523026
v 89.277496 0.000000 -73.593269
v 184.283539 0.000000 -123.282623
v 241.711563 0.000000 -18.002522
v 394.089722 0.000000 -98.802956
v 319.405182 0.000000 -242.206161
v 360.699554 0.000000 -263.202057
v 309.123260 0.000000 -360.475250
vt 0.695280 0.246380
vt 0.752120 0.046362
vt 0.877610 0.303700
vt 0.598780 0.300830
vt 0.777140 0.359240
vt 0.567150 0.413710
vt 0.777660 0.843300
vt 0.958860 0.738620
vt 0.588110 0.952370
vt 0.448380 0.673860
vt 0.531640 0.402780
vt 0.294850 0.538360
vt 0.217220 0.805310
vt 0.045697 0.453640
vn -0.5523 -0.7805 0.2929
vn 0.2921 0.7646 0.5745
vn 0.5597 0.7758 -0.2915
vn 0.5392 -0.7892 -0.2941
vn 0.2942 0.7727 0.5625
vn 0.5571 -0.7761 -0.2954
vn 0.2935 -0.7793 0.5536
vn -0.4685 0.0010 -0.8835
usemtl None
s off
f 10/1/1 14/2/1 13/3/1
f 10/1/2 9/4/2 12/5/2 13/3/2
f 9/4/3 7/6/3 8/7/3 11/8/3 12/5/3
f 8/7/4 4/9/4 5/10/4 6/11/4 7/6/4
f 6/11/5 3/12/5 2/13/5 5/10/5
f 2/13/6 1/14/6 3/12/6
f 1/14/7 14/2/7 10/1/7 9/4/7 7/6/7 6/11/7 3/12/7
f 4/9/8 8/7/8 11/8/8
