# Blender v2.92.0 OBJ File: ''
# www.blender.org
mtllib BK39_500_015028_0030.mtl
o BK39_500_015028_0030
v 170.541367 75.000000 -14.474233
v 259.584290 75.000000 -40.129612
v 159.302811 75.000000 -56.149796
v 74.957375 75.000000 -32.228821
v 202.725540 110.625298 -72.407745
v 191.120300 110.333611 -113.991577
v 135.579895 145.000000 -146.136169
v 122.915558 144.993835 -190.070587
v 184.994553 75.000000 -298.724426
v 12.507684 75.000000 -249.016785
v 170.541367 0.000000 -14.474233
v 259.584290 0.000000 -40.129612
v 184.994553 0.000000 -298.724426
v 12.507684 0.000000 -249.016785
v 74.957375 0.000000 -32.228821
v 159.302811 0.000000 -56.149796
vn -0.5899 0.7916 0.1591
vn 0.1640 0.7991 0.5784
vn -0.5908 0.7886 0.1702
vn -0.1733 0.7799 -0.6014
vn -0.1678 -0.7954 -0.5824
vn 0.5908 0.7886 -0.1704
vn 0.0000 1.0000 0.0000
vn 0.2769 0.0000 0.9609
vn 0.9608 0.0000 -0.2771
vn -0.2769 0.0000 -0.9609
vn -0.9609 0.0000 0.2768
vn 0.2728 0.0000 0.9621
vn -0.9655 0.0000 0.2604
usemtl None
s off
f 5//1 6//1 3//1 1//1
f 6//2 7//2 4//2 3//2
f 7//3 8//3 10//3 4//3
f 8//4 9//4 10//4
f 5//5 2//5 1//5
f 2//6 9//6 8//6 7//6 6//6 5//6
f 11//7 12//7 13//7 14//7 15//7 16//7
f 1//8 11//8 12//8 2//8
f 2//9 12//9 13//9 9//9
f 9//10 13//10 14//10 10//10
f 10//11 14//11 15//11 4//11
f 4//12 15//12 16//12 3//12
f 3//13 16//13 11//13 1//13
