# Blender v2.92.0 OBJ File: ''
# www.blender.org
mtllib BK39_500_014032_0063_roof.mtl
o BK39_500_014032_0063_roof
v 734.806702 75.000000 -453.473358
v 798.620850 75.000000 -189.155731
v 723.819092 157.423523 -171.298599
v 660.368774 157.018433 -435.720398
v 655.848572 138.180145 -373.023743
v 610.857178 76.962952 -296.401947
v 643.232178 75.000000 -152.077988
v 634.556030 75.000000 -188.475021
v 580.185120 75.000000 -416.564392
v 537.708435 75.000000 -165.341507
v 546.502686 75.000000 -128.652420
v 483.039856 75.000000 -393.414429
v 510.505981 76.941788 -271.214935
v 439.957855 139.498077 -320.292236
v 469.554108 161.569458 -110.290886
v 406.061615 161.606110 -375.032898
v 388.554108 75.000000 -90.964188
v 349.112885 75.000000 -255.326889
v 330.052155 75.000000 -334.758270
v 325.028046 75.000000 -355.695190
v 288.048645 75.000000 -240.756058
v 269.089966 75.000000 -320.211945
v 291.651489 75.000000 -225.656448
v 263.798981 75.000000 -342.386597
v 304.602875 75.000000 -108.943382
v 277.514923 75.000000 -222.466400
v 220.529266 129.576477 -268.604553
v 259.857819 75.000000 -58.397858
v 250.875671 75.000000 -96.123161
v 223.686340 75.000168 -210.319443
v 151.814774 129.135208 -252.621353
v 166.327576 144.938034 -115.896950
v 138.833344 145.000000 -231.076828
v 103.927299 75.000000 -21.190413
v 39.910664 75.000000 -288.639038
v 734.806702 0.000000 -453.473358
v 798.620850 0.000000 -189.155731
v 643.232178 0.000000 -152.077988
v 634.556030 0.000000 -188.475021
v 537.708435 0.000000 -165.341507
v 546.502686 0.000000 -128.652420
v 388.554108 0.000000 -90.964188
v 349.112885 0.000000 -255.326889
v 288.048645 0.000000 -240.756058
v 291.651489 0.000000 -225.656448
v 277.514923 0.000000 -222.466400
v 304.602875 0.000000 -108.943382
v 250.875671 0.000000 -96.123161
v 259.857819 0.000000 -58.397858
v 103.927299 0.000000 -21.190413
v 39.910664 0.000000 -288.639038
v 263.798981 0.000000 -342.386597
v 269.089966 0.000000 -320.211945
v 330.052155 0.000000 -334.758270
v 325.028046 0.000000 -355.695190
v 483.039856 0.000000 -393.414429
v 580.185120 0.000000 -416.564392
vt 0.865810 0.640130
vt 0.789910 0.084621
vt 0.878960 0.047325
vt 0.955290 0.602610
vt 0.694000 0.124860
vt 0.577800 0.173500
vt 0.526270 0.327120
vt 0.784510 0.216340
vt 0.769420 0.680510
vt 0.759040 0.604040
vt 0.730690 0.377310
vt 0.610650 0.430220
vt 0.643190 0.652640
vt 0.653710 0.729720
vt 0.561670 0.768300
vt 0.485720 0.212120
vt 0.388790 0.252740
vt 0.394800 0.296730
vt 0.417600 0.463600
vt 0.464780 0.808900
vt 0.344560 0.494210
vt 0.321880 0.327290
vt 0.315550 0.280700
vt 0.263790 0.435700
vt 0.348870 0.525930
vt 0.331960 0.532630
vt 0.267570 0.558150
vt 0.181600 0.469280
vt 0.364360 0.771130
vt 0.300090 0.798060
vt 0.047740 0.393620
vt 0.166070 0.514540
vt 0.198960 0.756520
vt 0.124310 0.955480
vt 0.310830 0.877320
vn -0.7107 -0.6822 0.1716
vn -0.1682 0.6880 -0.7060
vn 0.6861 -0.7089 -0.1635
vn -0.1690 -0.7193 -0.6739
vn 0.0041 0.9998 0.0173
vn -0.7179 -0.6746 0.1721
vn -0.7008 0.6933 0.1682
vn 0.0000 -1.0000 0.0000
vn 0.6592 0.7353 -0.1573
vn -0.1515 -0.7256 -0.6712
vn -0.1547 0.7487 -0.6446
vn 0.6279 -0.7637 -0.1503
vn 0.1553 0.7430 0.6510
vn 0.6510 0.7431 -0.1550
vn 0.2321 -0.0001 0.9727
vn 0.2321 -0.0000 0.9727
vn -0.2322 0.0001 -0.9727
vn -0.2322 -0.0002 -0.9727
usemtl None
s off
f 3/1/1 4/2/1 1/3/1 2/4/1
f 9/5/2 12/6/2 14/7/2 5/8/2
f 3/1/3 7/9/3 8/10/3 6/11/3 5/8/3 9/5/3 4/2/3
f 6/11/4 13/12/4 14/7/4 5/8/4
f 13/12/5 10/13/5 8/10/5 6/11/5
f 10/13/6 11/14/6 15/15/6 16/16/6 12/6/6 14/7/6 13/12/6
f 16/16/7 20/17/7 19/18/7 18/19/7 17/20/7 15/15/7
f 18/19/8 21/21/8 22/22/8 19/18/8
f 22/22/9 24/23/9 27/24/9 23/25/9 21/21/9
f 23/25/10 26/26/10 30/27/10 31/28/10 27/24/10
f 26/26/8 25/29/8 29/30/8 30/27/8
f 24/23/11 35/31/11 33/32/11 31/28/11 27/24/11
f 33/32/12 32/33/12 34/34/12 35/31/12
f 34/34/13 28/35/13 32/33/13
f 28/35/14 29/30/14 30/27/14 31/28/14 33/32/14 32/33/14
f 2/4/15 3/1/15 7/9/15
f 11/14/16 15/15/16 17/20/16
f 20/17/17 16/16/17 12/6/17
f 9/5/18 4/2/18 1/3/18
