# Blender v2.92.0 OBJ File: ''
# www.blender.org
mtllib BK39_500_016026_0004.mtl
o BK39_500_016026_0004
v 396.706604 75.000000 -215.749298
v 350.433228 75.000000 -229.847855
v 349.534546 75.000000 -222.469971
v 329.077759 75.000000 -228.702728
v 396.342041 75.000000 -168.369949
v 383.465759 75.000000 -172.290970
v 83.183075 75.000000 -263.731506
v 317.967163 75.000000 -192.236267
v 138.004929 144.980835 -159.715805
v 296.479919 145.000000 -111.433899
v 102.579994 120.725731 -141.740875
v 139.615295 75.000000 -76.209724
v 348.832855 75.000000 -12.438261
v 85.723305 120.703316 -86.381851
v 123.263779 75.000000 -22.598652
v 19.490986 75.000000 -54.216213
v 396.706604 0.000000 -215.749298
v 350.433228 0.000000 -229.847855
v 349.534546 0.000000 -222.469971
v 329.077759 0.000000 -228.702728
v 317.967163 0.000000 -192.236267
v 83.183075 0.000000 -263.731506
v 19.490986 0.000000 -54.216213
v 123.263779 0.000000 -22.598652
v 139.615295 0.000000 -76.209724
v 348.832855 0.000000 -12.438261
v 396.342041 0.000000 -168.369949
v 383.465759 0.000000 -172.290970
vn 0.1965 -0.7386 -0.6449
vn -0.6145 -0.7663 -0.1874
vn 0.1928 -0.7502 -0.6324
vn -0.6347 -0.7482 -0.1934
vn 0.6180 -0.7634 0.1879
vn -0.1871 -0.7666 0.6143
vn 0.0000 1.0000 0.0000
vn 0.2915 0.0000 -0.9566
vn -0.9927 0.0000 -0.1209
vn -0.9566 0.0000 -0.2915
vn 0.2913 0.0000 -0.9566
vn -0.9568 0.0000 -0.2909
vn -0.2915 0.0000 0.9566
vn 0.9565 0.0000 0.2917
vn -0.2916 0.0000 0.9566
vn 0.9566 0.0000 0.2915
usemtl None
s off
f 16//1 14//1 15//1
f 15//2 14//2 11//2 12//2
f 12//3 11//3 9//3 10//3 13//3
f 13//4 10//4 5//4
f 7//5 9//5 11//5 14//5 16//5
f 5//6 10//6 9//6 7//6 8//6 6//6
f 6//7 1//7 2//7 3//7 4//7 8//7
f 17//7 18//7 19//7 20//7 21//7 22//7 23//7 24//7 25//7 26//7 27//7 28//7
f 1//8 17//8 18//8 2//8
f 2//9 18//9 19//9 3//9
f 3//8 19//8 20//8 4//8
f 4//10 20//10 21//10 8//10
f 8//11 21//11 22//11 7//11
f 7//12 22//12 23//12 16//12
f 16//13 23//13 24//13 15//13
f 15//14 24//14 25//14 12//14
f 12//15 25//15 26//15 13//15
f 13//16 26//16 27//16 5//16
f 5//11 27//11 28//11 6//11
f 6//16 28//16 17//16 1//16
