# Blender v2.92.0 OBJ File: ''
# www.blender.org
mtllib BK39_500_018031_0008_roof.mtl
o BK39_500_018031_0008_roof
v 51.407585 75.000000 -159.093033
v 23.816536 75.000000 -275.370239
v 96.863762 112.884720 -229.589355
v 112.784134 75.000000 -174.138657
v 137.880280 75.000000 -71.610725
v 158.600311 112.738724 -244.494492
v 206.675003 75.000000 -88.109459
v 215.077103 75.000000 -53.018879
v 221.963623 145.000000 -205.784348
v 264.272278 75.000000 -64.931877
v 275.652893 75.000000 -18.840786
v 246.754318 144.982452 -211.701187
v 254.425461 138.251587 -224.738953
v 282.567169 130.309311 -159.682480
v 274.282257 130.331787 -194.441711
v 275.959595 138.238190 -229.875427
v 312.096008 114.593628 -141.169342
v 338.113861 114.279243 -33.654762
v 294.255280 122.326790 -260.734344
v 373.661438 75.000000 -148.584793
v 397.586487 75.000000 -47.770046
v 397.696594 75.000000 -154.342606
v 385.645935 75.000000 -203.058334
v 422.289398 122.261299 -291.250427
v 512.880615 75.000000 -233.493240
v 477.386017 75.000000 -383.088898
v 51.407585 0.000000 -159.093033
v 23.816536 0.000000 -275.370239
v 477.386017 0.000000 -383.088898
v 512.880615 0.000000 -233.493240
v 385.645935 0.000000 -203.058334
v 397.696594 0.000000 -154.342606
v 373.661438 0.000000 -148.584793
v 397.586487 0.000000 -47.770046
v 275.652893 0.000000 -18.840786
v 264.272278 0.000000 -64.931877
v 215.077103 0.000000 -53.018879
v 206.675003 0.000000 -88.109459
v 137.880280 0.000000 -71.610725
v 112.784134 0.000000 -174.138657
vt 0.095731 0.606210
vt 0.210030 0.568960
vt 0.295350 0.394820
vt 0.180380 0.431710
vt 0.256760 0.822750
vt 0.413340 0.490630
vt 0.384870 0.781910
vt 0.510770 0.518710
vt 0.459510 0.475990
vt 0.400520 0.868770
vt 0.526200 0.604750
vt 0.492130 0.839280
vt 0.581180 0.650570
vt 0.513320 0.953360
vt 0.629630 0.916700
vt 0.740380 0.881760
vt 0.695830 0.632220
vt 0.473790 0.443720
vt 0.513890 0.431000
vt 0.740590 0.617960
vt 0.547960 0.354620
vt 0.718150 0.497380
vt 0.786390 0.279080
vt 0.955080 0.422050
vt 0.888990 0.051760
vt 0.044351 0.318390
vn 0.1308 0.8357 0.5334
vn -0.5096 0.8513 0.1247
vn 0.1245 0.8456 0.5192
vn -0.5073 0.8532 0.1215
vn 0.1255 0.8461 0.5181
vn -0.5067 0.8530 0.1251
vn 0.5260 0.8413 -0.1248
vn -0.1229 -0.8495 -0.5131
vn -0.5187 -0.8453 0.1283
vn -0.1214 -0.8530 -0.5076
vn -0.5197 -0.8454 0.1233
vn -0.5164 0.8476 0.1225
vn 0.1213 -0.8511 0.5108
vn 0.2308 -0.0001 0.9730
usemtl None
s off
f 1/1/1 4/2/1 6/3/1 3/4/1
f 4/2/2 5/5/2 9/6/2 6/3/2
f 5/5/3 7/7/3 15/8/3 12/9/3 9/6/3
f 7/7/4 8/10/4 14/11/4 15/8/4
f 8/10/5 10/12/5 17/13/5 14/11/5
f 10/12/6 11/14/6 18/15/6 17/13/6
f 18/15/7 21/16/7 20/17/7 13/18/7 12/9/7 15/8/7 14/11/7 17/13/7
f 13/18/8 16/19/8 22/20/8 20/17/8
f 22/20/9 16/19/9 19/21/9 23/22/9
f 19/21/10 24/23/10 25/24/10 23/22/10
f 24/23/11 26/25/11 25/24/11
f 2/26/12 1/1/12 3/4/12
f 2/26/13 26/25/13 24/23/13 19/21/13 16/19/13 13/18/13 12/9/13 9/6/13 6/3/13 3/4/13
f 21/16/14 18/15/14 11/14/14
