# Blender v2.92.0 OBJ File: ''
# www.blender.org
mtllib BK39_500_017028_0090_roof.mtl
o BK39_500_017028_0090_roof
v 64.289665 75.000000 -14.714604
v 214.330826 75.000000 -46.718925
v 122.202248 144.788727 -103.675339
v 196.884872 75.000000 -130.114273
v 313.977051 75.000000 -154.995438
v 104.419785 144.948639 -187.800613
v 222.268570 145.000000 -212.899323
v 14.773019 75.000000 -246.669403
v 282.244965 75.000000 -303.763855
v 64.289665 0.000000 -14.714604
v 214.330826 0.000000 -46.718925
v 196.884872 0.000000 -130.114273
v 313.977051 0.000000 -154.995438
v 282.244965 0.000000 -303.763855
v 14.773019 0.000000 -246.669403
vt 0.196010 0.953870
vt 0.372570 0.675000
vt 0.653450 0.853550
vt 0.045040 0.226740
vt 0.318350 0.411280
vt 0.860500 0.047762
vt 0.677650 0.332600
vt 0.957250 0.514120
vt 0.600260 0.592120
vn -0.1422 -0.7317 -0.6666
vn 0.6652 -0.7330 -0.1420
vn 0.1411 -0.7371 0.6609
vn -0.6550 -0.7426 0.1397
vn -0.1411 -0.7342 -0.6641
vn -0.6503 -0.7474 0.1360
usemtl None
s off
f 1/1/1 3/2/1 2/3/1
f 1/1/2 8/4/2 6/5/2 3/2/2
f 8/4/3 9/6/3 7/7/3 6/5/3
f 9/6/4 5/8/4 7/7/4
f 5/8/5 4/9/5 6/5/5 7/7/5
f 4/9/6 2/3/6 3/2/6 6/5/6
