# Blender v2.92.0 OBJ File: ''
# www.blender.org
mtllib BK39_500_014034_0068_roof.mtl
o BK39_500_014034_0068_roof
v 11.471829 75.000000 -213.311157
v 82.597260 75.000000 -12.996288
v 151.486862 144.452606 -37.343372
v 80.873154 145.000000 -237.938110
v 155.187302 75.000000 -264.204163
v 225.187500 75.000000 -63.496883
v 11.471829 0.000000 -213.311157
v 82.597260 0.000000 -12.996288
v 225.187500 0.000000 -63.496883
v 155.187302 0.000000 -264.204163
vt 0.048404 0.229920
vt 0.348510 0.953080
vt 0.639190 0.865190
vt 0.341240 0.141020
vt 0.950160 0.770770
vt 0.654800 0.046194
vn -0.6492 0.7248 0.2305
vn 0.6270 0.7477 -0.2187
vn -0.3338 0.0007 -0.9426
vn 0.3338 0.0007 0.9426
usemtl None
s off
f 1/1/1 2/2/1 3/3/1 4/4/1
f 3/3/2 6/5/2 5/6/2 4/4/2
f 2/2/3 3/3/3 6/5/3
f 5/6/4 4/4/4 1/1/4
