# Blender v2.92.0 OBJ File: ''
# www.blender.org
mtllib BK39_500_017028_0007_roof.mtl
o BK39_500_017028_0007_roof
v 82.702042 144.806152 -109.210533
v 25.894268 75.000000 -195.347916
v 140.534500 75.000000 -21.547821
v 477.826202 145.000000 -370.206757
v 420.847321 75.000000 -456.574493
v 535.806763 75.000000 -282.292358
v 25.894268 0.000000 -195.347916
v 140.534500 0.000000 -21.547821
v 535.806763 0.000000 -282.292358
v 420.847321 0.000000 -456.574493
vt 0.146900 0.771050
vt 0.848710 0.223890
vt 0.951700 0.408190
vt 0.249620 0.954830
vt 0.045993 0.590470
vt 0.747510 0.042821
vn -0.3048 -0.8328 -0.4621
vn 0.3091 -0.8283 0.4674
vn 0.8348 -0.0001 -0.5506
vn -0.8348 -0.0001 0.5506
usemtl None
s off
f 1/1/1 4/2/1 6/3/1 3/4/1
f 1/1/2 2/5/2 5/6/2 4/2/2
f 5/6/3 4/2/3 6/3/3
f 3/4/4 1/1/4 2/5/4
