# Blender v2.92.0 OBJ File: ''
# www.blender.org
mtllib BK39_500_015033_0048.mtl
o BK39_500_015033_0048
v 265.949799 75.000000 -277.879700
v 249.360321 75.000000 -345.720856
v 253.611130 75.000000 -274.862335
v 302.864258 75.000000 -74.228073
v 248.255219 74.999992 -296.679840
v 166.547134 144.963776 -156.018936
v 119.933128 75.000000 -314.071442
v 131.120697 75.000000 -268.319702
v 114.020988 145.000000 -143.238953
v 13.149699 75.000000 -239.757095
v 67.684814 75.000000 -16.740437
v 265.949799 0.000000 -277.879700
v 249.360321 0.000000 -345.720856
v 119.933128 0.000000 -314.071442
v 131.120697 0.000000 -268.319702
v 13.149699 0.000000 -239.757095
v 67.684814 0.000000 -16.740437
v 302.864258 0.000000 -74.228073
v 253.611130 0.000000 -274.862335
vn -0.1204 0.8592 -0.4973
vn 0.5116 0.8500 -0.1256
vn -0.1259 -0.8477 -0.5152
vn 0.6625 -0.7313 -0.1620
vn -0.0000 -1.0000 -0.0000
vn 0.0000 1.0000 0.0000
vn 0.9714 0.0000 -0.2375
vn -0.2375 0.0000 -0.9714
vn -0.9714 0.0000 0.2375
vn -0.2353 0.0000 -0.9719
vn 0.2375 0.0000 0.9714
vn 0.9712 0.0000 -0.2384
usemtl None
s off
f 9//1 6//1 5//1 8//1 10//1
f 6//2 4//2 3//2 5//2
f 4//3 11//3 9//3 6//3
f 11//4 10//4 9//4
f 8//5 7//5 2//5 1//5 3//5 5//5
f 12//6 13//6 14//6 15//6 16//6 17//6 18//6 19//6
f 1//7 12//7 13//7 2//7
f 2//8 13//8 14//8 7//8
f 7//9 14//9 15//9 8//9
f 8//10 15//10 16//10 10//10
f 10//9 16//9 17//9 11//9
f 11//11 17//11 18//11 4//11
f 4//12 18//12 19//12 3//12
f 3//11 19//11 12//11 1//11
