# Blender v2.92.0 OBJ File: ''
# www.blender.org
mtllib BK39_500_017026_0082_roof.mtl
o BK39_500_017026_0082_roof
v 188.021774 75.000000 -322.211731
v 100.060051 145.000000 -322.524200
v 9.975686 75.000000 -322.827911
v 186.461685 75.000000 -18.210247
v 8.961332 75.000000 -18.823458
v 98.769493 144.785416 -18.505081
v 188.021774 0.000000 -322.211731
v 9.975686 0.000000 -322.827911
v 8.961332 0.000000 -18.823458
v 186.461685 0.000000 -18.210247
vt 0.045489 0.944310
vt 0.501370 0.945250
vt 0.507920 0.045786
vt 0.050638 0.044888
vt 0.946510 0.946120
vt 0.954430 0.046711
vn -0.6136 0.7896 -0.0020
vn 0.6227 0.7825 0.0032
vn -0.0035 0.0001 1.0000
vn 0.0035 0.0001 -1.0000
usemtl None
s off
f 5/1/1 6/2/1 2/3/1 3/4/1
f 6/2/2 4/5/2 1/6/2 2/3/2
f 1/6/3 2/3/3 3/4/3
f 5/1/4 6/2/4 4/5/4
