# Blender v2.92.0 OBJ File: ''
# www.blender.org
mtllib BK39_500_015030_0003.mtl
o BK39_500_015030_0003
v 127.555244 75.000000 -29.002605
v 18.549240 75.000000 -114.501831
v 156.135544 75.000000 -65.432686
v 217.167725 75.000000 -17.462311
v 115.585220 120.128769 -123.986977
v 60.853493 75.000000 -168.435379
v 133.072083 109.885330 -172.208145
v 145.604065 120.130219 -162.254242
v 52.479145 75.000000 -237.742004
v 199.824463 145.000000 -168.431534
v 121.786545 75.000000 -246.118713
v 250.229935 144.998398 -232.697357
v 231.420456 75.000000 -385.890594
v 401.496094 75.000000 -252.491226
v 127.555244 0.000000 -29.002605
v 18.549240 0.000000 -114.501831
v 60.853493 0.000000 -168.435379
v 52.479145 0.000000 -237.742004
v 121.786545 0.000000 -246.118713
v 231.420456 0.000000 -385.890594
v 401.496094 0.000000 -252.491226
v 217.167725 0.000000 -17.462311
v 156.135544 0.000000 -65.432686
vn -0.3362 0.8391 0.4277
vn 0.4349 0.8334 0.3412
vn 0.3435 -0.8307 -0.4380
vn -0.4322 0.9003 0.0522
vn -0.0508 0.9061 -0.4199
vn 0.4242 -0.8422 0.3327
vn -0.3336 -0.8413 0.4254
vn -0.4313 -0.8364 -0.3383
vn 0.0000 -1.0000 0.0000
vn 0.6172 0.0000 -0.7868
vn 0.7868 0.0000 0.6172
vn 0.9928 0.0000 -0.1200
vn 0.1200 0.0000 0.9928
vn -0.6172 0.0000 0.7868
vn -0.7869 0.0000 -0.6171
vn 0.6180 0.0000 -0.7862
vn -0.7868 0.0000 -0.6172
usemtl None
s off
f 3//1 4//1 10//1 8//1
f 8//2 5//2 1//2 3//2
f 1//3 2//3 5//3
f 7//4 9//4 6//4
f 7//5 11//5 9//5
f 2//6 6//6 7//6 11//6 13//6 12//6 10//6 8//6 5//6
f 13//7 14//7 12//7
f 14//8 4//8 10//8 12//8
f 15//9 16//9 17//9 18//9 19//9 20//9 21//9 22//9 23//9
f 1//10 15//10 16//10 2//10
f 2//11 16//11 17//11 6//11
f 6//12 17//12 18//12 9//12
f 9//13 18//13 19//13 11//13
f 11//11 19//11 20//11 13//11
f 13//14 20//14 21//14 14//14
f 14//15 21//15 22//15 4//15
f 4//16 22//16 23//16 3//16
f 3//17 23//17 15//17 1//17
