# Blender v2.92.0 OBJ File: ''
# www.blender.org
mtllib BK39_500_018031_0054.mtl
o BK39_500_018031_0054
v 117.579803 75.000000 -18.827812
v 239.971497 75.000000 -66.480576
v 159.158539 120.566086 -102.662437
v 216.678299 75.000000 -125.613075
v 330.510498 75.000000 -170.706009
v 313.329712 75.000000 -213.780029
v 431.722260 75.000000 -260.616211
v 135.872849 120.475601 -162.111420
v 158.018738 145.000000 -207.829773
v 206.410080 144.890671 -226.834579
v 218.087524 128.511017 -257.321014
v 337.473389 128.262848 -304.173462
v 21.538820 75.000000 -265.584351
v 376.072998 75.000000 -403.552460
v 117.579803 0.000000 -18.827812
v 239.971497 0.000000 -66.480576
v 216.678299 0.000000 -125.613075
v 330.510498 0.000000 -170.706009
v 313.329712 0.000000 -213.780029
v 431.722260 0.000000 -260.616211
v 376.072998 0.000000 -403.552460
v 21.538820 0.000000 -265.584351
vn -0.5127 0.8350 0.1996
vn 0.2125 0.8104 0.5459
vn 0.5514 0.8055 -0.2172
vn 0.2140 0.8138 0.5402
vn 0.5524 0.8039 -0.2203
vn -0.2127 -0.8159 -0.5376
vn 0.5541 0.8040 -0.2157
vn -0.2034 0.8279 -0.5227
vn 0.0000 1.0000 0.0000
vn 0.3628 0.0000 0.9319
vn 0.9304 0.0000 -0.3665
vn 0.3683 0.0000 0.9297
vn 0.9288 0.0000 -0.3705
vn 0.3679 0.0000 0.9299
vn 0.9319 0.0000 -0.3628
vn -0.3627 0.0000 -0.9319
vn -0.9319 0.0000 0.3627
usemtl None
s off
f 13//1 1//1 3//1 8//1 9//1
f 1//2 2//2 3//2
f 2//3 4//3 8//3 3//3
f 4//4 5//4 10//4 9//4 8//4
f 5//5 6//5 11//5 10//5
f 11//6 12//6 7//6 6//6
f 7//7 14//7 12//7
f 13//8 9//8 10//8 11//8 12//8 14//8
f 15//9 16//9 17//9 18//9 19//9 20//9 21//9 22//9
f 1//10 15//10 16//10 2//10
f 2//11 16//11 17//11 4//11
f 4//12 17//12 18//12 5//12
f 5//13 18//13 19//13 6//13
f 6//14 19//14 20//14 7//14
f 7//15 20//15 21//15 14//15
f 14//16 21//16 22//16 13//16
f 13//17 22//17 15//17 1//17
