# Blender v2.92.0 OBJ File: ''
# www.blender.org
mtllib BK39_500_018029_0002_roof.mtl
o BK39_500_018029_0002_roof
v 24.880505 75.000000 -276.397430
v 116.124130 124.448822 -260.032745
v 225.118057 75.000000 -403.132477
v 164.045868 116.108337 -302.864441
v 226.086349 144.991333 -298.840881
v 110.040115 75.000000 -141.123825
v 178.409286 75.000000 -228.964050
v 244.193481 75.000000 -85.047096
v 288.721375 75.000000 -143.405060
v 361.788879 145.000000 -193.602036
v 366.476593 121.096420 -153.472672
v 320.724365 120.836151 -94.028610
v 330.505554 75.000000 -18.099478
v 477.481995 75.000000 -207.445297
v 24.880505 0.000000 -276.397430
v 225.118057 0.000000 -403.132477
v 477.481995 0.000000 -207.445297
v 330.505554 0.000000 -18.099478
v 244.193481 0.000000 -85.047096
v 288.721375 0.000000 -143.405060
v 178.409286 0.000000 -228.964050
v 110.040115 0.000000 -141.123825
vt 0.049662 0.340340
vt 0.219640 0.663190
vt 0.231780 0.379400
vt 0.356110 0.453550
vt 0.327440 0.277170
vt 0.576290 0.657740
vt 0.731490 0.633720
vt 0.722130 0.537940
vt 0.451270 0.286780
vt 0.659690 0.956800
vt 0.953060 0.504900
vt 0.640170 0.775590
vt 0.487410 0.797020
vt 0.449340 0.037870
vn -0.4953 0.8108 0.3118
vn 0.4631 0.8097 0.3604
vn -0.3911 0.7699 0.5043
vn 0.5096 0.7641 0.3956
vn -0.3966 0.7624 0.5113
vn 0.5068 -0.7704 0.3867
vn -0.3983 -0.7599 0.5137
vn 0.3314 -0.7848 0.5236
usemtl None
s off
f 1/1/1 6/2/1 2/3/1
f 6/2/2 7/4/2 4/5/2 2/3/2
f 7/4/3 9/6/3 11/7/3 10/8/3 5/9/3 4/5/3
f 13/10/4 14/11/4 10/8/4 11/7/4 12/12/4
f 8/13/5 13/10/5 12/12/5
f 8/13/6 9/6/6 11/7/6 12/12/6
f 5/9/7 3/14/7 14/11/7 10/8/7
f 1/1/8 3/14/8 5/9/8 4/5/8 2/3/8
