# Blender v2.92.0 OBJ File: ''
# www.blender.org
mtllib BK39_500_016032_0054.mtl
o BK39_500_016032_0054
v 293.850616 75.000000 -111.257088
v 180.627777 75.000000 -375.710541
v 173.510818 145.000000 -158.259781
v 131.611099 144.937241 -256.334381
v 160.557892 126.059792 -126.055367
v 109.705612 126.014801 -104.219673
v 12.820874 75.000000 -303.868713
v 73.073547 75.000000 -162.537125
v 74.662964 75.000000 -17.412079
v 21.957172 75.000000 -140.522354
v 293.850616 0.000000 -111.257088
v 180.627777 0.000000 -375.710541
v 12.820874 0.000000 -303.868713
v 73.073547 0.000000 -162.537125
v 21.957172 0.000000 -140.522354
v 74.662964 0.000000 -17.412079
vn -0.5602 0.7929 0.2398
vn 0.2407 0.7912 0.5622
vn 0.5562 0.7962 -0.2381
vn -0.2407 0.7911 -0.5623
vn -0.5620 0.7917 0.2396
vn -0.2373 0.8001 -0.5509
vn 0.0000 1.0000 0.0000
vn 0.9193 0.0000 -0.3936
vn -0.3936 0.0000 -0.9193
vn -0.9199 0.0000 0.3922
vn -0.3956 0.0000 -0.9184
vn -0.9193 0.0000 0.3936
vn 0.3936 0.0000 0.9193
usemtl None
s off
f 9//1 6//1 10//1
f 9//2 1//2 3//2 5//2 6//2
f 1//3 2//3 4//3 3//3
f 2//4 7//4 4//4
f 7//5 8//5 5//5 3//5 4//5
f 8//6 10//6 6//6 5//6
f 11//7 12//7 13//7 14//7 15//7 16//7
f 1//8 11//8 12//8 2//8
f 2//9 12//9 13//9 7//9
f 7//10 13//10 14//10 8//10
f 8//11 14//11 15//11 10//11
f 10//12 15//12 16//12 9//12
f 9//13 16//13 11//13 1//13
