# Blender v2.92.0 OBJ File: ''
# www.blender.org
mtllib BK39_500_017030_0009.mtl
o BK39_500_017030_0009
v 12.984261 75.000000 -318.822205
v 87.311920 75.000000 -17.611700
v 184.183380 145.000000 -41.516670
v 109.804749 144.963242 -342.715027
v 274.645020 75.000000 -63.839859
v 200.218948 75.000000 -365.026306
v 12.984261 0.000000 -318.822205
v 87.311920 0.000000 -17.611700
v 274.645020 0.000000 -63.839859
v 200.218948 0.000000 -365.026306
vn -0.5576 0.8186 0.1376
vn 0.5831 0.7995 -0.1441
vn -0.2396 -0.0000 -0.9709
vn 0.2396 0.0000 0.9709
vn 0.0000 1.0000 0.0000
vn -0.9709 0.0000 0.2396
vn 0.9708 0.0000 -0.2399
usemtl None
s off
f 3//1 4//1 1//1 2//1
f 3//2 5//2 6//2 4//2
f 2//3 3//3 5//3
f 6//4 4//4 1//4
f 7//5 8//5 9//5 10//5
f 1//6 7//6 8//6 2//6
f 2//4 8//4 9//4 5//4
f 5//7 9//7 10//7 6//7
f 6//3 10//3 7//3 1//3
