# Blender v2.92.0 OBJ File: ''
# www.blender.org
mtllib BK39_500_015028_0030_roof.mtl
o BK39_500_015028_0030_roof
v 170.541367 75.000000 -14.474233
v 259.584290 75.000000 -40.129612
v 159.302811 75.000000 -56.149796
v 74.957375 75.000000 -32.228821
v 202.725540 110.625298 -72.407745
v 191.120300 110.333611 -113.991577
v 135.579895 145.000000 -146.136169
v 122.915558 144.993835 -190.070587
v 184.994553 75.000000 -298.724426
v 12.507684 75.000000 -249.016785
v 170.541367 0.000000 -14.474233
v 259.584290 0.000000 -40.129612
v 184.994553 0.000000 -298.724426
v 12.507684 0.000000 -249.016785
v 74.957375 0.000000 -32.228821
v 159.302811 0.000000 -56.149796
vt 0.745310 0.767920
vt 0.702650 0.634640
vt 0.585670 0.820030
vt 0.626990 0.953610
vt 0.498460 0.531610
vt 0.275580 0.896700
vt 0.451900 0.390800
vt 0.045984 0.201870
vt 0.680130 0.042550
vt 0.954350 0.871380
vn -0.5899 0.7916 0.1591
vn 0.1640 0.7991 0.5784
vn -0.5908 0.7886 0.1702
vn -0.1733 0.7799 -0.6014
vn -0.1678 -0.7954 -0.5824
vn 0.5908 0.7886 -0.1704
usemtl None
s off
f 5/1/1 6/2/1 3/3/1 1/4/1
f 6/2/2 7/5/2 4/6/2 3/3/2
f 7/5/3 8/7/3 10/8/3 4/6/3
f 8/7/4 9/9/4 10/8/4
f 5/1/5 2/10/5 1/4/5
f 2/10/6 9/9/6 8/7/6 7/5/6 6/2/6 5/1/6
