# Blender v2.92.0 OBJ File: ''
# www.blender.org
mtllib BK39_500_014034_0054.mtl
o BK39_500_014034_0054
v 50.009941 75.000000 -21.437462
v 344.471985 75.000000 -84.724808
v 238.736450 140.222137 -146.189102
v 32.525410 140.954163 -102.814034
v 243.192047 145.000000 -153.314041
v 16.536964 75.000000 -177.396393
v 144.747223 75.000000 -203.827118
v 104.360130 75.000000 -392.452026
v 270.765503 75.000000 -428.172150
v 188.077728 144.948883 -410.422668
v 50.009941 0.000000 -21.437462
v 344.471985 0.000000 -84.724808
v 270.765503 0.000000 -428.172150
v 104.360130 0.000000 -392.452026
v 144.747223 0.000000 -203.827118
v 16.536964 0.000000 -177.396393
vn 0.1305 0.7838 0.6072
vn 0.6232 0.7706 -0.1337
vn -0.6186 0.7744 0.1325
vn -0.1321 0.7564 -0.6406
vn 0.2099 0.0000 0.9777
vn 0.9777 0.0003 -0.2098
vn 0.0000 1.0000 0.0000
vn 0.2101 0.0000 0.9777
vn 0.9777 0.0000 -0.2098
vn -0.2099 0.0000 -0.9777
vn -0.9778 0.0000 0.2094
vn -0.2019 0.0000 -0.9794
vn -0.9777 0.0000 0.2098
usemtl None
s off
f 1//1 2//1 5//1 3//1 4//1
f 2//2 9//2 10//2 5//2
f 10//3 8//3 7//3 3//3 5//3
f 6//4 4//4 3//4 7//4
f 9//5 10//5 8//5
f 6//6 4//6 1//6
f 11//7 12//7 13//7 14//7 15//7 16//7
f 1//8 11//8 12//8 2//8
f 2//9 12//9 13//9 9//9
f 9//10 13//10 14//10 8//10
f 8//11 14//11 15//11 7//11
f 7//12 15//12 16//12 6//12
f 6//13 16//13 11//13 1//13
