# Blender v2.92.0 OBJ File: ''
# www.blender.org
mtllib BK39_500_016031_0002_roof.mtl
o BK39_500_016031_0002_roof
v 390.909027 75.000000 -227.604111
v 352.887909 75.000000 -382.011414
v 292.823853 145.000000 -286.329407
v 171.201782 75.000000 -516.902466
v 204.161484 75.000000 -383.038116
v 209.962738 75.000000 -183.657776
v 171.466049 75.000000 -337.268463
v 242.243408 75.000000 -52.395203
v 163.016342 75.000000 -372.348389
v 122.624825 135.786072 -433.109009
v 157.291245 144.782043 -253.155655
v 103.643173 135.895798 -428.306091
v 94.772514 125.388474 -413.684601
v 129.949493 125.066589 -269.189148
v 172.130890 124.287407 -94.026009
v 139.961990 124.296463 -224.789383
v 130.649658 75.000000 -24.915754
v 18.809347 75.000000 -479.383484
v 390.909027 0.000000 -227.604111
v 352.887909 0.000000 -382.011414
v 171.466049 0.000000 -337.268463
v 163.016342 0.000000 -372.348389
v 204.161484 0.000000 -383.038116
v 171.201782 0.000000 -516.902466
v 18.809347 0.000000 -479.383484
v 130.649658 0.000000 -24.915754
v 242.243408 0.000000 -52.395203
v 209.962738 0.000000 -183.657776
vt 0.318660 0.953950
vt 0.419830 0.826200
vt 0.590840 0.903150
vt 0.045876 0.113890
vt 0.417570 0.044543
vt 0.299080 0.199430
vt 0.252790 0.208310
vt 0.497950 0.291980
vt 0.231150 0.235330
vt 0.397600 0.311740
vt 0.316950 0.502420
vt 0.418210 0.376580
vt 0.383640 0.532060
vt 0.714200 0.470740
vt 0.860700 0.293880
vt 0.953440 0.579290
vt 0.341370 0.584490
vt 0.512100 0.660520
vn -0.1561 -0.7575 -0.6339
vn 0.1571 -0.7539 0.6379
vn -0.6514 -0.7416 0.1604
vn -0.1663 -0.7502 -0.6400
vn 0.6460 0.7473 -0.1556
vn -0.1593 0.7464 -0.6461
vn 0.6340 0.7574 -0.1561
vn 0.6364 -0.7553 -0.1566
vn 0.1552 0.7535 0.6389
vn 0.6279 0.7628 -0.1544
usemtl None
s off
f 17/1/1 15/2/1 8/3/1
f 18/4/2 4/5/2 10/6/2 12/7/2
f 4/5/3 5/8/3 10/6/3
f 13/9/4 12/7/4 10/6/4 5/8/4 9/10/4
f 14/11/5 7/12/5 9/10/5 13/9/5
f 11/13/6 3/14/6 2/15/6 7/12/6 14/11/6
f 3/14/7 1/16/7 2/15/7
f 17/1/8 18/4/8 12/7/8 13/9/8 14/11/8 11/13/8 16/17/8 15/2/8
f 16/17/9 6/18/9 1/16/9 3/14/9 11/13/9
f 8/3/10 6/18/10 16/17/10 15/2/10
