# Blender v2.92.0 OBJ File: ''
# www.blender.org
mtllib BK39_500_016025_0052.mtl
o BK39_500_016025_0052
v 97.191841 144.727020 -49.186760
v 179.850464 75.000000 -18.084179
v 14.057659 75.000000 -80.496582
v 288.265533 75.000000 -305.938324
v 205.292282 145.000000 -337.186554
v 121.823082 75.000000 -368.593445
v 179.850464 0.000000 -18.084179
v 14.057659 0.000000 -80.496582
v 121.823082 0.000000 -368.593445
v 288.265533 0.000000 -305.938324
vn -0.5799 -0.7849 -0.2184
vn 0.5783 -0.7866 0.2163
vn -0.3523 0.0002 0.9359
vn 0.3523 0.0002 -0.9359
vn 0.0000 -1.0000 0.0000
vn 0.3523 0.0000 -0.9359
vn 0.9366 0.0000 0.3504
vn -0.3523 0.0000 0.9359
vn -0.9358 0.0000 -0.3525
usemtl None
s off
f 1//1 5//1 4//1 2//1
f 1//2 3//2 6//2 5//2
f 4//3 5//3 6//3
f 3//4 1//4 2//4
f 7//5 8//5 9//5 10//5
f 2//6 7//6 8//6 3//6
f 3//7 8//7 9//7 6//7
f 6//8 9//8 10//8 4//8
f 4//9 10//9 7//9 2//9
