# Blender v2.92.0 OBJ File: ''
# www.blender.org
mtllib BK39_500_016024_0004.mtl
o BK39_500_016024_0004
v 406.702484 75.000000 -463.622833
v 22.389450 75.000000 -371.423584
v 424.549744 113.437714 -389.320953
v 237.178650 113.771004 -343.687958
v 190.418335 145.000000 -268.624054
v 331.048431 75.000000 -286.642548
v 442.561554 75.000000 -314.211426
v 194.721359 144.993073 -250.634476
v 183.020935 137.073746 -231.807037
v 197.878113 137.142670 -170.485764
v 332.780640 75.000000 -143.161591
v 363.468781 75.000000 -150.650772
v 348.231323 75.000000 -79.995216
v 106.264671 75.000000 -21.917286
v 406.702484 0.000000 -463.622833
v 22.389450 0.000000 -371.423584
v 106.264671 0.000000 -21.917286
v 348.231323 0.000000 -79.995216
v 332.780640 0.000000 -143.161591
v 363.468781 0.000000 -150.650772
v 331.048431 0.000000 -286.642548
v 442.561554 0.000000 -314.211426
vn -0.1048 0.8933 -0.4370
vn 0.1069 0.8953 0.4325
vn 0.4326 0.8957 -0.1031
vn 0.1078 0.8907 0.4416
vn 0.4337 0.8948 -0.1061
vn -0.1052 -0.8927 -0.4383
vn 0.4364 -0.8937 -0.1047
vn -0.9724 0.0004 0.2334
vn 0.0000 1.0000 0.0000
vn -0.2333 0.0000 -0.9724
vn -0.9724 0.0000 0.2334
vn 0.2334 0.0000 0.9724
vn 0.9714 0.0000 -0.2376
vn 0.2371 0.0000 0.9715
vn 0.9727 0.0000 -0.2319
vn 0.2400 0.0000 0.9708
vn 0.9724 0.0000 -0.2334
usemtl None
s off
f 5//1 4//1 3//1 1//1 2//1
f 4//2 6//2 7//2 3//2
f 5//3 8//3 12//3 6//3 4//3
f 8//4 9//4 11//4 12//4
f 9//5 10//5 13//5 11//5
f 13//6 14//6 10//6
f 14//7 2//7 5//7 8//7 9//7 10//7
f 7//8 3//8 1//8
f 15//9 16//9 17//9 18//9 19//9 20//9 21//9 22//9
f 1//10 15//10 16//10 2//10
f 2//11 16//11 17//11 14//11
f 14//12 17//12 18//12 13//12
f 13//13 18//13 19//13 11//13
f 11//14 19//14 20//14 12//14
f 12//15 20//15 21//15 6//15
f 6//16 21//16 22//16 7//16
f 7//17 22//17 15//17 1//17
