# Blender v2.92.0 OBJ File: ''
# www.blender.org
mtllib BK39_500_013028_0005_roof.mtl
o BK39_500_013028_0005_roof
v 18.022308 75.000000 -286.976624
v 335.496002 75.000000 -364.280396
v 217.425919 131.124008 -255.966354
v 281.794647 131.247330 -271.465088
v 133.106537 144.848663 -215.978073
v 203.976074 145.000000 -233.020020
v 307.131409 75.000000 -200.525909
v 371.628937 75.000000 -215.886536
v 62.562851 75.000000 -104.064651
v 132.606491 75.000000 -120.704239
v 231.936478 144.822632 -116.625710
v 147.848663 75.000000 -57.815594
v 330.846313 75.000000 -100.943817
v 215.198318 75.000000 -16.871695
v 291.149872 75.000000 -35.365902
v 18.022308 0.000000 -286.976624
v 335.496002 0.000000 -364.280396
v 371.628937 0.000000 -215.886536
v 307.131409 0.000000 -200.525909
v 330.846313 0.000000 -100.943817
v 291.149872 0.000000 -35.365902
v 215.198318 0.000000 -16.871695
v 147.848663 0.000000 -57.815594
v 132.606491 0.000000 -120.704239
v 62.562851 0.000000 -104.064651
vt 0.550380 0.955600
vt 0.744630 0.906930
vt 0.593190 0.693090
vt 0.378130 0.847850
vt 0.339150 0.682360
vt 0.521680 0.386790
vt 0.160010 0.726150
vt 0.340430 0.431640
vt 0.046093 0.244800
vt 0.858050 0.041367
vt 0.720700 0.285620
vt 0.556080 0.326400
vt 0.950460 0.431880
vt 0.785500 0.472300
vt 0.846150 0.734360
vn 0.1421 0.7996 0.5835
vn 0.3099 -0.8026 -0.5098
vn 0.5733 -0.8075 -0.1390
vn -0.1392 -0.7983 -0.5860
vn 0.5755 -0.8057 -0.1401
vn 0.1390 -0.8092 0.5708
vn -0.5873 -0.7967 0.1430
vn -0.1391 -0.7995 -0.5843
vn -0.5857 -0.7984 0.1395
vn -0.5146 -0.7989 -0.3115
usemtl None
s off
f 14/1/1 15/2/1 11/3/1
f 14/1/2 12/4/2 11/3/2
f 12/4/3 10/5/3 6/6/3 11/3/3
f 10/5/4 9/7/4 5/8/4 6/6/4
f 9/7/5 1/9/5 5/8/5
f 1/9/6 2/10/6 4/11/6 3/12/6 6/6/6 5/8/6
f 2/10/7 8/13/7 4/11/7
f 8/13/8 7/14/8 3/12/8 4/11/8
f 7/14/9 13/15/9 11/3/9 6/6/9 3/12/9
f 13/15/10 15/2/10 11/3/10
