# Blender v2.92.0 OBJ File: ''
# www.blender.org
mtllib BK39_500_014028_0070_roof.mtl
o BK39_500_014028_0070_roof
v 223.269226 75.000000 -430.905060
v 307.570190 75.000000 -78.002090
v 194.895752 116.626648 -227.428864
v 166.592850 116.660858 -345.646301
v 155.924896 145.000000 -170.916443
v 111.747688 75.000000 -277.187469
v 82.914574 75.000000 -397.371063
v 71.281105 75.000000 -21.547274
v 15.628595 75.000000 -254.479492
v 223.269226 0.000000 -430.905060
v 307.570190 0.000000 -78.002090
v 71.281105 0.000000 -21.547274
v 15.628595 0.000000 -254.479492
v 111.747688 0.000000 -277.187469
v 82.914574 0.000000 -397.371063
vt 0.222060 0.952220
vt 0.958160 0.827050
vt 0.485750 0.621030
vt 0.048687 0.435740
vt 0.607150 0.495720
vt 0.348120 0.385390
vt 0.258300 0.118910
vt 0.518980 0.233600
vt 0.695540 0.044556
vn 0.1131 0.8735 0.4735
vn 0.4992 -0.8582 -0.1193
vn -0.1206 0.8513 -0.5106
vn 0.5010 -0.8571 -0.1202
vn 0.1192 -0.8585 0.4987
vn 0.4726 0.8740 -0.1129
usemtl None
s off
f 8/1/1 2/2/1 5/3/1
f 8/1/2 9/4/2 5/3/2
f 5/3/3 3/5/3 6/6/3 9/4/3
f 6/6/4 7/7/4 4/8/4 3/5/4
f 7/7/5 1/9/5 4/8/5
f 2/2/6 1/9/6 4/8/6 3/5/6 5/3/6
