# Blender v2.92.0 OBJ File: ''
# www.blender.org
mtllib BK39_500_015028_0022.mtl
o BK39_500_015028_0022
v 19.928467 75.000000 -194.197968
v 63.311821 75.000000 -39.031162
v 124.495079 75.000000 -55.977665
v 135.067017 75.000000 -16.840710
v 116.331070 144.473526 -139.715622
v 178.484192 144.516708 -156.984207
v 189.801407 145.000000 -117.179863
v 184.341522 75.000000 -240.012192
v 165.065796 75.000000 -309.722412
v 290.025146 75.000000 -60.169331
v 278.221741 75.000000 -99.678436
v 265.914398 143.808624 -256.871399
v 285.216339 143.894211 -187.454330
v 382.609711 75.000000 -130.236954
v 320.308990 75.000000 -353.126434
v 19.928467 0.000000 -194.197968
v 63.311821 0.000000 -39.031162
v 124.495079 0.000000 -55.977665
v 135.067017 0.000000 -16.840710
v 290.025146 0.000000 -60.169331
v 278.221741 0.000000 -99.678436
v 382.609711 0.000000 -130.236954
v 320.308990 0.000000 -353.126434
v 165.065796 0.000000 -309.722412
v 184.341522 0.000000 -240.012192
vn 0.1750 0.7601 0.6257
vn -0.6402 0.7485 0.1729
vn 0.1715 0.7664 0.6191
vn -0.6398 0.7475 0.1789
vn 0.1781 -0.7483 0.6391
vn 0.6146 -0.7703 -0.1700
vn 0.1781 -0.7501 0.6369
vn -0.6358 -0.7512 0.1777
vn -0.1804 -0.7667 -0.6161
vn 0.6322 0.7514 -0.1889
vn 0.0000 1.0000 0.0000
vn -0.9631 0.0000 0.2693
vn 0.2669 0.0000 0.9637
vn -0.9654 0.0000 0.2608
vn 0.2693 0.0000 0.9631
vn 0.9582 0.0000 -0.2863
vn 0.2809 0.0000 0.9597
vn 0.9631 0.0000 -0.2692
vn -0.2693 0.0000 -0.9631
vn -0.9638 0.0000 0.2665
vn -0.2684 0.0000 -0.9633
usemtl None
s off
f 4//1 10//1 7//1
f 7//2 6//2 3//2 4//2
f 6//3 5//3 2//3 3//3
f 5//4 1//4 2//4
f 1//5 8//5 13//5 6//5 5//5
f 8//6 9//6 12//6 13//6
f 9//7 15//7 12//7
f 15//8 14//8 13//8 12//8
f 14//9 11//9 6//9 13//9
f 10//10 11//10 6//10 7//10
f 16//11 17//11 18//11 19//11 20//11 21//11 22//11 23//11 24//11 25//11
f 1//12 16//12 17//12 2//12
f 2//13 17//13 18//13 3//13
f 3//14 18//14 19//14 4//14
f 4//15 19//15 20//15 10//15
f 10//16 20//16 21//16 11//16
f 11//17 21//17 22//17 14//17
f 14//18 22//18 23//18 15//18
f 15//19 23//19 24//19 9//19
f 9//20 24//20 25//20 8//20
f 8//21 25//21 16//21 1//21
