# Blender v2.92.0 OBJ File: ''
# www.blender.org
mtllib BK39_500_013033_0049.mtl
o BK39_500_013033_0049
v 31.112902 75.000000 -245.271362
v 263.092255 75.000000 -21.783245
v 17.067202 75.000000 -336.601318
v 69.723793 75.000000 -286.179932
v 156.386429 145.000000 -248.601562
v 325.058014 144.944931 -86.006371
v 154.315475 121.142227 -290.509552
v 101.302155 121.247116 -341.466553
v 132.478607 121.244476 -373.762817
v 177.580002 75.000000 -345.259521
v 383.525665 75.000000 -146.620605
v 128.107590 75.000000 -451.613342
v 206.881973 75.000000 -375.618042
v 31.112902 0.000000 -245.271362
v 263.092255 0.000000 -21.783245
v 383.525665 0.000000 -146.620605
v 177.580002 0.000000 -345.259521
v 206.881973 0.000000 -375.618042
v 128.107590 0.000000 -451.613342
v 17.067202 0.000000 -336.601318
v 69.723793 0.000000 -286.179932
vn -0.4280 0.7871 0.4442
vn 0.4435 0.7693 -0.4599
vn 0.4769 0.7488 0.4603
vn 0.4565 0.7535 -0.4732
vn -0.4522 0.7777 -0.4366
vn -0.4145 0.8005 0.4329
vn -0.4502 0.7854 -0.4249
vn -0.7197 0.0001 -0.6943
vn 0.0000 1.0000 0.0000
vn -0.6938 0.0000 0.7202
vn 0.7197 0.0000 0.6943
vn 0.6942 0.0000 -0.7198
vn 0.7195 0.0000 0.6945
vn 0.6943 0.0000 -0.7197
vn -0.7194 0.0000 -0.6946
vn -0.6916 0.0000 0.7223
vn -0.7272 0.0000 -0.6864
usemtl None
s off
f 6//1 5//1 1//1 2//1
f 6//2 11//2 10//2 8//2 7//2 5//2
f 10//3 13//3 9//3 8//3
f 13//4 12//4 9//4
f 12//5 3//5 8//5 9//5
f 3//6 4//6 7//6 8//6
f 4//7 1//7 5//7 7//7
f 2//8 6//8 11//8
f 14//9 15//9 16//9 17//9 18//9 19//9 20//9 21//9
f 1//10 14//10 15//10 2//10
f 2//11 15//11 16//11 11//11
f 11//12 16//12 17//12 10//12
f 10//13 17//13 18//13 13//13
f 13//14 18//14 19//14 12//14
f 12//15 19//15 20//15 3//15
f 3//16 20//16 21//16 4//16
f 4//17 21//17 14//17 1//17
