# Blender v2.92.0 OBJ File: ''
# www.blender.org
mtllib BK39_500_017032_0012.mtl
o BK39_500_017032_0012
v 17.842054 75.000000 -204.468109
v 60.422153 75.000000 -32.563210
v 122.968285 144.999985 -137.889374
v 139.254242 145.000000 -141.923218
v 163.201279 75.000000 -58.020245
v 174.317413 75.000000 -13.142065
v 144.623749 139.741074 -150.211304
v 201.804291 139.680679 -164.454300
v 209.785492 131.223389 -177.621063
v 247.239166 75.000000 -31.204473
v 236.123199 75.000000 -76.082024
v 248.465866 75.000000 -79.139145
v 245.896469 75.000000 -90.924431
v 277.386383 131.239868 -194.343353
v 302.847290 75.000000 -105.188873
v 297.958038 75.000000 -124.739815
v 365.861694 75.000000 -141.514999
v 331.052460 75.000000 -282.047333
v 17.842054 0.000000 -204.468109
v 60.422153 0.000000 -32.563210
v 163.201279 0.000000 -58.020245
v 174.317413 0.000000 -13.142065
v 247.239166 0.000000 -31.204473
v 236.123199 0.000000 -76.082024
v 248.465866 0.000000 -79.139145
v 245.896469 0.000000 -90.924431
v 302.847290 0.000000 -105.188873
v 297.958038 0.000000 -124.739815
v 365.861694 0.000000 -141.514999
v 331.052460 0.000000 -282.047333
vn 0.6126 -0.7757 -0.1517
vn 0.1477 -0.7890 0.5963
vn -0.5862 -0.8000 0.1278
vn -0.1504 -0.7853 -0.6006
vn 0.5934 0.7911 -0.1484
vn 0.1470 0.7902 0.5950
vn 0.5915 0.7929 -0.1465
vn 0.1505 0.7798 0.6076
vn 0.0000 -1.0000 -0.0000
vn 0.0000 1.0000 0.0000
vn -0.9707 0.0000 0.2404
vn 0.2404 0.0000 0.9707
vn 0.9707 0.0000 -0.2404
vn 0.9770 0.0000 -0.2130
vn 0.2430 0.0000 0.9700
vn 0.9701 0.0000 -0.2426
vn 0.2398 0.0000 0.9708
vn -0.2404 0.0000 -0.9707
usemtl None
s off
f 2//1 1//1 3//1
f 1//2 18//2 14//2 9//2 8//2 7//2 4//2 3//2
f 4//3 7//3 13//3 12//3
f 7//4 8//4 15//4 13//4
f 15//5 16//5 9//5 8//5
f 16//6 17//6 14//6 9//6
f 17//7 18//7 14//7
f 3//8 2//8 5//8 11//8 12//8 4//8
f 11//9 10//9 6//9 5//9
f 19//10 20//10 21//10 22//10 23//10 24//10 25//10 26//10 27//10 28//10 29//10 30//10
f 1//11 19//11 20//11 2//11
f 2//12 20//12 21//12 5//12
f 5//11 21//11 22//11 6//11
f 6//12 22//12 23//12 10//12
f 10//13 23//13 24//13 11//13
f 11//12 24//12 25//12 12//12
f 12//14 25//14 26//14 13//14
f 13//15 26//15 27//15 15//15
f 15//16 27//16 28//16 16//16
f 16//17 28//17 29//17 17//17
f 17//13 29//13 30//13 18//13
f 18//18 30//18 19//18 1//18
