# Blender v2.92.0 OBJ File: ''
# www.blender.org
mtllib BK39_500_016026_0067.mtl
o BK39_500_016026_0067
v 230.366425 75.000000 -296.598602
v 319.907501 75.000000 -183.660049
v 96.385231 144.998047 -190.389618
v 185.922592 145.000000 -77.448074
v 15.941418 75.000000 -126.620552
v 105.476547 75.000000 -13.677231
v 230.366425 0.000000 -296.598602
v 319.907501 0.000000 -183.660049
v 105.476547 0.000000 -13.677231
v 15.941418 0.000000 -126.620552
vn -0.4415 0.8262 0.3500
vn 0.2969 0.9254 -0.2354
vn 0.6212 -0.0000 0.7836
vn -0.6212 -0.0000 -0.7836
vn 0.0000 -1.0000 0.0000
vn -0.7836 0.0000 0.6213
vn 0.7836 0.0000 -0.6212
usemtl None
s off
f 6//1 4//1 3//1 5//1
f 4//2 2//2 1//2 3//2
f 2//3 4//3 6//3
f 5//4 3//4 1//4
f 7//5 8//5 9//5 10//5
f 1//6 7//6 8//6 2//6
f 2//4 8//4 9//4 6//4
f 6//7 9//7 10//7 5//7
f 5//3 10//3 7//3 1//3
