# Blender v2.92.0 OBJ File: ''
# www.blender.org
mtllib BK39_500_012031_0012.mtl
o BK39_500_012031_0012
v 16.047169 75.000000 -196.177505
v 130.137619 75.000000 -311.922241
v 131.948334 145.000000 -198.313034
v 202.242432 144.995834 -129.018799
v 314.838928 75.000000 -129.830688
v 200.766296 75.000000 -14.104041
v 16.047169 0.000000 -196.177505
v 130.137619 0.000000 -311.922241
v 314.838928 0.000000 -129.830688
v 200.766296 0.000000 -14.104041
vn -0.4702 -0.7510 -0.4635
vn 0.4529 -0.7640 -0.4595
vn 0.4655 -0.7568 0.4589
vn -0.4635 -0.7511 0.4702
vn 0.0000 -1.0000 0.0000
vn 0.7122 0.0000 0.7020
vn -0.7021 0.0000 0.7121
vn -0.7122 0.0000 -0.7020
vn 0.7020 0.0000 -0.7122
usemtl None
s off
f 6//1 4//1 5//1
f 6//2 1//2 3//2 4//2
f 1//3 2//3 3//3
f 2//4 5//4 4//4 3//4
f 7//5 8//5 9//5 10//5
f 1//6 7//6 8//6 2//6
f 2//7 8//7 9//7 5//7
f 5//8 9//8 10//8 6//8
f 6//9 10//9 7//9 1//9
