# Blender v2.92.0 OBJ File: ''
# www.blender.org
mtllib BK39_500_012028_0004.mtl
o BK39_500_012028_0004
v 319.676544 75.000000 -72.430801
v 95.494835 75.000000 -17.878820
v 300.017334 143.827957 -153.470322
v 153.482605 144.729919 -118.937508
v 213.849640 75.000000 -213.528290
v 281.659485 75.000000 -229.024933
v 129.851212 145.000000 -217.493759
v 122.024887 139.841537 -224.570023
v 191.573883 75.000000 -307.707916
v 180.271957 75.000000 -308.098969
v 15.132604 75.000000 -348.560669
v 161.897278 75.000000 -384.185486
v 87.717552 139.931625 -366.179840
v 319.676544 0.000000 -72.430801
v 95.494835 0.000000 -17.878820
v 15.132604 0.000000 -348.560669
v 161.897278 0.000000 -384.185486
v 180.271957 0.000000 -308.098969
v 191.573883 0.000000 -307.707916
v 213.849640 0.000000 -213.528290
v 281.659485 0.000000 -229.024933
vn -0.1505 -0.7712 -0.6185
vn 0.6375 -0.7547 -0.1549
vn -0.6371 -0.7559 0.1507
vn -0.1477 0.7487 -0.6462
vn -0.0209 -0.7968 0.6039
vn -0.6298 -0.7617 0.1521
vn -0.2359 -0.0000 -0.9718
vn 0.9718 -0.0002 -0.2359
vn 0.0000 -1.0000 0.0000
vn -0.2364 0.0000 -0.9716
vn 0.9717 0.0000 -0.2361
vn 0.2359 0.0000 0.9718
vn -0.9721 0.0000 0.2347
vn -0.0346 0.0000 0.9994
vn -0.9731 0.0000 0.2302
vn 0.2228 0.0000 0.9749
vn -0.9718 0.0000 0.2359
usemtl None
s off
f 2//1 4//1 3//1 1//1
f 2//2 11//2 13//2 8//2 7//2 4//2
f 7//3 9//3 5//3 4//3
f 4//4 3//4 6//4 5//4
f 7//5 8//5 10//5 9//5
f 8//6 13//6 12//6 10//6
f 11//7 13//7 12//7
f 6//8 3//8 1//8
f 14//9 15//9 16//9 17//9 18//9 19//9 20//9 21//9
f 1//10 14//10 15//10 2//10
f 2//11 15//11 16//11 11//11
f 11//12 16//12 17//12 12//12
f 12//13 17//13 18//13 10//13
f 10//14 18//14 19//14 9//14
f 9//15 19//15 20//15 5//15
f 5//16 20//16 21//16 6//16
f 6//17 21//17 14//17 1//17
