# Blender v2.92.0 OBJ File: ''
# www.blender.org
mtllib BK39_500_014031_0022_roof.mtl
o BK39_500_014031_0022_roof
v 109.006241 75.000000 -349.004822
v 43.197166 75.000000 -266.613007
v 63.716568 75.000000 -249.707489
v 18.220102 75.000000 -191.497803
v 118.011169 116.653320 -274.379547
v 139.028519 116.815269 -257.333618
v 76.390739 75.000000 -145.059433
v 33.122440 75.000000 -89.980698
v 145.851227 145.000000 -206.255844
v 159.961716 120.097351 -153.493622
v 117.509087 119.818100 -100.059715
v 196.901749 144.996063 -165.495010
v 216.892624 133.559525 -168.046036
v 169.233704 75.000000 -70.941711
v 125.349495 75.000000 -16.308224
v 258.088501 133.744537 -134.848862
v 208.193970 75.000000 -39.839245
v 226.825211 75.000000 -63.538364
v 361.819580 75.000000 -147.116623
v 268.187103 75.000000 -29.901522
v 109.006241 0.000000 -349.004822
v 43.197166 0.000000 -266.613007
v 63.716568 0.000000 -249.707489
v 18.220102 0.000000 -191.497803
v 76.390739 0.000000 -145.059433
v 33.122440 0.000000 -89.980698
v 125.349495 0.000000 -16.308224
v 169.233704 0.000000 -70.941711
v 208.193970 0.000000 -39.839245
v 226.825211 0.000000 -63.538364
v 268.187103 0.000000 -29.901522
v 361.819580 0.000000 -147.116623
vt 0.086936 0.753480
vt 0.329000 0.955320
vt 0.308420 0.725860
vt 0.444180 0.805640
vt 0.419850 0.579470
vt 0.200500 0.602580
vt 0.047822 0.475350
vt 0.546440 0.890850
vt 0.516800 0.546590
vt 0.382810 0.434920
vt 0.595340 0.825920
vt 0.569270 0.539600
vt 0.703900 0.918080
vt 0.677400 0.630550
vt 0.949660 0.596940
vt 0.286110 0.043822
vt 0.309740 0.248280
vt 0.364900 0.294980
vt 0.113380 0.269550
vt 0.167240 0.315870
vn -0.3713 0.8037 0.4649
vn 0.4738 0.7941 0.3806
vn 0.4699 -0.8018 0.3692
vn -0.3800 0.7931 0.4760
vn 0.4944 0.7775 0.3887
vn -0.3889 0.7875 0.4782
vn 0.4882 0.7807 0.3900
vn 0.3870 0.7845 -0.4846
vn -0.4794 0.7897 -0.3829
vn -0.3903 0.7894 0.4738
vn -0.4788 0.7941 -0.3742
usemtl None
s off
f 8/1/1 15/2/1 11/3/1
f 15/2/2 14/4/2 10/5/2 11/3/2
f 11/3/3 8/1/3 7/6/3 10/5/3
f 4/7/4 7/6/4 10/5/4 14/4/4 17/8/4 12/9/4 9/10/4
f 17/8/5 18/11/5 13/12/5 12/9/5
f 18/11/6 20/13/6 16/14/6 13/12/6
f 20/13/7 19/15/7 16/14/7
f 1/16/8 5/17/8 6/18/8 9/10/8 12/9/8 13/12/8 16/14/8 19/15/8
f 2/19/9 5/17/9 1/16/9
f 2/19/10 3/20/10 6/18/10 5/17/10
f 3/20/11 4/7/11 9/10/11 6/18/11
