# Blender v2.92.0 OBJ File: ''
# www.blender.org
mtllib BK39_500_012032_0028_roof.mtl
o BK39_500_012032_0028_roof
v 17.320227 75.000000 -216.535416
v 193.559601 75.000000 -396.698547
v 163.484772 117.841904 -274.754700
v 195.673279 118.016159 -307.288879
v 163.008087 145.000000 -216.454773
v 287.117676 75.000000 -305.155121
v 257.317291 75.000000 -275.385315
v 215.958771 144.963821 -164.573883
v 365.124146 75.000000 -169.597153
v 218.479965 75.000000 -19.719465
v 17.320227 0.000000 -216.535416
v 193.559601 0.000000 -396.698547
v 287.117676 0.000000 -305.155121
v 257.317291 0.000000 -275.385315
v 365.124146 0.000000 -169.597153
v 218.479965 0.000000 -19.719465
vt 0.577990 0.952480
vt 0.571320 0.603440
vt 0.965940 0.591330
vt 0.045821 0.478230
vt 0.431240 0.478420
vt 0.512060 0.044100
vt 0.517650 0.259540
vt 0.432500 0.337940
vt 0.759570 0.264690
vt 0.680730 0.336420
vn -0.4013 -0.8275 -0.3927
vn 0.3962 -0.8241 -0.4049
vn 0.3986 -0.8301 0.3899
vn -0.3968 -0.8234 0.4056
vn -0.3853 -0.8383 -0.3857
vn -0.3807 -0.8394 0.3879
usemtl None
s off
f 10/1/1 8/2/1 9/3/1
f 10/1/2 1/4/2 5/5/2 8/2/2
f 1/4/3 2/6/3 4/7/3 3/8/3 5/5/3
f 2/6/4 6/9/4 4/7/4
f 6/9/5 7/10/5 3/8/5 4/7/5
f 7/10/6 9/3/6 8/2/6 5/5/6 3/8/6
