# Blender v2.92.0 OBJ File: ''
# www.blender.org
mtllib BK39_500_013026_0041.mtl
o BK39_500_013026_0041
v 322.955414 75.000000 -390.987091
v 20.133823 75.000000 -296.583374
v 248.652832 136.936951 -281.040558
v 44.672230 136.838089 -217.588745
v 262.151031 144.982285 -273.975861
v 193.810883 75.000000 -177.384583
v 69.191162 75.000000 -138.703873
v 421.457733 75.000000 -73.979370
v 243.125168 75.000000 -18.566525
v 332.827789 145.000000 -46.439491
v 322.955414 0.000000 -390.987091
v 20.133823 0.000000 -296.583374
v 69.191162 0.000000 -138.703873
v 193.810883 0.000000 -177.384583
v 243.125168 0.000000 -18.566525
v 421.457733 0.000000 -73.979370
vn -0.1776 -0.8005 -0.5723
vn -0.5707 0.8018 0.1772
vn 0.5750 0.7984 -0.1787
vn -0.1782 0.8009 -0.5716
vn 0.9550 0.0001 -0.2967
vn -0.2967 0.0000 -0.9550
vn 0.0000 1.0000 0.0000
vn -0.2976 0.0000 -0.9547
vn -0.9550 0.0000 0.2967
vn 0.2964 0.0000 0.9551
vn -0.9550 0.0000 0.2965
vn 0.2967 0.0000 0.9550
vn 0.9550 0.0000 -0.2967
usemtl None
s off
f 7//1 4//1 3//1 6//1
f 6//2 9//2 10//2 5//2 3//2
f 10//3 8//3 1//3 5//3
f 1//4 2//4 4//4 3//4 5//4
f 2//5 4//5 7//5
f 9//6 10//6 8//6
f 11//7 12//7 13//7 14//7 15//7 16//7
f 1//8 11//8 12//8 2//8
f 2//9 12//9 13//9 7//9
f 7//10 13//10 14//10 6//10
f 6//11 14//11 15//11 9//11
f 9//12 15//12 16//12 8//12
f 8//13 16//13 11//13 1//13
