# Blender v2.92.0 OBJ File: ''
# www.blender.org
mtllib BK39_500_013031_0012.mtl
o BK39_500_013031_0012
v 315.996979 75.000000 -273.624451
v 381.166443 75.000000 -249.906967
v 304.703857 75.000000 -242.596802
v 227.089371 75.000000 -270.730988
v 207.258682 75.000000 -216.314850
v 356.257599 75.000000 -162.326370
v 283.021881 74.999992 -188.862732
v 350.158966 75.000000 -164.536148
v 74.942307 75.000000 -264.258575
v 330.789520 145.000000 -85.763580
v 44.278149 144.429764 -190.277405
v 301.862305 75.000000 -12.716484
v 20.985273 75.000000 -115.843193
v 315.996979 0.000000 -273.624451
v 381.166443 0.000000 -249.906967
v 350.158966 0.000000 -164.536148
v 356.257599 0.000000 -162.326370
v 301.862305 0.000000 -12.716484
v 20.985273 0.000000 -115.843193
v 74.942307 0.000000 -264.258575
v 207.258682 0.000000 -216.314850
v 227.089371 0.000000 -270.730988
v 304.703857 0.000000 -242.596802
vn 0.2293 -0.7465 -0.6246
vn 0.2233 0.7552 -0.6162
vn -0.0000 -1.0000 -0.0000
vn 0.9393 -0.0318 0.3415
vn -0.9386 -0.0509 -0.3412
vn -0.3420 0.0000 0.9397
vn -0.9399 0.0000 -0.3414
vn -0.3407 0.0000 0.9402
vn -0.9398 0.0000 -0.3417
vn 0.3447 0.0000 -0.9387
vn 0.9398 0.0000 0.3417
vn 0.9396 0.0000 0.3424
vn -0.3408 0.0000 0.9401
vn 0.9397 0.0000 0.3420
usemtl None
s off
f 11//1 10//1 12//1 13//1
f 11//2 10//2 6//2 8//2 7//2 5//2 9//2
f 4//3 3//3 7//3 5//3
f 3//3 1//3 2//3 8//3 7//3
f 6//4 10//4 12//4
f 13//5 11//5 9//5
f 14//3 15//3 16//3 17//3 18//3 19//3 20//3 21//3 22//3 23//3
f 1//6 14//6 15//6 2//6
f 2//7 15//7 16//7 8//7
f 8//8 16//8 17//8 6//8
f 6//9 17//9 18//9 12//9
f 12//10 18//10 19//10 13//10
f 13//11 19//11 20//11 9//11
f 9//8 20//8 21//8 5//8
f 5//12 21//12 22//12 4//12
f 4//13 22//13 23//13 3//13
f 3//14 23//14 14//14 1//14
