# Blender v2.92.0 OBJ File: ''
# www.blender.org
mtllib BK39_500_014028_0004.mtl
o BK39_500_014028_0004
v 317.362976 75.000000 -205.973129
v 24.377647 75.000000 -225.162842
v 311.608276 144.968246 -117.779510
v 18.619957 145.000000 -136.929230
v 306.148254 75.000000 -34.106934
v 169.074875 75.000000 -43.048206
v 109.808853 75.000000 -46.914124
v 13.157836 75.000000 -53.218658
v 166.913391 75.000000 -9.923566
v 107.647469 75.000000 -13.790823
v 317.362976 0.000000 -205.973129
v 24.377647 0.000000 -225.162842
v 13.157836 0.000000 -53.218658
v 109.808853 0.000000 -46.914124
v 107.647469 0.000000 -13.790823
v 166.913391 0.000000 -9.923566
v 169.074875 0.000000 -43.048206
v 306.148254 0.000000 -34.106934
vn -0.0417 0.7678 0.6393
vn -0.0406 -0.7840 0.6194
vn 0.0000 1.0000 0.0000
vn 0.9979 0.0000 0.0651
vn -0.9979 0.0000 -0.0651
vn 0.0654 0.0000 -0.9979
vn -0.0651 0.0000 0.9979
usemtl None
s off
f 8//1 7//1 6//1 5//1 3//1 4//1
f 4//2 2//2 1//2 3//2
f 7//3 10//3 9//3 6//3
f 2//4 4//4 8//4
f 5//5 3//5 1//5
f 11//3 12//3 13//3 14//3 15//3 16//3 17//3 18//3
f 1//6 11//6 12//6 2//6
f 2//5 12//5 13//5 8//5
f 8//7 13//7 14//7 7//7
f 7//5 14//5 15//5 10//5
f 10//7 15//7 16//7 9//7
f 9//4 16//4 17//4 6//4
f 6//7 17//7 18//7 5//7
f 5//4 18//4 11//4 1//4
