# Blender v2.92.0 OBJ File: ''
# www.blender.org
mtllib BK39_500_016027_0065_roof.mtl
o BK39_500_016027_0065_roof
v 305.772430 75.000000 -49.063168
v 243.974106 75.000000 -310.218781
v 217.825546 121.056175 -102.659576
v 204.644577 121.280296 -156.813721
v 159.720856 144.912537 -183.455475
v 138.243240 145.000000 -178.237289
v 164.959229 75.000000 -15.730308
v 151.526566 75.000000 -69.439201
v 64.422302 75.000000 -47.708252
v 15.096656 75.000000 -256.034943
v 305.772430 0.000000 -49.063168
v 243.974106 0.000000 -310.218781
v 15.096656 0.000000 -256.034943
v 64.422302 0.000000 -47.708252
v 151.526566 0.000000 -69.439201
v 164.959229 0.000000 -15.730308
vt 0.047177 0.212200
vt 0.201320 0.853210
vt 0.432010 0.451580
vt 0.499130 0.435520
vt 0.762420 0.045481
vt 0.473520 0.786340
vt 0.515500 0.951600
vt 0.680700 0.684120
vt 0.639510 0.517500
vt 0.955540 0.849040
vn -0.5510 0.8243 0.1304
vn -0.1286 0.8298 -0.5431
vn -0.5208 0.8437 0.1303
vn 0.1236 0.8438 0.5222
vn 0.5180 0.8465 -0.1226
vn 0.1310 0.8409 0.5251
usemtl None
s off
f 10/1/1 9/2/1 6/3/1
f 6/3/2 5/4/2 2/5/2 10/1/2
f 8/6/3 7/7/3 3/8/3 4/9/3
f 7/7/4 1/10/4 3/8/4
f 1/10/5 2/5/5 5/4/5 4/9/5 3/8/5
f 9/2/6 8/6/6 4/9/6 5/4/6 6/3/6
