# Blender v2.92.0 OBJ File: ''
# www.blender.org
mtllib BK39_500_015027_0030.mtl
o BK39_500_015027_0030
v 233.695099 75.000000 -411.342957
v 322.578766 75.000000 -48.280094
v 237.438873 119.342949 -140.372498
v 249.325623 119.364067 -91.696968
v 163.554504 144.997910 -294.243286
v 195.100250 145.000000 -165.376236
v 192.645859 75.000000 -68.410721
v 204.585999 75.000000 -19.394167
v 123.878227 120.719467 -319.189514
v 91.323509 121.754440 -309.742096
v 80.606750 76.491272 -246.126495
v 101.627350 75.000000 -151.823730
v 126.018646 75.000000 -52.173962
v 14.425915 75.000000 -357.662476
v 44.687557 76.443169 -234.123749
v 66.898811 75.000000 -143.321777
v 233.695099 0.000000 -411.342957
v 322.578766 0.000000 -48.280094
v 204.585999 0.000000 -19.394167
v 192.645859 0.000000 -68.410721
v 126.018646 0.000000 -52.173962
v 101.627350 0.000000 -151.823730
v 66.898811 0.000000 -143.321777
v 14.425915 0.000000 -357.662476
vn -0.1420 -0.8021 -0.5800
vn 0.5740 -0.8068 -0.1398
vn -0.1418 -0.8009 -0.5818
vn 0.5801 -0.8021 -0.1420
vn -0.0037 -0.9999 -0.0150
vn -0.1962 -0.7831 -0.5902
vn 0.5734 -0.8088 -0.1310
vn 0.1391 -0.8111 0.5682
vn -0.5724 -0.8079 0.1401
vn -0.9712 0.0121 0.2378
vn 0.0000 -1.0000 0.0000
vn -0.9713 0.0000 0.2378
vn -0.2378 0.0000 -0.9713
vn 0.9716 0.0000 -0.2367
vn -0.2368 0.0000 -0.9716
vn 0.9713 0.0000 -0.2378
vn 0.2378 0.0000 0.9713
usemtl None
s off
f 8//1 4//1 2//1
f 8//2 7//2 3//2 4//2
f 7//3 13//3 6//3 3//3
f 13//4 12//4 11//4 9//4 5//4 6//4
f 12//5 16//5 15//5 11//5
f 15//6 10//6 9//6 11//6
f 15//7 14//7 10//7
f 14//8 1//8 5//8 9//8 10//8
f 1//9 2//9 4//9 3//9 6//9 5//9
f 16//10 15//10 14//10
f 17//11 18//11 19//11 20//11 21//11 22//11 23//11 24//11
f 1//12 17//12 18//12 2//12
f 2//13 18//13 19//13 8//13
f 8//14 19//14 20//14 7//14
f 7//15 20//15 21//15 13//15
f 13//16 21//16 22//16 12//16
f 12//13 22//13 23//13 16//13
f 16//16 23//16 24//16 14//16
f 14//17 24//17 17//17 1//17
