# Blender v2.92.0 OBJ File: ''
# www.blender.org
mtllib BK39_500_012032_0042_roof.mtl
o BK39_500_012032_0042_roof
v 285.969604 75.000000 -114.113640
v 238.464264 144.885025 -64.846474
v 188.341553 75.000000 -12.868678
v 111.570511 75.000000 -282.550323
v 13.781713 75.000000 -181.138916
v 63.985100 145.000000 -233.203934
v 285.969604 0.000000 -114.113640
v 188.341553 0.000000 -12.868678
v 13.781713 0.000000 -181.138916
v 111.570511 0.000000 -282.550323
vt 0.794880 0.780180
vt 0.213280 0.209480
vt 0.045939 0.385970
vt 0.627810 0.956380
vt 0.953230 0.613170
vt 0.371900 0.042202
vn -0.4827 0.7186 0.5007
vn 0.4963 0.6997 -0.5139
vn 0.7198 -0.0000 0.6941
vn -0.7198 -0.0000 -0.6941
usemtl None
s off
f 2/1/1 6/2/1 5/3/1 3/4/1
f 2/1/2 1/5/2 4/6/2 6/2/2
f 1/5/3 2/1/3 3/4/3
f 5/3/4 6/2/4 4/6/4
