# Blender v2.92.0 OBJ File: ''
# www.blender.org
mtllib BK39_500_016031_0018.mtl
o BK39_500_016031_0018
v 302.423828 75.000000 -67.157806
v 206.871780 144.976364 -43.453094
v 117.370483 75.000000 -21.249697
v 199.922989 75.000000 -480.592285
v 104.338615 145.000000 -456.879761
v 14.807152 75.000000 -434.668640
v 302.423828 0.000000 -67.157806
v 117.370483 0.000000 -21.249697
v 14.807152 0.000000 -434.668640
v 199.922989 0.000000 -480.592285
vn 0.5867 -0.7966 -0.1456
vn -0.5623 -0.8151 0.1394
vn 0.2408 -0.0000 0.9706
vn -0.2408 -0.0000 -0.9706
vn 0.0000 -1.0000 0.0000
vn 0.9706 0.0000 -0.2408
vn -0.9706 0.0000 0.2406
usemtl None
s off
f 3//1 6//1 5//1 2//1
f 5//2 4//2 1//2 2//2
f 1//3 2//3 3//3
f 6//4 5//4 4//4
f 7//5 8//5 9//5 10//5
f 1//4 7//4 8//4 3//4
f 3//6 8//6 9//6 6//6
f 6//3 9//3 10//3 4//3
f 4//7 10//7 7//7 1//7
