# Blender v2.92.0 OBJ File: ''
# www.blender.org
mtllib BK39_500_018027_0058.mtl
o BK39_500_018027_0058
v 53.937756 75.000000 -71.251373
v 16.046072 75.000000 -247.936432
v 125.911407 144.997726 -177.026825
v 213.370392 75.000000 -105.435410
v 232.930756 75.000000 -14.189503
v 215.946503 145.000000 -196.334229
v 255.638580 118.847115 -171.090027
v 275.262329 118.868942 -79.679222
v 284.200134 75.000000 -305.449341
v 341.798370 75.000000 -37.537205
v 53.937756 0.000000 -71.251373
v 16.046072 0.000000 -247.936432
v 284.200134 0.000000 -305.449341
v 341.798370 0.000000 -37.537205
v 232.930756 0.000000 -14.189503
v 213.370392 0.000000 -105.435410
vn -0.1305 -0.7826 -0.6086
vn 0.6089 -0.7824 -0.1305
vn 0.1302 0.7838 0.6073
vn 0.5898 -0.7976 -0.1265
vn -0.1267 0.7970 -0.5905
vn 0.6016 0.7882 -0.1293
vn 0.0000 -1.0000 0.0000
vn 0.9778 0.0000 -0.2097
vn 0.2097 0.0000 0.9778
vn -0.9777 0.0000 0.2102
vn -0.2097 0.0000 -0.9778
vn 0.9778 0.0000 -0.2096
vn -0.2096 0.0000 -0.9778
usemtl None
s off
f 5//1 8//1 10//1
f 4//2 7//2 8//2 5//2
f 1//3 4//3 7//3 6//3 3//3
f 2//4 3//4 1//4
f 6//5 9//5 2//5 3//5
f 10//6 9//6 6//6 7//6 8//6
f 11//7 12//7 13//7 14//7 15//7 16//7
f 1//8 11//8 12//8 2//8
f 2//9 12//9 13//9 9//9
f 9//10 13//10 14//10 10//10
f 10//11 14//11 15//11 5//11
f 5//12 15//12 16//12 4//12
f 4//13 16//13 11//13 1//13
