# Blender v2.92.0 OBJ File: ''
# www.blender.org
mtllib BK39_500_018025_0036_roof.mtl
o BK39_500_018025_0036_roof
v 120.049683 75.000000 -99.058914
v 22.749754 75.000000 -250.148026
v 100.832802 145.000000 -196.897003
v 156.822159 75.000000 -122.738663
v 221.706161 75.000000 -22.112717
v 268.643738 141.824036 -100.856331
v 178.068680 142.267395 -242.330887
v 299.299286 75.000000 -214.487305
v 363.507874 75.000000 -113.434746
v 371.873535 144.958893 -371.369873
v 456.791199 75.000000 -315.904785
v 359.562225 75.000000 -466.883575
v 120.049683 0.000000 -99.058914
v 22.749754 0.000000 -250.148026
v 359.562225 0.000000 -466.883575
v 456.791199 0.000000 -315.904785
v 299.299286 0.000000 -214.487305
v 363.507874 0.000000 -113.434746
v 221.706161 0.000000 -22.112717
v 156.822159 0.000000 -122.738663
vt 0.461890 0.954690
vt 0.559670 0.793330
vt 0.757310 0.767550
vt 0.326710 0.748490
vt 0.370980 0.503420
vt 0.623540 0.560480
vt 0.250100 0.797010
vt 0.210070 0.596520
vt 0.774740 0.239000
vt 0.951650 0.352650
vt 0.749090 0.043271
vt 0.047395 0.487400
vn -0.4622 -0.5210 -0.7176
vn 0.5305 -0.7756 -0.3420
vn -0.5148 -0.7924 0.3271
vn -0.3263 -0.7979 -0.5068
vn 0.7237 0.5089 -0.4661
vn -0.3391 0.7792 -0.5270
vn -0.7441 0.4655 0.4792
usemtl None
s off
f 5/1/1 6/2/1 9/3/1
f 5/1/2 4/4/2 7/5/2 6/2/2
f 7/5/3 8/6/3 9/3/3 6/2/3
f 1/7/4 3/8/4 10/9/4 11/10/4 8/6/4 7/5/4 4/4/4
f 11/10/5 12/11/5 10/9/5
f 12/11/6 2/12/6 3/8/6 10/9/6
f 2/12/7 1/7/7 3/8/7
