# Blender v2.92.0 OBJ File: ''
# www.blender.org
mtllib BK39_500_017026_0022.mtl
o BK39_500_017026_0022
v 136.619202 75.000000 -468.070129
v 19.740658 75.000000 -377.008057
v 122.222099 127.049034 -363.977722
v 210.245377 75.000000 -373.587982
v 241.481628 75.000000 -397.924377
v 93.302223 75.000000 -282.476654
v 65.938927 75.000000 -261.157715
v 196.429352 127.077797 -268.682159
v 184.643066 133.674957 -247.573639
v 197.769394 133.685760 -257.780945
v 221.039627 144.998367 -255.461060
v 251.638931 145.000000 -216.182983
v 249.772964 137.245453 -199.691132
v 170.554749 75.000000 -126.882889
v 181.670959 75.000000 -135.509979
v 285.647705 137.285309 -153.733719
v 382.079773 75.000000 -182.802719
v 398.845032 75.000000 -195.948883
v 343.081299 110.286842 -146.348953
v 350.443390 110.309891 -136.881378
v 270.333435 75.000000 -21.688932
v 335.649017 75.000000 -72.508659
v 343.051361 75.000000 -62.934528
v 425.560944 75.000000 -127.219246
v 136.619202 0.000000 -468.070129
v 19.740658 0.000000 -377.008057
v 93.302223 0.000000 -282.476654
v 65.938927 0.000000 -261.157715
v 170.554749 0.000000 -126.882889
v 181.670959 0.000000 -135.509979
v 270.333435 0.000000 -21.688932
v 335.649017 0.000000 -72.508659
v 343.051361 0.000000 -62.934528
v 425.560944 0.000000 -127.219246
v 382.079773 0.000000 -182.802719
v 398.845032 0.000000 -195.948883
v 241.481628 0.000000 -397.924377
v 210.245377 0.000000 -373.587982
vn -0.3372 -0.8358 -0.4333
vn 0.4499 -0.8226 -0.3478
vn -0.3373 -0.8360 -0.4329
vn -0.4355 -0.8332 0.3407
vn -0.3384 -0.8363 -0.4315
vn -0.4414 -0.8288 0.3439
vn 0.3529 -0.8187 0.4529
vn 0.4484 0.8227 -0.3494
vn 0.3559 -0.8152 0.4569
vn 0.4587 -0.8138 -0.3569
vn -0.4471 0.8239 0.3483
vn -0.3436 -0.8282 -0.4427
vn 0.4383 -0.8315 -0.3414
vn 0.0000 1.0000 0.0000
vn -0.6146 0.0000 -0.7888
vn -0.7892 0.0000 0.6141
vn -0.7888 0.0000 0.6146
vn 0.6131 0.0000 0.7900
vn -0.7889 0.0000 0.6145
vn 0.6141 0.0000 0.7892
vn -0.7911 0.0000 0.6117
vn 0.6146 0.0000 0.7888
vn 0.7876 0.0000 -0.6161
vn 0.6171 0.0000 0.7869
vn 0.7888 0.0000 -0.6146
vn 0.7888 0.0000 -0.6147
usemtl None
s off
f 21//1 16//1 19//1 22//1
f 22//2 19//2 20//2 23//2
f 23//3 20//3 24//3
f 24//4 20//4 19//4 16//4 13//4 17//4
f 17//5 13//5 12//5 18//5
f 18//6 12//6 11//6 5//6
f 5//7 11//7 10//7 9//7 7//7 6//7 8//7 4//7
f 8//8 4//8 1//8 3//8
f 3//9 2//9 1//9
f 2//10 3//10 8//10 6//10
f 14//11 9//11 7//11
f 14//12 9//12 10//12 15//12
f 15//13 10//13 11//13 12//13 13//13 16//13 21//13
f 25//14 26//14 27//14 28//14 29//14 30//14 31//14 32//14 33//14 34//14 35//14 36//14 37//14 38//14
f 1//15 25//15 26//15 2//15
f 2//16 26//16 27//16 6//16
f 6//15 27//15 28//15 7//15
f 7//17 28//17 29//17 14//17
f 14//18 29//18 30//18 15//18
f 15//19 30//19 31//19 21//19
f 21//20 31//20 32//20 22//20
f 22//21 32//21 33//21 23//21
f 23//22 33//22 34//22 24//22
f 24//23 34//23 35//23 17//23
f 17//24 35//24 36//24 18//24
f 18//25 36//25 37//25 5//25
f 5//15 37//15 38//15 4//15
f 4//26 38//26 25//26 1//26
