# Blender v2.92.0 OBJ File: ''
# www.blender.org
mtllib BK39_500_018029_0023_roof.mtl
o BK39_500_018029_0023_roof
v 15.470365 75.000000 -175.182068
v 58.588234 75.000000 -14.745784
v 116.858711 145.000000 -116.282730
v 180.480286 75.000000 -219.529678
v 163.443436 75.000000 -282.878113
v 228.791000 144.994781 -146.371765
v 246.692444 122.215111 -179.217575
v 229.192383 122.229095 -244.349335
v 266.789459 75.000000 -310.652740
v 326.858978 75.000000 -86.876167
v 15.470365 0.000000 -175.182068
v 58.588234 0.000000 -14.745784
v 326.858978 0.000000 -86.876167
v 266.789459 0.000000 -310.652740
v 163.443436 0.000000 -282.878113
v 180.480286 0.000000 -219.529678
vt 0.045235 0.460980
vt 0.527720 0.324520
vt 0.721320 0.448560
vt 0.668980 0.549630
vt 0.341690 0.642210
vt 0.477900 0.129610
vt 0.670150 0.248160
vt 0.780090 0.044145
vt 0.955730 0.732690
vt 0.171310 0.954630
vn 0.1671 -0.7652 0.6218
vn 0.6392 -0.7496 -0.1719
vn 0.1704 -0.7544 0.6340
vn 0.6392 0.7497 -0.1716
vn 0.1675 0.7641 0.6229
vn -0.6242 0.7630 0.1678
usemtl None
s off
f 1/1/1 4/2/1 7/3/1 6/4/1 3/5/1
f 5/6/2 8/7/2 7/3/2 4/2/2
f 5/6/3 9/8/3 8/7/3
f 10/9/4 9/8/4 8/7/4 7/3/4 6/4/4
f 2/10/5 10/9/5 6/4/5 3/5/5
f 1/1/6 2/10/6 3/5/6
