# Blender v2.92.0 OBJ File: ''
# www.blender.org
mtllib BK39_500_014027_0082.mtl
o BK39_500_014027_0082
v 651.057983 75.000000 -453.206970
v 47.428493 75.000000 -297.420166
v 577.449158 135.214294 -326.682251
v 423.052856 135.271927 -286.732239
v 411.506012 144.853882 -266.641235
v 193.130325 145.000000 -210.021149
v 33.972511 75.000000 -167.640045
v 77.981911 75.000000 -178.997040
v 179.342422 133.722519 -186.560669
v 47.982731 75.000000 -113.349129
v 91.989265 75.000000 -124.705376
v 190.768082 133.759476 -142.527512
v 690.943298 75.000000 -252.474487
v 702.111023 75.000000 -255.371292
v 606.201660 75.000000 -230.493149
v 549.395569 75.000000 -215.758087
v 640.129639 75.000000 -225.381363
v 609.556763 75.000000 -217.491776
v 558.614807 75.000000 -181.884094
v 390.732208 75.000000 -138.157852
v 483.380585 75.000000 -162.288788
v 304.371979 75.000000 -115.664719
v 646.524048 75.000000 -200.602493
v 700.720276 75.000000 -214.588272
v 490.641205 75.000000 -134.154282
v 397.938507 75.000000 -110.231583
v 118.706223 75.000000 -21.152115
v 315.767120 75.000000 -72.005394
v 651.057983 0.000000 -453.206970
v 47.428493 0.000000 -297.420166
v 77.981911 0.000000 -178.997040
v 33.972511 0.000000 -167.640045
v 47.982731 0.000000 -113.349129
v 91.989265 0.000000 -124.705376
v 118.706223 0.000000 -21.152115
v 315.767120 0.000000 -72.005394
v 304.371979 0.000000 -115.664719
v 390.732208 0.000000 -138.157852
v 397.938507 0.000000 -110.231583
v 490.641205 0.000000 -134.154282
v 483.380585 0.000000 -162.288788
v 558.614807 0.000000 -181.884094
v 549.395569 0.000000 -215.758087
v 606.201660 0.000000 -230.493149
v 609.556763 0.000000 -217.491776
v 640.129639 0.000000 -225.381363
v 646.524048 0.000000 -200.602493
v 700.720276 0.000000 -214.588272
v 690.943298 0.000000 -252.474487
v 702.111023 0.000000 -255.371292
vn 0.0000 1.0000 0.0000
vn -0.1270 -0.8611 -0.4923
vn 0.4902 -0.8624 -0.1265
vn 0.1251 -0.8657 0.4848
vn -0.4891 -0.8631 0.1262
vn -0.1292 -0.8574 -0.4981
vn 0.0000 -1.0000 -0.0000
vn -0.4864 -0.8637 0.1324
vn -0.1275 -0.8626 -0.4896
vn -0.4790 -0.8689 0.1250
vn -0.2499 0.0000 -0.9683
vn -0.9683 0.0000 0.2498
vn -0.9683 0.0000 0.2499
vn 0.2499 0.0000 0.9683
vn 0.9676 0.0000 -0.2525
vn 0.2520 0.0000 0.9677
vn 0.9683 0.0000 -0.2499
vn 0.9649 0.0000 -0.2626
vn 0.2511 0.0000 0.9680
usemtl None
s off
f 8//1 7//1 10//1 11//1
f 27//2 12//2 28//2
f 27//3 11//3 8//3 2//3 6//3 9//3 12//3
f 2//4 1//4 3//4 4//4 5//4 6//4
f 1//5 14//5 3//5
f 14//6 13//6 15//6 16//6 4//6 3//6
f 13//7 24//7 23//7 17//7 18//7 15//7
f 16//8 19//8 5//8 4//8
f 19//9 21//9 20//9 22//9 9//9 6//9 5//9
f 21//7 25//7 26//7 20//7
f 22//10 28//10 12//10 9//10
f 29//1 30//1 31//1 32//1 33//1 34//1 35//1 36//1 37//1 38//1 39//1 40//1 41//1 42//1 43//1 44//1 45//1 46//1 47//1 48//1 49//1 50//1
f 1//11 29//11 30//11 2//11
f 2//12 30//12 31//12 8//12
f 8//11 31//11 32//11 7//11
f 7//13 32//13 33//13 10//13
f 10//14 33//14 34//14 11//14
f 11//12 34//12 35//12 27//12
f 27//14 35//14 36//14 28//14
f 28//15 36//15 37//15 22//15
f 22//16 37//16 38//16 20//16
f 20//13 38//13 39//13 26//13
f 26//14 39//14 40//14 25//14
f 25//17 40//17 41//17 21//17
f 21//16 41//16 42//16 19//16
f 19//18 42//18 43//18 16//18
f 16//19 43//19 44//19 15//19
f 15//13 44//13 45//13 18//13
f 18//14 45//14 46//14 17//14
f 17//13 46//13 47//13 23//13
f 23//14 47//14 48//14 24//14
f 24//17 48//17 49//17 13//17
f 13//19 49//19 50//19 14//19
f 14//17 50//17 29//17 1//17
