# Blender v2.92.0 OBJ File: ''
# www.blender.org
mtllib BK39_500_015029_0012.mtl
o BK39_500_015029_0012
v 258.463531 75.000000 -563.237488
v 401.466583 75.000000 -99.086975
v 348.435425 75.000000 -271.101807
v 313.453308 75.000000 -384.869812
v 301.368469 75.000000 -381.144104
v 336.434692 75.000000 -267.401489
v 289.021484 145.008484 -159.922989
v 197.238312 144.999237 -452.733154
v 172.484467 75.000000 -341.409637
v 207.552261 75.000000 -227.661926
v 141.886810 145.000000 -435.669617
v 218.993820 144.991516 -138.353180
v 75.135124 75.000000 -311.397186
v 20.142773 75.000000 -489.773193
v 108.785416 75.000000 -197.208191
v 161.772720 75.000000 -25.336071
v 258.463531 0.000000 -563.237488
v 313.453308 0.000000 -384.869812
v 301.368469 0.000000 -381.144104
v 336.434692 0.000000 -267.401489
v 348.435425 0.000000 -271.101807
v 401.466583 0.000000 -99.086975
v 161.772720 0.000000 -25.336071
v 108.785416 0.000000 -197.208191
v 207.552261 0.000000 -227.661926
v 172.484467 0.000000 -341.409637
v 75.135124 0.000000 -311.397186
v 20.142773 0.000000 -489.773193
vn 0.1700 0.8168 0.5514
vn -0.5465 0.8203 0.1685
vn 0.1839 -0.7811 0.5967
vn -0.5824 -0.7928 0.1795
vn 0.0000 1.0000 -0.0000
vn -0.1825 0.7851 -0.5919
vn 0.5886 0.7878 -0.1815
vn 0.1791 0.7933 0.5819
vn 0.5949 -0.7826 -0.1834
vn 0.0000 -1.0000 0.0000
vn -0.9556 0.0000 0.2946
vn -0.2946 0.0000 -0.9556
vn 0.2947 0.0000 0.9556
vn -0.2941 0.0000 -0.9558
vn 0.9556 0.0000 -0.2946
vn 0.2946 0.0000 0.9556
usemtl None
s off
f 13//1 9//1 5//1 4//1 8//1 11//1
f 14//2 13//2 11//2
f 14//3 1//3 8//3 11//3
f 1//4 4//4 8//4
f 9//5 10//5 6//5 5//5
f 15//6 12//6 7//6 3//6 6//6 10//6
f 7//7 2//7 3//7
f 16//8 2//8 7//8 12//8
f 16//9 15//9 12//9
f 17//10 18//10 19//10 20//10 21//10 22//10 23//10 24//10 25//10 26//10 27//10 28//10
f 1//11 17//11 18//11 4//11
f 4//12 18//12 19//12 5//12
f 5//11 19//11 20//11 6//11
f 6//13 20//13 21//13 3//13
f 3//11 21//11 22//11 2//11
f 2//14 22//14 23//14 16//14
f 16//15 23//15 24//15 15//15
f 15//13 24//13 25//13 10//13
f 10//15 25//15 26//15 9//15
f 9//12 26//12 27//12 13//12
f 13//15 27//15 28//15 14//15
f 14//16 28//16 17//16 1//16
