# Blender v2.92.0 OBJ File: ''
# www.blender.org
mtllib BK39_500_018031_0031.mtl
o BK39_500_018031_0031
v 231.305252 75.000000 -20.069817
v 292.462402 117.120567 -34.578239
v 355.975403 75.000000 -49.653534
v 345.048645 75.000000 -97.161942
v 386.645081 75.000000 -107.123253
v 376.171051 75.000000 -151.879913
v 433.316071 75.000000 -165.838699
v 206.454895 75.000000 -124.881271
v 187.772583 75.000000 -120.309357
v 266.960815 117.368645 -143.741089
v 282.435455 131.365936 -169.013123
v 59.900860 75.000000 -138.717972
v 176.972717 75.000000 -166.171509
v 271.436005 131.411850 -215.702667
v 410.260468 75.000000 -261.051666
v 485.365234 75.000000 -278.891663
v 286.307800 145.000000 -240.871078
v 303.620392 144.962128 -245.039978
v 260.159851 141.061295 -240.885315
v 279.112396 141.016754 -245.453995
v 42.164230 125.668076 -213.455307
v 232.808426 125.840950 -258.430878
v 414.989655 112.919930 -322.076813
v 339.892914 112.924423 -304.245850
v 24.191059 75.000000 -289.208893
v 458.459717 75.000000 -392.280701
v 231.305252 0.000000 -20.069817
v 355.975403 0.000000 -49.653534
v 345.048645 0.000000 -97.161942
v 386.645081 0.000000 -107.123253
v 376.171051 0.000000 -151.879913
v 433.316071 0.000000 -165.838699
v 410.260468 0.000000 -261.051666
v 485.365234 0.000000 -278.891663
v 458.459717 0.000000 -392.280701
v 24.191059 0.000000 -289.208893
v 59.900860 0.000000 -138.717972
v 176.972717 0.000000 -166.171509
v 187.772583 0.000000 -120.309357
v 206.454895 0.000000 -124.881271
vn 0.1257 0.8348 0.5361
vn -0.5437 0.8295 0.1280
vn 0.1311 0.8342 0.5357
vn -0.5417 0.8307 0.1284
vn 0.5284 0.8403 -0.1215
vn -0.1293 -0.8318 -0.5399
vn -0.5279 -0.8403 0.1235
vn 0.1293 0.8386 0.5291
vn -0.5304 -0.8379 0.1284
vn -0.1260 -0.8382 -0.5306
vn -0.5292 -0.8391 0.1256
vn -0.1260 0.8381 -0.5307
vn -0.2309 0.0001 -0.9730
vn 0.9730 0.0000 -0.2309
vn 0.0000 1.0000 0.0000
vn 0.2309 0.0000 0.9730
vn 0.9746 0.0000 -0.2241
vn 0.2329 0.0000 0.9725
vn 0.9737 0.0000 -0.2279
vn 0.2373 0.0000 0.9714
vn 0.9719 0.0000 -0.2353
vn 0.2311 0.0000 0.9729
vn -0.2309 0.0000 -0.9730
vn -0.9730 0.0000 0.2309
vn 0.2283 0.0000 0.9736
vn -0.9734 0.0000 0.2292
vn 0.2377 0.0000 0.9713
vn -0.9730 0.0000 0.2307
usemtl None
s off
f 21//1 12//1 13//1 22//1
f 13//2 9//2 19//2 22//2
f 9//3 8//3 20//3 19//3
f 8//4 1//4 2//4 10//4 11//4 14//4 17//4 20//4
f 2//5 3//5 4//5 10//5
f 10//6 11//6 5//6 4//6
f 14//7 6//7 5//7 11//7
f 6//8 7//8 18//8 17//8 14//8
f 18//9 24//9 15//9 7//9
f 24//10 23//10 16//10 15//10
f 23//11 26//11 16//11
f 25//12 21//12 22//12 19//12 20//12 17//12 18//12 24//12 23//12 26//12
f 1//13 2//13 3//13
f 25//14 21//14 12//14
f 27//15 28//15 29//15 30//15 31//15 32//15 33//15 34//15 35//15 36//15 37//15 38//15 39//15 40//15
f 1//16 27//16 28//16 3//16
f 3//17 28//17 29//17 4//17
f 4//18 29//18 30//18 5//18
f 5//19 30//19 31//19 6//19
f 6//20 31//20 32//20 7//20
f 7//21 32//21 33//21 15//21
f 15//22 33//22 34//22 16//22
f 16//14 34//14 35//14 26//14
f 26//23 35//23 36//23 25//23
f 25//24 36//24 37//24 12//24
f 12//25 37//25 38//25 13//25
f 13//26 38//26 39//26 9//26
f 9//27 39//27 40//27 8//27
f 8//28 40//28 27//28 1//28
