# Blender v2.92.0 OBJ File: ''
# www.blender.org
mtllib CG10_500_042071_0018.mtl
o CG10_500_042071_0018
v 112.116676 75.000000 -343.041748
v 13.561124 75.000000 -110.443977
v 117.627365 127.780540 -190.851059
v 145.892014 127.775177 -257.574341
v 128.747772 144.998138 -163.207153
v 235.715042 75.000000 -290.691559
v 207.150497 75.000000 -223.241959
v 186.698181 145.000000 -138.661957
v 304.524963 75.000000 -182.002655
v 234.564499 75.000000 -16.826572
v 112.116676 0.000000 -343.041748
v 13.561124 0.000000 -110.443977
v 234.564499 0.000000 -16.826572
v 304.524963 0.000000 -182.002655
v 207.150497 0.000000 -223.241959
v 235.715042 0.000000 -290.691559
vn -0.2337 0.8006 0.5518
vn 0.5591 0.7945 0.2368
vn -0.2464 -0.7751 0.5819
vn -0.5554 -0.7976 -0.2352
vn -0.2446 -0.7788 0.5776
vn 0.5834 -0.7737 0.2472
vn 0.0000 1.0000 0.0000
vn -0.9208 0.0000 -0.3901
vn -0.3900 0.0000 0.9208
vn 0.9208 0.0000 0.3900
vn 0.3900 0.0000 -0.9208
usemtl None
s off
f 2//1 10//1 8//1 5//1
f 10//2 9//2 8//2
f 9//3 8//3 5//3 3//3 7//3
f 7//4 3//4 4//4 6//4
f 6//5 4//5 1//5
f 1//6 4//6 3//6 5//6 2//6
f 11//7 12//7 13//7 14//7 15//7 16//7
f 1//8 11//8 12//8 2//8
f 2//9 12//9 13//9 10//9
f 10//10 13//10 14//10 9//10
f 9//11 14//11 15//11 7//11
f 7//10 15//10 16//10 6//10
f 6//11 16//11 11//11 1//11
