# Blender v2.92.0 OBJ File: ''
# www.blender.org
mtllib CG10_500_035062_0021_roof.mtl
o CG10_500_035062_0021_roof
v 22.178257 75.000000 -282.732697
v 173.096207 75.000000 -274.846161
v 101.908989 144.947357 -278.566498
v 8.524475 75.000000 -21.757160
v 159.556030 75.000000 -13.864735
v 88.315186 145.000000 -17.587263
v 22.178257 0.000000 -282.732697
v 173.096207 0.000000 -274.846161
v 159.556030 0.000000 -13.864735
v 8.524475 0.000000 -21.757160
vt 0.047097 0.926500
vt 0.122530 0.044822
vt 0.563030 0.058897
vt 0.487930 0.940580
vt 0.956330 0.071466
vt 0.881520 0.953160
vn 0.6581 -0.7522 0.0344
vn -0.6994 -0.7138 -0.0363
vn 0.0522 -0.0000 -0.9986
vn -0.0522 -0.0000 0.9986
usemtl None
s off
f 4/1/1 1/2/1 3/3/1 6/4/1
f 6/4/2 3/3/2 2/5/2 5/6/2
f 1/2/3 3/3/3 2/5/3
f 5/6/4 6/4/4 4/1/4
