# Blender v2.92.0 OBJ File: ''
# www.blender.org
mtllib CG10_500_049066_0031.mtl
o CG10_500_049066_0031
v 347.013458 75.000000 -209.287689
v 27.582209 75.000000 -231.186691
v 259.887360 130.842545 -139.264404
v 171.048538 131.079666 -145.032150
v 104.916939 145.000000 -130.621628
v 149.623718 144.972153 -127.594612
v 68.086563 116.328712 -96.394051
v 336.811279 75.000000 -60.238430
v 248.380798 75.000000 -65.665573
v 246.297470 75.000000 -31.579573
v 127.428833 75.000000 -39.533188
v 124.588570 75.000000 -9.522294
v 61.498516 115.544601 -13.808138
v 12.952773 75.000000 -17.150791
v 347.013458 0.000000 -209.287689
v 27.582209 0.000000 -231.186691
v 12.952773 0.000000 -17.150791
v 124.588570 0.000000 -9.522294
v 127.428833 0.000000 -39.533188
v 246.297470 0.000000 -31.579573
v 248.380798 0.000000 -65.665573
v 336.811279 0.000000 -60.238430
vn 0.5375 0.8417 0.0509
vn 0.0412 -0.7873 -0.6152
vn -0.5633 -0.8255 -0.0344
vn -0.0368 0.7989 0.6004
vn 0.5609 0.8270 0.0384
vn 0.0406 0.8052 -0.5916
vn -0.6386 0.7683 -0.0437
vn 0.0682 0.0006 -0.9977
vn 0.0000 1.0000 0.0000
vn 0.0684 0.0000 -0.9977
vn -0.9977 0.0000 -0.0682
vn -0.0682 0.0000 0.9977
vn 0.9956 0.0000 0.0942
vn -0.0668 0.0000 0.9978
vn 0.9981 0.0000 0.0610
vn -0.0613 0.0000 0.9981
vn 0.9977 0.0000 0.0683
usemtl None
s off
f 13//1 12//1 11//1 7//1
f 7//2 5//2 6//2 10//2 11//2
f 6//3 4//3 9//3 10//3
f 9//4 8//4 3//4 4//4
f 8//5 1//5 3//5
f 1//6 2//6 5//6 6//6 4//6 3//6
f 2//7 14//7 13//7 7//7 5//7
f 14//8 13//8 12//8
f 15//9 16//9 17//9 18//9 19//9 20//9 21//9 22//9
f 1//10 15//10 16//10 2//10
f 2//11 16//11 17//11 14//11
f 14//12 17//12 18//12 12//12
f 12//13 18//13 19//13 11//13
f 11//14 19//14 20//14 10//14
f 10//15 20//15 21//15 9//15
f 9//16 21//16 22//16 8//16
f 8//17 22//17 15//17 1//17
