# Blender v2.92.0 OBJ File: ''
# www.blender.org
mtllib CG10_500_044069_0024.mtl
o CG10_500_044069_0024
v 116.298981 75.000000 -323.676300
v 417.339935 75.000000 -199.334473
v 290.931610 144.999908 -142.477646
v 174.727585 145.000000 -190.474380
v 118.950035 115.969810 -169.365784
v 97.630463 115.971840 -117.759171
v 341.293274 75.000000 -15.226117
v 146.483673 75.000000 -95.689743
v 125.831100 75.000000 -45.690945
v 19.575085 75.000000 -89.580414
v 116.298981 0.000000 -323.676300
v 417.339935 0.000000 -199.334473
v 341.293274 0.000000 -15.226117
v 146.483673 0.000000 -95.689743
v 125.831100 0.000000 -45.690945
v 19.575085 0.000000 -89.580414
vn 0.5478 0.8054 0.2263
vn -0.2213 0.8148 0.5358
vn 0.5614 0.7944 0.2319
vn -0.2177 -0.8214 0.5272
vn -0.2258 0.8063 0.5467
vn 0.5131 -0.8317 0.2120
vn 0.0000 -1.0000 0.0000
vn -0.3818 0.0000 0.9243
vn -0.9243 0.0000 -0.3818
vn 0.3818 0.0000 -0.9243
vn 0.9242 0.0000 0.3819
usemtl None
s off
f 7//1 2//1 3//1
f 8//2 7//2 3//2 4//2 5//2
f 9//3 8//3 5//3 6//3
f 1//4 2//4 3//4 4//4
f 10//5 9//5 6//5
f 10//6 1//6 4//6 5//6 6//6
f 11//7 12//7 13//7 14//7 15//7 16//7
f 1//8 11//8 12//8 2//8
f 2//9 12//9 13//9 7//9
f 7//10 13//10 14//10 8//10
f 8//9 14//9 15//9 9//9
f 9//10 15//10 16//10 10//10
f 10//11 16//11 11//11 1//11
