# Blender v2.92.0 OBJ File: ''
# www.blender.org
mtllib CG10_500_035062_0008.mtl
o CG10_500_035062_0008
v 184.785355 75.000000 -15.128630
v 202.342941 75.000000 -307.046478
v 116.243637 145.000000 -219.757874
v 109.141426 144.997345 -101.623489
v 27.801657 75.000000 -317.535614
v 10.260386 75.000000 -25.616768
v 184.785355 0.000000 -15.128630
v 202.342941 0.000000 -307.046478
v 27.801657 0.000000 -317.535614
v 10.260386 0.000000 -25.616768
vn 0.0390 -0.7598 -0.6490
vn 0.5956 -0.8025 0.0358
vn -0.0362 -0.7968 0.6032
vn -0.6541 -0.7554 -0.0393
vn 0.0000 1.0000 0.0000
vn 0.9982 0.0000 0.0600
vn 0.0600 0.0000 -0.9982
vn -0.9982 0.0000 -0.0600
vn -0.0600 0.0000 0.9982
usemtl None
s off
f 6//1 4//1 1//1
f 6//2 5//2 3//2 4//2
f 5//3 2//3 3//3
f 2//4 1//4 4//4 3//4
f 7//5 8//5 9//5 10//5
f 1//6 7//6 8//6 2//6
f 2//7 8//7 9//7 5//7
f 5//8 9//8 10//8 6//8
f 6//9 10//9 7//9 1//9
