# Blender v2.92.0 OBJ File: ''
# www.blender.org
mtllib CG10_500_045070_0014_roof.mtl
o CG10_500_045070_0014_roof
v 15.397303 75.000000 -53.251431
v 106.149338 75.000000 -15.462745
v 123.069336 75.000000 -55.530254
v 192.994675 75.000000 -26.555325
v 77.970268 116.258553 -82.746429
v 94.655914 116.348999 -122.552742
v 138.035355 145.000000 -142.859924
v 169.099152 144.995209 -217.474533
v 158.230972 125.418404 -248.681259
v 161.759460 124.298248 -260.434052
v 244.746292 75.000000 -280.414062
v 290.558441 75.000000 -260.954803
v 134.766617 75.000000 -339.920288
v 246.629990 75.000000 -293.369232
v 15.397303 0.000000 -53.251431
v 106.149338 0.000000 -15.462745
v 123.069336 0.000000 -55.530254
v 192.994675 0.000000 -26.555325
v 290.558441 0.000000 -260.954803
v 244.746292 0.000000 -280.414062
v 246.629990 0.000000 -293.369232
v 134.766617 0.000000 -339.920288
vt 0.403510 0.843580
vt 0.632770 0.925200
vt 0.452570 0.597580
vt 0.310350 0.654780
vt 0.952650 0.264920
vt 0.554420 0.387400
vt 0.518790 0.299490
vt 0.802450 0.210100
vt 0.808620 0.173610
vt 0.530360 0.266380
vt 0.441860 0.042478
vt 0.050483 0.850000
vt 0.348030 0.956440
vt 0.255640 0.766910
vn -0.2410 0.7770 0.5815
vn 0.5460 0.8063 0.2273
vn -0.2442 -0.7809 0.5749
vn 0.5227 0.8491 0.0760
vn -0.2367 -0.7876 0.5689
vn -0.2410 0.7791 0.5787
vn 0.5717 0.7842 0.2414
vn -0.6132 0.7475 -0.2554
usemtl None
s off
f 3/1/1 4/2/1 7/3/1 6/4/1
f 4/2/2 12/5/2 8/6/2 7/3/2
f 8/6/3 9/7/3 11/8/3 12/5/3
f 11/8/4 14/9/4 10/10/4 9/7/4
f 10/10/5 13/11/5 14/9/5
f 1/12/6 2/13/6 5/14/6
f 2/13/7 3/1/7 6/4/7 5/14/7
f 1/12/8 5/14/8 6/4/8 7/3/8 8/6/8 9/7/8 10/10/8 13/11/8
