# Blender v2.92.0 OBJ File: ''
# www.blender.org
mtllib CG10_500_043073_0019_roof.mtl
o CG10_500_043073_0019_roof
v 147.956451 75.000000 -56.071297
v 244.730209 75.000000 -15.763533
v 261.159027 75.000000 -55.196686
v 306.281372 75.000000 -36.402695
v 210.435440 117.995583 -84.486473
v 168.905487 75.000000 -107.031792
v 15.967456 75.000000 -170.723724
v 230.989700 118.099686 -134.187424
v 295.508698 75.000000 -137.644333
v 340.623169 75.000000 -118.853622
v 209.187073 145.000000 -176.353622
v 116.101776 144.991394 -215.108932
v 331.781677 75.000000 -224.708298
v 254.711807 75.000000 -256.785583
v 219.499619 75.000000 -271.441284
v 81.790352 75.000000 -328.757355
v 262.293304 75.000000 -274.987915
v 227.084854 75.000000 -289.652618
v 147.956451 0.000000 -56.071297
v 244.730209 0.000000 -15.763533
v 261.159027 0.000000 -55.196686
v 306.281372 0.000000 -36.402695
v 340.623169 0.000000 -118.853622
v 295.508698 0.000000 -137.644333
v 331.781677 0.000000 -224.708298
v 254.711807 0.000000 -256.785583
v 262.293304 0.000000 -274.987915
v 227.084854 0.000000 -289.652618
v 219.499619 0.000000 -271.441284
v 81.790352 0.000000 -328.757355
v 15.967456 0.000000 -170.723724
v 168.905487 0.000000 -107.031792
vt 0.044727 0.506580
vt 0.325220 0.378300
vt 0.585960 0.490310
vt 0.647030 0.612180
vt 0.473120 0.690660
vt 0.229100 0.049834
vt 0.414440 0.837940
vt 0.589460 0.755820
vt 0.685520 0.954440
vt 0.731540 0.840470
vt 0.827760 0.602180
vt 0.929360 0.350550
vt 0.857930 0.894790
vt 0.954130 0.656490
vt 0.614840 0.215490
vt 0.713480 0.257850
vt 0.636090 0.162850
vt 0.734720 0.205240
vn 0.2541 -0.7504 -0.6101
vn 0.6282 -0.7328 0.2616
vn 0.2500 -0.7598 -0.6001
vn 0.5492 0.8038 0.2288
vn -0.6244 0.7377 -0.2567
vn 0.0000 -1.0000 -0.0000
vn -0.2331 -0.7950 0.5600
vn 0.0000 1.0000 0.0000
usemtl None
s off
f 7/1/1 12/2/1 11/3/1 8/4/1 6/5/1
f 16/6/2 12/2/2 7/1/2
f 1/7/3 5/8/3 2/9/3
f 2/9/4 3/10/4 9/11/4 13/12/4 11/3/4 8/4/4 5/8/4
f 6/5/5 1/7/5 5/8/5 8/4/5
f 4/13/6 3/10/6 9/11/6 10/14/6
f 13/12/7 11/3/7 12/2/7 16/6/7 15/15/7 14/16/7
f 18/17/8 15/15/8 14/16/8 17/18/8
