# Blender v2.92.0 OBJ File: ''
# www.blender.org
mtllib CG10_500_048067_0002_roof.mtl
o CG10_500_048067_0002_roof
v 182.346970 75.000000 -323.684174
v 258.110840 75.000000 -320.453125
v 180.749786 75.000000 -286.232208
v 119.466454 75.000000 -288.844757
v 256.513702 75.000000 -283.002350
v 264.746948 75.000000 -282.651337
v 187.344604 135.941971 -209.643524
v 19.831219 75.000000 -196.906601
v 114.701591 75.000000 -192.868423
v 182.910187 136.231659 -113.447731
v 171.774414 145.000000 -102.964478
v 100.110657 144.996048 -106.019806
v 12.567117 75.000000 -26.573566
v 253.446213 75.000000 -16.288042
v 182.346970 0.000000 -323.684174
v 258.110840 0.000000 -320.453125
v 256.513702 0.000000 -283.002350
v 264.746948 0.000000 -282.651337
v 253.446213 0.000000 -16.288042
v 12.567117 0.000000 -26.573566
v 19.831219 0.000000 -196.906601
v 114.701591 0.000000 -192.868423
v 119.466454 0.000000 -288.844757
v 180.749786 0.000000 -286.232208
vt 0.044883 0.921840
vt 0.357540 0.688180
vt 0.613480 0.697160
vt 0.905170 0.952090
vt 0.653250 0.666330
vt 0.669090 0.383400
vt 0.945520 0.168670
vt 0.426670 0.150460
vt 0.409650 0.432740
vt 0.070826 0.420860
vt 0.645530 0.158140
vt 0.916120 0.167640
vt 0.651240 0.047988
vt 0.921820 0.057491
vn 0.0275 -0.7649 -0.6436
vn -0.6339 -0.7729 -0.0269
vn 0.6467 -0.7621 0.0321
vn -0.0266 -0.7805 0.6246
vn 0.6392 -0.7685 0.0273
vn -0.0266 -0.7811 0.6238
vn 0.0000 -1.0000 0.0000
usemtl None
s off
f 13/1/1 12/2/1 11/3/1 14/4/1
f 14/4/2 11/3/2 10/5/2 7/6/2 6/7/2
f 4/8/3 7/6/3 10/5/3 9/9/3
f 9/9/4 10/5/4 11/3/4 12/2/4 8/10/4
f 8/10/5 12/2/5 13/1/5
f 6/7/6 7/6/6 4/8/6 3/11/6 5/12/6
f 3/11/7 1/13/7 2/14/7 5/12/7
