# Blender v2.92.0 OBJ File: ''
# www.blender.org
mtllib CG10_500_038070_0003.mtl
o CG10_500_038070_0003
v 228.974350 75.000000 -23.260887
v 221.171951 75.000000 -198.157150
v 196.040146 75.000000 -197.060486
v 191.551666 75.000000 -298.224792
v 132.518829 144.975189 -106.789276
v 101.452568 145.000000 -205.349167
v 105.896080 144.986313 -105.613670
v 24.662806 75.000000 -14.131845
v 12.315684 75.000000 -290.228821
v 228.974350 0.000000 -23.260887
v 221.171951 0.000000 -198.157150
v 196.040146 0.000000 -197.060486
v 191.551666 0.000000 -298.224792
v 12.315684 0.000000 -290.228821
v 24.662806 0.000000 -14.131845
vn -0.0272 0.7807 -0.6243
vn 0.5962 0.8024 -0.0265
vn 0.0278 0.7818 0.6228
vn -0.6021 -0.7979 0.0269
vn -0.6339 0.7729 0.0283
vn 0.0276 -0.7852 0.6186
vn 0.0000 1.0000 0.0000
vn 0.9990 0.0000 -0.0446
vn -0.0436 0.0000 -0.9990
vn 0.9990 0.0000 -0.0443
vn -0.0446 0.0000 -0.9990
vn -0.9990 0.0000 0.0447
vn 0.0446 0.0000 0.9990
usemtl None
s off
f 2//1 3//1 7//1 5//1
f 3//2 4//2 6//2 7//2
f 7//3 8//3 1//3 5//3
f 5//4 2//4 1//4
f 6//5 9//5 8//5 7//5
f 9//6 4//6 6//6
f 10//7 11//7 12//7 13//7 14//7 15//7
f 1//8 10//8 11//8 2//8
f 2//9 11//9 12//9 3//9
f 3//10 12//10 13//10 4//10
f 4//11 13//11 14//11 9//11
f 9//12 14//12 15//12 8//12
f 8//13 15//13 10//13 1//13
