# Blender v2.92.0 OBJ File: ''
# www.blender.org
mtllib CG10_500_043070_0048_roof.mtl
o CG10_500_043070_0048_roof
v 139.367432 75.000000 -257.486115
v 254.840134 75.000000 -205.538925
v 166.605423 145.000000 -176.512802
v 104.933296 75.000000 -180.787552
v 64.692223 75.000000 -198.191727
v 131.952759 144.966324 -99.395645
v 90.699776 144.599716 -117.602722
v 12.607896 75.000000 -82.425835
v 167.986511 75.000000 -12.453653
v 139.367432 0.000000 -257.486115
v 254.840134 0.000000 -205.538925
v 167.986511 0.000000 -12.453653
v 12.607896 0.000000 -82.425835
v 64.692223 0.000000 -198.191727
v 104.933296 0.000000 -180.787552
vt 0.047221 0.694720
vt 0.629160 0.953880
vt 0.494210 0.631870
vt 0.339700 0.564430
vt 0.242290 0.265960
vt 0.393010 0.330420
vt 0.521980 0.046348
vt 0.623990 0.346250
vt 0.954460 0.238740
vn -0.3020 0.6777 0.6705
vn 0.7066 -0.6322 0.3179
vn -0.2929 -0.6748 0.6773
vn 0.7024 -0.6381 0.3153
vn 0.6515 0.6997 0.2931
vn -0.3057 -0.6670 0.6794
usemtl None
s off
f 8/1/1 9/2/1 6/3/1 7/4/1
f 5/5/2 7/4/2 8/1/2
f 4/6/3 6/3/3 7/4/3 5/5/3
f 1/7/4 3/8/4 6/3/4 4/6/4
f 9/2/5 2/9/5 3/8/5 6/3/5
f 2/9/6 3/8/6 1/7/6
