# Blender v2.92.0 OBJ File: ''
# www.blender.org
mtllib CG10_500_038070_0040_roof.mtl
o CG10_500_038070_0040_roof
v 32.930683 75.000000 -440.254761
v 113.811714 145.000000 -435.638519
v 199.438965 75.000000 -430.741608
v 175.545059 75.000000 -20.299858
v 90.171165 144.792419 -25.172445
v 9.530516 75.000000 -29.784157
v 32.930683 0.000000 -440.254761
v 199.438965 0.000000 -430.741608
v 175.545059 0.000000 -20.299858
v 9.530516 0.000000 -29.784157
vt 0.045601 0.935810
vt 0.431440 0.945750
vt 0.544550 0.061124
vt 0.157560 0.051175
vt 0.839930 0.956250
vt 0.954250 0.071678
vn -0.6527 0.7567 -0.0372
vn 0.6312 0.7747 0.0367
vn 0.0570 -0.0001 -0.9984
vn -0.0570 -0.0001 0.9984
usemtl None
s off
f 6/1/1 5/2/1 2/3/1 1/4/1
f 5/2/2 4/5/2 3/6/2 2/3/2
f 1/4/3 2/3/3 3/6/3
f 4/5/4 5/2/4 6/1/4
