# Blender v2.92.0 OBJ File: ''
# www.blender.org
mtllib CG10_500_042066_0021_roof.mtl
o CG10_500_042066_0021_roof
v 155.412567 75.000000 -304.155273
v 24.104139 75.000000 -311.416718
v 363.547394 75.000000 -272.773193
v 157.295792 75.000000 -285.976715
v 81.801109 127.819992 -243.760071
v 85.800293 126.662453 -222.051895
v 82.057381 128.942322 -224.904892
v 186.492172 126.318832 -216.061584
v 265.805634 142.661469 -189.314713
v 205.501907 145.000000 -190.074387
v 202.251282 142.232971 -186.132141
v 16.007706 75.000000 -165.988007
v 127.145882 75.000000 -159.816269
v 199.119247 142.107269 -132.491516
v 182.597412 127.830833 -116.625465
v 353.905151 75.000000 -99.752533
v 282.902283 75.000000 -96.856079
v 180.107681 127.523369 -78.056892
v 280.037262 75.000000 -50.188461
v 247.667221 75.000000 -51.765053
v 244.825073 75.000000 -13.924090
v 119.390518 75.000000 -20.886190
v 155.412567 0.000000 -304.155273
v 24.104139 0.000000 -311.416718
v 16.007706 0.000000 -165.988007
v 127.145882 0.000000 -159.816269
v 119.390518 0.000000 -20.886190
v 244.825073 0.000000 -13.924090
v 247.667221 0.000000 -51.765053
v 280.037262 0.000000 -50.188461
v 282.902283 0.000000 -96.856079
v 353.905151 0.000000 -99.752533
v 363.547394 0.000000 -272.773193
v 157.295792 0.000000 -285.976715
vt 0.042015 0.489270
vt 0.063265 0.041795
vt 0.214700 0.249970
vt 0.215370 0.307980
vt 0.225200 0.316760
vt 0.489480 0.335200
vt 0.333720 0.508260
vt 0.697650 0.417490
vt 0.539380 0.415160
vt 0.530840 0.427290
vt 0.742530 0.701980
vt 0.928880 0.693070
vt 0.407910 0.064138
vt 0.954190 0.160700
vt 0.472720 0.759820
vt 0.479260 0.641150
vt 0.650050 0.840720
vt 0.642590 0.957160
vt 0.522620 0.592330
vt 0.735010 0.845570
vt 0.313360 0.935730
vt 0.412850 0.120070
vn 0.6513 -0.7579 0.0363
vn 0.0362 -0.7570 -0.6524
vn 0.0240 0.8089 0.5875
vn 0.0350 0.7730 -0.6334
vn -0.5876 -0.8085 -0.0327
vn -0.6021 -0.7971 -0.0452
vn 0.6149 0.7877 0.0377
vn 0.6738 -0.7380 0.0376
vn -0.0363 0.7549 0.6549
vn -0.0317 0.7592 0.6501
vn -0.0385 -0.7978 0.6017
vn 0.5507 0.8327 -0.0571
usemtl None
s off
f 12/1/1 2/2/1 5/3/1 7/4/1
f 7/4/2 6/5/2 8/6/2 13/7/2 12/1/2
f 9/8/3 10/9/3 11/10/3 17/11/3 16/12/3
f 1/13/4 2/2/4 5/3/4
f 3/14/5 16/12/5 9/8/5
f 18/15/6 15/16/6 20/17/6 21/18/6
f 11/10/7 14/19/7 19/20/7 17/11/7
f 8/6/8 10/9/8 11/10/8 14/19/8 15/16/8 18/15/8 22/21/8 13/7/8
f 21/18/9 18/15/9 22/21/9
f 19/20/10 14/19/10 15/16/10 20/17/10
f 4/22/11 3/14/11 9/8/11 10/9/11 8/6/11 6/5/11
f 1/13/12 5/3/12 7/4/12 6/5/12 4/22/12
