# Blender v2.92.0 OBJ File: ''
# www.blender.org
mtllib CG10_500_037059_0049.mtl
o CG10_500_037059_0049
v 11.637611 75.000000 -26.729340
v 26.237328 75.000000 -325.776672
v 127.647842 145.000000 -221.760132
v 122.833275 144.998703 -123.183182
v 131.530243 138.272751 -112.968483
v 152.789474 138.272980 -111.930313
v 222.196518 75.000000 -198.038544
v 227.956100 75.000000 -315.921082
v 234.249863 75.000000 -15.854685
v 243.101151 75.000000 -197.018036
v 11.637611 0.000000 -26.729340
v 26.237328 0.000000 -325.776672
v 227.956100 0.000000 -315.921082
v 222.196518 0.000000 -198.038544
v 243.101151 0.000000 -197.018036
v 234.249863 0.000000 -15.854685
vn 0.5491 -0.8353 0.0268
vn -0.0282 -0.8164 0.5769
vn -0.5901 -0.8068 -0.0288
vn -0.0282 -0.8162 0.5771
vn -0.5917 -0.8057 -0.0289
vn 0.0277 -0.8239 -0.5660
vn 0.0000 -1.0000 0.0000
vn 0.9988 0.0000 0.0488
vn -0.0488 0.0000 0.9988
vn -0.9988 0.0000 -0.0488
vn 0.0488 0.0000 -0.9988
usemtl None
s off
f 2//1 3//1 4//1 1//1
f 3//2 2//2 8//2
f 4//3 3//3 8//3 7//3 5//3
f 6//4 5//4 7//4 10//4
f 9//5 6//5 10//5
f 1//6 4//6 5//6 6//6 9//6
f 11//7 12//7 13//7 14//7 15//7 16//7
f 1//8 11//8 12//8 2//8
f 2//9 12//9 13//9 8//9
f 8//10 13//10 14//10 7//10
f 7//9 14//9 15//9 10//9
f 10//10 15//10 16//10 9//10
f 9//11 16//11 11//11 1//11
