# Blender v2.92.0 OBJ File: ''
# www.blender.org
mtllib CG10_500_049072_0029.mtl
o CG10_500_049072_0029
v 27.623554 75.000000 -271.776459
v 371.082855 75.000000 -252.538239
v 244.011703 114.863678 -209.307877
v 321.606934 114.991501 -204.800079
v 119.420761 144.854889 -178.407562
v 206.603821 145.000000 -173.340897
v 287.417297 75.000000 -153.324600
v 365.249664 75.000000 -148.631393
v 17.649237 75.000000 -94.074120
v 283.002075 75.000000 -78.081085
v 200.836548 75.000000 -83.033272
v 279.408661 75.000000 -12.835057
v 197.157593 75.000000 -17.452055
v 27.623554 0.000000 -271.776459
v 371.082855 0.000000 -252.538239
v 365.249664 0.000000 -148.631393
v 287.417297 0.000000 -153.324600
v 283.002075 0.000000 -78.081085
v 279.408661 0.000000 -12.835057
v 197.157593 0.000000 -17.452055
v 200.836548 0.000000 -83.033272
v 17.649237 0.000000 -94.074120
vn 0.5839 -0.8111 0.0328
vn -0.0368 0.7910 0.6108
vn 0.6488 0.7600 0.0381
vn -0.0361 0.8006 0.5981
vn 0.6492 0.7597 0.0364
vn 0.0347 0.7835 -0.6204
vn 0.0000 -1.0000 -0.0000
vn -0.0559 0.0000 0.9984
vn -0.9984 0.0000 -0.0561
vn 0.0602 0.0000 -0.9982
vn -0.9983 0.0000 -0.0586
vn -0.9985 0.0000 -0.0550
vn 0.0560 0.0000 -0.9984
vn 0.9984 0.0000 0.0560
usemtl None
s off
f 9//1 1//1 5//1
f 9//2 11//2 10//2 6//2 5//2
f 10//3 7//3 3//3 6//3
f 7//4 8//4 4//4 3//4
f 8//5 2//5 4//5
f 2//6 1//6 5//6 6//6 3//6 4//6
f 10//7 12//7 13//7 11//7
f 14//7 15//7 16//7 17//7 18//7 19//7 20//7 21//7 22//7
f 1//8 14//8 15//8 2//8
f 2//9 15//9 16//9 8//9
f 8//10 16//10 17//10 7//10
f 7//11 17//11 18//11 10//11
f 10//12 18//12 19//12 12//12
f 12//13 19//13 20//13 13//13
f 13//14 20//14 21//14 11//14
f 11//10 21//10 22//10 9//10
f 9//14 22//14 14//14 1//14
