# Blender v2.92.0 OBJ File: ''
# www.blender.org
mtllib CG10_500_035061_0034_roof.mtl
o CG10_500_035061_0034_roof
v 264.449463 75.000000 -215.518097
v 378.614532 75.000000 -142.708618
v 245.721924 145.000000 -133.717163
v 273.883301 144.991928 -115.767860
v 25.529575 75.000000 -226.010086
v 103.387917 144.910156 -140.073685
v 293.820099 75.000000 -9.735131
v 215.517120 75.000000 -59.613426
v 18.586267 75.000000 -68.542229
v 264.449463 0.000000 -215.518097
v 378.614532 0.000000 -142.708618
v 293.820099 0.000000 -9.735131
v 215.517120 0.000000 -59.613426
v 18.586267 0.000000 -68.542229
v 25.529575 0.000000 -226.010086
vt 0.064306 0.058291
vt 0.260420 0.416360
vt 0.618950 0.442850
vt 0.666120 0.102010
vt 0.953690 0.405380
vt 0.689880 0.517630
vt 0.740100 0.959440
vt 0.542860 0.751610
vt 0.046817 0.714410
vn 0.0284 0.7627 -0.6462
vn 0.3565 0.7486 -0.5590
vn 0.5801 0.7257 0.3699
vn -0.3570 0.7473 0.5604
vn -0.0308 0.7328 0.6797
vn -0.6501 0.7593 -0.0287
usemtl None
s off
f 5/1/1 6/2/1 3/3/1 1/4/1
f 2/5/2 1/4/2 3/3/2 4/6/2
f 7/7/3 2/5/3 4/6/3
f 8/8/4 7/7/4 4/6/4 3/3/4
f 9/9/5 8/8/5 3/3/5 6/2/5
f 9/9/6 6/2/6 5/1/6
