# Blender v2.92.0 OBJ File: ''
# www.blender.org
mtllib CG10_500_041073_0011.mtl
o CG10_500_041073_0011
v 198.326218 75.000000 -20.499378
v 297.070984 75.000000 -259.915527
v 337.733124 75.000000 -372.895935
v 292.010956 75.000000 -262.001801
v 130.417633 75.000000 -48.750408
v 120.385475 75.000000 -23.868591
v 167.750443 145.000000 -206.843277
v 139.557816 144.998215 -138.480927
v 84.823105 117.338615 -94.907715
v 95.036430 117.257942 -119.935440
v 196.852875 75.000000 -430.981476
v 151.130737 75.000000 -320.087341
v 125.720726 75.000000 -330.564026
v 16.852358 75.000000 -66.554306
v 198.326218 0.000000 -20.499378
v 297.070984 0.000000 -259.915527
v 292.010956 0.000000 -262.001801
v 337.733124 0.000000 -372.895935
v 196.852875 0.000000 -430.981476
v 151.130737 0.000000 -320.087341
v 125.720726 0.000000 -330.564026
v 16.852358 0.000000 -66.554306
v 120.385475 0.000000 -23.868591
v 130.417633 0.000000 -48.750408
vn 0.2403 -0.7762 -0.5829
vn 0.5374 0.8150 0.2167
vn -0.2419 0.7769 0.5814
vn 0.5326 0.8174 0.2197
vn -0.2210 -0.8147 0.5361
vn 0.5835 -0.7756 0.2406
vn 0.0000 -1.0000 0.0000
vn 0.0000 1.0000 0.0000
vn 0.9245 0.0000 0.3813
vn 0.3812 0.0000 -0.9245
vn 0.9245 0.0000 0.3812
vn -0.9245 0.0000 -0.3812
vn -0.3812 0.0000 0.9245
vn 0.9275 0.0000 0.3739
vn -0.3841 0.0000 0.9233
usemtl None
s off
f 14//1 9//1 6//1
f 6//2 5//2 10//2 9//2
f 5//3 1//3 8//3 10//3
f 1//4 2//4 7//4 8//4
f 7//5 13//5 12//5 4//5 2//5
f 14//6 13//6 7//6 8//6 10//6 9//6
f 12//7 11//7 3//7 4//7
f 15//8 16//8 17//8 18//8 19//8 20//8 21//8 22//8 23//8 24//8
f 1//9 15//9 16//9 2//9
f 2//10 16//10 17//10 4//10
f 4//11 17//11 18//11 3//11
f 3//10 18//10 19//10 11//10
f 11//12 19//12 20//12 12//12
f 12//10 20//10 21//10 13//10
f 13//12 21//12 22//12 14//12
f 14//13 22//13 23//13 6//13
f 6//14 23//14 24//14 5//14
f 5//15 24//15 15//15 1//15
