# Blender v2.92.0 OBJ File: ''
# www.blender.org
mtllib CG10_500_042073_0035_roof.mtl
o CG10_500_042073_0035_roof
v 287.855225 75.000000 -384.985016
v 89.386269 75.000000 -468.282104
v 123.950233 116.314972 -401.934692
v 161.524597 116.287758 -386.198944
v 185.528442 144.781937 -340.370819
v 48.896976 75.000000 -371.626740
v 86.149857 75.000000 -356.065918
v 150.887726 145.000000 -257.202087
v 157.834854 129.688522 -229.480850
v 21.888628 75.000000 -203.242554
v 62.683392 75.000000 -184.775055
v 106.065598 132.663300 -112.891602
v 137.983154 75.000000 -22.414217
v 10.592681 75.000000 -75.900055
v 287.855225 0.000000 -384.985016
v 89.386269 0.000000 -468.282104
v 48.896976 0.000000 -371.626740
v 86.149857 0.000000 -356.065918
v 21.888628 0.000000 -203.242554
v 62.683392 0.000000 -184.775055
v 10.592681 0.000000 -75.900055
v 137.983154 0.000000 -22.414217
vt 0.351210 0.770080
vt 0.522630 0.532630
vt 0.207560 0.623680
vt 0.035075 0.845420
vt 0.072479 0.586060
vt 0.499630 0.476170
vt 0.410430 0.181400
vt 0.161910 0.243120
vt 0.295980 0.046269
vt 0.614330 0.306780
vt 0.534850 0.213440
vt 0.285260 0.274810
vt 0.953160 0.215920
vt 0.456900 0.954350
vn -0.5728 0.7725 -0.2740
vn 0.2328 -0.8254 -0.5143
vn 0.5381 -0.8122 0.2254
vn -0.5358 0.8137 -0.2253
vn 0.2265 -0.8092 -0.5422
vn -0.2531 -0.7566 0.6030
vn -0.2439 0.7765 0.5809
vn -0.6183 -0.7432 -0.2556
usemtl None
s off
f 12/1/1 9/2/1 11/3/1 14/4/1
f 11/3/2 10/5/2 8/6/2 9/2/2
f 3/7/3 6/8/3 2/9/3
f 8/6/4 5/10/4 4/11/4 7/12/4 10/5/4
f 7/12/5 6/8/5 3/7/5 4/11/5
f 2/9/6 1/13/6 5/10/6 4/11/6 3/7/6
f 14/4/7 13/14/7 12/1/7
f 13/14/8 12/1/8 9/2/8 8/6/8 5/10/8 1/13/8
