# Blender v2.92.0 OBJ File: ''
# www.blender.org
mtllib CG10_500_048066_0011.mtl
o CG10_500_048066_0011
v 187.420959 75.000000 -14.905128
v 202.571228 75.000000 -296.636322
v 94.340134 145.000000 -108.302399
v 99.812004 144.997635 -209.994461
v 25.415911 75.000000 -306.172302
v 10.249030 75.000000 -24.442017
v 187.420959 0.000000 -14.905128
v 202.571228 0.000000 -296.636322
v 25.415911 0.000000 -306.172302
v 10.249030 0.000000 -24.442017
vn 0.0334 -0.7835 -0.6205
vn 0.6601 -0.7504 0.0355
vn 0.0325 0.7960 -0.6045
vn 0.5805 0.8136 0.0312
vn 0.0000 1.0000 0.0000
vn 0.9986 0.0000 0.0537
vn 0.0538 0.0000 -0.9986
vn -0.9986 0.0000 -0.0538
vn -0.0538 0.0000 0.9986
usemtl None
s off
f 6//1 3//1 1//1
f 6//2 5//2 4//2 3//2
f 4//3 2//3 5//3
f 1//4 2//4 4//4 3//4
f 7//5 8//5 9//5 10//5
f 1//6 7//6 8//6 2//6
f 2//7 8//7 9//7 5//7
f 5//8 9//8 10//8 6//8
f 6//9 10//9 7//9 1//9
