# Blender v2.92.0 OBJ File: ''
# www.blender.org
mtllib CG10_500_043069_0014.mtl
o CG10_500_043069_0014
v 333.556030 75.000000 -350.666870
v 196.629929 75.000000 -21.043484
v 191.055084 145.000000 -296.631897
v 129.128403 144.990982 -147.518036
v 168.328156 104.486763 -371.638214
v 14.878218 75.000000 -96.502800
v 120.935905 75.000000 -351.929535
v 128.602722 104.491600 -388.144653
v 81.396271 75.000000 -368.352325
v 112.249763 75.000000 -442.666046
v 333.556030 0.000000 -350.666870
v 196.629929 0.000000 -21.043484
v 14.878218 0.000000 -96.502800
v 120.935905 0.000000 -351.929535
v 81.396271 0.000000 -368.352325
v 112.249763 0.000000 -442.666046
vn 0.2415 -0.7769 -0.5815
vn 0.5852 -0.7736 0.2430
vn 0.5832 -0.7754 0.2421
vn -0.2135 -0.8311 0.5136
vn -0.4930 -0.8456 -0.2048
vn -0.2339 0.7924 0.5634
vn 0.0000 -1.0000 0.0000
vn -0.9235 0.0000 -0.3836
vn 0.3834 0.0000 -0.9236
vn 0.9236 0.0000 0.3835
vn 0.3836 0.0000 -0.9235
vn 0.9236 0.0000 0.3834
vn -0.3839 0.0000 0.9234
usemtl None
s off
f 7//1 9//1 8//1 5//1
f 9//2 10//2 8//2
f 6//3 7//3 5//3 3//3 4//3
f 10//4 1//4 3//4 5//4 8//4
f 1//5 2//5 4//5 3//5
f 6//6 2//6 4//6
f 11//7 12//7 13//7 14//7 15//7 16//7
f 1//8 11//8 12//8 2//8
f 2//9 12//9 13//9 6//9
f 6//10 13//10 14//10 7//10
f 7//11 14//11 15//11 9//11
f 9//12 15//12 16//12 10//12
f 10//13 16//13 11//13 1//13
