# Blender v2.92.0 OBJ File: ''
# www.blender.org
mtllib CG10_500_041069_0069.mtl
o CG10_500_041069_0069
v 10.904825 75.000000 -25.551615
v 25.847055 75.000000 -379.238983
v 111.587166 145.000000 -106.868919
v 119.054848 144.988098 -284.022705
v 154.519730 113.119339 -258.131256
v 166.549820 112.638992 -257.084717
v 173.262527 92.366638 -137.848450
v 188.143555 75.000000 -18.091404
v 192.111465 75.000000 -112.393616
v 200.299957 75.000000 -307.002502
v 196.292892 75.000000 -211.769897
v 194.335922 75.000000 -165.260117
v 203.025620 75.000000 -371.781158
v 208.585968 75.000000 -211.275833
v 212.530731 75.000000 -305.227264
v 220.489685 75.000000 -111.201187
v 221.522568 92.244858 -135.647659
v 222.704773 75.000000 -163.849106
v 10.904825 0.000000 -25.551615
v 25.847055 0.000000 -379.238983
v 203.025620 0.000000 -371.781158
v 200.299957 0.000000 -307.002502
v 212.530731 0.000000 -305.227264
v 208.585968 0.000000 -211.275833
v 196.292892 0.000000 -211.769897
v 194.335922 0.000000 -165.260117
v 222.704773 0.000000 -163.849106
v 220.489685 0.000000 -111.201187
v 192.111465 0.000000 -112.393616
v 188.143555 0.000000 -18.091404
vn -0.5840 0.8114 -0.0247
vn -0.0266 0.7737 0.6330
vn -0.6569 -0.7535 -0.0276
vn -0.0242 0.8174 0.5756
vn -0.0259 -0.8533 0.5207
vn 0.0261 -0.7605 -0.6488
vn 0.0819 0.8216 -0.5641
vn 0.6501 0.7593 0.0273
vn 0.0256 0.7934 -0.6082
vn 0.9991 -0.0003 0.0420
vn 0.0000 -1.0000 0.0000
vn 0.9991 0.0000 0.0422
vn -0.0421 0.0000 0.9991
vn -0.9991 0.0000 -0.0420
vn -0.1436 0.0000 0.9896
vn 0.0402 0.0000 -0.9992
vn -0.0497 0.0000 0.9988
vn 0.0420 0.0000 -0.9991
vn 0.0421 0.0000 -0.9991
usemtl None
s off
f 1//1 3//1 4//1 2//1
f 8//2 3//2 1//2
f 7//3 9//3 8//3 3//3 4//3 13//3 10//3 5//3 11//3 12//3
f 16//4 17//4 7//4 9//4
f 18//5 17//5 7//5 12//5
f 11//6 5//6 6//6 14//6
f 10//7 5//7 6//7 15//7
f 15//8 6//8 14//8
f 2//9 4//9 13//9
f 18//10 17//10 16//10
f 19//11 20//11 21//11 22//11 23//11 24//11 25//11 26//11 27//11 28//11 29//11 30//11
f 1//12 19//12 20//12 2//12
f 2//13 20//13 21//13 13//13
f 13//14 21//14 22//14 10//14
f 10//15 22//15 23//15 15//15
f 15//14 23//14 24//14 14//14
f 14//16 24//16 25//16 11//16
f 11//14 25//14 26//14 12//14
f 12//17 26//17 27//17 18//17
f 18//14 27//14 28//14 16//14
f 16//18 28//18 29//18 9//18
f 9//14 29//14 30//14 8//14
f 8//19 30//19 19//19 1//19
