# Blender v2.92.0 OBJ File: ''
# www.blender.org
mtllib CG10_500_042070_0028.mtl
o CG10_500_042070_0028
v 301.476318 75.000000 -225.412033
v 31.432764 75.000000 -250.994781
v 199.905914 145.000000 -146.699265
v 106.007347 144.982040 -155.617477
v 234.197876 116.695129 -106.572876
v 230.569595 116.710411 -68.276924
v 179.693619 75.000000 -57.464333
v 14.508782 75.000000 -73.194260
v 281.272675 75.000000 -10.950793
v 176.216736 75.000000 -20.950289
v 301.476318 0.000000 -225.412033
v 31.432764 0.000000 -250.994781
v 14.508782 0.000000 -73.194260
v 179.693619 0.000000 -57.464333
v 176.216736 0.000000 -20.950289
v 281.272675 0.000000 -10.950793
vn 0.0587 0.7824 -0.6200
vn -0.6405 0.7656 -0.0610
vn 0.6405 -0.7655 0.0610
vn -0.0579 0.7918 0.6080
vn -0.0591 0.7816 0.6210
vn -0.5957 -0.8013 -0.0561
vn 0.0000 1.0000 0.0000
vn 0.0943 0.0000 -0.9955
vn -0.9955 0.0000 -0.0948
vn -0.0948 0.0000 0.9955
vn 0.9956 0.0000 0.0938
usemtl None
s off
f 4//1 3//1 1//1 2//1
f 8//2 4//2 2//2
f 10//3 7//3 5//3 6//3
f 5//4 3//4 4//4 8//4 7//4
f 10//5 9//5 6//5
f 9//6 6//6 5//6 3//6 1//6
f 11//7 12//7 13//7 14//7 15//7 16//7
f 1//8 11//8 12//8 2//8
f 2//9 12//9 13//9 8//9
f 8//10 13//10 14//10 7//10
f 7//9 14//9 15//9 10//9
f 10//10 15//10 16//10 9//10
f 9//11 16//11 11//11 1//11
