# Blender v2.92.0 OBJ File: ''
# www.blender.org
mtllib CG10_500_048077_0014.mtl
o CG10_500_048077_0014
v 351.556152 75.000000 -10.321701
v 17.975328 75.000000 -28.934675
v 292.313385 144.951736 -103.298820
v 74.131226 145.000000 -115.534691
v 361.476654 75.000000 -187.962936
v 27.906404 75.000000 -206.763290
v 351.556152 0.000000 -10.321701
v 17.975328 0.000000 -28.934675
v 27.906404 0.000000 -206.763290
v 361.476654 0.000000 -187.962936
vn -0.0343 0.7880 0.6147
vn -0.8057 0.5907 -0.0450
vn 0.0349 0.7843 -0.6195
vn -0.7349 -0.6769 -0.0410
vn 0.0000 -1.0000 0.0000
vn 0.0557 0.0000 -0.9984
vn 0.9984 0.0000 0.0558
vn -0.0563 0.0000 0.9984
vn -0.9984 0.0000 -0.0558
usemtl None
s off
f 2//1 1//1 3//1 4//1
f 2//2 4//2 6//2
f 6//3 4//3 3//3 5//3
f 1//4 3//4 5//4
f 7//5 8//5 9//5 10//5
f 1//6 7//6 8//6 2//6
f 2//7 8//7 9//7 6//7
f 6//8 9//8 10//8 5//8
f 5//9 10//9 7//9 1//9
