# Blender v2.92.0 OBJ File: ''
# www.blender.org
mtllib CG10_500_044069_0042_roof.mtl
o CG10_500_044069_0042_roof
v 477.487854 75.000000 -233.348099
v 415.332397 75.000000 -82.206253
v 338.479492 75.000000 -113.844727
v 312.160736 75.000000 -50.497879
v 363.146149 133.102463 -189.614578
v 276.715729 75.000000 -65.277718
v 257.256439 75.000000 -18.274078
v 285.896088 133.092331 -221.401566
v 262.267365 145.000000 -212.518997
v 249.612030 144.929825 -181.775986
v 259.887329 141.482986 -218.991608
v 205.695831 130.783554 -123.716049
v 225.067947 130.867844 -170.856720
v 234.917999 141.532486 -229.183624
v 228.804001 131.563141 -247.270920
v 108.021935 75.000000 -79.645332
v 144.084198 75.000000 -167.949127
v 122.239388 75.000000 -176.801971
v 133.041641 75.000000 -202.815948
v 119.858727 131.504379 -292.169403
v 22.438646 75.000000 -248.486206
v 82.943626 75.000000 -395.615112
v 477.487854 0.000000 -233.348099
v 415.332397 0.000000 -82.206253
v 338.479492 0.000000 -113.844727
v 312.160736 0.000000 -50.497879
v 276.715729 0.000000 -65.277718
v 257.256439 0.000000 -18.274078
v 108.021935 0.000000 -79.645332
v 144.084198 0.000000 -167.949127
v 122.239388 0.000000 -176.801971
v 133.041641 0.000000 -202.815948
v 22.438646 0.000000 -248.486206
v 82.943626 0.000000 -395.615112
vt 0.215610 0.808080
vt 0.513490 0.955970
vt 0.410570 0.701890
vt 0.552330 0.842700
vt 0.449240 0.588300
vt 0.623080 0.878320
vt 0.498230 0.561990
vt 0.675610 0.725680
vt 0.570650 0.466500
vt 0.523490 0.487910
vt 0.829010 0.801910
vt 0.724840 0.543100
vt 0.953070 0.437720
vt 0.518740 0.472310
vt 0.287590 0.595300
vt 0.243990 0.573970
vt 0.468900 0.447750
vt 0.265550 0.511290
vt 0.456690 0.404170
vt 0.239240 0.295980
vt 0.044788 0.401240
vt 0.165560 0.046711
vn -0.2214 0.8131 0.5384
vn 0.4948 0.8445 0.2048
vn -0.2249 0.8114 0.5394
vn 0.5015 0.8397 0.2084
vn -0.2247 0.8072 0.5458
vn 0.5051 0.8377 0.2077
vn -0.5584 0.7976 -0.2281
vn 0.2219 -0.8068 -0.5475
vn 0.5735 -0.7838 0.2382
vn -0.2247 0.8082 0.5443
vn 0.5638 -0.7927 0.2318
vn 0.2165 0.8222 -0.5264
usemtl None
s off
f 16/1/1 7/2/1 12/3/1
f 12/3/2 7/2/2 6/4/2 13/5/2
f 13/5/3 6/4/3 4/6/3 10/7/3
f 10/7/4 4/6/4 3/8/4 8/9/4 9/10/4
f 8/9/5 3/8/5 2/11/5 5/12/5
f 5/12/6 2/11/6 1/13/6
f 16/1/7 12/3/7 13/5/7 10/7/7 9/10/7 11/14/7 17/15/7
f 11/14/8 17/15/8 18/16/8 14/17/8
f 14/17/9 18/16/9 19/18/9 15/19/9
f 19/18/10 15/19/10 20/20/10 21/21/10
f 20/20/11 21/21/11 22/22/11
f 22/22/12 20/20/12 15/19/12 14/17/12 11/14/12 9/10/12 8/9/12 5/12/12 1/13/12
