# Blender v2.92.0 OBJ File: ''
# www.blender.org
mtllib CG10_500_044068_0037.mtl
o CG10_500_044068_0037
v 363.154144 75.000000 -187.486832
v 63.671696 75.000000 -315.894867
v 290.711823 117.272118 -153.964752
v 141.854813 118.489029 -215.930450
v 278.286163 118.757790 -157.022659
v 95.268600 118.780533 -235.459702
v 233.204269 144.994263 -136.268463
v 162.155701 145.000000 -166.722931
v 317.240112 75.000000 -80.487038
v 306.660767 75.000000 -80.924728
v 61.232563 75.000000 -185.331696
v 15.710990 75.000000 -203.997711
v 278.456879 75.000000 -14.224306
v 33.177311 75.000000 -119.332550
v 363.154144 0.000000 -187.486832
v 63.671696 0.000000 -315.894867
v 15.710990 0.000000 -203.997711
v 61.232563 0.000000 -185.331696
v 33.177311 0.000000 -119.332550
v 278.456879 0.000000 -14.224306
v 306.660767 0.000000 -80.924728
v 317.240112 0.000000 -80.487038
vn -0.5375 0.8112 -0.2304
vn 0.2254 -0.8045 -0.5496
vn 0.5272 -0.8197 0.2241
vn 0.2347 -0.8031 -0.5476
vn -0.5685 -0.7867 -0.2404
vn 0.0209 -0.8633 -0.5042
vn -0.5707 -0.7838 -0.2449
vn -0.2286 -0.8145 0.5332
vn 0.0000 1.0000 0.0000
vn 0.3941 0.0000 -0.9191
vn -0.9191 0.0000 -0.3940
vn -0.3794 0.0000 0.9252
vn -0.9203 0.0000 -0.3912
vn -0.3939 0.0000 0.9192
vn 0.9210 0.0000 0.3895
vn -0.0413 0.0000 0.9991
vn 0.9190 0.0000 0.3943
usemtl None
s off
f 6//1 2//1 12//1
f 6//2 4//2 11//2 12//2
f 4//3 8//3 14//3 11//3
f 8//4 7//4 13//4 14//4
f 7//5 5//5 10//5 13//5
f 5//6 3//6 9//6 10//6
f 3//7 1//7 9//7
f 2//8 1//8 3//8 5//8 7//8 8//8 4//8 6//8
f 15//9 16//9 17//9 18//9 19//9 20//9 21//9 22//9
f 1//10 15//10 16//10 2//10
f 2//11 16//11 17//11 12//11
f 12//12 17//12 18//12 11//12
f 11//13 18//13 19//13 14//13
f 14//14 19//14 20//14 13//14
f 13//15 20//15 21//15 10//15
f 10//16 21//16 22//16 9//16
f 9//17 22//17 15//17 1//17
