# Blender v2.92.0 OBJ File: ''
# www.blender.org
mtllib CG10_500_049064_0010_roof.mtl
o CG10_500_049064_0010_roof
v 44.134399 75.000000 -333.487457
v 255.618118 75.000000 -321.497620
v 151.679550 145.000000 -327.398712
v 15.494494 75.000000 -112.728600
v 31.555223 75.000000 -111.818092
v 28.321487 75.000000 -54.833607
v 12.263959 75.000000 -55.743946
v 237.791000 75.000000 -15.820181
v 26.786366 75.000000 -27.781731
v 134.086929 144.841400 -21.690569
v 44.134399 0.000000 -333.487457
v 255.618118 0.000000 -321.497620
v 237.791000 0.000000 -15.820181
v 26.786366 0.000000 -27.781731
v 28.321487 0.000000 -54.833607
v 12.263959 0.000000 -55.743946
v 15.494494 0.000000 -112.728600
v 31.555223 0.000000 -111.818092
vt 0.099949 0.920850
vt 0.105680 0.843780
vt 0.117740 0.681430
vt 0.164680 0.049893
vt 0.565970 0.067240
vt 0.500320 0.938200
vt 0.953800 0.084052
vt 0.887280 0.954930
vt 0.045761 0.841190
vt 0.057815 0.678840
vn 0.5440 -0.8385 0.0309
vn -0.5570 -0.8299 -0.0325
vn 0.0000 -1.0000 0.0000
vn 0.0566 -0.0001 -0.9984
vn -0.0566 -0.0001 0.9984
usemtl None
s off
f 9/1/1 6/2/1 5/3/1 1/4/1 3/5/1 10/6/1
f 10/6/2 3/5/2 2/7/2 8/8/2
f 6/2/3 7/9/3 4/10/3 5/3/3
f 1/4/4 3/5/4 2/7/4
f 8/8/5 10/6/5 9/1/5
