# Blender v2.92.0 OBJ File: ''
# www.blender.org
mtllib CG10_500_042070_0019_roof.mtl
o CG10_500_042070_0019_roof
v 179.020676 75.000000 -15.555328
v 36.501167 75.000000 -74.183701
v 46.217598 75.000000 -99.093430
v 12.919009 75.000000 -113.183769
v 133.756165 130.580368 -118.983055
v 142.522476 130.735504 -140.886108
v 130.729706 144.999512 -167.001175
v 140.377945 145.000000 -190.453903
v 271.655182 75.000000 -240.711136
v 95.230865 75.000000 -313.279205
v 179.020676 0.000000 -15.555328
v 36.501167 0.000000 -74.183701
v 46.217598 0.000000 -99.093430
v 12.919009 0.000000 -113.183769
v 95.230865 0.000000 -313.279205
v 271.655182 0.000000 -240.711136
vt 0.630350 0.952860
vt 0.470970 0.639450
vt 0.501840 0.573070
vt 0.460320 0.493940
vt 0.494290 0.422870
vt 0.956530 0.270570
vt 0.128530 0.775200
vt 0.162740 0.699720
vt 0.045489 0.657020
vt 0.335320 0.050669
vn -0.5223 -0.8252 -0.2149
vn -0.2200 0.8159 0.5347
vn -0.5579 0.8008 -0.2176
vn -0.2304 0.8065 0.5445
vn -0.5738 0.7842 -0.2360
vn 0.2235 0.8092 -0.5433
usemtl None
s off
f 1/1/1 5/2/1 6/3/1 7/4/1 8/5/1 9/6/1
f 1/1/2 5/2/2 2/7/2
f 2/7/3 5/2/3 6/3/3 3/8/3
f 3/8/4 6/3/4 7/4/4 4/9/4
f 4/9/5 7/4/5 8/5/5 10/10/5
f 10/10/6 8/5/6 9/6/6
