# Blender v2.92.0 OBJ File: ''
# www.blender.org
mtllib CG10_500_040071_0013_roof.mtl
o CG10_500_040071_0013_roof
v 33.771797 75.000000 -373.883698
v 11.407050 75.000000 -25.565084
v 82.123848 113.720650 -322.938232
v 75.909538 113.957230 -221.241562
v 73.519455 117.895897 -102.234024
v 72.104897 118.028427 -77.451355
v 114.391556 144.927719 -177.501617
v 111.937691 145.000000 -137.783676
v 137.101761 75.000000 -367.238434
v 131.460693 75.000000 -269.907349
v 127.644905 75.000000 -38.827496
v 126.612907 75.000000 -18.160975
v 155.773514 116.788361 -212.576782
v 206.457245 116.847755 -209.399597
v 203.569366 75.000000 -34.107750
v 210.422638 75.000000 -149.792496
v 267.181671 75.000000 -261.611969
v 259.789215 75.000000 -146.615845
v 33.771797 0.000000 -373.883698
v 11.407050 0.000000 -25.565084
v 126.612907 0.000000 -18.160975
v 127.644905 0.000000 -38.827496
v 203.569366 0.000000 -34.107750
v 210.422638 0.000000 -149.792496
v 259.789215 0.000000 -146.615845
v 267.181671 0.000000 -261.611969
v 131.460693 0.000000 -269.907349
v 137.101761 0.000000 -367.238434
vt 0.491400 0.065551
vt 0.294350 0.178270
vt 0.121050 0.048642
vt 0.272080 0.437040
vt 0.471190 0.313210
vt 0.410010 0.548340
vt 0.558330 0.459090
vt 0.739990 0.467180
vt 0.957640 0.334320
vt 0.931140 0.626930
vt 0.754200 0.618850
vt 0.401210 0.649410
vt 0.729640 0.913210
vt 0.263510 0.739860
vt 0.457510 0.901200
vt 0.258440 0.802920
vt 0.453810 0.953790
vt 0.040885 0.934950
vn -0.0404 -0.7766 0.6286
vn 0.5939 0.8038 0.0344
vn 0.0366 0.8001 -0.5987
vn -0.5889 -0.8073 -0.0379
vn -0.0371 0.8167 0.5758
vn 0.5818 0.8126 0.0345
vn -0.0361 0.8131 0.5809
vn 0.5991 0.8001 0.0299
vn -0.0392 0.7912 0.6103
vn -0.5996 0.7994 -0.0385
usemtl None
s off
f 9/1/1 3/2/1 1/3/1
f 3/2/2 4/4/2 10/5/2 9/1/2
f 10/5/3 4/4/3 7/6/3 13/7/3 14/8/3 17/9/3
f 14/8/4 17/9/4 18/10/4
f 18/10/5 14/8/5 13/7/5 16/11/5
f 16/11/6 13/7/6 7/6/6 8/12/6 15/13/6
f 15/13/7 8/12/7 5/14/7 11/15/7
f 11/15/8 5/14/8 6/16/8 12/17/8
f 12/17/9 6/16/9 2/18/9
f 2/18/10 6/16/10 5/14/10 8/12/10 7/6/10 4/4/10 3/2/10 1/3/10
