# Blender v2.92.0 OBJ File: ''
# www.blender.org
mtllib CG10_500_038070_0010.mtl
o CG10_500_038070_0010
v 387.801025 75.000000 -177.581238
v 127.937935 75.000000 -313.249756
v 260.486267 145.000000 -138.081055
v 164.857040 144.986343 -188.027542
v 110.179527 113.679314 -170.889969
v 302.338287 75.000000 -14.016930
v 134.573196 75.000000 -101.674423
v 85.703720 113.668915 -124.001656
v 109.795799 75.000000 -54.239891
v 17.874050 75.000000 -102.269371
v 387.801025 0.000000 -177.581238
v 127.937935 0.000000 -313.249756
v 17.874050 0.000000 -102.269371
v 109.795799 0.000000 -54.239891
v 134.573196 0.000000 -101.674423
v 302.338287 0.000000 -14.016930
vn -0.5274 -0.8037 -0.2756
vn 0.2832 -0.7912 -0.5420
vn -0.5182 -0.8113 -0.2707
vn -0.2809 0.7950 0.5377
vn 0.5418 -0.7915 0.2827
vn 0.2765 0.8019 -0.5297
vn 0.0000 1.0000 0.0000
vn 0.4628 0.0000 -0.8865
vn -0.8866 0.0000 -0.4625
vn -0.4631 0.0000 0.8863
vn 0.8864 0.0000 0.4630
vn 0.8863 0.0000 0.4631
usemtl None
s off
f 6//1 3//1 1//1
f 7//2 5//2 4//2 3//2 6//2
f 9//3 8//3 5//3 7//3
f 9//4 8//4 10//4
f 10//5 2//5 4//5 5//5 8//5
f 2//6 4//6 3//6 1//6
f 11//7 12//7 13//7 14//7 15//7 16//7
f 1//8 11//8 12//8 2//8
f 2//9 12//9 13//9 10//9
f 10//10 13//10 14//10 9//10
f 9//11 14//11 15//11 7//11
f 7//10 15//10 16//10 6//10
f 6//12 16//12 11//12 1//12
