# Blender v2.92.0 OBJ File: ''
# www.blender.org
mtllib CG10_500_044066_0036_roof.mtl
o CG10_500_044066_0036_roof
v 227.339050 75.000000 -18.120037
v 77.228951 75.000000 -79.595474
v 18.511906 75.000000 -137.111481
v 89.186615 75.000000 -107.913017
v 180.601257 123.023407 -121.603508
v 191.897568 122.945305 -148.684662
v 170.298645 145.000000 -195.882294
v 285.215393 75.000000 -158.677750
v 344.273895 75.000000 -134.476822
v 53.510506 75.000000 -261.287598
v 66.480598 75.000000 -253.170456
v 61.103268 75.000000 -279.828003
v 68.664711 75.000000 -298.291931
v 252.111542 109.301964 -233.273056
v 312.635437 109.300865 -208.469696
v 138.496628 107.819778 -282.782440
v 126.201912 107.196739 -289.059204
v 81.987755 75.000000 -330.824829
v 88.075844 75.000000 -345.691010
v 389.569794 75.000000 -245.084137
v 96.127022 75.000000 -365.350800
v 227.339050 0.000000 -18.120037
v 77.228951 0.000000 -79.595474
v 89.186615 0.000000 -107.913017
v 18.511906 0.000000 -137.111481
v 66.480598 0.000000 -253.170456
v 53.510506 0.000000 -261.287598
v 61.103268 0.000000 -279.828003
v 68.664711 0.000000 -298.291931
v 81.987755 0.000000 -330.824829
v 88.075844 0.000000 -345.691010
v 96.127022 0.000000 -365.350800
v 389.569794 0.000000 -245.084137
v 344.273895 0.000000 -134.476822
v 285.215393 0.000000 -158.677750
vt 0.310080 0.249200
vt 0.236180 0.051037
vt 0.957170 0.363420
vt 0.768150 0.458520
vt 0.619440 0.394100
vt 0.418420 0.491210
vt 0.340290 0.265500
vt 0.845880 0.650710
vt 0.700770 0.587850
vt 0.558570 0.952930
vt 0.443740 0.684150
vt 0.471490 0.613810
vt 0.189750 0.793260
vt 0.219130 0.719710
vt 0.045484 0.643870
vt 0.163340 0.342410
vt 0.131480 0.321330
vt 0.150130 0.273170
vt 0.168710 0.225220
vt 0.201440 0.140710
vt 0.216400 0.102100
vn -0.1812 -0.8784 0.4422
vn 0.4752 0.8581 0.1946
vn 0.1968 -0.8547 -0.4804
vn -0.4647 -0.8646 -0.1913
vn 0.1986 -0.8517 -0.4849
vn 0.4790 -0.8542 0.2023
vn 0.2020 -0.8486 -0.4890
vn 0.4720 -0.8597 0.1951
vn 0.2442 -0.8878 -0.3901
vn 0.4567 -0.8697 0.1870
usemtl None
s off
f 17/1/1 21/2/1 20/3/1 15/4/1 14/5/1 7/6/1 16/7/1
f 15/4/2 9/8/2 20/3/2
f 9/8/3 8/9/3 14/5/3 15/4/3
f 8/9/4 1/10/4 5/11/4 6/12/4 7/6/4 14/5/4
f 1/10/5 2/13/5 5/11/5
f 2/13/6 4/14/6 6/12/6 5/11/6
f 4/14/7 3/15/7 7/6/7 6/12/7
f 3/15/8 11/16/8 16/7/8 7/6/8
f 11/16/9 10/17/9 17/1/9 16/7/9
f 10/17/10 12/18/10 13/19/10 18/20/10 19/21/10 21/2/10 17/1/10
