# Blender v2.92.0 OBJ File: ''
# www.blender.org
mtllib CG10_500_041071_0007_roof.mtl
o CG10_500_041071_0007_roof
v 9.228716 75.000000 -18.690325
v 19.059498 75.000000 -269.333038
v 90.452866 145.000000 -192.657364
v 86.590759 144.998703 -94.225204
v 160.937424 75.000000 -12.736454
v 170.775360 75.000000 -263.378906
v 9.228716 0.000000 -18.690325
v 19.059498 0.000000 -269.333038
v 170.775360 0.000000 -263.378906
v 160.937424 0.000000 -12.736454
vt 0.050987 0.933720
vt 0.478400 0.665870
vt 0.889160 0.954840
vt 0.943510 0.066032
vt 0.499740 0.316820
vt 0.105300 0.044918
vn 0.0261 -0.7464 -0.6650
vn 0.6698 0.7420 0.0263
vn 0.0270 0.7256 -0.6876
vn -0.6850 0.7281 -0.0269
usemtl None
s off
f 1/1/1 4/2/1 5/3/1
f 5/3/2 6/4/2 3/5/2 4/2/2
f 6/4/3 2/6/3 3/5/3
f 2/6/4 1/1/4 4/2/4 3/5/4
