# Blender v2.92.0 OBJ File: ''
# www.blender.org
mtllib CG10_500_045072_0054_roof.mtl
o CG10_500_045072_0054_roof
v 53.895725 75.000000 -294.412415
v 71.873039 75.000000 -337.550995
v 61.348892 75.000000 -270.595612
v 94.771896 75.000000 -346.978394
v 148.087677 75.000000 -372.959198
v 126.928581 75.000000 -322.195251
v 104.595131 75.000000 -268.614044
v 20.634106 75.000000 -67.178856
v 183.974640 144.864212 -289.144287
v 106.663925 145.000000 -103.333961
v 170.349274 144.971848 -256.193237
v 267.651184 75.000000 -323.132294
v 140.136810 75.000000 -17.378019
v 203.833527 75.000000 -170.331497
v 254.012070 75.000000 -289.885834
v 368.299683 144.753296 -173.548157
v 401.815643 75.000000 -87.897881
v 451.534760 75.000000 -207.205200
v 53.895725 0.000000 -294.412415
v 71.873039 0.000000 -337.550995
v 94.771896 0.000000 -346.978394
v 126.928581 0.000000 -322.195251
v 148.087677 0.000000 -372.959198
v 267.651184 0.000000 -323.132294
v 254.012070 0.000000 -289.885834
v 451.534760 0.000000 -207.205200
v 401.815643 0.000000 -87.897881
v 203.833527 0.000000 -170.331497
v 140.136810 0.000000 -17.378019
v 20.634106 0.000000 -67.178856
v 104.595131 0.000000 -268.614044
v 61.348892 0.000000 -270.595612
vt 0.043532 0.828630
vt 0.295650 0.955670
vt 0.225030 0.736390
vt 0.388130 0.262390
vt 0.564660 0.175680
vt 0.312420 0.048574
vt 0.220660 0.314760
vt 0.267780 0.178070
vt 0.199940 0.114850
vt 0.151630 0.138900
vt 0.113700 0.248950
vt 0.129430 0.309710
vt 0.359390 0.346450
vt 0.430030 0.565480
vt 0.847710 0.775770
vt 0.777000 0.557280
vt 0.535890 0.260500
vt 0.952600 0.471420
vn -0.2790 0.6886 0.6694
vn 0.2845 0.6730 -0.6828
vn 0.0000 1.0000 0.0000
vn 0.6740 -0.6832 0.2809
vn 0.6816 0.6745 0.2838
vn -0.2788 0.6883 0.6697
vn -0.6797 -0.6784 -0.2788
vn -0.2862 -0.6714 0.6837
vn 0.6807 0.6754 0.2837
usemtl None
s off
f 8/1/1 13/2/1 10/3/1
f 9/4/2 12/5/2 5/6/2
f 7/7/3 6/8/3 4/9/3 2/10/3 1/11/3 3/12/3
f 8/1/4 7/7/4 6/8/4 5/6/4 9/4/4 11/13/4 10/3/4
f 13/2/5 14/14/5 11/13/5 10/3/5
f 14/14/6 17/15/6 16/16/6 11/13/6
f 11/13/7 9/4/7 12/5/7 15/17/7
f 11/13/8 15/17/8 18/18/8 16/16/8
f 17/15/9 18/18/9 16/16/9
