# Blender v2.92.0 OBJ File: ''
# www.blender.org
mtllib CG10_500_039057_0041_roof.mtl
o CG10_500_039057_0041_roof
v 138.181946 75.000000 -358.932343
v 14.642429 75.000000 -85.027908
v 177.773575 144.768036 -247.528427
v 122.673470 145.000000 -124.701530
v 217.606842 119.794746 -263.050781
v 248.481873 119.794937 -249.126938
v 166.642242 75.000000 -16.491198
v 244.896805 75.000000 -191.906235
v 274.787964 75.000000 -178.425842
v 319.342377 75.000000 -277.235199
v 138.181946 0.000000 -358.932343
v 14.642429 0.000000 -85.027908
v 166.642242 0.000000 -16.491198
v 244.896805 0.000000 -191.906235
v 274.787964 0.000000 -178.425842
v 319.342377 0.000000 -277.235199
vt 0.043579 0.774460
vt 0.495960 0.956260
vt 0.365100 0.669230
vt 0.728860 0.490960
vt 0.817820 0.526720
vt 0.739530 0.339190
vt 0.647640 0.302250
vt 0.950420 0.264630
vt 0.411260 0.047925
vt 0.529090 0.343430
vn -0.2696 0.7549 0.5979
vn -0.2635 0.7675 0.5843
vn 0.5882 0.7640 0.2652
vn 0.2603 0.7740 -0.5772
vn 0.5912 -0.7612 0.2666
vn -0.5837 -0.7691 -0.2604
usemtl None
s off
f 2/1/1 7/2/1 4/3/1
f 8/4/2 9/5/2 6/6/2 5/7/2
f 9/5/3 10/8/3 6/6/3
f 10/8/4 1/9/4 3/10/4 5/7/4 6/6/4
f 2/1/5 1/9/5 3/10/5 4/3/5
f 4/3/6 3/10/6 5/7/6 8/4/6 7/2/6
