# Blender v2.92.0 OBJ File: ''
# www.blender.org
mtllib CG10_500_044067_0031_roof.mtl
o CG10_500_044067_0031_roof
v 260.052155 75.000000 -17.761171
v 137.805527 75.000000 -65.594322
v 157.336502 75.000000 -114.964211
v 21.425922 75.000000 -168.978485
v 225.054703 121.000061 -99.102379
v 390.315704 75.000000 -65.966866
v 294.271942 75.000000 -104.702606
v 244.168777 120.968300 -147.547562
v 225.832993 145.000000 -189.909912
v 150.626984 144.853104 -219.584274
v 345.944214 130.959976 -164.675629
v 251.651718 130.589554 -202.170120
v 447.393311 75.000000 -211.820648
v 92.550743 75.000000 -350.756500
v 260.052155 0.000000 -17.761171
v 137.805527 0.000000 -65.594322
v 157.336502 0.000000 -114.964211
v 21.425922 0.000000 -168.978485
v 92.550743 0.000000 -350.756500
v 447.393311 0.000000 -211.820648
v 390.315704 0.000000 -65.966866
v 294.271942 0.000000 -104.702606
vt 0.296990 0.823670
vt 0.560460 0.952250
vt 0.485030 0.733600
vt 0.634210 0.718540
vt 0.542350 0.456530
vt 0.486710 0.489490
vt 0.526230 0.603370
vt 0.841200 0.822670
vt 0.745570 0.557320
vt 0.964210 0.430590
vt 0.199460 0.057106
vt 0.324630 0.409720
vt 0.046177 0.545760
vt 0.339090 0.690960
vn -0.2149 0.8076 0.5492
vn 0.5524 0.8047 0.2174
vn -0.2238 0.8013 0.5549
vn 0.5461 0.8100 0.2137
vn 0.2074 0.8224 -0.5298
vn -0.5266 0.8248 -0.2060
vn -0.2192 0.8049 0.5515
vn -0.5168 0.8313 -0.2045
usemtl None
s off
f 2/1/1 1/2/1 5/3/1
f 1/2/2 7/4/2 12/5/2 9/6/2 8/7/2 5/3/2
f 7/4/3 6/8/3 11/9/3 12/5/3
f 6/8/4 13/10/4 11/9/4
f 14/11/5 10/12/5 9/6/5 12/5/5 11/9/5 13/10/5
f 14/11/6 4/13/6 10/12/6
f 4/13/7 3/14/7 8/7/7 9/6/7 10/12/7
f 3/14/8 2/1/8 5/3/8 8/7/8
