# Blender v2.92.0 OBJ File: ''
# www.blender.org
mtllib CG10_500_041069_0067.mtl
o CG10_500_041069_0067
v 190.694809 75.000000 -281.294495
v 49.981869 75.000000 -290.658936
v 278.710388 75.000000 -222.950073
v 222.616333 75.000000 -226.685043
v 254.596497 93.537613 -224.561783
v 221.251755 75.000000 -205.699844
v 277.597412 75.000000 -202.181168
v 186.155212 75.000000 -207.891556
v 346.073395 75.000000 -197.904984
v 122.904114 130.346573 -211.221710
v 43.949562 75.000000 -200.237076
v 27.506397 75.000000 -200.854324
v 251.926620 93.709412 -178.925461
v 118.242378 130.485031 -138.410767
v 260.115601 145.000000 -110.265350
v 137.113190 144.790085 -118.225525
v 107.793365 138.556229 -112.888588
v 128.210312 138.793854 -111.804535
v 74.056519 114.893387 -87.456375
v 72.373375 114.885986 -62.138062
v 118.097801 75.000000 -37.847477
v 334.463562 75.000000 -23.413260
v 116.415878 75.000000 -12.678859
v 15.514849 75.000000 -19.393284
v 190.694809 0.000000 -281.294495
v 49.981869 0.000000 -290.658936
v 43.949562 0.000000 -200.237076
v 27.506397 0.000000 -200.854324
v 15.514849 0.000000 -19.393284
v 116.415878 0.000000 -12.678859
v 118.097801 0.000000 -37.847477
v 334.463562 0.000000 -23.413260
v 346.073395 0.000000 -197.904984
v 277.597412 0.000000 -202.181168
v 278.710388 0.000000 -222.950073
v 222.616333 0.000000 -226.685043
v 221.251755 0.000000 -205.699844
v 186.155212 0.000000 -207.891556
vn -0.0433 0.7585 0.6502
vn 0.6437 0.7641 0.0430
vn -0.0433 0.7594 0.6491
vn -0.6573 -0.7524 -0.0437
vn 0.5934 -0.8039 0.0392
vn -0.0225 -0.8005 0.5989
vn 0.5772 -0.8157 0.0385
vn -0.0396 -0.8024 0.5954
vn -0.6568 -0.7530 -0.0406
vn 0.4996 -0.8656 0.0325
vn 0.6078 0.7934 0.0326
vn -0.0375 -0.7984 0.6009
vn -0.0664 0.0003 0.9978
vn 0.0000 1.0000 0.0000
vn 0.0664 0.0000 -0.9978
vn -0.9978 0.0000 -0.0666
vn 0.0375 0.0000 -0.9993
vn -0.9978 0.0000 -0.0659
vn -0.0664 0.0000 0.9978
vn 0.9978 0.0000 0.0667
vn -0.0666 0.0000 0.9978
vn 0.9978 0.0000 0.0664
vn 0.0623 0.0000 -0.9981
vn 0.9986 0.0000 0.0535
vn -0.9979 0.0000 -0.0649
vn 0.9981 0.0000 0.0617
usemtl None
s off
f 24//1 23//1 20//1
f 23//2 21//2 19//2 20//2
f 21//3 22//3 15//3 16//3 18//3 17//3 19//3
f 22//4 15//4 9//4
f 24//5 12//5 17//5 19//5 20//5
f 17//6 12//6 11//6 18//6
f 18//7 11//7 2//7 10//7 14//7 16//7
f 1//8 10//8 2//8
f 8//9 14//9 10//9 1//9
f 13//10 6//10 4//10 5//10
f 3//11 5//11 13//11 7//11
f 7//12 9//12 15//12 16//12 14//12 8//12 6//12 13//12
f 3//13 5//13 4//13
f 25//14 26//14 27//14 28//14 29//14 30//14 31//14 32//14 33//14 34//14 35//14 36//14 37//14 38//14
f 1//15 25//15 26//15 2//15
f 2//16 26//16 27//16 11//16
f 11//17 27//17 28//17 12//17
f 12//18 28//18 29//18 24//18
f 24//19 29//19 30//19 23//19
f 23//20 30//20 31//20 21//20
f 21//21 31//21 32//21 22//21
f 22//22 32//22 33//22 9//22
f 9//23 33//23 34//23 7//23
f 7//24 34//24 35//24 3//24
f 3//15 35//15 36//15 4//15
f 4//25 36//25 37//25 6//25
f 6//23 37//23 38//23 8//23
f 8//26 38//26 25//26 1//26
