# Blender v2.92.0 OBJ File: ''
# www.blender.org
mtllib CG10_500_035059_0005.mtl
o CG10_500_035059_0005
v 279.422699 75.000000 -380.592468
v 152.944748 75.000000 -389.372498
v 150.975327 75.000000 -366.711517
v 36.356239 75.000000 -375.120453
v 215.528122 111.397713 -324.776642
v 213.690567 111.518806 -301.022217
v 154.912018 144.988419 -249.346817
v 267.062134 75.000000 -201.313995
v 295.916290 75.000000 -200.180740
v 148.185165 145.000000 -152.057114
v 202.277756 127.771538 -117.308670
v 174.713623 127.529137 -118.788841
v 283.192078 75.000000 -16.765896
v 12.804847 75.000000 -35.562424
v 279.422699 0.000000 -380.592468
v 152.944748 0.000000 -389.372498
v 150.975327 0.000000 -366.711517
v 36.356239 0.000000 -375.120453
v 12.804847 0.000000 -35.562424
v 283.192078 0.000000 -16.765896
v 295.916290 0.000000 -200.180740
v 267.062134 0.000000 -201.313995
vn 0.0376 0.8577 -0.5127
vn -0.4705 0.8815 -0.0409
vn -0.5180 -0.8546 -0.0357
vn -0.5144 -0.8568 -0.0357
vn -0.0338 0.8735 0.4856
vn -0.4816 0.8758 -0.0334
vn 0.0204 0.8536 -0.5205
vn 0.0359 0.8554 -0.5167
vn 0.0000 1.0000 0.0000
vn 0.0693 0.0000 -0.9976
vn -0.9962 0.0000 -0.0866
vn 0.0732 0.0000 -0.9973
vn -0.9976 0.0000 -0.0692
vn -0.0693 0.0000 0.9976
vn 0.9976 0.0000 0.0692
vn 0.0392 0.0000 -0.9992
vn 0.9976 0.0000 0.0688
usemtl None
s off
f 4//1 7//1 6//1 3//1
f 3//2 6//2 5//2 2//2
f 12//3 10//3 7//3 6//3 5//3 1//3 8//3
f 13//4 11//4 9//4
f 14//5 13//5 11//5 12//5 10//5
f 14//6 10//6 7//6 4//6
f 12//7 11//7 9//7 8//7
f 2//8 5//8 1//8
f 15//9 16//9 17//9 18//9 19//9 20//9 21//9 22//9
f 1//10 15//10 16//10 2//10
f 2//11 16//11 17//11 3//11
f 3//12 17//12 18//12 4//12
f 4//13 18//13 19//13 14//13
f 14//14 19//14 20//14 13//14
f 13//15 20//15 21//15 9//15
f 9//16 21//16 22//16 8//16
f 8//17 22//17 15//17 1//17
