# Blender v2.92.0 OBJ File: ''
# www.blender.org
mtllib CG10_500_041059_0003.mtl
o CG10_500_041059_0003
v 252.689911 75.000000 -315.368439
v 30.459675 75.000000 -328.878845
v 143.316208 144.930969 -286.015076
v 129.687332 145.000000 -59.639622
v 234.695862 75.000000 -14.139257
v 12.173641 75.000000 -27.666901
v 252.689911 0.000000 -315.368439
v 30.459675 0.000000 -328.878845
v 12.173641 0.000000 -27.666901
v 234.695862 0.000000 -14.139257
vn 0.0530 -0.4871 -0.8717
vn 0.5178 -0.8549 0.0314
vn -0.0540 -0.4571 0.8878
vn -0.5446 -0.8381 -0.0325
vn 0.0000 1.0000 0.0000
vn 0.0607 0.0000 -0.9982
vn -0.9982 0.0000 -0.0606
vn -0.0607 0.0000 0.9982
vn 0.9982 0.0000 0.0596
usemtl None
s off
f 6//1 4//1 5//1
f 6//2 2//2 3//2 4//2
f 2//3 1//3 3//3
f 5//4 4//4 3//4 1//4
f 7//5 8//5 9//5 10//5
f 1//6 7//6 8//6 2//6
f 2//7 8//7 9//7 6//7
f 6//8 9//8 10//8 5//8
f 5//9 10//9 7//9 1//9
