# Blender v2.92.0 OBJ File: ''
# www.blender.org
mtllib CG10_500_038071_0016.mtl
o CG10_500_038071_0016
v 13.373559 75.000000 -25.046686
v 183.409592 75.000000 -14.980947
v 97.852119 144.893051 -20.043856
v 10.218600 75.000000 -176.257614
v 22.164900 75.000000 -175.550430
v 12.616807 75.000000 -216.769974
v 24.531445 75.000000 -216.064636
v 201.289124 75.000000 -316.601013
v 115.600945 145.000000 -321.675262
v 30.992901 75.000000 -326.681915
v 13.373559 0.000000 -25.046686
v 183.409592 0.000000 -14.980947
v 201.289124 0.000000 -316.601013
v 30.992901 0.000000 -326.681915
v 24.531445 0.000000 -216.064636
v 12.616807 0.000000 -216.769974
v 10.218600 0.000000 -176.257614
v 22.164900 0.000000 -175.550430
vn -0.6309 -0.7750 -0.0374
vn 0.6357 -0.7710 0.0371
vn 0.0000 -1.0000 0.0000
vn 0.0591 0.0000 -0.9983
vn -0.0591 0.0000 0.9983
vn 0.0000 1.0000 0.0000
vn 0.9982 0.0000 0.0592
vn -0.9983 0.0000 -0.0583
vn -0.9983 0.0000 -0.0591
usemtl None
s off
f 3//1 9//1 8//1 2//1
f 3//2 1//2 5//2 7//2 10//2 9//2
f 5//3 4//3 6//3 7//3
f 1//4 3//4 2//4
f 8//5 9//5 10//5
f 11//6 12//6 13//6 14//6 15//6 16//6 17//6 18//6
f 1//5 11//5 12//5 2//5
f 2//7 12//7 13//7 8//7
f 8//4 13//4 14//4 10//4
f 10//8 14//8 15//8 7//8
f 7//4 15//4 16//4 6//4
f 6//9 16//9 17//9 4//9
f 4//5 17//5 18//5 5//5
f 5//8 18//8 11//8 1//8
