# Blender v2.92.0 OBJ File: ''
# www.blender.org
mtllib CG10_500_035060_0029_roof.mtl
o CG10_500_035060_0029_roof
v 84.732513 144.700851 -22.666059
v 166.642426 75.000000 -17.590025
v 7.215051 75.000000 -27.491041
v 187.684891 75.000000 -346.701538
v 105.424866 145.000000 -351.821625
v 27.573416 75.000000 -356.646393
v 166.642426 0.000000 -17.590025
v 7.215051 0.000000 -27.491041
v 27.573416 0.000000 -356.646393
v 187.684891 0.000000 -346.701538
vt 0.036625 0.926690
vt 0.430110 0.939560
vt 0.535150 0.061809
vt 0.139970 0.048943
vt 0.845900 0.953090
vt 0.952720 0.075463
vn -0.6666 0.7442 -0.0412
vn 0.6460 0.7622 0.0413
vn -0.0620 0.0002 0.9981
vn 0.0620 0.0002 -0.9981
usemtl None
s off
f 3/1/1 1/2/1 5/3/1 6/4/1
f 1/2/2 2/5/2 4/6/2 5/3/2
f 4/6/3 5/3/3 6/4/3
f 3/1/4 1/2/4 2/5/4
