# Blender v2.92.0 OBJ File: ''
# www.blender.org
mtllib CG10_500_036059_0035.mtl
o CG10_500_036059_0035
v 31.313160 75.000000 -292.898315
v 283.583191 75.000000 -276.992859
v 281.310913 75.000000 -240.249573
v 403.561035 75.000000 -232.819534
v 189.246140 145.000000 -188.580551
v 128.181305 144.990250 -192.443787
v 194.085388 140.893723 -182.534317
v 314.666840 141.057693 -148.310089
v 192.378143 140.941101 -155.901138
v 189.284439 140.999237 -108.234604
v 94.048958 75.000000 -96.790726
v 19.249922 75.000000 -101.539520
v 392.253052 75.000000 -53.438110
v 270.469696 75.000000 -61.155910
v 267.472412 75.000000 -13.841341
v 89.269241 75.000000 -25.075991
v 31.313160 0.000000 -292.898315
v 283.583191 0.000000 -276.992859
v 281.310913 0.000000 -240.249573
v 403.561035 0.000000 -232.819534
v 392.253052 0.000000 -53.438110
v 270.469696 0.000000 -61.155910
v 267.472412 0.000000 -13.841341
v 89.269241 0.000000 -25.075991
v 94.048958 0.000000 -96.790726
v 19.249922 0.000000 -101.539520
vn -0.0374 0.8042 0.5932
vn 0.6166 0.7863 0.0391
vn 0.0375 -0.8055 -0.5915
vn -0.6197 -0.7839 -0.0391
vn 0.0360 0.8054 -0.5917
vn 0.6183 0.7850 0.0382
vn 0.0375 0.8026 -0.5954
vn -0.5609 0.8271 -0.0354
vn 0.0369 -0.8127 -0.5815
vn 0.5723 -0.8192 0.0381
vn 0.0000 -1.0000 0.0000
vn -0.0629 0.0000 0.9980
vn -0.9981 0.0000 -0.0617
vn -0.0607 0.0000 0.9982
vn -0.9980 0.0000 -0.0629
vn 0.0632 0.0000 -0.9980
vn -0.9980 0.0000 -0.0632
vn 0.0629 0.0000 -0.9980
vn 0.9978 0.0000 0.0665
vn 0.0634 0.0000 -0.9980
vn 0.9980 0.0000 0.0629
usemtl None
s off
f 16//1 15//1 10//1
f 10//2 15//2 14//2 9//2
f 14//3 9//3 8//3 13//3
f 13//4 8//4 4//4
f 9//5 8//5 4//5 3//5
f 9//6 3//6 2//6 5//6 7//6
f 5//7 2//7 1//7 6//7
f 6//8 1//8 12//8
f 12//9 6//9 5//9 7//9 11//9
f 11//10 7//10 9//10 10//10 16//10
f 17//11 18//11 19//11 20//11 21//11 22//11 23//11 24//11 25//11 26//11
f 1//12 17//12 18//12 2//12
f 2//13 18//13 19//13 3//13
f 3//14 19//14 20//14 4//14
f 4//15 20//15 21//15 13//15
f 13//16 21//16 22//16 14//16
f 14//17 22//17 23//17 15//17
f 15//18 23//18 24//18 16//18
f 16//19 24//19 25//19 11//19
f 11//20 25//20 26//20 12//20
f 12//21 26//21 17//21 1//21
