# Blender v2.92.0 OBJ File: ''
# www.blender.org
mtllib CG10_500_035064_0014_roof.mtl
o CG10_500_035064_0014_roof
v 30.757982 75.000000 -255.340973
v 386.437378 75.000000 -235.499496
v 380.016205 145.000000 -124.350945
v 24.320307 144.778748 -144.545792
v 17.895489 75.000000 -33.355541
v 373.536438 75.000000 -12.810122
v 30.757982 0.000000 -255.340973
v 386.437378 0.000000 -235.499496
v 373.536438 0.000000 -12.810122
v 17.895489 0.000000 -33.355541
vt 0.060199 0.462660
vt 0.940630 0.537730
vt 0.924600 0.952380
vt 0.044296 0.876000
vt 0.076134 0.050777
vt 0.956530 0.124540
vn 0.0306 -0.8474 -0.5300
vn -0.0296 -0.8466 0.5314
vn 0.9983 -0.0003 0.0578
vn -0.9983 -0.0003 -0.0578
usemtl None
s off
f 4/1/1 3/2/1 6/3/1 5/4/1
f 4/1/2 1/5/2 2/6/2 3/2/2
f 2/6/3 3/2/3 6/3/3
f 5/4/4 4/1/4 1/5/4
