# Blender v2.92.0 OBJ File: ''
# www.blender.org
mtllib CG10_500_041073_0008_roof.mtl
o CG10_500_041073_0008_roof
v 143.557129 75.000000 -15.571161
v 63.660625 75.000000 -50.684738
v 174.017380 75.000000 -66.205505
v 167.138901 75.000000 -69.228516
v 9.664814 75.000000 -140.527191
v 88.015533 75.000000 -106.093010
v 54.808270 145.000000 -120.692520
v 161.062927 75.000000 -277.651123
v 249.804657 75.000000 -238.649857
v 86.605484 75.000000 -315.588989
v 130.579910 143.192780 -296.258392
v 162.933151 75.000000 -282.043518
v 143.557129 0.000000 -15.571161
v 63.660625 0.000000 -50.684738
v 88.015533 0.000000 -106.093010
v 9.664814 0.000000 -140.527191
v 86.605484 0.000000 -315.588989
v 162.933151 0.000000 -282.043518
v 161.062927 0.000000 -277.651123
v 249.804657 0.000000 -238.649857
v 174.017380 0.000000 -66.205505
v 167.138901 0.000000 -69.228516
vt 0.036889 0.575450
vt 0.330560 0.046559
vt 0.498400 0.104960
vt 0.209190 0.635370
vt 0.335940 0.679480
vt 0.614740 0.161170
vt 0.621880 0.147900
vt 0.953450 0.279000
vt 0.664190 0.799980
vt 0.637930 0.790850
vt 0.547930 0.952960
vt 0.242980 0.846870
vn 0.7484 -0.5759 0.3289
vn 0.8169 0.4601 0.3478
vn 0.0000 -1.0000 -0.0000
vn -0.4023 0.0001 0.9155
vn 0.4024 0.0001 -0.9155
usemtl None
s off
f 5/1/1 10/2/1 11/3/1 7/4/1
f 7/4/2 6/5/2 8/6/2 12/7/2 11/3/2
f 8/6/3 9/8/3 3/9/3 4/10/3 1/11/3 2/12/3 6/5/3
f 6/5/4 7/4/4 5/1/4
f 10/2/5 11/3/5 12/7/5
