# Blender v2.92.0 OBJ File: ''
# www.blender.org
mtllib CG10_500_042070_0004_roof.mtl
o CG10_500_042070_0004_roof
v 111.413307 75.000000 -326.374146
v 14.080489 75.000000 -91.146698
v 157.511673 144.999542 -199.766708
v 135.315475 145.000000 -146.122833
v 204.193542 110.281700 -172.857208
v 238.780396 110.188385 -158.434189
v 236.186447 75.000000 -108.176651
v 197.703354 75.000000 -15.167356
v 295.030884 75.000000 -250.396973
v 273.833954 75.000000 -199.166412
v 269.476471 75.000000 -94.425438
v 307.028931 75.000000 -185.182587
v 111.413307 0.000000 -326.374146
v 14.080489 0.000000 -91.146698
v 197.703354 0.000000 -15.167356
v 236.186447 0.000000 -108.176651
v 269.476471 0.000000 -94.425438
v 307.028931 0.000000 -185.182587
v 273.833954 0.000000 -199.166412
v 295.030884 0.000000 -250.396973
vt 0.043864 0.733490
vt 0.615900 0.955650
vt 0.421540 0.572740
vt 0.735780 0.683690
vt 0.636120 0.494570
vt 0.853070 0.417640
vt 0.919100 0.267850
vt 0.490690 0.415890
vt 0.839490 0.723900
vt 0.743860 0.536740
vt 0.956480 0.458530
vt 0.347080 0.045690
vn -0.2235 0.8113 0.5402
vn 0.5035 0.8385 0.2083
vn 0.2274 -0.8032 -0.5506
vn 0.5122 0.8323 0.2119
vn -0.2200 -0.8239 0.5224
vn -0.2202 -0.8175 0.5322
vn -0.5634 0.7926 -0.2331
usemtl None
s off
f 2/1/1 8/2/1 4/3/1
f 4/3/2 8/2/2 7/4/2 5/5/2 10/6/2 9/7/2 3/8/2
f 11/9/3 7/4/3 5/5/3 6/10/3
f 6/10/4 11/9/4 12/11/4
f 12/11/5 6/10/5 5/5/5 10/6/5
f 3/8/6 1/12/6 9/7/6
f 2/1/7 4/3/7 3/8/7 1/12/7
