# Blender v2.92.0 OBJ File: ''
# www.blender.org
mtllib CG10_500_045065_0005.mtl
o CG10_500_045065_0005
v 26.198868 75.000000 -150.179276
v 32.568817 75.000000 -316.131073
v 105.053360 130.375702 -226.375916
v 109.569153 75.000000 -108.697411
v 111.926003 75.000000 -146.314621
v 190.313416 130.562683 -222.801620
v 207.373215 144.509521 -200.242004
v 205.499741 75.000000 -23.978418
v 208.607819 75.000000 -103.494576
v 300.549042 135.979126 -183.482025
v 297.850555 136.078003 -110.760689
v 310.714172 145.000000 -195.495377
v 325.665955 135.826294 -209.327164
v 398.021606 75.000000 -85.939796
v 395.607300 75.000000 -16.679253
v 416.474182 75.000000 -122.656532
v 414.683228 75.000000 -84.302116
v 449.244110 135.930817 -204.407990
v 540.330933 75.000000 -117.583389
v 547.194763 75.000000 -296.329376
v 26.198868 0.000000 -150.179276
v 32.568817 0.000000 -316.131073
v 547.194763 0.000000 -296.329376
v 540.330933 0.000000 -117.583389
v 416.474182 0.000000 -122.656532
v 414.683228 0.000000 -84.302116
v 398.021606 0.000000 -85.939796
v 395.607300 0.000000 -16.679253
v 205.499741 0.000000 -23.978418
v 208.607819 0.000000 -103.494576
v 109.569153 0.000000 -108.697411
v 111.926003 0.000000 -146.314621
vn -0.5891 0.8077 -0.0226
vn -0.0257 0.8211 0.5702
vn -0.6021 0.7975 -0.0377
vn -0.0307 0.8116 0.5835
vn -0.5659 0.8242 -0.0221
vn -0.0215 0.8282 0.5600
vn 0.5173 0.8556 0.0180
vn -0.0559 0.8205 0.5688
vn 0.5396 0.8415 0.0252
vn -0.0242 0.8062 0.5912
vn 0.5421 0.8401 0.0208
vn 0.0207 0.8433 -0.5370
vn 0.0000 -1.0000 0.0000
vn 0.9993 0.0000 0.0384
vn -0.0384 0.0000 0.9993
vn -0.9993 0.0000 -0.0384
vn 0.0409 0.0000 -0.9992
vn -0.9989 0.0000 -0.0466
vn 0.0978 0.0000 -0.9952
vn -0.9994 0.0000 -0.0348
vn 0.0384 0.0000 -0.9993
vn 0.9992 0.0000 0.0391
vn 0.0525 0.0000 -0.9986
vn 0.9980 0.0000 0.0625
vn 0.0450 0.0000 -0.9990
usemtl None
s off
f 2//1 1//1 3//1
f 1//2 5//2 6//2 3//2
f 5//3 4//3 7//3 6//3
f 4//4 9//4 10//4 12//4 7//4
f 9//5 8//5 11//5 10//5
f 8//6 15//6 11//6
f 15//7 14//7 10//7 11//7
f 14//8 17//8 12//8 10//8
f 17//9 16//9 13//9 12//9
f 16//10 19//10 18//10 13//10
f 19//11 20//11 18//11
f 20//12 2//12 3//12 6//12 7//12 12//12 13//12 18//12
f 21//13 22//13 23//13 24//13 25//13 26//13 27//13 28//13 29//13 30//13 31//13 32//13
f 1//14 21//14 22//14 2//14
f 2//15 22//15 23//15 20//15
f 20//16 23//16 24//16 19//16
f 19//17 24//17 25//17 16//17
f 16//18 25//18 26//18 17//18
f 17//19 26//19 27//19 14//19
f 14//20 27//20 28//20 15//20
f 15//21 28//21 29//21 8//21
f 8//22 29//22 30//22 9//22
f 9//23 30//23 31//23 4//23
f 4//24 31//24 32//24 5//24
f 5//25 32//25 21//25 1//25
