# Blender v2.92.0 OBJ File: ''
# www.blender.org
mtllib CG10_500_034061_0023_roof.mtl
o CG10_500_034061_0023_roof
v 525.056274 75.000000 -60.451443
v 533.485779 75.000000 -215.221481
v 451.444977 127.805977 -140.891830
v 402.287628 75.000000 -67.224327
v 400.439545 75.000000 -42.954666
v 330.807709 127.777786 -147.506363
v 320.917145 75.000000 -47.675106
v 318.783813 75.000000 -11.653617
v 317.153931 136.434326 -135.332565
v 250.537155 125.049431 -87.027969
v 250.636841 125.440964 -98.315254
v 237.321732 136.300751 -139.881271
v 223.979523 144.985962 -127.647705
v 175.295746 75.000000 -19.475712
v 174.797928 75.000000 -30.430584
v 132.253983 145.000000 -132.624084
v 25.009558 75.000000 -38.524361
v 36.109104 75.000000 -242.319122
v 525.056274 0.000000 -60.451443
v 533.485779 0.000000 -215.221481
v 36.109104 0.000000 -242.319122
v 25.009558 0.000000 -38.524361
v 174.797928 0.000000 -30.430584
v 175.295746 0.000000 -19.475712
v 318.783813 0.000000 -11.653617
v 320.917145 0.000000 -47.675106
v 400.439545 0.000000 -42.954666
v 402.287628 0.000000 -67.224327
vt 0.313590 0.923620
vt 0.570280 0.954300
vt 0.448190 0.658710
vt 0.312700 0.880660
vt 0.448370 0.614450
vt 0.400680 0.499420
vt 0.424550 0.451450
vt 0.574090 0.813040
vt 0.236590 0.479910
vt 0.567360 0.469280
vt 0.591780 0.421540
vt 0.807590 0.447480
vt 0.954360 0.155990
vt 0.064596 0.049729
vt 0.044740 0.848920
vt 0.939280 0.762940
vt 0.716350 0.831550
vt 0.719660 0.736380
vn -0.0312 0.8194 0.5724
vn 0.5384 -0.8424 -0.0245
vn -0.5667 -0.8233 -0.0336
vn 0.0303 0.8303 -0.5564
vn -0.0310 0.8186 0.5736
vn -0.5651 0.8244 -0.0308
vn -0.5604 -0.8277 -0.0305
vn 0.0341 -0.8177 -0.5746
vn 0.0314 -0.8222 -0.5684
vn -0.5619 -0.8261 -0.0428
usemtl None
s off
f 14/1/1 8/2/1 10/3/1
f 15/4/2 11/5/2 10/3/2 14/1/2
f 8/2/3 10/3/3 11/5/3 13/6/3 12/7/3 7/8/3
f 16/9/4 13/6/4 12/7/4 9/10/4 6/11/4 3/12/4 2/13/4 18/14/4
f 17/15/5 15/4/5 11/5/5 13/6/5 16/9/5
f 17/15/6 16/9/6 18/14/6
f 1/16/7 3/12/7 2/13/7
f 7/8/8 12/7/8 9/10/8 5/17/8
f 6/11/9 3/12/9 1/16/9 4/18/9
f 9/10/10 6/11/10 4/18/10 5/17/10
