# Blender v2.92.0 OBJ File: ''
# www.blender.org
mtllib CG10_500_045068_0018.mtl
o CG10_500_045068_0018
v 329.860443 75.000000 -242.481293
v 236.018082 75.000000 -14.731485
v 185.283478 144.952362 -141.759537
v 203.143524 145.000000 -185.275208
v 155.259842 129.332550 -130.434265
v 120.096069 129.258163 -144.810532
v 109.456894 75.000000 -234.519363
v 144.005859 75.000000 -319.064056
v 15.210697 75.000000 -105.714561
v 74.181068 75.000000 -248.824005
v 329.860443 0.000000 -242.481293
v 236.018082 0.000000 -14.731485
v 15.210697 0.000000 -105.714561
v 74.181068 0.000000 -248.824005
v 109.456894 0.000000 -234.519363
v 144.005859 0.000000 -319.064056
vn -0.2212 0.8143 0.5367
vn 0.5471 0.8061 0.2254
vn 0.2168 0.8223 -0.5261
vn -0.5123 0.8329 -0.2093
vn 0.2125 0.8248 -0.5240
vn -0.5099 0.8342 -0.2101
vn 0.0000 -1.0000 0.0000
vn -0.9246 0.0000 -0.3810
vn 0.3810 0.0000 -0.9246
vn 0.9246 0.0000 0.3810
vn -0.3758 0.0000 0.9267
vn 0.9257 0.0000 0.3783
vn -0.3810 0.0000 0.9246
usemtl None
s off
f 9//1 2//1 3//1 5//1 6//1
f 2//2 1//2 4//2 3//2
f 1//3 8//3 4//3
f 8//4 7//4 5//4 3//4 4//4
f 7//5 10//5 6//5 5//5
f 10//6 9//6 6//6
f 11//7 12//7 13//7 14//7 15//7 16//7
f 1//8 11//8 12//8 2//8
f 2//9 12//9 13//9 9//9
f 9//10 13//10 14//10 10//10
f 10//11 14//11 15//11 7//11
f 7//12 15//12 16//12 8//12
f 8//13 16//13 11//13 1//13
