# Blender v2.92.0 OBJ File: ''
# www.blender.org
mtllib CG10_500_039062_0010_roof.mtl
o CG10_500_039062_0010_roof
v 12.530231 75.000000 -31.338404
v 35.968418 75.000000 -488.538452
v 97.082779 125.403618 -103.022133
v 105.008011 125.438087 -256.537933
v 137.629364 144.924622 -282.935577
v 147.995895 145.000000 -482.792572
v 174.617355 75.000000 -179.936295
v 166.486557 75.000000 -23.431526
v 230.114899 75.000000 -176.955032
v 245.876526 75.000000 -477.757843
v 12.530231 0.000000 -31.338404
v 35.968418 0.000000 -488.538452
v 245.876526 0.000000 -477.757843
v 230.114899 0.000000 -176.955032
v 174.617355 0.000000 -179.936295
v 166.486557 0.000000 -23.431526
vt 0.403880 0.501870
vt 0.529340 0.450610
vt 0.885060 0.656400
vt 0.671610 0.650610
vt 0.945680 0.072315
vt 0.569210 0.062539
vt 0.048193 0.939150
vt 0.640330 0.954500
vt 0.373400 0.799960
vt 0.138340 0.051382
vn 0.0306 -0.8218 -0.5689
vn 0.5804 0.8138 0.0304
vn -0.0284 0.8331 0.5523
vn 0.5651 0.8245 0.0294
vn 0.5287 -0.8484 0.0271
vn 0.0513 -0.0001 -0.9987
usemtl None
s off
f 4/1/1 5/2/1 9/3/1 7/4/1
f 5/2/2 9/3/2 10/5/2 6/6/2
f 1/7/3 8/8/3 3/9/3
f 8/8/4 7/4/4 4/1/4 3/9/4
f 3/9/5 1/7/5 2/10/5 6/6/5 5/2/5 4/1/5
f 2/10/6 6/6/6 10/5/6
