# Blender v2.92.0 OBJ File: ''
# www.blender.org
mtllib CG10_500_035060_0017_roof.mtl
o CG10_500_035060_0017_roof
v 398.663940 75.000000 -7.859006
v 409.175537 75.000000 -165.000809
v 405.282288 144.346329 -106.386490
v 19.186314 75.000000 -33.062439
v 29.801788 75.000000 -191.684998
v 25.815342 145.000000 -132.522125
v 398.663940 0.000000 -7.859006
v 409.175537 0.000000 -165.000809
v 29.801788 0.000000 -191.684998
v 19.186314 0.000000 -33.062439
vt 0.044828 0.834690
vt 0.931460 0.960700
vt 0.946920 0.468070
vt 0.060316 0.337390
vt 0.956020 0.175000
vt 0.069630 0.041575
vn -0.0381 0.8184 0.5734
vn 0.0535 0.6464 -0.7612
vn -0.9978 0.0004 -0.0667
vn 0.9978 0.0004 0.0668
usemtl None
s off
f 4/1/1 1/2/1 3/3/1 6/4/1
f 3/3/2 2/5/2 5/6/2 6/4/2
f 1/2/3 3/3/3 2/5/3
f 5/6/4 6/4/4 4/1/4
