# Blender v2.92.0 OBJ File: ''
# www.blender.org
mtllib CG10_500_035064_0040.mtl
o CG10_500_035064_0040
v 34.178806 75.000000 -306.227234
v 517.250244 75.000000 -277.353729
v 513.510071 115.306671 -214.735596
v 431.665192 115.040604 -220.042343
v 108.881996 123.317535 -226.430832
v 269.358948 123.346359 -216.794083
v 301.966675 145.000000 -181.085144
v 389.983429 144.962357 -175.883011
v 509.612671 75.000000 -149.604935
v 479.805115 75.000000 -151.694870
v 187.466187 75.000000 -144.788208
v 25.114948 75.000000 -154.583923
v 423.927704 116.787010 -128.952271
v 352.609955 75.000000 -66.456589
v 183.366272 75.000000 -76.344063
v 417.051697 116.941696 -17.587914
v 471.573364 75.000000 -14.341743
v 349.741547 75.000000 -21.624424
v 34.178806 0.000000 -306.227234
v 517.250244 0.000000 -277.353729
v 509.612671 0.000000 -149.604935
v 479.805115 0.000000 -151.694870
v 471.573364 0.000000 -14.341743
v 349.741547 0.000000 -21.624424
v 352.609955 0.000000 -66.456589
v 183.366272 0.000000 -76.344063
v 187.466187 0.000000 -144.788208
v 25.114948 0.000000 -154.583923
vn -0.5192 0.8541 -0.0310
vn -0.0321 0.8463 0.5317
vn -0.5286 0.8483 -0.0317
vn 0.0323 0.8413 -0.5396
vn -0.0310 0.8469 0.5309
vn -0.5271 0.8491 -0.0337
vn 0.6080 0.7931 0.0364
vn -0.0368 0.8507 0.5243
vn 0.9982 -0.0001 0.0597
vn -0.0597 -0.0003 0.9982
vn 0.0000 -1.0000 0.0000
vn -0.0597 0.0000 0.9982
vn -0.9982 0.0000 -0.0597
vn 0.0699 0.0000 -0.9976
vn -0.9982 0.0000 -0.0598
vn 0.0597 0.0000 -0.9982
vn 0.9980 0.0000 0.0639
vn 0.0583 0.0000 -0.9983
vn 0.9982 0.0000 0.0598
vn 0.0602 0.0000 -0.9982
vn 0.9982 0.0000 0.0597
usemtl None
s off
f 12//1 5//1 1//1
f 12//2 11//2 6//2 5//2
f 11//3 15//3 7//3 6//3
f 1//4 5//4 6//4 7//4 8//4 4//4 3//4 2//4
f 15//5 14//5 13//5 8//5 7//5
f 14//6 18//6 16//6 13//6
f 16//7 17//7 10//7 4//7 8//7 13//7
f 10//8 9//8 3//8 4//8
f 2//9 3//9 9//9
f 17//10 16//10 18//10
f 19//11 20//11 21//11 22//11 23//11 24//11 25//11 26//11 27//11 28//11
f 1//12 19//12 20//12 2//12
f 2//13 20//13 21//13 9//13
f 9//14 21//14 22//14 10//14
f 10//15 22//15 23//15 17//15
f 17//16 23//16 24//16 18//16
f 18//17 24//17 25//17 14//17
f 14//18 25//18 26//18 15//18
f 15//19 26//19 27//19 11//19
f 11//20 27//20 28//20 12//20
f 12//21 28//21 19//21 1//21
