# Blender v2.92.0 OBJ File: ''
# www.blender.org
mtllib CG10_500_042059_0024_roof.mtl
o CG10_500_042059_0024_roof
v 24.964691 75.000000 -378.218689
v 11.493119 75.000000 -102.277191
v 25.067770 75.000000 -101.614983
v 21.147503 75.000000 -21.252754
v 83.001465 75.000000 -18.235357
v 86.921745 75.000000 -98.597588
v 114.106003 145.000000 -143.379822
v 123.077072 144.996979 -327.225494
v 168.238647 112.490936 -205.657516
v 221.622314 75.000000 -92.026535
v 224.414520 75.000000 -149.277679
v 230.049927 74.742653 -256.534546
v 231.135712 75.000000 -287.088898
v 235.080292 75.000000 -367.968719
v 248.201477 111.453156 -200.272293
v 245.654800 75.000000 -148.241608
v 250.850037 74.736092 -254.741333
v 252.377548 75.000000 -286.052673
v 24.964691 0.000000 -378.218689
v 11.493119 0.000000 -102.277191
v 25.067770 0.000000 -101.614983
v 21.147503 0.000000 -21.252754
v 83.001465 0.000000 -18.235357
v 86.921745 0.000000 -98.597588
v 221.622314 0.000000 -92.026535
v 224.414520 0.000000 -149.277679
v 245.654800 0.000000 -148.241608
v 252.377548 0.000000 -286.052673
v 231.135712 0.000000 -287.088898
v 235.080292 0.000000 -367.968719
vt 0.079802 0.946600
vt 0.313210 0.954180
vt 0.328010 0.752270
vt 0.094595 0.744690
vt 0.043370 0.743020
vt 0.836310 0.768780
vt 0.430590 0.639750
vt 0.094206 0.049702
vt 0.464440 0.177830
vt 0.887100 0.075456
vt 0.872210 0.278670
vt 0.846850 0.624930
vt 0.634860 0.483270
vt 0.868110 0.355440
vt 0.936610 0.496800
vt 0.927000 0.627530
vt 0.952370 0.281270
vt 0.946600 0.359950
vn 0.0000 1.0000 -0.0000
vn -0.0407 0.5496 0.8344
vn -0.5709 0.8205 -0.0279
vn 0.0407 0.5505 -0.8339
vn 0.5366 0.8434 0.0262
vn 0.0279 -0.8193 -0.5727
vn -0.0004 1.0000 0.0084
vn -0.0483 -0.8293 0.5567
vn -0.9988 0.0002 -0.0487
usemtl None
s off
f 4/1/1 5/2/1 6/3/1 3/4/1
f 2/5/2 3/4/2 6/3/2 10/6/2 7/7/2
f 1/8/3 2/5/3 7/7/3 8/9/3
f 14/10/4 1/8/4 8/9/4
f 13/11/5 14/10/5 8/9/5 7/7/5 10/6/5 11/12/5 9/13/5 12/14/5
f 15/15/6 16/16/6 11/12/6 9/13/6
f 18/17/7 13/11/7 12/14/7 17/18/7
f 15/15/8 9/13/8 12/14/8 17/18/8
f 16/16/9 15/15/9 17/18/9 18/17/9
