# Blender v2.92.0 OBJ File: ''
# www.blender.org
mtllib CG10_500_041071_0031_roof.mtl
o CG10_500_041071_0031_roof
v 13.739510 75.000000 -110.672302
v 238.778763 75.000000 -14.800625
v 121.928459 144.994965 -157.257843
v 194.398926 145.000000 -126.390480
v 113.930000 132.311279 -176.059570
v 135.978668 132.308807 -227.821625
v 200.268478 75.000000 -208.857788
v 302.829254 75.000000 -165.182693
v 99.964455 75.000000 -313.067627
v 222.435455 75.000000 -260.904999
v 13.739510 0.000000 -110.672302
v 238.778763 0.000000 -14.800625
v 302.829254 0.000000 -165.182693
v 200.268478 0.000000 -208.857788
v 222.435455 0.000000 -260.904999
v 99.964455 0.000000 -313.067627
vt 0.755630 0.954880
vt 0.615190 0.614660
vt 0.958320 0.496390
vt 0.043479 0.662580
vt 0.385850 0.520560
vt 0.633760 0.363240
vt 0.360540 0.463230
vt 0.703910 0.204560
vt 0.430310 0.305420
vt 0.316340 0.045525
vn -0.5867 -0.7703 -0.2499
vn 0.2487 -0.7729 -0.5837
vn 0.2614 0.7450 -0.6138
vn 0.6002 0.7579 0.2556
vn 0.2607 0.7466 -0.6121
vn -0.6004 0.7577 -0.2558
usemtl None
s off
f 2/1/1 4/2/1 8/3/1
f 2/1/2 1/4/2 3/5/2 4/2/2
f 4/2/3 8/3/3 7/6/3 5/7/3 3/5/3
f 7/6/4 10/8/4 6/9/4 5/7/4
f 10/8/5 9/10/5 6/9/5
f 9/10/6 1/4/6 3/5/6 5/7/6 6/9/6
