# Blender v2.92.0 OBJ File: ''
# www.blender.org
mtllib CG10_500_033059_0019_roof.mtl
o CG10_500_033059_0019_roof
v 15.201203 75.000000 -21.740959
v 33.114853 75.000000 -360.463318
v 80.877838 107.882965 -260.149628
v 72.064003 108.583946 -72.100983
v 86.078896 107.909958 -357.670929
v 74.662766 108.682739 -118.225319
v 133.194107 75.000000 -305.075775
v 118.104942 75.000000 -16.316835
v 135.880096 75.000000 -355.045258
v 120.895630 75.000000 -63.226631
v 135.854141 144.865234 -171.137299
v 137.769608 145.000000 -203.243301
v 154.199936 134.552048 -217.528030
v 205.550247 134.604660 -214.707779
v 231.913528 75.000000 -57.049202
v 236.148544 75.000000 -121.329834
v 288.162842 75.000000 -118.391174
v 297.542603 75.000000 -296.293854
v 15.201203 0.000000 -21.740959
v 33.114853 0.000000 -360.463318
v 135.880096 0.000000 -355.045258
v 133.194107 0.000000 -305.075775
v 297.542603 0.000000 -296.293854
v 288.162842 0.000000 -118.391174
v 236.148544 0.000000 -121.329834
v 231.913528 0.000000 -57.049202
v 120.895630 0.000000 -63.226631
v 118.104942 0.000000 -16.316835
vt 0.048566 0.942480
vt 0.377330 0.956830
vt 0.230240 0.809260
vt 0.386250 0.832730
vt 0.238540 0.687230
vt 0.434040 0.547260
vt 0.440160 0.462320
vt 0.258400 0.311770
vt 0.275010 0.053781
vt 0.105800 0.046393
vt 0.740940 0.849080
vt 0.754470 0.679020
vt 0.492650 0.424530
vt 0.920650 0.686800
vt 0.656710 0.431990
vt 0.950620 0.216150
vt 0.425540 0.192920
vt 0.434120 0.060727
vn -0.0281 0.8460 0.5325
vn 0.5622 0.8263 0.0334
vn -0.5265 0.8497 -0.0278
vn -0.0301 0.8409 0.5403
vn 0.5588 0.8285 0.0368
vn -0.0308 0.8379 0.5449
vn 0.5619 0.8267 0.0296
vn 0.0303 0.8231 -0.5671
vn 0.5500 0.8346 0.0296
vn 0.0527 -0.0000 -0.9986
usemtl None
s off
f 1/1/1 8/2/1 4/3/1
f 4/3/2 8/2/2 10/4/2 6/5/2
f 1/1/3 4/3/3 6/5/3 11/6/3 12/7/3 3/8/3 5/9/3 2/10/3
f 6/5/4 10/4/4 15/11/4 11/6/4
f 11/6/5 15/11/5 16/12/5 13/13/5 12/7/5
f 16/12/6 17/14/6 14/15/6 13/13/6
f 14/15/7 17/14/7 18/16/7
f 3/8/8 12/7/8 13/13/8 14/15/8 18/16/8 7/17/8
f 3/8/9 7/17/9 9/18/9 5/9/9
f 2/10/10 5/9/10 9/18/10
