# Blender v2.92.0 OBJ File: ''
# www.blender.org
mtllib CG10_500_041070_0051_roof.mtl
o CG10_500_041070_0051_roof
v 25.336676 75.000000 -42.319920
v 33.012882 75.000000 -161.808731
v 84.618233 113.707809 -98.375984
v 163.375473 75.000000 -153.680557
v 167.222931 75.000000 -214.043991
v 215.916809 113.795898 -90.052429
v 246.911774 133.778992 -118.966446
v 270.025543 75.000000 -208.420242
v 272.071655 75.000000 -244.374573
v 351.668884 134.108749 -112.726830
v 368.585480 144.982697 -128.457382
v 398.688416 145.000000 -126.544556
v 459.904388 109.696373 -178.136032
v 473.814972 109.979324 -176.820435
v 504.394409 75.000000 -11.453338
v 512.527466 75.000000 -124.260506
v 524.576477 75.000000 -122.785912
v 531.359009 75.000000 -228.132736
v 25.336676 0.000000 -42.319920
v 33.012882 0.000000 -161.808731
v 163.375473 0.000000 -153.680557
v 167.222931 0.000000 -214.043991
v 270.025543 0.000000 -208.420242
v 272.071655 0.000000 -244.374573
v 531.359009 0.000000 -228.132736
v 524.576477 0.000000 -122.785912
v 512.527466 0.000000 -124.260506
v 504.394409 0.000000 -11.453338
vt 0.045488 0.834690
vt 0.151920 0.615720
vt 0.059269 0.367930
vt 0.387640 0.648230
vt 0.443290 0.535290
vt 0.631360 0.559660
vt 0.661730 0.498210
vt 0.715780 0.505690
vt 0.905560 0.955260
vt 0.293310 0.399690
vt 0.300220 0.163890
vt 0.484790 0.185860
vt 0.488460 0.045412
vt 0.825680 0.304160
vt 0.850660 0.309300
vt 0.953970 0.108860
vt 0.941790 0.520370
vt 0.920160 0.514610
vn -0.5704 0.8205 -0.0366
vn 0.0350 -0.8393 -0.5426
vn 0.0337 0.8407 -0.5404
vn -0.5650 0.8243 -0.0360
vn 0.0297 0.8389 -0.5435
vn -0.5613 0.8270 -0.0319
vn 0.0336 0.8430 -0.5369
vn 0.5416 0.8399 0.0349
vn -0.0721 0.8050 0.5888
vn 0.5229 0.8516 0.0377
usemtl None
s off
f 1/1/1 3/2/1 2/3/1
f 1/1/2 3/2/2 6/4/2 7/5/2 10/6/2 11/7/2 12/8/2 15/9/2
f 2/3/3 3/2/3 6/4/3 4/10/3
f 4/10/4 6/4/4 7/5/4 5/11/4
f 5/11/5 7/5/5 10/6/5 8/12/5
f 8/12/6 10/6/6 11/7/6 9/13/6
f 9/13/7 11/7/7 12/8/7 13/14/7 14/15/7 18/16/7
f 18/16/8 14/15/8 17/17/8
f 17/17/9 14/15/9 13/14/9 16/18/9
f 16/18/10 13/14/10 12/8/10 15/9/10
