# Blender v2.92.0 OBJ File: ''
# www.blender.org
mtllib CG10_500_044070_0022.mtl
o CG10_500_044070_0022
v 280.951599 75.000000 -10.036964
v 15.355630 75.000000 -117.810715
v 298.242615 145.000000 -52.775570
v 32.560825 144.673325 -160.351944
v 315.220154 75.000000 -94.753654
v 49.464012 75.000000 -202.132156
v 280.951599 0.000000 -10.036964
v 15.355630 0.000000 -117.810715
v 49.464012 0.000000 -202.132156
v 315.220154 0.000000 -94.753654
vn 0.3145 0.5431 -0.7785
vn -0.3140 0.5500 0.7739
vn -0.9270 -0.0000 -0.3750
vn 0.9270 -0.0000 0.3750
vn 0.0000 -1.0000 0.0000
vn 0.3760 0.0000 -0.9266
vn -0.3746 0.0000 0.9272
usemtl None
s off
f 4//1 3//1 5//1 6//1
f 4//2 2//2 1//2 3//2
f 2//3 4//3 6//3
f 5//4 3//4 1//4
f 7//5 8//5 9//5 10//5
f 1//6 7//6 8//6 2//6
f 2//4 8//4 9//4 6//4
f 6//7 9//7 10//7 5//7
f 5//3 10//3 7//3 1//3
