# Blender v2.92.0 OBJ File: ''
# www.blender.org
mtllib CG10_500_039057_0041.mtl
o CG10_500_039057_0041
v 138.181946 75.000000 -358.932343
v 14.642429 75.000000 -85.027908
v 177.773575 144.768036 -247.528427
v 122.673470 145.000000 -124.701530
v 217.606842 119.794746 -263.050781
v 248.481873 119.794937 -249.126938
v 166.642242 75.000000 -16.491198
v 244.896805 75.000000 -191.906235
v 274.787964 75.000000 -178.425842
v 319.342377 75.000000 -277.235199
v 138.181946 0.000000 -358.932343
v 14.642429 0.000000 -85.027908
v 166.642242 0.000000 -16.491198
v 244.896805 0.000000 -191.906235
v 274.787964 0.000000 -178.425842
v 319.342377 0.000000 -277.235199
vn -0.2696 0.7549 0.5979
vn -0.2635 0.7675 0.5843
vn 0.5882 0.7640 0.2652
vn 0.2603 0.7740 -0.5772
vn 0.5912 -0.7612 0.2666
vn -0.5837 -0.7691 -0.2604
vn 0.0000 1.0000 0.0000
vn -0.9116 0.0000 -0.4111
vn -0.4110 0.0000 0.9116
vn 0.9132 0.0000 0.4074
vn -0.4111 0.0000 0.9116
vn 0.9116 0.0000 0.4111
vn 0.4111 0.0000 -0.9116
usemtl None
s off
f 2//1 7//1 4//1
f 8//2 9//2 6//2 5//2
f 9//3 10//3 6//3
f 10//4 1//4 3//4 5//4 6//4
f 2//5 1//5 3//5 4//5
f 4//6 3//6 5//6 8//6 7//6
f 11//7 12//7 13//7 14//7 15//7 16//7
f 1//8 11//8 12//8 2//8
f 2//9 12//9 13//9 7//9
f 7//10 13//10 14//10 8//10
f 8//11 14//11 15//11 9//11
f 9//12 15//12 16//12 10//12
f 10//13 16//13 11//13 1//13
