# Blender v2.92.0 OBJ File: ''
# www.blender.org
mtllib CG10_500_039068_0018.mtl
o CG10_500_039068_0018
v 25.832237 75.000000 -225.836563
v 319.398499 75.000000 -206.975815
v 233.259430 144.993469 -132.336823
v 108.725838 145.000000 -140.330261
v 252.557358 127.095825 -109.094421
v 250.557404 127.088615 -77.935173
v 183.910843 75.000000 -49.444862
v 15.203465 75.000000 -60.262794
v 181.978821 75.000000 -19.208687
v 306.779816 75.000000 -11.197160
v 25.832237 0.000000 -225.836563
v 319.398499 0.000000 -206.975815
v 306.779816 0.000000 -11.197160
v 181.978821 0.000000 -19.208687
v 183.910843 0.000000 -49.444862
v 15.203465 0.000000 -60.262794
vn -0.0404 0.7752 0.6305
vn -0.6259 0.7789 -0.0400
vn -0.0408 0.7707 0.6359
vn 0.6204 -0.7833 0.0398
vn 0.6517 0.7573 0.0420
vn -0.0422 -0.7526 0.6571
vn 0.0000 -1.0000 0.0000
vn -0.0641 0.0000 0.9979
vn -0.9979 0.0000 -0.0643
vn 0.0641 0.0000 -0.9979
vn 0.9980 0.0000 0.0638
vn 0.0640 0.0000 -0.9980
vn 0.9979 0.0000 0.0641
usemtl None
s off
f 8//1 7//1 5//1 3//1 4//1
f 7//2 9//2 6//2 5//2
f 9//3 10//3 6//3
f 8//4 1//4 4//4
f 10//5 2//5 3//5 5//5 6//5
f 1//6 2//6 3//6 4//6
f 11//7 12//7 13//7 14//7 15//7 16//7
f 1//8 11//8 12//8 2//8
f 2//9 12//9 13//9 10//9
f 10//10 13//10 14//10 9//10
f 9//11 14//11 15//11 7//11
f 7//12 15//12 16//12 8//12
f 8//13 16//13 11//13 1//13
