# Blender v2.92.0 OBJ File: ''
# www.blender.org
mtllib CG10_500_041071_0013_roof.mtl
o CG10_500_041071_0013_roof
v 21.214241 75.000000 -170.981812
v 15.063500 75.000000 -69.331779
v 37.003414 75.000000 -68.009064
v 34.107384 75.000000 -20.127140
v 56.551327 75.000000 -263.726013
v 52.271904 75.000000 -169.575760
v 69.857971 116.554466 -118.307014
v 103.775223 115.993217 -213.482208
v 102.523941 115.931953 -187.580994
v 100.277344 116.739189 -116.705498
v 135.926392 145.000000 -150.110565
v 152.877975 75.000000 -257.911041
v 151.677780 75.000000 -234.383743
v 161.832581 75.000000 -60.483387
v 158.935089 75.000000 -12.577236
v 239.237549 144.929794 -143.793823
v 329.782074 75.000000 -223.346512
v 319.357513 75.000000 -50.986546
v 21.214241 0.000000 -170.981812
v 15.063500 0.000000 -69.331779
v 37.003414 0.000000 -68.009064
v 34.107384 0.000000 -20.127140
v 158.935089 0.000000 -12.577236
v 161.832581 0.000000 -60.483387
v 319.357513 0.000000 -50.986546
v 329.782074 0.000000 -223.346512
v 151.677780 0.000000 -234.383743
v 152.877975 0.000000 -257.911041
v 56.551327 0.000000 -263.726013
v 52.271904 0.000000 -169.575760
vt 0.099149 0.927080
vt 0.462020 0.954430
vt 0.470440 0.780860
vt 0.107570 0.753590
vt 0.043789 0.748800
vt 0.203080 0.571350
vt 0.061669 0.380500
vt 0.291500 0.577150
vt 0.151950 0.385600
vt 0.301670 0.226510
vt 0.164390 0.044471
vt 0.444410 0.065540
vt 0.395130 0.456120
vt 0.695460 0.479010
vt 0.928360 0.815270
vt 0.958670 0.190770
vt 0.298030 0.320360
vt 0.440920 0.150780
vn 0.0000 1.0000 0.0000
vn -0.6251 0.7797 -0.0378
vn 0.0288 0.7717 -0.6353
vn -0.0395 -0.7557 0.6537
vn 0.0375 -0.7823 -0.6218
vn -0.6316 -0.7743 -0.0382
vn -0.0393 -0.7722 0.6341
vn 0.6375 -0.7699 0.0290
vn -0.6582 -0.7521 -0.0336
usemtl None
s off
f 4/1/1 15/2/1 14/3/1 3/4/1
f 2/5/2 7/6/2 1/7/2
f 1/7/3 7/6/3 10/8/3 6/9/3
f 8/10/4 5/11/4 12/12/4
f 2/5/5 7/6/5 10/8/5 11/13/5 16/14/5 18/15/5 14/3/5 3/4/5
f 18/15/6 16/14/6 17/16/6
f 16/14/7 11/13/7 9/17/7 13/18/7 17/16/7
f 9/17/8 11/13/8 10/8/8 6/9/8 5/11/8 8/10/8
f 9/17/9 8/10/9 12/12/9 13/18/9
