# Blender v2.92.0 OBJ File: ''
# www.blender.org
mtllib CG10_500_040066_0009.mtl
o CG10_500_040066_0009
v 486.539734 75.000000 -43.326748
v 496.971954 75.000000 -202.192413
v 421.164154 129.394470 -130.578751
v 298.773773 75.000000 -11.113761
v 302.231567 75.000000 -55.958279
v 234.775131 129.206345 -143.066620
v 211.566681 145.000000 -122.351814
v 202.540512 139.042419 -131.331741
v 127.878593 139.051178 -136.215591
v 94.856377 75.000000 -24.502581
v 95.863976 75.000000 -43.732815
v 22.871159 75.000000 -48.494858
v 34.952663 75.000000 -232.490646
v 486.539734 0.000000 -43.326748
v 496.971954 0.000000 -202.192413
v 34.952663 0.000000 -232.490646
v 22.871159 0.000000 -48.494858
v 95.863976 0.000000 -43.732815
v 94.856377 0.000000 -24.502581
v 298.773773 0.000000 -11.113761
v 302.231567 0.000000 -55.958279
vn -0.0376 0.8351 0.5488
vn -0.0366 0.8274 0.5604
vn 0.5419 -0.8397 0.0356
vn -0.6071 -0.7936 -0.0399
vn 0.0379 0.8147 -0.5786
vn -0.0363 0.8327 0.5525
vn 0.5312 -0.8468 0.0278
vn 0.5894 0.8065 0.0454
vn 0.0000 1.0000 0.0000
vn 0.9979 0.0000 0.0655
vn 0.0654 0.0000 -0.9979
vn -0.9979 0.0000 -0.0655
vn -0.0651 0.0000 0.9979
vn -0.9986 0.0000 -0.0523
vn -0.0655 0.0000 0.9979
vn 0.9970 0.0000 0.0769
vn -0.0684 0.0000 0.9977
usemtl None
s off
f 6//1 5//1 1//1 3//1
f 8//2 9//2 12//2 11//2
f 9//3 12//3 13//3
f 3//4 2//4 1//4
f 2//5 13//5 9//5 8//5 7//5 6//5 3//5
f 7//6 10//6 4//6
f 8//7 7//7 10//7 11//7
f 7//8 4//8 5//8 6//8
f 14//9 15//9 16//9 17//9 18//9 19//9 20//9 21//9
f 1//10 14//10 15//10 2//10
f 2//11 15//11 16//11 13//11
f 13//12 16//12 17//12 12//12
f 12//13 17//13 18//13 11//13
f 11//14 18//14 19//14 10//14
f 10//15 19//15 20//15 4//15
f 4//16 20//16 21//16 5//16
f 5//17 21//17 14//17 1//17
