# Blender v2.92.0 OBJ File: ''
# www.blender.org
mtllib CG10_500_041068_0001_roof.mtl
o CG10_500_041068_0001_roof
v 113.649788 75.000000 -16.847111
v 9.037697 75.000000 -24.078798
v 65.733231 113.683342 -71.193451
v 121.597481 75.000000 -126.886017
v 206.905533 75.000000 -121.339615
v 73.549301 113.815742 -181.866638
v 232.781509 75.000000 -194.508286
v 212.061371 75.000000 -195.940750
v 119.300537 144.998596 -220.551453
v 121.162483 145.000000 -247.519867
v 216.918457 75.000000 -266.219360
v 237.640106 75.000000 -264.786804
v 31.683496 75.000000 -352.420135
v 221.966782 75.000000 -339.265167
v 113.649788 0.000000 -16.847111
v 9.037697 0.000000 -24.078798
v 31.683496 0.000000 -352.420135
v 221.966782 0.000000 -339.265167
v 216.918457 0.000000 -266.219360
v 237.640106 0.000000 -264.786804
v 232.781509 0.000000 -194.508286
v 212.061371 0.000000 -195.940750
v 206.905533 0.000000 -121.339615
v 121.597481 0.000000 -126.886017
vt 0.295380 0.507140
vt 0.488340 0.656140
vt 0.456420 0.954340
vt 0.263990 0.807060
vt 0.036296 0.934750
vt 0.486600 0.329210
vt 0.127240 0.044932
vt 0.479120 0.402300
vt 0.891430 0.080582
vt 0.830950 0.671170
vt 0.851650 0.469000
vt 0.871160 0.278540
vt 0.934870 0.472880
vt 0.954380 0.282420
vn -0.5975 -0.8007 -0.0432
vn -0.0417 0.7962 0.6035
vn -0.5858 0.8094 -0.0404
vn 0.0400 0.8151 -0.5780
vn -0.0389 0.8000 0.5988
vn 0.5949 0.8028 0.0411
vn 0.0000 -1.0000 0.0000
usemtl None
s off
f 6/1/1 4/2/1 1/3/1 3/4/1
f 1/3/2 3/4/2 2/5/2
f 10/6/3 13/7/3 2/5/3 3/4/3 6/1/3 9/8/3
f 14/9/4 13/7/4 10/6/4
f 5/10/5 9/8/5 6/1/5 4/2/5
f 5/10/6 8/11/6 11/12/6 14/9/6 10/6/6 9/8/6
f 7/13/7 8/11/7 11/12/7 12/14/7
