# Blender v2.92.0 OBJ File: ''
# www.blender.org
mtllib CG10_500_038065_0012.mtl
o CG10_500_038065_0012
v 22.760866 75.000000 -80.087723
v 36.926147 75.000000 -318.928284
v 84.617203 121.406998 -134.262527
v 88.935684 121.559219 -203.832901
v 120.160339 145.000000 -230.863373
v 139.088211 75.000000 -143.469864
v 134.563080 75.000000 -73.436180
v 311.565247 75.000000 -133.208115
v 305.119324 75.000000 -23.577843
v 388.876038 144.989120 -214.862381
v 397.227478 137.328888 -204.925095
v 390.817657 137.274582 -97.115837
v 458.598450 75.000000 -14.445662
v 475.312073 75.000000 -292.803040
v 22.760866 0.000000 -80.087723
v 36.926147 0.000000 -318.928284
v 475.312073 0.000000 -292.803040
v 458.598450 0.000000 -14.445662
v 305.119324 0.000000 -23.577843
v 311.565247 0.000000 -133.208115
v 139.088211 0.000000 -143.469864
v 134.563080 0.000000 -73.436180
vn 0.0372 -0.7795 -0.6253
vn 0.6201 -0.7836 0.0368
vn -0.6521 -0.7570 -0.0421
vn 0.0375 -0.7760 -0.6297
vn 0.6074 -0.7936 0.0357
vn 0.0369 -0.7834 -0.6204
vn -0.6498 -0.7591 -0.0390
vn -0.0384 -0.7643 0.6438
vn 0.0000 -1.0000 0.0000
vn 0.9982 0.0000 0.0592
vn -0.0595 0.0000 0.9982
vn -0.9982 0.0000 -0.0599
vn 0.0594 0.0000 -0.9982
vn 0.9983 0.0000 0.0587
vn -0.9979 0.0000 -0.0645
usemtl None
s off
f 1//1 3//1 7//1
f 1//2 2//2 5//2 4//2 3//2
f 7//3 3//3 4//3 6//3
f 6//4 4//4 5//4 10//4 11//4 8//4
f 9//5 8//5 11//5 12//5
f 9//6 12//6 13//6
f 13//7 12//7 11//7 10//7 14//7
f 2//8 14//8 10//8 5//8
f 15//9 16//9 17//9 18//9 19//9 20//9 21//9 22//9
f 1//10 15//10 16//10 2//10
f 2//11 16//11 17//11 14//11
f 14//12 17//12 18//12 13//12
f 13//13 18//13 19//13 9//13
f 9//14 19//14 20//14 8//14
f 8//13 20//13 21//13 6//13
f 6//15 21//15 22//15 7//15
f 7//13 22//13 15//13 1//13
