# Blender v2.92.0 OBJ File: ''
# www.blender.org
mtllib CG10_500_040059_0032.mtl
o CG10_500_040059_0032
v 28.585943 75.000000 -327.117584
v 132.383072 75.000000 -322.647766
v 79.605385 109.359108 -275.210236
v 128.712372 75.000000 -238.798676
v 271.890228 75.000000 -232.529343
v 75.967186 109.369385 -192.449905
v 200.734436 109.591179 -186.672714
v 221.350906 109.665527 -185.664719
v 147.993607 145.000000 -138.852173
v 128.856522 144.956131 -139.752228
v 247.533218 75.000000 -131.613937
v 267.496338 75.000000 -130.528595
v 71.253029 109.336472 -86.838867
v 70.315468 109.142731 -72.413269
v 115.347183 75.000000 -30.788343
v 242.554169 75.000000 -24.348545
v 15.043643 75.000000 -20.407288
v 114.116432 75.000000 -16.151180
v 28.585943 0.000000 -327.117584
v 132.383072 0.000000 -322.647766
v 128.712372 0.000000 -238.798676
v 271.890228 0.000000 -232.529343
v 267.496338 0.000000 -130.528595
v 247.533218 0.000000 -131.613937
v 242.554169 0.000000 -24.348545
v 115.347183 0.000000 -30.788343
v 114.116432 0.000000 -16.151180
v 15.043643 0.000000 -20.407288
vn -0.5747 -0.8169 -0.0483
vn 0.0272 -0.8427 -0.5377
vn -0.5737 -0.8186 -0.0266
vn 0.0299 -0.8347 -0.5498
vn -0.5811 -0.8134 -0.0250
vn -0.0253 -0.8165 0.5767
vn -0.5608 -0.8276 -0.0246
vn -0.0245 -0.8224 0.5684
vn 0.0228 -0.8467 -0.5316
vn -0.5416 0.8403 -0.0239
vn 0.0000 -1.0000 0.0000
vn -0.0430 0.0000 0.9991
vn -0.9990 0.0000 -0.0437
vn -0.0437 0.0000 0.9990
vn -0.9991 0.0000 -0.0430
vn 0.0543 0.0000 -0.9985
vn -0.9989 0.0000 -0.0464
vn 0.0506 0.0000 -0.9987
vn -0.9965 0.0000 -0.0838
vn 0.0429 0.0000 -0.9991
vn 0.9990 0.0000 0.0441
usemtl None
s off
f 18//1 14//1 13//1 15//1
f 15//2 13//2 10//2 9//2 16//2
f 16//3 9//3 7//3 11//3
f 11//4 7//4 8//4 12//4
f 12//5 8//5 5//5
f 5//6 8//6 7//6 9//6 10//6 6//6 4//6
f 4//7 6//7 3//7 2//7
f 2//8 3//8 1//8
f 17//9 14//9 18//9
f 17//10 14//10 13//10 10//10 6//10 3//10 1//10
f 19//11 20//11 21//11 22//11 23//11 24//11 25//11 26//11 27//11 28//11
f 1//12 19//12 20//12 2//12
f 2//13 20//13 21//13 4//13
f 4//14 21//14 22//14 5//14
f 5//15 22//15 23//15 12//15
f 12//16 23//16 24//16 11//16
f 11//17 24//17 25//17 16//17
f 16//18 25//18 26//18 15//18
f 15//19 26//19 27//19 18//19
f 18//20 27//20 28//20 17//20
f 17//21 28//21 19//21 1//21
