# Blender v2.92.0 OBJ File: ''
# www.blender.org
mtllib CG10_500_039058_0006.mtl
o CG10_500_039058_0006
v 324.300995 75.000000 -9.061041
v 336.009735 75.000000 -192.217255
v 272.604248 121.774239 -65.583534
v 272.966095 122.527687 -85.180794
v 248.289230 144.936127 -113.664833
v 215.055069 75.000000 -16.047878
v 214.582367 75.000000 -31.771404
v 20.692255 145.000000 -128.139648
v 15.340198 75.000000 -44.375721
v 26.054663 75.000000 -212.034592
v 324.300995 0.000000 -9.061041
v 336.009735 0.000000 -192.217255
v 26.054663 0.000000 -212.034592
v 15.340198 0.000000 -44.375721
v 214.582367 0.000000 -31.771404
v 215.055069 0.000000 -16.047878
vn 0.6452 0.7629 0.0412
vn -0.0422 0.7504 0.6596
vn 0.6209 -0.7837 -0.0187
vn -0.0408 -0.7685 0.6386
vn 0.0404 -0.7680 -0.6392
vn 0.9980 0.0000 0.0638
vn 0.0000 1.0000 0.0000
vn 0.0638 0.0000 -0.9980
vn -0.9980 0.0000 -0.0638
vn -0.0631 0.0000 0.9980
vn -0.9995 0.0000 0.0300
vn -0.0638 0.0000 0.9980
usemtl None
s off
f 1//1 2//1 5//1 4//1 3//1
f 3//2 6//2 1//2
f 6//3 7//3 4//3 3//3
f 8//4 10//4 2//4 5//4
f 9//5 8//5 5//5 4//5 7//5
f 10//6 8//6 9//6
f 11//7 12//7 13//7 14//7 15//7 16//7
f 1//6 11//6 12//6 2//6
f 2//8 12//8 13//8 10//8
f 10//9 13//9 14//9 9//9
f 9//10 14//10 15//10 7//10
f 7//11 15//11 16//11 6//11
f 6//12 16//12 11//12 1//12
