# Blender v2.92.0 OBJ File: ''
# www.blender.org
mtllib CG10_500_042067_0006.mtl
o CG10_500_042067_0006
v 334.355560 75.000000 -208.323898
v 26.515673 75.000000 -226.807053
v 226.200623 145.000000 -110.828171
v 117.260971 144.992096 -117.380806
v 322.276825 75.000000 -7.850039
v 14.440738 75.000000 -26.397179
v 334.355560 0.000000 -208.323898
v 26.515673 0.000000 -226.807053
v 14.440738 0.000000 -26.397179
v 322.276825 0.000000 -7.850039
vn 0.5834 -0.8114 0.0352
vn 0.0352 -0.8109 -0.5841
vn -0.5645 -0.8248 -0.0340
vn -0.0335 -0.8291 0.5581
vn 0.0000 1.0000 0.0000
vn 0.0599 0.0000 -0.9982
vn -0.9982 0.0000 -0.0601
vn -0.0601 0.0000 0.9982
vn 0.9982 0.0000 0.0601
usemtl None
s off
f 6//1 2//1 4//1
f 6//2 4//2 3//2 5//2
f 5//3 3//3 1//3
f 1//4 3//4 4//4 2//4
f 7//5 8//5 9//5 10//5
f 1//6 7//6 8//6 2//6
f 2//7 8//7 9//7 6//7
f 6//8 9//8 10//8 5//8
f 5//9 10//9 7//9 1//9
