# Blender v2.92.0 OBJ File: ''
# www.blender.org
mtllib CG10_500_041067_0051.mtl
o CG10_500_041067_0051
v 37.919376 75.000000 -569.165344
v 198.342514 75.000000 -559.677734
v 109.861893 129.502304 -480.255188
v 187.421616 75.000000 -380.956085
v 233.540527 75.000000 -378.575470
v 99.203819 129.380966 -302.787903
v 119.857666 144.998657 -277.964874
v 115.275681 145.000000 -200.388229
v 114.763130 119.940651 -165.144669
v 216.849014 75.000000 -95.848389
v 10.672378 75.000000 -108.041313
v 47.069134 75.000000 -105.888870
v 180.132156 75.000000 -98.019760
v 175.934631 75.000000 -25.841021
v 42.792133 75.000000 -33.714756
v 106.822121 119.990959 -29.928043
v 37.919376 0.000000 -569.165344
v 198.342514 0.000000 -559.677734
v 187.421616 0.000000 -380.956085
v 233.540527 0.000000 -378.575470
v 216.849014 0.000000 -95.848389
v 180.132156 0.000000 -98.019760
v 175.934631 0.000000 -25.841021
v 42.792133 0.000000 -33.714756
v 47.069134 0.000000 -105.888870
v 10.672378 0.000000 -108.041313
vn -0.5732 0.8187 -0.0340
vn 0.5440 0.8385 0.0316
vn 0.0342 -0.8147 -0.5788
vn -0.5764 0.8164 -0.0341
vn -0.0320 -0.8404 0.5410
vn 0.5457 0.8373 0.0333
vn 0.0283 0.8353 -0.5491
vn 0.5445 0.8381 0.0321
vn -0.0590 -0.0000 0.9983
vn 0.0000 -1.0000 0.0000
vn -0.9981 0.0000 -0.0610
vn -0.0516 0.0000 0.9987
vn -0.9983 0.0000 -0.0589
vn 0.0590 0.0000 -0.9983
vn -0.9983 0.0000 -0.0581
vn 0.9982 0.0000 0.0592
vn 0.9983 0.0000 0.0590
usemtl None
s off
f 12//1 15//1 16//1 9//1
f 16//2 14//2 13//2 9//2
f 11//3 8//3 10//3 13//3 9//3 12//3
f 11//4 8//4 7//4 6//4 3//4 1//4
f 1//5 2//5 3//5
f 2//6 3//6 6//6 4//6
f 4//7 6//7 7//7 5//7
f 5//8 7//8 8//8 10//8
f 14//9 16//9 15//9
f 17//10 18//10 19//10 20//10 21//10 22//10 23//10 24//10 25//10 26//10
f 1//9 17//9 18//9 2//9
f 2//11 18//11 19//11 4//11
f 4//12 19//12 20//12 5//12
f 5//13 20//13 21//13 10//13
f 10//14 21//14 22//14 13//14
f 13//15 22//15 23//15 14//15
f 14//14 23//14 24//14 15//14
f 15//16 24//16 25//16 12//16
f 12//14 25//14 26//14 11//14
f 11//17 26//17 17//17 1//17
