# Blender v2.92.0 OBJ File: ''
# www.blender.org
mtllib CG10_500_049072_0010_roof.mtl
o CG10_500_049072_0010_roof
v 28.632439 75.000000 -240.369339
v 350.394287 75.000000 -223.056854
v 261.573517 145.000000 -141.725296
v 116.038666 144.985947 -149.573120
v 85.229286 122.693207 -123.383545
v 82.545204 122.620399 -75.322540
v 139.790283 75.000000 -60.842442
v 341.068848 75.000000 -49.964420
v 16.676058 75.000000 -18.337429
v 136.964081 75.000000 -11.857314
v 28.632439 0.000000 -240.369339
v 350.394287 0.000000 -223.056854
v 341.068848 0.000000 -49.964420
v 139.790283 0.000000 -60.842442
v 136.964081 0.000000 -11.857314
v 16.676058 0.000000 -18.337429
vt 0.045439 0.927520
vt 0.078018 0.049924
vt 0.316180 0.408800
vt 0.232230 0.512320
vt 0.224920 0.702280
vt 0.373200 0.953130
vt 0.380900 0.759520
vt 0.929340 0.802510
vt 0.712730 0.439820
vt 0.954750 0.118350
vn 0.6039 -0.7964 0.0325
vn -0.0333 0.7855 0.6179
vn 0.6336 0.7728 0.0366
vn -0.0338 0.7803 0.6245
vn 0.6378 0.7694 0.0344
vn 0.0339 0.7755 -0.6304
usemtl None
s off
f 9/1/1 1/2/1 4/3/1 5/4/1 6/5/1
f 9/1/2 10/6/2 6/5/2
f 10/6/3 7/7/3 5/4/3 6/5/3
f 7/7/4 8/8/4 3/9/4 4/3/4 5/4/4
f 8/8/5 2/10/5 3/9/5
f 2/10/6 1/2/6 4/3/6 3/9/6
