# Blender v2.92.0 OBJ File: ''
# www.blender.org
mtllib CG10_500_042071_0031.mtl
o CG10_500_042071_0031
v 40.125717 75.000000 -255.845016
v 273.726654 75.000000 -218.844406
v 173.867554 145.000000 -144.531982
v 114.511337 144.997284 -153.937042
v 104.981750 113.460579 -114.455513
v 245.724411 75.000000 -42.154427
v 12.127001 75.000000 -79.182106
v 51.931572 75.000000 -72.872658
v 96.771172 113.386597 -62.211052
v 144.198730 75.000000 -58.247326
v 136.557159 75.000000 -10.165875
v 44.453316 75.000000 -24.762951
v 40.125717 0.000000 -255.845016
v 273.726654 0.000000 -218.844406
v 245.724411 0.000000 -42.154427
v 144.198730 0.000000 -58.247326
v 136.557159 0.000000 -10.165875
v 44.453316 0.000000 -24.762951
v 51.931572 0.000000 -72.872658
v 12.127001 0.000000 -79.182106
vn -0.1014 0.7620 0.6395
vn 0.6211 0.7775 0.0987
vn 0.6336 -0.7674 0.0985
vn -0.0962 0.7889 0.6069
vn 0.6088 -0.7874 0.0965
vn -0.0967 -0.7861 0.6105
vn -0.6192 -0.7791 -0.0981
vn 0.0000 -1.0000 0.0000
vn -0.1564 0.0000 0.9877
vn -0.9877 0.0000 -0.1565
vn 0.1566 0.0000 -0.9877
vn -0.9876 0.0000 -0.1570
vn 0.1565 0.0000 -0.9877
vn 0.9881 0.0000 0.1536
vn 0.9877 0.0000 0.1565
usemtl None
s off
f 12//1 11//1 9//1
f 11//2 10//2 5//2 9//2
f 12//3 8//3 5//3 9//3
f 10//4 6//4 3//4 4//4 7//4 8//4 5//4
f 7//5 1//5 4//5
f 1//6 2//6 3//6 4//6
f 2//7 6//7 3//7
f 13//8 14//8 15//8 16//8 17//8 18//8 19//8 20//8
f 1//9 13//9 14//9 2//9
f 2//10 14//10 15//10 6//10
f 6//11 15//11 16//11 10//11
f 10//12 16//12 17//12 11//12
f 11//13 17//13 18//13 12//13
f 12//14 18//14 19//14 8//14
f 8//11 19//11 20//11 7//11
f 7//15 20//15 13//15 1//15
