# Blender v2.92.0 OBJ File: ''
# www.blender.org
mtllib CG10_500_033059_0020.mtl
o CG10_500_033059_0020
v 14.500057 75.000000 -34.080093
v 35.152016 75.000000 -411.128052
v 97.466591 116.501289 -343.762512
v 95.228935 116.752289 -295.621185
v 137.385712 144.834259 -249.881577
v 131.432816 144.904373 -139.162018
v 161.113647 75.000000 -356.663452
v 162.944092 75.000000 -404.148834
v 182.017197 145.000000 -136.548569
v 242.872986 75.000000 -242.649475
v 248.643219 75.000000 -351.922577
v 282.054260 75.000000 -19.450312
v 294.096130 75.000000 -240.153885
v 14.500057 0.000000 -34.080093
v 35.152016 0.000000 -411.128052
v 162.944092 0.000000 -404.148834
v 161.113647 0.000000 -356.663452
v 248.643219 0.000000 -351.922577
v 242.872986 0.000000 -242.649475
v 294.096130 0.000000 -240.153885
v 282.054260 0.000000 -19.450312
vn -0.0290 0.8468 0.5310
vn 0.5493 0.8351 0.0300
vn -0.5321 0.8462 -0.0291
vn 0.0297 0.8385 -0.5441
vn 0.5491 0.8355 0.0212
vn 0.0294 0.8395 -0.5425
vn 0.5504 0.8344 0.0291
vn 0.0263 0.8413 -0.5399
vn 0.0000 -1.0000 0.0000
vn 0.9985 0.0000 0.0547
vn -0.0545 0.0000 0.9985
vn -0.9993 0.0000 -0.0385
vn -0.0541 0.0000 0.9985
vn -0.9986 0.0000 -0.0527
vn -0.0487 0.0000 0.9988
vn -0.9985 0.0000 -0.0545
vn 0.0546 0.0000 -0.9985
usemtl None
s off
f 1//1 12//1 9//1 6//1
f 9//2 12//2 13//2
f 1//3 6//3 5//3 4//3 3//3 2//3
f 2//4 3//4 8//4
f 4//5 7//5 8//5 3//5
f 5//6 11//6 7//6 4//6
f 5//7 6//7 10//7 11//7
f 6//8 9//8 13//8 10//8
f 14//9 15//9 16//9 17//9 18//9 19//9 20//9 21//9
f 1//10 14//10 15//10 2//10
f 2//11 15//11 16//11 8//11
f 8//12 16//12 17//12 7//12
f 7//13 17//13 18//13 11//13
f 11//14 18//14 19//14 10//14
f 10//15 19//15 20//15 13//15
f 13//16 20//16 21//16 12//16
f 12//17 21//17 14//17 1//17
