# Blender v2.92.0 OBJ File: ''
# www.blender.org
mtllib CG10_500_039057_0043.mtl
o CG10_500_039057_0043
v 14.682987 75.000000 -87.241264
v 175.078796 75.000000 -15.738461
v 129.470383 145.000000 -133.348770
v 241.194458 75.000000 -165.162888
v 278.943237 75.000000 -148.780563
v 167.009766 144.897354 -217.865952
v 215.293030 115.802750 -235.262421
v 252.422485 115.644981 -218.921280
v 320.853180 75.000000 -242.787491
v 123.288223 75.000000 -330.861328
v 14.682987 0.000000 -87.241264
v 175.078796 0.000000 -15.738461
v 241.194458 0.000000 -165.162888
v 278.943237 0.000000 -148.780563
v 320.853180 0.000000 -242.787491
v 123.288223 0.000000 -330.861328
vn 0.2520 -0.7855 -0.5652
vn -0.2400 0.7978 0.5531
vn 0.5572 0.7923 0.2484
vn 0.2579 0.7739 -0.5785
vn 0.5763 -0.7758 0.2569
vn -0.5642 -0.7870 -0.2496
vn 0.0000 1.0000 0.0000
vn -0.4072 0.0000 0.9134
vn 0.9145 0.0000 0.4046
vn -0.3981 0.0000 0.9173
vn 0.9133 0.0000 0.4072
vn 0.4072 0.0000 -0.9134
vn -0.9134 0.0000 -0.4072
usemtl None
s off
f 1//1 3//1 2//1
f 4//2 5//2 8//2 7//2
f 5//3 9//3 8//3
f 10//4 6//4 7//4 8//4 9//4
f 1//5 10//5 6//5 3//5
f 3//6 6//6 7//6 4//6 2//6
f 11//7 12//7 13//7 14//7 15//7 16//7
f 1//8 11//8 12//8 2//8
f 2//9 12//9 13//9 4//9
f 4//10 13//10 14//10 5//10
f 5//11 14//11 15//11 9//11
f 9//12 15//12 16//12 10//12
f 10//13 16//13 11//13 1//13
