# Blender v2.92.0 OBJ File: ''
# www.blender.org
mtllib CG10_500_036064_0018_roof.mtl
o CG10_500_036064_0018_roof
v 168.726486 134.468063 -70.344543
v 69.683525 75.000000 -119.459305
v 267.944427 75.000000 -21.143076
v 96.810150 75.000000 -174.247757
v 20.630201 75.000000 -212.126862
v 243.662109 134.504944 -221.539749
v 235.000244 144.542831 -246.142029
v 76.921898 145.000000 -325.667847
v 302.134186 117.152885 -266.687042
v 263.547455 75.000000 -370.514801
v 132.300995 75.000000 -437.300171
v 443.652710 75.000000 -375.301666
v 301.495880 75.000000 -445.794434
v 373.774902 116.883286 -409.956787
v 69.683525 0.000000 -119.459305
v 267.944427 0.000000 -21.143076
v 443.652710 0.000000 -375.301666
v 301.495880 0.000000 -445.794434
v 263.547455 0.000000 -370.514801
v 132.300995 0.000000 -437.300171
v 20.630201 0.000000 -212.126862
v 96.810150 0.000000 -174.247757
vt 0.362850 0.849690
vt 0.576220 0.954820
vt 0.954090 0.198070
vt 0.803820 0.124020
vt 0.649750 0.430160
vt 0.505380 0.474060
vt 0.524000 0.526620
vt 0.149860 0.744750
vt 0.208190 0.627680
vt 0.044366 0.546740
vt 0.165420 0.304130
vt 0.284520 0.065598
vt 0.566770 0.208300
vt 0.648380 0.047448
vn 0.4238 0.8810 0.2103
vn -0.4245 0.8807 -0.2102
vn -0.2153 0.8753 0.4329
vn -0.2221 -0.8718 0.4365
vn 0.4114 -0.8875 0.2074
vn -0.8959 -0.0002 -0.4443
vn 0.4443 -0.0001 -0.8959
vn -0.4443 -0.0000 0.8959
usemtl None
s off
f 1/1/1 3/2/1 12/3/1 14/4/1 9/5/1 7/6/1 6/7/1
f 2/8/2 1/1/2 6/7/2 4/9/2
f 5/10/3 4/9/3 6/7/3 7/6/3 8/11/3
f 8/11/4 11/12/4 10/13/4 9/5/4 7/6/4
f 9/5/5 10/13/5 13/14/5 14/4/5
f 5/10/6 8/11/6 11/12/6
f 13/14/7 14/4/7 12/3/7
f 3/2/8 1/1/8 2/8/8
