# Blender v2.92.0 OBJ File: ''
# www.blender.org
mtllib CG10_500_035061_0044_roof.mtl
o CG10_500_035061_0044_roof
v 207.655518 75.000000 -87.609924
v 183.317703 75.000000 -365.421783
v 171.775131 75.000000 -158.814423
v 106.524147 144.980545 -120.518066
v 100.366997 144.969513 -290.731995
v 92.387947 145.000000 -148.524673
v 68.629669 75.000000 -17.372080
v 24.622606 75.000000 -374.284393
v 10.938636 75.000000 -131.467346
v 207.655518 0.000000 -87.609924
v 171.775131 0.000000 -158.814423
v 183.317703 0.000000 -365.421783
v 24.622606 0.000000 -374.284393
v 10.938636 0.000000 -131.467346
v 68.629669 0.000000 -17.372080
vt 0.113990 0.045193
vt 0.464660 0.258340
vt 0.848690 0.067802
vt 0.795260 0.594860
vt 0.427720 0.621110
vt 0.050642 0.664620
vt 0.317730 0.955680
vt 0.493170 0.692560
vt 0.961370 0.776510
vn 0.0369 0.7494 -0.6611
vn 0.6636 0.7472 0.0371
vn -0.6558 0.7540 -0.0370
vn 0.5861 -0.7541 -0.2963
vn 0.3077 0.7310 0.6090
vn 0.6071 0.7334 -0.3059
usemtl None
s off
f 8/1/1 5/2/1 2/3/1
f 3/4/2 2/3/2 5/2/2 6/5/2
f 9/6/3 6/5/3 5/2/3 8/1/3
f 7/7/4 9/6/4 6/5/4 4/8/4
f 1/9/5 4/8/5 7/7/5
f 1/9/6 3/4/6 6/5/6 4/8/6
