# Blender v2.92.0 OBJ File: ''
# www.blender.org
mtllib CG10_500_045070_0001.mtl
o CG10_500_045070_0001
v 14.031398 75.000000 -58.039726
v 109.108994 75.000000 -17.104662
v 78.032104 115.053879 -83.938362
v 224.937820 75.000000 -54.174824
v 139.598709 75.000000 -90.428391
v 111.186935 114.633125 -162.184235
v 254.557587 75.000000 -122.992241
v 265.127472 75.000000 -118.280396
v 161.705963 145.000000 -186.454254
v 235.666931 109.170067 -186.609085
v 226.216675 108.070641 -189.045898
v 293.131989 75.000000 -212.614471
v 305.016968 75.000000 -210.931427
v 197.621063 144.988754 -269.853149
v 183.379196 119.339752 -315.340424
v 187.108047 118.650658 -326.105804
v 271.327850 75.000000 -346.283966
v 338.429047 75.000000 -317.855896
v 163.510284 75.000000 -405.003021
v 273.894562 75.000000 -357.459747
v 14.031398 0.000000 -58.039726
v 109.108994 0.000000 -17.104662
v 139.598709 0.000000 -90.428391
v 224.937820 0.000000 -54.174824
v 254.557587 0.000000 -122.992241
v 265.127472 0.000000 -118.280396
v 305.016968 0.000000 -210.931427
v 293.131989 0.000000 -212.614471
v 338.429047 0.000000 -317.855896
v 271.327850 0.000000 -346.283966
v 273.894562 0.000000 -357.459747
v 163.510284 0.000000 -405.003021
vn 0.2250 0.8225 -0.5224
vn 0.4780 0.8715 0.1098
vn -0.2250 -0.8169 0.5311
vn -0.4919 -0.8445 -0.2117
vn -0.4906 -0.8454 -0.2112
vn -0.0997 -0.7033 0.7039
vn -0.2284 0.8278 0.5125
vn -0.2288 0.8110 0.5385
vn 0.5478 0.8050 0.2278
vn -0.2500 0.7749 0.5806
vn -0.5846 0.7712 -0.2519
vn 0.0000 1.0000 0.0000
vn -0.3954 0.0000 0.9185
vn 0.9234 0.0000 0.3840
vn -0.3910 0.0000 0.9204
vn 0.9185 0.0000 0.3953
vn -0.4072 0.0000 0.9134
vn 0.9185 0.0000 0.3954
vn 0.1402 0.0000 -0.9901
vn 0.3901 0.0000 -0.9208
vn 0.9746 0.0000 0.2238
vn 0.3956 0.0000 -0.9184
vn -0.9184 0.0000 -0.3957
usemtl None
s off
f 19//1 16//1 20//1
f 16//2 15//2 17//2 20//2
f 15//3 17//3 18//3 14//3
f 4//4 9//4 14//4 18//4 12//4 11//4 7//4
f 8//5 10//5 13//5
f 13//6 10//6 11//6 12//6
f 8//7 10//7 11//7 7//7
f 4//8 9//8 6//8 5//8
f 5//9 6//9 3//9 2//9
f 2//10 3//10 1//10
f 1//11 3//11 6//11 9//11 14//11 15//11 16//11 19//11
f 21//12 22//12 23//12 24//12 25//12 26//12 27//12 28//12 29//12 30//12 31//12 32//12
f 1//13 21//13 22//13 2//13
f 2//14 22//14 23//14 5//14
f 5//15 23//15 24//15 4//15
f 4//16 24//16 25//16 7//16
f 7//17 25//17 26//17 8//17
f 8//18 26//18 27//18 13//18
f 13//19 27//19 28//19 12//19
f 12//16 28//16 29//16 18//16
f 18//20 29//20 30//20 17//20
f 17//21 30//21 31//21 20//21
f 20//22 31//22 32//22 19//22
f 19//23 32//23 21//23 1//23
