# Blender v2.92.0 OBJ File: ''
# www.blender.org
mtllib CG10_500_042065_0004_roof.mtl
o CG10_500_042065_0004_roof
v 23.836582 75.000000 -290.793671
v 9.923872 75.000000 -23.753391
v 113.102631 145.000000 -112.692329
v 117.293388 144.995132 -193.260986
v 213.030289 75.000000 -280.966095
v 199.161133 75.000000 -13.923544
v 23.836582 0.000000 -290.793671
v 9.923872 0.000000 -23.753391
v 199.161133 0.000000 -13.923544
v 213.030289 0.000000 -280.966095
vt 0.044702 0.921860
vt 0.509470 0.629300
vt 0.897120 0.954200
vt 0.528350 0.364270
vt 0.959600 0.075769
vt 0.107370 0.043442
vn 0.0309 -0.8026 -0.5958
vn -0.6086 -0.7928 -0.0316
vn -0.0313 -0.7976 0.6024
vn 0.5788 -0.8149 0.0302
usemtl None
s off
f 2/1/1 3/2/1 6/3/1
f 6/3/2 3/2/2 4/4/2 5/5/2
f 5/5/3 4/4/3 1/6/3
f 1/6/4 4/4/4 3/2/4 2/1/4
