# Blender v2.92.0 OBJ File: ''
# www.blender.org
mtllib CG10_500_042072_0036_roof.mtl
o CG10_500_042072_0036_roof
v 15.809987 75.000000 -214.799652
v 108.226051 75.000000 -15.628579
v 137.318161 117.031624 -84.350555
v 116.327911 117.066719 -129.697510
v 135.912750 144.978210 -174.759811
v 202.027679 75.000000 -59.144089
v 180.703842 75.000000 -105.309166
v 229.586380 145.000000 -218.213303
v 264.175995 75.000000 -330.091156
v 335.223450 75.000000 -176.941681
v 15.809987 0.000000 -214.799652
v 108.226051 0.000000 -15.628579
v 202.027679 0.000000 -59.144089
v 180.703842 0.000000 -105.309166
v 335.223450 0.000000 -176.941681
v 264.175995 0.000000 -330.091156
vt 0.308340 0.954960
vt 0.575580 0.829560
vt 0.391220 0.756910
vt 0.514830 0.696520
vt 0.331420 0.626230
vt 0.045043 0.380980
vt 0.387220 0.496370
vt 0.955050 0.490080
vt 0.654090 0.371140
vt 0.752640 0.048729
vn 0.2705 0.7661 0.5831
vn 0.5968 0.7535 -0.2757
vn 0.5488 -0.7962 -0.2547
vn 0.2733 0.7601 0.5896
vn 0.6039 0.7462 -0.2802
vn -0.2641 0.7788 -0.5689
usemtl None
s off
f 2/1/1 6/2/1 3/3/1
f 6/2/2 7/4/2 4/5/2 3/3/2
f 3/3/3 2/1/3 1/6/3 5/7/3 4/5/3
f 7/4/4 10/8/4 8/9/4 5/7/4 4/5/4
f 10/8/5 9/10/5 8/9/5
f 1/6/6 5/7/6 8/9/6 9/10/6
