# Blender v2.92.0 OBJ File: ''
# www.blender.org
mtllib CG10_500_045071_0009.mtl
o CG10_500_045071_0009
v 343.117065 75.000000 -214.825638
v 298.293823 75.000000 -108.177872
v 256.849335 75.000000 -125.956001
v 210.045486 75.000000 -14.687907
v 266.250641 120.946869 -186.187408
v 224.489456 120.811737 -203.912384
v 158.882629 144.918625 -129.447205
v 183.789642 145.000000 -188.934494
v 50.301437 75.000000 -81.824982
v 94.790329 75.000000 -188.523621
v 141.140152 75.000000 -299.685364
v 15.517964 75.000000 -96.444260
v 60.307808 75.000000 -203.015259
v 343.117065 0.000000 -214.825638
v 298.293823 0.000000 -108.177872
v 256.849335 0.000000 -125.956001
v 210.045486 0.000000 -14.687907
v 50.301437 0.000000 -81.824982
v 15.517964 0.000000 -96.444260
v 60.307808 0.000000 -203.015259
v 94.790329 0.000000 -188.523621
v 141.140152 0.000000 -299.685364
vn 0.5591 0.7951 0.2352
vn -0.5993 0.7605 -0.2499
vn 0.0000 1.0000 -0.0000
vn -0.2445 0.7758 0.5817
vn -0.2452 -0.7741 0.5837
vn -0.2421 0.7893 0.5643
vn 0.5619 0.7928 0.2362
vn 0.0000 -1.0000 0.0000
vn -0.9219 0.0000 -0.3875
vn 0.3942 0.0000 -0.9190
vn -0.9218 0.0000 -0.3877
vn 0.3875 0.0000 -0.9219
vn 0.9219 0.0000 0.3875
vn -0.3874 0.0000 0.9219
vn 0.9230 0.0000 0.3848
vn -0.3873 0.0000 0.9219
usemtl None
s off
f 4//1 3//1 6//1 8//1 7//1
f 7//2 8//2 11//2 10//2 9//2
f 9//3 10//3 13//3 12//3
f 9//4 4//4 7//4
f 8//5 11//5 1//5 5//5 6//5
f 3//6 2//6 5//6 6//6
f 2//7 1//7 5//7
f 14//8 15//8 16//8 17//8 18//8 19//8 20//8 21//8 22//8
f 1//9 14//9 15//9 2//9
f 2//10 15//10 16//10 3//10
f 3//11 16//11 17//11 4//11
f 4//12 17//12 18//12 9//12
f 9//12 18//12 19//12 12//12
f 12//13 19//13 20//13 13//13
f 13//14 20//14 21//14 10//14
f 10//15 21//15 22//15 11//15
f 11//16 22//16 14//16 1//16
