# Blender v2.92.0 OBJ File: ''
# www.blender.org
mtllib CG10_500_040071_0026_roof.mtl
o CG10_500_040071_0026_roof
v 13.709071 75.000000 -23.413658
v 176.687302 75.000000 -13.250906
v 100.462959 145.000000 -102.838661
v 187.480957 75.000000 -191.540588
v 292.842316 75.000000 -184.764297
v 107.953079 144.901779 -224.668320
v 241.601227 120.479561 -243.826462
v 138.095535 120.393921 -250.378372
v 31.481760 75.000000 -308.130432
v 299.493195 75.000000 -291.414948
v 13.709071 0.000000 -23.413658
v 176.687302 0.000000 -13.250906
v 187.480957 0.000000 -191.540588
v 292.842316 0.000000 -184.764297
v 299.493195 0.000000 -291.414948
v 31.481760 0.000000 -308.130432
vt 0.320970 0.678630
vt 0.564500 0.958590
vt 0.043799 0.926830
vt 0.344900 0.297910
vt 0.100580 0.037092
vt 0.956850 0.089328
vt 0.771890 0.238040
vt 0.441200 0.217570
vt 0.598980 0.401440
vt 0.935600 0.422610
vn 0.0397 -0.7707 -0.6359
vn -0.6497 0.7591 -0.0406
vn -0.0414 -0.7470 0.6635
vn -0.6504 -0.7586 -0.0394
vn -0.0406 0.7743 0.6315
vn -0.6373 -0.7696 -0.0397
usemtl None
s off
f 3/1/1 2/2/1 1/3/1
f 1/3/2 3/1/2 6/4/2 9/5/2
f 10/6/3 7/7/3 8/8/3 6/4/3 9/5/3
f 6/4/4 8/8/4 4/9/4 2/2/4 3/1/4
f 4/9/5 5/10/5 7/7/5 8/8/5
f 5/10/6 7/7/6 10/6/6
