# Blender v2.92.0 OBJ File: ''
# www.blender.org
mtllib CG10_500_039070_0055.mtl
o CG10_500_039070_0055
v 21.583935 75.000000 -160.959320
v 14.329907 75.000000 -45.407986
v 58.502880 75.000000 -159.334381
v 62.977894 75.000000 -235.998489
v 73.026993 116.715546 -102.573669
v 110.298607 116.969398 -100.591698
v 149.415115 144.992569 -139.013611
v 178.235199 75.000000 -35.063137
v 177.015076 75.000000 -16.932434
v 193.998978 145.000000 -136.210571
v 233.613144 115.338387 -71.446022
v 234.837921 115.304726 -90.302376
v 289.140015 75.000000 -9.899181
v 302.297302 75.000000 -221.004318
v 21.583935 0.000000 -160.959320
v 14.329907 0.000000 -45.407986
v 178.235199 0.000000 -35.063137
v 177.015076 0.000000 -16.932434
v 289.140015 0.000000 -9.899181
v 302.297302 0.000000 -221.004318
v 62.977894 0.000000 -235.998489
v 58.502880 0.000000 -159.334381
vn 0.0358 -0.8207 -0.5702
vn 0.6056 -0.7947 0.0408
vn 0.0357 -0.8244 -0.5649
vn 0.6031 -0.7968 0.0379
vn -0.0262 -0.8023 0.5964
vn 0.6047 -0.7957 0.0353
vn -0.0380 -0.7939 0.6068
vn -0.5617 -0.8266 -0.0350
vn 0.0000 1.0000 0.0000
vn -0.9980 0.0000 -0.0627
vn -0.0630 0.0000 0.9980
vn -0.9977 0.0000 -0.0671
vn -0.0626 0.0000 0.9980
vn 0.9981 0.0000 0.0622
vn 0.0625 0.0000 -0.9980
vn -0.9983 0.0000 -0.0583
vn 0.0440 0.0000 -0.9990
usemtl None
s off
f 11//1 13//1 9//1
f 9//2 8//2 12//2 11//2
f 2//3 5//3 6//3 7//3 10//3 12//3 8//3
f 2//4 1//4 5//4
f 5//5 1//5 3//5 6//5
f 6//6 3//6 4//6 7//6
f 7//7 4//7 14//7 10//7
f 13//8 11//8 12//8 10//8 14//8
f 15//9 16//9 17//9 18//9 19//9 20//9 21//9 22//9
f 1//10 15//10 16//10 2//10
f 2//11 16//11 17//11 8//11
f 8//12 17//12 18//12 9//12
f 9//13 18//13 19//13 13//13
f 13//14 19//14 20//14 14//14
f 14//15 20//15 21//15 4//15
f 4//16 21//16 22//16 3//16
f 3//17 22//17 15//17 1//17
