# Blender v2.92.0 OBJ File: ''
# www.blender.org
mtllib CG10_500_041065_0031.mtl
o CG10_500_041065_0031
v 30.401896 75.000000 -372.460571
v 145.354050 75.000000 -366.401215
v 87.573814 112.627251 -314.393494
v 252.315567 75.000000 -245.632477
v 139.139038 75.000000 -252.216263
v 81.466087 112.566315 -200.544617
v 130.729767 145.000000 -150.170395
v 147.633636 144.970856 -149.229752
v 96.898041 124.857788 -120.125237
v 95.766953 124.819084 -99.873222
v 160.703568 75.000000 -37.946251
v 241.145081 75.000000 -33.689137
v 12.134007 75.000000 -26.418549
v 159.574951 75.000000 -18.647322
v 30.401896 0.000000 -372.460571
v 145.354050 0.000000 -366.401215
v 139.139038 0.000000 -252.216263
v 252.315567 0.000000 -245.632477
v 241.145081 0.000000 -33.689137
v 160.703568 0.000000 -37.946251
v 159.574951 0.000000 -18.647322
v 12.134007 0.000000 -26.418549
vn -0.5296 0.8478 -0.0280
vn -0.0284 0.8420 0.5387
vn 0.5875 0.8085 0.0344
vn -0.0283 0.8447 0.5345
vn 0.5746 0.8179 0.0303
vn 0.0297 0.8252 -0.5640
vn 0.5647 0.8247 0.0307
vn 0.0328 0.8254 -0.5635
vn 0.0000 -1.0000 0.0000
vn -0.0526 0.0000 0.9986
vn -0.9985 0.0000 -0.0543
vn -0.0581 0.0000 0.9983
vn -0.9986 0.0000 -0.0526
vn 0.0528 0.0000 -0.9986
vn -0.9983 0.0000 -0.0584
vn 0.0526 0.0000 -0.9986
vn 0.9986 0.0000 0.0527
usemtl None
s off
f 13//1 10//1 9//1 7//1 6//1 3//1 1//1
f 13//2 14//2 10//2
f 14//3 11//3 9//3 10//3
f 11//4 12//4 8//4 7//4 9//4
f 12//5 4//5 8//5
f 1//6 3//6 2//6
f 2//7 3//7 6//7 5//7
f 5//8 6//8 7//8 8//8 4//8
f 15//9 16//9 17//9 18//9 19//9 20//9 21//9 22//9
f 1//10 15//10 16//10 2//10
f 2//11 16//11 17//11 5//11
f 5//12 17//12 18//12 4//12
f 4//13 18//13 19//13 12//13
f 12//14 19//14 20//14 11//14
f 11//15 20//15 21//15 14//15
f 14//16 21//16 22//16 13//16
f 13//17 22//17 15//17 1//17
