# Blender v2.92.0 OBJ File: ''
# www.blender.org
mtllib CG10_500_043070_0031.mtl
o CG10_500_043070_0031
v 13.828506 75.000000 -34.455669
v 90.653748 145.000000 -25.199829
v 171.244110 75.000000 -15.507716
v 9.857427 75.000000 -182.936386
v 31.424620 75.000000 -180.340286
v 35.111378 75.000000 -210.906189
v 13.536824 75.000000 -213.503174
v 206.492554 75.000000 -312.627533
v 49.657810 75.000000 -331.506653
v 126.201569 144.741745 -322.301147
v 13.828506 0.000000 -34.455669
v 171.244110 0.000000 -15.507716
v 206.492554 0.000000 -312.627533
v 49.657810 0.000000 -331.506653
v 35.111378 0.000000 -210.906189
v 13.536824 0.000000 -213.503174
v 9.857427 0.000000 -182.936386
v 31.424620 0.000000 -180.340286
vn -0.6660 0.7416 -0.0803
vn 0.6485 0.7573 0.0769
vn 0.0000 -1.0000 -0.0000
vn 0.1195 0.0001 -0.9928
vn -0.1195 0.0001 0.9928
vn 0.0000 1.0000 0.0000
vn -0.1195 0.0000 0.9928
vn 0.9930 0.0000 0.1178
vn 0.1195 0.0000 -0.9928
vn -0.9928 0.0000 -0.1197
vn -0.9928 0.0000 -0.1195
usemtl None
s off
f 2//1 10//1 9//1 6//1 5//1 1//1
f 2//2 3//2 8//2 10//2
f 5//3 4//3 7//3 6//3
f 1//4 2//4 3//4
f 8//5 10//5 9//5
f 11//6 12//6 13//6 14//6 15//6 16//6 17//6 18//6
f 1//7 11//7 12//7 3//7
f 3//8 12//8 13//8 8//8
f 8//9 13//9 14//9 9//9
f 9//10 14//10 15//10 6//10
f 6//9 15//9 16//9 7//9
f 7//11 16//11 17//11 4//11
f 4//7 17//7 18//7 5//7
f 5//10 18//10 11//10 1//10
