# Blender v2.92.0 OBJ File: ''
# www.blender.org
mtllib CG10_500_040061_0030.mtl
o CG10_500_040061_0030
v 439.230896 144.843582 -161.044678
v 430.360413 75.000000 -14.775749
v 448.383728 75.000000 -312.984436
v 40.510174 75.000000 -338.585663
v 22.443005 75.000000 -39.709488
v 31.274513 145.000000 -186.309586
v 430.360413 0.000000 -14.775749
v 448.383728 0.000000 -312.984436
v 40.510174 0.000000 -338.585663
v 22.443005 0.000000 -39.709488
vn -0.0263 0.9027 0.4295
vn -0.0261 -0.9089 0.4162
vn -0.9982 -0.0004 -0.0603
vn 0.9982 -0.0004 0.0603
vn 0.0000 1.0000 0.0000
vn 0.9982 0.0000 0.0603
vn 0.0626 0.0000 -0.9980
vn -0.9982 0.0000 -0.0603
vn -0.0610 0.0000 0.9981
usemtl None
s off
f 5//1 2//1 1//1 6//1
f 6//2 4//2 3//2 1//2
f 5//3 6//3 4//3
f 3//4 1//4 2//4
f 7//5 8//5 9//5 10//5
f 2//6 7//6 8//6 3//6
f 3//7 8//7 9//7 4//7
f 4//8 9//8 10//8 5//8
f 5//9 10//9 7//9 2//9
