# Blender v2.92.0 OBJ File: ''
# www.blender.org
mtllib CG10_500_048069_0006.mtl
o CG10_500_048069_0006
v 23.474297 75.000000 -232.475067
v 349.927582 75.000000 -211.642883
v 249.787445 117.359383 -157.838455
v 82.773636 117.773811 -167.907303
v 293.628235 117.413216 -154.964325
v 88.733589 118.461533 -166.549683
v 214.506409 144.995468 -120.817650
v 124.945396 145.000000 -126.526459
v 342.680511 75.000000 -98.171776
v 16.243702 75.000000 -119.655952
v 296.754272 75.000000 -101.253761
v 23.042467 75.000000 -116.689964
v 292.170380 75.000000 -28.193613
v 166.203201 75.000000 -36.215076
v 92.444344 75.000000 -40.911968
v 19.106625 75.000000 -45.582035
v 164.570084 75.000000 -10.643884
v 90.812080 75.000000 -15.354438
v 23.474297 0.000000 -232.475067
v 349.927582 0.000000 -211.642883
v 342.680511 0.000000 -98.171776
v 296.754272 0.000000 -101.253761
v 292.170380 0.000000 -28.193613
v 166.203201 0.000000 -36.215076
v 164.570084 0.000000 -10.643884
v 90.812080 0.000000 -15.354438
v 92.444344 0.000000 -40.911968
v 19.106625 0.000000 -45.582035
v 23.042467 0.000000 -116.689964
v 16.243702 0.000000 -119.655952
vn 0.6266 0.7783 0.0400
vn 0.0417 -0.7829 -0.6207
vn -0.6420 -0.7656 -0.0403
vn 0.0397 -0.7809 -0.6234
vn 0.0000 1.0000 0.0000
vn 0.0367 0.8173 -0.5751
vn 0.2067 -0.8560 -0.4738
vn -0.5587 0.8286 -0.0358
vn -0.5680 0.8224 -0.0314
vn 0.0000 -1.0000 0.0000
vn -0.0637 0.0000 0.9980
vn -0.9980 0.0000 -0.0637
vn 0.0670 0.0000 -0.9978
vn -0.9980 0.0000 -0.0626
vn 0.0636 0.0000 -0.9980
vn 0.0637 0.0000 -0.9980
vn 0.9980 0.0000 0.0637
vn 0.9985 0.0000 0.0553
vn 0.3999 0.0000 -0.9166
vn 0.9980 0.0000 0.0640
usemtl None
s off
f 5//1 9//1 2//1
f 5//2 9//2 11//2 3//2
f 11//3 13//3 7//3 3//3
f 13//4 14//4 15//4 16//4 8//4 7//4
f 15//5 18//5 17//5 14//5
f 1//6 4//6 6//6 8//6 7//6 3//6 5//6 2//6
f 6//7 12//7 10//7 4//7
f 4//8 1//8 10//8
f 6//9 12//9 16//9 8//9
f 19//10 20//10 21//10 22//10 23//10 24//10 25//10 26//10 27//10 28//10 29//10 30//10
f 1//11 19//11 20//11 2//11
f 2//12 20//12 21//12 9//12
f 9//13 21//13 22//13 11//13
f 11//14 22//14 23//14 13//14
f 13//15 23//15 24//15 14//15
f 14//12 24//12 25//12 17//12
f 17//16 25//16 26//16 18//16
f 18//17 26//17 27//17 15//17
f 15//15 27//15 28//15 16//15
f 16//18 28//18 29//18 12//18
f 12//19 29//19 30//19 10//19
f 10//20 30//20 19//20 1//20
