# Blender v2.92.0 OBJ File: ''
# www.blender.org
mtllib CG10_500_039070_0008.mtl
o CG10_500_039070_0008
v 282.476196 75.000000 -40.540794
v 292.791321 75.000000 -215.641998
v 191.935547 144.995956 -134.265732
v 115.500397 75.000000 -50.333141
v 113.431343 75.000000 -11.019621
v 99.257088 145.000000 -139.706009
v 62.200600 116.116707 -65.801674
v 64.403214 116.016190 -105.139214
v 12.767386 75.000000 -16.948765
v 25.392813 75.000000 -231.352966
v 282.476196 0.000000 -40.540794
v 292.791321 0.000000 -215.641998
v 25.392813 0.000000 -231.352966
v 12.767386 0.000000 -16.948765
v 113.431343 0.000000 -11.019621
v 115.500397 0.000000 -50.333141
vn 0.6615 -0.7490 0.0390
vn -0.0366 0.7825 0.6216
vn -0.6047 -0.7958 -0.0318
vn -0.0364 0.7835 0.6203
vn -0.5885 -0.8077 -0.0347
vn 0.0367 0.7797 -0.6251
vn 0.0000 1.0000 0.0000
vn 0.9983 0.0000 0.0588
vn 0.0587 0.0000 -0.9983
vn -0.9983 0.0000 -0.0588
vn -0.0588 0.0000 0.9983
vn 0.9986 0.0000 0.0526
vn -0.0585 0.0000 0.9983
usemtl None
s off
f 9//1 10//1 6//1 8//1 7//1
f 5//2 7//2 9//2
f 4//3 5//3 7//3 8//3
f 4//4 1//4 3//4 6//4 8//4
f 1//5 3//5 2//5
f 10//6 6//6 3//6 2//6
f 11//7 12//7 13//7 14//7 15//7 16//7
f 1//8 11//8 12//8 2//8
f 2//9 12//9 13//9 10//9
f 10//10 13//10 14//10 9//10
f 9//11 14//11 15//11 5//11
f 5//12 15//12 16//12 4//12
f 4//13 16//13 11//13 1//13
