# Blender v2.92.0 OBJ File: ''
# www.blender.org
mtllib CG10_500_049074_0017.mtl
o CG10_500_049074_0017
v 34.722519 75.000000 -298.060730
v 174.728851 75.000000 -287.697388
v 280.590973 75.000000 -215.014282
v 224.035706 75.000000 -219.199295
v 253.514481 97.597862 -217.018311
v 95.755714 131.629944 -219.628113
v 347.717133 75.000000 -196.903793
v 278.484314 75.000000 -202.064438
v 223.127228 75.000000 -206.190796
v 168.381195 75.000000 -210.271606
v 248.621536 96.073479 -175.578064
v 89.522301 131.361816 -139.357437
v 259.618713 137.430710 -118.409599
v 209.206970 137.536133 -122.023666
v 199.016769 144.664902 -113.070389
v 104.163109 145.000000 -119.684235
v 68.473442 116.676010 -88.867348
v 336.081360 75.000000 -39.669914
v 288.037537 75.000000 -42.996021
v 286.881805 75.000000 -25.753235
v 120.169098 75.000000 -36.688076
v 119.061981 75.000000 -14.020378
v 14.355484 75.000000 -21.762644
v 64.091965 117.385658 -18.070049
v 34.722519 0.000000 -298.060730
v 174.728851 0.000000 -287.697388
v 168.381195 0.000000 -210.271606
v 223.127228 0.000000 -206.190796
v 224.035706 0.000000 -219.199295
v 280.590973 0.000000 -215.014282
v 278.484314 0.000000 -202.064438
v 347.717133 0.000000 -196.903793
v 336.081360 0.000000 -39.669914
v 288.037537 0.000000 -42.996021
v 286.881805 0.000000 -25.753235
v 120.169098 0.000000 -36.688076
v 119.061981 0.000000 -14.020378
v 14.355484 0.000000 -21.762644
vn 0.6090 0.7926 0.0297
vn -0.0426 0.7597 0.6489
vn 0.5961 0.8019 0.0400
vn 0.0448 -0.7612 -0.6470
vn 0.6038 0.7959 0.0447
vn 0.0441 0.8054 -0.5911
vn -0.6328 -0.7674 -0.1030
vn -0.6059 0.7944 -0.0423
vn 0.6101 0.7907 0.0500
vn 0.6458 -0.7620 0.0476
vn -0.0450 -0.7930 0.6076
vn 0.0738 -0.0000 -0.9973
vn -0.0737 -0.0004 0.9973
vn 0.0000 -1.0000 0.0000
vn -0.0738 0.0000 0.9973
vn -0.9967 0.0000 -0.0817
vn -0.0743 0.0000 0.9972
vn 0.9976 0.0000 0.0697
vn -0.9870 0.0000 -0.1606
vn -0.9973 0.0000 -0.0738
vn 0.0691 0.0000 -0.9976
vn -0.9978 0.0000 -0.0669
vn 0.0655 0.0000 -0.9979
vn -0.9988 0.0000 -0.0488
vn 0.0737 0.0000 -0.9973
vn 0.9973 0.0000 0.0735
usemtl None
s off
f 24//1 22//1 21//1 17//1
f 21//2 20//2 15//2 16//2 17//2
f 20//3 19//3 14//3 15//3
f 14//4 13//4 18//4 19//4
f 18//5 7//5 13//5
f 7//6 8//6 11//6 9//6 10//6 12//6 16//6 15//6 14//6 13//6
f 11//7 5//7 3//7 8//7
f 5//8 4//8 9//8 11//8
f 10//9 2//9 6//9 12//9
f 23//10 1//10 6//10 12//10 16//10 17//10 24//10
f 1//11 2//11 6//11
f 4//12 5//12 3//12
f 22//13 24//13 23//13
f 25//14 26//14 27//14 28//14 29//14 30//14 31//14 32//14 33//14 34//14 35//14 36//14 37//14 38//14
f 1//15 25//15 26//15 2//15
f 2//16 26//16 27//16 10//16
f 10//17 27//17 28//17 9//17
f 9//18 28//18 29//18 4//18
f 4//15 29//15 30//15 3//15
f 3//19 30//19 31//19 8//19
f 8//17 31//17 32//17 7//17
f 7//20 32//20 33//20 18//20
f 18//21 33//21 34//21 19//21
f 19//22 34//22 35//22 20//22
f 20//23 35//23 36//23 21//23
f 21//24 36//24 37//24 22//24
f 22//25 37//25 38//25 23//25
f 23//26 38//26 25//26 1//26
