# Blender v2.92.0 OBJ File: ''
# www.blender.org
mtllib CG10_500_042072_0010_roof.mtl
o CG10_500_042072_0010_roof
v 99.691231 75.000000 -314.501984
v 12.610356 75.000000 -109.222946
v 49.986843 75.000000 -92.916237
v 41.636662 75.000000 -73.530533
v 146.346848 144.999680 -164.655823
v 155.774521 145.000000 -186.878845
v 156.644958 130.514313 -136.617966
v 146.635895 130.563080 -113.201859
v 284.000519 75.000000 -236.325043
v 188.505005 75.000000 -11.234337
v 99.691231 0.000000 -314.501984
v 12.610356 0.000000 -109.222946
v 49.986843 0.000000 -92.916237
v 41.636662 0.000000 -73.530533
v 188.505005 0.000000 -11.234337
v 284.000519 0.000000 -236.325043
vt 0.140190 0.777180
vt 0.168310 0.718440
vt 0.527420 0.586010
vt 0.493720 0.656960
vt 0.634700 0.965960
vt 0.956230 0.283860
vt 0.524490 0.433700
vt 0.492750 0.501040
vt 0.335660 0.046964
vt 0.042459 0.669020
vn 0.5207 -0.8238 0.2243
vn -0.2275 0.8128 0.5363
vn 0.5324 0.8158 0.2259
vn 0.2307 0.8068 -0.5439
vn -0.5228 0.8231 -0.2218
vn -0.2229 0.8303 0.5108
usemtl None
s off
f 4/1/1 3/2/1 7/3/1 8/4/1
f 4/1/2 10/5/2 8/4/2
f 10/5/3 9/6/3 6/7/3 5/8/3 7/3/3 8/4/3
f 9/6/4 1/9/4 6/7/4
f 1/9/5 2/10/5 5/8/5 6/7/5
f 2/10/6 3/2/6 7/3/6 5/8/6
