# Blender v2.92.0 OBJ File: ''
# www.blender.org
mtllib CG10_500_045064_0001.mtl
o CG10_500_045064_0001
v 279.950165 75.000000 -254.739456
v 265.717773 75.000000 -13.283915
v 211.833328 114.388939 -74.605659
v 213.593842 114.493797 -107.069916
v 171.986069 145.000000 -156.683395
v 150.902771 75.000000 -20.044859
v 152.379501 75.000000 -49.905666
v 129.731781 144.964020 -159.222366
v 60.177902 98.131508 -167.516052
v 27.800632 75.000000 -205.192978
v 19.140982 75.000000 -58.086700
v 31.577232 75.000000 -269.348175
v 23.558992 75.000000 -133.137955
v 13.087977 75.000000 -133.746918
v 17.348810 75.000000 -206.066437
v 15.260481 98.500900 -170.711319
v 279.950165 0.000000 -254.739456
v 265.717773 0.000000 -13.283915
v 150.902771 0.000000 -20.044859
v 152.379501 0.000000 -49.905666
v 19.140982 0.000000 -58.086700
v 23.558992 0.000000 -133.137955
v 13.087977 0.000000 -133.746918
v 17.348810 0.000000 -206.066437
v 27.800632 0.000000 -205.192978
v 31.577232 0.000000 -269.348175
vn -0.0330 0.8275 0.5605
vn 0.5601 -0.8280 0.0277
vn -0.0311 0.8443 0.5350
vn 0.0327 0.8301 -0.5566
vn 0.5648 0.8245 0.0333
vn 0.0461 0.8332 -0.5511
vn 0.5555 -0.8309 0.0327
vn -0.0334 0.8386 0.5437
vn -0.9983 -0.0002 -0.0588
vn 0.0000 -1.0000 0.0000
vn -0.9983 0.0000 -0.0588
vn 0.0588 0.0000 -0.9983
vn 0.9988 0.0000 0.0494
vn 0.0613 0.0000 -0.9981
vn 0.9983 0.0000 0.0588
vn 0.0581 0.0000 -0.9983
vn -0.0833 0.0000 0.9965
vn -0.0587 0.0000 0.9983
usemtl None
s off
f 6//1 2//1 3//1
f 3//2 6//2 7//2 4//2
f 13//3 9//3 16//3 14//3
f 12//4 8//4 5//4 1//4
f 1//5 5//5 4//5 3//5 2//5
f 16//6 9//6 10//6 15//6
f 8//7 11//7 13//7 9//7 10//7 12//7
f 11//8 7//8 4//8 5//8 8//8
f 14//9 16//9 15//9
f 17//10 18//10 19//10 20//10 21//10 22//10 23//10 24//10 25//10 26//10
f 1//11 17//11 18//11 2//11
f 2//12 18//12 19//12 6//12
f 6//13 19//13 20//13 7//13
f 7//14 20//14 21//14 11//14
f 11//15 21//15 22//15 13//15
f 13//16 22//16 23//16 14//16
f 14//15 23//15 24//15 15//15
f 15//17 24//17 25//17 10//17
f 10//15 25//15 26//15 12//15
f 12//18 26//18 17//18 1//18
