# Blender v2.92.0 OBJ File: ''
# www.blender.org
mtllib CG10_500_038069_0005.mtl
o CG10_500_038069_0005
v 178.463303 75.000000 -26.388456
v 274.156708 145.067596 -58.281433
v 379.550934 75.000000 -93.416885
v 317.929382 75.000000 -277.742615
v 406.573212 75.000000 -307.290039
v 393.853882 75.000000 -345.655487
v 529.992493 75.000000 -387.237122
v 304.340393 75.000000 -318.390808
v 364.686249 75.000000 -336.746643
v 348.493805 142.658493 -384.415924
v 513.901062 145.000000 -436.758179
v 478.686096 75.000000 -541.223145
v 315.113800 75.000000 -485.609924
v 25.144617 75.000000 -486.294708
v 225.844086 75.000000 -553.193176
v 120.650566 144.932297 -518.134033
v 178.463303 0.000000 -26.388456
v 379.550934 0.000000 -93.416885
v 317.929382 0.000000 -277.742615
v 406.573212 0.000000 -307.290039
v 393.853882 0.000000 -345.655487
v 529.992493 0.000000 -387.237122
v 478.686096 0.000000 -541.223145
v 315.113800 0.000000 -485.609924
v 364.686249 0.000000 -336.746643
v 304.340393 0.000000 -318.390808
v 225.844086 0.000000 -553.193176
v 25.144617 0.000000 -486.294708
vn 0.5412 -0.8213 -0.1804
vn -0.5059 -0.8458 0.1691
vn 0.0000 1.0000 -0.0000
vn -0.2344 -0.5968 -0.7674
vn 0.1725 -0.8442 0.5075
vn -0.3162 0.0001 -0.9487
vn -0.9487 0.0055 0.3161
vn 0.9488 0.0045 -0.3159
vn 0.3162 0.0001 0.9487
vn 0.3162 0.0000 0.9487
vn 0.9484 0.0000 -0.3171
vn 0.9492 0.0000 -0.3147
vn 0.2921 0.0000 0.9564
vn 0.9487 0.0000 -0.3161
vn -0.3219 0.0000 -0.9468
vn -0.9488 0.0000 0.3159
vn -0.2910 0.0000 -0.9567
vn -0.3162 0.0000 -0.9487
vn -0.9487 0.0000 0.3163
usemtl None
s off
f 1//1 14//1 16//1 2//1
f 2//2 16//2 15//2 8//2 4//2 3//2
f 4//3 5//3 6//3 9//3 8//3
f 9//4 10//4 11//4 7//4 6//4
f 10//5 13//5 12//5 11//5
f 1//6 2//6 3//6
f 7//7 11//7 12//7
f 13//8 10//8 9//8
f 15//9 16//9 14//9
f 17//3 18//3 19//3 20//3 21//3 22//3 23//3 24//3 25//3 26//3 27//3 28//3
f 1//10 17//10 18//10 3//10
f 3//11 18//11 19//11 4//11
f 4//10 19//10 20//10 5//10
f 5//12 20//12 21//12 6//12
f 6//13 21//13 22//13 7//13
f 7//14 22//14 23//14 12//14
f 12//15 23//15 24//15 13//15
f 13//16 24//16 25//16 9//16
f 9//17 25//17 26//17 8//17
f 8//11 26//11 27//11 15//11
f 15//18 27//18 28//18 14//18
f 14//19 28//19 17//19 1//19
