# Blender v2.92.0 OBJ File: ''
# www.blender.org
mtllib CG10_500_039056_0017.mtl
o CG10_500_039056_0017
v 137.235626 75.000000 -263.480225
v 149.166885 75.000000 -18.660671
v 83.667900 145.000000 -15.560118
v 71.962563 144.758041 -260.400055
v 20.011515 75.000000 -12.556067
v 8.526630 75.000000 -257.397369
v 137.235626 0.000000 -263.480225
v 149.166885 0.000000 -18.660671
v 20.011515 0.000000 -12.556067
v 8.526630 0.000000 -257.397369
vn 0.7387 -0.6732 -0.0346
vn 0.7289 0.6836 -0.0355
vn 0.0472 -0.0001 0.9989
vn -0.0472 -0.0001 -0.9989
vn 0.0000 -1.0000 0.0000
vn -0.9988 0.0000 0.0487
vn -0.0472 0.0000 -0.9989
vn 0.9989 0.0000 -0.0469
vn 0.0472 0.0000 0.9989
usemtl None
s off
f 5//1 6//1 4//1 3//1
f 3//2 2//2 1//2 4//2
f 2//3 3//3 5//3
f 6//4 4//4 1//4
f 7//5 8//5 9//5 10//5
f 1//6 7//6 8//6 2//6
f 2//7 8//7 9//7 5//7
f 5//8 9//8 10//8 6//8
f 6//9 10//9 7//9 1//9
