# Blender v2.92.0 OBJ File: ''
# www.blender.org
mtllib CG10_500_035060_0016_roof.mtl
o CG10_500_035060_0016_roof
v 299.706024 130.616852 -17.715860
v 219.544388 75.000000 -22.747517
v 382.724121 75.000000 -12.524027
v 222.210266 75.000000 -55.981422
v 18.584394 75.000000 -68.756538
v 98.792839 129.169846 -140.778870
v 212.903854 129.191940 -133.651169
v 307.659546 129.956436 -128.793823
v 286.541168 144.999817 -151.517365
v 236.820206 145.000000 -154.637039
v 28.401058 75.000000 -225.521774
v 142.047287 75.000000 -218.455750
v 397.549469 75.000000 -248.997253
v 145.340149 75.000000 -264.823090
v 219.544388 0.000000 -22.747517
v 382.724121 0.000000 -12.524027
v 397.549469 0.000000 -248.997253
v 145.340149 0.000000 -264.823090
v 142.047287 0.000000 -218.455750
v 28.401058 0.000000 -225.521774
v 18.584394 0.000000 -68.756538
v 222.210266 0.000000 -55.981422
vt 0.953360 0.104330
vt 0.917800 0.954950
vt 0.718720 0.936270
vt 0.737790 0.536710
vt 0.687150 0.454970
vt 0.567910 0.443750
vt 0.348540 0.047399
vt 0.532880 0.798630
vt 0.526490 0.918170
vt 0.044567 0.752670
vt 0.236910 0.493600
vt 0.510560 0.519240
vt 0.340640 0.214190
vt 0.068108 0.188770
vn -0.5547 -0.8313 -0.0348
vn -0.0349 -0.8302 0.5564
vn -0.5675 0.8221 -0.0455
vn 0.0361 -0.8175 -0.5747
vn 0.5757 -0.8167 0.0409
vn -0.0347 -0.8287 0.5586
vn 0.5816 -0.8127 0.0364
vn -0.0625 -0.0002 0.9980
usemtl None
s off
f 13/1/1 3/2/1 1/3/1 8/4/1 9/5/1
f 13/1/2 9/5/2 10/6/2 14/7/2
f 1/3/3 8/4/3 4/8/3 2/9/3
f 9/5/4 8/4/4 4/8/4 5/10/4 6/11/4 7/12/4 10/6/4
f 14/7/5 10/6/5 7/12/5 12/13/5
f 12/13/6 7/12/6 6/11/6 11/14/6
f 11/14/7 6/11/7 5/10/7
f 3/2/8 1/3/8 2/9/8
