# Blender v2.92.0 OBJ File: ''
# www.blender.org
mtllib CG10_500_044067_0036.mtl
o CG10_500_044067_0036
v 317.265320 75.000000 -19.903942
v 395.041016 75.000000 -204.465530
v 407.869171 75.000000 -333.939148
v 359.643890 75.000000 -219.461517
v 289.028473 119.735970 -137.923843
v 278.306396 119.736603 -112.483032
v 282.329803 127.428886 -153.845459
v 283.970062 124.600227 -240.621231
v 303.549469 124.616119 -287.163361
v 248.552505 127.455452 -168.105362
v 255.592545 127.992424 -186.990936
v 192.672012 75.000000 -102.279442
v 181.975220 75.000000 -76.901329
v 241.047928 144.981476 -221.241043
v 240.380325 75.000000 -350.274811
v 259.734009 75.000000 -396.348022
v 143.762039 75.000000 -146.372925
v 137.136368 75.000000 -125.650726
v 167.059860 145.000000 -252.437057
v 19.666857 75.000000 -198.644501
v 107.226791 75.000000 -406.478363
v 317.265320 0.000000 -19.903942
v 395.041016 0.000000 -204.465530
v 359.643890 0.000000 -219.461517
v 407.869171 0.000000 -333.939148
v 259.734009 0.000000 -396.348022
v 240.380325 0.000000 -350.274811
v 107.226791 0.000000 -406.478363
v 19.666857 0.000000 -198.644501
v 143.762039 0.000000 -146.372925
v 137.136368 0.000000 -125.650726
v 192.672012 0.000000 -102.279442
v 181.975220 0.000000 -76.901329
vn -0.4723 0.8587 -0.1991
vn -0.2087 0.8433 0.4953
vn 0.4871 0.8489 0.2053
vn -0.2084 0.8434 0.4952
vn 0.1954 0.8655 -0.4613
vn -0.4672 0.8714 -0.1494
vn -0.2128 0.8363 0.5052
vn 0.4793 -0.8541 0.2019
vn -0.1976 -0.8613 0.4681
vn 0.4744 -0.8575 0.1993
vn -0.1981 -0.8600 0.4703
vn -0.4947 -0.8437 -0.2084
vn 0.0000 1.0000 0.0000
vn 0.9215 0.0000 0.3883
vn 0.3901 0.0000 -0.9208
vn 0.9216 0.0000 0.3882
vn 0.3882 0.0000 -0.9216
vn -0.9220 0.0000 -0.3873
vn 0.3889 0.0000 -0.9213
vn -0.9216 0.0000 -0.3882
vn -0.3882 0.0000 0.9216
vn -0.9525 0.0000 -0.3045
vn -0.3879 0.0000 0.9217
vn -0.9215 0.0000 -0.3884
usemtl None
s off
f 12//1 13//1 6//1 5//1
f 13//2 1//2 6//2
f 1//3 2//3 7//3 5//3 6//3
f 18//4 12//4 5//4 7//4 10//4
f 10//5 7//5 2//5 4//5
f 10//6 11//6 17//6 18//6
f 20//7 17//7 11//7 14//7 19//7
f 20//8 21//8 19//8
f 21//9 15//9 8//9 14//9 19//9
f 15//10 16//10 9//10 8//10
f 16//11 3//11 9//11
f 3//12 4//12 10//12 11//12 14//12 8//12 9//12
f 22//13 23//13 24//13 25//13 26//13 27//13 28//13 29//13 30//13 31//13 32//13 33//13
f 1//14 22//14 23//14 2//14
f 2//15 23//15 24//15 4//15
f 4//16 24//16 25//16 3//16
f 3//17 25//17 26//17 16//17
f 16//18 26//18 27//18 15//18
f 15//19 27//19 28//19 21//19
f 21//20 28//20 29//20 20//20
f 20//21 29//21 30//21 17//21
f 17//22 30//22 31//22 18//22
f 18//23 31//23 32//23 12//23
f 12//24 32//24 33//24 13//24
f 13//21 33//21 22//21 1//21
