# Blender v2.92.0 OBJ File: ''
# www.blender.org
mtllib CG10_500_035061_0050.mtl
o CG10_500_035061_0050
v 312.024200 75.000000 -223.967758
v 288.926514 75.000000 -50.496758
v 213.861359 144.829651 -148.958206
v 123.319420 75.000000 -72.488190
v 115.858696 75.000000 -15.780042
v 139.718491 75.000000 -247.650955
v 145.127228 75.000000 -286.868652
v 121.126068 145.000000 -161.488663
v 72.916039 116.541168 -72.208138
v 80.667595 116.499573 -130.743393
v 86.738037 113.359558 -206.316238
v 92.182289 113.432884 -246.446854
v 14.201423 75.000000 -29.316399
v 50.226307 75.000000 -299.505676
v 312.024200 0.000000 -223.967758
v 288.926514 0.000000 -50.496758
v 123.319420 0.000000 -72.488190
v 115.858696 0.000000 -15.780042
v 14.201423 0.000000 -29.316399
v 50.226307 0.000000 -299.505676
v 145.127228 0.000000 -286.868652
v 139.718491 0.000000 -247.650955
vn -0.0835 -0.7745 0.6270
vn -0.6277 -0.7736 -0.0866
vn -0.0848 -0.7822 0.6172
vn -0.6187 -0.7813 -0.0824
vn 0.0820 -0.7824 -0.6174
vn 0.0841 -0.7708 -0.6315
vn 0.6148 -0.7844 0.0820
vn -0.6341 -0.7688 -0.0834
vn 0.0000 -1.0000 0.0000
vn -0.9913 0.0000 -0.1320
vn 0.1316 0.0000 -0.9913
vn -0.9915 0.0000 -0.1304
vn 0.1320 0.0000 -0.9913
vn 0.9912 0.0000 0.1322
vn -0.1320 0.0000 0.9913
vn -0.9906 0.0000 -0.1366
vn -0.1362 0.0000 0.9907
usemtl None
s off
f 14//1 7//1 12//1
f 11//2 12//2 7//2 6//2
f 1//3 3//3 8//3 11//3 6//3
f 2//4 3//4 1//4
f 4//5 10//5 8//5 3//5 2//5
f 13//6 9//6 5//6
f 14//7 12//7 11//7 8//7 10//7 9//7 13//7
f 5//8 9//8 10//8 4//8
f 15//9 16//9 17//9 18//9 19//9 20//9 21//9 22//9
f 1//10 15//10 16//10 2//10
f 2//11 16//11 17//11 4//11
f 4//12 17//12 18//12 5//12
f 5//13 18//13 19//13 13//13
f 13//14 19//14 20//14 14//14
f 14//15 20//15 21//15 7//15
f 7//16 21//16 22//16 6//16
f 6//17 22//17 15//17 1//17
