# Blender v2.92.0 OBJ File: ''
# www.blender.org
mtllib CG10_500_035064_0009_roof.mtl
o CG10_500_035064_0009_roof
v 359.889069 75.000000 -14.163749
v 376.338470 75.000000 -283.781464
v 251.815964 145.000000 -20.866596
v 261.748840 144.993011 -183.496506
v 250.582733 137.375153 -195.874359
v 147.158661 75.000000 -101.035225
v 142.671021 75.000000 -27.640638
v 16.779749 75.000000 -108.516197
v 23.034727 137.701553 -209.458099
v 28.986275 75.000000 -305.281403
v 359.889069 0.000000 -14.163749
v 376.338470 0.000000 -283.781464
v 28.986275 0.000000 -305.281403
v 16.779749 0.000000 -108.516197
v 147.158661 0.000000 -101.035225
v 142.671021 0.000000 -27.640638
vt 0.639130 0.934790
vt 0.664340 0.426570
vt 0.636000 0.387890
vt 0.373500 0.684260
vt 0.362110 0.913620
vt 0.058464 0.345440
vt 0.073569 0.045996
vt 0.955170 0.113180
vt 0.042588 0.660890
vt 0.913420 0.955740
vn -0.5381 0.8422 -0.0329
vn -0.0338 -0.8373 0.5458
vn -0.0302 0.8499 0.5261
vn -0.5419 -0.8398 -0.0331
vn 0.9981 0.0001 0.0619
vn 0.0619 0.0000 -0.9981
usemtl None
s off
f 3/1/1 4/2/1 5/3/1 6/4/1 7/5/1
f 9/6/2 10/7/2 2/8/2 4/2/2 5/3/2
f 5/3/3 9/6/3 8/9/3 6/4/3
f 2/8/4 1/10/4 3/1/4 4/2/4
f 10/7/5 9/6/5 8/9/5
f 7/5/6 3/1/6 1/10/6
