# Blender v2.92.0 OBJ File: ''
# www.blender.org
mtllib CG10_500_044068_0056_roof.mtl
o CG10_500_044068_0056_roof
v 189.069138 75.000000 -17.437717
v 14.280806 75.000000 -90.717621
v 144.252228 144.998642 -138.267471
v 172.619293 145.000000 -205.949249
v 149.382874 116.659668 -256.813690
v 163.060577 116.560249 -289.823090
v 290.575836 75.000000 -259.609558
v 219.060272 75.000000 -288.963684
v 232.234177 75.000000 -321.073669
v 128.966324 75.000000 -364.369568
v 189.069138 0.000000 -17.437717
v 14.280806 0.000000 -90.717621
v 128.966324 0.000000 -364.369568
v 232.234177 0.000000 -321.073669
v 219.060272 0.000000 -288.963684
v 290.575836 0.000000 -259.609558
vt 0.474510 0.638040
vt 0.621940 0.954350
vt 0.955840 0.320390
vt 0.567830 0.460870
vt 0.491390 0.327710
vt 0.720590 0.243550
vt 0.536380 0.241300
vt 0.763930 0.159490
vt 0.424230 0.046153
vt 0.046976 0.762520
vn 0.5740 0.7828 0.2406
vn -0.2261 -0.8034 0.5509
vn -0.5767 -0.7819 -0.2366
vn -0.2316 -0.8008 0.5524
vn 0.2308 -0.8024 -0.5504
vn 0.5236 -0.8232 0.2195
usemtl None
s off
f 3/1/1 1/2/1 7/3/1 4/4/1
f 4/4/2 5/5/2 8/6/2 7/3/2
f 5/5/3 6/7/3 9/8/3 8/6/3
f 6/7/4 10/9/4 9/8/4
f 2/10/5 3/1/5 1/2/5
f 2/10/6 10/9/6 6/7/6 5/5/6 4/4/6 3/1/6
