# Blender v2.92.0 OBJ File: ''
# www.blender.org
mtllib CG10_500_037071_0015.mtl
o CG10_500_037071_0015
v 311.044617 75.000000 -10.246143
v 16.572226 75.000000 -26.829718
v 316.376831 145.000000 -108.065582
v 21.865625 144.792648 -124.360687
v 321.594635 75.000000 -204.190399
v 197.424866 75.000000 -210.940216
v 168.740479 75.000000 -212.499496
v 27.089499 75.000000 -220.199585
v 169.230377 75.000000 -221.506134
v 197.914703 75.000000 -219.945908
v 311.044617 0.000000 -10.246143
v 16.572226 0.000000 -26.829718
v 27.089499 0.000000 -220.199585
v 168.740479 0.000000 -212.499496
v 169.230377 0.000000 -221.506134
v 197.914703 0.000000 -219.945908
v 197.424866 0.000000 -210.940216
v 321.594635 0.000000 -204.190399
vn 0.0319 0.8088 -0.5872
vn 0.0000 -1.0000 0.0000
vn -0.0327 0.8136 0.5805
vn -0.9985 -0.0002 -0.0543
vn 0.9985 -0.0002 0.0543
vn 0.0562 0.0000 -0.9984
vn 0.9985 0.0000 0.0543
vn -0.0543 0.0000 0.9985
vn -0.9985 0.0000 -0.0543
usemtl None
s off
f 4//1 3//1 5//1 6//1 7//1 8//1
f 7//2 9//2 10//2 6//2
f 4//3 2//3 1//3 3//3
f 2//4 4//4 8//4
f 5//5 3//5 1//5
f 11//2 12//2 13//2 14//2 15//2 16//2 17//2 18//2
f 1//6 11//6 12//6 2//6
f 2//7 12//7 13//7 8//7
f 8//8 13//8 14//8 7//8
f 7//7 14//7 15//7 9//7
f 9//8 15//8 16//8 10//8
f 10//9 16//9 17//9 6//9
f 6//8 17//8 18//8 5//8
f 5//9 18//9 11//9 1//9
