# Blender v2.92.0 OBJ File: ''
# www.blender.org
mtllib CG10_500_049071_0006.mtl
o CG10_500_049071_0006
v 263.602386 75.000000 -11.146637
v 275.603394 75.000000 -192.244736
v 179.304321 145.000000 -114.127335
v 166.653839 75.000000 -199.323517
v 166.048096 75.000000 -224.638779
v 104.942612 144.962830 -119.003654
v 89.384003 131.504089 -136.237000
v 90.019958 130.589340 -162.959320
v 12.083066 75.000000 -27.815182
v 25.744276 75.000000 -233.940063
v 263.602386 0.000000 -11.146637
v 275.603394 0.000000 -192.244736
v 166.653839 0.000000 -199.323517
v 166.048096 0.000000 -224.638779
v 25.744276 0.000000 -233.940063
v 12.083066 0.000000 -27.815182
vn 0.0386 -0.8114 -0.5832
vn 0.6269 -0.7780 0.0416
vn 0.0424 0.7676 -0.6395
vn 0.5828 0.8125 -0.0139
vn -0.0414 -0.7690 0.6380
vn 0.6087 0.7924 0.0403
vn 0.0000 1.0000 0.0000
vn 0.9978 0.0000 0.0661
vn 0.0648 0.0000 -0.9979
vn 0.9997 0.0000 -0.0239
vn 0.0661 0.0000 -0.9978
vn -0.9978 0.0000 -0.0661
vn -0.0661 0.0000 0.9978
usemtl None
s off
f 9//1 6//1 3//1 1//1
f 9//2 10//2 8//2 7//2 6//2
f 8//3 5//3 10//3
f 8//4 7//4 4//4 5//4
f 4//5 2//5 3//5 6//5 7//5
f 1//6 2//6 3//6
f 11//7 12//7 13//7 14//7 15//7 16//7
f 1//8 11//8 12//8 2//8
f 2//9 12//9 13//9 4//9
f 4//10 13//10 14//10 5//10
f 5//11 14//11 15//11 10//11
f 10//12 15//12 16//12 9//12
f 9//13 16//13 11//13 1//13
