# Blender v2.92.0 OBJ File: ''
# www.blender.org
mtllib CG10_500_048076_0021.mtl
o CG10_500_048076_0021
v 118.490280 75.000000 -11.102052
v 15.065539 75.000000 -12.166565
v 301.841156 75.000000 -43.930416
v 124.993614 75.000000 -45.765961
v 68.377563 119.711296 -61.334743
v 71.909798 122.366379 -99.006920
v 98.892410 144.995865 -123.899727
v 219.743225 145.000000 -122.649994
v 17.176039 75.000000 -212.337875
v 303.547485 75.000000 -209.388748
v 118.490280 0.000000 -11.102052
v 15.065539 0.000000 -12.166565
v 17.176039 0.000000 -212.337875
v 303.547485 0.000000 -209.388748
v 301.841156 0.000000 -43.930416
v 124.993614 0.000000 -45.765961
vn 0.0069 -0.7435 -0.6687
vn -0.5967 -0.7946 -0.1120
vn 0.0069 -0.7437 -0.6685
vn -0.0064 -0.7812 0.6242
vn -0.6451 -0.7641 -0.0067
vn -0.6463 0.7631 -0.0068
vn 0.0000 -1.0000 0.0000
vn 0.0103 0.0000 -0.9999
vn 0.9999 0.0000 0.0105
vn -0.0103 0.0000 0.9999
vn -0.9999 0.0000 -0.0103
vn 0.0104 0.0000 -0.9999
vn -0.9829 0.0000 -0.1844
usemtl None
s off
f 2//1 5//1 1//1
f 1//2 5//2 6//2 4//2
f 4//3 6//3 7//3 8//3 3//3
f 10//4 8//4 7//4 9//4
f 3//5 8//5 10//5
f 2//6 5//6 6//6 7//6 9//6
f 11//7 12//7 13//7 14//7 15//7 16//7
f 1//8 11//8 12//8 2//8
f 2//9 12//9 13//9 9//9
f 9//10 13//10 14//10 10//10
f 10//11 14//11 15//11 3//11
f 3//12 15//12 16//12 4//12
f 4//13 16//13 11//13 1//13
