# Blender v2.92.0 OBJ File: ''
# www.blender.org
mtllib CG10_500_048068_0025_roof.mtl
o CG10_500_048068_0025_roof
v 206.055969 115.122162 -16.061531
v 148.620316 75.000000 -19.920303
v 257.783905 75.000000 -12.577882
v 16.648502 75.000000 -32.577297
v 148.664337 75.000000 -23.721981
v 258.038330 75.000000 -16.385448
v 356.147003 75.000000 -9.804559
v 208.441025 116.311974 -74.817078
v 361.746155 75.000000 -96.749100
v 374.973480 75.000000 -96.671768
v 125.282845 145.000000 -118.661163
v 267.140686 144.996597 -109.141167
v 312.000305 114.105980 -151.945160
v 378.316223 112.698029 -149.580627
v 29.841776 75.000000 -228.891525
v 382.293823 75.000000 -205.226212
v 148.620316 0.000000 -19.920303
v 257.783905 0.000000 -12.577882
v 258.038330 0.000000 -16.385448
v 356.147003 0.000000 -9.804559
v 361.746155 0.000000 -96.749100
v 374.973480 0.000000 -96.671768
v 382.293823 0.000000 -205.226212
v 29.841776 0.000000 -228.891525
v 16.648502 0.000000 -32.577297
v 148.664337 0.000000 -23.721981
vt 0.945790 0.374140
vt 0.937430 0.595520
vt 0.904370 0.595190
vt 0.780000 0.364250
vt 0.890370 0.958980
vt 0.667850 0.543340
vt 0.645100 0.931440
vt 0.644460 0.947370
vt 0.515140 0.932800
vt 0.521100 0.686960
vt 0.371550 0.916650
vt 0.371660 0.900740
vt 0.041621 0.863690
vt 0.313210 0.503510
vt 0.074604 0.042295
vt 0.955730 0.141310
vn 0.0034 -0.8145 -0.5801
vn -0.5911 -0.8057 -0.0381
vn -0.6107 -0.7908 -0.0408
vn 0.5724 -0.8200 0.0066
vn 0.0402 -0.7995 -0.5994
vn 0.0375 0.8286 -0.5586
vn -0.5623 0.8261 -0.0378
vn 0.9977 0.0060 0.0673
vn -0.0671 0.0001 0.9977
usemtl None
s off
f 14/1/1 10/2/1 9/3/1 13/4/1
f 9/3/2 7/5/2 12/6/2 13/4/2
f 6/7/3 3/8/3 1/9/3 8/10/3
f 1/9/4 2/11/4 5/12/4 8/10/4
f 7/5/5 6/7/5 8/10/5 5/12/5 4/13/5 11/14/5 12/6/5
f 15/15/6 11/14/6 12/6/6 13/4/6 14/1/6 16/16/6
f 15/15/7 4/13/7 11/14/7
f 16/16/8 14/1/8 10/2/8
f 3/8/9 1/9/9 2/11/9
