# Blender v2.92.0 OBJ File: ''
# www.blender.org
mtllib CG10_500_038071_0013_roof.mtl
o CG10_500_038071_0013_roof
v 26.549288 75.000000 -278.386932
v 267.988068 75.000000 -265.554962
v 109.581818 145.000000 -187.554688
v 177.342468 144.997635 -183.956268
v 76.089493 119.606888 -157.260178
v 258.719299 75.000000 -91.230850
v 125.697029 75.000000 -98.289169
v 71.411423 119.617691 -69.252975
v 121.177452 75.000000 -13.030977
v 12.710719 75.000000 -18.798140
v 26.549288 0.000000 -278.386932
v 267.988068 0.000000 -265.554962
v 258.719299 0.000000 -91.230850
v 125.697029 0.000000 -98.289169
v 121.177452 0.000000 -13.030977
v 12.710719 0.000000 -18.798140
vt 0.388590 0.357690
vt 0.628870 0.370010
vt 0.950310 0.090565
vt 0.094146 0.046620
vt 0.917440 0.687570
vt 0.269820 0.461440
vt 0.445730 0.663390
vt 0.253230 0.762830
vt 0.429710 0.955370
vt 0.045073 0.935620
vn 0.0334 0.7766 -0.6291
vn 0.6296 0.7762 0.0335
vn -0.0329 0.7836 0.6204
vn 0.6454 0.7630 0.0342
vn 0.0340 -0.7680 -0.6396
vn 0.6227 -0.7817 0.0332
usemtl None
s off
f 3/1/1 4/2/1 2/3/1 1/4/1
f 4/2/2 6/5/2 2/3/2
f 5/6/3 7/7/3 6/5/3 4/2/3 3/1/3
f 8/8/4 9/9/4 7/7/4 5/6/4
f 10/10/5 8/8/5 9/9/5
f 10/10/6 1/4/6 3/1/6 5/6/6 8/8/6
