# Blender v2.92.0 OBJ File: ''
# www.blender.org
mtllib CG10_500_038071_0019_roof.mtl
o CG10_500_038071_0019_roof
v 13.649468 75.000000 -17.952169
v 67.481407 117.817848 -63.144859
v 114.666046 75.000000 -11.276596
v 71.331207 117.861176 -120.588699
v 118.381744 75.000000 -65.990440
v 105.588562 145.000000 -151.313568
v 28.398500 75.000000 -241.007721
v 288.776459 75.000000 -55.759529
v 210.511200 144.715637 -144.670288
v 299.826385 75.000000 -222.933441
v 13.649468 0.000000 -17.952169
v 114.666046 0.000000 -11.276596
v 118.381744 0.000000 -65.990440
v 288.776459 0.000000 -55.759529
v 299.826385 0.000000 -222.933441
v 28.398500 0.000000 -241.007721
vt 0.090441 0.043620
vt 0.336270 0.399550
vt 0.670420 0.425910
vt 0.954860 0.115340
vt 0.043470 0.928760
vt 0.214910 0.749430
vt 0.227170 0.521470
vt 0.365180 0.955250
vt 0.377010 0.738130
vt 0.919670 0.778730
vn 0.0424 0.7696 -0.6371
vn -0.6436 0.7642 -0.0426
vn -0.0436 0.7506 0.6593
vn -0.6445 -0.7633 -0.0438
vn -0.0383 0.7697 0.6372
vn 0.6374 0.7693 0.0421
usemtl None
s off
f 7/1/1 6/2/1 9/3/1 10/4/1
f 7/1/2 1/5/2 2/6/2 4/7/2 6/2/2
f 1/5/3 3/8/3 2/6/3
f 2/6/4 4/7/4 5/9/4 3/8/4
f 5/9/5 8/10/5 9/3/5 6/2/5 4/7/5
f 9/3/6 8/10/6 10/4/6 9/3/6 8/10/6
