# Blender v2.92.0 OBJ File: ''
# www.blender.org
mtllib CG10_500_042071_0023.mtl
o CG10_500_042071_0023
v 116.261772 75.000000 -332.082886
v 277.163513 75.000000 -264.411041
v 162.258636 144.996475 -218.467499
v 124.982643 145.000000 -129.828644
v 172.149124 75.000000 -14.664461
v 11.224630 75.000000 -82.345886
v 116.261772 0.000000 -332.082886
v 277.163513 0.000000 -264.411041
v 172.149124 0.000000 -14.664461
v 11.224630 0.000000 -82.345886
vn 0.5801 -0.7772 0.2440
vn 0.2416 -0.7822 -0.5743
vn -0.5734 -0.7830 -0.2411
vn 0.2432 0.7788 -0.5782
vn 0.0000 -1.0000 0.0000
vn -0.3877 0.0000 0.9218
vn -0.9218 0.0000 -0.3876
vn 0.3877 0.0000 -0.9218
vn 0.9218 0.0000 0.3877
usemtl None
s off
f 6//1 1//1 3//1 4//1
f 4//2 5//2 6//2
f 3//3 2//3 5//3 4//3
f 2//4 1//4 3//4
f 7//5 8//5 9//5 10//5
f 1//6 7//6 8//6 2//6
f 2//7 8//7 9//7 5//7
f 5//8 9//8 10//8 6//8
f 6//9 10//9 7//9 1//9
