# Blender v2.92.0 OBJ File: ''
# www.blender.org
mtllib CG10_500_049074_0066.mtl
o CG10_500_049074_0066
v 477.310272 75.000000 -12.546769
v 313.851044 75.000000 -21.632662
v 315.237030 75.000000 -46.835205
v 145.047623 75.000000 -56.316742
v 146.789215 75.000000 -84.134392
v 24.449066 75.000000 -91.085838
v 397.825439 137.114471 -95.135490
v 399.199097 137.120743 -119.966988
v 483.213165 75.000000 -118.597580
v 511.593536 75.000000 -117.020065
v 389.113892 145.000000 -130.398010
v 236.316223 144.992111 -138.900742
v 223.658401 133.905197 -154.559097
v 104.198418 133.848480 -161.274872
v 486.846252 75.000000 -183.869003
v 515.221619 75.000000 -182.291763
v 488.817169 75.000000 -219.278152
v 32.982716 75.000000 -244.612228
v 477.310272 0.000000 -12.546769
v 313.851044 0.000000 -21.632662
v 315.237030 0.000000 -46.835205
v 145.047623 0.000000 -56.316742
v 146.789215 0.000000 -84.134392
v 24.449066 0.000000 -91.085838
v 32.982716 0.000000 -244.612228
v 488.817169 0.000000 -219.278152
v 486.846252 0.000000 -183.869003
v 515.221619 0.000000 -182.291763
v 511.593536 0.000000 -117.020065
v 483.213165 0.000000 -118.597580
vn 0.6126 -0.7896 0.0341
vn -0.0351 0.7851 0.6183
vn -0.6303 0.7753 -0.0395
vn -0.0347 0.7810 0.6235
vn -0.6133 0.7892 -0.0337
vn -0.0346 0.7825 0.6217
vn 0.5939 0.8039 0.0331
vn 0.0000 1.0000 0.0000
vn -0.0331 -0.8029 0.5952
vn 0.0000 -1.0000 0.0000
vn 0.0555 0.0000 -0.9985
vn 0.9985 0.0000 0.0549
vn 0.0556 0.0000 -0.9985
vn 0.9980 0.0000 0.0625
vn 0.0567 0.0000 -0.9984
vn 0.9985 0.0000 0.0555
vn -0.0555 0.0000 0.9985
vn -0.9985 0.0000 -0.0556
vn -0.9985 0.0000 -0.0555
usemtl None
s off
f 6//1 18//1 14//1
f 6//2 5//2 13//2 14//2
f 5//3 4//3 12//3 13//3
f 4//4 3//4 8//4 11//4 12//4
f 3//5 2//5 7//5 8//5
f 2//6 1//6 7//6
f 1//7 9//7 15//7 17//7 11//7 8//7 7//7
f 9//8 10//8 16//8 15//8
f 18//9 17//9 11//9 12//9 13//9 14//9
f 19//10 20//10 21//10 22//10 23//10 24//10 25//10 26//10 27//10 28//10 29//10 30//10
f 1//11 19//11 20//11 2//11
f 2//12 20//12 21//12 3//12
f 3//13 21//13 22//13 4//13
f 4//14 22//14 23//14 5//14
f 5//15 23//15 24//15 6//15
f 6//16 24//16 25//16 18//16
f 18//17 25//17 26//17 17//17
f 17//18 26//18 27//18 15//18
f 15//17 27//17 28//17 16//17
f 16//19 28//19 29//19 10//19
f 10//11 29//11 30//11 9//11
f 9//18 30//18 19//18 1//18
