# Blender v2.92.0 OBJ File: ''
# www.blender.org
mtllib CG10_500_033061_0006_roof.mtl
o CG10_500_033061_0006_roof
v 43.835041 75.000000 -320.162476
v 33.002705 75.000000 -96.500305
v 151.436554 131.470261 -196.239105
v 242.179352 75.000000 -30.413906
v 244.692520 75.000000 -86.148773
v 364.837921 131.485550 -185.832474
v 391.169312 145.000000 -156.146957
v 427.617432 144.998154 -154.378906
v 469.286255 75.000000 -299.479187
v 470.348236 75.000000 -317.791779
v 496.431030 110.886032 -222.732300
v 543.511841 110.800003 -220.624252
v 550.324768 113.745941 -226.292145
v 555.475403 75.000000 -15.246396
v 561.798096 75.000000 -147.593079
v 625.489319 113.616394 -222.942383
v 703.410889 75.000000 -141.774765
v 711.375427 75.000000 -306.110748
v 43.835041 0.000000 -320.162476
v 33.002705 0.000000 -96.500305
v 244.692520 0.000000 -86.148773
v 242.179352 0.000000 -30.413906
v 555.475403 0.000000 -15.246396
v 561.798096 0.000000 -147.593079
v 703.410889 0.000000 -141.774765
v 711.375427 0.000000 -306.110748
v 470.348236 0.000000 -317.791779
v 469.286255 0.000000 -299.479187
vt 0.058839 0.049963
vt 0.044299 0.713650
vt 0.203270 0.417690
vt 0.328450 0.744370
vt 0.489720 0.448570
vt 0.629910 0.111340
vt 0.729550 0.345330
vt 0.666350 0.339070
vt 0.573980 0.541900
vt 0.525060 0.536660
vt 0.631340 0.056998
vt 0.738690 0.328510
vt 0.954870 0.091659
vt 0.839580 0.338450
vt 0.944180 0.579300
vt 0.754090 0.562040
vt 0.745600 0.954760
vt 0.325070 0.909750
vn -0.4450 0.8953 -0.0216
vn -0.0231 0.8815 0.4717
vn -0.0209 -0.9028 0.4295
vn 0.4135 -0.9102 0.0240
vn -0.0196 -0.9144 0.4043
vn 0.4266 0.9042 0.0207
vn -0.0182 0.8960 0.4438
vn 0.4615 0.8869 0.0220
vn -0.0225 0.8846 0.4658
vn -0.4388 0.8984 -0.0198
usemtl None
s off
f 1/1/1 2/2/1 3/3/1
f 3/3/2 2/2/2 5/4/2 6/5/2
f 6/5/3 3/3/3 1/1/3 9/6/3 12/7/3 11/8/3 8/9/3 7/10/3
f 12/7/4 9/6/4 10/11/4 13/12/4
f 13/12/5 10/11/5 18/13/5 16/14/5
f 18/13/6 16/14/6 17/15/6
f 17/15/7 16/14/7 13/12/7 12/7/7 11/8/7 15/16/7
f 15/16/8 11/8/8 8/9/8 14/17/8
f 14/17/9 8/9/9 7/10/9 4/18/9
f 4/18/10 7/10/10 6/5/10 5/4/10
