# Blender v2.92.0 OBJ File: ''
# www.blender.org
mtllib CG10_500_038056_0008_roof.mtl
o CG10_500_038056_0008_roof
v 14.600224 75.000000 -152.854874
v 20.090622 75.000000 -264.757629
v 71.130821 127.176956 -206.205780
v 99.373840 75.000000 -148.996140
v 93.166504 75.000000 -20.172335
v 157.272812 127.032150 -202.129562
v 170.636429 144.541718 -92.993675
v 175.214706 144.806900 -182.155884
v 222.426941 145.000000 -179.629150
v 246.435974 75.000000 -12.652967
v 251.418137 75.000000 -103.605309
v 296.719574 75.000000 -100.984039
v 304.072784 75.000000 -250.806885
v 14.600224 0.000000 -152.854874
v 20.090622 0.000000 -264.757629
v 304.072784 0.000000 -250.806885
v 296.719574 0.000000 -100.984039
v 251.418137 0.000000 -103.605309
v 246.435974 0.000000 -12.652967
v 93.166504 0.000000 -20.172335
v 99.373840 0.000000 -148.996140
vt 0.062588 0.051048
vt 0.221590 0.260910
vt 0.489950 0.275520
vt 0.545840 0.347110
vt 0.692920 0.356170
vt 0.947270 0.101050
vt 0.045484 0.452130
vt 0.309580 0.465960
vt 0.290240 0.927700
vt 0.531580 0.666690
vt 0.767710 0.954650
vt 0.783230 0.628650
vt 0.924360 0.638050
vn 0.0335 0.7315 -0.6810
vn -0.6950 0.7182 -0.0341
vn -0.0310 0.7308 0.6819
vn -0.6846 0.7281 -0.0330
vn -0.0330 0.7401 0.6717
vn 0.6547 0.7550 0.0359
vn 0.0396 -0.7275 -0.6850
vn 0.6668 0.7445 0.0327
usemtl None
s off
f 2/1/1 3/2/1 6/3/1 8/4/1 9/5/1 13/6/1
f 1/7/2 3/2/2 2/1/2
f 4/8/3 6/3/3 3/2/3 1/7/3
f 5/9/4 7/10/4 8/4/4 6/3/4 4/8/4
f 10/11/5 7/10/5 5/9/5
f 11/12/6 8/4/6 7/10/6 10/11/6
f 12/13/7 11/12/7 8/4/7 9/5/7
f 12/13/8 13/6/8 9/5/8
