# Blender v2.92.0 OBJ File: ''
# www.blender.org
mtllib CG10_500_038057_0013.mtl
o CG10_500_038057_0013
v 200.819229 75.000000 -21.987350
v 309.893738 75.000000 -14.927244
v 201.471741 75.000000 -39.911667
v 17.704693 75.000000 -51.263710
v 257.704071 117.320892 -72.013290
v 258.644806 117.517693 -90.820450
v 111.142921 145.000000 -135.121216
v 224.925629 144.871643 -127.928032
v 316.816650 75.000000 -123.395706
v 365.424530 75.000000 -120.494049
v 273.326111 110.202682 -169.642700
v 324.304962 110.102417 -166.475189
v 36.159794 75.000000 -230.517609
v 29.322546 75.000000 -230.959824
v 371.138123 75.000000 -208.851944
v 237.430298 75.000000 -217.499878
v 42.557949 75.000000 -329.474091
v 243.828735 75.000000 -316.460663
v 200.819229 0.000000 -21.987350
v 309.893738 0.000000 -14.927244
v 316.816650 0.000000 -123.395706
v 365.424530 0.000000 -120.494049
v 371.138123 0.000000 -208.851944
v 237.430298 0.000000 -217.499878
v 243.828735 0.000000 -316.460663
v 42.557949 0.000000 -329.474091
v 36.159794 0.000000 -230.517609
v 29.322546 0.000000 -230.959824
v 17.704693 0.000000 -51.263710
v 201.471741 0.000000 -39.911667
vn -0.6223 -0.7817 -0.0402
vn 0.0374 -0.7779 -0.6273
vn -0.6036 -0.7963 -0.0385
vn 0.0400 -0.7848 -0.6184
vn 0.6092 -0.7927 0.0222
vn -0.0395 -0.7905 0.6111
vn 0.6219 -0.7820 0.0402
vn 0.0380 -0.7876 -0.6151
vn 0.0000 -1.0000 0.0000
vn 0.0000 1.0000 0.0000
vn -0.0646 0.0000 0.9979
vn 0.9980 0.0000 0.0637
vn -0.0596 0.0000 0.9982
vn 0.9979 0.0000 0.0645
vn 0.0645 0.0000 -0.9979
vn -0.9979 0.0000 -0.0645
vn -0.0617 0.0000 0.9981
vn -0.9993 0.0000 -0.0364
usemtl None
s off
f 12//1 15//1 10//1
f 9//2 11//2 12//2 10//2
f 2//3 5//3 6//3 8//3 11//3 9//3
f 1//4 5//4 2//4
f 3//5 6//5 5//5 1//5
f 7//6 14//6 13//6 16//6 15//6 12//6 11//6 8//6
f 4//7 14//7 7//7
f 4//8 7//8 8//8 6//8 3//8
f 13//9 17//9 18//9 16//9
f 19//10 20//10 21//10 22//10 23//10 24//10 25//10 26//10 27//10 28//10 29//10 30//10
f 1//11 19//11 20//11 2//11
f 2//12 20//12 21//12 9//12
f 9//13 21//13 22//13 10//13
f 10//14 22//14 23//14 15//14
f 15//15 23//15 24//15 16//15
f 16//14 24//14 25//14 18//14
f 18//15 25//15 26//15 17//15
f 17//16 26//16 27//16 13//16
f 13//15 27//15 28//15 14//15
f 14//16 28//16 29//16 4//16
f 4//17 29//17 30//17 3//17
f 3//18 30//18 19//18 1//18
