# Blender v2.92.0 OBJ File: ''
# www.blender.org
mtllib CG10_500_035064_0011.mtl
o CG10_500_035064_0011
v 42.401512 75.000000 -14.356077
v 220.072311 75.000000 -27.219555
v 59.216091 88.926201 -38.241909
v 201.056793 89.128212 -48.840080
v 218.478333 75.000000 -70.847427
v 423.336548 75.000000 -86.746460
v 196.865952 91.168312 -91.512779
v 128.276474 143.325699 -111.905914
v 416.534424 75.000000 -173.580246
v 434.909454 75.000000 -175.493790
v 124.910995 144.588272 -159.748535
v 329.064697 144.095062 -174.911362
v 123.683350 144.819366 -174.184814
v 368.070496 110.451591 -220.022797
v 390.694763 110.176941 -221.979950
v 120.272209 145.000000 -222.678574
v 428.253540 75.000000 -268.917877
v 202.044724 75.000000 -252.804596
v 22.210098 75.000000 -282.429718
v 199.260468 75.000000 -295.063904
v 38.422928 87.195534 -283.592865
v 181.963196 89.523727 -293.837006
v 42.401512 0.000000 -14.356077
v 220.072311 0.000000 -27.219555
v 218.478333 0.000000 -70.847427
v 423.336548 0.000000 -86.746460
v 416.534424 0.000000 -173.580246
v 434.909454 0.000000 -175.493790
v 428.253540 0.000000 -268.917877
v 202.044724 0.000000 -252.804596
v 199.260468 0.000000 -295.063904
v 22.210098 0.000000 -282.429718
vn 0.5985 -0.7999 -0.0451
vn -0.0379 -0.8514 -0.5231
vn 0.0453 0.7829 0.6206
vn -0.0584 0.7621 -0.6448
vn 0.5759 -0.8151 -0.0620
vn 0.6407 0.7666 -0.0422
vn -0.0443 0.7821 -0.6216
vn 0.6513 0.7574 -0.0464
vn 0.0590 0.8222 0.5661
vn 0.6196 0.7834 -0.0485
vn 0.0455 0.8093 0.5856
vn 0.6093 0.7927 -0.0219
vn -0.6125 -0.7901 0.0224
vn 0.0712 0.0005 0.9975
vn 0.0000 1.0000 0.0000
vn 0.0722 0.0000 0.9974
vn 0.9993 0.0000 -0.0365
vn 0.0774 0.0000 0.9970
vn 0.9969 0.0000 -0.0781
vn 0.1036 0.0000 0.9946
vn 0.9975 0.0000 -0.0711
vn -0.0711 0.0000 -0.9975
vn 0.9978 0.0000 -0.0657
vn -0.0712 0.0000 -0.9975
vn -0.9972 0.0000 0.0751
usemtl None
s off
f 19//1 21//1 16//1 13//1 3//1 1//1
f 1//2 3//2 4//2 2//2
f 8//3 3//3 4//3
f 21//4 16//4 22//4
f 3//5 13//5 11//5 8//5
f 22//6 16//6 13//6 11//6 18//6 20//6
f 18//7 11//7 12//7 14//7 15//7 17//7
f 17//8 15//8 10//8
f 10//9 15//9 14//9 9//9
f 9//10 14//10 12//10 6//10
f 6//11 12//11 11//11 7//11 5//11
f 7//12 11//12 8//12 4//12
f 2//13 4//13 7//13 5//13
f 20//14 22//14 21//14 19//14
f 23//15 24//15 25//15 26//15 27//15 28//15 29//15 30//15 31//15 32//15
f 1//16 23//16 24//16 2//16
f 2//17 24//17 25//17 5//17
f 5//18 25//18 26//18 6//18
f 6//19 26//19 27//19 9//19
f 9//20 27//20 28//20 10//20
f 10//21 28//21 29//21 17//21
f 17//22 29//22 30//22 18//22
f 18//23 30//23 31//23 20//23
f 20//24 31//24 32//24 19//24
f 19//25 32//25 23//25 1//25
