# Blender v2.92.0 OBJ File: ''
# www.blender.org
mtllib CG10_500_041070_0019.mtl
o CG10_500_041070_0019
v 20.951738 75.000000 -250.162155
v 331.213745 75.000000 -236.077103
v 73.066513 115.116058 -190.259232
v 90.992470 115.261406 -189.236969
v 192.569138 116.836700 -182.366272
v 268.124115 116.883675 -178.868896
v 128.021896 144.910858 -145.030762
v 150.814789 145.000000 -143.868164
v 15.834669 75.000000 -136.919189
v 34.892193 75.000000 -135.611816
v 325.849304 75.000000 -117.501472
v 249.158035 75.000000 -121.118217
v 174.199783 127.725044 -118.984169
v 172.718674 127.755157 -87.653862
v 30.773041 75.000000 -55.138027
v 102.855949 75.000000 -51.076649
v 101.313507 75.000000 -19.282970
v 244.186111 75.000000 -12.819292
v 20.951738 0.000000 -250.162155
v 331.213745 0.000000 -236.077103
v 325.849304 0.000000 -117.501472
v 249.158035 0.000000 -121.118217
v 244.186111 0.000000 -12.819292
v 101.313507 0.000000 -19.282970
v 102.855949 0.000000 -51.076649
v 30.773041 0.000000 -55.138027
v 34.892193 0.000000 -135.611816
v 15.834669 0.000000 -136.919189
vn -0.0268 0.8048 0.5930
vn 0.6122 -0.7901 0.0297
vn -0.0333 0.8061 0.5909
vn 0.6021 -0.7979 0.0308
vn 0.0393 -0.8184 -0.5733
vn 0.5903 -0.8067 0.0267
vn -0.0260 -0.8200 0.5717
vn -0.5690 -0.8219 -0.0257
vn -0.0274 0.8135 0.5810
vn 0.5756 0.8173 0.0264
vn 0.0000 -1.0000 0.0000
vn -0.0454 0.0000 0.9990
vn -0.9990 0.0000 -0.0452
vn 0.0471 0.0000 -0.9989
vn -0.9989 0.0000 -0.0459
vn 0.0452 0.0000 -0.9990
vn 0.9988 0.0000 0.0485
vn 0.0563 0.0000 -0.9984
vn 0.9987 0.0000 0.0511
vn 0.0684 0.0000 -0.9977
vn 0.9990 0.0000 0.0451
usemtl None
s off
f 17//1 18//1 14//1
f 17//2 16//2 13//2 14//2
f 15//3 16//3 13//3 8//3 7//3
f 15//4 10//4 4//4 7//4
f 10//5 9//5 3//5 4//5
f 9//6 1//6 3//6
f 1//7 2//7 6//7 5//7 8//7 7//7 4//7 3//7
f 11//8 6//8 2//8
f 12//9 11//9 6//9 5//9
f 18//10 12//10 5//10 8//10 13//10 14//10
f 19//11 20//11 21//11 22//11 23//11 24//11 25//11 26//11 27//11 28//11
f 1//12 19//12 20//12 2//12
f 2//13 20//13 21//13 11//13
f 11//14 21//14 22//14 12//14
f 12//15 22//15 23//15 18//15
f 18//16 23//16 24//16 17//16
f 17//17 24//17 25//17 16//17
f 16//18 25//18 26//18 15//18
f 15//19 26//19 27//19 10//19
f 10//20 27//20 28//20 9//20
f 9//21 28//21 19//21 1//21
