# Blender v2.92.0 OBJ File: ''
# www.blender.org
mtllib CG10_500_041068_0002_roof.mtl
o CG10_500_041068_0002_roof
v 344.123962 75.000000 -13.843513
v 355.456146 75.000000 -184.132309
v 268.926727 145.000000 -103.652245
v 190.231812 75.000000 -303.678406
v 183.692886 75.000000 -194.953247
v 108.913239 144.763138 -114.023697
v 103.071388 139.821762 -120.457726
v 109.916306 139.527237 -228.518524
v 15.140474 75.000000 -35.756847
v 33.734241 75.000000 -314.096344
v 344.123962 0.000000 -13.843513
v 355.456146 0.000000 -184.132309
v 183.692886 0.000000 -194.953247
v 190.231812 0.000000 -303.678406
v 33.734241 0.000000 -314.096344
v 15.140474 0.000000 -35.756847
vt 0.090928 0.045300
vt 0.040810 0.891320
vt 0.293570 0.653420
vt 0.277820 0.633870
vt 0.296270 0.305410
vt 0.512750 0.076965
vt 0.495130 0.407440
vt 0.724870 0.684950
vt 0.927560 0.957920
vt 0.958100 0.440330
vn -0.6183 0.7848 -0.0413
vn -0.0416 -0.7796 0.6249
vn 0.6477 0.7609 0.0390
vn 0.0424 -0.7705 -0.6360
vn -0.0398 -0.7747 0.6311
vn 0.6524 0.7566 0.0434
usemtl None
s off
f 10/1/1 9/2/1 6/3/1 7/4/1 8/5/1
f 4/6/2 8/5/2 10/1/2
f 5/7/3 4/6/3 8/5/3 7/4/3
f 3/8/4 1/9/4 9/2/4 6/3/4
f 2/10/5 3/8/5 6/3/5 7/4/5 5/7/5
f 1/9/6 2/10/6 3/8/6
