# Blender v2.92.0 OBJ File: ''
# www.blender.org
mtllib CG10_500_036061_0004.mtl
o CG10_500_036061_0004
v 68.385239 121.196342 -23.223150
v 117.472633 75.000000 -17.826296
v 14.765113 75.000000 -29.185129
v 227.970154 75.000000 -46.289898
v 122.957642 75.000000 -57.917130
v 233.779205 123.412231 -98.624748
v 79.712296 122.263390 -114.426224
v 128.011124 124.121605 -111.111923
v 107.730431 144.149734 -135.274460
v 240.201920 75.000000 -156.805389
v 191.061737 75.000000 -163.008575
v 132.314468 145.000000 -348.811066
v 212.243759 75.000000 -339.915894
v 51.057285 75.000000 -357.770813
v 117.472633 0.000000 -17.826296
v 14.765113 0.000000 -29.185129
v 51.057285 0.000000 -357.770813
v 212.243759 0.000000 -339.915894
v 191.061737 0.000000 -163.008575
v 240.201920 0.000000 -156.805389
v 227.970154 0.000000 -46.289898
v 122.957642 0.000000 -57.917130
vn 0.6770 0.7302 0.0926
vn -0.6519 -0.7543 -0.0781
vn -0.6465 0.7596 -0.0714
vn -0.0798 -0.7705 0.6324
vn 0.0745 -0.7362 -0.6727
vn -0.9939 0.0003 -0.1100
vn -0.1101 0.0006 0.9939
vn 0.1099 0.0007 -0.9939
vn 0.0000 -1.0000 0.0000
vn 0.1099 0.0000 -0.9939
vn 0.9940 0.0000 0.1098
vn -0.1101 0.0000 0.9939
vn -0.9929 0.0000 -0.1189
vn -0.1252 0.0000 0.9921
vn -0.9939 0.0000 -0.1100
vn 0.1100 0.0000 -0.9939
vn -0.9908 0.0000 -0.1356
usemtl None
s off
f 1//1 2//1 5//1 7//1
f 13//2 11//2 8//2 9//2 12//2
f 3//3 1//3 7//3 9//3 12//3 14//3
f 10//4 6//4 8//4 11//4
f 4//5 5//5 7//5 9//5 8//5 6//5
f 4//6 6//6 10//6
f 13//7 12//7 14//7
f 3//8 1//8 2//8
f 15//9 16//9 17//9 18//9 19//9 20//9 21//9 22//9
f 2//10 15//10 16//10 3//10
f 3//11 16//11 17//11 14//11
f 14//12 17//12 18//12 13//12
f 13//13 18//13 19//13 11//13
f 11//14 19//14 20//14 10//14
f 10//15 20//15 21//15 4//15
f 4//16 21//16 22//16 5//16
f 5//17 22//17 15//17 2//17
