# Blender v2.92.0 OBJ File: ''
# www.blender.org
mtllib CG10_500_038058_0015_roof.mtl
o CG10_500_038058_0015_roof
v 288.317078 75.000000 -11.156482
v 46.745026 75.000000 -24.049301
v 14.654861 75.000000 -121.173576
v 149.134674 144.999588 -114.946365
v 51.822647 75.000000 -119.189949
v 198.075745 145.000000 -112.334930
v 17.741568 75.000000 -179.009964
v 54.909355 75.000000 -177.026337
v 298.571716 75.000000 -203.300125
v 56.999367 75.000000 -216.187332
v 288.317078 0.000000 -11.156482
v 46.745026 0.000000 -24.049301
v 51.822647 0.000000 -119.189949
v 14.654861 0.000000 -121.173576
v 17.741568 0.000000 -179.009964
v 54.909355 0.000000 -177.026337
v 56.999367 0.000000 -216.187332
v 298.571716 0.000000 -203.300125
vt 0.149350 0.894980
vt 0.476470 0.498050
vt 0.632830 0.509450
vt 0.921140 0.951280
vt 0.953900 0.112230
vt 0.182110 0.055950
vt 0.165570 0.479520
vt 0.175430 0.226960
vt 0.046821 0.470860
vt 0.056682 0.218300
vn 0.0314 -0.8087 -0.5874
vn -0.5903 -0.8066 -0.0315
vn -0.0313 -0.8086 0.5876
vn 0.5828 -0.8120 0.0311
vn 0.0000 1.0000 -0.0000
usemtl None
s off
f 2/1/1 4/2/1 6/3/1 1/4/1
f 1/4/2 6/3/2 9/5/2
f 9/5/3 6/3/3 4/2/3 10/6/3
f 10/6/4 4/2/4 2/1/4 5/7/4 8/8/4
f 3/9/5 5/7/5 8/8/5 7/10/5
