# Blender v2.92.0 OBJ File: ''
# www.blender.org
mtllib CG10_500_039072_0021.mtl
o CG10_500_039072_0021
v 226.653290 75.000000 -280.258118
v 217.797211 75.000000 -96.602211
v 196.672729 75.000000 -97.280014
v 192.280457 75.000000 -15.427381
v 137.259872 144.828186 -197.036530
v 115.698769 145.000000 -197.969101
v 111.277840 144.822906 -111.510246
v 109.411957 75.000000 -286.506226
v 110.854607 75.000000 -320.734009
v 67.479027 107.837082 -247.365265
v 70.874146 107.656845 -322.670654
v 26.505650 75.000000 -324.800812
v 11.969390 75.000000 -24.116877
v 226.653290 0.000000 -280.258118
v 217.797211 0.000000 -96.602211
v 196.672729 0.000000 -97.280014
v 192.280457 0.000000 -15.427381
v 11.969390 0.000000 -24.116877
v 26.505650 0.000000 -324.800812
v 110.854607 0.000000 -320.734009
v 109.411957 0.000000 -286.506226
vn -0.0291 0.7968 0.6035
vn -0.0331 -0.7829 0.6213
vn -0.6293 -0.7765 -0.0338
vn -0.0186 0.8138 0.5808
vn 0.6328 0.7737 0.0305
vn 0.6316 0.7748 0.0266
vn -0.5916 0.8057 -0.0286
vn 0.0482 -0.0003 -0.9988
vn 0.0000 -1.0000 0.0000
vn -0.9988 0.0000 -0.0482
vn 0.0321 0.0000 -0.9995
vn -0.9986 0.0000 -0.0536
vn 0.0481 0.0000 -0.9988
vn 0.9988 0.0000 0.0483
vn -0.0482 0.0000 0.9988
vn -0.9991 0.0000 -0.0421
vn -0.0532 0.0000 0.9986
usemtl None
s off
f 4//1 7//1 13//1
f 8//2 1//2 5//2 6//2 10//2
f 4//3 7//3 6//3 3//3
f 3//4 2//4 5//4 6//4
f 2//5 1//5 5//5
f 8//6 9//6 11//6 10//6
f 11//7 12//7 13//7 7//7 6//7 10//7
f 12//8 11//8 9//8
f 14//9 15//9 16//9 17//9 18//9 19//9 20//9 21//9
f 1//10 14//10 15//10 2//10
f 2//11 15//11 16//11 3//11
f 3//12 16//12 17//12 4//12
f 4//13 17//13 18//13 13//13
f 13//14 18//14 19//14 12//14
f 12//15 19//15 20//15 9//15
f 9//16 20//16 21//16 8//16
f 8//17 21//17 14//17 1//17
