# Blender v2.92.0 OBJ File: ''
# www.blender.org
mtllib CG10_500_045072_0045.mtl
o CG10_500_045072_0045
v 17.514446 75.000000 -56.813972
v 123.941711 75.000000 -12.600756
v 96.406914 122.947914 -89.744133
v 295.215942 75.000000 -19.071245
v 151.696762 75.000000 -78.962128
v 123.380165 123.021500 -154.455719
v 159.054688 144.926514 -168.614899
v 252.172653 145.000000 -129.854019
v 108.592606 75.000000 -276.133484
v 358.836121 75.000000 -172.212692
v 17.514446 0.000000 -56.813972
v 123.941711 0.000000 -12.600756
v 151.696762 0.000000 -78.962128
v 295.215942 0.000000 -19.071245
v 358.836121 0.000000 -172.212692
v 108.592606 0.000000 -276.133484
vn -0.2379 0.7846 0.5726
vn 0.6052 0.7548 0.2531
vn -0.5752 0.7824 -0.2389
vn 0.5985 0.7615 0.2486
vn 0.2525 0.7527 -0.6080
vn -0.2437 0.7743 0.5840
vn 0.0000 1.0000 0.0000
vn -0.3836 0.0000 0.9235
vn 0.9226 0.0000 0.3859
vn -0.3851 0.0000 0.9229
vn 0.9235 0.0000 0.3836
vn 0.3835 0.0000 -0.9235
vn -0.9235 0.0000 -0.3835
usemtl None
s off
f 1//1 2//1 3//1
f 2//2 5//2 6//2 3//2
f 3//3 1//3 3//3 6//3 7//3 9//3 1//3
f 4//4 10//4 8//4
f 8//5 10//5 9//5 7//5
f 5//6 4//6 8//6 7//6 6//6
f 11//7 12//7 13//7 14//7 15//7 16//7
f 1//8 11//8 12//8 2//8
f 2//9 12//9 13//9 5//9
f 5//10 13//10 14//10 4//10
f 4//11 14//11 15//11 10//11
f 10//12 15//12 16//12 9//12
f 9//13 16//13 11//13 1//13
