# Blender v2.92.0 OBJ File: ''
# www.blender.org
mtllib CG10_500_035060_0014.mtl
o CG10_500_035060_0014
v 318.768951 75.000000 -8.838780
v 327.131378 75.000000 -168.489075
v 322.730835 144.705826 -84.246178
v 15.506220 75.000000 -24.640509
v 23.905355 75.000000 -184.964417
v 19.461508 145.000000 -100.367348
v 318.768951 0.000000 -8.838780
v 327.131378 0.000000 -168.489075
v 23.905355 0.000000 -184.964417
v 15.506220 0.000000 -24.640509
vn -0.0353 0.7348 0.6774
vn 0.0346 0.7709 -0.6360
vn -0.9986 0.0002 -0.0523
vn 0.9986 0.0002 0.0523
vn 0.0000 1.0000 0.0000
vn 0.9986 0.0000 0.0523
vn 0.0543 0.0000 -0.9985
vn -0.9986 0.0000 -0.0523
vn -0.0520 0.0000 0.9986
usemtl None
s off
f 4//1 1//1 3//1 6//1
f 6//2 3//2 2//2 5//2
f 1//3 3//3 2//3
f 5//4 6//4 4//4
f 7//5 8//5 9//5 10//5
f 1//6 7//6 8//6 2//6
f 2//7 8//7 9//7 5//7
f 5//8 9//8 10//8 4//8
f 4//9 10//9 7//9 1//9
