# Blender v2.92.0 OBJ File: ''
# www.blender.org
mtllib CG10_500_039068_0009.mtl
o CG10_500_039068_0009
v 15.367835 75.000000 -38.946228
v 325.371185 75.000000 -18.827732
v 286.720673 138.858139 -62.959900
v 62.520077 144.277603 -81.042503
v 68.695671 145.000000 -170.220520
v 292.173004 139.638107 -156.319199
v 298.311737 139.251221 -248.561218
v 74.200279 144.635284 -259.814423
v 32.686871 75.000000 -309.336670
v 299.004913 75.000000 -291.667145
v 146.816177 75.000000 -301.764465
v 342.600983 75.000000 -288.774658
v 152.017517 145.045090 -381.258606
v 304.200684 144.955078 -371.059052
v 152.877777 75.000000 -394.400238
v 305.058746 75.000000 -384.183868
v 15.367835 0.000000 -38.946228
v 325.371185 0.000000 -18.827732
v 342.600983 0.000000 -288.774658
v 299.004913 0.000000 -291.667145
v 305.058746 0.000000 -384.183868
v 152.877777 0.000000 -394.400238
v 146.816177 0.000000 -301.764465
v 32.686871 0.000000 -309.336670
vn 0.0241 0.9997 -0.0026
vn 0.0550 0.5567 -0.8289
vn 0.0437 -0.7510 -0.6589
vn -0.0658 -0.1848 0.9806
vn 0.8404 -0.5393 0.0538
vn -0.0234 -0.9997 -0.0097
vn 0.0543 -0.5453 -0.8365
vn 0.8375 0.5438 0.0535
vn -0.9979 0.0000 -0.0653
vn 0.9979 0.0000 0.0653
vn 0.0000 1.0000 0.0000
vn -0.0648 0.0000 0.9979
vn 0.9980 0.0000 0.0637
vn 0.0662 0.0000 -0.9978
vn 0.0670 0.0000 -0.9978
vn -0.9980 0.0000 -0.0639
usemtl None
s off
f 6//1 7//1 8//1 5//1
f 7//2 12//2 10//2 11//2 9//2 8//2
f 11//3 13//3 14//3 10//3
f 13//4 15//4 16//4 14//4
f 1//5 9//5 8//5 5//5 4//5
f 4//6 5//6 6//6 3//6
f 1//7 4//7 3//7 2//7
f 2//8 12//8 7//8 6//8 3//8
f 10//9 14//9 16//9
f 15//10 13//10 11//10
f 17//11 18//11 19//11 20//11 21//11 22//11 23//11 24//11
f 1//12 17//12 18//12 2//12
f 2//13 18//13 19//13 12//13
f 12//14 19//14 20//14 10//14
f 10//10 20//10 21//10 16//10
f 16//15 21//15 22//15 15//15
f 15//9 22//9 23//9 11//9
f 11//14 23//14 24//14 9//14
f 9//16 24//16 17//16 1//16
