# Blender v2.92.0 OBJ File: ''
# www.blender.org
mtllib CG10_500_045068_0046.mtl
o CG10_500_045068_0046
v 91.374191 75.000000 -318.757629
v 403.760925 75.000000 -186.936035
v 144.721054 144.997894 -192.717560
v 284.752197 145.000000 -133.623825
v 19.066769 75.000000 -147.406769
v 331.448669 75.000000 -15.573694
v 91.374191 0.000000 -318.757629
v 403.760925 0.000000 -186.936035
v 331.448669 0.000000 -15.573694
v 19.066769 0.000000 -147.406769
vn 0.5349 -0.8142 0.2257
vn 0.2300 0.8062 -0.5451
vn 0.5699 0.7857 0.2405
vn 0.2377 -0.7913 -0.5633
vn 0.0000 -1.0000 0.0000
vn -0.3888 0.0000 0.9213
vn -0.9213 0.0000 -0.3888
vn 0.3888 0.0000 -0.9213
vn 0.9213 0.0000 0.3888
usemtl None
s off
f 5//1 1//1 3//1
f 3//2 4//2 2//2 1//2
f 4//3 6//3 2//3
f 6//4 5//4 3//4 4//4
f 7//5 8//5 9//5 10//5
f 1//6 7//6 8//6 2//6
f 2//7 8//7 9//7 6//7
f 6//8 9//8 10//8 5//8
f 5//9 10//9 7//9 1//9
