# Blender v2.92.0 OBJ File: ''
# www.blender.org
mtllib CG10_500_038057_0004.mtl
o CG10_500_038057_0004
v 279.832489 75.000000 -180.433228
v 269.385956 75.000000 -8.386746
v 188.652588 145.000000 -104.287933
v 113.340019 144.999069 -108.881256
v 80.922066 115.213837 -145.623718
v 62.384224 115.004013 -146.998993
v 29.569651 75.000000 -95.715782
v 24.054890 75.000000 -23.353443
v 13.142541 75.000000 -97.186478
v 19.156771 75.000000 -196.328079
v 279.832489 0.000000 -180.433228
v 269.385956 0.000000 -8.386746
v 24.054890 0.000000 -23.353443
v 29.569651 0.000000 -95.715782
v 13.142541 0.000000 -97.186478
v 19.156771 0.000000 -196.328079
vn 0.0396 0.7588 -0.6501
vn 0.0531 -0.8036 -0.5929
vn -0.6539 0.7555 -0.0397
vn -0.6450 0.7626 -0.0492
vn 0.0372 -0.7920 -0.6094
vn -0.6284 -0.7770 -0.0382
vn 0.0000 -1.0000 0.0000
vn -0.9982 0.0000 -0.0606
vn 0.0609 0.0000 -0.9981
vn 0.9971 0.0000 0.0760
vn 0.0892 0.0000 -0.9960
vn 0.9982 0.0000 0.0606
vn -0.0609 0.0000 0.9981
usemtl None
s off
f 10//1 6//1 5//1 4//1 3//1 1//1
f 9//2 6//2 5//2 7//2
f 9//3 6//3 10//3
f 7//4 8//4 4//4 5//4
f 8//5 4//5 3//5 2//5
f 2//6 3//6 1//6
f 11//7 12//7 13//7 14//7 15//7 16//7
f 1//8 11//8 12//8 2//8
f 2//9 12//9 13//9 8//9
f 8//10 13//10 14//10 7//10
f 7//11 14//11 15//11 9//11
f 9//12 15//12 16//12 10//12
f 10//13 16//13 11//13 1//13
