# Blender v2.92.0 OBJ File: ''
# www.blender.org
mtllib CG10_500_033058_0018_roof.mtl
o CG10_500_033058_0018_roof
v 277.586395 75.000000 -302.227478
v 270.488098 75.000000 -192.469650
v 220.183762 122.659027 -252.409317
v 169.587936 75.000000 -15.848658
v 181.310196 75.000000 -197.706299
v 130.720520 122.938416 -257.996796
v 121.193733 75.000000 -312.544403
v 122.026466 75.000000 -330.803436
v 97.328476 145.000000 -102.412712
v 105.880341 144.985641 -234.837677
v 73.699928 115.004990 -270.681519
v 74.780701 114.841461 -290.293335
v 11.836292 75.000000 -26.048357
v 31.932238 75.000000 -336.632782
v 277.586395 0.000000 -302.227478
v 270.488098 0.000000 -192.469650
v 181.310196 0.000000 -197.706299
v 169.587936 0.000000 -15.848658
v 11.836292 0.000000 -26.048357
v 31.932238 0.000000 -336.632782
v 122.026466 0.000000 -330.803436
v 121.193733 0.000000 -312.544403
vt 0.040675 0.926000
vt 0.582780 0.954980
vt 0.334460 0.709050
vt 0.623060 0.438330
vt 0.363850 0.332850
vt 0.253260 0.231020
vt 0.256980 0.175300
vt 0.109730 0.043657
vt 0.419330 0.060217
vt 0.416470 0.112090
vt 0.449210 0.267050
vt 0.756650 0.282930
vt 0.953910 0.141400
vt 0.929510 0.453210
vn -0.0420 0.7595 0.6492
vn 0.6681 0.7429 0.0431
vn -0.6554 0.7541 -0.0424
vn 0.0436 0.7373 -0.6742
vn 0.6593 0.7513 0.0301
vn 0.0438 0.7466 -0.6638
vn 0.6599 0.7502 0.0427
vn 0.6745 0.7380 0.0209
vn -0.0376 0.7665 0.6411
usemtl None
s off
f 13/1/1 4/2/1 9/3/1
f 9/3/2 4/2/2 5/4/2 10/5/2
f 13/1/3 9/3/3 10/5/3 11/6/3 12/7/3 14/8/3
f 14/8/4 12/7/4 8/9/4
f 12/7/5 11/6/5 7/10/5 8/9/5
f 11/6/6 10/5/6 6/11/6 3/12/6 1/13/6 7/10/6
f 3/12/7 2/14/7 1/13/7
f 10/5/8 5/4/8 6/11/8
f 6/11/9 5/4/9 2/14/9 3/12/9
