# Blender v2.92.0 OBJ File: ''
# www.blender.org
mtllib CG10_500_048075_0006_roof.mtl
o CG10_500_048075_0006_roof
v 19.551931 75.000000 -173.814743
v 51.566822 144.752777 -91.776634
v 82.856064 75.000000 -11.645456
v 235.717773 75.000000 -71.282829
v 220.792374 144.849121 -157.925720
v 208.421539 75.000000 -247.788376
v 367.288757 75.000000 -62.783142
v 372.803650 145.000000 -148.290634
v 378.496002 75.000000 -237.223709
v 19.551931 0.000000 -173.814743
v 82.856064 0.000000 -11.645456
v 235.717773 0.000000 -71.282829
v 367.288757 0.000000 -62.783142
v 378.496002 0.000000 -237.223709
v 208.421539 0.000000 -247.788376
vt 0.208180 0.955040
vt 0.592260 0.724780
vt 0.554750 0.390250
vt 0.129560 0.645650
vt 0.922840 0.757590
vt 0.936690 0.427450
vt 0.049125 0.328900
vt 0.523670 0.043288
vt 0.951000 0.084078
vn 0.2289 0.7767 0.5868
vn -0.0408 0.7744 0.6313
vn 0.2264 -0.7839 0.5781
vn -0.0383 -0.7864 0.6165
vn 0.9315 0.0001 -0.3636
vn -0.9979 0.0003 -0.0641
usemtl None
s off
f 3/1/1 4/2/1 5/3/1 2/4/1
f 4/2/2 7/5/2 8/6/2 5/3/2
f 2/4/3 1/7/3 6/8/3 5/3/3
f 6/8/4 9/9/4 8/6/4 5/3/4
f 1/7/5 2/4/5 3/1/5
f 7/5/6 8/6/6 9/9/6
