# Blender v2.92.0 OBJ File: ''
# www.blender.org
mtllib CG10_500_045075_0001_roof.mtl
o CG10_500_045075_0001_roof
v 331.517822 75.000000 -216.392670
v 245.562897 75.000000 -15.040714
v 218.804520 115.610634 -80.742249
v 235.955002 116.304085 -123.110001
v 216.837494 144.849747 -168.569077
v 153.880280 75.000000 -54.118233
v 170.184372 75.000000 -96.716515
v 127.191063 145.000000 -206.553391
v 14.160910 75.000000 -162.483002
v 82.334778 75.000000 -322.552765
v 331.517822 0.000000 -216.392670
v 245.562897 0.000000 -15.040714
v 153.880280 0.000000 -54.118233
v 170.184372 0.000000 -96.716515
v 14.160910 0.000000 -162.483002
v 82.334778 0.000000 -322.552765
vt 0.443460 0.839890
vt 0.707670 0.955500
vt 0.630560 0.761120
vt 0.490440 0.713860
vt 0.679990 0.635770
vt 0.237280 0.045702
vt 0.955380 0.359780
vt 0.624890 0.501270
vt 0.366540 0.388900
vt 0.040810 0.519280
vn -0.2474 0.7759 0.5803
vn 0.5809 -0.7830 0.2224
vn -0.2421 -0.7865 0.5682
vn -0.5770 -0.7787 -0.2463
vn 0.5779 -0.7781 0.2461
vn 0.2478 -0.7701 -0.5878
usemtl None
s off
f 6/1/1 2/2/1 3/3/1
f 6/1/2 7/4/2 4/5/2 3/3/2
f 10/6/3 1/7/3 5/8/3 8/9/3
f 1/7/4 2/2/4 3/3/4 4/5/4 5/8/4
f 9/10/5 10/6/5 8/9/5
f 7/4/6 9/10/6 8/9/6 5/8/6 4/5/6
