# Blender v2.92.0 OBJ File: ''
# www.blender.org
mtllib CG10_500_037059_0001.mtl
o CG10_500_037059_0001
v 281.748688 75.000000 -246.664917
v 267.556549 75.000000 -17.730684
v 165.344055 145.000000 -140.975540
v 149.142090 75.000000 -254.675201
v 155.999741 75.000000 -366.571960
v 137.653534 144.987778 -142.667892
v 93.771065 113.441986 -311.385559
v 86.760513 113.424934 -196.567795
v 10.904423 75.000000 -33.605602
v 31.618618 75.000000 -374.281952
v 281.748688 0.000000 -246.664917
v 267.556549 0.000000 -17.730684
v 10.904423 0.000000 -33.605602
v 31.618618 0.000000 -374.281952
v 155.999741 0.000000 -366.571960
v 149.142090 0.000000 -254.675201
vn 0.0318 -0.8576 -0.5134
vn -0.5371 -0.8429 -0.0333
vn -0.0319 -0.8491 0.5273
vn -0.5466 -0.8367 -0.0335
vn -0.0338 -0.8376 0.5453
vn 0.5032 -0.8636 0.0306
vn 0.0000 -1.0000 0.0000
vn -0.9981 0.0000 -0.0619
vn 0.0617 0.0000 -0.9981
vn 0.9982 0.0000 0.0607
vn -0.0619 0.0000 0.9981
vn -0.9981 0.0000 -0.0612
vn -0.0603 0.0000 0.9982
usemtl None
s off
f 9//1 6//1 3//1 2//1
f 2//2 3//2 1//2
f 1//3 3//3 6//3 8//3 4//3
f 4//4 8//4 7//4 5//4
f 5//5 7//5 10//5
f 10//6 7//6 8//6 6//6 9//6
f 11//7 12//7 13//7 14//7 15//7 16//7
f 1//8 11//8 12//8 2//8
f 2//9 12//9 13//9 9//9
f 9//10 13//10 14//10 10//10
f 10//11 14//11 15//11 5//11
f 5//12 15//12 16//12 4//12
f 4//13 16//13 11//13 1//13
