# Blender v2.92.0 OBJ File: ''
# www.blender.org
mtllib CG10_500_042071_0033_roof.mtl
o CG10_500_042071_0033_roof
v 348.314850 75.000000 -186.815292
v 59.803852 75.000000 -306.030212
v 342.076752 75.000000 -171.725006
v 372.644592 75.000000 -159.088715
v 88.128624 117.328598 -232.809113
v 133.712158 117.634537 -213.529022
v 225.407059 145.000000 -135.869171
v 152.424210 144.995682 -166.032516
v 339.201141 75.000000 -78.187325
v 308.633301 75.000000 -90.823608
v 17.733320 75.000000 -204.244354
v 62.056648 75.000000 -185.082657
v 276.785248 75.000000 -13.781506
v 32.831978 75.000000 -114.626671
v 44.232590 75.000000 -109.913902
v 160.293137 75.000000 -61.936901
v 35.692402 75.000000 -89.256119
v 151.753174 75.000000 -41.278316
v 348.314850 0.000000 -186.815292
v 59.803852 0.000000 -306.030212
v 17.733320 0.000000 -204.244354
v 62.056648 0.000000 -185.082657
v 32.831978 0.000000 -114.626671
v 44.232590 0.000000 -109.913902
v 35.692402 0.000000 -89.256119
v 151.753174 0.000000 -41.278316
v 160.293137 0.000000 -61.936901
v 276.785248 0.000000 -13.781506
v 308.633301 0.000000 -90.823608
v 339.201141 0.000000 -78.187325
v 372.644592 0.000000 -159.088715
v 342.076752 0.000000 -171.725006
vt 0.412060 0.806450
vt 0.390110 0.871010
vt 0.091754 0.721070
vt 0.113710 0.656520
vt 0.084401 0.641790
vt 0.391840 0.481150
vt 0.579450 0.575410
vt 0.711530 0.956930
vt 0.159530 0.421620
vt 0.343730 0.332720
vt 0.045587 0.361740
vt 0.226550 0.272470
vt 0.153740 0.043656
vt 0.895410 0.416200
vt 0.879370 0.463360
vt 0.793400 0.716180
vt 0.957960 0.502850
vt 0.871980 0.755660
vn 0.0000 -1.0000 0.0000
vn 0.2294 -0.7996 -0.5550
vn 0.5641 -0.7919 0.2340
vn 0.2444 -0.7879 -0.5653
vn 0.5692 -0.7878 0.2353
vn -0.2281 -0.8021 0.5519
vn -0.5515 -0.8024 -0.2280
usemtl None
s off
f 16/1/1 18/2/1 17/3/1 15/4/1
f 14/5/2 8/6/2 7/7/2 13/8/2 16/1/2 15/4/2
f 14/5/3 12/9/3 6/10/3 8/6/3
f 12/9/4 11/11/4 5/12/4 6/10/4
f 11/11/5 2/13/5 5/12/5
f 2/13/6 1/14/6 7/7/6 8/6/6 6/10/6 5/12/6
f 1/14/7 3/15/7 10/16/7 13/8/7 7/7/7
f 3/15/1 4/17/1 9/18/1 10/16/1
