# Blender v2.92.0 OBJ File: ''
# www.blender.org
mtllib CG10_500_039062_0014_roof.mtl
o CG10_500_039062_0014_roof
v 252.472382 75.000000 -15.398382
v 259.443237 75.000000 -138.025482
v 196.811234 125.046989 -80.216515
v 200.989594 75.000000 -314.758118
v 191.271637 75.000000 -141.764725
v 124.355904 124.965950 -84.289886
v 107.427986 144.936371 -236.074387
v 100.283699 145.000000 -110.340050
v 30.721731 75.000000 -324.437195
v 13.768421 75.000000 -29.146803
v 252.472382 0.000000 -15.398382
v 259.443237 0.000000 -138.025482
v 191.271637 0.000000 -141.764725
v 200.989594 0.000000 -314.758118
v 30.721731 0.000000 -324.437195
v 13.768421 0.000000 -29.146803
vt 0.458880 0.752090
vt 0.370050 0.675470
vt 0.396410 0.305660
vt 0.741660 0.074241
vt 0.705800 0.583040
vt 0.113360 0.045773
vt 0.957360 0.594040
vt 0.726240 0.764070
vt 0.050806 0.914270
vt 0.931630 0.954710
vn -0.6169 -0.7863 -0.0347
vn 0.0363 0.7680 -0.6394
vn -0.0347 -0.7739 0.6324
vn -0.0363 0.7757 0.6301
vn 0.6442 0.7639 0.0366
vn 0.6495 -0.7595 0.0373
usemtl None
s off
f 6/1/1 8/2/1 7/3/1 4/4/1 5/5/1
f 9/6/2 7/3/2 4/4/2
f 6/1/3 5/5/3 2/7/3 3/8/3
f 10/9/4 1/10/4 3/8/4 6/1/4 8/2/4
f 1/10/5 2/7/5 3/8/5
f 8/2/6 10/9/6 9/6/6 7/3/6
