# Blender v2.92.0 OBJ File: ''
# www.blender.org
mtllib CG10_500_048076_0041.mtl
o CG10_500_048076_0041
v 18.530556 75.000000 -252.081726
v 67.682411 75.000000 -12.918098
v 95.856430 124.784798 -202.469177
v 109.978333 125.186310 -136.389023
v 140.549271 144.870621 -116.786400
v 139.960693 75.000000 -277.085876
v 154.372650 75.000000 -211.904388
v 258.274323 145.000000 -141.190216
v 321.389801 75.000000 -246.768524
v 357.275116 75.000000 -72.544380
v 18.530556 0.000000 -252.081726
v 67.682411 0.000000 -12.918098
v 357.275116 0.000000 -72.544380
v 321.389801 0.000000 -246.768524
v 154.372650 0.000000 -211.904388
v 139.960693 0.000000 -277.085876
vn 0.5913 -0.7973 -0.1215
vn 0.1236 -0.7902 0.6003
vn -0.6286 -0.7652 0.1390
vn 0.1262 0.7798 0.6131
vn -0.1251 0.7908 -0.5991
vn -0.6309 -0.7649 0.1300
vn 0.0000 1.0000 0.0000
vn -0.9795 0.0000 0.2013
vn 0.2017 0.0000 0.9795
vn 0.9794 0.0000 -0.2017
vn -0.2043 0.0000 -0.9789
vn 0.9764 0.0000 -0.2159
vn -0.2017 0.0000 -0.9795
usemtl None
s off
f 2//1 1//1 3//1 4//1 5//1
f 1//2 6//2 3//2
f 7//3 4//3 3//3 6//3
f 2//4 10//4 8//4 5//4
f 8//5 9//5 7//5 4//5 5//5
f 9//6 10//6 8//6
f 11//7 12//7 13//7 14//7 15//7 16//7
f 1//8 11//8 12//8 2//8
f 2//9 12//9 13//9 10//9
f 10//10 13//10 14//10 9//10
f 9//11 14//11 15//11 7//11
f 7//12 15//12 16//12 6//12
f 6//13 16//13 11//13 1//13
