# Blender v2.92.0 OBJ File: ''
# www.blender.org
mtllib CG10_500_045072_0008_roof.mtl
o CG10_500_045072_0008_roof
v 18.477295 75.000000 -132.546036
v 113.136444 75.000000 -360.507751
v 148.667023 144.989731 -185.141312
v 169.750381 145.000000 -235.876724
v 149.526840 143.757446 -182.904846
v 269.498566 75.000000 -231.248489
v 292.270599 75.000000 -286.008881
v 252.961563 143.763763 -139.911743
v 297.488831 75.000000 -16.547621
v 369.496918 75.000000 -189.692459
v 18.477295 0.000000 -132.546036
v 113.136444 0.000000 -360.507751
v 292.270599 0.000000 -286.008881
v 269.498566 0.000000 -231.248489
v 369.496918 0.000000 -189.692459
v 297.488831 0.000000 -16.547621
vt 0.766720 0.956110
vt 0.952310 0.496840
vt 0.651960 0.628880
vt 0.694580 0.386610
vt 0.385380 0.514840
vt 0.047622 0.648420
vt 0.383160 0.508910
vt 0.753270 0.241360
vt 0.291590 0.043746
vt 0.437500 0.374330
vn 0.5666 0.7896 0.2356
vn 0.2319 0.7968 -0.5579
vn -0.2223 0.8153 0.5347
vn 0.2304 0.8000 -0.5540
vn 0.5519 0.8017 0.2295
vn -0.5293 0.8194 -0.2198
usemtl None
s off
f 9/1/1 10/2/1 8/3/1
f 10/2/2 6/4/2 5/5/2 8/3/2
f 1/6/3 9/1/3 8/3/3 5/5/3 3/7/3
f 7/8/4 2/9/4 4/10/4
f 6/4/5 7/8/5 4/10/5 3/7/5 5/5/5
f 2/9/6 1/6/6 3/7/6 4/10/6
