# Blender v2.92.0 OBJ File: ''
# www.blender.org
mtllib CG10_500_037058_0032.mtl
o CG10_500_037058_0032
v 158.981216 75.000000 -20.696619
v 8.487392 75.000000 -29.124205
v 92.235847 144.977814 -101.572632
v 104.683899 145.000000 -324.103638
v 179.631271 75.000000 -389.184204
v 29.058449 75.000000 -397.616211
v 158.981216 0.000000 -20.696619
v 8.487392 0.000000 -29.124205
v 29.058449 0.000000 -397.616211
v 179.631271 0.000000 -389.184204
vn -0.0376 0.7401 0.6714
vn 0.7000 0.7130 0.0392
vn 0.0398 0.7029 -0.7102
vn -0.6593 0.7510 -0.0368
vn 0.0000 -1.0000 0.0000
vn 0.0559 0.0000 -0.9984
vn 0.9984 0.0000 0.0557
vn -0.0559 0.0000 0.9984
vn -0.9984 0.0000 -0.0560
usemtl None
s off
f 2//1 1//1 3//1
f 1//2 5//2 4//2 3//2
f 6//3 4//3 5//3
f 6//4 2//4 3//4 4//4
f 7//5 8//5 9//5 10//5
f 1//6 7//6 8//6 2//6
f 2//7 8//7 9//7 6//7
f 6//8 9//8 10//8 5//8
f 5//9 10//9 7//9 1//9
