# Blender v2.92.0 OBJ File: ''
# www.blender.org
mtllib CG10_500_038058_0012.mtl
o CG10_500_038058_0012
v 23.930761 75.000000 -31.285572
v 378.496429 75.000000 -10.850004
v 380.181274 75.000000 -40.376652
v 503.434082 75.000000 -33.095608
v 286.900970 145.000000 -116.033157
v 126.989319 144.997131 -125.245659
v 425.769623 135.090103 -121.771240
v 301.551239 135.023697 -129.016403
v 513.047668 75.000000 -200.028595
v 35.232929 75.000000 -227.543610
v 23.930761 0.000000 -31.285572
v 378.496429 0.000000 -10.850004
v 380.181274 0.000000 -40.376652
v 503.434082 0.000000 -33.095608
v 513.047668 0.000000 -200.028595
v 35.232929 0.000000 -227.543610
vn -0.0331 0.8185 0.5735
vn 0.5825 0.8122 0.0332
vn 0.0343 -0.8131 -0.5811
vn -0.5872 -0.8088 -0.0338
vn 0.5823 -0.8123 0.0335
vn 0.0337 0.8105 -0.5848
vn 0.0000 1.0000 0.0000
vn -0.0575 0.0000 0.9983
vn 0.9984 0.0000 0.0570
vn -0.0590 0.0000 0.9983
vn 0.9983 0.0000 0.0575
vn 0.0575 0.0000 -0.9983
vn -0.9983 0.0000 -0.0575
usemtl None
s off
f 1//1 2//1 5//1 6//1
f 5//2 2//2 3//2 8//2
f 8//3 7//3 4//3 3//3
f 7//4 9//4 4//4
f 1//5 10//5 6//5
f 10//6 6//6 5//6 8//6 7//6 9//6
f 11//7 12//7 13//7 14//7 15//7 16//7
f 1//8 11//8 12//8 2//8
f 2//9 12//9 13//9 3//9
f 3//10 13//10 14//10 4//10
f 4//11 14//11 15//11 9//11
f 9//12 15//12 16//12 10//12
f 10//13 16//13 11//13 1//13
