# Blender v2.92.0 OBJ File: ''
# www.blender.org
mtllib CG10_500_038059_0028.mtl
o CG10_500_038059_0028
v 68.803337 145.000000 -16.397823
v 7.110664 75.000000 -19.982962
v 134.698135 75.000000 -12.569630
v 83.747192 144.911819 -272.700043
v 22.132168 75.000000 -276.279572
v 149.558929 75.000000 -268.875671
v 7.110664 0.000000 -19.982962
v 134.698135 0.000000 -12.569630
v 149.558929 0.000000 -268.875671
v 22.132168 0.000000 -276.279572
vn -0.7263 -0.6860 -0.0421
vn 0.7484 -0.6618 0.0439
vn 0.0580 -0.0000 -0.9983
vn -0.0580 -0.0000 0.9983
vn 0.0000 1.0000 0.0000
vn 0.9983 0.0000 0.0579
vn -0.9983 0.0000 -0.0585
usemtl None
s off
f 1//1 4//1 6//1 3//1
f 1//2 2//2 5//2 4//2
f 5//3 4//3 6//3
f 3//4 1//4 2//4
f 7//5 8//5 9//5 10//5
f 2//4 7//4 8//4 3//4
f 3//6 8//6 9//6 6//6
f 6//3 9//3 10//3 5//3
f 5//7 10//7 7//7 2//7
