# Blender v2.92.0 OBJ File: ''
# www.blender.org
mtllib CG10_500_049066_0020.mtl
o CG10_500_049066_0020
v 36.419304 75.000000 -424.412811
v 13.754863 75.000000 -34.631645
v 70.668961 118.643806 -108.132339
v 66.628639 118.985794 -31.553595
v 84.114624 127.108673 -163.783173
v 94.248436 127.301842 -334.056763
v 102.168884 133.521164 -341.264679
v 104.237007 145.000000 -138.726410
v 124.442238 75.000000 -28.194832
v 125.511734 75.000000 -51.010845
v 161.321625 75.000000 -266.705872
v 159.006149 75.000000 -228.783890
v 185.141205 75.000000 -415.762054
v 176.426224 75.000000 -265.944824
v 189.679520 144.958206 -133.676407
v 189.517853 75.000000 -47.266502
v 188.374710 75.000000 -25.012108
v 235.095764 110.652580 -88.641808
v 231.449371 110.448509 -22.496437
v 292.933655 75.000000 -220.780869
v 280.974518 75.000000 -19.625584
v 36.419304 0.000000 -424.412811
v 13.754863 0.000000 -34.631645
v 124.442238 0.000000 -28.194832
v 125.511734 0.000000 -51.010845
v 189.517853 0.000000 -47.266502
v 188.374710 0.000000 -25.012108
v 280.974518 0.000000 -19.625584
v 292.933655 0.000000 -220.780869
v 159.006149 0.000000 -228.783890
v 161.321625 0.000000 -266.705872
v 176.426224 0.000000 -265.944824
v 185.141205 0.000000 -415.762054
vn 0.5917 0.8053 0.0361
vn -0.5804 -0.8136 -0.0345
vn -0.0358 -0.7995 0.5996
vn -0.6340 0.7727 -0.0326
vn -0.0368 0.7767 0.6288
vn -0.6042 -0.7963 -0.0283
vn 0.0319 -0.7738 -0.6326
vn -0.6378 0.7693 -0.0371
vn -0.0345 -0.8042 0.5933
vn 0.5966 0.8018 0.0347
vn 0.0581 0.0001 -0.9983
vn 0.0581 0.0003 -0.9983
vn 0.0000 1.0000 0.0000
vn -0.9983 0.0000 -0.0580
vn -0.0581 0.0000 0.9983
vn 0.9989 0.0000 0.0468
vn -0.0584 0.0000 0.9983
vn -0.9987 0.0000 -0.0513
vn 0.9982 0.0000 0.0593
vn 0.0596 0.0000 -0.9982
vn 0.9981 0.0000 0.0609
vn -0.0503 0.0000 0.9987
vn 0.9983 0.0000 0.0581
vn 0.0581 0.0000 -0.9983
usemtl None
s off
f 12//1 11//1 6//1 5//1
f 18//2 15//2 20//2 21//2 19//2
f 8//3 5//3 12//3 20//3 15//3
f 17//4 19//4 18//4 16//4
f 10//5 16//5 18//5 15//5 8//5 3//5
f 4//6 3//6 10//6 9//6
f 11//7 6//7 7//7 14//7
f 2//8 4//8 3//8 8//8 5//8 6//8 7//8 1//8
f 1//9 13//9 7//9
f 14//10 13//10 7//10
f 2//11 4//11 9//11
f 17//12 19//12 21//12
f 22//13 23//13 24//13 25//13 26//13 27//13 28//13 29//13 30//13 31//13 32//13 33//13
f 1//14 22//14 23//14 2//14
f 2//15 23//15 24//15 9//15
f 9//16 24//16 25//16 10//16
f 10//17 25//17 26//17 16//17
f 16//18 26//18 27//18 17//18
f 17//15 27//15 28//15 21//15
f 21//19 28//19 29//19 20//19
f 20//20 29//20 30//20 12//20
f 12//21 30//21 31//21 11//21
f 11//22 31//22 32//22 14//22
f 14//23 32//23 33//23 13//23
f 13//24 33//24 22//24 1//24
