# Blender v2.92.0 OBJ File: ''
# www.blender.org
mtllib CG10_500_042066_0004.mtl
o CG10_500_042066_0004
v 213.783386 75.000000 -308.092041
v 117.125679 145.000000 -311.562378
v 29.978531 75.000000 -314.690796
v 12.489901 75.000000 -170.803146
v 24.838518 75.000000 -170.359818
v 11.262650 75.000000 -136.618866
v 23.621109 75.000000 -136.175186
v 19.538967 75.000000 -21.549431
v 203.254852 75.000000 -14.953801
v 106.643921 144.966125 -18.422037
v 213.783386 0.000000 -308.092041
v 29.978531 0.000000 -314.690796
v 24.838518 0.000000 -170.359818
v 12.489901 0.000000 -170.803146
v 11.262650 0.000000 -136.618866
v 23.621109 0.000000 -136.175186
v 19.538967 0.000000 -21.549431
v 203.254852 0.000000 -14.953801
vn -0.5859 -0.8101 -0.0210
vn -0.6256 0.7798 -0.0223
vn 0.0000 1.0000 0.0000
vn -0.0359 0.0000 0.9994
vn 0.0359 0.0000 -0.9994
vn -0.9994 0.0000 -0.0356
vn -0.9994 0.0000 -0.0359
vn 0.9994 0.0000 0.0359
usemtl None
s off
f 10//1 2//1 1//1 9//1
f 10//2 2//2 3//2 5//2 7//2 8//2
f 6//3 7//3 5//3 4//3
f 1//4 2//4 3//4
f 8//5 10//5 9//5
f 11//3 12//3 13//3 14//3 15//3 16//3 17//3 18//3
f 1//5 11//5 12//5 3//5
f 3//6 12//6 13//6 5//6
f 5//5 13//5 14//5 4//5
f 4//7 14//7 15//7 6//7
f 6//4 15//4 16//4 7//4
f 7//6 16//6 17//6 8//6
f 8//4 17//4 18//4 9//4
f 9//8 18//8 11//8 1//8
