# Blender v2.92.0 OBJ File: ''
# www.blender.org
mtllib CG10_500_039056_0009.mtl
o CG10_500_039056_0009
v 11.550676 75.000000 -24.096619
v 186.928925 75.000000 -14.635363
v 98.959190 144.974670 -106.580643
v 236.893082 75.000000 -194.375229
v 196.908173 75.000000 -197.062668
v 104.951118 145.000000 -216.732437
v 183.884933 115.074280 -250.060486
v 146.913498 114.890846 -252.306808
v 242.447586 75.000000 -297.260925
v 26.971344 75.000000 -309.008514
v 11.550676 0.000000 -24.096619
v 186.928925 0.000000 -14.635363
v 196.908173 0.000000 -197.062668
v 236.893082 0.000000 -194.375229
v 242.447586 0.000000 -297.260925
v 26.971344 0.000000 -309.008514
vn -0.0337 0.7795 0.6255
vn 0.6444 -0.7639 0.0349
vn -0.6009 -0.7986 -0.0329
vn -0.0339 -0.7822 0.6221
vn -0.0409 0.7921 0.6090
vn 0.5816 0.8129 0.0314
vn 0.0000 1.0000 0.0000
vn -0.0539 0.0000 0.9985
vn 0.9985 0.0000 0.0546
vn -0.0671 0.0000 0.9977
vn 0.9985 0.0000 0.0539
vn 0.0544 0.0000 -0.9985
vn -0.9985 0.0000 -0.0540
usemtl None
s off
f 1//1 2//1 3//1
f 1//2 10//2 6//2 3//2
f 3//3 6//3 8//3 5//3 2//3
f 10//4 9//4 7//4 8//4 6//4
f 5//5 4//5 7//5 8//5
f 4//6 9//6 7//6
f 11//7 12//7 13//7 14//7 15//7 16//7
f 1//8 11//8 12//8 2//8
f 2//9 12//9 13//9 5//9
f 5//10 13//10 14//10 4//10
f 4//11 14//11 15//11 9//11
f 9//12 15//12 16//12 10//12
f 10//13 16//13 11//13 1//13
