# Blender v2.92.0 OBJ File: ''
# www.blender.org
mtllib CG10_500_035058_0003_roof.mtl
o CG10_500_035058_0003_roof
v 141.592407 75.000000 -393.981812
v 30.810377 75.000000 -400.434326
v 162.213486 75.000000 -391.311188
v 275.614441 75.000000 -384.703278
v 273.937073 75.000000 -348.043793
v 335.140320 75.000000 -344.802521
v 82.561241 101.172684 -344.400299
v 214.630341 119.959679 -334.829681
v 158.931396 75.000000 -332.897156
v 137.976105 75.000000 -334.088593
v 212.777176 120.108467 -298.573364
v 78.680229 101.167305 -279.932037
v 241.833588 145.000000 -267.948761
v 241.619690 144.996613 -264.216339
v 110.833885 117.512856 -242.168793
v 206.542191 117.916557 -235.839722
v 324.493134 75.000000 -162.660995
v 263.828278 75.000000 -172.521423
v 16.629505 75.000000 -164.182968
v 149.754852 75.000000 -154.256668
v 149.022186 75.000000 -142.684906
v 197.333313 118.413918 -80.944458
v 141.618713 75.000000 -25.753450
v 255.405838 75.000000 -19.124380
v 141.592407 0.000000 -393.981812
v 30.810377 0.000000 -400.434326
v 16.629505 0.000000 -164.182968
v 149.754852 0.000000 -154.256668
v 149.022186 0.000000 -142.684906
v 141.618713 0.000000 -25.753450
v 255.405838 0.000000 -19.124380
v 263.828278 0.000000 -172.521423
v 324.493134 0.000000 -162.660995
v 335.140320 0.000000 -344.802521
v 273.937073 0.000000 -348.043793
v 275.614441 0.000000 -384.703278
v 162.213486 0.000000 -391.311188
v 158.931396 0.000000 -332.897156
v 137.976105 0.000000 -334.088593
vt 0.402330 0.938540
vt 0.725580 0.954360
vt 0.560610 0.806820
vt 0.749510 0.588250
vt 0.586770 0.437140
vt 0.425440 0.631850
vt 0.423360 0.659460
vt 0.921860 0.611790
vt 0.686420 0.369410
vt 0.952100 0.177080
vt 0.687030 0.360500
vt 0.778230 0.169350
vt 0.604480 0.287410
vt 0.783000 0.081854
vt 0.609750 0.200880
vt 0.460830 0.066083
vt 0.451510 0.205500
vt 0.314870 0.422030
vt 0.391980 0.202650
vt 0.223520 0.331900
vt 0.402250 0.059709
vt 0.234550 0.178040
vt 0.087529 0.044309
vt 0.047243 0.608160
vn -0.0347 0.8022 0.5960
vn 0.5766 0.8164 0.0317
vn -0.6388 0.7683 -0.0404
vn -0.1006 0.7789 0.6190
vn 0.6186 0.7849 0.0362
vn 0.0344 0.7593 -0.6498
vn 0.6078 0.7936 0.0278
vn 0.0375 0.7646 -0.6434
vn -0.6285 0.7770 -0.0353
vn 0.0235 0.9100 -0.4139
vn 0.4230 0.9058 0.0255
vn 0.0258 0.8964 -0.4425
vn -0.4288 0.9030 -0.0257
vn -0.0333 0.8939 0.4470
usemtl None
s off
f 23/1/1 24/2/1 22/3/1
f 24/2/2 18/4/2 16/5/2 22/3/2
f 23/1/3 22/3/3 16/5/3 20/6/3 21/7/3
f 18/4/4 17/8/4 14/9/4 16/5/4
f 17/8/5 6/10/5 13/11/5 14/9/5
f 6/10/6 5/12/6 11/13/6 13/11/6
f 5/12/7 4/14/7 8/15/7 11/13/7
f 4/14/8 3/16/8 8/15/8
f 3/16/9 9/17/9 16/5/9 14/9/9 13/11/9 11/13/9 8/15/9
f 15/18/10 16/5/10 9/17/10 10/19/10 12/20/10
f 10/19/11 1/21/11 7/22/11 12/20/11
f 1/21/12 2/23/12 7/22/12
f 2/23/13 19/24/13 15/18/13 12/20/13 7/22/13
f 19/24/14 20/6/14 16/5/14 15/18/14
