# Blender v2.92.0 OBJ File: ''
# www.blender.org
mtllib CG10_500_048075_0033.mtl
o CG10_500_048075_0033
v 19.519821 75.000000 -26.351879
v 273.946472 75.000000 -11.247460
v 399.388184 75.000000 -28.353794
v 276.352234 75.000000 -36.125435
v 81.933807 117.420097 -77.678650
v 91.453438 117.929329 -77.774124
v 185.268631 144.996948 -107.319786
v 131.621735 145.000000 -110.508560
v 329.637787 130.233215 -105.860474
v 244.661209 130.094696 -111.044746
v 238.184158 135.171570 -118.173065
v 200.364639 135.121429 -120.495590
v 248.291779 128.142502 -127.589073
v 26.265699 75.000000 -140.844818
v 35.007996 75.000000 -141.688049
v 250.139343 128.122803 -158.392685
v 408.311005 75.000000 -179.426529
v 323.858612 75.000000 -184.383942
v 39.646393 75.000000 -215.745117
v 177.773941 75.000000 -207.523636
v 326.563538 75.000000 -230.144669
v 179.679398 75.000000 -238.818909
v 19.519821 0.000000 -26.351879
v 273.946472 0.000000 -11.247460
v 276.352234 0.000000 -36.125435
v 399.388184 0.000000 -28.353794
v 408.311005 0.000000 -179.426529
v 323.858612 0.000000 -184.383942
v 326.563538 0.000000 -230.144669
v 179.679398 0.000000 -238.818909
v 177.773941 0.000000 -207.523636
v 39.646393 0.000000 -215.745117
v 35.007996 0.000000 -141.688049
v 26.265699 0.000000 -140.844818
vn 0.5809 -0.8133 0.0342
vn 0.0507 -0.8492 0.5256
vn -0.5786 0.8148 -0.0362
vn -0.0342 -0.8181 0.5740
vn -0.5758 0.8168 -0.0351
vn 0.0337 0.8201 -0.5712
vn 0.5924 0.8049 0.0350
vn -0.0339 -0.8163 0.5767
vn -0.5961 -0.8022 -0.0352
vn -0.0381 0.7973 0.6024
vn 0.5804 0.8124 0.0561
vn -0.0362 0.7915 0.6101
vn 0.0000 1.0000 0.0000
vn -0.0593 0.0000 0.9982
vn 0.9954 0.0000 0.0963
vn -0.0630 0.0000 0.9980
vn 0.9983 0.0000 0.0590
vn 0.0586 0.0000 -0.9983
vn 0.0590 0.0000 -0.9983
vn -0.9982 0.0000 -0.0608
vn 0.0594 0.0000 -0.9982
vn -0.9980 0.0000 -0.0625
vn -0.0960 0.0000 -0.9954
vn -0.9983 0.0000 -0.0588
usemtl None
s off
f 1//1 14//1 5//1
f 15//2 6//2 5//2 14//2
f 6//3 8//3 19//3 15//3
f 19//4 20//4 13//4 11//4 12//4 7//4 8//4
f 13//5 16//5 22//5 20//5
f 16//6 21//6 22//6
f 10//7 18//7 21//7 16//7 13//7 11//7
f 9//8 10//8 18//8 17//8
f 3//9 9//9 17//9
f 4//10 3//10 9//10 10//10 11//10 12//10
f 2//11 4//11 12//11 7//11
f 1//12 2//12 7//12 8//12 6//12 5//12
f 23//13 24//13 25//13 26//13 27//13 28//13 29//13 30//13 31//13 32//13 33//13 34//13
f 1//14 23//14 24//14 2//14
f 2//15 24//15 25//15 4//15
f 4//16 25//16 26//16 3//16
f 3//17 26//17 27//17 17//17
f 17//18 27//18 28//18 18//18
f 18//17 28//17 29//17 21//17
f 21//19 29//19 30//19 22//19
f 22//20 30//20 31//20 20//20
f 20//21 31//21 32//21 19//21
f 19//22 32//22 33//22 15//22
f 15//23 33//23 34//23 14//23
f 14//24 34//24 23//24 1//24
