# Blender v2.92.0 OBJ File: ''
# www.blender.org
mtllib CG10_500_049064_0001.mtl
o CG10_500_049064_0001
v 277.407135 75.000000 -229.507492
v 264.169495 75.000000 -11.479814
v 177.642578 144.999191 -143.104370
v 175.695038 145.000000 -111.045547
v 166.688980 136.108353 -155.510544
v 98.462868 136.105057 -159.649796
v 78.152840 75.000000 -22.789316
v 81.498779 75.000000 -77.837448
v 13.161435 75.000000 -81.987923
v 23.067598 75.000000 -244.921967
v 277.407135 0.000000 -229.507492
v 264.169495 0.000000 -11.479814
v 78.152840 0.000000 -22.789316
v 81.498779 0.000000 -77.837448
v 13.161435 0.000000 -81.987923
v 23.067598 0.000000 -244.921967
vn 0.0362 -0.8021 -0.5961
vn -0.5948 -0.8031 -0.0361
vn -0.6044 0.7959 -0.0367
vn -0.0360 0.8042 0.5932
vn 0.6038 -0.7963 0.0367
vn -0.0366 -0.7967 0.6032
vn 0.0000 -1.0000 0.0000
vn -0.9982 0.0000 -0.0606
vn 0.0607 0.0000 -0.9982
vn 0.9982 0.0000 0.0607
vn 0.0606 0.0000 -0.9982
vn -0.0605 0.0000 0.9982
usemtl None
s off
f 7//1 4//1 2//1
f 2//2 4//2 3//2 1//2
f 7//3 4//3 3//3 5//3 8//3
f 8//4 5//4 6//4 9//4
f 6//5 9//5 10//5
f 1//6 3//6 5//6 6//6 10//6
f 11//7 12//7 13//7 14//7 15//7 16//7
f 1//8 11//8 12//8 2//8
f 2//9 12//9 13//9 7//9
f 7//10 13//10 14//10 8//10
f 8//11 14//11 15//11 9//11
f 9//10 15//10 16//10 10//10
f 10//12 16//12 11//12 1//12
