# Blender v2.92.0 OBJ File: ''
# www.blender.org
mtllib CG10_500_042071_0030_roof.mtl
o CG10_500_042071_0030_roof
v 14.890788 75.000000 -111.298569
v 82.035469 75.000000 -272.038330
v 51.085758 75.000000 -96.180916
v 31.231285 75.000000 -48.802990
v 128.032715 144.999832 -162.467606
v 112.983353 113.373550 -124.284256
v 93.188873 113.545441 -76.513771
v 135.846481 75.000000 -60.778679
v 116.366577 75.000000 -13.241474
v 186.712769 145.000000 -137.958786
v 299.058411 75.000000 -181.395432
v 231.913147 75.000000 -20.654263
v 14.890788 0.000000 -111.298569
v 82.035469 0.000000 -272.038330
v 299.058411 0.000000 -181.395432
v 231.913147 0.000000 -20.654263
v 135.846481 0.000000 -60.778679
v 116.366577 0.000000 -13.241474
v 31.231285 0.000000 -48.802990
v 51.085758 0.000000 -96.180916
vt 0.047727 0.609480
vt 0.410360 0.429940
vt 0.262930 0.045480
vt 0.163740 0.662520
vt 0.362130 0.563910
vt 0.435410 0.786740
vt 0.743310 0.927530
vt 0.598440 0.515930
vt 0.100100 0.828760
vt 0.298680 0.731530
vt 0.372970 0.953540
vt 0.958520 0.363520
vn -0.5879 0.7707 -0.2456
vn -0.2353 0.7920 0.5633
vn -0.5891 0.7694 -0.2469
vn -0.2370 0.7887 0.5673
vn 0.5986 0.7626 0.2453
vn 0.2478 0.7659 -0.5933
vn 0.5788 0.7788 0.2418
usemtl None
s off
f 1/1/1 5/2/1 2/3/1
f 1/1/2 3/4/2 6/5/2 8/6/2 12/7/2 10/8/2 5/2/2
f 3/4/3 4/9/3 7/10/3 6/5/3
f 4/9/4 9/11/4 7/10/4
f 7/10/5 9/11/5 8/6/5 6/5/5
f 11/12/6 2/3/6 5/2/6 10/8/6
f 10/8/7 12/7/7 11/12/7
