# Blender v2.92.0 OBJ File: ''
# www.blender.org
mtllib CG10_500_038059_0029_roof.mtl
o CG10_500_038059_0029_roof
v 38.278114 75.000000 -559.716858
v 11.525065 75.000000 -77.580101
v 118.728539 128.715515 -476.183167
v 112.007759 128.714935 -355.079285
v 106.350754 75.000000 -72.084312
v 103.652107 75.000000 -33.158745
v 136.374817 145.000000 -329.334808
v 128.004089 144.999191 -178.502640
v 167.744873 114.028175 -87.714043
v 170.257996 113.841400 -128.126572
v 199.960617 75.000000 -550.752502
v 193.280457 75.000000 -430.395538
v 220.785645 75.000000 -26.660231
v 243.030853 75.000000 -427.440918
v 38.278114 0.000000 -559.716858
v 11.525065 0.000000 -77.580101
v 106.350754 0.000000 -72.084312
v 103.652107 0.000000 -33.158745
v 220.785645 0.000000 -26.660231
v 243.030853 0.000000 -427.440918
v 193.280457 0.000000 -430.395538
v 199.960617 0.000000 -550.752502
vt 0.404890 0.943510
vt 0.862440 0.954580
vt 0.655250 0.850570
vt 0.949340 0.271820
vt 0.532710 0.438950
vt 0.500020 0.695910
vt 0.665070 0.781730
vt 0.437530 0.395090
vt 0.755000 0.266790
vt 0.781100 0.061750
vt 0.463780 0.188790
vt 0.149520 0.046479
vt 0.045020 0.867840
vt 0.415430 0.877200
vn -0.0309 0.8298 0.5573
vn 0.5685 0.8220 0.0316
vn 0.0330 0.8302 -0.5564
vn 0.5714 0.8201 0.0317
vn 0.0311 0.8268 -0.5616
vn -0.5336 0.8452 -0.0296
vn -0.0316 0.8380 0.5448
vn -0.5429 0.8390 -0.0376
usemtl None
s off
f 6/1/1 13/2/1 9/3/1
f 13/2/2 14/4/2 7/5/2 8/6/2 10/7/2 9/3/2
f 4/8/3 7/5/3 14/4/3 12/9/3
f 4/8/4 12/9/4 11/10/4 3/11/4
f 3/11/5 11/10/5 1/12/5
f 2/13/6 8/6/6 7/5/6 4/8/6 3/11/6 1/12/6
f 2/13/7 5/14/7 10/7/7 8/6/7
f 5/14/8 6/1/8 9/3/8 10/7/8
