# Blender v2.92.0 OBJ File: ''
# www.blender.org
mtllib CG10_500_042074_0037_roof.mtl
o CG10_500_042074_0037_roof
v 286.645081 75.000000 -13.977145
v 355.753815 75.000000 -178.366150
v 235.893707 144.992218 -130.409485
v 121.629196 75.000000 -44.657848
v 135.451035 75.000000 -77.534470
v 143.713028 145.000000 -169.169998
v 89.079102 119.703629 -119.288986
v 102.830078 119.698151 -151.978455
v 16.772764 75.000000 -88.739281
v 99.803566 75.000000 -286.019562
v 286.645081 0.000000 -13.977145
v 355.753815 0.000000 -178.366150
v 99.803566 0.000000 -286.019562
v 16.772764 0.000000 -88.739281
v 121.629196 0.000000 -44.657848
v 135.451035 0.000000 -77.534470
vt 0.327840 0.851640
vt 0.045210 0.705190
vt 0.240110 0.603690
vt 0.277170 0.495090
vt 0.365100 0.742410
vt 0.772630 0.953560
vt 0.387370 0.437970
vt 0.635830 0.566750
vt 0.269010 0.049769
vt 0.958910 0.407420
vn 0.2413 -0.7825 -0.5740
vn -0.5571 -0.7967 -0.2342
vn 0.2418 -0.7815 -0.5752
vn 0.5827 -0.7748 0.2452
vn -0.5585 -0.7956 -0.2348
vn -0.2369 -0.7916 0.5632
usemtl None
s off
f 4/1/1 9/2/1 7/3/1
f 4/1/2 7/3/2 8/4/2 5/5/2
f 1/6/3 5/5/3 8/4/3 6/7/3 3/8/3
f 9/2/4 10/9/4 6/7/4 8/4/4 7/3/4
f 1/6/5 3/8/5 2/10/5
f 10/9/6 2/10/6 3/8/6 6/7/6
