# Blender v2.92.0 OBJ File: ''
# www.blender.org
mtllib CG10_500_042069_0023_roof.mtl
o CG10_500_042069_0023_roof
v 18.878242 75.000000 -61.503288
v 31.802580 75.000000 -217.873779
v 96.330498 75.000000 -26.194479
v 98.709694 75.000000 -55.058052
v 108.713570 145.000000 -128.311722
v 124.530083 75.000000 -23.853584
v 125.796371 75.000069 -52.871174
v 124.258430 75.000000 -17.628605
v 154.988190 144.966461 -124.540115
v 186.794510 116.006294 -156.352539
v 179.328247 115.184998 -55.710110
v 181.679565 115.778816 -91.504166
v 225.517700 116.005280 -153.164047
v 216.060532 75.000000 -10.033353
v 224.224823 75.000000 -109.102844
v 264.714569 75.000000 -114.758018
v 263.976715 75.000000 -105.830681
v 271.604706 75.000000 -198.121353
v 271.096802 75.000000 -191.976196
v 299.862152 75.000000 -189.598694
v 299.434296 75.000000 -184.422226
v 295.437378 75.000000 -112.218727
v 296.267426 75.000000 -122.261459
v 392.893066 75.000000 -176.697693
v 387.768738 75.000000 -114.698708
v 18.878242 0.000000 -61.503288
v 31.802580 0.000000 -217.873779
v 271.604706 0.000000 -198.121353
v 271.096802 0.000000 -191.976196
v 299.862152 0.000000 -189.598694
v 299.434296 0.000000 -184.422226
v 392.893066 0.000000 -176.697693
v 387.768738 0.000000 -114.698708
v 296.267426 0.000000 -122.261459
v 295.437378 0.000000 -112.218727
v 264.714569 0.000000 -114.758018
v 263.976715 0.000000 -105.830681
v 224.224823 0.000000 -109.102844
v 216.060532 0.000000 -10.033353
v 124.258430 0.000000 -17.628605
v 124.530083 0.000000 -23.853584
v 96.330498 0.000000 -26.194479
v 98.709694 0.000000 -55.058052
vt 0.046044 0.730250
vt 0.265160 0.437230
vt 0.077567 0.044413
vt 0.240760 0.758520
vt 0.306820 0.768110
vt 0.443120 0.598670
vt 0.378020 0.453770
vt 0.234950 0.885110
vt 0.303730 0.895380
vt 0.303070 0.922680
vt 0.437390 0.755660
vt 0.526980 0.955990
vt 0.546890 0.521480
vt 0.455600 0.314240
vt 0.643850 0.535830
vt 0.550040 0.328230
vt 0.645650 0.496680
vt 0.661210 0.158000
vt 0.662450 0.131050
vt 0.720580 0.507810
vt 0.722600 0.463770
vt 0.730330 0.191130
vt 0.731370 0.168430
vt 0.958280 0.225010
vt 0.945780 0.496940
vn -0.6379 0.7683 -0.0527
vn -0.0554 0.7256 0.6858
vn -0.0000 1.0000 0.0000
vn -0.6010 0.7988 -0.0262
vn -0.0567 0.7266 0.6848
vn 0.7032 0.7086 0.0579
vn -0.0559 0.7317 0.6793
vn 0.6943 0.7174 0.0574
vn 0.0529 0.7642 -0.6428
vn 0.0000 -1.0000 0.0000
usemtl None
s off
f 1/1/1 5/2/1 2/3/1
f 1/1/2 4/4/2 7/5/2 12/6/2 9/7/2 5/2/2
f 4/4/3 3/8/3 6/9/3 7/5/3
f 6/9/4 8/10/4 11/11/4 12/6/4 7/5/4
f 8/10/5 14/12/5 11/11/5
f 14/12/6 15/13/6 10/14/6 9/7/6 12/6/6 11/11/6
f 15/13/7 17/15/7 13/16/7 10/14/7
f 17/15/8 16/17/8 19/18/8 18/19/8 13/16/8
f 16/17/3 22/20/3 23/21/3 21/22/3 20/23/3 19/18/3
f 18/19/9 2/3/9 5/2/9 9/7/9 10/14/9 13/16/9
f 21/22/10 24/24/10 25/25/10 23/21/10
