# Blender v2.92.0 OBJ File: ''
# www.blender.org
mtllib CG10_500_043070_0040.mtl
o CG10_500_043070_0040
v 95.209686 75.000000 -308.352325
v 269.417267 75.000000 -234.770508
v 136.583435 144.999969 -187.536194
v 127.682762 145.000000 -166.455093
v 140.864075 129.727402 -139.337494
v 132.427155 128.912491 -116.241898
v 48.809269 75.000000 -97.214561
v 12.177321 75.000000 -111.692223
v 176.363876 75.000000 -14.373577
v 40.771603 75.000000 -71.657288
v 95.209686 0.000000 -308.352325
v 269.417267 0.000000 -234.770508
v 176.363876 0.000000 -14.373577
v 40.771603 0.000000 -71.657288
v 48.809269 0.000000 -97.214561
v 12.177321 0.000000 -111.692223
vn 0.5852 -0.7723 0.2471
vn -0.2305 -0.8056 0.5457
vn -0.2237 0.8183 0.5295
vn 0.2205 -0.8002 -0.5578
vn 0.5614 -0.8085 0.1766
vn 0.5144 0.8296 0.2172
vn 0.0000 -1.0000 0.0000
vn -0.3891 0.0000 0.9212
vn -0.9213 0.0000 -0.3890
vn 0.3892 0.0000 -0.9212
vn 0.9539 0.0000 0.3000
vn 0.3676 0.0000 -0.9300
vn 0.9213 0.0000 0.3890
usemtl None
s off
f 8//1 1//1 3//1 4//1
f 1//2 2//2 3//2
f 10//3 9//3 6//3
f 8//4 4//4 5//4 7//4
f 5//5 6//5 10//5 7//5
f 9//6 2//6 3//6 4//6 5//6 6//6
f 11//7 12//7 13//7 14//7 15//7 16//7
f 1//8 11//8 12//8 2//8
f 2//9 12//9 13//9 9//9
f 9//10 13//10 14//10 10//10
f 10//11 14//11 15//11 7//11
f 7//12 15//12 16//12 8//12
f 8//13 16//13 11//13 1//13
