# Blender v2.92.0 OBJ File: ''
# www.blender.org
mtllib CG10_500_038072_0014.mtl
o CG10_500_038072_0014
v 192.434082 75.000000 -48.467449
v 20.647196 75.000000 -119.434250
v 206.999237 75.000000 -83.750557
v 370.954224 75.000000 -16.113935
v 142.493469 145.000000 -167.934540
v 69.629509 75.000000 -237.709900
v 43.309067 75.000000 -248.687225
v 159.115570 144.981400 -208.136551
v 319.685272 144.947983 -141.846497
v 135.392258 112.185699 -265.973724
v 110.317093 112.152550 -276.382019
v 444.002075 75.000000 -192.938354
v 82.054024 75.000000 -342.476288
v 192.434082 0.000000 -48.467449
v 20.647196 0.000000 -119.434250
v 69.629509 0.000000 -237.709900
v 43.309067 0.000000 -248.687225
v 82.054024 0.000000 -342.476288
v 444.002075 0.000000 -192.938354
v 370.954224 0.000000 -16.113935
v 206.999237 0.000000 -83.750557
vn 0.5465 0.8064 0.2258
vn -0.2235 0.8102 0.5419
vn 0.5607 0.7950 0.2315
vn -0.2322 0.7937 0.5622
vn 0.5518 -0.8021 0.2285
vn 0.2256 -0.8102 -0.5410
vn 0.5417 -0.8102 0.2238
vn 0.2269 0.8043 -0.5491
vn 0.0000 -1.0000 0.0000
vn 0.3818 0.0000 -0.9242
vn 0.9239 0.0000 0.3826
vn 0.3849 0.0000 -0.9229
vn 0.9242 0.0000 0.3818
vn -0.3818 0.0000 0.9242
vn -0.9242 0.0000 -0.3818
vn 0.3814 0.0000 -0.9244
vn -0.9243 0.0000 -0.3816
usemtl None
s off
f 12//1 9//1 4//1
f 4//2 9//2 8//2 3//2
f 3//3 8//3 5//3 1//3
f 1//4 5//4 2//4
f 8//5 5//5 2//5 6//5 10//5
f 10//6 6//6 7//6 11//6
f 11//7 7//7 13//7
f 13//8 11//8 10//8 8//8 9//8 12//8
f 14//9 15//9 16//9 17//9 18//9 19//9 20//9 21//9
f 1//10 14//10 15//10 2//10
f 2//11 15//11 16//11 6//11
f 6//12 16//12 17//12 7//12
f 7//13 17//13 18//13 13//13
f 13//14 18//14 19//14 12//14
f 12//15 19//15 20//15 4//15
f 4//16 20//16 21//16 3//16
f 3//17 21//17 14//17 1//17
