# Blender v2.92.0 OBJ File: ''
# www.blender.org
mtllib CG10_500_041071_0030.mtl
o CG10_500_041071_0030
v 76.202866 75.000000 -277.762604
v 16.361763 75.000000 -119.163345
v 126.356697 144.999313 -171.589066
v 246.231308 145.000000 -126.359879
v 354.683716 75.000000 -172.692642
v 294.841248 75.000000 -14.089715
v 76.202866 0.000000 -277.762604
v 16.361763 0.000000 -119.163345
v 294.841248 0.000000 -14.089715
v 354.683716 0.000000 -172.692642
vn -0.5943 -0.7723 -0.2242
vn 0.2199 -0.7822 -0.5829
vn 0.5973 -0.7697 0.2254
vn -0.2298 -0.7591 0.6090
vn 0.0000 1.0000 0.0000
vn -0.9356 0.0000 -0.3530
vn -0.3530 0.0000 0.9356
vn 0.9356 0.0000 0.3530
vn 0.3530 0.0000 -0.9356
usemtl None
s off
f 6//1 4//1 5//1
f 6//2 2//2 3//2 4//2
f 2//3 1//3 3//3
f 1//4 5//4 4//4 3//4
f 7//5 8//5 9//5 10//5
f 1//6 7//6 8//6 2//6
f 2//7 8//7 9//7 6//7
f 6//8 9//8 10//8 5//8
f 5//9 10//9 7//9 1//9
