# Blender v2.92.0 OBJ File: ''
# www.blender.org
mtllib CG10_500_043070_0036_roof.mtl
o CG10_500_043070_0036_roof
v 341.565430 75.000000 -122.588829
v 237.988068 75.000000 -20.428436
v 218.200516 75.000000 -40.347694
v 193.055908 75.000000 -15.298423
v 233.060699 131.351624 -125.561310
v 214.061615 131.389069 -144.753418
v 188.174667 144.996140 -145.153427
v 136.952820 145.000000 -197.080124
v 15.521780 75.000000 -195.251694
v 144.464249 75.000000 -322.430420
v 341.565430 0.000000 -122.588829
v 237.988068 0.000000 -20.428436
v 218.200516 0.000000 -40.347694
v 193.055908 0.000000 -15.298423
v 15.521780 0.000000 -195.251694
v 144.464249 0.000000 -322.430420
vt 0.954090 0.637310
vt 0.651010 0.628520
vt 0.664770 0.939560
vt 0.597940 0.571740
vt 0.609500 0.880630
vt 0.525630 0.570550
vt 0.539260 0.954740
vt 0.382550 0.416920
vt 0.043357 0.422330
vt 0.403530 0.046064
vn 0.4102 0.8117 0.4158
vn -0.4426 0.7816 0.4397
vn 0.4174 0.8064 0.4190
vn -0.4440 0.7817 0.4380
vn -0.4271 -0.8001 0.4212
vn 0.4496 -0.7681 0.4559
usemtl None
s off
f 1/1/1 5/2/1 2/3/1
f 2/3/2 5/2/2 6/4/2 3/5/2
f 3/5/3 6/4/3 7/6/3 4/7/3
f 4/7/4 7/6/4 8/8/4 9/9/4
f 8/8/5 10/10/5 1/1/5 5/2/5 6/4/5 7/6/5
f 10/10/6 8/8/6 9/9/6
