# Blender v2.92.0 OBJ File: ''
# www.blender.org
mtllib CG10_500_045073_0007_roof.mtl
o CG10_500_045073_0007_roof
v 18.481728 75.000000 -101.884598
v 91.907021 75.000000 -280.706970
v 85.713669 115.013481 -128.817245
v 90.001083 115.810898 -136.532562
v 139.005875 144.977768 -156.158813
v 116.724907 75.000000 -61.557159
v 121.549248 75.000000 -67.826721
v 198.385910 145.000000 -131.726807
v 240.210648 121.549492 -149.794037
v 290.567322 121.096298 -129.784332
v 254.577286 75.000000 -13.024098
v 278.107025 75.000000 -72.189064
v 327.654602 75.000000 -53.104416
v 373.594116 75.000000 -164.964905
v 18.481728 0.000000 -101.884598
v 91.907021 0.000000 -280.706970
v 373.594116 0.000000 -164.964905
v 327.654602 0.000000 -53.104416
v 278.107025 0.000000 -72.189064
v 254.577286 0.000000 -13.024098
v 121.549248 0.000000 -67.826721
v 116.724907 0.000000 -61.557159
vt 0.047147 0.652270
vt 0.234460 0.041956
vt 0.354610 0.467030
vt 0.229590 0.534020
vt 0.218660 0.560350
vt 0.297770 0.789910
vt 0.310070 0.768510
vt 0.649430 0.955550
vt 0.506090 0.550420
vt 0.612780 0.488760
vt 0.709460 0.753620
vt 0.835850 0.818760
vt 0.741240 0.557050
vt 0.953050 0.436980
vn 0.5644 -0.7923 0.2317
vn -0.2360 0.7835 0.5749
vn 0.4127 0.8537 0.3176
vn -0.2365 0.7838 0.5742
vn -0.5472 -0.8082 -0.2176
vn -0.2231 0.7840 0.5792
vn -0.5438 -0.8090 -0.2233
vn 0.2219 0.8119 -0.5401
usemtl None
s off
f 1/1/1 2/2/1 5/3/1 4/4/1 3/5/1
f 1/1/2 6/6/2 3/5/2
f 6/6/3 7/7/3 4/4/3 3/5/3
f 7/7/4 11/8/4 8/9/4 5/3/4 4/4/4
f 8/9/5 9/10/5 12/11/5 11/8/5
f 12/11/6 13/12/6 10/13/6 9/10/6
f 10/13/7 14/14/7 13/12/7
f 14/14/8 2/2/8 5/3/8 8/9/8 9/10/8 10/13/8
