# Blender v2.92.0 OBJ File: ''
# www.blender.org
mtllib CG10_500_041073_0051_roof.mtl
o CG10_500_041073_0051_roof
v 14.376943 75.000000 -105.248238
v 226.643036 75.000000 -16.269541
v 155.590912 128.797638 -129.606964
v 192.949036 128.981674 -114.232849
v 145.960709 145.000000 -158.807800
v 243.741730 75.000000 -167.173340
v 283.169891 75.000000 -151.211823
v 173.122665 144.960236 -223.724899
v 114.076370 75.000000 -342.987213
v 286.921936 75.000000 -270.577942
v 14.376943 0.000000 -105.248238
v 226.643036 0.000000 -16.269541
v 283.169891 0.000000 -151.211823
v 243.741730 0.000000 -167.173340
v 286.921936 0.000000 -270.577942
v 114.076370 0.000000 -342.987213
vt 0.047764 0.706010
vt 0.752970 0.954550
vt 0.641030 0.680910
vt 0.516910 0.637970
vt 0.484920 0.556400
vt 0.940760 0.577620
vt 0.809770 0.533040
vt 0.953230 0.244200
vt 0.575160 0.375070
vt 0.378990 0.041935
vn -0.2213 0.8199 0.5279
vn 0.5687 0.7873 0.2382
vn 0.2330 0.7838 -0.5756
vn 0.5784 0.7791 0.2415
vn -0.2418 -0.7799 0.5772
vn -0.5266 0.8209 -0.2208
usemtl None
s off
f 1/1/1 2/2/1 4/3/1 3/4/1 5/5/1
f 2/2/2 7/6/2 4/3/2
f 4/3/3 7/6/3 6/7/3 3/4/3
f 3/4/4 6/7/4 10/8/4 8/9/4 5/5/4
f 8/9/5 9/10/5 10/8/5
f 1/1/6 5/5/6 8/9/6 9/10/6
