# Blender v2.92.0 OBJ File: ''
# www.blender.org
mtllib CG10_500_035064_0025.mtl
o CG10_500_035064_0025
v 331.227356 75.000000 -16.564631
v 221.829285 75.000000 -22.892271
v 222.437241 75.000000 -31.512522
v 112.998322 75.000000 -38.682247
v 16.051695 75.000000 -66.414825
v 114.496094 75.000000 -60.692715
v 278.857697 106.833092 -72.769463
v 279.632019 106.790154 -84.771721
v 97.975159 119.283119 -140.839890
v 169.349869 119.290176 -136.703842
v 229.126984 137.637146 -143.395432
v 230.544861 137.574188 -165.842285
v 218.379440 145.000000 -179.828186
v 94.488419 75.000000 -217.396790
v 25.014570 75.000000 -221.410843
v 220.403625 144.964996 -213.520309
v 349.449249 75.000000 -329.317352
v 102.307449 75.000000 -343.607788
v 331.227356 0.000000 -16.564631
v 221.829285 0.000000 -22.892271
v 222.437241 0.000000 -31.512522
v 112.998322 0.000000 -38.682247
v 114.496094 0.000000 -60.692715
v 16.051695 0.000000 -66.414825
v 25.014570 0.000000 -221.410843
v 94.488419 0.000000 -217.396790
v 102.307449 0.000000 -343.607788
v 349.449249 0.000000 -329.317352
vn 0.4953 -0.8682 0.0286
vn 0.0284 -0.8724 -0.4879
vn 0.4979 -0.8665 0.0339
vn 0.0319 -0.8729 -0.4868
vn 0.5109 -0.8589 0.0360
vn 0.0297 -0.8576 -0.5134
vn -0.4964 -0.8676 -0.0289
vn -0.0285 -0.8693 0.4934
vn 0.4848 -0.8741 0.0300
vn 0.0290 0.8647 -0.5015
vn 0.0000 -1.0000 0.0000
vn 0.0577 0.0000 -0.9983
vn 0.9975 0.0000 0.0704
vn 0.0654 0.0000 -0.9979
vn 0.9977 0.0000 0.0679
vn 0.0580 0.0000 -0.9983
vn 0.9983 0.0000 0.0577
vn -0.0577 0.0000 0.9983
vn 0.9981 0.0000 0.0618
vn -0.9983 0.0000 -0.0582
usemtl None
s off
f 5//1 15//1 9//1
f 6//2 5//2 9//2 10//2 13//2 12//2
f 4//3 6//3 12//3 11//3
f 3//4 4//4 11//4 8//4
f 2//5 3//5 8//5 7//5
f 1//6 2//6 7//6
f 17//7 1//7 7//7 8//7 11//7 12//7 13//7 16//7
f 18//8 17//8 16//8
f 14//9 18//9 16//9 13//9 10//9
f 15//10 9//10 10//10 14//10
f 19//11 20//11 21//11 22//11 23//11 24//11 25//11 26//11 27//11 28//11
f 1//12 19//12 20//12 2//12
f 2//13 20//13 21//13 3//13
f 3//14 21//14 22//14 4//14
f 4//15 22//15 23//15 6//15
f 6//16 23//16 24//16 5//16
f 5//17 24//17 25//17 15//17
f 15//18 25//18 26//18 14//18
f 14//19 26//19 27//19 18//19
f 18//18 27//18 28//18 17//18
f 17//20 28//20 19//20 1//20
