# Blender v2.92.0 OBJ File: ''
# www.blender.org
mtllib CG10_500_037056_0004_roof.mtl
o CG10_500_037056_0004_roof
v 17.245890 75.000000 -18.334881
v 155.145065 75.000000 -10.333470
v 82.104317 144.996460 -84.423592
v 161.708481 75.000000 -123.588608
v 348.903839 75.000000 -112.768097
v 86.592575 145.000000 -161.938278
v 293.772369 125.876183 -168.285248
v 108.659157 125.924004 -179.034607
v 29.650507 75.000000 -232.716812
v 354.763519 75.000000 -213.756866
v 17.245890 0.000000 -18.334881
v 155.145065 0.000000 -10.333470
v 161.708481 0.000000 -123.588608
v 348.903839 0.000000 -112.768097
v 354.763519 0.000000 -213.756866
v 29.650507 0.000000 -232.716812
vt 0.937910 0.535930
vt 0.434700 0.491400
vt 0.292090 0.263230
vt 0.789710 0.307470
vt 0.417060 0.957480
vt 0.220710 0.652580
vt 0.232780 0.333590
vt 0.079706 0.042318
vt 0.953670 0.120340
vt 0.046360 0.924550
vn 0.0403 -0.7164 -0.6965
vn -0.6705 -0.7408 -0.0389
vn 0.0420 0.6933 -0.7194
vn 0.0410 -0.7058 -0.7072
vn 0.6567 0.7532 0.0381
vn -0.7530 0.6566 -0.0436
usemtl None
s off
f 5/1/1 4/2/1 8/3/1 7/4/1
f 4/2/2 2/5/2 3/6/2 6/7/2 8/3/2
f 9/8/3 6/7/3 8/3/3 7/4/3 10/9/3
f 2/5/4 1/10/4 3/6/4
f 10/9/5 7/4/5 5/1/5
f 1/10/6 3/6/6 6/7/6 9/8/6
