# Blender v2.92.0 OBJ File: ''
# www.blender.org
mtllib CG10_500_038060_0017_roof.mtl
o CG10_500_038060_0017_roof
v 376.558533 75.000000 -335.022827
v 368.915222 75.000000 -184.230515
v 291.867767 130.871521 -260.728638
v 218.553268 75.000000 -192.567841
v 210.779053 75.000000 -51.311657
v 131.188919 75.000000 -55.617107
v 141.975372 130.589661 -268.675568
v 128.837341 75.000000 -17.120277
v 119.984299 145.000000 -249.521118
v 114.538559 144.836090 -146.245819
v 75.591347 115.953125 -111.242783
v 73.362030 115.800270 -71.142670
v 35.098526 75.000000 -352.223419
v 18.396511 75.000000 -22.714828
v 376.558533 0.000000 -335.022827
v 368.915222 0.000000 -184.230515
v 218.553268 0.000000 -192.567841
v 210.779053 0.000000 -51.311657
v 131.188919 0.000000 -55.617107
v 128.837341 0.000000 -17.120277
v 18.396511 0.000000 -22.714828
v 35.098526 0.000000 -352.223419
vt 0.089083 0.045465
vt 0.955730 0.092079
vt 0.740780 0.293420
vt 0.360340 0.271880
vt 0.304530 0.323790
vt 0.936330 0.500730
vt 0.554700 0.478140
vt 0.534970 0.860940
vt 0.290710 0.603670
vt 0.332970 0.849280
vt 0.191860 0.698530
vt 0.327000 0.953600
vt 0.186200 0.807200
vt 0.046692 0.938440
vn -0.0292 -0.8146 0.5793
vn 0.5679 0.8226 0.0288
vn -0.0339 0.7905 0.6115
vn 0.5667 0.8233 0.0312
vn -0.0332 0.7887 0.6139
vn 0.5699 0.8210 0.0348
vn -0.0315 0.7817 0.6228
vn 0.6133 -0.7893 0.0311
usemtl None
s off
f 13/1/1 1/2/1 3/3/1 7/4/1 9/5/1
f 2/6/2 1/2/2 3/3/2
f 4/7/3 2/6/3 3/3/3 7/4/3
f 5/8/4 4/7/4 7/4/4 9/5/4 10/9/4
f 6/10/5 5/8/5 10/9/5 11/11/5
f 8/12/6 6/10/6 11/11/6 12/13/6
f 14/14/7 8/12/7 12/13/7
f 14/14/8 13/1/8 9/5/8 10/9/8 11/11/8 12/13/8
