# Blender v2.92.0 OBJ File: ''
# www.blender.org
mtllib CG10_500_042069_0048_roof.mtl
o CG10_500_042069_0048_roof
v 28.098038 75.000000 -257.144012
v 15.094941 75.000000 -66.820198
v 91.525902 75.000000 -61.577457
v 88.997086 75.000000 -22.471802
v 121.576324 144.996216 -150.901825
v 150.383545 145.000000 -148.930740
v 171.045624 127.078758 -124.115822
v 168.375900 127.015305 -84.252998
v 193.395844 112.913284 -191.773804
v 228.395859 75.000000 -12.947590
v 237.068649 75.000000 -138.713120
v 269.686371 113.032722 -186.397583
v 313.136230 75.000000 -133.195892
v 320.243347 75.000000 -237.209000
v 28.098038 0.000000 -257.144012
v 15.094941 0.000000 -66.820198
v 91.525902 0.000000 -61.577457
v 88.997086 0.000000 -22.471802
v 228.395859 0.000000 -12.947590
v 237.068649 0.000000 -138.713120
v 313.136230 0.000000 -133.195892
v 320.243347 0.000000 -237.209000
vt 0.264870 0.917080
vt 0.679750 0.952220
vt 0.501120 0.689100
vt 0.705560 0.488140
vt 0.575580 0.292350
vt 0.447570 0.450440
vt 0.509060 0.542010
vt 0.931950 0.508500
vt 0.802640 0.312190
vt 0.953110 0.124690
vt 0.361830 0.443170
vt 0.083625 0.051129
vt 0.044925 0.753430
vt 0.272400 0.772780
vn -0.0418 0.7901 0.6115
vn 0.6246 0.7798 0.0431
vn -0.0438 0.7954 0.6044
vn 0.6278 0.7772 0.0429
vn -0.0391 -0.8183 0.5735
vn 0.5702 -0.8206 0.0390
vn 0.0417 -0.7932 -0.6075
vn 0.5675 -0.8225 0.0367
usemtl None
s off
f 4/1/1 10/2/1 8/3/1
f 10/2/2 11/4/2 9/5/2 6/6/2 7/7/2 8/3/2
f 11/4/3 13/8/3 12/9/3 9/5/3
f 13/8/4 14/10/4 12/9/4
f 14/10/5 12/9/5 9/5/5 6/6/5 5/11/5 1/12/5
f 1/12/6 5/11/6 2/13/6
f 2/13/7 5/11/7 6/6/7 7/7/7 3/14/7
f 3/14/8 7/7/8 8/3/8 4/1/8
