# Blender v2.92.0 OBJ File: ''
# www.blender.org
mtllib CG10_500_042069_0019.mtl
o CG10_500_042069_0019
v 179.857925 75.000000 -15.927503
v 205.413696 75.000000 -319.022522
v 120.723686 145.000000 -287.795715
v 101.713898 144.805817 -59.637089
v 35.249256 75.000000 -333.052582
v 10.320239 75.000000 -29.904510
v 179.857925 0.000000 -15.927503
v 205.413696 0.000000 -319.022522
v 35.249256 0.000000 -333.052582
v 10.320239 0.000000 -29.904510
vn 0.0725 -0.4697 -0.8798
vn 0.6166 -0.7857 0.0507
vn -0.6480 -0.7597 -0.0546
vn -0.0722 -0.4779 0.8755
vn 0.0000 1.0000 0.0000
vn 0.9965 0.0000 0.0840
vn 0.0822 0.0000 -0.9966
vn -0.9966 0.0000 -0.0820
vn -0.0822 0.0000 0.9966
usemtl None
s off
f 6//1 4//1 1//1
f 6//2 5//2 3//2 4//2
f 4//3 3//3 2//3 1//3
f 5//4 2//4 3//4
f 7//5 8//5 9//5 10//5
f 1//6 7//6 8//6 2//6
f 2//7 8//7 9//7 5//7
f 5//8 9//8 10//8 6//8
f 6//9 10//9 7//9 1//9
