# Blender v2.92.0 OBJ File: ''
# www.blender.org
mtllib CG10_500_043069_0030_roof.mtl
o CG10_500_043069_0030_roof
v 298.705231 75.000000 -171.136063
v 232.481339 75.000000 -12.183300
v 174.024597 144.998520 -128.311340
v 114.017944 145.000000 -153.313126
v 80.974487 75.000000 -261.860870
v 14.745540 75.000000 -102.895927
v 298.705231 0.000000 -171.136063
v 232.481339 0.000000 -12.183300
v 14.745540 0.000000 -102.895927
v 80.974487 0.000000 -261.860870
vt 0.742750 0.955540
vt 0.555990 0.531710
vt 0.954330 0.375420
vt 0.047110 0.624470
vt 0.364270 0.440460
vt 0.258700 0.044303
vn -0.5343 -0.8155 -0.2226
vn 0.2450 -0.7709 -0.5880
vn 0.6423 -0.7182 0.2676
vn -0.2403 -0.7808 0.5767
usemtl None
s off
f 2/1/1 3/2/1 1/3/1
f 2/1/2 6/4/2 4/5/2 3/2/2
f 6/4/3 5/6/3 4/5/3
f 5/6/4 1/3/4 3/2/4 4/5/4
