# Blender v2.92.0 OBJ File: ''
# www.blender.org
mtllib CG10_500_042074_0023.mtl
o CG10_500_042074_0023
v 274.677063 144.936707 -125.490959
v 229.081772 75.000000 -13.944784
v 306.629211 75.000000 -203.665283
v 13.489808 75.000000 -102.068123
v 91.107613 75.000000 -291.960236
v 59.124214 145.000000 -213.716125
v 229.081772 0.000000 -13.944784
v 306.629211 0.000000 -203.665283
v 91.107613 0.000000 -291.960236
v 13.489808 0.000000 -102.068123
vn 0.1899 -0.8649 -0.4646
vn -0.2418 -0.7702 0.5902
vn -0.9257 -0.0000 -0.3784
vn 0.9257 -0.0000 0.3784
vn 0.0000 1.0000 0.0000
vn 0.3791 0.0000 -0.9254
vn -0.3784 0.0000 0.9257
usemtl None
s off
f 4//1 6//1 1//1 2//1
f 6//2 5//2 3//2 1//2
f 4//3 6//3 5//3
f 3//4 1//4 2//4
f 7//5 8//5 9//5 10//5
f 2//4 7//4 8//4 3//4
f 3//6 8//6 9//6 5//6
f 5//3 9//3 10//3 4//3
f 4//7 10//7 7//7 2//7
