# Blender v2.92.0 OBJ File: ''
# www.blender.org
mtllib CG10_500_043067_0026.mtl
o CG10_500_043067_0026
v 110.589989 75.000000 -12.390646
v 15.662021 75.000000 -51.537376
v 265.542755 75.000000 -11.752383
v 133.058990 75.000000 -66.872948
v 38.251652 75.000000 -106.318039
v 290.776398 144.993607 -72.925125
v 63.477470 145.000000 -167.500580
v 317.986938 75.000000 -138.928635
v 90.703629 75.000000 -233.504623
v 110.589989 0.000000 -12.390646
v 15.662021 0.000000 -51.537376
v 38.251652 0.000000 -106.318039
v 90.703629 0.000000 -233.504623
v 317.986938 0.000000 -138.928635
v 265.542755 0.000000 -11.752383
v 133.058990 0.000000 -66.872948
vn 0.0000 -1.0000 -0.0000
vn 0.2791 -0.6870 -0.6709
vn -0.2690 -0.7141 0.6464
vn -0.9245 -0.0001 -0.3813
vn 0.9245 -0.0001 0.3812
vn 0.3812 0.0000 -0.9245
vn 0.9245 0.0000 0.3812
vn 0.9245 0.0000 0.3813
vn -0.3842 0.0000 0.9233
vn -0.9245 0.0000 -0.3812
vn 0.3841 0.0000 -0.9233
vn -0.9245 0.0000 -0.3813
usemtl None
s off
f 2//1 5//1 4//1 1//1
f 5//2 7//2 6//2 3//2 4//2
f 7//3 9//3 8//3 6//3
f 5//4 7//4 9//4
f 8//5 6//5 3//5
f 10//1 11//1 12//1 13//1 14//1 15//1 16//1
f 1//6 10//6 11//6 2//6
f 2//7 11//7 12//7 5//7
f 5//8 12//8 13//8 9//8
f 9//9 13//9 14//9 8//9
f 8//10 14//10 15//10 3//10
f 3//11 15//11 16//11 4//11
f 4//12 16//12 10//12 1//12
