# Blender v2.92.0 OBJ File: ''
# www.blender.org
mtllib CG10_500_035061_0041.mtl
o CG10_500_035061_0041
v 231.050369 75.000000 -285.196503
v 218.022263 75.000000 -106.373314
v 174.484741 75.000000 -13.137752
v 181.486786 75.000000 -109.058441
v 132.893707 145.000000 -200.275146
v 113.262329 144.995636 -201.712448
v 95.930573 137.461823 -99.667030
v 102.742157 137.466080 -193.058029
v 8.467550 75.000000 -25.232859
v 28.489153 75.000000 -299.967499
v 231.050369 0.000000 -285.196503
v 218.022263 0.000000 -106.373314
v 181.486786 0.000000 -109.058441
v 174.484741 0.000000 -13.137752
v 8.467550 0.000000 -25.232859
v 28.489153 0.000000 -299.967499
vn 0.6051 0.7950 0.0441
vn 0.0458 -0.7806 -0.6234
vn -0.5922 -0.8046 -0.0432
vn -0.0441 -0.7953 0.6046
vn 0.0445 -0.7904 -0.6110
vn 0.6052 -0.7949 0.0441
vn 0.0000 -1.0000 0.0000
vn -0.9974 0.0000 -0.0727
vn 0.0733 0.0000 -0.9973
vn -0.9973 0.0000 -0.0728
vn 0.0727 0.0000 -0.9974
vn 0.9974 0.0000 0.0727
vn -0.0727 0.0000 0.9974
usemtl None
s off
f 5//1 2//1 1//1
f 2//2 4//2 8//2 6//2 5//2
f 4//3 3//3 7//3 8//3
f 6//4 10//4 1//4 5//4
f 3//5 9//5 7//5
f 7//6 9//6 10//6 6//6 8//6
f 11//7 12//7 13//7 14//7 15//7 16//7
f 1//8 11//8 12//8 2//8
f 2//9 12//9 13//9 4//9
f 4//10 13//10 14//10 3//10
f 3//11 14//11 15//11 9//11
f 9//12 15//12 16//12 10//12
f 10//13 16//13 11//13 1//13
