# Blender v2.92.0 OBJ File: ''
# www.blender.org
mtllib CG10_500_038070_0033.mtl
o CG10_500_038070_0033
v 16.048740 75.000000 -18.775642
v 123.115173 75.000000 -12.238240
v 242.910828 75.000000 -46.410149
v 125.571045 75.000000 -53.489761
v 70.297165 110.148476 -70.156425
v 72.704239 110.134918 -110.223877
v 336.947540 75.000000 -101.647873
v 247.501221 75.000000 -108.544647
v 126.430801 144.987488 -160.096451
v 142.544205 145.000000 -159.143341
v 174.214279 125.863663 -185.611206
v 265.918427 126.471291 -179.393494
v 31.212643 75.000000 -269.138489
v 346.065765 75.000000 -250.876617
v 16.048740 0.000000 -18.775642
v 123.115173 0.000000 -12.238240
v 125.571045 0.000000 -53.489761
v 242.910828 0.000000 -46.410149
v 247.501221 0.000000 -108.544647
v 336.947540 0.000000 -101.647873
v 346.065765 0.000000 -250.876617
v 31.212643 0.000000 -269.138489
vn -0.0330 0.8408 0.5403
vn -0.5295 -0.8477 -0.0315
vn -0.0331 0.8356 0.5483
vn 0.5410 0.8401 0.0400
vn -0.0447 0.8137 0.5795
vn 0.5615 0.8267 0.0343
vn 0.0325 0.8280 -0.5598
vn -0.5661 0.8236 -0.0343
vn 0.0000 1.0000 0.0000
vn -0.0609 0.0000 0.9981
vn 0.9982 0.0000 0.0594
vn -0.0602 0.0000 0.9982
vn 0.9973 0.0000 0.0737
vn -0.0769 0.0000 0.9970
vn 0.9981 0.0000 0.0610
vn 0.0579 0.0000 -0.9983
vn -0.9982 0.0000 -0.0605
usemtl None
s off
f 1//1 2//1 5//1
f 5//2 6//2 4//2 2//2
f 4//3 3//3 10//3 9//3 6//3
f 10//4 3//4 8//4 11//4
f 11//5 8//5 7//5 12//5
f 12//6 7//6 14//6
f 13//7 9//7 10//7 11//7 12//7 14//7
f 1//8 5//8 6//8 9//8 13//8
f 15//9 16//9 17//9 18//9 19//9 20//9 21//9 22//9
f 1//10 15//10 16//10 2//10
f 2//11 16//11 17//11 4//11
f 4//12 17//12 18//12 3//12
f 3//13 18//13 19//13 8//13
f 8//14 19//14 20//14 7//14
f 7//15 20//15 21//15 14//15
f 14//16 21//16 22//16 13//16
f 13//17 22//17 15//17 1//17
