# Blender v2.92.0 OBJ File: ''
# www.blender.org
mtllib CG10_500_033058_0017.mtl
o CG10_500_033058_0017
v 186.215790 75.000000 -244.222015
v 175.862427 75.000000 -13.372233
v 99.717751 145.000000 -164.318375
v 96.767677 144.995224 -98.414352
v 97.843979 75.000000 -248.172424
v 98.564568 75.000000 -264.292358
v 67.788605 75.000000 -265.668121
v 67.068008 75.000000 -249.548157
v 19.943245 75.000000 -251.654739
v 9.629591 75.000000 -20.803194
v 186.215790 0.000000 -244.222015
v 175.862427 0.000000 -13.372233
v 9.629591 0.000000 -20.803194
v 19.943245 0.000000 -251.654739
v 67.068008 0.000000 -249.548157
v 67.788605 0.000000 -265.668121
v 98.564568 0.000000 -264.292358
v 97.843979 0.000000 -248.172424
vn 0.0000 -1.0000 -0.0000
vn 0.0287 0.7670 -0.6410
vn -0.6414 0.7667 -0.0287
vn -0.6448 -0.7638 -0.0289
vn 0.0291 -0.7583 -0.6512
vn -0.9990 0.0000 -0.0448
vn 0.0447 0.0000 -0.9990
vn 0.9990 0.0000 0.0446
vn -0.0447 0.0000 0.9990
vn 0.9990 0.0000 0.0447
vn -0.9990 0.0000 -0.0447
usemtl None
s off
f 8//1 7//1 6//1 5//1
f 9//2 3//2 1//2 5//2 8//2
f 9//3 10//3 4//3 3//3
f 3//4 1//4 2//4 4//4
f 2//5 10//5 4//5
f 11//1 12//1 13//1 14//1 15//1 16//1 17//1 18//1
f 1//6 11//6 12//6 2//6
f 2//7 12//7 13//7 10//7
f 10//8 13//8 14//8 9//8
f 9//9 14//9 15//9 8//9
f 8//10 15//10 16//10 7//10
f 7//9 16//9 17//9 6//9
f 6//11 17//11 18//11 5//11
f 5//9 18//9 11//9 1//9
