# Blender v2.92.0 OBJ File: ''
# www.blender.org
mtllib CG10_500_048077_0064.mtl
o CG10_500_048077_0064
v 10.454094 75.000000 -25.154881
v 29.302010 75.000000 -354.510895
v 110.229286 145.000000 -266.023834
v 100.563522 144.943588 -98.331253
v 111.812897 133.643021 -85.030327
v 136.054626 133.624100 -83.620811
v 189.287384 75.000000 -345.281860
v 178.080078 75.000000 -152.044739
v 191.877136 75.000000 -14.764704
v 199.722641 75.000000 -150.765915
v 10.454094 0.000000 -25.154881
v 29.302010 0.000000 -354.510895
v 189.287384 0.000000 -345.281860
v 178.080078 0.000000 -152.044739
v 199.722641 0.000000 -150.765915
v 191.877136 0.000000 -14.764704
vn 0.6309 -0.7750 0.0361
vn -0.0370 -0.7670 0.6406
vn -0.6844 -0.7280 -0.0397
vn -0.0376 -0.7702 0.6367
vn 0.6995 0.7135 0.0404
vn 0.0381 -0.7454 -0.6655
vn 0.0000 -1.0000 0.0000
vn 0.9984 0.0000 0.0571
vn -0.0576 0.0000 0.9983
vn -0.9983 0.0000 -0.0579
vn -0.0590 0.0000 0.9983
vn -0.9983 0.0000 -0.0576
vn 0.0572 0.0000 -0.9984
usemtl None
s off
f 1//1 2//1 3//1 4//1
f 3//2 2//2 7//2
f 5//3 4//3 3//3 7//3 8//3
f 5//4 8//4 10//4 6//4
f 10//5 6//5 9//5
f 1//6 4//6 5//6 6//6 9//6
f 11//7 12//7 13//7 14//7 15//7 16//7
f 1//8 11//8 12//8 2//8
f 2//9 12//9 13//9 7//9
f 7//10 13//10 14//10 8//10
f 8//11 14//11 15//11 10//11
f 10//12 15//12 16//12 9//12
f 9//13 16//13 11//13 1//13
