# Blender v2.92.0 OBJ File: ''
# www.blender.org
mtllib CG10_500_036060_0023_roof.mtl
o CG10_500_036060_0023_roof
v 28.107798 75.000000 -308.528137
v 10.376690 75.000000 -28.607513
v 116.076668 144.969055 -206.796463
v 110.334068 145.000000 -115.479134
v 137.477509 123.453667 -85.069923
v 167.350952 123.518181 -83.262779
v 215.994202 75.000000 -296.620331
v 206.751770 75.000000 -148.574432
v 237.056702 75.000000 -146.832336
v 228.687775 75.000000 -14.773508
v 28.107798 0.000000 -308.528137
v 10.376690 0.000000 -28.607513
v 228.687775 0.000000 -14.773508
v 237.056702 0.000000 -146.832336
v 206.751770 0.000000 -148.574432
v 215.994202 0.000000 -296.620331
vt 0.041841 0.911710
vt 0.922130 0.954400
vt 0.674800 0.743020
vt 0.554340 0.737440
vt 0.444900 0.643580
vt 0.955870 0.546810
vt 0.833680 0.541440
vt 0.468050 0.361740
vt 0.870940 0.084505
vt 0.113340 0.047753
vn -0.0380 0.7990 0.6001
vn -0.5938 -0.8038 -0.0376
vn -0.0335 -0.8119 0.5829
vn -0.5954 -0.8026 -0.0372
vn 0.0373 0.8080 -0.5880
vn -0.5950 0.8028 -0.0377
usemtl None
s off
f 2/1/1 10/2/1 6/3/1 5/4/1 4/5/1
f 10/2/2 6/3/2 9/6/2
f 9/6/3 6/3/3 5/4/3 8/7/3
f 8/7/4 5/4/4 4/5/4 3/8/4 7/9/4
f 3/8/5 7/9/5 1/10/5
f 2/1/6 4/5/6 3/8/6 1/10/6
