# Blender v2.92.0 OBJ File: ''
# www.blender.org
mtllib CG10_500_039057_0023_roof.mtl
o CG10_500_039057_0023_roof
v 178.921722 75.000000 -25.512924
v 30.921247 75.000000 -16.602995
v 101.358910 145.000000 -95.575394
v 243.584106 75.000000 -236.897095
v 166.469345 75.000000 -232.243622
v 91.005951 144.996597 -267.511353
v 182.736038 127.969276 -291.053467
v 107.691650 127.977745 -286.534180
v 236.751877 75.000000 -350.385101
v 11.644350 75.000000 -336.855682
v 178.921722 0.000000 -25.512924
v 30.921247 0.000000 -16.602995
v 11.644350 0.000000 -336.855682
v 236.751877 0.000000 -350.385101
v 243.584106 0.000000 -236.897095
v 166.469345 0.000000 -232.243622
vt 0.655390 0.365450
vt 0.958990 0.352740
vt 0.719430 0.204770
vt 0.423980 0.217120
vt 0.399050 0.738870
vt 0.358290 0.269090
vt 0.704420 0.930290
vt 0.121740 0.954640
vt 0.045844 0.079629
vt 0.932090 0.042664
vn 0.0407 0.7368 0.6749
vn -0.6898 -0.7228 0.0416
vn 0.0411 0.7292 0.6830
vn 0.6808 -0.7313 -0.0410
vn 0.6764 0.7354 -0.0407
vn 0.0412 -0.7264 0.6860
usemtl None
s off
f 5/1/1 4/2/1 7/3/1 8/4/1
f 3/5/2 6/6/2 8/4/2 5/1/2 1/7/2
f 2/8/3 1/7/3 3/5/3
f 2/8/4 10/9/4 6/6/4 3/5/4
f 7/3/5 4/2/5 9/10/5
f 10/9/6 9/10/6 7/3/6 8/4/6 6/6/6
