# Blender v2.92.0 OBJ File: ''
# www.blender.org
mtllib CG10_500_042067_0033.mtl
o CG10_500_042067_0033
v 290.094910 75.000000 -21.631233
v 417.008881 75.000000 -14.935186
v 130.836212 75.000000 -76.934441
v 292.511261 75.000000 -68.422722
v 355.625305 113.227257 -78.867439
v 358.041687 113.247429 -125.020065
v 134.259018 75.000000 -140.447510
v 19.416973 75.000000 -145.463455
v 307.044739 144.987564 -177.535980
v 250.322723 145.000000 -180.541748
v 105.300858 125.808289 -221.889603
v 220.476929 125.472763 -216.329590
v 28.355389 75.000000 -314.968689
v 431.796387 75.000000 -293.434845
v 290.094910 0.000000 -21.631233
v 417.008881 0.000000 -14.935186
v 431.796387 0.000000 -293.434845
v 28.355389 0.000000 -314.968689
v 19.416973 0.000000 -145.463455
v 134.259018 0.000000 -140.447510
v 130.836212 0.000000 -76.934441
v 292.511261 0.000000 -68.422722
vn -0.0281 0.8458 0.5327
vn -0.0283 0.8431 0.5370
vn -0.5211 0.8531 -0.0269
vn -0.5234 0.8516 -0.0282
vn -0.0234 0.8444 0.5351
vn 0.5080 0.8609 0.0270
vn 0.0265 0.8681 -0.4957
vn -0.5272 0.8493 -0.0278
vn 0.0000 1.0000 0.0000
vn -0.0527 0.0000 0.9986
vn 0.9986 0.0000 0.0530
vn 0.0533 0.0000 -0.9986
vn -0.9986 0.0000 -0.0527
vn -0.0436 0.0000 0.9990
vn -0.9986 0.0000 -0.0538
vn -0.0526 0.0000 0.9986
vn -0.9987 0.0000 -0.0516
usemtl None
s off
f 1//1 2//1 5//1
f 3//2 4//2 6//2 9//2 10//2
f 4//3 1//3 5//3 6//3
f 7//4 3//4 10//4 12//4
f 8//5 7//5 12//5 11//5
f 5//6 2//6 14//6 9//6 6//6
f 13//7 11//7 12//7 10//7 9//7 14//7
f 8//8 11//8 13//8
f 15//9 16//9 17//9 18//9 19//9 20//9 21//9 22//9
f 1//10 15//10 16//10 2//10
f 2//11 16//11 17//11 14//11
f 14//12 17//12 18//12 13//12
f 13//13 18//13 19//13 8//13
f 8//14 19//14 20//14 7//14
f 7//15 20//15 21//15 3//15
f 3//16 21//16 22//16 4//16
f 4//17 22//17 15//17 1//17
