# Blender v2.92.0 OBJ File: ''
# www.blender.org
mtllib CG10_500_048069_0013.mtl
o CG10_500_048069_0013
v 342.346863 75.000000 -230.449677
v 331.552612 75.000000 -12.539718
v 240.938431 145.000000 -120.114090
v 225.681671 144.999786 -120.869392
v 158.456131 104.530586 -190.885437
v 105.012108 75.000000 -150.127319
v 98.987595 75.000000 -24.057644
v 67.034157 104.540665 -195.392639
v 15.146869 75.000000 -154.543198
v 19.697735 75.000000 -246.415283
v 342.346863 0.000000 -230.449677
v 331.552612 0.000000 -12.539718
v 98.987595 0.000000 -24.057644
v 105.012108 0.000000 -150.127319
v 15.146869 0.000000 -154.543198
v 19.697735 0.000000 -246.415283
vn 0.0278 -0.8270 -0.5615
vn -0.5891 -0.8075 -0.0292
vn -0.0257 -0.8546 0.5186
vn 0.5095 -0.8601 0.0252
vn 0.0276 -0.8264 -0.5625
vn 0.4973 -0.8672 0.0238
vn 0.0000 -1.0000 0.0000
vn -0.9988 0.0000 -0.0495
vn 0.0495 0.0000 -0.9988
vn 0.9989 0.0000 0.0477
vn 0.0491 0.0000 -0.9988
vn 0.9988 0.0000 0.0495
vn -0.0494 0.0000 0.9988
usemtl None
s off
f 7//1 4//1 3//1 2//1
f 2//2 3//2 1//2
f 1//3 3//3 4//3 5//3 8//3 10//3
f 10//4 8//4 9//4
f 9//5 8//5 5//5 6//5
f 6//6 5//6 4//6 7//6
f 11//7 12//7 13//7 14//7 15//7 16//7
f 1//8 11//8 12//8 2//8
f 2//9 12//9 13//9 7//9
f 7//10 13//10 14//10 6//10
f 6//11 14//11 15//11 9//11
f 9//12 15//12 16//12 10//12
f 10//13 16//13 11//13 1//13
