# Blender v2.92.0 OBJ File: ''
# www.blender.org
mtllib CG10_500_048073_0001.mtl
o CG10_500_048073_0001
v 18.708044 75.000000 -18.467356
v 139.736908 75.000000 -11.348010
v 21.937864 75.000000 -73.374634
v 269.135712 75.000000 -58.872517
v 14.415090 75.000000 -73.815971
v 142.967865 75.000000 -66.274284
v 272.694366 75.000000 -125.850258
v 308.777863 75.000000 -124.419159
v 109.010544 145.000000 -156.417999
v 193.647385 144.995239 -151.446686
v 227.818604 116.726227 -183.389984
v 264.494019 116.449524 -181.565643
v 314.901398 75.000000 -228.384720
v 24.511808 75.000000 -245.460922
v 18.708044 0.000000 -18.467356
v 139.736908 0.000000 -11.348010
v 142.967865 0.000000 -66.274284
v 269.135712 0.000000 -58.872517
v 272.694366 0.000000 -125.850258
v 308.777863 0.000000 -124.419159
v 314.901398 0.000000 -228.384720
v 24.511808 0.000000 -245.460922
v 14.415090 0.000000 -73.815971
v 21.937864 0.000000 -73.374634
vn 0.0365 -0.7826 -0.6215
vn 0.0000 1.0000 0.0000
vn -0.6562 -0.7538 -0.0349
vn 0.0238 -0.8004 -0.5990
vn -0.6558 -0.7539 -0.0386
vn -0.0376 -0.7680 0.6394
vn 0.6147 -0.7880 0.0362
vn -0.0587 0.0000 0.9983
vn 0.9983 0.0000 0.0587
vn -0.0586 0.0000 0.9983
vn 0.9986 0.0000 0.0531
vn -0.0396 0.0000 0.9992
vn 0.9983 0.0000 0.0588
vn 0.0587 0.0000 -0.9983
vn -0.9983 0.0000 -0.0587
usemtl None
s off
f 5//1 9//1 10//1 4//1 6//1 3//1
f 1//2 2//2 6//2 3//2
f 4//3 10//3 11//3 7//3
f 7//4 11//4 12//4 8//4
f 8//5 12//5 13//5
f 13//6 12//6 11//6 10//6 9//6 14//6
f 14//7 9//7 5//7
f 15//2 16//2 17//2 18//2 19//2 20//2 21//2 22//2 23//2 24//2
f 1//8 15//8 16//8 2//8
f 2//9 16//9 17//9 6//9
f 6//10 17//10 18//10 4//10
f 4//11 18//11 19//11 7//11
f 7//12 19//12 20//12 8//12
f 8//13 20//13 21//13 13//13
f 13//14 21//14 22//14 14//14
f 14//15 22//15 23//15 5//15
f 5//10 23//10 24//10 3//10
f 3//15 24//15 15//15 1//15
