# Blender v2.92.0 OBJ File: ''
# www.blender.org
mtllib CG10_500_044073_0009_roof.mtl
o CG10_500_044073_0009_roof
v 263.198334 75.000000 -343.051636
v 149.752289 75.000000 -390.046143
v 258.604248 75.000000 -331.474915
v 346.450439 75.000000 -294.596283
v 176.733597 114.104355 -307.985168
v 171.746048 114.167305 -295.711304
v 302.793243 75.000000 -189.894104
v 319.798248 75.000000 -180.905594
v 192.636719 145.000000 -230.083389
v 135.006638 114.846748 -204.487152
v 242.679520 109.212898 -150.801498
v 226.656799 109.712616 -158.235718
v 278.070618 75.000000 -80.147751
v 174.693817 75.000000 -122.831291
v 91.408401 114.886917 -99.115913
v 131.459686 75.000000 -18.162390
v 15.553800 75.000000 -66.171349
v 263.198334 0.000000 -343.051636
v 149.752289 0.000000 -390.046143
v 15.553800 0.000000 -66.171349
v 131.459686 0.000000 -18.162390
v 174.693817 0.000000 -122.831291
v 278.070618 0.000000 -80.147751
v 319.798248 0.000000 -180.905594
v 302.793243 0.000000 -189.894104
v 346.450439 0.000000 -294.596283
v 258.604248 0.000000 -331.474915
vt 0.766030 0.804040
vt 0.668540 0.631290
vt 0.880990 0.557690
vt 0.624400 0.613120
vt 0.834140 0.535710
vt 0.954410 0.279720
vt 0.530680 0.437450
vt 0.712410 0.189550
vt 0.473130 0.276990
vt 0.725060 0.161240
vt 0.486870 0.246980
vt 0.412540 0.046342
vt 0.481250 0.699680
vt 0.371920 0.500030
vt 0.362150 0.955590
vt 0.251810 0.757660
vt 0.042848 0.838210
vn -0.4592 -0.8677 -0.1902
vn -0.2240 -0.8777 0.4237
vn 0.4735 0.8584 0.1974
vn 0.1962 0.8620 -0.4674
vn 0.4663 0.8651 0.1850
vn -0.1962 -0.8586 0.4736
vn -0.2103 0.8344 0.5094
vn -0.4680 -0.8623 -0.1933
vn -0.2132 0.8305 0.5147
vn -0.5268 0.8215 -0.2183
usemtl None
s off
f 13/1/1 11/2/1 8/3/1
f 11/2/2 12/4/2 7/5/2 8/3/2
f 12/4/3 7/5/3 4/6/3 9/7/3
f 9/7/4 4/6/4 3/8/4 6/9/4
f 6/9/5 3/8/5 1/10/5 5/11/5
f 5/11/6 2/12/6 1/10/6
f 14/13/7 13/1/7 11/2/7 12/4/7 9/7/7 10/14/7
f 10/14/8 14/13/8 16/15/8 15/16/8
f 16/15/9 15/16/9 17/17/9
f 17/17/10 15/16/10 10/14/10 9/7/10 6/9/10 5/11/10 2/12/10
