# Blender v2.92.0 OBJ File: ''
# www.blender.org
mtllib CG10_500_042061_0028.mtl
o CG10_500_042061_0028
v 16.297709 75.000000 -104.674789
v 24.655451 75.000000 -261.516937
v 59.726543 75.000000 -263.119141
v 56.895741 75.000000 -259.490204
v 77.873100 75.000000 -286.381897
v 103.733482 75.000000 -302.507996
v 99.401901 126.626183 -174.392700
v 107.274048 75.000000 -311.513519
v 106.838943 75.000000 -304.444550
v 132.707794 94.182961 -224.097244
v 164.350479 75.000000 -430.220398
v 156.563354 75.000000 -308.181030
v 181.061478 126.370392 -169.667694
v 182.231934 75.000000 -95.820030
v 178.514084 75.000000 -27.317238
v 212.530548 145.000000 -194.746796
v 236.872879 129.606506 -217.213837
v 244.032303 129.182327 -339.899017
v 251.414703 117.681564 -153.433334
v 247.623367 117.707382 -82.840118
v 308.525208 75.000000 -20.390465
v 329.842255 75.000000 -421.410736
v 16.297709 0.000000 -104.674789
v 24.655451 0.000000 -261.516937
v 56.895741 0.000000 -259.490204
v 59.726543 0.000000 -263.119141
v 77.873100 0.000000 -286.381897
v 103.733482 0.000000 -302.507996
v 106.838943 0.000000 -304.444550
v 107.274048 0.000000 -311.513519
v 156.563354 0.000000 -308.181030
v 164.350479 0.000000 -430.220398
v 329.842255 0.000000 -421.410736
v 308.525208 0.000000 -20.390465
v 178.514084 0.000000 -27.317238
v 182.231934 0.000000 -95.820030
vn -0.0312 0.8106 0.5847
vn 0.5535 0.8323 0.0294
vn 0.0283 0.8460 -0.5325
vn -0.5352 0.8440 -0.0342
vn 0.0364 0.8423 -0.5377
vn 0.5282 -0.8485 0.0325
vn -0.1207 0.9736 -0.1936
vn -0.1806 0.9734 -0.1408
vn 0.0334 0.8470 -0.5305
vn -0.5449 0.8380 -0.0290
vn -0.0305 0.8203 0.5711
vn -0.5425 0.8396 -0.0294
vn 0.0000 -1.0000 0.0000
vn 0.9986 0.0000 0.0532
vn -0.0627 0.0000 0.9980
vn 0.7885 0.0000 0.6151
vn 0.5291 0.0000 0.8485
vn 0.9981 0.0000 0.0614
vn -0.0675 0.0000 0.9977
vn 0.9980 0.0000 0.0637
vn -0.0532 0.0000 0.9986
vn -0.9986 0.0000 -0.0531
vn 0.0532 0.0000 -0.9986
vn 0.9985 0.0000 0.0542
vn 0.0533 0.0000 -0.9986
usemtl None
s off
f 15//1 21//1 20//1
f 21//2 22//2 18//2 17//2 16//2 19//2 20//2
f 22//3 11//3 18//3
f 11//4 12//4 17//4 18//4
f 12//5 8//5 16//5 17//5
f 16//6 13//6 10//6 9//6 8//6
f 9//7 6//7 5//7 10//7
f 5//8 3//8 4//8 10//8
f 4//9 2//9 7//9 13//9 10//9
f 2//10 1//10 7//10
f 1//11 14//11 19//11 16//11 13//11 7//11
f 14//12 15//12 20//12 19//12
f 23//13 24//13 25//13 26//13 27//13 28//13 29//13 30//13 31//13 32//13 33//13 34//13 35//13 36//13
f 1//14 23//14 24//14 2//14
f 2//15 24//15 25//15 4//15
f 4//16 25//16 26//16 3//16
f 3//16 26//16 27//16 5//16
f 5//17 27//17 28//17 6//17
f 6//17 28//17 29//17 9//17
f 9//18 29//18 30//18 8//18
f 8//19 30//19 31//19 12//19
f 12//20 31//20 32//20 11//20
f 11//21 32//21 33//21 22//21
f 22//22 33//22 34//22 21//22
f 21//23 34//23 35//23 15//23
f 15//24 35//24 36//24 14//24
f 14//25 36//25 23//25 1//25
