# Blender v2.92.0 OBJ File: ''
# www.blender.org
mtllib CG10_500_036064_0046_roof.mtl
o CG10_500_036064_0046_roof
v 105.456581 75.000000 -378.932800
v 499.156189 75.000000 -185.470245
v 98.417038 136.707932 -280.020569
v 424.253845 137.716232 -118.232788
v 281.250793 137.530365 -188.812317
v 23.827097 75.000000 -212.814453
v 321.087372 75.000000 -65.063080
v 416.686829 75.000000 -17.673071
v 156.020920 75.000000 -145.856674
v 147.966736 75.000000 -132.657974
v 233.214722 145.000000 -90.709908
v 315.446442 75.000000 -50.349148
v 105.456581 0.000000 -378.932800
v 499.156189 0.000000 -185.470245
v 416.686829 0.000000 -17.673071
v 321.087372 0.000000 -65.063080
v 315.446442 0.000000 -50.349148
v 147.966736 0.000000 -132.657974
v 156.020920 0.000000 -145.856674
v 23.827097 0.000000 -212.814453
vt 0.201640 0.045509
vt 0.045559 0.463940
vt 0.188180 0.294660
vt 0.954410 0.532820
vt 0.537760 0.524400
vt 0.811190 0.702180
vt 0.298320 0.632600
vt 0.282920 0.665850
vt 0.445920 0.771510
vt 0.603150 0.873180
vt 0.613930 0.836110
vt 0.796720 0.955480
vn -0.7681 0.5173 -0.3774
vn 0.2459 0.8301 -0.5004
vn -0.2486 0.8350 0.4908
vn -0.5077 0.8039 -0.3098
vn 0.5684 0.7934 0.2179
vn -0.2475 0.8304 0.4992
vn 0.7699 0.5138 0.3784
vn -0.4411 -0.0007 0.8975
usemtl None
s off
f 1/1/1 6/2/1 3/3/1
f 2/4/2 1/1/2 3/3/2 5/5/2 4/6/2
f 6/2/3 9/7/3 5/5/3 3/3/3
f 9/7/4 10/8/4 11/9/4 5/5/4
f 11/9/5 12/10/5 7/11/5 5/5/5
f 7/11/6 8/12/6 4/6/6 5/5/6
f 8/12/7 2/4/7 4/6/7
f 12/10/8 11/9/8 10/8/8
