# Blender v2.92.0 OBJ File: ''
# www.blender.org
mtllib CG10_500_035060_0016.mtl
o CG10_500_035060_0016
v 299.706024 130.616852 -17.715860
v 219.544388 75.000000 -22.747517
v 382.724121 75.000000 -12.524027
v 222.210266 75.000000 -55.981422
v 18.584394 75.000000 -68.756538
v 98.792839 129.169846 -140.778870
v 212.903854 129.191940 -133.651169
v 307.659546 129.956436 -128.793823
v 286.541168 144.999817 -151.517365
v 236.820206 145.000000 -154.637039
v 28.401058 75.000000 -225.521774
v 142.047287 75.000000 -218.455750
v 397.549469 75.000000 -248.997253
v 145.340149 75.000000 -264.823090
v 219.544388 0.000000 -22.747517
v 382.724121 0.000000 -12.524027
v 397.549469 0.000000 -248.997253
v 145.340149 0.000000 -264.823090
v 142.047287 0.000000 -218.455750
v 28.401058 0.000000 -225.521774
v 18.584394 0.000000 -68.756538
v 222.210266 0.000000 -55.981422
vn -0.5547 -0.8313 -0.0348
vn -0.0349 -0.8302 0.5564
vn -0.5675 0.8221 -0.0455
vn 0.0361 -0.8175 -0.5747
vn 0.5757 -0.8167 0.0409
vn -0.0347 -0.8287 0.5586
vn 0.5816 -0.8127 0.0364
vn -0.0625 -0.0002 0.9980
vn 0.0000 1.0000 0.0000
vn -0.0625 0.0000 0.9980
vn 0.9980 0.0000 0.0626
vn 0.0626 0.0000 -0.9980
vn -0.9975 0.0000 -0.0708
vn 0.0621 0.0000 -0.9981
vn -0.9980 0.0000 -0.0625
vn -0.0626 0.0000 0.9980
vn -0.9968 0.0000 -0.0800
usemtl None
s off
f 13//1 3//1 1//1 8//1 9//1
f 13//2 9//2 10//2 14//2
f 1//3 8//3 4//3 2//3
f 9//4 8//4 4//4 5//4 6//4 7//4 10//4
f 14//5 10//5 7//5 12//5
f 12//6 7//6 6//6 11//6
f 11//7 6//7 5//7
f 3//8 1//8 2//8
f 15//9 16//9 17//9 18//9 19//9 20//9 21//9 22//9
f 2//10 15//10 16//10 3//10
f 3//11 16//11 17//11 13//11
f 13//12 17//12 18//12 14//12
f 14//13 18//13 19//13 12//13
f 12//14 19//14 20//14 11//14
f 11//15 20//15 21//15 5//15
f 5//16 21//16 22//16 4//16
f 4//17 22//17 15//17 2//17
