# Blender v2.92.0 OBJ File: ''
# www.blender.org
mtllib CG10_500_045068_0027.mtl
o CG10_500_045068_0027
v 19.805838 75.000000 -108.325829
v 221.154007 75.000000 -583.051331
v 304.948700 144.901291 -498.720703
v 138.469482 145.000000 -105.808937
v 410.597260 75.000000 -502.698761
v 209.572479 75.000000 -27.836502
v 19.805838 0.000000 -108.325829
v 221.154007 0.000000 -583.051331
v 410.597260 0.000000 -502.698761
v 209.572479 0.000000 -27.836502
vn 0.4935 -0.8442 0.2093
vn -0.3306 0.5323 0.7793
vn 0.5430 0.8076 0.2299
vn 0.3285 0.5406 -0.7745
vn 0.0000 -1.0000 0.0000
vn 0.9206 0.0000 0.3905
vn -0.3905 0.0000 0.9206
vn -0.9209 0.0000 -0.3898
vn 0.3905 0.0000 -0.9206
usemtl None
s off
f 1//1 2//1 3//1 4//1
f 1//2 6//2 4//2
f 6//3 5//3 3//3 4//3
f 5//4 2//4 3//4
f 7//5 8//5 9//5 10//5
f 1//6 7//6 8//6 2//6
f 2//7 8//7 9//7 5//7
f 5//8 9//8 10//8 6//8
f 6//9 10//9 7//9 1//9
