# Blender v2.92.0 OBJ File: ''
# www.blender.org
mtllib CG10_500_035063_0006.mtl
o CG10_500_035063_0006
v 15.894689 75.000000 -28.896606
v 134.846252 75.000000 -22.950195
v 19.517300 75.000000 -101.363045
v 10.690943 75.000000 -101.804276
v 105.801971 75.000000 -97.948494
v 138.513687 75.000000 -96.313225
v 209.048676 75.000000 -182.508270
v 35.860279 75.000000 -191.202087
v 110.276993 75.000000 -187.466461
v 36.472885 75.000000 -203.471008
v 15.824883 75.000000 -204.503204
v 123.925537 144.998657 -271.203369
v 129.869583 145.000000 -390.216583
v 223.579178 75.000000 -473.357819
v 50.380878 75.000000 -482.016052
v 15.894689 0.000000 -28.896606
v 134.846252 0.000000 -22.950195
v 138.513687 0.000000 -96.313225
v 105.801971 0.000000 -97.948494
v 110.276993 0.000000 -187.466461
v 209.048676 0.000000 -182.508270
v 223.579178 0.000000 -473.357819
v 50.380878 0.000000 -482.016052
v 36.472885 0.000000 -203.471008
v 15.824883 0.000000 -204.503204
v 10.690943 0.000000 -101.804276
v 19.517300 0.000000 -101.363045
vn 0.0000 1.0000 -0.0000
vn 0.0320 -0.7694 -0.6380
vn 0.0000 -1.0000 -0.0000
vn -0.6395 0.7681 -0.0319
vn -0.0311 -0.7816 0.6230
vn -0.6155 -0.7875 -0.0308
vn -0.0499 0.0000 0.9988
vn 0.9988 0.0000 0.0499
vn 0.0499 0.0000 -0.9988
vn -0.0501 0.0000 0.9987
vn -0.9988 0.0000 -0.0499
usemtl None
s off
f 3//1 1//1 2//1 6//1 5//1
f 8//2 12//2 7//2 9//2
f 3//3 4//3 11//3 10//3 8//3 9//3 5//3
f 8//4 12//4 13//4 15//4 10//4
f 15//5 14//5 13//5
f 14//6 7//6 12//6 13//6
f 16//1 17//1 18//1 19//1 20//1 21//1 22//1 23//1 24//1 25//1 26//1 27//1
f 1//7 16//7 17//7 2//7
f 2//8 17//8 18//8 6//8
f 6//9 18//9 19//9 5//9
f 5//8 19//8 20//8 9//8
f 9//10 20//10 21//10 7//10
f 7//8 21//8 22//8 14//8
f 14//9 22//9 23//9 15//9
f 15//11 23//11 24//11 10//11
f 10//9 24//9 25//9 11//9
f 11//11 25//11 26//11 4//11
f 4//7 26//7 27//7 3//7
f 3//11 27//11 16//11 1//11
