# Blender v2.92.0 OBJ File: ''
# www.blender.org
mtllib CG10_500_041066_0024.mtl
o CG10_500_041066_0024
v 12.072090 75.000000 -18.602762
v 21.558619 75.000000 -217.733597
v 63.953083 114.772652 -65.563736
v 64.701591 114.876976 -78.542206
v 104.121666 145.000000 -116.763527
v 114.089806 75.000000 -212.369186
v 118.510826 75.000000 -295.566193
v 110.581772 144.979034 -116.417809
v 116.817871 75.000000 -13.534039
v 117.456818 75.000000 -22.782681
v 164.022537 111.227959 -239.412659
v 159.995529 111.383377 -159.715210
v 179.414459 100.806305 -254.169815
v 204.582504 100.587379 -253.261780
v 213.787445 75.000000 -212.420166
v 204.521866 75.000000 -18.499962
v 242.096939 75.000000 -211.789886
v 245.859299 75.000000 -289.322845
v 12.072090 0.000000 -18.602762
v 21.558619 0.000000 -217.733597
v 114.089806 0.000000 -212.369186
v 118.510826 0.000000 -295.566193
v 245.859299 0.000000 -289.322845
v 242.096939 0.000000 -211.789886
v 213.787445 0.000000 -212.420166
v 204.521866 0.000000 -18.499962
v 117.456818 0.000000 -22.782681
v 116.817871 0.000000 -13.534039
vn 0.0273 0.8297 -0.5575
vn -0.5432 -0.8392 -0.0264
vn -0.0119 0.8462 0.5328
vn -0.5785 -0.8152 -0.0276
vn -0.0295 0.7996 0.5998
vn -0.5754 -0.8169 -0.0398
vn -0.0303 0.7790 0.6263
vn 0.6250 -0.7801 0.0298
vn -0.0341 -0.8081 0.5881
vn 0.5982 -0.8007 0.0318
vn 0.0000 -1.0000 0.0000
vn 0.9989 0.0000 0.0476
vn -0.0579 0.0000 0.9983
vn 0.9986 0.0000 0.0531
vn -0.0490 0.0000 0.9988
vn -0.9988 0.0000 -0.0485
vn 0.0223 0.0000 -0.9998
vn -0.9989 0.0000 -0.0477
vn 0.0491 0.0000 -0.9988
vn -0.9976 0.0000 -0.0689
vn 0.0483 0.0000 -0.9988
usemtl None
s off
f 7//1 11//1 13//1 14//1 18//1
f 17//2 14//2 18//2
f 15//3 17//3 14//3 13//3
f 16//4 8//4 12//4 11//4 13//4 15//4
f 10//5 16//5 8//5 5//5 4//5
f 9//6 3//6 4//6 10//6
f 1//7 9//7 3//7
f 2//8 5//8 4//8 3//8 1//8
f 6//9 12//9 8//9 5//9 2//9
f 7//10 11//10 12//10 6//10
f 19//11 20//11 21//11 22//11 23//11 24//11 25//11 26//11 27//11 28//11
f 1//12 19//12 20//12 2//12
f 2//13 20//13 21//13 6//13
f 6//14 21//14 22//14 7//14
f 7//15 22//15 23//15 18//15
f 18//16 23//16 24//16 17//16
f 17//17 24//17 25//17 15//17
f 15//18 25//18 26//18 16//18
f 16//19 26//19 27//19 10//19
f 10//20 27//20 28//20 9//20
f 9//21 28//21 19//21 1//21
