# Blender v2.92.0 OBJ File: ''
# www.blender.org
mtllib CG10_500_040070_0060_roof.mtl
o CG10_500_040070_0060_roof
v 433.042877 75.000000 -277.022034
v 270.429352 75.000000 -286.501831
v 32.829029 75.000000 -259.168152
v 267.880829 75.000000 -245.235977
v 345.494446 133.990433 -209.379929
v 317.747650 114.616180 -184.624832
v 258.725342 114.296677 -188.588226
v 126.970810 145.000000 -151.713623
v 208.777145 144.984894 -146.886719
v 423.985107 75.000000 -121.840561
v 315.752869 75.000000 -129.919708
v 166.028580 115.316368 -103.904350
v 164.853531 115.145844 -81.629715
v 309.797760 75.000000 -33.642509
v 20.671051 75.000000 -50.620354
v 104.131371 75.000000 -45.719471
v 227.125717 75.000000 -38.497097
v 225.485779 75.000000 -13.330564
v 103.084549 75.000000 -20.468988
v 433.042877 0.000000 -277.022034
v 270.429352 0.000000 -286.501831
v 267.880829 0.000000 -245.235977
v 32.829029 0.000000 -259.168152
v 20.671051 0.000000 -50.620354
v 104.131371 0.000000 -45.719471
v 103.084549 0.000000 -20.468988
v 225.485779 0.000000 -13.330564
v 227.125717 0.000000 -38.497097
v 309.797760 0.000000 -33.642509
v 315.752869 0.000000 -129.919708
v 423.985107 0.000000 -121.840561
vt 0.761000 0.302070
vt 0.595660 0.044994
vt 0.953840 0.076593
vt 0.699880 0.384580
vt 0.590050 0.182550
vt 0.072311 0.136110
vt 0.279670 0.494290
vt 0.459860 0.510380
vt 0.569880 0.371370
vt 0.933890 0.593860
vt 0.695490 0.566930
vt 0.682370 0.887860
vt 0.045531 0.831270
vt 0.229360 0.847600
vt 0.365700 0.653650
vt 0.500280 0.871680
vt 0.496660 0.955560
vt 0.363110 0.727900
vt 0.227060 0.931770
vn -0.0367 -0.7762 0.6294
vn 0.5939 -0.8037 0.0367
vn 0.0335 0.8237 -0.5660
vn -0.5762 -0.8166 -0.0336
vn -0.0437 0.8099 0.5849
vn -0.5434 -0.8388 -0.0336
vn -0.0321 0.8372 0.5460
vn -0.5247 -0.8506 -0.0342
vn -0.0307 0.8495 0.5266
vn -0.5609 0.8276 -0.0233
vn 0.5716 -0.8199 0.0333
usemtl None
s off
f 5/1/1 2/2/1 1/3/1
f 5/1/2 6/4/2 4/5/2 2/2/2
f 6/4/3 4/5/3 3/6/3 8/7/3 9/8/3 7/9/3
f 10/10/4 5/1/4 1/3/4
f 10/10/5 5/1/5 6/4/5 7/9/5 11/11/5
f 14/12/6 9/8/6 7/9/6 11/11/6
f 14/12/7 9/8/7 8/7/7 15/13/7 16/14/7 12/15/7 17/16/7
f 17/16/8 18/17/8 13/18/8 12/15/8
f 18/17/9 13/18/9 19/19/9
f 13/18/10 12/15/10 16/14/10 19/19/10
f 3/6/11 8/7/11 15/13/11
