# Blender v2.92.0 OBJ File: ''
# www.blender.org
mtllib CG10_500_036060_0019.mtl
o CG10_500_036060_0019
v 28.779816 75.000000 -199.320587
v 362.863647 75.000000 -178.933548
v 274.866516 145.000000 -97.785156
v 106.531929 144.883835 -108.201141
v 95.004341 135.740524 -98.367638
v 94.112022 135.766617 -83.538940
v 164.456177 75.000000 -23.889883
v 352.443726 75.000000 -12.108055
v 163.584457 75.000000 -8.869932
v 17.487772 75.000000 -17.995453
v 28.779816 0.000000 -199.320587
v 362.863647 0.000000 -178.933548
v 352.443726 0.000000 -12.108055
v 164.456177 0.000000 -23.889883
v 163.584457 0.000000 -8.869932
v 17.487772 0.000000 -17.995453
vn -0.0408 0.7560 0.6532
vn -0.6416 0.7660 -0.0400
vn 0.6352 0.7715 0.0369
vn -0.0410 0.7552 0.6542
vn 0.6445 0.7635 0.0403
vn 0.0384 0.7768 -0.6285
vn 0.0000 -1.0000 0.0000
vn -0.0609 0.0000 0.9981
vn -0.9981 0.0000 -0.0623
vn 0.0626 0.0000 -0.9980
vn -0.9983 0.0000 -0.0579
vn 0.0623 0.0000 -0.9981
vn 0.9981 0.0000 0.0622
usemtl None
s off
f 10//1 9//1 6//1
f 10//2 6//2 5//2 4//2 1//2
f 9//3 7//3 5//3 6//3
f 7//4 8//4 3//4 4//4 5//4
f 8//5 2//5 3//5
f 1//6 4//6 3//6 2//6
f 11//7 12//7 13//7 14//7 15//7 16//7
f 1//8 11//8 12//8 2//8
f 2//9 12//9 13//9 8//9
f 8//10 13//10 14//10 7//10
f 7//11 14//11 15//11 9//11
f 9//12 15//12 16//12 10//12
f 10//13 16//13 11//13 1//13
