# Blender v2.92.0 OBJ File: ''
# www.blender.org
mtllib CG10_500_037057_0046_roof.mtl
o CG10_500_037057_0046_roof
v 22.645306 75.000000 -236.925781
v 14.641517 75.000000 -72.807838
v 98.594780 145.000000 -153.031464
v 192.723358 75.000000 -64.169449
v 190.420059 75.000000 -16.216290
v 220.449936 144.965775 -147.079315
v 247.951904 120.757484 -116.592934
v 245.605576 120.716675 -68.722839
v 297.534424 75.000000 -10.992908
v 308.136993 75.000000 -222.888870
v 22.645306 0.000000 -236.925781
v 14.641517 0.000000 -72.807838
v 192.723358 0.000000 -64.169449
v 190.420059 0.000000 -16.216290
v 297.534424 0.000000 -10.992908
v 308.136993 0.000000 -222.888870
vt 0.585910 0.934870
vt 0.915490 0.955850
vt 0.755710 0.724000
vt 0.762930 0.531760
vt 0.592990 0.742290
vt 0.045051 0.707600
vt 0.678310 0.409320
vt 0.303370 0.385420
vt 0.069678 0.048491
vt 0.948110 0.104860
vn -0.0311 0.7698 0.6376
vn -0.6552 0.7548 -0.0315
vn -0.0310 0.7690 0.6385
vn -0.6580 0.7524 -0.0321
vn 0.0323 0.7528 -0.6574
vn 0.6401 0.7676 0.0320
usemtl None
s off
f 5/1/1 9/2/1 8/3/1
f 5/1/2 8/3/2 7/4/2 4/5/2
f 2/6/3 4/5/3 7/4/3 6/7/3 3/8/3
f 2/6/4 3/8/4 1/9/4
f 3/8/5 6/7/5 10/10/5 1/9/5
f 8/3/6 9/2/6 10/10/6 6/7/6 7/4/6
