# Blender v2.92.0 OBJ File: ''
# www.blender.org
mtllib CG10_500_043068_0049.mtl
o CG10_500_043068_0049
v 442.064392 75.000000 -19.776800
v 277.859894 75.000000 -87.538193
v 511.694489 75.000000 -32.618073
v 457.272186 75.000000 -55.277519
v 397.198792 139.191635 -130.374283
v 316.754089 75.000000 -181.715073
v 226.317307 78.242088 -219.724655
v 26.683971 75.000000 -301.496552
v 412.521057 139.377045 -166.764175
v 464.880432 144.825836 -152.822678
v 422.976624 145.000000 -170.521088
v 313.073547 124.588051 -248.961685
v 405.052338 122.786652 -212.291351
v 584.376953 75.000000 -208.735214
v 274.033600 78.233612 -336.828522
v 75.132065 75.000000 -418.895264
v 442.064392 0.000000 -19.776800
v 277.859894 0.000000 -87.538193
v 316.754089 0.000000 -181.715073
v 26.683971 0.000000 -301.496552
v 75.132065 0.000000 -418.895264
v 584.376953 0.000000 -208.735214
v 511.694489 0.000000 -32.618073
v 457.272186 0.000000 -55.277519
vn -0.2308 0.7996 0.5544
vn 0.5701 0.7872 0.2353
vn -0.0139 0.9999 -0.0057
vn 0.2187 -0.7796 -0.5869
vn -0.5148 0.8313 -0.2098
vn -0.2279 -0.8157 0.5316
vn -0.5214 0.8257 -0.2153
vn 0.5548 0.7973 0.2377
vn 0.2297 -0.7984 -0.5566
vn -0.3750 0.1862 0.9081
vn 0.3815 -0.0051 -0.9244
vn 0.0000 -1.0000 0.0000
vn 0.3815 0.0000 -0.9244
vn 0.9243 0.0000 0.3817
vn 0.3817 0.0000 -0.9243
vn 0.9244 0.0000 0.3815
vn -0.3815 0.0000 0.9244
vn -0.9244 0.0000 -0.3815
vn 0.3844 0.0000 -0.9232
vn -0.9192 0.0000 -0.3938
usemtl None
s off
f 4//1 3//1 10//1 11//1 9//1
f 3//2 14//2 10//2
f 8//3 7//3 15//3 16//3
f 13//4 6//4 7//4 12//4
f 12//5 15//5 7//5
f 12//6 15//6 14//6 10//6 11//6 13//6
f 13//7 6//7 2//7 5//7 9//7 11//7
f 1//8 4//8 9//8 5//8
f 1//9 2//9 5//9
f 6//10 7//10 8//10
f 16//11 15//11 14//11
f 17//12 18//12 19//12 20//12 21//12 22//12 23//12 24//12
f 1//13 17//13 18//13 2//13
f 2//14 18//14 19//14 6//14
f 6//15 19//15 20//15 8//15
f 8//16 20//16 21//16 16//16
f 16//17 21//17 22//17 14//17
f 14//18 22//18 23//18 3//18
f 3//19 23//19 24//19 4//19
f 4//20 24//20 17//20 1//20
