# Blender v2.92.0 OBJ File: ''
# www.blender.org
mtllib CG10_500_042070_0012_roof.mtl
o CG10_500_042070_0012_roof
v 20.093472 75.000000 -186.507294
v 119.135292 75.000000 -17.628510
v 142.253876 144.984726 -150.267120
v 282.107758 145.000000 -232.329498
v 355.827057 75.000000 -156.468674
v 376.691406 75.000000 -120.932198
v 387.878113 103.516098 -176.073257
v 367.037506 103.510376 -211.554398
v 446.280457 75.000000 -161.744156
v 326.160339 75.000000 -366.150391
v 20.093472 0.000000 -186.507294
v 119.135292 0.000000 -17.628510
v 355.827057 0.000000 -156.468674
v 376.691406 0.000000 -120.932198
v 446.280457 0.000000 -161.744156
v 326.160339 0.000000 -366.150391
vt 0.043027 0.515570
vt 0.255110 0.954210
vt 0.304610 0.609700
vt 0.761940 0.593590
vt 0.785950 0.450510
vt 0.604090 0.396550
vt 0.806620 0.685890
vt 0.830570 0.542670
vt 0.955630 0.579890
vt 0.698420 0.048960
vn -0.5405 0.7793 0.3170
vn 0.2849 0.8264 0.4857
vn -0.5214 0.7965 0.3061
vn 0.2846 0.8267 0.4853
vn 0.4758 0.8339 -0.2796
vn -0.3042 0.7993 -0.5182
usemtl None
s off
f 1/1/1 2/2/1 3/3/1
f 2/2/2 5/4/2 8/5/2 4/6/2 3/3/2
f 5/4/3 6/7/3 7/8/3 8/5/3
f 6/7/4 9/9/4 7/8/4
f 9/9/5 10/10/5 4/6/5 8/5/5 7/8/5
f 10/10/6 1/1/6 3/3/6 4/6/6
