# Blender v2.92.0 OBJ File: ''
# www.blender.org
mtllib CG10_500_042074_0016.mtl
o CG10_500_042074_0016
v 288.614288 75.000000 -120.311066
v 365.001648 75.000000 -199.652939
v 262.483185 75.000000 -145.516312
v 137.733719 75.000000 -15.960653
v 284.958221 120.783043 -198.635239
v 260.132812 120.766777 -222.554504
v 218.453705 145.000000 -221.353363
v 133.395035 144.994263 -133.007690
v 218.510742 75.000000 -340.633301
v 17.442816 75.000000 -131.772171
v 288.614288 0.000000 -120.311066
v 365.001648 0.000000 -199.652939
v 218.510742 0.000000 -340.633301
v 17.442816 0.000000 -131.772171
v 137.733719 0.000000 -15.960653
v 262.483185 0.000000 -145.516312
vn 0.4498 -0.7618 -0.4663
vn -0.4601 -0.7694 -0.4431
vn 0.4513 0.7794 0.4345
vn 0.4378 0.7755 -0.4549
vn 0.4525 -0.7579 -0.4700
vn 0.4655 -0.7632 0.4481
vn 0.0000 1.0000 0.0000
vn 0.7204 0.0000 0.6936
vn 0.6934 0.0000 -0.7205
vn -0.7204 0.0000 -0.6935
vn -0.6936 0.0000 0.7204
vn 0.7203 0.0000 0.6936
vn -0.6942 0.0000 0.7197
usemtl None
s off
f 6//1 5//1 1//1 3//1
f 7//2 6//2 3//2 4//2 8//2
f 5//3 1//3 2//3
f 9//4 7//4 6//4 5//4 2//4
f 10//5 8//5 4//5
f 8//6 10//6 9//6 7//6
f 11//7 12//7 13//7 14//7 15//7 16//7
f 1//8 11//8 12//8 2//8
f 2//9 12//9 13//9 9//9
f 9//10 13//10 14//10 10//10
f 10//11 14//11 15//11 4//11
f 4//12 15//12 16//12 3//12
f 3//13 16//13 11//13 1//13
