# Blender v2.92.0 OBJ File: ''
# www.blender.org
mtllib CG10_500_041073_0013.mtl
o CG10_500_041073_0013
v 13.820446 75.000000 -91.724182
v 187.536621 75.000000 -18.425022
v 146.957565 144.962677 -145.683990
v 84.927025 75.000000 -260.708740
v 19.731800 75.000000 -287.274963
v 187.799240 145.000000 -242.604126
v 97.091278 116.600029 -319.648590
v 163.303070 116.269661 -292.160675
v 63.353233 75.000000 -390.673401
v 302.090546 75.000000 -289.935150
v 13.820446 0.000000 -91.724182
v 187.536621 0.000000 -18.425022
v 302.090546 0.000000 -289.935150
v 63.353233 0.000000 -390.673401
v 19.731800 0.000000 -287.274963
v 84.927025 0.000000 -260.708740
vn -0.2170 0.8181 0.5326
vn -0.5328 0.8159 -0.2248
vn 0.2419 0.7827 -0.5734
vn -0.5780 -0.7788 -0.2439
vn 0.2207 -0.8233 -0.5230
vn -0.5221 0.8241 -0.2197
vn 0.0000 1.0000 0.0000
vn -0.3888 0.0000 0.9213
vn 0.9214 0.0000 0.3887
vn 0.3888 0.0000 -0.9213
vn -0.9214 0.0000 -0.3887
vn -0.3774 0.0000 0.9261
vn -0.9217 0.0000 -0.3878
usemtl None
s off
f 4//1 8//1 7//1 5//1
f 5//2 7//2 9//2
f 10//3 9//3 7//3 8//3 6//3
f 2//4 3//4 6//4 10//4
f 1//5 3//5 2//5
f 4//6 1//6 3//6 6//6 8//6
f 11//7 12//7 13//7 14//7 15//7 16//7
f 1//8 11//8 12//8 2//8
f 2//9 12//9 13//9 10//9
f 10//10 13//10 14//10 9//10
f 9//11 14//11 15//11 5//11
f 5//12 15//12 16//12 4//12
f 4//13 16//13 11//13 1//13
