# Blender v2.92.0 OBJ File: ''
# www.blender.org
mtllib CG10_500_042065_0004.mtl
o CG10_500_042065_0004
v 23.836582 75.000000 -290.793671
v 9.923872 75.000000 -23.753391
v 113.102631 145.000000 -112.692329
v 117.293388 144.995132 -193.260986
v 213.030289 75.000000 -280.966095
v 199.161133 75.000000 -13.923544
v 23.836582 0.000000 -290.793671
v 9.923872 0.000000 -23.753391
v 199.161133 0.000000 -13.923544
v 213.030289 0.000000 -280.966095
vn 0.0309 -0.8026 -0.5958
vn -0.6086 -0.7928 -0.0316
vn -0.0313 -0.7976 0.6024
vn 0.5788 -0.8149 0.0302
vn 0.0000 1.0000 0.0000
vn -0.9986 0.0000 -0.0520
vn -0.0519 0.0000 0.9987
vn 0.9987 0.0000 0.0519
vn 0.0519 0.0000 -0.9987
usemtl None
s off
f 2//1 3//1 6//1
f 6//2 3//2 4//2 5//2
f 5//3 4//3 1//3
f 1//4 4//4 3//4 2//4
f 7//5 8//5 9//5 10//5
f 1//6 7//6 8//6 2//6
f 2//7 8//7 9//7 6//7
f 6//8 9//8 10//8 5//8
f 5//9 10//9 7//9 1//9
