# Blender v2.92.0 OBJ File: ''
# www.blender.org
mtllib CG10_500_040072_0020_roof.mtl
o CG10_500_040072_0020_roof
v 87.576111 75.000000 -24.930489
v 247.558197 75.000000 -13.809443
v 83.399353 75.000000 -64.534653
v 10.197638 75.000000 -69.562912
v 178.169098 126.814934 -102.575264
v 166.625748 121.588867 -117.558846
v 166.511078 122.530792 -135.673065
v 136.325317 144.999100 -174.073090
v 137.248215 145.000000 -187.328049
v 259.201416 75.000000 -181.707458
v 239.723984 75.000000 -188.624908
v 246.630005 75.000000 -287.670929
v 26.422892 75.000000 -302.977936
v 87.576111 0.000000 -24.930489
v 247.558197 0.000000 -13.809443
v 259.201416 0.000000 -181.707458
v 239.723984 0.000000 -188.624908
v 246.630005 0.000000 -287.670929
v 26.422892 0.000000 -302.977936
v 10.197638 0.000000 -69.562912
v 83.399353 0.000000 -64.534653
vt 0.321970 0.921600
vt 0.910140 0.956570
vt 0.655030 0.677440
vt 0.952950 0.428590
vt 0.612170 0.573360
vt 0.306620 0.797060
vt 0.612590 0.630320
vt 0.881340 0.406840
vt 0.906730 0.095374
vt 0.504590 0.410920
vt 0.501200 0.452600
vt 0.097143 0.047239
vt 0.037491 0.781250
vn -0.0365 0.8504 0.5249
vn 0.5652 0.8240 0.0392
vn -0.4640 0.8845 0.0489
vn -0.1519 -0.8910 0.4278
vn 0.5640 0.8249 0.0393
vn 0.0378 0.8384 -0.5437
vn -0.5071 0.8611 -0.0353
vn -0.0361 0.8499 0.5257
usemtl None
s off
f 1/1/1 2/2/1 5/3/1
f 2/2/2 10/4/2 5/3/2
f 7/5/3 3/6/3 1/1/3 5/3/3 6/7/3
f 6/7/4 11/8/4 10/4/4 5/3/4
f 11/8/5 12/9/5 9/10/5 8/11/5 7/5/5 6/7/5
f 13/12/6 9/10/6 12/9/6
f 13/12/7 4/13/7 8/11/7 9/10/7
f 4/13/8 3/6/8 7/5/8 8/11/8
