# Blender v2.92.0 OBJ File: ''
# www.blender.org
mtllib CG10_500_045068_0014.mtl
o CG10_500_045068_0014
v 98.179924 75.000000 -305.698120
v 14.139297 75.000000 -102.637787
v 91.770554 144.243439 -131.134613
v 131.887451 144.012924 -228.595215
v 132.696899 143.376999 -113.444778
v 173.584137 143.138657 -212.144653
v 210.802643 144.771149 -195.252731
v 170.865845 145.000000 -99.074829
v 244.877380 74.999969 -134.439148
v 283.895721 75.000000 -228.864197
v 275.365295 75.000000 -208.220444
v 203.537140 75.000000 -34.394993
v 199.968735 75.000000 -25.759396
v 314.856720 75.000000 -191.896362
v 284.659515 75.000000 -118.842850
v 250.712784 75.000000 -14.894592
v 292.364136 75.000000 -115.658089
v 98.179924 0.000000 -305.698120
v 14.139297 0.000000 -102.637787
v 199.968735 0.000000 -25.759396
v 203.537140 0.000000 -34.394993
v 250.712784 0.000000 -14.894592
v 292.364136 0.000000 -115.658089
v 284.659515 0.000000 -118.842850
v 314.856720 0.000000 -191.896362
v 275.365295 0.000000 -208.220444
v 283.895721 0.000000 -228.864197
vn 0.0188 0.9998 0.0054
vn -0.0360 0.9992 -0.0173
vn 0.2919 0.6457 -0.7056
vn -0.6942 0.6600 -0.2873
vn -0.2972 0.6289 0.7184
vn -0.0000 1.0000 -0.0000
vn 0.7272 0.6171 0.3005
vn -0.9240 0.0000 -0.3824
vn -0.3823 0.0000 0.9240
vn 0.9242 0.0000 0.3819
vn -0.3820 0.0000 0.9242
vn 0.9242 0.0000 0.3820
vn 0.3820 0.0000 -0.9242
vn 0.3823 0.0000 -0.9240
usemtl None
s off
f 6//1 4//1 3//1 5//1
f 5//2 8//2 7//2 6//2
f 1//3 4//3 6//3 7//3 10//3
f 2//4 3//4 4//4 1//4
f 2//5 13//5 8//5 5//5 3//5
f 12//6 16//6 17//6 15//6 9//6
f 8//7 13//7 12//7 9//7 11//7 10//7 7//7
f 9//6 15//6 14//6 11//6
f 18//6 19//6 20//6 21//6 22//6 23//6 24//6 25//6 26//6 27//6
f 1//8 18//8 19//8 2//8
f 2//9 19//9 20//9 13//9
f 13//10 20//10 21//10 12//10
f 12//11 21//11 22//11 16//11
f 16//12 22//12 23//12 17//12
f 17//13 23//13 24//13 15//13
f 15//12 24//12 25//12 14//12
f 14//13 25//13 26//13 11//13
f 11//10 26//10 27//10 10//10
f 10//14 27//14 18//14 1//14
