# Blender v2.92.0 OBJ File: ''
# www.blender.org
mtllib CG10_500_039057_0022_roof.mtl
o CG10_500_039057_0022_roof
v 77.884552 75.000000 -328.072266
v 11.294319 75.000000 -56.645470
v 160.781128 145.000000 -307.639618
v 94.024940 144.861221 -36.246769
v 244.789352 75.000000 -286.926178
v 210.969452 75.000000 -149.796555
v 188.964783 75.000000 -60.574131
v 177.868134 75.000000 -15.580511
v 228.305893 75.000000 -50.875534
v 250.302017 75.000000 -140.100067
v 77.884552 0.000000 -328.072266
v 11.294319 0.000000 -56.645470
v 177.868134 0.000000 -15.580511
v 188.964783 0.000000 -60.574131
v 228.305893 0.000000 -50.875534
v 250.302017 0.000000 -140.100067
v 210.969452 0.000000 -149.796555
v 244.789352 0.000000 -286.926178
vt 0.357510 0.894630
vt 0.611340 0.105700
vt 0.930760 0.165910
vt 0.802170 0.564540
vt 0.718500 0.823910
vt 0.676300 0.954710
vt 0.296140 0.046302
vt 0.042944 0.835330
vt 0.868080 0.852110
vt 0.951720 0.592730
vn -0.6107 -0.7774 -0.1506
vn -0.6158 0.7733 -0.1511
vn 0.0000 1.0000 0.0000
vn 0.2394 0.0000 -0.9709
vn -0.2394 0.0000 0.9709
usemtl None
s off
f 4/1/1 3/2/1 5/3/1 6/4/1 7/5/1 8/6/1
f 3/2/2 1/7/2 2/8/2 4/1/2
f 7/5/3 9/9/3 10/10/3 6/4/3
f 2/8/4 4/1/4 8/6/4
f 5/3/5 3/2/5 1/7/5
