# Blender v2.92.0 OBJ File: ''
# www.blender.org
mtllib CG10_500_045071_0009_roof.mtl
o CG10_500_045071_0009_roof
v 343.117065 75.000000 -214.825638
v 298.293823 75.000000 -108.177872
v 256.849335 75.000000 -125.956001
v 210.045486 75.000000 -14.687907
v 266.250641 120.946869 -186.187408
v 224.489456 120.811737 -203.912384
v 158.882629 144.918625 -129.447205
v 183.789642 145.000000 -188.934494
v 50.301437 75.000000 -81.824982
v 94.790329 75.000000 -188.523621
v 141.140152 75.000000 -299.685364
v 15.517964 75.000000 -96.444260
v 60.307808 75.000000 -203.015259
v 343.117065 0.000000 -214.825638
v 298.293823 0.000000 -108.177872
v 256.849335 0.000000 -125.956001
v 210.045486 0.000000 -14.687907
v 50.301437 0.000000 -81.824982
v 15.517964 0.000000 -96.444260
v 60.307808 0.000000 -203.015259
v 94.790329 0.000000 -188.523621
v 141.140152 0.000000 -299.685364
vt 0.583460 0.953220
vt 0.713470 0.598870
vt 0.623580 0.350600
vt 0.510530 0.398300
vt 0.441340 0.587750
vt 0.392060 0.045588
vt 0.263310 0.399610
vt 0.139730 0.739410
vt 0.167520 0.353450
vt 0.043105 0.692850
vt 0.953100 0.315840
vt 0.739590 0.407050
vt 0.828590 0.655480
vn 0.5591 0.7951 0.2352
vn -0.5993 0.7605 -0.2499
vn 0.0000 1.0000 -0.0000
vn -0.2445 0.7758 0.5817
vn -0.2452 -0.7741 0.5837
vn -0.2421 0.7893 0.5643
vn 0.5619 0.7928 0.2362
usemtl None
s off
f 4/1/1 3/2/1 6/3/1 8/4/1 7/5/1
f 7/5/2 8/4/2 11/6/2 10/7/2 9/8/2
f 9/8/3 10/7/3 13/9/3 12/10/3
f 9/8/4 4/1/4 7/5/4
f 8/4/5 11/6/5 1/11/5 5/12/5 6/3/5
f 3/2/6 2/13/6 5/12/6 6/3/6
f 2/13/7 1/11/7 5/12/7
