# Blender v2.92.0 OBJ File: ''
# www.blender.org
mtllib CG10_500_041072_0044_roof.mtl
o CG10_500_041072_0044_roof
v 339.205200 75.000000 -270.846191
v 281.152710 75.000000 -133.979462
v 246.809204 144.998306 -233.907501
v 192.076691 75.000000 -171.770889
v 126.359299 75.000000 -16.910860
v 183.342087 145.000000 -260.836151
v 96.914551 130.417892 -98.609314
v 162.029938 130.448166 -252.133240
v 15.161967 75.000000 -64.075623
v 138.849869 75.000000 -355.861450
v 339.205200 0.000000 -270.846191
v 281.152710 0.000000 -133.979462
v 192.076691 0.000000 -171.770889
v 126.359299 0.000000 -16.910860
v 15.161967 0.000000 -64.075623
v 138.849869 0.000000 -355.861450
vt 0.042590 0.828220
vt 0.354940 0.954660
vt 0.272230 0.735630
vt 0.539540 0.539490
vt 0.455140 0.324040
vt 0.789750 0.640810
vt 0.515010 0.300710
vt 0.693280 0.372900
vt 0.952820 0.273870
vt 0.390030 0.045948
vn -0.2563 0.7545 0.6042
vn -0.6301 -0.7290 -0.2674
vn 0.2598 -0.7467 -0.6123
vn -0.6480 -0.7103 -0.2749
vn -0.2760 -0.7076 0.6505
vn 0.6147 -0.7445 0.2606
usemtl None
s off
f 9/1/1 5/2/1 7/3/1
f 4/4/2 5/2/2 7/3/2 8/5/2
f 2/6/3 4/4/3 8/5/3 6/7/3 3/8/3
f 1/9/4 2/6/4 3/8/4
f 10/10/5 1/9/5 3/8/5 6/7/5
f 10/10/6 6/7/6 8/5/6 7/3/6 9/1/6
