# Blender v2.92.0 OBJ File: ''
# www.blender.org
mtllib CG10_500_049072_0049_roof.mtl
o CG10_500_049072_0049_roof
v 9.059940 75.000000 -22.665577
v 164.796478 75.000000 -12.999258
v 90.891479 145.000000 -17.584225
v 25.368967 75.000000 -284.800903
v 107.043236 144.865250 -279.733521
v 180.805695 75.000000 -275.152893
v 9.059940 0.000000 -22.665577
v 164.796478 0.000000 -12.999258
v 180.805695 0.000000 -275.152893
v 25.368967 0.000000 -284.800903
vt 0.047684 0.923680
vt 0.133520 0.041074
vt 0.563390 0.058136
vt 0.478380 0.940790
vt 0.867350 0.956230
vt 0.951610 0.073559
vn 0.6481 -0.7605 0.0403
vn 0.6857 0.7267 0.0419
vn 0.0619 0.0000 -0.9981
vn -0.0620 0.0000 0.9981
usemtl None
s off
f 1/1/1 4/2/1 5/3/1 3/4/1
f 3/4/2 2/5/2 6/6/2 5/3/2
f 1/1/3 3/4/3 2/5/3
f 6/6/4 5/3/4 4/2/4
