# Blender v2.92.0 OBJ File: ''
# www.blender.org
mtllib CG10_500_039072_0013_roof.mtl
o CG10_500_039072_0013_roof
v 28.481812 75.000000 -302.939972
v 11.235069 75.000000 -28.405369
v 113.200562 144.959183 -214.739853
v 106.909271 145.000000 -113.756721
v 139.702408 115.878616 -73.688751
v 202.705536 75.000000 -291.996582
v 189.892532 115.866280 -70.519936
v 192.083847 75.000000 -120.155083
v 240.050415 75.000000 -117.112305
v 233.601242 75.000000 -14.437327
v 28.481812 0.000000 -302.939972
v 11.235069 0.000000 -28.405369
v 233.601242 0.000000 -14.437327
v 240.050415 0.000000 -117.112305
v 192.083847 0.000000 -120.155083
v 202.705536 0.000000 -291.996582
vt 0.451000 0.322590
vt 0.113470 0.044353
vt 0.807590 0.078875
vt 0.930680 0.954460
vt 0.756540 0.777540
vt 0.956380 0.630560
vt 0.044761 0.910390
vt 0.556580 0.767540
vt 0.425930 0.641150
vt 0.765270 0.620960
vn -0.0405 -0.7635 0.6445
vn -0.6538 -0.7556 -0.0411
vn -0.0382 0.7932 0.6077
vn 0.6122 -0.7898 0.0385
vn -0.0402 -0.7723 0.6340
vn -0.6362 -0.7705 -0.0393
usemtl None
s off
f 3/1/1 1/2/1 6/3/1
f 10/4/2 7/5/2 9/6/2
f 2/7/3 10/4/3 7/5/3 5/8/3 4/9/3
f 2/7/4 1/2/4 3/1/4 4/9/4
f 5/8/5 8/10/5 9/6/5 7/5/5
f 4/9/6 3/1/6 6/3/6 8/10/6 5/8/6
