# Blender v2.92.0 OBJ File: ''
# www.blender.org
mtllib CG10_500_041070_0032.mtl
o CG10_500_041070_0032
v 28.967543 75.000000 -266.689575
v 132.463364 75.000000 -261.106750
v 129.498795 75.000000 -214.545486
v 261.605438 75.000000 -206.728668
v 74.747200 114.133568 -211.634293
v 260.657806 75.000000 -193.088669
v 323.463043 75.000000 -189.730637
v 72.130943 113.971024 -166.983734
v 108.479904 145.000000 -124.261292
v 159.933578 144.895477 -121.353409
v 228.055603 139.408142 -110.370079
v 166.925369 139.400330 -113.648804
v 68.721825 114.746246 -86.053757
v 67.726784 114.738426 -67.827309
v 314.301971 75.000000 -19.834131
v 121.178261 75.000000 -30.225279
v 120.195145 75.000000 -12.412784
v 15.526834 75.000000 -18.056644
v 28.967543 0.000000 -266.689575
v 132.463364 0.000000 -261.106750
v 129.498795 0.000000 -214.545486
v 261.605438 0.000000 -206.728668
v 260.657806 0.000000 -193.088669
v 323.463043 0.000000 -189.730637
v 314.301971 0.000000 -19.834131
v 121.178261 0.000000 -30.225279
v 120.195145 0.000000 -12.412784
v 15.526834 0.000000 -18.056644
vn -0.6256 0.7794 -0.0338
vn 0.0322 0.8018 -0.5967
vn 0.5824 0.8121 0.0371
vn -0.0359 -0.7938 0.6071
vn -0.0325 0.7974 0.6026
vn 0.5817 0.8128 0.0321
vn -0.0323 0.7996 0.5996
vn 0.5891 0.8070 0.0409
vn 0.0324 0.7948 -0.6061
vn -0.5769 -0.8162 -0.0311
vn 0.0000 -1.0000 0.0000
vn -0.0539 0.0000 0.9985
vn -0.9980 0.0000 -0.0635
vn -0.0591 0.0000 0.9983
vn -0.9976 0.0000 -0.0693
vn -0.0534 0.0000 0.9986
vn -0.9985 0.0000 -0.0538
vn 0.0537 0.0000 -0.9986
vn -0.9985 0.0000 -0.0551
vn 0.0538 0.0000 -0.9985
vn 0.9985 0.0000 0.0540
usemtl None
s off
f 18//1 14//1 13//1 9//1 8//1 5//1 1//1
f 1//2 5//2 2//2
f 3//3 2//3 5//3 8//3
f 3//4 4//4 10//4 9//4 8//4
f 18//5 17//5 14//5
f 17//6 16//6 13//6 14//6
f 16//7 15//7 11//7 12//7 10//7 9//7 13//7
f 4//8 10//8 12//8 6//8
f 6//9 12//9 11//9 7//9
f 15//10 11//10 7//10
f 19//11 20//11 21//11 22//11 23//11 24//11 25//11 26//11 27//11 28//11
f 1//12 19//12 20//12 2//12
f 2//13 20//13 21//13 3//13
f 3//14 21//14 22//14 4//14
f 4//15 22//15 23//15 6//15
f 6//16 23//16 24//16 7//16
f 7//17 24//17 25//17 15//17
f 15//18 25//18 26//18 16//18
f 16//19 26//19 27//19 17//19
f 17//20 27//20 28//20 18//20
f 18//21 28//21 19//21 1//21
