# Blender v2.92.0 OBJ File: ''
# www.blender.org
mtllib CG10_500_048076_0024_roof.mtl
o CG10_500_048076_0024_roof
v 285.210602 75.000000 -12.414339
v 181.716904 75.000000 -17.946493
v 237.903595 117.419250 -63.379093
v 14.239269 75.000000 -76.995148
v 184.413208 75.000000 -67.890472
v 240.639084 117.400986 -114.477654
v 209.900726 145.000000 -148.404129
v 106.649582 144.996170 -153.923813
v 296.897491 75.000000 -232.456070
v 23.330061 75.000000 -247.067795
v 285.210602 0.000000 -12.414339
v 181.716904 0.000000 -17.946493
v 184.413208 0.000000 -67.890472
v 14.239269 0.000000 -76.995148
v 23.330061 0.000000 -247.067795
v 296.897491 0.000000 -232.456070
vt 0.074300 0.053380
vt 0.339650 0.410250
vt 0.045348 0.705000
vt 0.668470 0.431400
vt 0.766370 0.561390
vt 0.587300 0.739880
vt 0.578720 0.931240
vt 0.757650 0.757170
vt 0.908310 0.952440
vt 0.945530 0.109360
vn 0.6209 -0.7832 0.0332
vn 0.0347 -0.7596 -0.6494
vn -0.6193 0.7845 -0.0334
vn 0.0352 -0.7518 -0.6584
vn -0.6464 -0.7622 -0.0343
vn -0.0331 -0.7846 0.6192
usemtl None
s off
f 10/1/1 8/2/1 4/3/1
f 4/3/2 8/2/2 7/4/2 6/5/2 5/6/2
f 6/5/3 5/6/3 2/7/3 3/8/3
f 2/7/4 3/8/4 1/9/4
f 1/9/5 3/8/5 6/5/5 7/4/5 9/10/5
f 9/10/6 7/4/6 8/2/6 10/1/6
