# Blender v2.92.0 OBJ File: ''
# www.blender.org
mtllib CG10_500_048067_0009.mtl
o CG10_500_048067_0009
v 255.029297 75.000000 -18.028339
v 123.460152 75.000000 -37.563633
v 130.036087 75.000000 -80.091896
v 100.499786 75.000000 -84.547592
v 197.799606 112.833076 -90.073166
v 104.920059 75.000000 -114.268845
v 13.801793 75.000000 -127.650337
v 203.915039 112.762009 -130.427734
v 189.212006 122.437279 -148.398193
v 192.200272 122.435287 -168.513214
v 187.349091 118.916069 -175.409241
v 181.243484 118.917557 -176.308380
v 144.582306 145.000000 -225.194229
v 287.626373 75.000000 -237.713287
v 264.796173 75.000000 -241.085114
v 205.015167 113.130264 -270.859619
v 209.167542 113.074165 -298.211121
v 48.295399 75.000000 -359.972717
v 153.367630 75.000000 -344.155212
v 280.983032 75.000000 -350.188568
v 157.157379 75.000000 -368.572906
v 255.029297 0.000000 -18.028339
v 123.460152 0.000000 -37.563633
v 130.036087 0.000000 -80.091896
v 100.499786 0.000000 -84.547592
v 104.920059 0.000000 -114.268845
v 13.801793 0.000000 -127.650337
v 48.295399 0.000000 -359.972717
v 153.367630 0.000000 -344.155212
v 157.157379 0.000000 -368.572906
v 280.983032 0.000000 -350.188568
v 264.796173 0.000000 -241.085114
v 287.626373 0.000000 -237.713287
vn 0.0757 -0.8568 -0.5101
vn -0.4854 -0.8713 -0.0720
vn -0.0729 -0.8667 0.4936
vn 0.5123 -0.8554 0.0762
vn -0.5092 -0.8573 -0.0755
vn -0.0769 -0.8520 0.5179
vn 0.5160 -0.8528 0.0801
vn -0.0755 -0.8618 0.5015
vn 0.5142 -0.8543 0.0763
vn 0.0753 -0.8552 -0.5128
vn -0.0787 0.8495 0.5217
vn 0.4946 -0.8657 0.0765
vn 0.0000 -1.0000 0.0000
vn 0.1469 0.0000 -0.9892
vn 0.9883 0.0000 0.1528
vn 0.1492 0.0000 -0.9888
vn 0.9891 0.0000 0.1471
vn 0.1453 0.0000 -0.9894
vn 0.9892 0.0000 0.1469
vn -0.1489 0.0000 0.9889
vn 0.9882 0.0000 0.1534
vn -0.1469 0.0000 0.9892
vn -0.9892 0.0000 -0.1468
vn -0.1461 0.0000 0.9893
usemtl None
s off
f 2//1 5//1 1//1
f 1//2 5//2 8//2 9//2 10//2 14//2
f 14//3 10//3 11//3 12//3 15//3
f 9//4 4//4 6//4 11//4 10//4
f 12//5 13//5 16//5 17//5 20//5 15//5
f 20//6 17//6 21//6
f 21//7 17//7 16//7 19//7
f 19//8 16//8 13//8 18//8
f 18//9 13//9 7//9
f 7//10 13//10 12//10 11//10 6//10
f 4//11 3//11 8//11 9//11
f 3//12 8//12 5//12 2//12
f 22//13 23//13 24//13 25//13 26//13 27//13 28//13 29//13 30//13 31//13 32//13 33//13
f 1//14 22//14 23//14 2//14
f 2//15 23//15 24//15 3//15
f 3//16 24//16 25//16 4//16
f 4//17 25//17 26//17 6//17
f 6//18 26//18 27//18 7//18
f 7//19 27//19 28//19 18//19
f 18//20 28//20 29//20 19//20
f 19//21 29//21 30//21 21//21
f 21//22 30//22 31//22 20//22
f 20//23 31//23 32//23 15//23
f 15//24 32//24 33//24 14//24
f 14//23 33//23 22//23 1//23
