# Blender v2.92.0 OBJ File: ''
# www.blender.org
mtllib CG10_500_045073_0046.mtl
o CG10_500_045073_0046
v 427.306702 75.000000 -170.242264
v 382.120209 75.000000 -59.418186
v 354.947205 118.505440 -136.546234
v 293.406281 75.000000 -14.594099
v 320.893585 75.000000 -83.245262
v 292.042297 118.895370 -161.622955
v 248.196136 145.000000 -141.578796
v 158.087387 75.000000 -69.881851
v 139.930649 75.000000 -25.944162
v 171.844467 144.976486 -172.737625
v 127.093025 121.565353 -154.730286
v 108.546974 121.430824 -109.388680
v 62.573437 75.000000 -179.148499
v 111.326874 75.000000 -299.051025
v 20.344036 75.000000 -74.695084
v 62.744980 75.000000 -179.570419
v 427.306702 0.000000 -170.242264
v 382.120209 0.000000 -59.418186
v 320.893585 0.000000 -83.245262
v 293.406281 0.000000 -14.594099
v 158.087387 0.000000 -69.881851
v 139.930649 0.000000 -25.944162
v 20.344036 0.000000 -74.695084
v 62.573437 0.000000 -179.148499
v 62.744980 0.000000 -179.570419
v 111.326874 0.000000 -299.051025
vn -0.5605 -0.7951 -0.2316
vn 0.2162 -0.8204 -0.5293
vn -0.5732 -0.7866 -0.2295
vn 0.2083 -0.8187 -0.5352
vn -0.5791 -0.7803 -0.2361
vn -0.2252 -0.8025 0.5525
vn -0.2185 0.8155 0.5359
vn 0.5188 -0.8288 0.2097
vn 0.5184 -0.8288 0.2108
vn 0.0000 -1.0000 0.0000
vn -0.9260 0.0000 -0.3776
vn 0.3627 0.0000 -0.9319
vn -0.9284 0.0000 -0.3717
vn 0.3782 0.0000 -0.9257
vn -0.9242 0.0000 -0.3819
vn 0.3775 0.0000 -0.9260
vn 0.9271 0.0000 0.3748
vn 0.9264 0.0000 0.3766
vn 0.9264 0.0000 0.3767
vn -0.3775 0.0000 0.9260
usemtl None
s off
f 9//1 12//1 11//1 8//1
f 8//2 11//2 10//2 7//2 4//2
f 4//3 7//3 6//3 5//3
f 5//4 6//4 3//4 2//4
f 2//5 3//5 1//5
f 1//6 3//6 6//6 7//6 10//6 14//6
f 15//7 9//7 12//7
f 15//8 13//8 11//8 12//8
f 11//9 13//9 16//9 14//9 10//9
f 17//10 18//10 19//10 20//10 21//10 22//10 23//10 24//10 25//10 26//10
f 1//11 17//11 18//11 2//11
f 2//12 18//12 19//12 5//12
f 5//13 19//13 20//13 4//13
f 4//14 20//14 21//14 8//14
f 8//15 21//15 22//15 9//15
f 9//16 22//16 23//16 15//16
f 15//17 23//17 24//17 13//17
f 13//18 24//18 25//18 16//18
f 16//19 25//19 26//19 14//19
f 14//20 26//20 17//20 1//20
