# Blender v2.92.0 OBJ File: ''
# www.blender.org
mtllib CG10_500_042067_0003.mtl
o CG10_500_042067_0003
v 211.803009 75.000000 -297.147339
v 199.957138 75.000000 -14.556431
v 113.684769 145.000000 -248.971909
v 106.219269 144.982346 -70.299103
v 23.316959 75.000000 -305.000549
v 11.546309 75.000000 -22.406492
v 211.803009 0.000000 -297.147339
v 199.957138 0.000000 -14.556431
v 11.546309 0.000000 -22.406492
v 23.316959 0.000000 -305.000549
vn 0.0335 -0.5949 -0.8031
vn 0.6024 -0.7978 0.0251
vn -0.0334 -0.5979 0.8009
vn -0.5886 -0.8080 -0.0247
vn 0.0000 -1.0000 0.0000
vn -0.9991 0.0000 -0.0419
vn 0.0416 0.0000 -0.9991
vn 0.9991 0.0000 0.0416
vn -0.0416 0.0000 0.9991
usemtl None
s off
f 6//1 4//1 2//1
f 6//2 5//2 3//2 4//2
f 3//3 5//3 1//3
f 2//4 4//4 3//4 1//4
f 7//5 8//5 9//5 10//5
f 1//6 7//6 8//6 2//6
f 2//7 8//7 9//7 6//7
f 6//8 9//8 10//8 5//8
f 5//9 10//9 7//9 1//9
