# Blender v2.92.0 OBJ File: ''
# www.blender.org
mtllib CG10_500_035063_0042_roof.mtl
o CG10_500_035063_0042_roof
v 27.998674 75.000000 -262.898804
v 13.724041 75.000000 -21.051111
v 88.301323 122.694244 -122.704781
v 82.581932 123.055855 -16.995125
v 122.283752 75.000000 -257.352203
v 124.444565 75.000000 -295.346130
v 122.215767 145.000000 -153.913574
v 151.111710 75.000000 -12.962288
v 152.874039 75.000000 -48.772930
v 195.340134 144.844223 -149.842026
v 207.436111 138.638275 -197.036499
v 205.202362 138.609024 -158.475922
v 308.056305 75.000000 -284.534119
v 293.693848 75.000000 -41.375858
v 27.998674 0.000000 -262.898804
v 13.724041 0.000000 -21.051111
v 151.111710 0.000000 -12.962288
v 152.874039 0.000000 -48.772930
v 293.693848 0.000000 -41.375858
v 308.056305 0.000000 -284.534119
v 124.444565 0.000000 -295.346130
v 122.283752 0.000000 -257.352203
vt 0.386470 0.044187
vt 0.644210 0.362340
vt 0.956700 0.079178
vt 0.379760 0.167140
vt 0.637270 0.487130
vt 0.086952 0.149190
vt 0.379550 0.501900
vt 0.606650 0.515070
vt 0.042621 0.931870
vt 0.256470 0.945000
vt 0.274230 0.602900
vt 0.474760 0.842160
vt 0.469290 0.958050
vt 0.912090 0.866100
vn 0.0331 0.8260 -0.5627
vn -0.5831 0.8117 -0.0332
vn 0.0330 0.8277 -0.5601
vn -0.5706 0.8205 -0.0337
vn -0.5728 -0.8192 -0.0282
vn 0.0294 -0.8281 -0.5599
vn -0.5544 -0.8316 -0.0327
vn 0.0588 0.0000 -0.9983
usemtl None
s off
f 6/1/1 11/2/1 13/3/1
f 11/2/2 6/1/2 5/4/2 12/5/2
f 12/5/3 5/4/3 1/6/3 7/7/3 10/8/3
f 7/7/4 1/6/4 2/9/4 4/10/4 3/11/4
f 4/10/5 3/11/5 9/12/5 8/13/5
f 9/12/6 3/11/6 7/7/6 10/8/6 14/14/6
f 14/14/7 10/8/7 12/5/7 11/2/7 13/3/7
f 2/9/8 4/10/8 8/13/8
