# Blender v2.92.0 OBJ File: ''
# www.blender.org
mtllib CG10_500_048071_0026.mtl
o CG10_500_048071_0026
v 270.861511 75.000000 -289.428162
v 383.476379 75.000000 -281.825684
v 148.417023 75.000000 -294.731812
v 32.133942 75.000000 -302.582336
v 268.009003 75.000000 -245.920837
v 145.817764 75.000000 -254.150467
v 323.268677 117.025894 -232.695877
v 84.550346 117.697289 -244.908966
v 320.304291 116.996315 -188.085037
v 81.807411 117.746567 -203.177612
v 280.298553 144.884689 -154.711487
v 115.218445 145.000000 -165.680603
v 323.353546 110.500664 -102.777191
v 321.283569 110.259888 -67.200775
v 273.483215 75.000000 -55.329735
v 16.628649 75.000000 -72.140755
v 365.416138 75.000000 -13.658637
v 271.747253 75.000000 -19.988928
v 270.861511 0.000000 -289.428162
v 383.476379 0.000000 -281.825684
v 365.416138 0.000000 -13.658637
v 271.747253 0.000000 -19.988928
v 273.483215 0.000000 -55.329735
v 16.628649 0.000000 -72.140755
v 32.133942 0.000000 -302.582336
v 148.417023 0.000000 -294.731812
v 145.817764 0.000000 -254.150467
v 268.009003 0.000000 -245.920837
vn -0.0386 0.8196 0.5716
vn 0.5981 -0.8009 0.0294
vn -0.0375 0.8186 0.5731
vn 0.6038 -0.7961 0.0406
vn -0.0418 -0.7845 0.6187
vn 0.5751 0.8173 0.0368
vn -0.0412 -0.7904 0.6112
vn -0.5989 0.7999 -0.0393
vn 0.0418 0.7840 -0.6194
vn 0.5936 0.8037 0.0400
vn 0.0000 -1.0000 0.0000
vn -0.0674 0.0000 0.9977
vn -0.9977 0.0000 -0.0672
vn 0.0674 0.0000 -0.9977
vn 0.9988 0.0000 0.0491
vn 0.0653 0.0000 -0.9979
vn 0.9977 0.0000 0.0671
vn -0.9980 0.0000 -0.0639
vn -0.0672 0.0000 0.9977
vn 0.9979 0.0000 0.0654
usemtl None
s off
f 17//1 14//1 18//1
f 15//2 13//2 14//2 18//2
f 16//3 15//3 13//3 11//3 12//3
f 16//4 4//4 8//4 10//4 12//4
f 4//5 3//5 8//5
f 3//6 8//6 10//6 6//6
f 6//7 5//7 9//7 11//7 12//7 10//7
f 9//8 7//8 1//8 5//8
f 7//9 2//9 1//9
f 17//10 2//10 7//10 9//10 11//10 13//10 14//10
f 19//11 20//11 21//11 22//11 23//11 24//11 25//11 26//11 27//11 28//11
f 1//12 19//12 20//12 2//12
f 2//13 20//13 21//13 17//13
f 17//14 21//14 22//14 18//14
f 18//15 22//15 23//15 15//15
f 15//16 23//16 24//16 16//16
f 16//17 24//17 25//17 4//17
f 4//12 25//12 26//12 3//12
f 3//18 26//18 27//18 6//18
f 6//19 27//19 28//19 5//19
f 5//20 28//20 19//20 1//20
