# Blender v2.92.0 OBJ File: ''
# www.blender.org
mtllib CG10_500_040072_0008.mtl
o CG10_500_040072_0008
v 81.749878 75.000000 -19.151808
v 172.403946 75.000000 -13.005770
v 75.298698 75.000000 -26.541342
v 179.628586 75.000000 -29.325600
v 78.367233 75.000000 -71.802101
v 13.394388 75.000000 -76.206467
v 182.031921 75.000000 -64.774887
v 328.994171 75.000000 -54.812637
v 20.335693 144.857071 -178.667831
v 335.960297 145.000000 -157.482910
v 27.101580 75.000000 -278.383179
v 342.728760 75.000000 -257.403015
v 81.749878 0.000000 -19.151808
v 172.403946 0.000000 -13.005770
v 179.628586 0.000000 -29.325600
v 182.031921 0.000000 -64.774887
v 328.994171 0.000000 -54.812637
v 342.728760 0.000000 -257.403015
v 27.101580 0.000000 -278.383179
v 13.394388 0.000000 -76.206467
v 78.367233 0.000000 -71.802101
v 75.298698 0.000000 -26.541342
vn -0.0380 0.8268 0.5612
vn 0.0380 0.8196 -0.5716
vn 0.0000 1.0000 -0.0000
vn -0.9977 0.0001 -0.0676
vn 0.9977 0.0001 0.0676
vn -0.0676 0.0000 0.9977
vn 0.9144 0.0000 0.4048
vn 0.9977 0.0000 0.0676
vn 0.0663 0.0000 -0.9978
vn -0.9977 0.0000 -0.0676
vn -0.7533 0.0000 0.6577
usemtl None
s off
f 6//1 5//1 7//1 8//1 10//1 9//1
f 10//2 12//2 11//2 9//2
f 5//3 3//3 1//3 2//3 4//3 7//3
f 8//4 10//4 12//4
f 11//5 9//5 6//5
f 13//3 14//3 15//3 16//3 17//3 18//3 19//3 20//3 21//3 22//3
f 1//6 13//6 14//6 2//6
f 2//7 14//7 15//7 4//7
f 4//8 15//8 16//8 7//8
f 7//6 16//6 17//6 8//6
f 8//8 17//8 18//8 12//8
f 12//9 18//9 19//9 11//9
f 11//10 19//10 20//10 6//10
f 6//6 20//6 21//6 5//6
f 5//10 21//10 22//10 3//10
f 3//11 22//11 13//11 1//11
