# Blender v2.92.0 OBJ File: ''
# www.blender.org
mtllib CG10_500_044070_0017.mtl
o CG10_500_044070_0017
v 74.450432 75.000000 -71.900093
v 211.959320 75.000000 -14.947152
v 93.649780 75.000000 -116.616798
v 26.983200 75.000000 -145.218124
v 165.170013 130.565826 -111.419365
v 185.019470 130.339600 -158.349579
v 260.514191 75.000000 -131.828171
v 338.941376 75.000000 -98.955429
v 144.189377 144.854965 -197.094727
v 173.127167 145.000000 -184.891953
v 558.461304 75.000000 -56.384537
v 356.031372 75.000000 -140.220184
v 227.059296 116.085976 -205.908859
v 305.194244 116.217247 -173.350510
v 379.330414 75.000000 -196.477112
v 581.759949 75.000000 -112.641624
v 382.147919 75.000000 -203.280121
v 99.504951 75.000000 -320.343689
v 74.450432 0.000000 -71.900093
v 211.959320 0.000000 -14.947152
v 260.514191 0.000000 -131.828171
v 338.941376 0.000000 -98.955429
v 356.031372 0.000000 -140.220184
v 558.461304 0.000000 -56.384537
v 581.759949 0.000000 -112.641624
v 379.330414 0.000000 -196.477112
v 382.147919 0.000000 -203.280121
v 99.504951 0.000000 -320.343689
v 26.983200 0.000000 -145.218124
v 93.649780 0.000000 -116.616798
vn 0.2354 -0.7884 -0.5683
vn 0.5258 0.8221 0.2184
vn -0.2303 0.8032 0.5494
vn 0.5252 0.8227 0.2175
vn 0.2240 0.8108 -0.5408
vn -0.5727 0.7847 -0.2371
vn -0.2354 0.8023 0.5486
vn -0.5826 0.7733 -0.2501
vn 0.0000 1.0000 -0.0000
vn -0.3827 0.0000 0.9239
vn 0.9235 0.0000 0.3836
vn -0.3866 0.0000 0.9223
vn 0.9239 0.0000 0.3826
vn -0.3826 0.0000 0.9239
vn 0.3826 0.0000 -0.9239
vn 0.3827 0.0000 -0.9239
vn -0.9239 0.0000 -0.3826
vn -0.3943 0.0000 0.9190
vn -0.9189 0.0000 -0.3945
usemtl None
s off
f 1//1 5//1 2//1
f 2//2 7//2 13//2 10//2 6//2 5//2
f 7//3 8//3 14//3 13//3
f 8//4 12//4 15//4 17//4 14//4
f 17//5 18//5 9//5 10//5 13//5 14//5
f 18//6 4//6 9//6
f 4//7 3//7 6//7 10//7 9//7
f 3//8 1//8 5//8 6//8
f 12//9 11//9 16//9 15//9
f 19//9 20//9 21//9 22//9 23//9 24//9 25//9 26//9 27//9 28//9 29//9 30//9
f 1//10 19//10 20//10 2//10
f 2//11 20//11 21//11 7//11
f 7//12 21//12 22//12 8//12
f 8//13 22//13 23//13 12//13
f 12//14 23//14 24//14 11//14
f 11//13 24//13 25//13 16//13
f 16//15 25//15 26//15 15//15
f 15//13 26//13 27//13 17//13
f 17//16 27//16 28//16 18//16
f 18//17 28//17 29//17 4//17
f 4//18 29//18 30//18 3//18
f 3//19 30//19 19//19 1//19
