# Blender v2.92.0 OBJ File: ''
# www.blender.org
mtllib CG10_500_043070_0033_roof.mtl
o CG10_500_043070_0033_roof
v 72.633537 75.000000 -126.852821
v 340.163239 75.000000 -13.239610
v 18.733690 75.000000 -160.285873
v 76.424561 75.000000 -135.776108
v 180.443100 145.000000 -171.611435
v 293.170563 144.991577 -123.727982
v 121.645378 75.000000 -242.216461
v 63.954506 75.000000 -266.726227
v 138.908386 75.000000 -282.849976
v 406.419159 75.000000 -169.192230
v 72.633537 0.000000 -126.852821
v 340.163239 0.000000 -13.239610
v 406.419159 0.000000 -169.192230
v 138.908386 0.000000 -282.849976
v 121.645378 0.000000 -242.216461
v 63.954506 0.000000 -266.726227
v 18.733690 0.000000 -160.285873
v 76.424561 0.000000 -135.776108
vt 0.285550 0.184460
vt 0.150130 0.101930
vt 0.043976 0.460320
vt 0.179400 0.542840
vt 0.326080 0.047643
vt 0.423580 0.422180
vt 0.170500 0.572890
vt 0.954040 0.430330
vt 0.688190 0.583410
vt 0.798510 0.955420
vn 0.0000 1.0000 0.0000
vn 0.5987 -0.7595 0.2544
vn -0.2466 -0.7761 0.5804
vn -0.5791 -0.7772 -0.2460
vn 0.2514 -0.7657 -0.5920
usemtl None
s off
f 7/1/1 8/2/1 3/3/1 4/4/1
f 7/1/2 9/5/2 5/6/2 1/7/2 4/4/2
f 9/5/3 10/8/3 6/9/3 5/6/3
f 10/8/4 2/10/4 6/9/4
f 2/10/5 1/7/5 5/6/5 6/9/5
