# Blender v2.92.0 OBJ File: ''
# www.blender.org
mtllib CG10_500_037056_0017_roof.mtl
o CG10_500_037056_0017_roof
v 27.856150 75.000000 -380.483582
v 18.339308 75.000000 -225.987854
v 93.728615 129.889206 -300.815582
v 191.913010 75.000000 -216.257935
v 182.695892 75.000000 -71.980186
v 266.466553 129.535339 -290.622833
v 264.426819 75.000000 -25.442648
v 267.214325 75.000000 -66.783447
v 278.230652 145.000000 -164.927689
v 284.724640 144.913406 -268.314819
v 318.708862 115.327888 -80.113983
v 321.309998 115.243042 -120.269882
v 397.887238 75.000000 -357.605133
v 377.024872 75.000000 -18.503519
v 27.856150 0.000000 -380.483582
v 18.339308 0.000000 -225.987854
v 191.913010 0.000000 -216.257935
v 182.695892 0.000000 -71.980186
v 267.214325 0.000000 -66.783447
v 264.426819 0.000000 -25.442648
v 377.024872 0.000000 -18.503519
v 397.887238 0.000000 -357.605133
vt 0.044191 0.435030
vt 0.225850 0.247960
vt 0.067123 0.048791
vt 0.462440 0.459360
vt 0.642090 0.273440
vt 0.686080 0.329210
vt 0.958760 0.105990
vt 0.440230 0.820050
vt 0.643890 0.833040
vt 0.774240 0.699330
vt 0.670440 0.587680
vt 0.637170 0.936390
vt 0.767970 0.799720
vt 0.908490 0.953740
vn -0.6124 0.7897 -0.0377
vn -0.0320 0.8210 0.5700
vn 0.0363 0.8087 -0.5872
vn -0.0355 0.8155 0.5777
vn -0.6227 0.7813 -0.0420
vn -0.0352 0.8206 0.5704
vn 0.5443 0.8382 0.0335
vn -0.6152 0.7874 -0.0393
usemtl None
s off
f 2/1/1 3/2/1 1/3/1
f 2/1/2 4/4/2 6/5/2 3/2/2
f 6/5/3 10/6/3 13/7/3 1/3/3 3/2/3
f 5/8/4 8/9/4 12/10/4 9/11/4
f 8/9/5 7/12/5 11/13/5 12/10/5
f 7/12/6 14/14/6 11/13/6
f 14/14/7 13/7/7 10/6/7 9/11/7 12/10/7 11/13/7
f 4/4/8 5/8/8 9/11/8 10/6/8 6/5/8
