# Blender v2.92.0 OBJ File: ''
# www.blender.org
mtllib CG10_500_041070_0035_roof.mtl
o CG10_500_041070_0035_roof
v 12.227784 75.000000 -25.805998
v 32.325909 75.000000 -355.867920
v 72.393326 111.953575 -209.836456
v 78.145943 112.010956 -303.060516
v 89.244118 127.947639 -138.568863
v 86.924301 128.032272 -98.630066
v 113.263680 145.000000 -162.003952
v 136.194153 75.000000 -349.542084
v 130.397446 75.000000 -256.978699
v 146.467133 144.987381 -159.989609
v 162.818359 75.000000 -16.635836
v 165.020294 75.000000 -56.764549
v 256.167419 75.000000 -249.283081
v 244.153168 75.000000 -52.007713
v 12.227784 0.000000 -25.805998
v 32.325909 0.000000 -355.867920
v 136.194153 0.000000 -349.542084
v 130.397446 0.000000 -256.978699
v 256.167419 0.000000 -249.283081
v 244.153168 0.000000 -52.007713
v 165.020294 0.000000 -56.764549
v 162.818359 0.000000 -16.635836
vt 0.045626 0.930820
vt 0.607530 0.955400
vt 0.324340 0.735580
vt 0.615750 0.847820
vt 0.333000 0.628500
vt 0.911020 0.860570
vt 0.422630 0.565670
vt 0.546520 0.571070
vt 0.955850 0.331680
vt 0.486560 0.311050
vt 0.270120 0.437440
vt 0.508190 0.062890
vt 0.291590 0.187510
vt 0.120620 0.045930
vn -0.0344 0.8244 0.5650
vn -0.5504 -0.8344 -0.0302
vn 0.0340 -0.8244 -0.5650
vn 0.5570 0.8298 0.0339
vn -0.0360 -0.8076 0.5887
vn -0.5570 -0.8298 -0.0349
vn -0.0362 -0.8033 0.5944
vn 0.6020 -0.7976 0.0367
usemtl None
s off
f 1/1/1 11/2/1 6/3/1
f 12/4/2 11/2/2 6/3/2 5/5/2
f 14/6/3 12/4/3 5/5/3 7/7/3 10/8/3
f 13/9/4 10/8/4 14/6/4
f 9/10/5 13/9/5 10/8/5 7/7/5 3/11/5
f 8/12/6 9/10/6 3/11/6 4/13/6
f 2/14/7 8/12/7 4/13/7
f 2/14/8 4/13/8 3/11/8 7/7/8 5/5/8 6/3/8 1/1/8
