# Blender v2.92.0 OBJ File: ''
# www.blender.org
mtllib CG10_500_042068_0042.mtl
o CG10_500_042068_0042
v 29.236555 75.000000 -263.690125
v 11.548111 75.000000 -18.855099
v 60.602856 75.000000 -261.416931
v 69.767540 75.000000 -270.861176
v 61.483963 108.925110 -102.461868
v 58.171021 108.980827 -55.607677
v 86.066513 122.535599 -198.964767
v 84.583061 122.825218 -173.244690
v 107.198601 75.000000 -268.151123
v 96.654228 75.000000 -58.385517
v 93.500526 75.000000 -12.921833
v 116.524765 75.000000 -257.364136
v 110.980545 144.913406 -143.037735
v 146.245636 75.000000 -255.210190
v 145.172165 75.000000 -230.817612
v 157.309158 145.000000 -139.844986
v 246.162964 75.000000 -224.100906
v 233.461121 75.000000 -48.644146
v 29.236555 0.000000 -263.690125
v 11.548111 0.000000 -18.855099
v 93.500526 0.000000 -12.921833
v 96.654228 0.000000 -58.385517
v 233.461121 0.000000 -48.644146
v 246.162964 0.000000 -224.100906
v 145.172165 0.000000 -230.817612
v 146.245636 0.000000 -255.210190
v 116.524765 0.000000 -257.364136
v 107.198601 0.000000 -268.151123
v 69.767540 0.000000 -270.861176
v 60.602856 0.000000 -261.416931
vn -0.0467 0.7623 0.6455
vn 0.6631 0.7472 0.0460
vn -0.0450 0.7740 0.6316
vn 0.6451 0.7627 0.0467
vn 0.0408 0.7892 -0.6127
vn 0.6356 0.7715 0.0280
vn 0.0447 0.7861 -0.6165
vn 0.0000 1.0000 0.0000
vn -0.6109 0.7905 -0.0441
vn -0.9974 0.0000 -0.0721
vn -0.0722 0.0000 0.9974
vn 0.9976 0.0000 0.0692
vn -0.0710 0.0000 0.9975
vn 0.9974 0.0000 0.0722
vn 0.0664 0.0000 -0.9978
vn 0.9990 0.0000 0.0440
vn 0.0723 0.0000 -0.9974
vn 0.7565 0.0000 -0.6540
vn 0.0722 0.0000 -0.9974
vn -0.7176 0.0000 -0.6964
usemtl None
s off
f 2//1 11//1 6//1
f 11//2 10//2 5//2 6//2
f 10//3 18//3 16//3 13//3 5//3
f 16//4 18//4 17//4
f 8//5 13//5 16//5 17//5 15//5
f 7//6 8//6 15//6 14//6
f 1//7 7//7 14//7 12//7 3//7
f 3//8 12//8 9//8 4//8
f 2//9 6//9 5//9 13//9 8//9 7//9 1//9
f 19//8 20//8 21//8 22//8 23//8 24//8 25//8 26//8 27//8 28//8 29//8 30//8
f 1//10 19//10 20//10 2//10
f 2//11 20//11 21//11 11//11
f 11//12 21//12 22//12 10//12
f 10//13 22//13 23//13 18//13
f 18//14 23//14 24//14 17//14
f 17//15 24//15 25//15 15//15
f 15//16 25//16 26//16 14//16
f 14//17 26//17 27//17 12//17
f 12//18 27//18 28//18 9//18
f 9//19 28//19 29//19 4//19
f 4//20 29//20 30//20 3//20
f 3//17 30//17 19//17 1//17
