# Blender v2.92.0 OBJ File: ''
# www.blender.org
mtllib CG10_500_038067_0001_roof.mtl
o CG10_500_038067_0001_roof
v 300.462891 75.000000 -7.511009
v 16.228481 75.000000 -19.561258
v 303.120697 144.656830 -67.617706
v 18.885748 145.000000 -79.964653
v 305.919281 75.000000 -131.217880
v 21.710871 75.000000 -143.877594
v 300.462891 0.000000 -7.511009
v 16.228481 0.000000 -19.561258
v 21.710871 0.000000 -143.877594
v 305.919281 0.000000 -131.217880
vt 0.058651 0.477360
vt 0.941370 0.558050
vt 0.950060 0.142370
vt 0.067425 0.059624
vt 0.050399 0.872150
vt 0.933110 0.950910
vn 0.0328 0.6746 -0.7374
vn 0.0321 -0.6537 -0.7561
vn -0.9990 -0.0001 -0.0441
vn 0.9990 -0.0001 0.0441
usemtl None
s off
f 4/1/1 3/2/1 5/3/1 6/4/1
f 2/5/2 4/1/2 3/2/2 1/6/2
f 2/5/3 4/1/3 6/4/3
f 5/3/4 3/2/4 1/6/4
