# Blender v2.92.0 OBJ File: ''
# www.blender.org
mtllib CG10_500_048075_0033_roof.mtl
o CG10_500_048075_0033_roof
v 19.519821 75.000000 -26.351879
v 273.946472 75.000000 -11.247460
v 399.388184 75.000000 -28.353794
v 276.352234 75.000000 -36.125435
v 81.933807 117.420097 -77.678650
v 91.453438 117.929329 -77.774124
v 185.268631 144.996948 -107.319786
v 131.621735 145.000000 -110.508560
v 329.637787 130.233215 -105.860474
v 244.661209 130.094696 -111.044746
v 238.184158 135.171570 -118.173065
v 200.364639 135.121429 -120.495590
v 248.291779 128.142502 -127.589073
v 26.265699 75.000000 -140.844818
v 35.007996 75.000000 -141.688049
v 250.139343 128.122803 -158.392685
v 408.311005 75.000000 -179.426529
v 323.858612 75.000000 -184.383942
v 39.646393 75.000000 -215.745117
v 177.773941 75.000000 -207.523636
v 326.563538 75.000000 -230.144669
v 179.679398 75.000000 -238.818909
v 19.519821 0.000000 -26.351879
v 273.946472 0.000000 -11.247460
v 276.352234 0.000000 -36.125435
v 399.388184 0.000000 -28.353794
v 408.311005 0.000000 -179.426529
v 323.858612 0.000000 -184.383942
v 326.563538 0.000000 -230.144669
v 179.679398 0.000000 -238.818909
v 177.773941 0.000000 -207.523636
v 39.646393 0.000000 -215.745117
v 35.007996 0.000000 -141.688049
v 26.265699 0.000000 -140.844818
vt 0.045607 0.895010
vt 0.061368 0.438870
vt 0.191430 0.690520
vt 0.081794 0.435510
vt 0.213680 0.690140
vt 0.307530 0.559730
vt 0.092632 0.140460
vt 0.415360 0.173210
vt 0.580120 0.491680
vt 0.556510 0.529190
vt 0.468140 0.519940
vt 0.432870 0.572430
vt 0.584440 0.368950
vt 0.419810 0.048530
vt 0.763000 0.083089
vt 0.571640 0.557590
vt 0.756680 0.265400
vt 0.770180 0.578250
vt 0.954000 0.285150
vt 0.933150 0.887040
vt 0.645680 0.856070
vt 0.640060 0.955190
vn 0.5809 -0.8133 0.0342
vn 0.0507 -0.8492 0.5256
vn -0.5786 0.8148 -0.0362
vn -0.0342 -0.8181 0.5740
vn -0.5758 0.8168 -0.0351
vn 0.0337 0.8201 -0.5712
vn 0.5924 0.8049 0.0350
vn -0.0339 -0.8163 0.5767
vn -0.5961 -0.8022 -0.0352
vn -0.0381 0.7973 0.6024
vn 0.5804 0.8124 0.0561
vn -0.0362 0.7915 0.6101
usemtl None
s off
f 1/1/1 14/2/1 5/3/1
f 15/4/2 6/5/2 5/3/2 14/2/2
f 6/5/3 8/6/3 19/7/3 15/4/3
f 19/7/4 20/8/4 13/9/4 11/10/4 12/11/4 7/12/4 8/6/4
f 13/9/5 16/13/5 22/14/5 20/8/5
f 16/13/6 21/15/6 22/14/6
f 10/16/7 18/17/7 21/15/7 16/13/7 13/9/7 11/10/7
f 9/18/8 10/16/8 18/17/8 17/19/8
f 3/20/9 9/18/9 17/19/9
f 4/21/10 3/20/10 9/18/10 10/16/10 11/10/10 12/11/10
f 2/22/11 4/21/11 12/11/11 7/12/11
f 1/1/12 2/22/12 7/12/12 8/6/12 6/5/12 5/3/12
