# Blender v2.92.0 OBJ File: ''
# www.blender.org
mtllib CG10_500_044068_0049_roof.mtl
o CG10_500_044068_0049_roof
v 340.608032 111.047249 -203.350250
v 320.120148 75.000000 -155.406509
v 382.972137 75.000000 -302.502472
v 345.245331 75.000000 -318.066315
v 372.772095 75.000000 -382.749390
v 256.062469 110.853111 -238.856934
v 135.618500 75.000000 -21.063133
v 212.408524 75.000000 -201.030807
v 293.031525 75.000000 -416.964020
v 298.839935 75.000000 -431.794708
v 230.637253 145.000000 -303.263428
v 238.102890 144.995834 -320.791260
v 78.342133 120.037544 -45.528568
v 180.259491 120.552895 -286.201538
v 212.890411 116.145653 -380.963043
v 243.322235 115.377609 -455.517120
v 17.786459 75.000000 -71.418854
v 91.633278 75.000000 -247.214478
v 84.604111 75.000000 -250.222198
v 183.106125 75.000000 -481.258514
v 320.120148 0.000000 -155.406509
v 382.972137 0.000000 -302.502472
v 345.245331 0.000000 -318.066315
v 372.772095 0.000000 -382.749390
v 293.031525 0.000000 -416.964020
v 298.839935 0.000000 -431.794708
v 183.106125 0.000000 -481.258514
v 84.604111 0.000000 -250.222198
v 91.633278 0.000000 -247.214478
v 17.786459 0.000000 -71.418854
v 135.618500 0.000000 -21.063133
v 212.408524 0.000000 -201.030807
vt 0.449520 0.431010
vt 0.210980 0.502540
vt 0.228510 0.508520
vt 0.456620 0.043224
vt 0.606790 0.094399
vt 0.530900 0.242620
vt 0.593770 0.362240
vt 0.575160 0.397090
vt 0.529700 0.600340
vt 0.798300 0.691040
vt 0.849400 0.595730
vt 0.638560 0.525140
vt 0.955040 0.398600
vt 0.860960 0.367660
vt 0.929610 0.239070
vt 0.730750 0.171050
vt 0.745240 0.141560
vt 0.195370 0.909490
vt 0.338200 0.958120
vt 0.044355 0.858010
vn -0.2131 0.8407 0.4979
vn 0.4828 -0.8512 0.2058
vn -0.2218 0.8225 0.5237
vn 0.1209 0.9484 -0.2931
vn 0.5289 0.8183 0.2251
vn 0.2116 0.8438 -0.4932
vn 0.5178 0.8311 0.2028
vn 0.5390 0.8103 0.2300
vn -0.5204 0.8254 -0.2186
vn -0.3930 -0.0002 0.9196
vn 0.3930 0.0001 -0.9195
vn 0.9196 -0.0001 0.3929
usemtl None
s off
f 14/1/1 19/2/1 18/3/1
f 19/2/2 20/4/2 16/5/2 15/6/2 12/7/2 11/8/2 14/1/2
f 8/9/3 2/10/3 1/11/3 6/12/3 11/8/3 14/1/3
f 1/11/4 3/13/4 4/14/4 6/12/4
f 4/14/5 5/15/5 12/7/5 11/8/5 6/12/5
f 5/15/6 9/16/6 15/6/6 12/7/6
f 9/16/7 10/17/7 16/5/7 15/6/7
f 13/18/8 7/19/8 8/9/8 14/1/8
f 18/3/9 17/20/9 13/18/9 14/1/9
f 7/19/10 13/18/10 17/20/10
f 20/4/11 16/5/11 10/17/11
f 3/13/12 1/11/12 2/10/12
