# Blender v2.92.0 OBJ File: ''
# www.blender.org
mtllib CG10_500_049064_0015.mtl
o CG10_500_049064_0015
v 266.889587 75.000000 -8.824460
v 276.455811 75.000000 -168.143921
v 194.965286 144.999405 -96.845055
v 100.087341 145.000000 -102.542397
v 12.006343 75.000000 -24.128111
v 21.572817 75.000000 -183.451126
v 266.889587 0.000000 -8.824460
v 276.455811 0.000000 -168.143921
v 21.572817 0.000000 -183.451126
v 12.006343 0.000000 -24.128111
vn 0.0385 -0.7665 -0.6410
vn 0.6711 0.7402 0.0403
vn 0.0406 0.7358 -0.6760
vn -0.6425 0.7653 -0.0386
vn 0.0000 1.0000 0.0000
vn 0.9982 0.0000 0.0599
vn 0.0599 0.0000 -0.9982
vn -0.9982 0.0000 -0.0599
vn -0.0599 0.0000 0.9982
usemtl None
s off
f 5//1 4//1 3//1 1//1
f 1//2 2//2 3//2
f 2//3 6//3 4//3 3//3
f 6//4 5//4 4//4
f 7//5 8//5 9//5 10//5
f 1//6 7//6 8//6 2//6
f 2//7 8//7 9//7 6//7
f 6//8 9//8 10//8 5//8
f 5//9 10//9 7//9 1//9
