# Blender v2.92.0 OBJ File: ''
# www.blender.org
mtllib CG10_500_042069_0016.mtl
o CG10_500_042069_0016
v 41.311111 75.000000 -329.655670
v 15.539257 75.000000 -24.598316
v 83.050438 115.789719 -134.401428
v 78.035690 115.934860 -72.589729
v 113.251289 130.062317 -250.688065
v 108.551208 130.242401 -192.010574
v 127.711197 145.000000 -169.411713
v 121.607307 75.000000 -15.630392
v 126.426361 75.000000 -77.118462
v 184.716110 75.000000 -317.527008
v 180.612320 75.000000 -263.813507
v 175.818115 144.831497 -165.370438
v 187.070679 134.403137 -150.712433
v 257.363678 134.144257 -144.790665
v 271.984192 75.000000 -255.684540
v 269.103729 75.000000 -229.604126
v 324.656891 75.000000 -61.382370
v 338.358795 75.000000 -223.399490
v 41.311111 0.000000 -329.655670
v 15.539257 0.000000 -24.598316
v 121.607307 0.000000 -15.630392
v 126.426361 0.000000 -77.118462
v 324.656891 0.000000 -61.382370
v 338.358795 0.000000 -223.399490
v 269.103729 0.000000 -229.604126
v 271.984192 0.000000 -255.684540
v 180.612320 0.000000 -263.813507
v 184.716110 0.000000 -317.527008
vn 0.0514 -0.7919 -0.6085
vn -0.5730 0.8181 -0.0484
vn -0.6478 -0.7601 -0.0508
vn 0.0479 -0.7962 -0.6032
vn -0.6217 -0.7815 -0.0526
vn -0.0508 -0.8225 0.5665
vn -0.6280 -0.7751 -0.0694
vn -0.0513 -0.8157 0.5762
vn -0.6378 -0.7687 -0.0487
vn -0.0509 -0.7969 0.6020
vn 0.0000 1.0000 0.0000
vn -0.9965 0.0000 -0.0842
vn -0.0842 0.0000 0.9964
vn 0.9969 0.0000 0.0781
vn -0.0791 0.0000 0.9969
vn 0.9964 0.0000 0.0843
vn 0.0892 0.0000 -0.9960
vn 0.9940 0.0000 0.1098
vn 0.0886 0.0000 -0.9961
vn 0.9971 0.0000 0.0762
vn 0.0843 0.0000 -0.9964
usemtl None
s off
f 2//1 4//1 8//1
f 2//2 4//2 3//2 7//2 6//2 5//2 1//2
f 8//3 4//3 3//3 9//3
f 9//4 3//4 7//4 12//4 13//4 14//4 17//4
f 17//5 14//5 18//5
f 18//6 14//6 13//6 16//6
f 16//7 13//7 12//7 15//7
f 15//8 12//8 7//8 6//8 11//8
f 11//9 6//9 5//9 10//9
f 10//10 5//10 1//10
f 19//11 20//11 21//11 22//11 23//11 24//11 25//11 26//11 27//11 28//11
f 1//12 19//12 20//12 2//12
f 2//13 20//13 21//13 8//13
f 8//14 21//14 22//14 9//14
f 9//15 22//15 23//15 17//15
f 17//16 23//16 24//16 18//16
f 18//17 24//17 25//17 16//17
f 16//18 25//18 26//18 15//18
f 15//19 26//19 27//19 11//19
f 11//20 27//20 28//20 10//20
f 10//21 28//21 19//21 1//21
