# Blender v2.92.0 OBJ File: ''
# www.blender.org
mtllib CG10_500_040070_0031.mtl
o CG10_500_040070_0031
v 32.576012 75.000000 -27.421251
v 239.535339 75.000000 -11.942966
v 14.742131 75.000000 -102.524727
v 38.130753 75.000000 -100.663345
v 135.761917 144.998459 -123.133423
v 137.241455 145.000000 -142.613968
v 249.198456 75.000000 -138.961533
v 324.739319 75.000000 -133.499191
v 114.134499 126.489998 -172.405884
v 89.613205 126.451553 -174.299332
v 198.522003 109.141678 -192.391800
v 275.678833 109.076057 -186.716934
v 26.298031 75.000000 -257.042358
v 332.266815 75.000000 -234.143890
v 32.576012 0.000000 -27.421251
v 239.535339 0.000000 -11.942966
v 249.198456 0.000000 -138.961533
v 324.739319 0.000000 -133.499191
v 332.266815 0.000000 -234.143890
v 26.298031 0.000000 -257.042358
v 14.742131 0.000000 -102.524727
v 38.130753 0.000000 -100.663345
vn 0.0412 0.8341 -0.5501
vn -0.5944 0.8029 -0.0445
vn 0.0439 -0.8331 -0.5514
vn 0.5889 -0.8070 0.0447
vn 0.0419 -0.8274 -0.5600
vn -0.5288 -0.8478 -0.0402
vn 0.0409 -0.8239 -0.5652
vn -0.5401 -0.8406 -0.0404
vn 0.0000 1.0000 0.0000
vn -0.0746 0.0000 0.9972
vn 0.9971 0.0000 0.0759
vn -0.0721 0.0000 0.9974
vn 0.9972 0.0000 0.0746
vn 0.0746 0.0000 -0.9972
vn -0.9972 0.0000 -0.0746
vn -0.0793 0.0000 0.9968
vn -0.9971 0.0000 -0.0756
usemtl None
s off
f 13//1 10//1 9//1 6//1 11//1 12//1 14//1
f 13//2 3//2 10//2
f 3//3 10//3 9//3 4//3
f 4//4 9//4 6//4 5//4 1//4
f 1//5 5//5 2//5
f 2//6 5//6 6//6 11//6 7//6
f 7//7 11//7 12//7 8//7
f 8//8 12//8 14//8
f 15//9 16//9 17//9 18//9 19//9 20//9 21//9 22//9
f 1//10 15//10 16//10 2//10
f 2//11 16//11 17//11 7//11
f 7//12 17//12 18//12 8//12
f 8//13 18//13 19//13 14//13
f 14//14 19//14 20//14 13//14
f 13//15 20//15 21//15 3//15
f 3//16 21//16 22//16 4//16
f 4//17 22//17 15//17 1//17
