# Blender v2.92.0 OBJ File: ''
# www.blender.org
mtllib CG10_500_043070_0028.mtl
o CG10_500_043070_0028
v 25.924326 75.000000 -152.878494
v 59.456318 75.000000 -295.046875
v 179.583740 75.000000 -45.324337
v 195.508377 75.000000 -112.880211
v 229.022095 75.000000 -255.052887
v 230.234055 75.000000 -260.194305
v 253.406174 125.508621 -94.751732
v 263.435486 125.918579 -135.157608
v 291.170227 144.950836 -153.432663
v 305.276825 75.000000 -15.691701
v 315.920197 75.000000 -56.190346
v 419.413391 145.000000 -123.052681
v 490.141235 75.000000 -14.831264
v 531.230957 75.000000 -189.042419
v 25.924326 0.000000 -152.878494
v 59.456318 0.000000 -295.046875
v 229.022095 0.000000 -255.052887
v 230.234055 0.000000 -260.194305
v 531.230957 0.000000 -189.042419
v 490.141235 0.000000 -14.831264
v 315.920197 0.000000 -56.190346
v 305.276825 0.000000 -15.691701
v 179.583740 0.000000 -45.324337
v 195.508377 0.000000 -112.880211
vn 0.0000 -1.0000 -0.0000
vn -0.6237 0.7677 -0.1470
vn -0.1407 0.7898 0.5969
vn 0.5645 0.8120 0.1484
vn -0.1428 0.7859 0.6017
vn 0.5826 0.8011 0.1374
vn 0.1413 0.7892 -0.5977
vn 0.9733 0.0000 0.2296
vn -0.2296 0.0000 0.9733
vn 0.9733 0.0000 0.2294
vn -0.2300 0.0000 0.9732
vn -0.9733 0.0000 -0.2296
vn 0.2310 0.0000 -0.9730
vn -0.9672 0.0000 -0.2542
vn 0.2295 0.0000 -0.9733
vn 0.2296 0.0000 -0.9733
usemtl None
s off
f 4//1 1//1 2//1 5//1
f 4//2 3//2 7//2 8//2 9//2 6//2 5//2
f 3//3 10//3 7//3
f 10//4 11//4 8//4 7//4
f 11//5 13//5 12//5 9//5 8//5
f 13//6 14//6 12//6
f 14//7 6//7 9//7 12//7
f 15//1 16//1 17//1 18//1 19//1 20//1 21//1 22//1 23//1 24//1
f 1//8 15//8 16//8 2//8
f 2//9 16//9 17//9 5//9
f 5//10 17//10 18//10 6//10
f 6//11 18//11 19//11 14//11
f 14//12 19//12 20//12 13//12
f 13//13 20//13 21//13 11//13
f 11//14 21//14 22//14 10//14
f 10//15 22//15 23//15 3//15
f 3//10 23//10 24//10 4//10
f 4//16 24//16 15//16 1//16
