# Blender v2.92.0 OBJ File: ''
# www.blender.org
mtllib CG10_500_040063_0042.mtl
o CG10_500_040063_0042
v 69.500023 107.796768 -18.547461
v 13.722580 75.000000 -22.687870
v 120.175934 75.000000 -16.689402
v 334.347015 75.000000 -14.842059
v 119.984444 75.000000 -26.066698
v 71.264740 105.807510 -82.537277
v 338.511383 118.660919 -91.039543
v 205.332916 118.577843 -97.867767
v 143.553314 145.000000 -147.346939
v 162.256348 144.987671 -146.345993
v 284.311737 75.000000 -168.797745
v 342.598724 75.000000 -165.871780
v 289.256073 75.000000 -263.256561
v 34.278244 75.000000 -277.200134
v 13.722580 0.000000 -22.687870
v 120.175934 0.000000 -16.689402
v 119.984444 0.000000 -26.066698
v 334.347015 0.000000 -14.842059
v 342.598724 0.000000 -165.871780
v 284.311737 0.000000 -168.797745
v 289.256073 0.000000 -263.256561
v 34.278244 0.000000 -277.200134
vn -0.5042 0.8626 -0.0407
vn 0.5436 0.8393 -0.0111
vn -0.0260 0.8680 0.4959
vn -0.5009 -0.8651 -0.0262
vn -0.0252 -0.8641 0.5028
vn 0.0269 0.8703 -0.4918
vn 0.9985 -0.0000 0.0546
vn -0.0562 -0.0304 0.9980
vn 0.0000 1.0000 0.0000
vn -0.0563 0.0000 0.9984
vn 0.9998 0.0000 -0.0204
vn -0.0523 0.0000 0.9986
vn 0.0501 0.0000 -0.9987
vn 0.9986 0.0000 0.0523
vn 0.0546 0.0000 -0.9985
vn -0.9968 0.0000 -0.0805
usemtl None
s off
f 2//1 1//1 6//1 9//1 14//1
f 1//2 3//2 5//2 6//2
f 5//3 4//3 7//3 8//3 10//3 9//3 6//3
f 10//4 13//4 11//4 8//4
f 12//5 7//5 8//5 11//5
f 14//6 9//6 10//6 13//6
f 12//7 7//7 4//7
f 3//8 1//8 2//8
f 15//9 16//9 17//9 18//9 19//9 20//9 21//9 22//9
f 2//10 15//10 16//10 3//10
f 3//11 16//11 17//11 5//11
f 5//12 17//12 18//12 4//12
f 4//7 18//7 19//7 12//7
f 12//13 19//13 20//13 11//13
f 11//14 20//14 21//14 13//14
f 13//15 21//15 22//15 14//15
f 14//16 22//16 15//16 2//16
