# Blender v2.92.0 OBJ File: ''
# www.blender.org
mtllib CG10_500_049066_0047.mtl
o CG10_500_049066_0047
v 364.415588 75.000000 -186.374588
v 23.977423 75.000000 -207.669098
v 68.981033 115.927559 -151.142990
v 147.664185 116.247032 -145.802078
v 180.033890 144.987595 -106.059807
v 266.181885 145.000000 -100.654938
v 17.411940 75.000000 -103.028702
v 93.670891 75.000000 -97.459854
v 353.282166 75.000000 -9.021358
v 88.536224 75.000000 -25.678274
v 364.415588 0.000000 -186.374588
v 23.977423 0.000000 -207.669098
v 17.411940 0.000000 -103.028702
v 93.670891 0.000000 -97.459854
v 88.536224 0.000000 -25.678274
v 353.282166 0.000000 -9.021358
vn 0.0396 -0.7755 -0.6301
vn -0.6016 -0.7979 -0.0378
vn -0.0379 -0.7948 0.6057
vn 0.6317 -0.7739 0.0452
vn 0.0452 -0.7843 -0.6187
vn 0.6440 -0.7640 0.0404
vn 0.0000 1.0000 0.0000
vn 0.0624 0.0000 -0.9980
vn -0.9980 0.0000 -0.0626
vn -0.0728 0.0000 0.9973
vn -0.9975 0.0000 -0.0713
vn -0.0628 0.0000 0.9980
vn 0.9980 0.0000 0.0627
usemtl None
s off
f 10//1 5//1 6//1 9//1
f 9//2 6//2 1//2
f 1//3 6//3 5//3 4//3 3//3 2//3
f 4//4 5//4 10//4 8//4
f 3//5 4//5 8//5 7//5
f 2//6 3//6 7//6
f 11//7 12//7 13//7 14//7 15//7 16//7
f 1//8 11//8 12//8 2//8
f 2//9 12//9 13//9 7//9
f 7//10 13//10 14//10 8//10
f 8//11 14//11 15//11 10//11
f 10//12 15//12 16//12 9//12
f 9//13 16//13 11//13 1//13
