# Blender v2.92.0 OBJ File: ''
# www.blender.org
mtllib CG10_500_035062_0002_roof.mtl
o CG10_500_035062_0002_roof
v 175.909576 75.000000 -14.596459
v 192.848602 75.000000 -296.809875
v 99.476379 145.000000 -98.765839
v 106.455910 144.995895 -214.969101
v 7.577733 75.000000 -24.712608
v 24.540728 75.000000 -306.924561
v 175.909576 0.000000 -14.596459
v 192.848602 0.000000 -296.809875
v 24.540728 0.000000 -306.924561
v 7.577733 0.000000 -24.712608
vt 0.037700 0.922770
vt 0.494910 0.691360
vt 0.875170 0.954390
vt 0.122090 0.040861
vt 0.529630 0.328220
vt 0.959450 0.072469
vn 0.0397 -0.7502 -0.6600
vn 0.6245 -0.7801 0.0375
vn -0.0376 -0.7787 0.6263
vn -0.6511 -0.7580 -0.0391
usemtl None
s off
f 5/1/1 3/2/1 1/3/1
f 5/1/2 6/4/2 4/5/2 3/2/2
f 6/4/3 2/6/3 4/5/3
f 2/6/4 1/3/4 3/2/4 4/5/4
