# Blender v2.92.0 OBJ File: ''
# www.blender.org
mtllib CG10_500_042073_0009.mtl
o CG10_500_042073_0009
v 358.450897 75.000000 -184.980133
v 286.794189 75.000000 -14.459734
v 260.589050 124.687607 -92.579765
v 268.644226 125.015770 -112.676399
v 257.611389 144.989792 -142.893509
v 180.690079 75.000000 -59.038700
v 189.336334 75.000000 -81.867722
v 130.655396 75.000000 -106.482803
v 116.446861 75.000000 -72.956711
v 141.681503 145.000000 -191.536087
v 105.563210 122.029404 -177.258636
v 91.069740 121.957565 -142.861679
v 93.614136 75.000000 -296.130096
v 17.573565 75.000000 -114.483665
v 358.450897 0.000000 -184.980133
v 286.794189 0.000000 -14.459734
v 180.690079 0.000000 -59.038700
v 189.336334 0.000000 -81.867722
v 130.655396 0.000000 -106.482803
v 116.446861 0.000000 -72.956711
v 17.573565 0.000000 -114.483665
v 93.614136 0.000000 -296.130096
vn -0.2425 0.7797 0.5773
vn -0.6216 -0.7385 -0.2612
vn -0.2588 -0.7436 0.6166
vn 0.5800 -0.7844 0.2197
vn -0.2499 0.7633 0.5958
vn 0.6260 0.7333 0.2653
vn 0.5875 -0.7709 0.2459
vn -0.2524 0.7583 0.6010
vn 0.0000 -1.0000 0.0000
vn -0.9219 0.0000 -0.3874
vn 0.3873 0.0000 -0.9219
vn 0.9352 0.0000 0.3542
vn 0.3868 0.0000 -0.9222
vn -0.9207 0.0000 -0.3902
vn 0.3872 0.0000 -0.9220
vn 0.9224 0.0000 0.3861
vn -0.3870 0.0000 0.9221
usemtl None
s off
f 6//1 2//1 3//1
f 5//2 1//2 2//2 3//2 4//2
f 5//3 10//3 13//3 1//3
f 6//4 7//4 4//4 3//4
f 8//5 7//5 4//5 5//5 10//5 11//5
f 9//6 8//6 11//6 12//6
f 14//7 13//7 10//7 11//7 12//7
f 14//8 9//8 12//8
f 15//9 16//9 17//9 18//9 19//9 20//9 21//9 22//9
f 1//10 15//10 16//10 2//10
f 2//11 16//11 17//11 6//11
f 6//12 17//12 18//12 7//12
f 7//13 18//13 19//13 8//13
f 8//14 19//14 20//14 9//14
f 9//15 20//15 21//15 14//15
f 14//16 21//16 22//16 13//16
f 13//17 22//17 15//17 1//17
