# Blender v2.92.0 OBJ File: ''
# www.blender.org
mtllib CG10_500_047072_0020.mtl
o CG10_500_047072_0020
v 187.804794 75.000000 -14.127968
v 9.060964 75.000000 -24.323158
v 109.261581 145.000000 -109.201912
v 114.041649 144.995331 -192.929672
v 202.783813 75.000000 -276.808472
v 24.077402 75.000000 -287.001526
v 187.804794 0.000000 -14.127968
v 9.060964 0.000000 -24.323158
v 24.077402 0.000000 -287.001526
v 202.783813 0.000000 -276.808472
vn 0.0349 -0.7908 -0.6111
vn -0.6399 -0.7676 -0.0365
vn -0.0353 -0.7853 0.6181
vn 0.5915 -0.8056 0.0338
vn 0.0000 -1.0000 0.0000
vn 0.0569 0.0000 -0.9984
vn 0.9984 0.0000 0.0571
vn -0.0569 0.0000 0.9984
vn -0.9984 0.0000 -0.0569
usemtl None
s off
f 2//1 3//1 1//1
f 1//2 3//2 4//2 5//2
f 5//3 4//3 6//3
f 6//4 4//4 3//4 2//4
f 7//5 8//5 9//5 10//5
f 1//6 7//6 8//6 2//6
f 2//7 8//7 9//7 6//7
f 6//8 9//8 10//8 5//8
f 5//9 10//9 7//9 1//9
