# Blender v2.92.0 OBJ File: ''
# www.blender.org
mtllib CG10_500_044067_0015_roof.mtl
o CG10_500_044067_0015_roof
v 64.600548 144.343124 -38.447716
v 125.650597 75.000000 -13.939650
v 9.583643 75.000000 -60.611919
v 150.041870 145.000000 -250.068680
v 211.640930 75.000000 -225.256470
v 94.476372 75.000000 -272.374420
v 125.650597 0.000000 -13.939650
v 9.583643 0.000000 -60.611919
v 94.476372 0.000000 -272.374420
v 211.640930 0.000000 -225.256470
vt 0.043365 0.787330
vt 0.292310 0.865100
vt 0.678920 0.122570
vt 0.427490 0.044300
vt 0.568550 0.951090
vt 0.957650 0.209630
vn -0.7054 0.6500 -0.2828
vn 0.6720 0.6882 0.2734
vn -0.3731 0.0005 0.9278
vn 0.3731 0.0005 -0.9278
usemtl None
s off
f 3/1/1 1/2/1 4/3/1 6/4/1
f 1/2/2 2/5/2 5/6/2 4/3/2
f 5/6/3 4/3/3 6/4/3
f 3/1/4 1/2/4 2/5/4
