# Blender v2.92.0 OBJ File: ''
# www.blender.org
mtllib CG10_500_040065_0015_roof.mtl
o CG10_500_040065_0015_roof
v 255.119751 75.000000 -17.953100
v 18.171476 75.000000 -131.282059
v 287.248169 75.000000 -85.819214
v 51.331406 75.000000 -200.084290
v 316.447083 75.000000 -71.969879
v 22.469582 75.000000 -213.661469
v 190.400986 144.999893 -192.488647
v 205.133713 145.000000 -185.442413
v 280.324646 124.463371 -187.382538
v 250.621414 124.493973 -201.531860
v 141.817123 123.759949 -254.922943
v 170.503845 123.701454 -241.311264
v 390.179993 75.000000 -226.129013
v 95.775002 75.000000 -366.930328
v 255.119751 0.000000 -17.953100
v 18.171476 0.000000 -131.282059
v 51.331406 0.000000 -200.084290
v 22.469582 0.000000 -213.661469
v 95.775002 0.000000 -366.930328
v 390.179993 0.000000 -226.129013
v 316.447083 0.000000 -71.969879
v 287.248169 0.000000 -85.819214
vt 0.044538 0.659010
vt 0.466670 0.500030
vt 0.502780 0.518330
vt 0.625290 0.953370
vt 0.125810 0.480300
vt 0.417900 0.373220
vt 0.055073 0.445040
vt 0.347590 0.337860
vt 0.234740 0.046934
vt 0.956320 0.412650
vt 0.687070 0.513290
vt 0.614270 0.476540
vt 0.704040 0.777090
vt 0.775610 0.813070
vn 0.2051 -0.8798 -0.4289
vn 0.4307 -0.8783 0.2076
vn 0.2061 -0.8750 -0.4380
vn 0.4302 -0.8789 0.2058
vn -0.2222 -0.8573 0.4645
vn -0.4645 -0.8578 -0.2199
vn -0.2085 0.8736 0.4397
vn -0.4644 -0.8573 -0.2221
usemtl None
s off
f 2/1/1 7/2/1 8/3/1 1/4/1
f 2/1/2 4/5/2 12/6/2 7/2/2
f 4/5/3 6/7/3 11/8/3 12/6/3
f 6/7/4 14/9/4 11/8/4
f 14/9/5 13/10/5 9/11/5 10/12/5 8/3/5 7/2/5 12/6/5 11/8/5
f 10/12/6 3/13/6 1/4/6 8/3/6
f 3/13/7 5/14/7 9/11/7 10/12/7
f 9/11/8 13/10/8 5/14/8
