# Blender v2.92.0 OBJ File: ''
# www.blender.org
mtllib CG10_500_048071_0013.mtl
o CG10_500_048071_0013
v 262.163605 75.000000 -250.781265
v 254.268768 75.000000 -99.917946
v 212.847290 75.000000 -102.231468
v 208.889877 75.000000 -21.236923
v 181.569107 128.949478 -182.143738
v 144.930222 75.000000 -256.867279
v 132.609848 75.000000 -25.486919
v 148.657776 75.000000 -331.310455
v 130.291519 75.000000 -15.290952
v 140.237747 128.891296 -184.367935
v 116.404472 144.951584 -163.926910
v 114.471420 145.000000 -125.772629
v 81.700989 117.916992 -202.220016
v 85.528175 117.854530 -276.895081
v 75.162933 117.473053 -88.923576
v 73.603813 116.786514 -76.957230
v 30.511726 75.000000 -337.492981
v 13.951509 75.000000 -21.379158
v 262.163605 0.000000 -250.781265
v 254.268768 0.000000 -99.917946
v 212.847290 0.000000 -102.231468
v 208.889877 0.000000 -21.236923
v 132.609848 0.000000 -25.486919
v 130.291519 0.000000 -15.290952
v 13.951509 0.000000 -21.379158
v 30.511726 0.000000 -337.492981
v 148.657776 0.000000 -331.310455
v 144.930222 0.000000 -256.867279
vn 0.0303 -0.8143 -0.5797
vn 0.5054 0.8552 0.1149
vn -0.0321 0.8168 0.5760
vn 0.5751 0.8176 0.0281
vn -0.0317 0.8226 0.5677
vn 0.5735 0.8186 0.0300
vn 0.0309 0.8031 -0.5950
vn 0.5784 0.8153 0.0290
vn 0.0312 0.8025 -0.5958
vn -0.5927 0.8048 -0.0311
vn 0.0000 -1.0000 0.0000
vn -0.9986 0.0000 -0.0523
vn 0.0558 0.0000 -0.9984
vn -0.9988 0.0000 -0.0488
vn 0.0556 0.0000 -0.9985
vn -0.9751 0.0000 -0.2217
vn 0.0523 0.0000 -0.9986
vn 0.9986 0.0000 0.0523
vn -0.0523 0.0000 0.9986
vn -0.9987 0.0000 -0.0500
vn -0.0518 0.0000 0.9987
usemtl None
s off
f 18//1 16//1 9//1
f 9//2 7//2 15//2 16//2
f 7//3 4//3 12//3 15//3
f 4//4 3//4 10//4 11//4 12//4
f 3//5 2//5 5//5 10//5
f 2//6 1//6 5//6
f 1//7 6//7 13//7 11//7 10//7 5//7
f 6//8 8//8 14//8 13//8
f 8//9 17//9 14//9
f 17//10 18//10 16//10 15//10 12//10 11//10 13//10 14//10
f 19//11 20//11 21//11 22//11 23//11 24//11 25//11 26//11 27//11 28//11
f 1//12 19//12 20//12 2//12
f 2//13 20//13 21//13 3//13
f 3//14 21//14 22//14 4//14
f 4//15 22//15 23//15 7//15
f 7//16 23//16 24//16 9//16
f 9//17 24//17 25//17 18//17
f 18//18 25//18 26//18 17//18
f 17//19 26//19 27//19 8//19
f 8//20 27//20 28//20 6//20
f 6//21 28//21 19//21 1//21
