# Blender v2.92.0 OBJ File: ''
# www.blender.org
mtllib CG10_500_033058_0007.mtl
o CG10_500_033058_0007
v 184.891373 75.000000 -21.321753
v 8.142321 75.000000 -31.819767
v 101.847656 145.000000 -114.850044
v 194.117401 75.000000 -180.574295
v 203.572845 75.000000 -180.014648
v 107.412758 144.969864 -210.252792
v 151.460648 120.123299 -238.185349
v 140.468872 120.122887 -238.835434
v 28.633118 75.000000 -300.899261
v 134.717255 75.000000 -294.629974
v 23.962540 75.000000 -301.175293
v 210.116089 75.000000 -290.174103
v 143.000656 75.000000 -434.092316
v 36.918381 75.000000 -440.393097
v 184.891373 0.000000 -21.321753
v 8.142321 0.000000 -31.819767
v 23.962540 0.000000 -301.175293
v 28.633118 0.000000 -300.899261
v 36.918381 0.000000 -440.393097
v 143.000656 0.000000 -434.092316
v 134.717255 0.000000 -294.629974
v 210.116089 0.000000 -290.174103
v 203.572845 0.000000 -180.014648
v 194.117401 0.000000 -180.574295
vn 0.0000 -1.0000 -0.0000
vn -0.0373 -0.7751 0.6307
vn -0.6299 -0.7757 -0.0374
vn 0.0375 -0.7731 -0.6332
vn -0.6201 -0.7837 -0.0359
vn 0.0368 -0.7841 -0.6195
vn 0.6185 -0.7849 0.0363
vn 0.0593 0.0000 -0.9982
vn 0.9983 0.0000 0.0586
vn -0.0590 0.0000 0.9983
vn 0.9982 0.0000 0.0593
vn -0.0593 0.0000 0.9982
vn -0.9982 0.0000 -0.0593
vn 0.0591 0.0000 -0.9983
vn -0.9983 0.0000 -0.0578
usemtl None
s off
f 9//1 14//1 13//1 10//1
f 10//2 12//2 7//2 8//2 6//2 11//2 9//2
f 12//3 5//3 7//3
f 5//4 4//4 8//4 7//4
f 4//5 1//5 3//5 6//5 8//5
f 1//6 2//6 3//6
f 2//7 11//7 6//7 3//7
f 15//1 16//1 17//1 18//1 19//1 20//1 21//1 22//1 23//1 24//1
f 1//8 15//8 16//8 2//8
f 2//9 16//9 17//9 11//9
f 11//10 17//10 18//10 9//10
f 9//11 18//11 19//11 14//11
f 14//12 19//12 20//12 13//12
f 13//13 20//13 21//13 10//13
f 10//10 21//10 22//10 12//10
f 12//13 22//13 23//13 5//13
f 5//14 23//14 24//14 4//14
f 4//15 24//15 15//15 1//15
