# Blender v2.92.0 OBJ File: ''
# www.blender.org
mtllib CG10_500_033060_0008.mtl
o CG10_500_033060_0008
v 317.782318 75.000000 -286.547791
v 307.086029 75.000000 -112.499619
v 260.774994 75.000000 -290.064697
v 269.773132 75.000000 -436.466278
v 244.667603 75.000000 -27.994125
v 250.076813 75.000000 -116.003098
v 237.222748 75.000000 -438.373718
v 247.108582 75.000000 -599.339966
v 222.229187 125.920776 -202.654099
v 164.907089 125.924736 -206.183411
v 144.454987 135.028625 -137.274429
v 153.788956 134.998260 -288.260315
v 152.014359 127.060394 -515.506042
v 141.925262 127.112602 -352.698578
v 137.092346 145.000000 -306.475555
v 138.022156 144.999969 -321.602936
v 48.284790 75.000000 -195.014343
v 72.475693 75.000000 -610.072083
v 38.690556 75.000000 -40.652718
v 62.390438 75.000000 -448.696808
v 14.594797 75.000000 -197.639114
v 30.145151 75.000000 -450.614044
v 317.782318 0.000000 -286.547791
v 307.086029 0.000000 -112.499619
v 250.076813 0.000000 -116.003098
v 244.667603 0.000000 -27.994125
v 38.690556 0.000000 -40.652718
v 48.284790 0.000000 -195.014343
v 14.594797 0.000000 -197.639114
v 30.145151 0.000000 -450.614044
v 62.390438 0.000000 -448.696808
v 72.475693 0.000000 -610.072083
v 247.108582 0.000000 -599.339966
v 237.222748 0.000000 -438.373718
v 269.773132 0.000000 -436.466278
v 260.774994 0.000000 -290.064697
vn -0.0309 0.8638 0.5028
vn 0.4893 0.8716 0.0301
vn -0.0316 0.8573 0.5139
vn 0.4906 0.8709 0.0301
vn 0.0304 0.8695 -0.4931
vn -0.5153 0.8564 -0.0320
vn -0.0396 0.8601 0.5086
vn -0.5170 0.8554 -0.0318
vn 0.0290 0.8680 -0.4957
vn 0.0295 0.8680 -0.4956
vn 0.5007 0.8651 0.0308
vn 0.0308 0.8644 -0.5018
vn -0.5200 0.8535 -0.0325
vn 0.0000 -1.0000 0.0000
vn -0.9981 0.0000 -0.0613
vn 0.0613 0.0000 -0.9981
vn 0.9981 0.0000 0.0620
vn 0.0777 0.0000 -0.9970
vn 0.9981 0.0000 0.0614
vn -0.0594 0.0000 0.9982
vn 0.9981 0.0000 0.0624
vn -0.0613 0.0000 0.9981
vn -0.0585 0.0000 0.9983
vn -0.0616 0.0000 0.9981
usemtl None
s off
f 19//1 5//1 11//1
f 5//2 6//2 10//2 3//2 4//2 16//2 15//2 12//2 11//2
f 6//3 2//3 9//3 10//3
f 2//4 1//4 9//4
f 10//5 9//5 1//5 3//5
f 19//6 11//6 12//6 17//6
f 17//7 12//7 15//7 21//7
f 15//8 16//8 22//8 21//8
f 16//9 4//9 7//9 14//9
f 16//10 14//10 20//10 22//10
f 14//11 7//11 8//11 13//11
f 13//12 8//12 18//12
f 14//13 13//13 18//13 20//13
f 23//14 24//14 25//14 26//14 27//14 28//14 29//14 30//14 31//14 32//14 33//14 34//14 35//14 36//14
f 1//15 23//15 24//15 2//15
f 2//16 24//16 25//16 6//16
f 6//15 25//15 26//15 5//15
f 5//16 26//16 27//16 19//16
f 19//17 27//17 28//17 17//17
f 17//18 28//18 29//18 21//18
f 21//19 29//19 30//19 22//19
f 22//20 30//20 31//20 20//20
f 20//21 31//21 32//21 18//21
f 18//22 32//22 33//22 8//22
f 8//15 33//15 34//15 7//15
f 7//23 34//23 35//23 4//23
f 4//15 35//15 36//15 3//15
f 3//24 36//24 23//24 1//24
