# Blender v2.92.0 OBJ File: ''
# www.blender.org
mtllib CG10_500_037057_0015.mtl
o CG10_500_037057_0015
v 20.783453 75.000000 -99.596275
v 27.850775 75.000000 -212.528702
v 77.336594 121.317108 -155.535812
v 166.279144 75.000000 -90.729378
v 161.450928 75.000000 -19.300678
v 222.166489 121.217766 -146.582123
v 234.548569 134.709900 -104.703957
v 234.790192 135.694794 -91.849922
v 247.006027 145.000000 -117.353928
v 311.099243 75.000000 -9.924318
v 309.793640 75.000000 -22.437201
v 324.470367 144.920074 -112.596092
v 364.017303 116.675873 -142.984253
v 378.012268 116.483292 -142.331955
v 416.112000 75.000000 -84.741661
v 411.956268 75.000000 -16.299650
v 434.477386 75.000000 -187.065613
v 428.044281 75.000000 -84.409233
v 20.783453 0.000000 -99.596275
v 27.850775 0.000000 -212.528702
v 434.477386 0.000000 -187.065613
v 428.044281 0.000000 -84.409233
v 416.112000 0.000000 -84.741661
v 411.956268 0.000000 -16.299650
v 309.793640 0.000000 -22.437201
v 311.099243 0.000000 -9.924318
v 161.450928 0.000000 -19.300678
v 166.279144 0.000000 -90.729378
vn -0.6571 0.7527 -0.0411
vn -0.0375 0.7880 0.6146
vn -0.6629 0.7474 -0.0448
vn -0.6656 -0.7431 0.0694
vn -0.0366 0.7926 0.6087
vn -0.0387 0.7853 0.6179
vn -0.0165 0.8061 0.5916
vn 0.5992 0.7998 0.0364
vn -0.6112 -0.7906 -0.0383
vn 0.0408 0.7578 -0.6512
vn 0.0000 -1.0000 0.0000
vn 0.9980 0.0000 0.0625
vn -0.0625 0.0000 0.9980
vn -0.9980 0.0000 -0.0625
vn 0.0278 0.0000 -0.9996
vn -0.9982 0.0000 -0.0606
vn 0.0600 0.0000 -0.9982
vn -0.9946 0.0000 0.1038
vn 0.0625 0.0000 -0.9980
vn 0.9977 0.0000 0.0674
vn 0.0608 0.0000 -0.9981
usemtl None
s off
f 1//1 3//1 2//1
f 1//2 4//2 6//2 3//2
f 5//3 8//3 7//3 9//3 6//3 4//3
f 10//4 8//4 7//4 11//4
f 16//5 12//5 9//5 7//5 11//5
f 5//6 10//6 8//6
f 13//7 15//7 18//7 14//7
f 16//8 15//8 13//8 12//8
f 17//9 18//9 14//9
f 2//10 3//10 6//10 9//10 12//10 13//10 14//10 17//10
f 19//11 20//11 21//11 22//11 23//11 24//11 25//11 26//11 27//11 28//11
f 1//12 19//12 20//12 2//12
f 2//13 20//13 21//13 17//13
f 17//14 21//14 22//14 18//14
f 18//15 22//15 23//15 15//15
f 15//16 23//16 24//16 16//16
f 16//17 24//17 25//17 11//17
f 11//18 25//18 26//18 10//18
f 10//19 26//19 27//19 5//19
f 5//20 27//20 28//20 4//20
f 4//21 28//21 19//21 1//21
