# Blender v2.92.0 OBJ File: ''
# www.blender.org
mtllib CG10_500_047072_0061.mtl
o CG10_500_047072_0061
v 236.287750 75.000000 -281.836365
v 219.523224 75.000000 -15.451036
v 118.481163 144.908661 -21.809662
v 135.114059 145.000000 -288.209656
v 27.925959 75.000000 -294.955078
v 11.433364 75.000000 -28.553045
v 236.287750 0.000000 -281.836365
v 219.523224 0.000000 -15.451036
v 11.433364 0.000000 -28.553045
v 27.925959 0.000000 -294.955078
vn -0.5671 -0.8229 -0.0357
vn -0.5450 0.8378 -0.0337
vn -0.0628 -0.0000 0.9980
vn 0.0628 -0.0000 -0.9980
vn 0.0000 -1.0000 0.0000
vn -0.9980 0.0000 -0.0628
vn 0.9981 0.0000 0.0618
usemtl None
s off
f 3//1 4//1 1//1 2//1
f 3//2 4//2 5//2 6//2
f 2//3 3//3 6//3
f 5//4 4//4 1//4
f 7//5 8//5 9//5 10//5
f 1//6 7//6 8//6 2//6
f 2//4 8//4 9//4 6//4
f 6//7 9//7 10//7 5//7
f 5//3 10//3 7//3 1//3
