# Blender v2.92.0 OBJ File: ''
# www.blender.org
mtllib CG10_500_038056_0051.mtl
o CG10_500_038056_0051
v 21.719130 75.000000 -126.745102
v 14.950238 75.000000 -26.987484
v 193.528809 144.943954 -14.992159
v 200.442139 145.000000 -114.759575
v 323.839111 75.000000 -106.467178
v 316.828430 75.000000 -6.727192
v 21.719130 0.000000 -126.745102
v 14.950238 0.000000 -26.987484
v 316.828430 0.000000 -6.727192
v 323.839111 0.000000 -106.467178
vn -0.3631 0.9314 -0.0246
vn 0.4914 0.8703 0.0345
vn 0.0670 0.0001 -0.9978
vn -0.0670 0.0001 0.9978
vn 0.0000 1.0000 0.0000
vn -0.9977 0.0000 -0.0677
vn -0.0670 0.0000 0.9978
vn 0.9975 0.0000 0.0701
vn 0.0670 0.0000 -0.9978
usemtl None
s off
f 2//1 3//1 4//1 1//1
f 3//2 6//2 5//2 4//2
f 2//3 3//3 6//3
f 5//4 4//4 1//4
f 7//5 8//5 9//5 10//5
f 1//6 7//6 8//6 2//6
f 2//7 8//7 9//7 6//7
f 6//8 9//8 10//8 5//8
f 5//9 10//9 7//9 1//9
