# Blender v2.92.0 OBJ File: ''
# www.blender.org
mtllib CG10_500_038058_0014_roof.mtl
o CG10_500_038058_0014_roof
v 13.467995 75.000000 -22.439583
v 258.066559 75.000000 -10.259243
v 117.188583 144.999344 -118.679634
v 168.549667 145.000000 -116.122932
v 267.796844 75.000000 -205.659775
v 23.197853 75.000000 -217.831436
v 13.467995 0.000000 -22.439583
v 258.066559 0.000000 -10.259243
v 267.796844 0.000000 -205.659775
v 23.197853 0.000000 -217.831436
vt 0.047929 0.902010
vt 0.417040 0.481750
vt 0.599820 0.492910
vt 0.918390 0.955200
vt 0.953010 0.101920
vt 0.082555 0.048771
vn 0.0283 -0.8226 -0.5679
vn -0.5938 -0.8041 -0.0296
vn -0.0296 -0.8031 0.5951
vn 0.5774 -0.8160 0.0288
usemtl None
s off
f 1/1/1 3/2/1 4/3/1 2/4/1
f 2/4/2 4/3/2 5/5/2
f 5/5/3 4/3/3 3/2/3 6/6/3
f 6/6/4 3/2/4 1/1/4
