# Blender v2.92.0 OBJ File: ''
# www.blender.org
mtllib CG10_500_048074_0010.mtl
o CG10_500_048074_0010
v 16.608746 75.000000 -30.292631
v 128.325043 75.000000 -13.471153
v 78.727112 123.892532 -75.200165
v 321.086884 75.000000 -73.462807
v 142.529022 75.000000 -100.449081
v 92.678902 124.398354 -164.414474
v 251.157028 145.000000 -163.997696
v 118.920479 144.977081 -183.957031
v 345.235596 75.000000 -233.779465
v 53.713615 75.000000 -277.720184
v 16.608746 0.000000 -30.292631
v 128.325043 0.000000 -13.471153
v 142.529022 0.000000 -100.449081
v 321.086884 0.000000 -73.462807
v 345.235596 0.000000 -233.779465
v 53.713615 0.000000 -277.720184
vn 0.1003 -0.7392 -0.6660
vn 0.6586 -0.7460 0.0988
vn -0.0961 -0.7645 0.6374
vn -0.6392 -0.7630 -0.0963
vn -0.0991 0.7487 0.6554
vn 0.6304 0.7694 0.1029
vn 0.0000 1.0000 0.0000
vn -0.1489 0.0000 0.9889
vn 0.9869 0.0000 0.1612
vn -0.1494 0.0000 0.9888
vn 0.9888 0.0000 0.1490
vn 0.1490 0.0000 -0.9888
vn -0.9889 0.0000 -0.1483
usemtl None
s off
f 1//1 3//1 2//1
f 1//2 10//2 8//2 6//2 3//2
f 7//3 8//3 10//3 9//3
f 4//4 7//4 9//4
f 5//5 4//5 7//5 8//5 6//5
f 2//6 5//6 6//6 3//6
f 11//7 12//7 13//7 14//7 15//7 16//7
f 1//8 11//8 12//8 2//8
f 2//9 12//9 13//9 5//9
f 5//10 13//10 14//10 4//10
f 4//11 14//11 15//11 9//11
f 9//12 15//12 16//12 10//12
f 10//13 16//13 11//13 1//13
