# Blender v2.92.0 OBJ File: ''
# www.blender.org
mtllib CG10_500_045070_0018_roof.mtl
o CG10_500_045070_0018_roof
v 321.128113 75.000000 -19.590748
v 396.891846 75.000000 -202.733093
v 259.373108 145.000000 -154.034241
v 136.579819 144.995346 -204.841309
v 157.644272 75.000000 -301.710724
v 180.483948 75.000000 -356.915527
v 108.982170 100.411919 -283.510040
v 133.104752 100.414040 -341.823975
v 17.511454 75.000000 -145.233353
v 116.086128 75.000000 -383.556122
v 321.128113 0.000000 -19.590748
v 396.891846 0.000000 -202.733093
v 157.644272 0.000000 -301.710724
v 180.483948 0.000000 -356.915527
v 116.086128 0.000000 -383.556122
v 17.511454 0.000000 -145.233353
vt 0.329110 0.490440
vt 0.625000 0.616830
vt 0.956370 0.495690
vt 0.379870 0.249480
vt 0.262610 0.294750
vt 0.434900 0.112150
vt 0.320730 0.149690
vt 0.279730 0.045880
vt 0.042196 0.638720
vt 0.773800 0.951270
vn 0.2228 0.8125 -0.5387
vn 0.5136 0.8313 0.2125
vn -0.2375 -0.7836 0.5741
vn -0.5783 0.7800 -0.2392
vn -0.2184 0.8209 0.5277
vn 0.5011 0.8402 0.2073
usemtl None
s off
f 4/1/1 3/2/1 2/3/1 5/4/1 7/5/1
f 5/4/2 6/6/2 8/7/2 7/5/2
f 8/7/3 10/8/3 6/6/3
f 9/9/4 4/1/4 7/5/4 8/7/4 10/8/4
f 9/9/5 1/10/5 3/2/5 4/1/5
f 1/10/6 2/3/6 3/2/6
