# Blender v2.92.0 OBJ File: ''
# www.blender.org
mtllib CG10_500_034060_0015.mtl
o CG10_500_034060_0015
v 30.412531 75.000000 -240.081284
v 17.319942 75.000000 -32.843063
v 71.803383 145.000000 -129.116302
v 313.202240 144.944656 -113.956131
v 374.273651 75.000000 -218.364304
v 361.195557 75.000000 -11.359499
v 30.412531 0.000000 -240.081284
v 17.319942 0.000000 -32.843063
v 361.195557 0.000000 -11.359499
v 374.273651 0.000000 -218.364304
vn 0.7880 0.6137 0.0498
vn 0.0343 0.8395 -0.5423
vn 0.0359 -0.8178 -0.5743
vn 0.8214 -0.5680 0.0519
vn 0.0000 1.0000 0.0000
vn -0.9980 0.0000 -0.0631
vn -0.0624 0.0000 0.9981
vn 0.9980 0.0000 0.0631
vn 0.0630 0.0000 -0.9980
usemtl None
s off
f 4//1 6//1 5//1
f 3//2 4//2 5//2 1//2
f 6//3 2//3 3//3 4//3
f 2//4 1//4 3//4
f 7//5 8//5 9//5 10//5
f 1//6 7//6 8//6 2//6
f 2//7 8//7 9//7 6//7
f 6//8 9//8 10//8 5//8
f 5//9 10//9 7//9 1//9
