# Blender v2.92.0 OBJ File: ''
# www.blender.org
mtllib CG10_500_041071_0048_roof.mtl
o CG10_500_041071_0048_roof
v 12.385548 75.000000 -24.744770
v 27.011234 75.000000 -280.153381
v 115.320976 144.999893 -125.306656
v 118.516762 145.000000 -181.112045
v 170.183807 109.420784 -169.122543
v 205.770706 109.484032 -167.173721
v 217.588943 75.000000 -112.479202
v 211.910233 75.000000 -13.321564
v 223.408432 75.000000 -214.095032
v 226.537354 75.000000 -268.730011
v 252.820984 75.000000 -110.451736
v 258.648773 75.000000 -212.252090
v 12.385548 0.000000 -24.744770
v 27.011234 0.000000 -280.153381
v 226.537354 0.000000 -268.730011
v 223.408432 0.000000 -214.095032
v 258.648773 0.000000 -212.252090
v 252.820984 0.000000 -110.451736
v 217.588943 0.000000 -112.479202
v 211.910233 0.000000 -13.321564
vt 0.045703 0.915550
vt 0.425540 0.572330
vt 0.437330 0.381870
vt 0.099672 0.043845
vt 0.781960 0.954530
vt 0.835930 0.082833
vt 0.824390 0.269300
vt 0.627980 0.422790
vt 0.802910 0.616110
vt 0.759300 0.429440
vt 0.932920 0.623030
vt 0.954420 0.275590
vn -0.5842 0.8110 -0.0335
vn 0.0314 -0.8351 -0.5491
vn -0.5618 -0.8267 -0.0322
vn 0.0310 -0.8425 -0.5379
vn -0.5652 -0.8243 -0.0324
vn -0.0306 -0.8109 0.5844
vn 0.0342 0.8010 -0.5977
usemtl None
s off
f 1/1/1 3/2/1 4/3/1 2/4/1
f 1/1/2 3/2/2 8/5/2
f 8/5/3 3/2/3 4/3/3 10/6/3 9/7/3 5/8/3 7/9/3
f 7/9/4 5/8/4 6/10/4 11/11/4
f 11/11/5 6/10/5 12/12/5
f 12/12/6 6/10/6 5/8/6 9/7/6
f 2/4/7 4/3/7 10/6/7
