# Blender v2.92.0 OBJ File: ''
# www.blender.org
mtllib CG10_500_038070_0026.mtl
o CG10_500_038070_0026
v 195.194931 75.000000 -300.170685
v 30.007782 75.000000 -310.317444
v 104.573326 144.979263 -223.190750
v 184.631668 75.000000 -127.814659
v 246.766159 75.000000 -124.009972
v 97.366982 145.000000 -106.023674
v 184.700089 122.560158 -73.987701
v 123.198387 122.546471 -77.769135
v 240.014999 75.000000 -14.103064
v 12.595794 75.000000 -28.146042
v 195.194931 0.000000 -300.170685
v 30.007782 0.000000 -310.317444
v 12.595794 0.000000 -28.146042
v 240.014999 0.000000 -14.103064
v 246.766159 0.000000 -124.009972
v 184.631668 0.000000 -127.814659
vn -0.0405 -0.7487 0.6616
vn 0.6272 0.7779 0.0385
vn -0.6311 -0.7747 -0.0387
vn -0.0397 -0.7622 0.6461
vn 0.0397 -0.7643 -0.6437
vn 0.6581 -0.7518 0.0406
vn 0.0000 1.0000 0.0000
vn 0.0613 0.0000 -0.9981
vn -0.9981 0.0000 -0.0616
vn -0.0616 0.0000 0.9981
vn 0.9981 0.0000 0.0613
vn 0.0611 0.0000 -0.9981
vn 0.9981 0.0000 0.0612
usemtl None
s off
f 8//1 4//1 5//1 7//1
f 7//2 9//2 5//2
f 8//3 6//3 3//3 1//3 4//3
f 3//4 2//4 1//4
f 9//5 10//5 6//5 8//5 7//5
f 10//6 2//6 3//6 6//6
f 11//7 12//7 13//7 14//7 15//7 16//7
f 1//8 11//8 12//8 2//8
f 2//9 12//9 13//9 10//9
f 10//10 13//10 14//10 9//10
f 9//11 14//11 15//11 5//11
f 5//12 15//12 16//12 4//12
f 4//13 16//13 11//13 1//13
