# Blender v2.92.0 OBJ File: ''
# www.blender.org
mtllib CG10_500_039058_0024_roof.mtl
o CG10_500_039058_0024_roof
v 11.007150 75.000000 -23.323545
v 187.817032 75.000000 -14.269252
v 105.675148 144.979507 -106.583168
v 193.050278 75.000000 -115.752197
v 222.695679 75.000000 -114.230545
v 227.382996 145.000000 -205.757996
v 111.078094 144.994614 -211.720642
v 231.732269 75.000000 -290.694550
v 25.239017 75.000000 -301.269257
v 11.007150 0.000000 -23.323545
v 187.817032 0.000000 -14.269252
v 193.050278 0.000000 -115.752197
v 222.695679 0.000000 -114.230545
v 231.732269 0.000000 -290.694550
v 25.239017 0.000000 -301.269257
vt 0.045484 0.926420
vt 0.104290 0.049624
vt 0.459000 0.332110
vt 0.436670 0.663780
vt 0.776100 0.954990
vt 0.797730 0.634850
vt 0.939600 0.350920
vt 0.920230 0.639650
vt 0.957570 0.082983
vn 0.6118 -0.7904 0.0313
vn 0.0318 -0.7827 -0.6216
vn -0.6269 -0.7785 -0.0323
vn 0.0311 -0.7947 -0.6062
vn -0.0325 -0.7721 0.6347
vn -0.9987 0.0000 -0.0511
usemtl None
s off
f 1/1/1 9/2/1 7/3/1 3/4/1
f 1/1/2 3/4/2 2/5/2
f 2/5/3 3/4/3 7/3/3 4/6/3
f 4/6/4 7/3/4 6/7/4 5/8/4
f 6/7/5 7/3/5 9/2/5 8/9/5
f 5/8/6 6/7/6 8/9/6
