# Blender v2.92.0 OBJ File: ''
# www.blender.org
mtllib CG10_500_048072_0014.mtl
o CG10_500_048072_0014
v 359.080322 75.000000 -211.969986
v 30.365316 75.000000 -233.867630
v 267.261902 145.000000 -130.727982
v 118.158440 144.972763 -140.694626
v 87.821518 123.682220 -114.515564
v 85.638962 123.676071 -81.801788
v 145.117386 75.000000 -46.158073
v 347.068848 75.000000 -32.609993
v 142.761871 75.000000 -10.978117
v 16.114864 75.000000 -19.459578
v 359.080322 0.000000 -211.969986
v 30.365316 0.000000 -233.867630
v 16.114864 0.000000 -19.459578
v 142.761871 0.000000 -10.978117
v 145.117386 0.000000 -46.158073
v 347.068848 0.000000 -32.609993
vn 0.0393 -0.8084 -0.5873
vn 0.6178 0.7852 0.0414
vn 0.0404 -0.7976 -0.6019
vn 0.6290 0.7762 0.0421
vn -0.0416 -0.7797 0.6248
vn 0.5967 -0.8015 0.0397
vn 0.0000 1.0000 0.0000
vn 0.0665 0.0000 -0.9978
vn -0.9978 0.0000 -0.0663
vn -0.0668 0.0000 0.9978
vn 0.9978 0.0000 0.0668
vn -0.0669 0.0000 0.9978
usemtl None
s off
f 10//1 6//1 9//1
f 7//2 5//2 6//2 9//2
f 8//3 7//3 5//3 4//3 3//3
f 8//4 1//4 3//4
f 2//5 1//5 3//5 4//5
f 10//6 2//6 4//6 5//6 6//6
f 11//7 12//7 13//7 14//7 15//7 16//7
f 1//8 11//8 12//8 2//8
f 2//9 12//9 13//9 10//9
f 10//10 13//10 14//10 9//10
f 9//11 14//11 15//11 7//11
f 7//12 15//12 16//12 8//12
f 8//11 16//11 11//11 1//11
