# Blender v2.92.0 OBJ File: ''
# www.blender.org
mtllib CG10_500_036057_0003.mtl
o CG10_500_036057_0003
v 172.118607 75.000000 -20.441286
v 198.387711 75.000000 -425.955933
v 88.402374 145.000000 -25.870541
v 114.921631 144.791290 -431.377625
v 6.453596 75.000000 -31.194002
v 33.216579 75.000000 -436.676025
v 172.118607 0.000000 -20.441286
v 198.387711 0.000000 -425.955933
v 33.216579 0.000000 -436.676025
v 6.453596 0.000000 -31.194002
vn -0.6393 -0.7678 -0.0414
vn 0.6473 -0.7610 0.0427
vn -0.0648 0.0001 0.9979
vn 0.0648 0.0001 -0.9979
vn 0.0000 1.0000 0.0000
vn 0.9979 0.0000 0.0646
vn 0.0648 0.0000 -0.9979
vn -0.9978 0.0000 -0.0659
vn -0.0648 0.0000 0.9979
usemtl None
s off
f 3//1 4//1 2//1 1//1
f 3//2 5//2 6//2 4//2
f 2//3 4//3 6//3
f 5//4 3//4 1//4
f 7//5 8//5 9//5 10//5
f 1//6 7//6 8//6 2//6
f 2//7 8//7 9//7 6//7
f 6//8 9//8 10//8 5//8
f 5//9 10//9 7//9 1//9
