# Blender v2.92.0 OBJ File: ''
# www.blender.org
mtllib CG10_500_040069_0032.mtl
o CG10_500_040069_0032
v 276.062256 75.000000 -364.362152
v 254.562241 75.000000 -18.468449
v 207.584473 113.393570 -73.457497
v 209.533722 113.715149 -111.608231
v 178.679352 144.724960 -270.066864
v 171.644867 144.713287 -156.648819
v 146.824738 75.000000 -25.147856
v 148.229721 75.000000 -61.967339
v 146.783340 145.000000 -271.646088
v 104.535675 114.344917 -318.370636
v 61.140999 75.000000 -67.268852
v 68.106880 75.000000 -179.862656
v 73.407257 114.169456 -320.550507
v 38.683304 75.000000 -180.976028
v 43.881260 75.000000 -269.196533
v 13.069510 75.000000 -271.592133
v 19.790873 75.000000 -380.230103
v 276.062256 0.000000 -364.362152
v 254.562241 0.000000 -18.468449
v 146.824738 0.000000 -25.147856
v 148.229721 0.000000 -61.967339
v 61.140999 0.000000 -67.268852
v 68.106880 0.000000 -179.862656
v 38.683304 0.000000 -180.976028
v 43.881260 0.000000 -269.196533
v 13.069510 0.000000 -271.592133
v 19.790873 0.000000 -380.230103
vn -0.0368 0.8044 0.5930
vn -0.5458 0.8376 -0.0208
vn -0.0357 0.8090 0.5868
vn -0.5529 0.8325 -0.0342
vn -0.0225 0.8041 0.5940
vn -0.5627 0.8260 -0.0332
vn -0.0458 0.8068 0.5890
vn -0.5639 0.8251 -0.0349
vn 0.0353 0.8206 -0.5703
vn -0.6056 -0.7949 -0.0376
vn 0.0000 -1.0000 0.0000
vn -0.9981 0.0000 -0.0620
vn 0.0619 0.0000 -0.9981
vn 0.9993 0.0000 0.0381
vn 0.0608 0.0000 -0.9982
vn 0.9981 0.0000 0.0617
vn 0.0378 0.0000 -0.9993
vn 0.9983 0.0000 0.0588
vn 0.0775 0.0000 -0.9970
vn 0.9981 0.0000 0.0618
vn -0.0618 0.0000 0.9981
usemtl None
s off
f 7//1 2//1 3//1
f 7//2 3//2 4//2 8//2
f 8//3 4//3 6//3 11//3
f 11//4 6//4 5//4 12//4
f 14//5 12//5 5//5 9//5
f 14//6 9//6 10//6 15//6
f 15//7 10//7 13//7 16//7
f 16//8 13//8 17//8
f 5//9 1//9 17//9 13//9 10//9 9//9
f 2//10 3//10 4//10 6//10 5//10 1//10
f 18//11 19//11 20//11 21//11 22//11 23//11 24//11 25//11 26//11 27//11
f 1//12 18//12 19//12 2//12
f 2//13 19//13 20//13 7//13
f 7//14 20//14 21//14 8//14
f 8//15 21//15 22//15 11//15
f 11//16 22//16 23//16 12//16
f 12//17 23//17 24//17 14//17
f 14//18 24//18 25//18 15//18
f 15//19 25//19 26//19 16//19
f 16//20 26//20 27//20 17//20
f 17//21 27//21 18//21 1//21
