# Blender v2.92.0 OBJ File: ''
# www.blender.org
mtllib CG10_500_038071_0021.mtl
o CG10_500_038071_0021
v 348.476257 75.000000 -9.649431
v 358.089539 75.000000 -177.549652
v 353.252289 145.000000 -93.037804
v 199.398880 75.000000 -195.900757
v 198.863815 75.000000 -186.555801
v 169.652908 75.000000 -197.603912
v 169.116684 75.000000 -188.238358
v 27.006159 75.000000 -196.276443
v 17.407230 75.000000 -28.630369
v 22.173073 144.894043 -111.892693
v 348.476257 0.000000 -9.649431
v 358.089539 0.000000 -177.549652
v 198.863815 0.000000 -186.555801
v 199.398880 0.000000 -195.900757
v 169.652908 0.000000 -197.603912
v 169.116684 0.000000 -188.238358
v 27.006159 0.000000 -196.276443
v 17.407230 0.000000 -28.630369
vn 0.0368 -0.7664 -0.6413
vn -0.0360 -0.7706 0.6363
vn 0.0000 -1.0000 0.0000
vn -0.9984 0.0000 -0.0572
vn 0.9984 0.0000 0.0572
vn 0.0000 1.0000 0.0000
vn 0.0565 0.0000 -0.9984
vn 0.0572 0.0000 -0.9984
vn -0.0572 0.0000 0.9984
usemtl None
s off
f 10//1 3//1 1//1 9//1
f 10//2 8//2 7//2 5//2 2//2 3//2
f 7//3 6//3 4//3 5//3
f 1//4 3//4 2//4
f 8//5 10//5 9//5
f 11//6 12//6 13//6 14//6 15//6 16//6 17//6 18//6
f 1//5 11//5 12//5 2//5
f 2//7 12//7 13//7 5//7
f 5//5 13//5 14//5 4//5
f 4//8 14//8 15//8 6//8
f 6//4 15//4 16//4 7//4
f 7//7 16//7 17//7 8//7
f 8//4 17//4 18//4 9//4
f 9//9 18//9 11//9 1//9
