# Blender v2.92.0 OBJ File: ''
# www.blender.org
mtllib CG10_500_042065_0040_roof.mtl
o CG10_500_042065_0040_roof
v 28.859627 75.000000 -219.736145
v 22.509556 75.000000 -106.246948
v 74.629120 119.964462 -157.127548
v 164.057663 75.000000 -98.541084
v 159.377060 75.000000 -18.200089
v 216.995193 119.878029 -149.273880
v 238.173996 141.919449 -91.440636
v 242.935104 145.000000 -114.273392
v 240.067032 142.567871 -111.538498
v 327.940491 75.000000 -8.765872
v 330.549561 75.000000 -26.988747
v 343.644318 144.775909 -108.935356
v 380.118683 120.806961 -138.902374
v 406.506012 119.760109 -138.823318
v 440.587555 75.000000 -21.446133
v 443.779358 75.000000 -81.821510
v 466.355682 75.000000 -82.931160
v 472.642944 75.000000 -194.894913
v 28.859627 0.000000 -219.736145
v 22.509556 0.000000 -106.246948
v 164.057663 0.000000 -98.541084
v 159.377060 0.000000 -18.200089
v 327.940491 0.000000 -8.765872
v 330.549561 0.000000 -26.988747
v 440.587555 0.000000 -21.446133
v 443.779358 0.000000 -81.821510
v 466.355682 0.000000 -82.931160
v 472.642944 0.000000 -194.894913
vt 0.888280 0.906350
vt 0.692830 0.524300
vt 0.766370 0.393440
vt 0.894720 0.642700
vt 0.940230 0.637860
vt 0.819570 0.393780
vt 0.952910 0.148930
vt 0.489790 0.500990
vt 0.437490 0.348150
vt 0.150460 0.313850
vt 0.058185 0.040454
vt 0.484010 0.512930
vt 0.666430 0.882150
vt 0.480190 0.600700
vt 0.661170 0.961720
vt 0.321320 0.920520
vt 0.330760 0.569690
vt 0.045382 0.536040
vn -0.5660 -0.8239 -0.0299
vn 0.0297 0.7955 0.6052
vn 0.5789 0.8147 0.0325
vn -0.0335 -0.8000 0.5991
vn -0.0325 0.7635 0.6449
vn 0.5483 0.8326 0.0785
vn -0.0365 0.7570 0.6524
vn -0.6676 0.7435 -0.0389
vn -0.0349 0.7664 0.6415
vn -0.6736 0.7381 -0.0377
usemtl None
s off
f 15/1/1 12/2/1 13/3/1 16/4/1
f 16/4/2 17/5/2 14/6/2 13/3/2
f 17/5/3 18/7/3 14/6/3
f 18/7/4 14/6/4 13/3/4 12/2/4 8/8/4 6/9/4 3/10/4 1/11/4
f 15/1/5 12/2/5 8/8/5 9/12/5 11/13/5
f 9/12/6 7/14/6 10/15/6 11/13/6
f 10/15/7 7/14/7 5/16/7
f 5/16/8 7/14/8 9/12/8 8/8/8 6/9/8 4/17/8
f 6/9/9 3/10/9 2/18/9 4/17/9
f 2/18/10 3/10/10 1/11/10
