# Blender v2.92.0 OBJ File: ''
# www.blender.org
mtllib CG10_500_038071_0042.mtl
o CG10_500_038071_0042
v 56.419151 75.000000 -132.850204
v 340.112427 75.000000 -14.672056
v 75.403946 75.000000 -178.311783
v 19.339537 75.000000 -201.153442
v 166.767822 145.000000 -177.469620
v 298.011475 144.994949 -122.790924
v 96.461578 125.017998 -232.459930
v 153.470734 124.810364 -208.972992
v 404.220093 75.000000 -168.547226
v 64.692352 75.000000 -310.017944
v 56.419151 0.000000 -132.850204
v 340.112427 0.000000 -14.672056
v 404.220093 0.000000 -168.547226
v 64.692352 0.000000 -310.017944
v 19.339537 0.000000 -201.153442
v 75.403946 0.000000 -178.311783
vn -0.2468 0.7668 0.5925
vn 0.6059 0.7544 0.2524
vn 0.2478 0.7648 -0.5947
vn 0.5881 -0.7706 0.2456
vn -0.5960 0.7636 -0.2483
vn -0.2462 0.7578 0.6043
vn 0.0000 1.0000 0.0000
vn -0.3845 0.0000 0.9231
vn 0.9231 0.0000 0.3846
vn 0.3846 0.0000 -0.9231
vn -0.9231 0.0000 -0.3846
vn -0.3773 0.0000 0.9261
vn -0.9228 0.0000 -0.3853
usemtl None
s off
f 1//1 2//1 6//1 5//1
f 2//2 9//2 6//2
f 9//3 10//3 7//3 8//3 5//3 6//3
f 1//4 3//4 8//4 5//4
f 4//5 7//5 10//5
f 4//6 3//6 8//6 7//6
f 11//7 12//7 13//7 14//7 15//7 16//7
f 1//8 11//8 12//8 2//8
f 2//9 12//9 13//9 9//9
f 9//10 13//10 14//10 10//10
f 10//11 14//11 15//11 4//11
f 4//12 15//12 16//12 3//12
f 3//13 16//13 11//13 1//13
