# Blender v2.92.0 OBJ File: ''
# www.blender.org
mtllib CG10_500_048067_0003_roof.mtl
o CG10_500_048067_0003_roof
v 245.956635 75.000000 -188.515579
v 253.408920 75.000000 -292.201477
v 227.148666 116.352997 -239.965164
v 184.629791 75.000000 -13.258140
v 197.501328 75.000000 -191.807175
v 148.981888 116.525650 -245.484543
v 96.862061 144.927795 -19.550833
v 110.573227 145.000000 -211.010361
v 10.723026 75.000000 -25.757837
v 30.843599 75.000000 -308.560822
v 245.956635 0.000000 -188.515579
v 253.408920 0.000000 -292.201477
v 30.843599 0.000000 -308.560822
v 10.723026 0.000000 -25.757837
v 184.629791 0.000000 -13.258140
v 197.501328 0.000000 -191.807175
vt 0.040464 0.920250
vt 0.365520 0.939470
vt 0.417260 0.346720
vt 0.116390 0.044703
vt 0.562200 0.239990
vt 0.745290 0.406170
vt 0.696720 0.958950
vt 0.857160 0.257070
vt 0.928140 0.416360
vt 0.956260 0.095351
vn -0.6277 0.7772 -0.0447
vn -0.6205 -0.7829 -0.0447
vn 0.0432 -0.7709 -0.6354
vn -0.8766 -0.4771 -0.0630
vn -0.0446 -0.7941 0.6062
vn 0.0717 0.0002 -0.9974
usemtl None
s off
f 9/1/1 7/2/1 8/3/1 10/4/1
f 7/2/2 8/3/2 6/5/2 5/6/2 4/7/2
f 5/6/3 6/5/3 3/8/3 1/9/3
f 1/9/4 3/8/4 2/10/4
f 2/10/5 3/8/5 6/5/5 8/3/5 10/4/5
f 9/1/6 7/2/6 4/7/6
