# Blender v2.92.0 OBJ File: ''
# www.blender.org
mtllib CG10_500_045069_0043.mtl
o CG10_500_045069_0043
v 384.028656 75.000000 -199.317429
v 309.150269 75.000000 -17.749485
v 413.773499 75.000000 -271.447021
v 318.238647 144.568207 -117.468727
v 230.776917 75.000000 -263.426666
v 260.204254 75.000000 -334.777985
v 95.757362 145.000000 -209.859680
v 95.813187 75.000000 -319.885590
v 20.331030 75.000000 -136.855255
v 384.028656 0.000000 -199.317429
v 309.150269 0.000000 -17.749485
v 20.331030 0.000000 -136.855255
v 95.813187 0.000000 -319.885590
v 230.776917 0.000000 -263.426666
v 260.204254 0.000000 -334.777985
v 413.773499 0.000000 -271.447021
vn -0.8506 -0.3917 -0.3508
vn -0.2242 0.8087 0.5438
vn -0.7932 0.5136 -0.3271
vn 0.2191 0.8233 -0.5237
vn 0.0000 -1.0000 0.0000
vn -0.9245 0.0000 -0.3813
vn 0.3812 0.0000 -0.9245
vn 0.9245 0.0000 0.3813
vn -0.3859 0.0000 0.9225
vn -0.3812 0.0000 0.9245
vn -0.9245 0.0000 -0.3812
usemtl None
s off
f 2//1 4//1 1//1
f 9//2 2//2 4//2 7//2
f 9//3 7//3 8//3
f 8//4 7//4 4//4 1//4 5//4
f 5//5 6//5 3//5 1//5
f 10//5 11//5 12//5 13//5 14//5 15//5 16//5
f 1//6 10//6 11//6 2//6
f 2//7 11//7 12//7 9//7
f 9//8 12//8 13//8 8//8
f 8//9 13//9 14//9 5//9
f 5//8 14//8 15//8 6//8
f 6//10 15//10 16//10 3//10
f 3//11 16//11 10//11 1//11
