# Blender v2.92.0 OBJ File: ''
# www.blender.org
mtllib CG10_500_044069_0022.mtl
o CG10_500_044069_0022
v 127.249329 75.000000 -37.577229
v 24.457489 75.000000 -79.863678
v 131.283966 75.000000 -47.796425
v 199.243423 75.000000 -19.789688
v 212.336060 75.000000 -49.743336
v 290.280914 75.000000 -17.062445
v 100.843491 112.243835 -107.596489
v 104.843437 112.192268 -117.538231
v 154.701599 136.533798 -135.504242
v 167.527527 136.769577 -165.681580
v 183.850525 144.771744 -171.423386
v 241.551056 145.000000 -147.589569
v 160.344788 119.204544 -222.712616
v 184.403137 119.141876 -281.459320
v 369.572632 75.000000 -209.792053
v 239.873581 75.000000 -262.528198
v 321.623871 75.000000 -229.288208
v 455.754669 75.000000 -174.750107
v 263.232483 75.000000 -319.780518
v 143.432022 75.000000 -369.066437
v 349.168518 145.286896 -296.301819
v 483.111176 144.712067 -241.200592
v 510.235718 75.000000 -307.181000
v 376.556641 75.000000 -362.809692
v 127.249329 0.000000 -37.577229
v 24.457489 0.000000 -79.863678
v 143.432022 0.000000 -369.066437
v 263.232483 0.000000 -319.780518
v 239.873581 0.000000 -262.528198
v 321.623871 0.000000 -229.288208
v 376.556641 0.000000 -362.809692
v 510.235718 0.000000 -307.181000
v 455.754669 0.000000 -174.750107
v 369.572632 0.000000 -209.792053
v 290.280914 0.000000 -17.062445
v 212.336060 0.000000 -49.743336
v 199.243423 0.000000 -19.789688
v 131.283966 0.000000 -47.796425
vn -0.5576 -0.7983 -0.2275
vn 0.5496 0.8042 0.2261
vn 0.2195 -0.8233 -0.5235
vn -0.5285 -0.8169 -0.2310
vn -0.5537 -0.8035 -0.2186
vn 0.2150 -0.8255 -0.5218
vn 0.2141 -0.8266 -0.5204
vn -0.4872 0.8500 -0.2004
vn -0.2128 -0.8290 0.5172
vn -0.2078 -0.8341 0.5110
vn 0.2623 -0.7178 -0.6450
vn -0.2685 -0.7152 0.6453
vn -0.9248 -0.0003 -0.3805
vn 0.9248 -0.0003 0.3805
vn 0.0000 -1.0000 0.0000
vn 0.3804 0.0000 -0.9248
vn 0.9248 0.0000 0.3805
vn -0.3805 0.0000 0.9248
vn -0.9259 0.0000 -0.3778
vn -0.3767 0.0000 0.9264
vn -0.3842 0.0000 0.9233
vn -0.9248 0.0000 -0.3805
vn 0.3767 0.0000 -0.9264
vn 0.3867 0.0000 -0.9222
vn -0.9163 0.0000 -0.4005
vn 0.3810 0.0000 -0.9246
vn -0.9301 0.0000 -0.3672
usemtl None
s off
f 19//1 16//1 13//1 14//1
f 15//2 12//2 6//2
f 5//3 10//3 11//3 12//3 6//3
f 9//4 10//4 5//4 4//4
f 8//5 3//5 1//5 7//5
f 8//6 9//6 4//6 3//6
f 2//7 7//7 1//7
f 2//8 7//8 8//8 9//8 10//8 11//8 13//8 14//8 20//8
f 20//9 19//9 14//9
f 15//10 12//10 11//10 13//10 16//10 17//10
f 18//11 15//11 17//11 21//11 22//11
f 23//12 22//12 21//12 24//12
f 17//13 21//13 24//13
f 23//14 22//14 18//14
f 25//15 26//15 27//15 28//15 29//15 30//15 31//15 32//15 33//15 34//15 35//15 36//15 37//15 38//15
f 1//16 25//16 26//16 2//16
f 2//17 26//17 27//17 20//17
f 20//18 27//18 28//18 19//18
f 19//19 28//19 29//19 16//19
f 16//20 29//20 30//20 17//20
f 17//17 30//17 31//17 24//17
f 24//21 31//21 32//21 23//21
f 23//22 32//22 33//22 18//22
f 18//23 33//23 34//23 15//23
f 15//22 34//22 35//22 6//22
f 6//24 35//24 36//24 5//24
f 5//25 36//25 37//25 4//25
f 4//26 37//26 38//26 3//26
f 3//27 38//27 25//27 1//27
