# Blender v2.92.0 OBJ File: ''
# www.blender.org
mtllib CG10_500_040059_0037_roof.mtl
o CG10_500_040059_0037_roof
v 14.030191 75.000000 -25.839546
v 26.432364 75.000000 -218.573029
v 56.642570 75.000000 -291.948761
v 51.909954 75.000000 -217.360825
v 122.164680 144.944855 -119.712654
v 131.355957 145.000000 -119.200981
v 144.584381 138.658936 -200.809143
v 139.894257 138.638184 -127.372276
v 180.756790 111.670464 -234.706223
v 219.495544 111.614830 -232.280136
v 212.713516 75.000000 -13.060559
v 223.199860 75.000000 -176.343994
v 265.249268 75.000000 -173.802444
v 271.955780 75.000000 -278.049194
v 14.030191 0.000000 -25.839546
v 26.432364 0.000000 -218.573029
v 51.909954 0.000000 -217.360825
v 56.642570 0.000000 -291.948761
v 271.955780 0.000000 -278.049194
v 265.249268 0.000000 -173.802444
v 223.199860 0.000000 -176.343994
v 212.713516 0.000000 -13.060559
vt 0.092421 0.285710
vt 0.427150 0.608780
vt 0.459290 0.610450
vt 0.489140 0.583750
vt 0.181500 0.289670
vt 0.505540 0.343760
vt 0.198050 0.045919
vt 0.767470 0.240910
vt 0.950890 0.091343
vt 0.927450 0.432020
vt 0.632020 0.232990
vt 0.780420 0.423710
vt 0.743750 0.957320
vt 0.049057 0.915560
vn 0.0283 0.8029 -0.5955
vn -0.5615 0.8267 -0.0356
vn -0.5941 -0.8035 -0.0382
vn 0.0385 0.8014 -0.5969
vn 0.0332 -0.8352 -0.5489
vn -0.6213 -0.7826 -0.0399
vn 0.0366 -0.8211 -0.5696
vn 0.5648 -0.8244 0.0363
usemtl None
s off
f 2/1/1 5/2/1 6/3/1 8/4/1 4/5/1
f 4/5/2 8/4/2 7/6/2 3/7/2
f 10/8/3 14/9/3 13/10/3
f 3/7/4 7/6/4 9/11/4 10/8/4 14/9/4
f 9/11/5 10/8/5 13/10/5 12/12/5
f 11/13/6 6/3/6 8/4/6 7/6/6 9/11/6 12/12/6
f 1/14/7 5/2/7 6/3/7 11/13/7
f 1/14/8 2/1/8 5/2/8
