# Blender v2.92.0 OBJ File: ''
# www.blender.org
mtllib CG10_500_043074_0023.mtl
o CG10_500_043074_0023
v 245.877213 75.000000 -356.343872
v 303.265381 75.000000 -210.665955
v 357.297363 75.000000 -97.405754
v 266.876709 75.000000 -243.063736
v 263.346924 75.000000 -237.927658
v 156.310699 75.000000 -417.896454
v 283.594238 143.473892 -62.222221
v 237.656509 145.000000 -154.288193
v 106.326813 75.000000 -345.162109
v 179.006195 72.974487 -100.308754
v 215.365555 72.743217 -29.703772
v 142.230103 75.000000 -128.255051
v 194.087494 75.000000 -19.553061
v 59.211666 144.686111 -276.608032
v 16.628304 75.000000 -214.641479
v 245.877213 0.000000 -356.343872
v 266.876709 0.000000 -243.063736
v 263.346924 0.000000 -237.927658
v 303.265381 0.000000 -210.665955
v 357.297363 0.000000 -97.405754
v 194.087494 0.000000 -19.553061
v 142.230103 0.000000 -128.255051
v 16.628304 0.000000 -214.641479
v 106.326813 0.000000 -345.162109
v 156.310699 0.000000 -417.896454
vn -0.3622 -0.7666 0.5303
vn 0.0000 -1.0000 0.0000
vn 0.5799 0.7663 -0.2766
vn 0.6067 -0.7300 -0.3148
vn 0.3852 -0.7334 -0.5601
vn 0.0860 0.9954 -0.0410
vn 0.4305 -0.0003 0.9026
vn -0.8241 -0.0000 -0.5664
vn -0.9832 0.0000 0.1823
vn -0.5640 0.0000 0.8258
vn -0.9026 0.0000 0.4306
vn -0.4305 0.0000 -0.9026
vn 0.9026 0.0000 -0.4306
vn 0.5667 0.0000 -0.8239
vn 0.8241 0.0000 0.5664
vn 0.8242 0.0000 0.5664
vn -0.5664 0.0000 0.8241
usemtl None
s off
f 8//1 14//1 9//1 5//1 2//1
f 9//2 6//2 1//2 4//2 5//2
f 8//3 7//3 3//3 2//3
f 7//4 11//4 10//4 8//4
f 10//5 12//5 15//5 14//5 8//5
f 12//6 13//6 11//6 10//6
f 3//7 7//7 11//7 13//7
f 15//8 14//8 9//8
f 16//2 17//2 18//2 19//2 20//2 21//2 22//2 23//2 24//2 25//2
f 1//9 16//9 17//9 4//9
f 4//8 17//8 18//8 5//8
f 5//10 18//10 19//10 2//10
f 2//11 19//11 20//11 3//11
f 3//12 20//12 21//12 13//12
f 13//13 21//13 22//13 12//13
f 12//14 22//14 23//14 15//14
f 15//15 23//15 24//15 9//15
f 9//16 24//16 25//16 6//16
f 6//17 25//17 16//17 1//17
