# Blender v2.92.0 OBJ File: ''
# www.blender.org
mtllib CG10_500_045071_0012_roof.mtl
o CG10_500_045071_0012_roof
v 79.631454 75.000000 -340.743103
v 15.778905 75.000000 -185.362686
v 123.660645 145.000000 -230.596909
v 182.361710 75.000000 -116.934319
v 156.863541 75.000000 -54.863567
v 231.356369 144.972290 -186.322556
v 249.256088 117.882828 -144.314789
v 224.262680 117.863579 -83.533592
v 341.471649 75.000000 -233.010468
v 252.044113 75.000000 -15.749846
v 79.631454 0.000000 -340.743103
v 15.778905 0.000000 -185.362686
v 182.361710 0.000000 -116.934319
v 156.863541 0.000000 -54.863567
v 252.044113 0.000000 -15.749846
v 341.471649 0.000000 -233.010468
vt 0.510820 0.673370
vt 0.698200 0.596890
vt 0.648060 0.479550
vt 0.346390 0.355870
vt 0.044199 0.482230
vt 0.223060 0.048204
vt 0.956500 0.349130
vt 0.439390 0.846750
vt 0.628190 0.766670
vt 0.706010 0.956010
vn -0.2453 0.7638 0.5971
vn 0.2417 0.7723 -0.5874
vn -0.5921 0.7683 -0.2432
vn -0.2414 0.7725 0.5874
vn 0.5916 0.7686 0.2435
vn -0.5980 0.7629 -0.2458
usemtl None
s off
f 4/1/1 7/2/1 6/3/1 3/4/1 2/5/1
f 1/6/2 3/4/2 6/3/2 9/7/2
f 7/2/3 4/1/3 5/8/3 8/9/3
f 8/9/4 5/8/4 10/10/4
f 9/7/5 6/3/5 7/2/5 8/9/5 10/10/5
f 3/4/6 1/6/6 2/5/6
