# Blender v2.92.0 OBJ File: ''
# www.blender.org
mtllib CG10_500_041071_0027.mtl
o CG10_500_041071_0027
v 14.217612 75.000000 -70.879951
v 124.373428 75.000000 -333.196899
v 158.204590 118.629913 -254.124924
v 153.180069 118.725418 -241.810455
v 116.995491 125.807823 -129.729767
v 107.911736 125.956116 -107.555801
v 152.178009 144.998947 -143.293579
v 173.611435 145.000000 -194.329681
v 235.726898 75.000000 -286.441895
v 230.704895 75.000000 -273.776611
v 145.768829 75.000000 -15.652142
v 154.694901 75.000000 -37.974758
v 297.685394 75.000000 -245.519272
v 202.032028 75.000000 -17.770876
v 14.217612 0.000000 -70.879951
v 124.373428 0.000000 -333.196899
v 235.726898 0.000000 -286.441895
v 230.704895 0.000000 -273.776611
v 297.685394 0.000000 -245.519272
v 202.032028 0.000000 -17.770876
v 154.694901 0.000000 -37.974758
v 145.768829 0.000000 -15.652142
vn 0.5502 0.8055 0.2200
vn -0.2315 0.8077 0.5423
vn -0.5485 -0.8038 -0.2304
vn 0.2300 0.8062 -0.5451
vn 0.5458 0.8095 0.2164
vn -0.2276 0.8088 0.5422
vn 0.2282 0.8079 -0.5434
vn 0.5317 -0.8170 0.2233
vn 0.0000 -1.0000 0.0000
vn 0.9220 0.0000 0.3872
vn -0.3871 0.0000 0.9220
vn -0.9296 0.0000 -0.3686
vn -0.3887 0.0000 0.9214
vn -0.9220 0.0000 -0.3872
vn 0.3925 0.0000 -0.9197
vn -0.9285 0.0000 -0.3713
vn 0.3871 0.0000 -0.9220
usemtl None
s off
f 12//1 5//1 6//1 11//1
f 14//2 7//2 5//2 12//2
f 13//3 14//3 7//3 8//3
f 10//4 4//4 8//4 13//4
f 3//5 4//5 10//5 9//5
f 1//6 11//6 6//6
f 2//7 3//7 9//7
f 1//8 2//8 3//8 4//8 8//8 7//8 5//8 6//8
f 15//9 16//9 17//9 18//9 19//9 20//9 21//9 22//9
f 1//10 15//10 16//10 2//10
f 2//11 16//11 17//11 9//11
f 9//12 17//12 18//12 10//12
f 10//13 18//13 19//13 13//13
f 13//14 19//14 20//14 14//14
f 14//15 20//15 21//15 12//15
f 12//16 21//16 22//16 11//16
f 11//17 22//17 15//17 1//17
