# Blender v2.92.0 OBJ File: ''
# www.blender.org
mtllib CG10_500_041067_0020.mtl
o CG10_500_041067_0020
v 331.828217 75.000000 -196.072205
v 317.849915 75.000000 -10.701247
v 324.615051 144.769135 -100.273598
v 30.000736 75.000000 -218.859528
v 15.977656 75.000000 -32.875118
v 22.743139 145.000000 -122.745483
v 331.828217 0.000000 -196.072205
v 317.849915 0.000000 -10.701247
v 15.977656 0.000000 -32.875118
v 30.000736 0.000000 -218.859528
vn 0.0442 0.8091 -0.5860
vn -0.0449 0.7898 0.6118
vn 0.9972 -0.0002 0.0752
vn -0.9972 -0.0002 -0.0752
vn 0.0000 -1.0000 0.0000
vn -0.9972 0.0000 -0.0752
vn 0.0733 0.0000 -0.9973
vn 0.9972 0.0000 0.0752
vn -0.0753 0.0000 0.9972
usemtl None
s off
f 6//1 3//1 1//1 4//1
f 6//2 5//2 2//2 3//2
f 1//3 3//3 2//3
f 5//4 6//4 4//4
f 7//5 8//5 9//5 10//5
f 1//6 7//6 8//6 2//6
f 2//7 8//7 9//7 5//7
f 5//8 9//8 10//8 4//8
f 4//9 10//9 7//9 1//9
