# Blender v2.92.0 OBJ File: ''
# www.blender.org
mtllib CG10_500_047072_0025_roof.mtl
o CG10_500_047072_0025_roof
v 23.181183 75.000000 -352.792328
v 123.336121 75.000000 -345.746124
v 72.290634 110.953423 -301.845093
v 119.013557 75.000000 -282.731964
v 243.122360 75.000000 -274.043640
v 67.901695 111.003036 -238.829849
v 101.929573 112.110542 -234.987152
v 146.104782 144.970673 -188.559204
v 11.377798 75.000000 -186.085831
v 44.385582 75.000000 -180.498978
v 141.493103 145.000000 -123.551727
v 33.691166 75.000000 -31.120546
v 225.084473 75.000000 -17.655499
v 23.181183 0.000000 -352.792328
v 123.336121 0.000000 -345.746124
v 119.013557 0.000000 -282.731964
v 243.122360 0.000000 -274.043640
v 225.084473 0.000000 -17.655499
v 33.691166 0.000000 -31.120546
v 44.385582 0.000000 -180.498978
v 11.377798 0.000000 -186.085831
vt 0.132640 0.915890
vt 0.886160 0.952280
vt 0.557060 0.666080
vt 0.575220 0.490380
vt 0.957170 0.259340
vt 0.401300 0.364900
vt 0.174750 0.512160
vt 0.468560 0.235860
vt 0.267330 0.354510
vt 0.284610 0.184200
vt 0.485580 0.065551
vt 0.091264 0.046507
vt 0.044794 0.497070
vn -0.0403 0.8186 0.5729
vn -0.6090 -0.7920 -0.0428
vn -0.5685 0.8217 -0.0407
vn 0.0423 0.7961 -0.6037
vn -0.5987 -0.7999 -0.0411
vn -0.0424 -0.7966 0.6030
vn -0.0844 0.8628 0.4985
vn 0.5630 -0.8255 0.0399
usemtl None
s off
f 12/1/1 13/2/1 11/3/1
f 11/3/2 8/4/2 5/5/2 13/2/2
f 8/4/3 7/6/3 10/7/3 12/1/3 11/3/3
f 5/5/4 4/8/4 6/9/4 7/6/4 8/4/4
f 6/9/5 3/10/5 2/11/5 4/8/5
f 3/10/6 1/12/6 2/11/6
f 7/6/7 6/9/7 9/13/7 10/7/7
f 9/13/8 1/12/8 3/10/8 6/9/8
