# Blender v2.92.0 OBJ File: ''
# www.blender.org
mtllib CG10_500_044074_0014.mtl
o CG10_500_044074_0014
v 217.784454 75.000000 -13.986161
v 305.360840 75.000000 -214.911209
v 178.743027 127.221649 -97.853081
v 196.130188 127.501198 -138.672577
v 183.441101 144.995651 -167.662979
v 203.201691 75.000000 -259.432007
v 212.085144 75.000000 -279.826843
v 97.082497 75.000000 -66.566666
v 112.903877 75.000000 -104.511833
v 125.120865 145.000000 -193.072586
v 128.521149 75.000000 -291.977661
v 137.398529 75.000000 -312.358368
v 12.457238 75.000000 -148.265472
v 83.584419 75.000000 -311.561005
v 217.784454 0.000000 -13.986161
v 305.360840 0.000000 -214.911209
v 203.201691 0.000000 -259.432007
v 212.085144 0.000000 -279.826843
v 137.398529 0.000000 -312.358368
v 128.521149 0.000000 -291.977661
v 83.584419 0.000000 -311.561005
v 12.457238 0.000000 -148.265472
v 112.903877 0.000000 -104.511833
v 97.082497 0.000000 -66.566666
vn 0.5517 0.7986 0.2405
vn 0.2590 -0.7612 -0.5945
vn 0.5872 -0.7715 0.2448
vn 0.2520 -0.7758 -0.5785
vn 0.5812 -0.7734 0.2532
vn -0.2419 -0.7959 0.5550
vn 0.0000 1.0000 0.0000
vn 0.9167 0.0000 0.3996
vn 0.3995 0.0000 -0.9167
vn 0.9168 0.0000 0.3993
vn 0.3993 0.0000 -0.9168
vn -0.9168 0.0000 -0.3993
vn -0.3993 0.0000 0.9168
vn -0.9230 0.0000 -0.3848
vn -0.3994 0.0000 0.9168
usemtl None
s off
f 5//1 4//1 3//1 1//1 2//1
f 1//2 8//2 3//2
f 8//3 9//3 4//3 3//3
f 9//4 13//4 10//4 5//4 4//4
f 13//5 14//5 10//5
f 10//6 14//6 11//6 6//6 2//6 5//6
f 11//7 6//7 7//7 12//7
f 15//7 16//7 17//7 18//7 19//7 20//7 21//7 22//7 23//7 24//7
f 1//8 15//8 16//8 2//8
f 2//9 16//9 17//9 6//9
f 6//10 17//10 18//10 7//10
f 7//11 18//11 19//11 12//11
f 12//12 19//12 20//12 11//12
f 11//9 20//9 21//9 14//9
f 14//12 21//12 22//12 13//12
f 13//13 22//13 23//13 9//13
f 9//14 23//14 24//14 8//14
f 8//15 24//15 15//15 1//15
