# Blender v2.92.0 OBJ File: ''
# www.blender.org
mtllib CG10_500_036057_0019_roof.mtl
o CG10_500_036057_0019_roof
v 266.374725 75.000000 -297.356873
v 260.447906 75.000000 -184.481384
v 206.204025 123.093399 -244.942825
v 180.310120 75.000000 -14.782908
v 189.740829 75.000000 -188.203217
v 134.901291 123.087921 -248.689453
v 107.116310 145.000000 -224.828247
v 100.726288 144.898468 -105.065819
v 28.140755 75.000000 -309.853821
v 13.154553 75.000000 -23.559578
v 266.374725 0.000000 -297.356873
v 260.447906 0.000000 -184.481384
v 189.740829 0.000000 -188.203217
v 180.310120 0.000000 -14.782908
v 13.154553 0.000000 -23.559578
v 28.140755 0.000000 -309.853821
vt 0.046981 0.927510
vt 0.359740 0.676720
vt 0.382560 0.308220
vt 0.100500 0.046604
vt 0.951340 0.085056
vt 0.736440 0.246330
vt 0.481790 0.234800
vt 0.930170 0.432360
vt 0.677650 0.420910
vt 0.643960 0.954510
vn -0.6424 0.7656 -0.0336
vn -0.0343 -0.7557 0.6540
vn -0.6417 -0.7662 -0.0337
vn -0.0337 0.7672 0.6405
vn 0.0331 -0.7760 -0.6299
vn -0.6370 -0.7701 -0.0346
usemtl None
s off
f 10/1/1 8/2/1 7/3/1 9/4/1
f 1/5/2 3/6/2 6/7/2 7/3/2 9/4/2
f 2/8/3 3/6/3 1/5/3
f 5/9/4 2/8/4 3/6/4 6/7/4
f 4/10/5 10/1/5 8/2/5
f 4/10/6 8/2/6 7/3/6 6/7/6 5/9/6
