# Blender v2.92.0 OBJ File: ''
# www.blender.org
mtllib CG10_500_034060_0005.mtl
o CG10_500_034060_0005
v 213.782669 75.000000 -18.764357
v 238.261154 75.000000 -378.477234
v 128.698425 144.943237 -328.120422
v 111.713081 145.000000 -79.785538
v 9.250587 75.000000 -32.680553
v 33.969276 75.000000 -392.376831
v 213.782669 0.000000 -18.764357
v 238.261154 0.000000 -378.477234
v 33.969276 0.000000 -392.376831
v 9.250587 0.000000 -32.680553
vn 0.0524 0.6362 -0.7697
vn -0.5499 -0.8344 -0.0374
vn -0.0538 0.6105 0.7902
vn 0.5760 -0.8165 0.0396
vn 0.0000 1.0000 0.0000
vn 0.9977 0.0000 0.0679
vn 0.0679 0.0000 -0.9977
vn -0.9976 0.0000 -0.0686
vn -0.0679 0.0000 0.9977
usemtl None
s off
f 3//1 2//1 6//1
f 2//2 1//2 4//2 3//2
f 4//3 5//3 1//3
f 5//4 6//4 3//4 4//4
f 7//5 8//5 9//5 10//5
f 1//6 7//6 8//6 2//6
f 2//7 8//7 9//7 6//7
f 6//8 9//8 10//8 5//8
f 5//9 10//9 7//9 1//9
