# Blender v2.92.0 OBJ File: ''
# www.blender.org
mtllib CG10_500_037058_0027.mtl
o CG10_500_037058_0027
v 297.627686 75.000000 -218.640564
v 288.506744 75.000000 -49.871571
v 217.927139 75.000000 -53.683159
v 215.594879 75.000000 -12.646482
v 210.221924 145.000000 -139.419479
v 165.475647 117.356750 -108.142700
v 163.684402 116.962120 -67.519691
v 109.608307 75.000000 -18.386410
v 110.920212 75.000000 -59.461971
v 101.090111 144.998856 -145.311646
v 12.967405 75.000000 -64.751831
v 22.087986 75.000000 -233.513824
v 297.627686 0.000000 -218.640564
v 288.506744 0.000000 -49.871571
v 217.927139 0.000000 -53.683159
v 215.594879 0.000000 -12.646482
v 109.608307 0.000000 -18.386410
v 110.920212 0.000000 -59.461971
v 12.967405 0.000000 -64.751831
v 22.087986 0.000000 -233.513824
vn -0.6408 0.7669 -0.0346
vn 0.0346 0.7675 -0.6401
vn 0.6437 0.7644 0.0348
vn 0.0342 -0.7726 -0.6339
vn 0.0340 -0.7781 -0.6272
vn 0.6060 0.7947 0.0344
vn -0.6242 0.7810 -0.0199
vn 0.0000 -1.0000 0.0000
vn -0.9985 0.0000 -0.0540
vn 0.0539 0.0000 -0.9985
vn -0.9984 0.0000 -0.0567
vn 0.0541 0.0000 -0.9985
vn 0.9995 0.0000 0.0319
vn 0.9985 0.0000 0.0540
vn -0.0539 0.0000 0.9985
usemtl None
s off
f 11//1 10//1 12//1
f 12//2 10//2 5//2 1//2
f 5//3 2//3 1//3
f 10//4 5//4 2//4 3//4 6//4 9//4 11//4
f 8//5 7//5 4//5
f 4//6 3//6 6//6 7//6
f 8//7 7//7 6//7 9//7
f 13//8 14//8 15//8 16//8 17//8 18//8 19//8 20//8
f 1//9 13//9 14//9 2//9
f 2//10 14//10 15//10 3//10
f 3//11 15//11 16//11 4//11
f 4//12 16//12 17//12 8//12
f 8//13 17//13 18//13 9//13
f 9//10 18//10 19//10 11//10
f 11//14 19//14 20//14 12//14
f 12//15 20//15 13//15 1//15
