# Blender v2.92.0 OBJ File: ''
# www.blender.org
mtllib CG10_500_037058_0025_roof.mtl
o CG10_500_037058_0025_roof
v 80.169952 75.000000 -308.520355
v 129.718842 75.000000 -305.632324
v 79.414886 75.000000 -295.565735
v 27.191549 75.000000 -298.608307
v 128.963837 75.000000 -292.678986
v 239.014679 75.000000 -286.267334
v 147.151108 143.878662 -202.429321
v 114.325256 145.000000 -202.889771
v 228.700363 75.000000 -109.415993
v 198.332611 75.000000 -108.400009
v 108.974861 144.990997 -110.896797
v 11.346873 75.000000 -25.571608
v 192.888138 75.000000 -14.990299
v 80.169952 0.000000 -308.520355
v 129.718842 0.000000 -305.632324
v 128.963837 0.000000 -292.678986
v 239.014679 0.000000 -286.267334
v 228.700363 0.000000 -109.415993
v 198.332611 0.000000 -108.400009
v 192.888138 0.000000 -14.990299
v 11.346873 0.000000 -25.571608
v 27.191549 0.000000 -298.608307
v 79.414886 0.000000 -295.565735
vt 0.316390 0.084936
vt 0.319400 0.044829
vt 0.516810 0.053770
vt 0.513800 0.093873
vt 0.108330 0.075516
vt 0.455480 0.371860
vt 0.586260 0.373280
vt 0.952250 0.113720
vt 0.911160 0.661250
vt 0.790170 0.664400
vt 0.434160 0.656670
vt 0.768480 0.953590
vt 0.045207 0.920830
vn 0.0000 -1.0000 0.0000
vn 0.0356 0.7910 -0.6108
vn 0.6204 0.7834 0.0362
vn 0.0195 0.8116 0.5839
vn 0.6156 0.7872 0.0359
vn 0.0355 -0.7922 -0.6092
vn -0.6023 0.7975 -0.0350
usemtl None
s off
f 3/1/1 1/2/1 2/3/1 5/4/1
f 4/5/2 8/6/2 7/7/2 6/8/2 5/4/2 3/1/2
f 9/9/3 6/8/3 7/7/3
f 10/10/4 9/9/4 7/7/4 8/6/4
f 10/10/5 8/6/5 11/11/5 13/12/5
f 11/11/6 13/12/6 12/13/6
f 4/5/7 12/13/7 11/11/7 8/6/7
