# Blender v2.92.0 OBJ File: ''
# www.blender.org
mtllib CG10_500_042073_0032.mtl
o CG10_500_042073_0032
v 115.748993 75.000000 -342.117218
v 233.234772 75.000000 -292.231262
v 135.044220 140.151825 -249.889450
v 252.406448 75.000000 -150.430923
v 184.996979 75.000000 -179.097641
v 87.597496 139.966766 -138.077332
v 147.607620 144.988373 -106.185020
v 89.125412 145.000000 -131.040543
v 195.196289 75.000000 -15.696581
v 10.835862 75.000000 -94.014847
v 115.748993 0.000000 -342.117218
v 233.234772 0.000000 -292.231262
v 184.996979 0.000000 -179.097641
v 252.406448 0.000000 -150.430923
v 195.196289 0.000000 -15.696581
v 10.835862 0.000000 -94.014847
vn -0.2545 -0.7596 0.5986
vn -0.6092 -0.7493 -0.2597
vn 0.7108 -0.6360 0.3006
vn -0.2518 -0.7648 0.5930
vn -0.2872 0.6787 0.6760
vn -0.6096 -0.7492 -0.2589
vn 0.0000 -1.0000 0.0000
vn -0.3908 0.0000 0.9205
vn -0.9199 0.0000 -0.3922
vn -0.3913 0.0000 0.9202
vn -0.9205 0.0000 -0.3908
vn 0.3910 0.0000 -0.9204
vn 0.9210 0.0000 0.3895
usemtl None
s off
f 5//1 4//1 7//1 8//1 6//1
f 3//2 2//2 5//2 6//2
f 10//3 1//3 3//3 6//3 8//3
f 1//4 2//4 3//4
f 10//5 9//5 7//5 8//5
f 7//6 4//6 9//6
f 11//7 12//7 13//7 14//7 15//7 16//7
f 1//8 11//8 12//8 2//8
f 2//9 12//9 13//9 5//9
f 5//10 13//10 14//10 4//10
f 4//11 14//11 15//11 9//11
f 9//12 15//12 16//12 10//12
f 10//13 16//13 11//13 1//13
