# Blender v2.92.0 OBJ File: ''
# www.blender.org
mtllib CG10_500_041067_0004.mtl
o CG10_500_041067_0004
v 407.498199 108.186981 -131.161407
v 410.306793 75.000000 -179.776367
v 404.858337 75.000000 -85.225471
v 396.137512 75.000000 -17.656633
v 400.085236 75.000000 -85.683372
v 355.621033 107.618942 -135.347534
v 348.040466 108.246872 -20.426159
v 351.562439 108.263412 -81.530182
v 353.948517 75.000000 -183.416702
v 355.607208 75.000000 -206.936157
v 325.896667 127.032860 -108.722336
v 303.814972 75.000000 -38.705254
v 302.917053 75.000000 -23.026602
v 294.957153 75.000000 -234.412064
v 293.526459 75.000000 -211.111465
v 273.953766 127.161705 -111.888031
v 262.164673 135.993530 -124.666534
v 202.073029 136.200272 -128.407898
v 190.434875 145.000000 -141.133728
v 172.810791 75.000000 -240.963837
v 177.898895 75.000000 -354.414978
v 155.669739 75.000000 -23.273638
v 158.066467 75.000000 -47.092728
v 134.600296 144.921555 -144.239426
v 104.223442 120.574173 -180.262878
v 106.850090 120.229652 -227.728180
v 99.413208 120.277031 -112.500023
v 92.368591 119.184143 -26.840628
v 98.910172 127.459381 -283.664795
v 96.584358 127.682182 -238.985245
v 33.212975 75.000000 -30.309166
v 42.339622 75.000000 -170.518387
v 31.536507 75.000000 -362.855438
v 20.320847 75.000000 -172.447372
v 410.306793 0.000000 -179.776367
v 404.858337 0.000000 -85.225471
v 400.085236 0.000000 -85.683372
v 396.137512 0.000000 -17.656633
v 302.917053 0.000000 -23.026602
v 303.814972 0.000000 -38.705254
v 158.066467 0.000000 -47.092728
v 155.669739 0.000000 -23.273638
v 33.212975 0.000000 -30.309166
v 42.339622 0.000000 -170.518387
v 20.320847 0.000000 -172.447372
v 31.536507 0.000000 -362.855438
v 177.898895 0.000000 -354.414978
v 172.810791 0.000000 -240.963837
v 294.957153 0.000000 -234.412064
v 293.526459 0.000000 -211.111465
v 355.607208 0.000000 -206.936157
v 353.948517 0.000000 -183.416702
vn -0.0329 -0.8201 0.5713
vn -0.5688 -0.8221 -0.0255
vn 0.0310 0.8158 -0.5775
vn -0.5778 -0.8154 -0.0355
vn 0.0381 0.8230 -0.5668
vn 0.5708 0.8201 0.0403
vn 0.0363 0.8263 -0.5620
vn 0.0559 -0.8108 -0.5826
vn 0.5670 0.8230 0.0329
vn -0.5916 0.8055 -0.0339
vn -0.0339 0.8073 0.5892
vn 0.5692 0.8202 0.0573
vn -0.5965 0.8017 -0.0388
vn 0.0511 -0.8107 -0.5833
vn 0.5883 -0.8079 0.0347
vn 0.0574 0.0016 -0.9984
vn 0.0575 0.0000 -0.9983
vn -0.9983 -0.0002 -0.0575
vn 0.0000 -1.0000 0.0000
vn -0.9983 0.0000 -0.0575
vn 0.0955 0.0000 -0.9954
vn -0.9983 0.0000 -0.0579
vn 0.9984 0.0000 0.0572
vn -0.9950 0.0000 -0.1001
vn 0.0574 0.0000 -0.9984
vn 0.9979 0.0000 0.0650
vn 0.0873 0.0000 -0.9962
vn 0.9983 0.0000 0.0588
vn -0.0576 0.0000 0.9983
vn -0.9990 0.0000 -0.0448
vn -0.0536 0.0000 0.9986
vn -0.9981 0.0000 -0.0613
vn -0.0671 0.0000 0.9977
vn -0.9975 0.0000 -0.0703
vn -0.0645 0.0000 0.9979
usemtl None
s off
f 33//1 21//1 29//1
f 20//2 25//2 26//2 30//2 29//2 21//2
f 24//3 19//3 14//3 20//3 25//3
f 18//4 19//4 14//4 15//4
f 17//5 10//5 15//5 18//5
f 16//6 9//6 10//6 17//6
f 11//7 6//7 1//7 2//7 9//7 16//7
f 3//8 5//8 6//8 1//8
f 7//9 4//9 5//9 6//9 11//9 8//9
f 13//10 7//10 8//10 12//10
f 23//11 12//11 8//11 11//11 16//11 17//11 18//11 19//11 24//11 27//11
f 28//12 22//12 23//12 27//12
f 31//13 28//13 27//13 24//13 25//13 26//13 32//13
f 34//14 30//14 26//14 32//14
f 33//15 29//15 30//15 34//15
f 31//16 28//16 22//16
f 13//17 7//17 4//17
f 3//18 1//18 2//18
f 35//19 36//19 37//19 38//19 39//19 40//19 41//19 42//19 43//19 44//19 45//19 46//19 47//19 48//19 49//19 50//19 51//19 52//19
f 2//20 35//20 36//20 3//20
f 3//21 36//21 37//21 5//21
f 5//22 37//22 38//22 4//22
f 4//17 38//17 39//17 13//17
f 13//23 39//23 40//23 12//23
f 12//17 40//17 41//17 23//17
f 23//24 41//24 42//24 22//24
f 22//25 42//25 43//25 31//25
f 31//26 43//26 44//26 32//26
f 32//27 44//27 45//27 34//27
f 34//28 45//28 46//28 33//28
f 33//29 46//29 47//29 21//29
f 21//30 47//30 48//30 20//30
f 20//31 48//31 49//31 14//31
f 14//32 49//32 50//32 15//32
f 15//33 50//33 51//33 10//33
f 10//34 51//34 52//34 9//34
f 9//35 52//35 35//35 2//35
