# Blender v2.92.0 OBJ File: ''
# www.blender.org
mtllib CG10_500_039069_0014_roof.mtl
o CG10_500_039069_0014_roof
v 363.378052 75.000000 -113.985703
v 356.507080 75.000000 -6.043565
v 311.400299 145.000000 -61.398876
v 76.251350 144.884583 -76.332016
v 16.488520 75.000000 -27.761553
v 23.343191 75.000000 -135.446426
v 363.378052 0.000000 -113.985703
v 356.507080 0.000000 -6.043565
v 16.488520 0.000000 -27.761553
v 23.343191 0.000000 -135.446426
vt 0.043391 0.804500
vt 0.200660 0.462450
vt 0.061429 0.046152
vt 0.938180 0.957440
vt 0.819470 0.567610
vt 0.956260 0.197280
vn -0.7758 0.6291 -0.0494
vn -0.0510 0.5990 0.7991
vn 0.8201 0.5698 0.0522
vn -0.0493 -0.6230 0.7806
usemtl None
s off
f 5/1/1 4/2/1 6/3/1
f 5/1/2 2/4/2 3/5/2 4/2/2
f 2/4/3 1/6/3 3/5/3
f 6/3/4 1/6/4 3/5/4 4/2/4
