# Blender v2.92.0 OBJ File: ''
# www.blender.org
mtllib CG10_500_043061_0018_roof.mtl
o CG10_500_043061_0018_roof
v 30.784134 75.000000 -423.075623
v 133.642227 75.000000 -417.007965
v 152.320389 75.000000 -402.784119
v 133.771454 75.000000 -403.908356
v 81.104599 131.608627 -366.691528
v 134.208282 75.000023 -359.621704
v 149.691025 75.000000 -357.694183
v 155.380417 75.000000 -356.985901
v 79.723732 133.681046 -309.847687
v 89.671867 144.930298 -297.767120
v 79.404999 145.000000 -122.148117
v 63.938759 129.443161 -109.812782
v 61.777775 129.611191 -70.378487
v 110.495316 75.000000 -61.066326
v 138.096375 75.000000 -59.537338
v 108.378403 75.000000 -19.526754
v 7.389245 75.000000 -25.454575
v 30.784134 0.000000 -423.075623
v 133.642227 0.000000 -417.007965
v 133.771454 0.000000 -403.908356
v 152.320389 0.000000 -402.784119
v 149.691025 0.000000 -357.694183
v 155.380417 0.000000 -356.985901
v 138.096375 0.000000 -59.537338
v 110.495316 0.000000 -61.066326
v 108.378403 0.000000 -19.526754
v 7.389245 0.000000 -25.454575
vt 0.045613 0.942540
vt 0.669000 0.955920
vt 0.381340 0.841130
vt 0.394680 0.752120
vt 0.682070 0.862150
vt 0.490150 0.724270
vt 0.852450 0.865600
vt 0.553530 0.327840
vt 0.959140 0.194160
vt 0.190030 0.044976
vt 0.500650 0.172250
vt 0.824950 0.058673
vt 0.492120 0.300570
vt 0.924020 0.192560
vt 0.828450 0.188210
vt 0.825750 0.088243
vt 0.940250 0.090781
vn -0.0440 0.6604 0.7496
vn 0.7425 0.6688 0.0378
vn 0.0422 -0.6462 -0.7620
vn -0.7461 -0.6644 -0.0434
vn 0.0429 0.6857 -0.7267
vn 0.7252 -0.6872 0.0427
vn 0.0893 0.6912 -0.7171
vn -0.7298 -0.6837 0.0072
vn -0.0000 -1.0000 0.0000
usemtl None
s off
f 17/1/1 16/2/1 13/3/1
f 12/4/2 13/3/2 16/2/2 14/5/2
f 12/4/3 11/6/3 15/7/3 14/5/3
f 11/6/4 10/8/4 8/9/4 15/7/4
f 1/10/5 5/11/5 2/12/5
f 1/10/6 5/11/6 9/13/6 10/8/6 11/6/6 12/4/6 13/3/6 17/1/6
f 9/13/7 10/8/7 8/9/7 7/14/7 6/15/7
f 9/13/8 5/11/8 2/12/8 4/16/8 6/15/8
f 4/16/9 3/17/9 7/14/9 6/15/9
