# Blender v2.92.0 OBJ File: ''
# www.blender.org
mtllib CG10_500_037058_0028_roof.mtl
o CG10_500_037058_0028_roof
v 293.732269 75.000000 -9.565510
v 306.346466 75.000000 -199.198212
v 234.644913 129.385025 -81.584129
v 234.466309 130.867508 -105.075905
v 219.108780 144.974701 -123.297470
v 165.206451 75.000000 -18.088425
v 162.959549 75.000000 -41.692902
v 102.601021 145.000000 -131.057220
v 12.464579 75.000000 -51.676449
v 23.534262 75.000000 -218.106079
v 293.732269 0.000000 -9.565510
v 306.346466 0.000000 -199.198212
v 23.534262 0.000000 -218.106079
v 12.464579 0.000000 -51.676449
v 162.959549 0.000000 -41.692902
v 165.206451 0.000000 -18.088425
vt 0.915050 0.958050
vt 0.954350 0.126320
vt 0.682580 0.459220
vt 0.730420 0.539140
vt 0.730980 0.642170
vt 0.038830 0.773350
vt 0.507660 0.817140
vt 0.319630 0.425190
vt 0.514660 0.920660
vt 0.073315 0.043394
vn 0.6477 0.7607 0.0431
vn -0.0420 0.7726 0.6335
vn -0.0413 0.7807 0.6235
vn -0.5837 0.8101 0.0556
vn -0.6358 0.7707 -0.0423
vn 0.0434 0.7589 -0.6497
usemtl None
s off
f 1/1/1 2/2/1 5/3/1 4/4/1 3/5/1
f 9/6/2 7/7/2 4/4/2 5/3/2 8/8/2
f 6/9/3 1/1/3 3/5/3
f 7/7/4 6/9/4 3/5/4 4/4/4
f 10/10/5 9/6/5 8/8/5
f 10/10/6 8/8/6 5/3/6 2/2/6
