# Blender v2.92.0 OBJ File: ''
# www.blender.org
mtllib CG10_500_038058_0023.mtl
o CG10_500_038058_0023
v 197.399384 75.000000 -10.817560
v 85.255516 75.000000 -16.248264
v 298.976685 75.000000 -27.279261
v 198.768219 75.000000 -32.556229
v 145.144272 120.832733 -69.203629
v 89.371101 75.000000 -90.571571
v 15.219049 75.000000 -94.616310
v 146.574982 120.907242 -93.368660
v 302.680664 75.000000 -101.252144
v 316.002411 75.000000 -101.772163
v 219.968658 145.000000 -119.976547
v 178.018295 144.929520 -122.096489
v 153.857742 124.317757 -148.349442
v 78.457230 124.132080 -152.231506
v 270.797272 115.913429 -152.905899
v 255.753418 116.438057 -152.996979
v 320.772491 75.000000 -200.268097
v 21.038532 75.000000 -214.802032
v 197.399384 0.000000 -10.817560
v 85.255516 0.000000 -16.248264
v 89.371101 0.000000 -90.571571
v 15.219049 0.000000 -94.616310
v 21.038532 0.000000 -214.802032
v 320.772491 0.000000 -200.268097
v 316.002411 0.000000 -101.772163
v 302.680664 0.000000 -101.252144
v 298.976685 0.000000 -27.279261
v 198.768219 0.000000 -32.556229
vn -0.0239 -0.7908 -0.6116
vn -0.6414 -0.7665 -0.0321
vn -0.0326 0.7840 0.6199
vn 0.6333 0.7729 0.0399
vn -0.0307 0.7727 0.6340
vn -0.6265 0.7786 -0.0347
vn -0.0342 0.7787 0.6265
vn 0.6304 -0.7756 0.0305
vn -0.6509 -0.7585 -0.0315
vn -0.0308 -0.7722 0.6346
vn 0.0000 -1.0000 0.0000
vn 0.0484 0.0000 -0.9988
vn 0.9985 0.0000 0.0553
vn 0.0545 0.0000 -0.9985
vn 0.9988 0.0000 0.0484
vn -0.0484 0.0000 0.9988
vn -0.9988 0.0000 -0.0484
vn -0.0390 0.0000 -0.9992
vn -0.9987 0.0000 -0.0500
vn 0.0526 0.0000 -0.9986
vn -0.9980 0.0000 -0.0628
usemtl None
s off
f 16//1 15//1 10//1 9//1
f 3//2 11//2 16//2 9//2
f 4//3 3//3 11//3 12//3 8//3
f 1//4 4//4 8//4 5//4
f 2//5 1//5 5//5
f 6//6 2//6 5//6 8//6 12//6 13//6
f 7//7 6//7 13//7 14//7
f 7//8 18//8 14//8
f 15//9 17//9 10//9
f 18//10 17//10 15//10 16//10 11//10 12//10 13//10 14//10
f 19//11 20//11 21//11 22//11 23//11 24//11 25//11 26//11 27//11 28//11
f 1//12 19//12 20//12 2//12
f 2//13 20//13 21//13 6//13
f 6//14 21//14 22//14 7//14
f 7//15 22//15 23//15 18//15
f 18//16 23//16 24//16 17//16
f 17//17 24//17 25//17 10//17
f 10//18 25//18 26//18 9//18
f 9//19 26//19 27//19 3//19
f 3//20 27//20 28//20 4//20
f 4//21 28//21 19//21 1//21
