# Blender v2.92.0 OBJ File: ''
# www.blender.org
mtllib CG10_500_036058_0008.mtl
o CG10_500_036058_0008
v 15.320092 75.000000 -17.806192
v 27.718658 75.000000 -253.657745
v 70.261681 118.294502 -68.201508
v 73.965889 118.427490 -135.609375
v 107.633705 144.962753 -166.382980
v 123.492836 75.000000 -79.537483
v 119.629250 75.000000 -12.166872
v 220.137222 145.000000 -160.291092
v 298.175659 75.000000 -70.007629
v 307.291840 75.000000 -238.629074
v 15.320092 0.000000 -17.806192
v 27.718658 0.000000 -253.657745
v 307.291840 0.000000 -238.629074
v 298.175659 0.000000 -70.007629
v 123.492836 0.000000 -79.537483
v 119.629250 0.000000 -12.166872
vn -0.0340 0.7761 0.6297
vn -0.6352 -0.7715 -0.0364
vn 0.0344 -0.7752 -0.6308
vn -0.6447 -0.7637 -0.0349
vn -0.6374 0.7698 -0.0335
vn 0.0346 0.7641 -0.6442
vn 0.0000 -1.0000 0.0000
vn 0.9986 0.0000 0.0525
vn -0.0537 0.0000 0.9986
vn -0.9985 0.0000 -0.0540
vn 0.0545 0.0000 -0.9985
vn -0.9984 0.0000 -0.0573
vn 0.0540 0.0000 -0.9985
usemtl None
s off
f 3//1 1//1 7//1
f 6//2 7//2 3//2 4//2
f 9//3 6//3 4//3 5//3 8//3
f 10//4 9//4 8//4
f 5//5 2//5 1//5 3//5 4//5
f 2//6 5//6 8//6 10//6
f 11//7 12//7 13//7 14//7 15//7 16//7
f 1//8 11//8 12//8 2//8
f 2//9 12//9 13//9 10//9
f 10//10 13//10 14//10 9//10
f 9//11 14//11 15//11 6//11
f 6//12 15//12 16//12 7//12
f 7//13 16//13 11//13 1//13
