# Blender v2.92.0 OBJ File: ''
# www.blender.org
mtllib CG10_500_040068_0006.mtl
o CG10_500_040068_0006
v 407.631989 75.000000 -243.264999
v 392.561096 75.000000 -12.957660
v 314.447845 144.607346 -18.138144
v 324.341309 144.664352 -170.307587
v 238.782822 75.000000 -100.442795
v 233.813599 75.000000 -23.496370
v 89.527565 145.000000 -186.073166
v 30.356056 75.000000 -269.204712
v 21.094389 75.000000 -114.721420
v 20.103317 75.000000 -114.786423
v 407.631989 0.000000 -243.264999
v 392.561096 0.000000 -12.957660
v 233.813599 0.000000 -23.496370
v 238.782822 0.000000 -100.442795
v 21.094389 0.000000 -114.721420
v 20.103317 0.000000 -114.786423
v 30.356056 0.000000 -269.204712
vn -0.0444 0.7341 0.6776
vn -0.6513 0.7577 -0.0421
vn 0.6631 0.7473 0.0434
vn -0.0455 -0.7479 0.6622
vn 0.7335 -0.6779 0.0487
vn -0.0662 -0.0001 0.9978
vn 0.0000 -1.0000 0.0000
vn -0.9979 0.0000 -0.0653
vn 0.0662 0.0000 -0.9978
vn 0.9979 0.0000 0.0644
vn 0.0655 0.0000 -0.9979
vn 0.0654 0.0000 -0.9979
vn 0.9978 0.0000 0.0663
vn -0.0686 0.0000 0.9976
usemtl None
s off
f 9//1 5//1 4//1 7//1 10//1
f 5//2 6//2 3//2 4//2
f 3//3 2//3 1//3 4//3
f 7//4 8//4 1//4 4//4
f 10//5 8//5 7//5
f 2//6 3//6 6//6
f 11//7 12//7 13//7 14//7 15//7 16//7 17//7
f 1//8 11//8 12//8 2//8
f 2//9 12//9 13//9 6//9
f 6//10 13//10 14//10 5//10
f 5//11 14//11 15//11 9//11
f 9//12 15//12 16//12 10//12
f 10//13 16//13 17//13 8//13
f 8//14 17//14 11//14 1//14
