# Blender v2.92.0 OBJ File: ''
# www.blender.org
mtllib CG10_500_040067_0018.mtl
o CG10_500_040067_0018
v 33.756763 75.000000 -404.383514
v 11.560436 75.000000 -25.366203
v 62.476387 110.594673 -65.883415
v 68.740265 110.990433 -163.627197
v 112.405052 75.000000 -115.124985
v 123.061554 145.000000 -299.206055
v 105.793587 75.000000 -19.825220
v 117.488724 144.993423 -204.199295
v 135.460266 132.821381 -229.071304
v 162.522232 132.842026 -227.492157
v 209.286148 75.000000 -150.712631
v 218.383575 75.000000 -305.559814
v 223.533432 75.000000 -393.215393
v 206.871490 75.000000 -109.612717
v 245.023575 75.000000 -304.033844
v 235.907883 75.000000 -149.133194
v 33.756763 0.000000 -404.383514
v 11.560436 0.000000 -25.366203
v 105.793587 0.000000 -19.825220
v 112.405052 0.000000 -115.124985
v 206.871490 0.000000 -109.612717
v 209.286148 0.000000 -150.712631
v 235.907883 0.000000 -149.133194
v 245.023575 0.000000 -304.033844
v 218.383575 0.000000 -305.559814
v 223.533432 0.000000 -393.215393
vn 0.0372 -0.7735 -0.6327
vn 0.6072 0.7934 0.0421
vn -0.0360 0.7868 0.6162
vn 0.5930 0.8044 0.0348
vn -0.0365 0.7874 0.6154
vn 0.0332 0.8143 -0.5795
vn 0.5953 0.8027 0.0350
vn -0.0337 -0.8186 0.5734
vn 0.5910 -0.8060 0.0346
vn 0.0000 1.0000 0.0000
vn -0.9983 0.0000 -0.0585
vn -0.0587 0.0000 0.9983
vn 0.9976 0.0000 0.0692
vn -0.0583 0.0000 0.9983
vn 0.9983 0.0000 0.0586
vn -0.0592 0.0000 0.9982
vn 0.9983 0.0000 0.0587
vn 0.0572 0.0000 -0.9984
vn 0.0587 0.0000 -0.9983
usemtl None
s off
f 3//1 7//1 2//1
f 3//2 7//2 5//2 4//2
f 5//3 14//3 8//3 4//3
f 14//4 11//4 9//4 12//4 13//4 6//4 8//4
f 11//5 16//5 10//5 9//5
f 10//6 15//6 12//6 9//6
f 10//7 16//7 15//7
f 1//8 13//8 6//8
f 2//9 1//9 6//9 8//9 4//9 3//9
f 17//10 18//10 19//10 20//10 21//10 22//10 23//10 24//10 25//10 26//10
f 1//11 17//11 18//11 2//11
f 2//12 18//12 19//12 7//12
f 7//13 19//13 20//13 5//13
f 5//14 20//14 21//14 14//14
f 14//15 21//15 22//15 11//15
f 11//16 22//16 23//16 16//16
f 16//17 23//17 24//17 15//17
f 15//18 24//18 25//18 12//18
f 12//15 25//15 26//15 13//15
f 13//19 26//19 17//19 1//19
