# Blender v2.92.0 OBJ File: ''
# www.blender.org
mtllib CG10_500_042071_0014.mtl
o CG10_500_042071_0014
v 129.460876 75.000000 -16.681614
v 16.887365 75.000000 -151.334015
v 140.545700 144.995483 -142.660080
v 234.541916 145.000000 -221.249771
v 242.529541 75.000000 -340.009491
v 355.120514 75.000000 -205.336227
v 129.460876 0.000000 -16.681614
v 16.887365 0.000000 -151.334015
v 242.529541 0.000000 -340.009491
v 355.120514 0.000000 -205.336227
vn -0.4971 -0.7617 0.4156
vn -0.3950 -0.7879 -0.4725
vn 0.4050 -0.7755 0.4843
vn -0.4733 0.7871 0.3957
vn 0.0000 -1.0000 0.0000
vn 0.7672 0.0000 -0.6414
vn 0.6415 0.0000 0.7671
vn -0.7672 0.0000 0.6414
vn -0.6414 0.0000 -0.7672
usemtl None
s off
f 5//1 6//1 4//1
f 6//2 1//2 3//2 4//2
f 2//3 5//3 4//3 3//3
f 2//4 1//4 3//4
f 7//5 8//5 9//5 10//5
f 1//6 7//6 8//6 2//6
f 2//7 8//7 9//7 5//7
f 5//8 9//8 10//8 6//8
f 6//9 10//9 7//9 1//9
