# Blender v2.92.0 OBJ File: ''
# www.blender.org
mtllib CG10_500_041069_0015.mtl
o CG10_500_041069_0015
v 28.905088 75.000000 -282.421844
v 433.989655 75.000000 -259.560089
v 107.404190 126.435211 -195.336197
v 249.201157 126.205437 -187.702835
v 327.097015 145.000000 -153.104156
v 279.935638 144.966461 -155.819687
v 20.232153 75.000000 -127.408264
v 156.815506 75.000000 -120.367203
v 380.061462 105.715691 -87.735336
v 206.191467 104.296036 -95.692657
v 322.967712 75.000000 -42.407539
v 246.125198 75.000000 -46.918671
v 245.239532 75.000000 -24.922434
v 320.580444 75.000000 -19.643641
v 151.847000 75.000000 -30.146141
v 202.978729 104.616394 -27.279747
v 420.205444 75.000000 -14.039865
v 374.479218 106.817596 -16.600983
v 28.905088 0.000000 -282.421844
v 433.989655 0.000000 -259.560089
v 420.205444 0.000000 -14.039865
v 320.580444 0.000000 -19.643641
v 322.967712 0.000000 -42.407539
v 246.125198 0.000000 -46.918671
v 245.239532 0.000000 -24.922434
v 151.847000 0.000000 -30.146141
v 156.815506 0.000000 -120.367203
v 20.232153 0.000000 -127.408264
vn -0.4999 0.8657 -0.0275
vn -0.0298 0.8149 0.5788
vn -0.5248 0.8507 -0.0294
vn -0.0298 -0.8487 0.5281
vn 0.0313 -0.8453 -0.5334
vn -0.5729 -0.8193 -0.0231
vn -0.5054 0.8612 -0.0530
vn -0.5697 -0.8213 -0.0320
vn -0.0562 -0.0003 0.9984
vn -0.0558 -0.0002 0.9984
vn 0.0000 -1.0000 0.0000
vn -0.0563 0.0000 0.9984
vn -0.9984 0.0000 -0.0561
vn 0.0562 0.0000 -0.9984
vn 0.9945 0.0000 0.1043
vn 0.0586 0.0000 -0.9983
vn -0.9992 0.0000 -0.0402
vn 0.0558 0.0000 -0.9984
vn 0.9985 0.0000 0.0550
vn 0.0515 0.0000 -0.9987
vn 0.9984 0.0000 0.0559
usemtl None
s off
f 8//1 15//1 16//1 10//1 6//1 4//1
f 7//2 8//2 4//2 3//2
f 1//3 7//3 3//3
f 2//4 5//4 6//4 4//4 3//4 1//4
f 9//5 11//5 12//5 10//5 6//5 5//5
f 13//6 16//6 10//6 12//6
f 14//7 18//7 9//7 11//7
f 17//8 18//8 9//8 5//8 2//8
f 17//9 18//9 14//9
f 13//10 16//10 15//10
f 19//11 20//11 21//11 22//11 23//11 24//11 25//11 26//11 27//11 28//11
f 1//12 19//12 20//12 2//12
f 2//13 20//13 21//13 17//13
f 17//14 21//14 22//14 14//14
f 14//15 22//15 23//15 11//15
f 11//16 23//16 24//16 12//16
f 12//17 24//17 25//17 13//17
f 13//18 25//18 26//18 15//18
f 15//19 26//19 27//19 8//19
f 8//20 27//20 28//20 7//20
f 7//21 28//21 19//21 1//21
