# Blender v2.92.0 OBJ File: ''
# www.blender.org
mtllib CG10_500_041070_0044_roof.mtl
o CG10_500_041070_0044_roof
v 480.275482 75.000000 -180.291000
v 471.557922 75.000000 -54.523941
v 411.185455 126.931946 -124.061340
v 402.452850 126.932083 -124.666679
v 389.094788 114.326355 -140.404678
v 341.493347 75.000000 -93.031647
v 339.688660 75.000000 -63.662338
v 307.904388 75.000000 -94.925735
v 302.086731 75.000000 -10.206326
v 259.533295 110.834389 -70.880707
v 258.457977 110.954239 -57.496689
v 259.422546 115.012268 -148.589981
v 217.232956 75.000000 -29.073175
v 216.072174 75.000000 -16.172064
v 218.164932 144.954666 -116.268326
v 107.795036 145.000000 -123.867905
v 22.065453 75.000000 -42.411530
v 33.768471 75.000000 -211.250961
v 480.275482 0.000000 -180.291000
v 471.557922 0.000000 -54.523941
v 339.688660 0.000000 -63.662338
v 341.493347 0.000000 -93.031647
v 307.904388 0.000000 -94.925735
v 302.086731 0.000000 -10.206326
v 216.072174 0.000000 -16.172064
v 217.232956 0.000000 -29.073175
v 22.065453 0.000000 -42.411530
v 33.768471 0.000000 -211.250961
vt 0.043868 0.808090
vt 0.431870 0.868450
vt 0.515970 0.679270
vt 0.433730 0.473900
vt 0.214300 0.439510
vt 0.429570 0.926820
vt 0.513830 0.739830
vt 0.600570 0.953820
vt 0.612140 0.570470
vt 0.515750 0.327650
vt 0.678910 0.579040
vt 0.773550 0.364680
vt 0.675330 0.711940
vt 0.800110 0.435900
vt 0.937490 0.753290
vt 0.817470 0.438640
vt 0.954820 0.184200
vt 0.067134 0.044113
vn -0.0427 0.7795 0.6249
vn -0.6797 0.7310 -0.0612
vn -0.0437 0.7755 0.6299
vn 0.6081 0.7928 0.0418
vn -0.0348 0.7859 0.6174
vn -0.6601 0.7501 -0.0406
vn -0.0431 0.7822 0.6216
vn 0.6225 0.7814 0.0431
vn 0.0449 0.7608 -0.6475
vn -0.6574 0.7521 -0.0456
usemtl None
s off
f 17/1/1 13/2/1 10/3/1 15/4/1 16/5/1
f 13/2/2 14/6/2 11/7/2 10/3/2
f 14/6/3 9/8/3 11/7/3
f 9/8/4 8/9/4 12/10/4 15/4/4 10/3/4 11/7/4
f 8/9/5 6/11/5 5/12/5 12/10/5
f 7/13/6 4/14/6 5/12/6 6/11/6
f 7/13/7 2/15/7 3/16/7 4/14/7
f 3/16/8 2/15/8 1/17/8
f 3/16/9 1/17/9 18/18/9 16/5/9 15/4/9 12/10/9 5/12/9 4/14/9
f 17/1/10 16/5/10 18/18/10
