# Blender v2.92.0 OBJ File: ''
# www.blender.org
mtllib CG10_500_044068_0043_roof.mtl
o CG10_500_044068_0043_roof
v 58.274353 75.000000 -373.186768
v 290.647125 75.000000 -300.192627
v 111.138206 136.209290 -274.961182
v 179.674545 136.232407 -253.401352
v 187.285034 144.979050 -239.347488
v 13.310937 75.000000 -230.225693
v 81.381264 75.000000 -208.784103
v 149.880920 145.000000 -120.429794
v 201.741760 75.000000 -17.348202
v 37.392185 75.000000 -69.038605
v 58.274353 0.000000 -373.186768
v 290.647125 0.000000 -300.192627
v 201.741760 0.000000 -17.348202
v 37.392185 0.000000 -69.038605
v 81.381264 0.000000 -208.784103
v 13.310937 0.000000 -230.225693
vt 0.661450 0.955740
vt 0.122600 0.823880
vt 0.491410 0.692780
vt 0.614050 0.389420
vt 0.952940 0.234200
vt 0.589100 0.353570
vt 0.266820 0.467390
vt 0.364390 0.298570
vt 0.043642 0.412690
vt 0.191060 0.047993
vn 0.1937 -0.7636 -0.6160
vn -0.6265 -0.7541 -0.1969
vn -0.5781 0.7954 -0.1820
vn -0.1945 0.7622 0.6175
vn -0.5801 0.7938 -0.1825
vn 0.1852 0.7862 -0.5896
usemtl None
s off
f 9/1/1 10/2/1 8/3/1
f 9/1/2 8/3/2 5/4/2 2/5/2
f 10/2/3 8/3/3 5/4/3 4/6/3 7/7/3
f 7/7/4 4/6/4 3/8/4 6/9/4
f 6/9/5 3/8/5 1/10/5
f 1/10/6 3/8/6 4/6/6 5/4/6 2/5/6
