# Blender v2.92.0 OBJ File: ''
# www.blender.org
mtllib CG10_500_041059_0026_roof.mtl
o CG10_500_041059_0026_roof
v 40.809666 75.000000 -476.491180
v 191.618561 75.000000 -466.229004
v 117.829231 133.329758 -392.797974
v 183.781326 75.000000 -346.695251
v 215.537201 75.000000 -344.346588
v 110.196327 133.427460 -278.142975
v 125.399155 144.899689 -262.489777
v 232.495087 75.000000 -166.235352
v 203.957596 75.000000 -167.975403
v 117.131599 145.000000 -138.417496
v 169.388687 121.721802 -105.533432
v 143.235443 121.775612 -107.053772
v 76.191505 117.694595 -105.516762
v 73.186180 116.519646 -85.752617
v 224.055283 75.000000 -42.317883
v 126.999634 75.000000 -47.702747
v 10.622269 75.000000 -31.124779
v 121.155281 75.000000 -23.583542
v 40.809666 0.000000 -476.491180
v 191.618561 0.000000 -466.229004
v 183.781326 0.000000 -346.695251
v 215.537201 0.000000 -344.346588
v 203.957596 0.000000 -167.975403
v 232.495087 0.000000 -166.235352
v 224.055283 0.000000 -42.317883
v 126.999634 0.000000 -47.702747
v 121.155281 0.000000 -23.583542
v 10.622269 0.000000 -31.124779
vt 0.480940 0.215970
vt 0.166570 0.048920
vt 0.782120 0.069403
vt 0.449780 0.444820
vt 0.750130 0.307990
vt 0.511830 0.476070
vt 0.879740 0.312680
vt 0.043356 0.937870
vt 0.478090 0.723720
vt 0.310990 0.789390
vt 0.298720 0.828840
vt 0.584630 0.786320
vt 0.832480 0.664720
vt 0.691380 0.789350
vt 0.948960 0.668190
vt 0.914510 0.915530
vt 0.518370 0.904780
vt 0.494510 0.952930
vn -0.0406 -0.8018 0.5962
vn -0.6451 -0.7629 -0.0423
vn -0.0458 -0.7840 0.6191
vn 0.5760 -0.8165 0.0390
vn -0.6357 -0.7708 -0.0417
vn -0.0357 -0.8096 0.5860
vn -0.6204 -0.7831 -0.0423
vn 0.0340 -0.7894 -0.6129
vn -0.5453 -0.8278 -0.1321
vn 0.0393 -0.8167 -0.5757
usemtl None
s off
f 3/1/1 1/2/1 2/3/1
f 6/4/2 3/1/2 2/3/2 4/5/2
f 7/6/3 6/4/3 4/5/3 5/7/3
f 17/8/4 1/2/4 3/1/4 6/4/4 7/6/4 10/9/4 13/10/4 14/11/4
f 12/12/5 10/9/5 7/6/5 5/7/5 9/13/5
f 11/14/6 12/12/6 9/13/6 8/15/6
f 15/16/7 11/14/7 8/15/7
f 16/17/8 13/10/8 10/9/8 12/12/8 11/14/8 15/16/8
f 18/18/9 14/11/9 13/10/9 16/17/9
f 14/11/10 18/18/10 17/8/10
