# Blender v2.92.0 OBJ File: ''
# www.blender.org
mtllib CG10_500_048074_0021.mtl
o CG10_500_048074_0021
v 338.325958 75.000000 -246.462326
v 33.779758 75.000000 -268.099426
v 256.983673 144.837128 -175.539001
v 102.572479 145.000000 -186.330566
v 82.590782 127.348885 -169.859177
v 327.940674 75.000000 -100.045143
v 135.791534 75.000000 -113.269234
v 128.677887 75.000000 -12.450929
v 16.184479 75.000000 -20.429720
v 71.731575 127.383286 -16.489576
v 338.325958 0.000000 -246.462326
v 33.779758 0.000000 -268.099426
v 16.184479 0.000000 -20.429720
v 128.677887 0.000000 -12.450929
v 135.791534 0.000000 -113.269234
v 327.940674 0.000000 -100.045143
vn -0.6743 -0.7369 -0.0478
vn 0.6835 -0.7284 0.0486
vn -0.6744 -0.7368 -0.0476
vn -0.0478 -0.7386 0.6725
vn 0.0483 -0.7102 -0.7024
vn 0.0707 0.0000 -0.9975
vn 0.0000 1.0000 0.0000
vn 0.0709 0.0000 -0.9975
vn -0.9975 0.0000 -0.0709
vn -0.0707 0.0000 0.9975
vn 0.9975 0.0000 0.0704
vn -0.0687 0.0000 0.9976
vn 0.9975 0.0000 0.0708
usemtl None
s off
f 6//1 3//1 1//1
f 2//2 4//2 5//2 10//2 9//2
f 10//3 5//3 7//3 8//3
f 1//4 3//4 4//4 2//4
f 6//5 7//5 5//5 4//5 3//5
f 9//6 10//6 8//6
f 11//7 12//7 13//7 14//7 15//7 16//7
f 1//8 11//8 12//8 2//8
f 2//9 12//9 13//9 9//9
f 9//10 13//10 14//10 8//10
f 8//11 14//11 15//11 7//11
f 7//12 15//12 16//12 6//12
f 6//13 16//13 11//13 1//13
