# Blender v2.92.0 OBJ File: ''
# www.blender.org
mtllib CG10_500_049066_0001_roof.mtl
o CG10_500_049066_0001_roof
v 18.741056 75.000000 -29.825308
v 308.746857 75.000000 -12.979491
v 108.068001 144.818710 -108.980347
v 219.199692 145.000000 -102.743958
v 88.923149 126.696243 -133.630005
v 260.325592 116.103722 -138.179245
v 31.396145 75.000000 -171.353424
v 317.068420 75.000000 -157.970505
v 15.677523 75.000000 -176.496765
v 90.845322 123.951340 -191.289505
v 288.891693 75.000000 -190.200577
v 169.145401 75.000000 -196.665833
v 71.854584 105.718948 -219.110870
v 59.790409 104.780579 -221.195175
v 166.482864 75.000000 -258.534393
v 20.935640 75.000000 -267.099335
v 18.741056 0.000000 -29.825308
v 308.746857 0.000000 -12.979491
v 317.068420 0.000000 -157.970505
v 288.891693 0.000000 -190.200577
v 169.145401 0.000000 -196.665833
v 166.482864 0.000000 -258.534393
v 20.935640 0.000000 -267.099335
v 15.677523 0.000000 -176.496765
v 31.396145 0.000000 -171.353424
vt 0.056449 0.894240
vt 0.325510 0.613540
vt 0.660240 0.635660
vt 0.929960 0.953970
vt 0.784110 0.510000
vt 0.955030 0.439820
vt 0.870160 0.325530
vt 0.267840 0.526130
vt 0.509470 0.302600
vt 0.273630 0.321670
vt 0.501450 0.083211
vt 0.216430 0.223010
vt 0.180090 0.215620
vt 0.063059 0.052839
vt 0.047221 0.374120
vt 0.094567 0.392360
vn 0.0370 -0.7698 -0.6372
vn -0.5941 -0.8037 -0.0341
vn -0.4468 -0.8049 0.3906
vn -0.0329 -0.7929 0.6085
vn -0.5288 -0.8484 0.0228
vn -0.0332 -0.8254 0.5636
vn 0.5825 -0.8121 0.0338
vn 0.1456 -0.8836 -0.4450
vn 0.6461 -0.7611 0.0578
usemtl None
s off
f 1/1/1 3/2/1 4/3/1 2/4/1
f 2/4/2 4/3/2 6/5/2 8/6/2
f 8/6/3 6/5/3 11/7/3
f 11/7/4 6/5/4 4/3/4 3/2/4 5/8/4 12/9/4
f 12/9/5 5/8/5 10/10/5 15/11/5
f 15/11/6 10/10/6 13/12/6 14/13/6 16/14/6
f 16/14/7 14/13/7 9/15/7
f 9/15/8 14/13/8 13/12/8 7/16/8
f 7/16/9 13/12/9 10/10/9 5/8/9 3/2/9 1/1/9
