# Blender v2.92.0 OBJ File: ''
# www.blender.org
mtllib CG10_500_048075_0056_roof.mtl
o CG10_500_048075_0056_roof
v 38.120239 75.000000 -282.038910
v 21.661703 75.000000 -40.104843
v 152.910614 144.822083 -152.186035
v 298.019501 145.000000 -142.640518
v 313.939575 75.000000 -287.845398
v 313.153442 75.000000 -264.538635
v 367.352844 106.769302 -232.213089
v 366.018677 106.513382 -205.863876
v 412.880066 106.836937 -229.018738
v 416.373901 75.000000 -177.855957
v 405.442841 75.000000 -14.043567
v 467.986206 75.000000 -277.411621
v 460.993866 75.000000 -174.619293
v 38.120239 0.000000 -282.038910
v 21.661703 0.000000 -40.104843
v 405.442841 0.000000 -14.043567
v 416.373901 0.000000 -177.855957
v 460.993866 0.000000 -174.619293
v 467.986206 0.000000 -277.411621
v 313.939575 0.000000 -287.845398
v 313.153442 0.000000 -264.538635
vt 0.044208 0.867200
vt 0.077796 0.066096
vt 0.312060 0.496070
vt 0.827430 0.953500
vt 0.608200 0.527680
vt 0.849740 0.411070
vt 0.749700 0.231080
vt 0.746980 0.318330
vt 0.940800 0.421790
vt 0.842610 0.241660
vt 0.955070 0.081419
vt 0.640690 0.046870
vt 0.639090 0.124040
vn 0.4915 -0.8702 0.0334
vn -0.0339 0.8656 0.4995
vn 0.5163 0.8557 0.0345
vn -0.0384 0.8472 0.5298
vn 0.5232 0.8515 0.0356
vn 0.0353 0.8529 -0.5209
vn -0.4981 0.8669 -0.0168
vn 0.0315 0.8684 -0.4948
usemtl None
s off
f 2/1/1 1/2/1 3/3/1
f 2/1/2 11/4/2 4/5/2 3/3/2
f 11/4/3 10/6/3 7/7/3 8/8/3 4/5/3
f 10/6/4 13/9/4 9/10/4 7/7/4
f 13/9/5 12/11/5 9/10/5
f 12/11/6 5/12/6 7/7/6 9/10/6
f 5/12/7 6/13/7 8/8/7 7/7/7
f 6/13/8 1/2/8 3/3/8 4/5/8 8/8/8
