# Blender v2.92.0 OBJ File: ''
# www.blender.org
mtllib CG10_500_048076_0056_roof.mtl
o CG10_500_048076_0056_roof
v 71.262764 145.000000 -270.530853
v 127.686867 75.000000 -294.751007
v 10.547148 75.000000 -244.449799
v 226.296722 75.000000 -64.808228
v 109.703911 75.000000 -14.742942
v 170.142654 144.672928 -40.686352
v 127.686867 0.000000 -294.751007
v 10.547148 0.000000 -244.449799
v 109.703911 0.000000 -14.742942
v 226.296722 0.000000 -64.808228
vt 0.714890 0.868330
vt 0.299420 0.124500
vt 0.536500 0.046113
vt 0.950830 0.790260
vt 0.044316 0.208900
vt 0.460940 0.952290
vn -0.6909 -0.6594 0.2963
vn -0.6676 0.6865 0.2882
vn 0.3946 -0.0001 0.9189
vn -0.3946 -0.0001 -0.9189
usemtl None
s off
f 6/1/1 1/2/1 2/3/1 4/4/1
f 6/1/2 1/2/2 3/5/2 5/6/2
f 4/4/3 6/1/3 5/6/3
f 3/5/4 1/2/4 2/3/4
