# Blender v2.92.0 OBJ File: ''
# www.blender.org
mtllib CG10_500_045073_0047.mtl
o CG10_500_045073_0047
v 20.924952 75.000000 -128.406067
v 101.583427 75.000000 -322.738617
v 101.395149 117.722237 -159.985321
v 108.570740 117.809334 -176.942780
v 159.904434 145.000000 -197.326401
v 129.422729 75.000000 -83.370178
v 136.529297 75.000000 -99.878395
v 293.750763 144.919434 -141.867462
v 356.138977 109.418854 -167.284531
v 376.173187 108.712700 -159.986816
v 342.379944 75.000000 -14.774206
v 380.230438 75.000000 -105.086182
v 433.352570 75.000000 -184.982025
v 397.918732 75.000000 -99.635178
v 20.924952 0.000000 -128.406067
v 101.583427 0.000000 -322.738617
v 433.352570 0.000000 -184.982025
v 397.918732 0.000000 -99.635178
v 380.230438 0.000000 -105.086182
v 342.379944 0.000000 -14.774206
v 136.529297 0.000000 -99.878395
v 129.422729 0.000000 -83.370178
vn 0.5228 -0.8244 0.2170
vn -0.2223 0.8147 0.5356
vn -0.5569 -0.7952 -0.2397
vn -0.2206 0.8165 0.5336
vn -0.5505 -0.8023 -0.2307
vn -0.1618 0.8356 0.5250
vn 0.5680 0.7885 0.2358
vn 0.2299 0.8004 -0.5537
vn 0.0000 -1.0000 0.0000
vn 0.9236 0.0000 0.3833
vn -0.3835 0.0000 0.9236
vn -0.9236 0.0000 -0.3834
vn 0.2945 0.0000 -0.9557
vn -0.9223 0.0000 -0.3865
vn 0.3821 0.0000 -0.9241
vn -0.9185 0.0000 -0.3954
vn 0.3834 0.0000 -0.9236
usemtl None
s off
f 1//1 2//1 5//1 4//1 3//1
f 1//2 6//2 3//2
f 3//3 4//3 7//3 6//3
f 7//4 11//4 8//4 5//4 4//4
f 8//5 9//5 12//5 11//5
f 12//6 14//6 10//6 9//6
f 14//7 13//7 10//7
f 13//8 2//8 5//8 8//8 9//8 10//8
f 15//9 16//9 17//9 18//9 19//9 20//9 21//9 22//9
f 1//10 15//10 16//10 2//10
f 2//11 16//11 17//11 13//11
f 13//12 17//12 18//12 14//12
f 14//13 18//13 19//13 12//13
f 12//14 19//14 20//14 11//14
f 11//15 20//15 21//15 7//15
f 7//16 21//16 22//16 6//16
f 6//17 22//17 15//17 1//17
