# Blender v2.92.0 OBJ File: ''
# www.blender.org
mtllib CG10_500_048066_0002_roof.mtl
o CG10_500_048066_0002_roof
v 10.206987 75.000000 -26.174519
v 212.769318 75.000000 -13.215198
v 107.072983 145.000000 -118.494431
v 159.681839 113.875069 -159.325851
v 22.874945 75.000000 -224.171509
v 111.502586 75.000000 -218.111511
v 163.686844 113.887856 -222.194839
v 229.426498 75.000000 -273.359039
v 115.469536 75.000000 -280.649628
v 10.206987 0.000000 -26.174519
v 212.769318 0.000000 -13.215198
v 229.426498 0.000000 -273.359039
v 115.469536 0.000000 -280.649628
v 111.502586 0.000000 -218.111511
v 22.874945 0.000000 -224.171509
vt 0.042529 0.910970
vt 0.446140 0.596960
vt 0.886540 0.955050
vt 0.665340 0.458080
vt 0.682030 0.244240
vt 0.955940 0.070207
vt 0.481120 0.045409
vt 0.464590 0.258120
vt 0.095312 0.237510
vn 0.0370 -0.8146 -0.5788
vn -0.5282 -0.8484 -0.0338
vn -0.0367 -0.8178 0.5744
vn 0.5990 -0.7998 0.0380
vn -0.0392 -0.8184 0.5733
vn 0.6094 -0.7919 0.0390
usemtl None
s off
f 1/1/1 3/2/1 2/3/1
f 2/3/2 3/2/2 4/4/2 7/5/2 8/6/2
f 8/6/3 7/5/3 9/7/3
f 9/7/4 7/5/4 4/4/4 6/8/4
f 6/8/5 4/4/5 3/2/5 5/9/5
f 5/9/6 3/2/6 1/1/6
