# Blender v2.92.0 OBJ File: ''
# www.blender.org
mtllib CG10_500_035063_0030.mtl
o CG10_500_035063_0030
v 25.175852 75.000000 -328.899353
v 229.109406 75.000000 -319.901520
v 103.097321 144.875961 -242.292206
v 140.543732 145.000000 -240.492401
v 182.462662 75.000000 -149.548004
v 221.461395 75.000000 -147.509842
v 96.684845 144.489914 -106.802032
v 11.803784 75.000000 -24.957355
v 175.769913 75.000000 -17.687088
v 25.175852 0.000000 -328.899353
v 229.109406 0.000000 -319.901520
v 221.461395 0.000000 -147.509842
v 182.462662 0.000000 -149.548004
v 175.769913 0.000000 -17.687088
v 11.803784 0.000000 -24.957355
vn -0.0279 0.7761 0.6300
vn -0.6496 0.7598 -0.0286
vn -0.0284 -0.7653 0.6430
vn 0.6353 0.7718 0.0282
vn -0.0323 0.7848 0.6189
vn 0.6389 0.7686 0.0324
vn 0.0000 -1.0000 0.0000
vn -0.0441 0.0000 0.9990
vn -0.9990 0.0000 -0.0443
vn 0.0522 0.0000 -0.9986
vn -0.9987 0.0000 -0.0507
vn 0.0443 0.0000 -0.9990
vn 0.9990 0.0000 0.0440
usemtl None
s off
f 8//1 9//1 7//1
f 1//2 8//2 7//2 3//2
f 4//3 3//3 1//3 2//3
f 6//4 2//4 4//4
f 5//5 6//5 4//5 3//5
f 9//6 5//6 3//6 7//6
f 10//7 11//7 12//7 13//7 14//7 15//7
f 1//8 10//8 11//8 2//8
f 2//9 11//9 12//9 6//9
f 6//10 12//10 13//10 5//10
f 5//11 13//11 14//11 9//11
f 9//12 14//12 15//12 8//12
f 8//13 15//13 10//13 1//13
