# Blender v2.92.0 OBJ File: ''
# www.blender.org
mtllib CG10_500_042067_0052.mtl
o CG10_500_042067_0052
v 25.880800 75.000000 -198.123886
v 332.900665 75.000000 -181.314651
v 279.926605 145.000000 -96.164719
v 68.917892 144.922089 -107.815369
v 16.380762 75.000000 -27.133448
v 323.385529 75.000000 -10.046923
v 25.880800 0.000000 -198.123886
v 332.900665 0.000000 -181.314651
v 323.385529 0.000000 -10.046923
v 16.380762 0.000000 -27.133448
vn 0.8233 -0.5658 0.0457
vn 0.0357 -0.7666 -0.6411
vn -0.8225 -0.5669 -0.0457
vn 0.0341 0.7823 -0.6219
vn 0.0000 -1.0000 0.0000
vn -0.0547 0.0000 0.9985
vn -0.9985 0.0000 -0.0555
vn 0.0556 0.0000 -0.9985
vn 0.9985 0.0000 0.0555
usemtl None
s off
f 5//1 1//1 4//1
f 5//2 4//2 3//2 6//2
f 6//3 3//3 2//3
f 2//4 1//4 4//4 3//4
f 7//5 8//5 9//5 10//5
f 1//6 7//6 8//6 2//6
f 2//7 8//7 9//7 6//7
f 6//8 9//8 10//8 5//8
f 5//9 10//9 7//9 1//9
