# Blender v2.92.0 OBJ File: ''
# www.blender.org
mtllib CG10_500_045071_0014_roof.mtl
o CG10_500_045071_0014_roof
v 257.496521 75.000000 -21.757526
v 319.376465 75.000000 -173.275253
v 281.290131 75.000000 -188.964386
v 305.075165 75.000000 -246.162888
v 211.513092 126.150795 -131.105591
v 248.157959 75.000000 -270.633667
v 292.473267 75.000000 -377.787567
v 174.274475 126.186295 -146.385422
v 158.054932 145.000000 -186.321152
v 187.263412 125.859177 -335.148163
v 142.753052 125.694435 -226.836700
v 145.319061 75.000000 -437.886597
v 15.710435 75.000000 -120.559563
v 257.496521 0.000000 -21.757526
v 319.376465 0.000000 -173.275253
v 281.290131 0.000000 -188.964386
v 305.075165 0.000000 -246.162888
v 248.157959 0.000000 -270.633667
v 292.473267 0.000000 -377.787567
v 145.319061 0.000000 -437.886597
v 15.710435 0.000000 -120.559563
vt 0.633270 0.714370
vt 0.956220 0.622490
vt 0.842190 0.588310
vt 0.521780 0.681080
vt 0.742990 0.410380
vt 0.427400 0.505800
vt 0.560670 0.269830
vt 0.875670 0.176930
vt 0.770950 0.952600
vt 0.473220 0.594070
vt 0.913400 0.463700
vt 0.047037 0.737340
vt 0.435090 0.045999
vn 0.2050 0.8427 -0.4978
vn -0.4917 -0.8467 -0.2034
vn -0.4819 -0.8539 -0.1968
vn 0.2079 0.8502 -0.4837
vn 0.4870 0.8496 0.2025
vn -0.1970 0.8536 0.4822
vn 0.2042 0.8416 -0.5000
vn -0.5071 0.8366 -0.2071
usemtl None
s off
f 5/1/1 2/2/1 3/3/1 8/4/1
f 6/5/2 11/6/2 10/7/2 7/8/2
f 5/1/3 2/2/3 1/9/3
f 9/10/4 4/11/4 6/5/4 11/6/4
f 9/10/5 8/4/5 3/3/5 4/11/5
f 9/10/6 13/12/6 1/9/6 5/1/6 8/4/6
f 10/7/7 7/8/7 12/13/7
f 12/13/8 13/12/8 9/10/8 11/6/8 10/7/8
