# Blender v2.92.0 OBJ File: ''
# www.blender.org
mtllib CG10_500_043069_0030.mtl
o CG10_500_043069_0030
v 298.705231 75.000000 -171.136063
v 232.481339 75.000000 -12.183300
v 174.024597 144.998520 -128.311340
v 114.017944 145.000000 -153.313126
v 80.974487 75.000000 -261.860870
v 14.745540 75.000000 -102.895927
v 298.705231 0.000000 -171.136063
v 232.481339 0.000000 -12.183300
v 14.745540 0.000000 -102.895927
v 80.974487 0.000000 -261.860870
vn -0.5343 -0.8155 -0.2226
vn 0.2450 -0.7709 -0.5880
vn 0.6423 -0.7182 0.2676
vn -0.2403 -0.7808 0.5767
vn 0.0000 -1.0000 0.0000
vn -0.9231 0.0000 -0.3846
vn 0.3846 0.0000 -0.9231
vn 0.9231 0.0000 0.3846
vn -0.3846 0.0000 0.9231
usemtl None
s off
f 2//1 3//1 1//1
f 2//2 6//2 4//2 3//2
f 6//3 5//3 4//3
f 5//4 1//4 3//4 4//4
f 7//5 8//5 9//5 10//5
f 1//6 7//6 8//6 2//6
f 2//7 8//7 9//7 6//7
f 6//8 9//8 10//8 5//8
f 5//9 10//9 7//9 1//9
