# Blender v2.92.0 OBJ File: ''
# www.blender.org
mtllib CG10_500_049072_0018_roof.mtl
o CG10_500_049072_0018_roof
v 269.819122 75.000000 -14.687301
v 155.442520 75.000000 -21.685677
v 217.144989 121.548676 -75.502686
v 12.938455 75.000000 -108.093155
v 160.333511 75.000000 -99.021538
v 221.912689 121.486908 -152.112198
v 106.706680 145.000000 -187.972931
v 195.426880 144.875977 -182.360764
v 225.800613 121.185997 -209.629669
v 228.521042 120.736427 -245.147659
v 23.444342 75.000000 -279.790863
v 171.145462 75.000000 -270.192841
v 287.262787 75.000000 -299.450195
v 174.510254 75.000000 -306.328033
v 269.819122 0.000000 -14.687301
v 155.442520 0.000000 -21.685677
v 160.333511 0.000000 -99.021538
v 12.938455 0.000000 -108.093155
v 23.444342 0.000000 -279.790863
v 171.145462 0.000000 -270.192841
v 174.510254 0.000000 -306.328033
v 287.262787 0.000000 -299.450195
vt 0.042985 0.664310
vt 0.077888 0.131080
vt 0.354510 0.416230
vt 0.532670 0.692480
vt 0.737250 0.527600
vt 0.649260 0.433660
vt 0.750170 0.348980
vt 0.568590 0.160890
vt 0.759210 0.238670
vt 0.579770 0.048671
vt 0.954360 0.070030
vt 0.896410 0.954390
vt 0.721410 0.765520
vt 0.516420 0.932650
vn 0.6183 -0.7850 0.0378
vn -0.0389 0.7737 0.6323
vn 0.0409 0.7764 -0.6290
vn -0.6071 0.7926 -0.0565
vn -0.0378 -0.7841 0.6195
vn -0.6361 -0.7707 -0.0390
vn 0.0384 -0.7772 -0.6281
vn 0.6235 -0.7809 0.0394
usemtl None
s off
f 4/1/1 11/2/1 7/3/1
f 4/1/2 5/4/2 6/5/2 8/6/2 7/3/2
f 8/6/3 9/7/3 12/8/3 11/2/3 7/3/3
f 9/7/4 10/9/4 14/10/4 12/8/4
f 14/10/5 13/11/5 10/9/5
f 13/11/6 1/12/6 3/13/6 6/5/6 8/6/6 9/7/6 10/9/6
f 1/12/7 2/14/7 3/13/7
f 2/14/8 5/4/8 6/5/8 3/13/8
