# Blender v2.92.0 OBJ File: ''
# www.blender.org
mtllib CG10_500_043067_0038.mtl
o CG10_500_043067_0038
v 149.334885 75.000000 -409.098053
v 13.316206 75.000000 -92.334923
v 178.018921 116.136635 -338.450958
v 138.795074 116.341621 -246.420776
v 158.275787 145.000000 -196.033600
v 98.064781 144.960373 -55.945358
v 247.568893 75.000000 -366.917725
v 209.025757 75.000000 -275.819092
v 192.128464 111.877037 -164.647751
v 279.357941 75.000000 -244.857178
v 217.786362 75.000000 -101.738144
v 256.145050 75.000000 -190.900360
v 182.491028 75.000000 -19.696468
v 263.703583 112.245926 -134.365189
v 283.151581 75.000000 -179.673767
v 244.714905 75.000000 -90.149796
v 149.334885 0.000000 -409.098053
v 13.316206 0.000000 -92.334923
v 182.491028 0.000000 -19.696468
v 217.786362 0.000000 -101.738144
v 244.714905 0.000000 -90.149796
v 283.151581 0.000000 -179.673767
v 256.145050 0.000000 -190.900360
v 279.357941 0.000000 -244.857178
v 209.025757 0.000000 -275.819092
v 247.568893 0.000000 -366.917725
vn -0.2420 0.7908 0.5622
vn 0.2314 0.7979 -0.5566
vn 0.2402 0.7933 -0.5595
vn 0.5649 0.7898 0.2390
vn -0.2415 -0.8004 0.5486
vn -0.5565 -0.7956 -0.2394
vn 0.5553 -0.7967 0.2385
vn 0.3945 0.0000 -0.9189
vn -0.9189 0.0001 -0.3945
vn 0.0000 1.0000 0.0000
vn -0.9189 0.0000 -0.3946
vn -0.3945 0.0000 0.9189
vn 0.9186 0.0000 0.3952
vn -0.3953 0.0000 0.9186
vn 0.9189 0.0000 0.3945
vn 0.3839 0.0000 -0.9234
vn 0.4029 0.0000 -0.9152
vn 0.9210 0.0000 0.3897
vn 0.3946 0.0000 -0.9189
usemtl None
s off
f 11//1 16//1 14//1 9//1
f 14//2 15//2 12//2 9//2
f 7//3 1//3 3//3
f 8//4 7//4 3//4 4//4
f 5//5 4//5 8//5 10//5
f 6//6 5//6 10//6 12//6 9//6 11//6 13//6
f 6//7 2//7 1//7 3//7 4//7 5//7
f 2//8 6//8 13//8
f 16//9 14//9 15//9
f 17//10 18//10 19//10 20//10 21//10 22//10 23//10 24//10 25//10 26//10
f 1//11 17//11 18//11 2//11
f 2//12 18//12 19//12 13//12
f 13//13 19//13 20//13 11//13
f 11//14 20//14 21//14 16//14
f 16//15 21//15 22//15 15//15
f 15//16 22//16 23//16 12//16
f 12//13 23//13 24//13 10//13
f 10//17 24//17 25//17 8//17
f 8//18 25//18 26//18 7//18
f 7//19 26//19 17//19 1//19
