# Blender v2.92.0 OBJ File: ''
# www.blender.org
mtllib CG10_500_047072_0014.mtl
o CG10_500_047072_0014
v 284.164825 75.000000 -19.829496
v 171.894470 75.000000 -25.022217
v 232.226059 113.798203 -81.374176
v 175.067322 75.000000 -94.139435
v 14.211634 75.000000 -101.571770
v 235.258957 113.808769 -147.100113
v 193.378189 144.998657 -193.833908
v 122.615372 145.000000 -197.105408
v 296.608124 75.000000 -288.168274
v 152.804993 75.000000 -294.820435
v 23.426392 75.000000 -300.805298
v 34.998669 75.000000 -300.269989
v 157.675598 75.000000 -400.126678
v 39.869270 75.000000 -405.575439
v 284.164825 0.000000 -19.829496
v 171.894470 0.000000 -25.022217
v 175.067322 0.000000 -94.139435
v 14.211634 0.000000 -101.571770
v 23.426392 0.000000 -300.805298
v 34.998669 0.000000 -300.269989
v 39.869270 0.000000 -405.575439
v 157.675598 0.000000 -400.126678
v 152.804993 0.000000 -294.820435
v 296.608124 0.000000 -288.168274
vn -0.5582 0.8293 -0.0258
vn -0.0264 0.8204 0.5712
vn -0.0254 0.8359 0.5483
vn -0.5575 0.8298 -0.0256
vn 0.5777 0.8158 0.0268
vn -0.0267 -0.8165 0.5767
vn 0.0000 -1.0000 -0.0000
vn 0.0462 0.0000 -0.9989
vn 0.9989 0.0000 0.0459
vn 0.9989 0.0000 0.0462
vn -0.0462 0.0000 0.9989
vn -0.9989 0.0000 -0.0462
vn -0.9989 0.0000 -0.0463
usemtl None
s off
f 11//1 5//1 8//1
f 5//2 4//2 6//2 7//2 8//2
f 2//3 1//3 3//3
f 4//4 2//4 3//4 6//4
f 1//5 9//5 7//5 6//5 3//5
f 8//6 11//6 12//6 10//6 9//6 7//6
f 12//7 14//7 13//7 10//7
f 15//7 16//7 17//7 18//7 19//7 20//7 21//7 22//7 23//7 24//7
f 1//8 15//8 16//8 2//8
f 2//9 16//9 17//9 4//9
f 4//8 17//8 18//8 5//8
f 5//10 18//10 19//10 11//10
f 11//11 19//11 20//11 12//11
f 12//10 20//10 21//10 14//10
f 14//11 21//11 22//11 13//11
f 13//12 22//12 23//12 10//12
f 10//11 23//11 24//11 9//11
f 9//13 24//13 15//13 1//13
