# Blender v2.92.0 OBJ File: ''
# www.blender.org
mtllib CG10_500_039072_0012_roof.mtl
o CG10_500_039072_0012_roof
v 175.396057 75.000000 -18.928621
v 82.513779 75.000000 -23.464552
v 84.711418 75.000000 -71.140442
v 9.702418 75.000000 -75.456635
v 133.400848 114.463165 -69.912071
v 135.630096 114.511703 -116.972733
v 103.190674 145.000000 -156.465652
v 188.106308 75.000000 -280.822693
v 199.669479 75.000000 -280.392303
v 109.964783 144.937698 -294.598999
v 148.649094 112.215637 -331.915985
v 158.462341 112.170105 -331.490021
v 204.231018 75.000000 -373.790253
v 24.940369 75.000000 -382.569366
v 175.396057 0.000000 -18.928621
v 82.513779 0.000000 -23.464552
v 84.711418 0.000000 -71.140442
v 9.702418 0.000000 -75.456635
v 24.940369 0.000000 -382.569366
v 204.231018 0.000000 -373.790253
v 199.669479 0.000000 -280.392303
v 188.106308 0.000000 -280.822693
vt 0.044919 0.813230
vt 0.392180 0.823910
vt 0.627920 0.710460
vt 0.477730 0.612710
vt 0.115460 0.053046
vt 0.509100 0.270790
vt 0.945510 0.074777
vt 0.733620 0.179480
vt 0.688190 0.178430
vt 0.617600 0.826950
vt 0.382010 0.941920
vt 0.812020 0.953150
vt 0.870860 0.304890
vt 0.924400 0.305960
vn -0.0362 0.7764 0.6291
vn 0.6159 -0.7872 0.0306
vn -0.0314 -0.7674 0.6404
vn 0.6290 -0.7769 0.0290
vn 0.6634 0.7476 0.0322
vn 0.0306 -0.7780 -0.6275
vn -0.0223 0.7998 0.5998
vn 0.6476 0.7614 0.0316
usemtl None
s off
f 4/1/1 3/2/1 6/3/1 7/4/1
f 4/1/2 14/5/2 10/6/2 7/4/2
f 14/5/3 13/7/3 12/8/3 11/9/3 10/6/3
f 3/2/4 6/3/4 5/10/4 2/11/4
f 1/12/5 8/13/5 11/9/5 10/6/5 7/4/5 6/3/5 5/10/5
f 2/11/6 5/10/6 1/12/6
f 9/14/7 12/8/7 11/9/7 8/13/7
f 13/7/8 12/8/8 9/14/8
