# Blender v2.92.0 OBJ File: ''
# www.blender.org
mtllib CG10_500_037071_0013.mtl
o CG10_500_037071_0013
v 65.105576 75.000000 -300.980225
v 30.680851 75.000000 -135.038101
v 47.786083 144.823013 -217.495239
v 15.649289 75.000000 -62.578415
v 136.193115 75.000000 -14.560138
v 155.763916 75.000000 -108.899513
v 328.825653 145.000000 -158.984528
v 346.188690 75.000000 -242.681213
v 311.676727 75.000000 -76.318436
v 65.105576 0.000000 -300.980225
v 30.680851 0.000000 -135.038101
v 15.649289 0.000000 -62.578415
v 136.193115 0.000000 -14.560138
v 155.763916 0.000000 -108.899513
v 311.676727 0.000000 -76.318436
v 346.188690 0.000000 -242.681213
vn 0.1287 0.7737 -0.6204
vn -0.1306 0.7698 0.6248
vn 0.0000 -1.0000 -0.0000
vn 0.9792 0.0000 0.2031
vn -0.9792 -0.0000 -0.2031
vn 0.0000 1.0000 0.0000
vn -0.3701 0.0000 0.9290
vn -0.2046 0.0000 0.9789
vn 0.2031 0.0000 -0.9792
usemtl None
s off
f 3//1 7//1 8//1 1//1
f 3//2 2//2 6//2 9//2 7//2
f 6//3 5//3 4//3 2//3
f 1//4 3//4 2//4
f 9//5 7//5 8//5
f 10//6 11//6 12//6 13//6 14//6 15//6 16//6
f 1//5 10//5 11//5 2//5
f 2//5 11//5 12//5 4//5
f 4//7 12//7 13//7 5//7
f 5//4 13//4 14//4 6//4
f 6//8 14//8 15//8 9//8
f 9//4 15//4 16//4 8//4
f 8//9 16//9 10//9 1//9
