# Blender v2.92.0 OBJ File: ''
# www.blender.org
mtllib CG10_500_040070_0061_roof.mtl
o CG10_500_040070_0061_roof
v 23.137896 75.000000 -205.233673
v 18.192076 75.000000 -123.092026
v 57.493828 75.000000 -120.725632
v 63.012123 75.000000 -212.409454
v 62.437801 75.000000 -202.867386
v 56.062599 75.000000 -96.946388
v 110.894569 75.000000 -94.241776
v 105.663307 75.000000 -21.234301
v 113.845871 117.876328 -153.985901
v 167.088318 117.654785 -151.050247
v 197.840912 145.000000 -113.890411
v 203.341309 139.376221 -120.817116
v 282.494019 139.126831 -116.349617
v 289.882996 75.000000 -10.143509
v 288.337860 75.000000 -22.592657
v 321.648041 112.655235 -148.151779
v 333.239960 112.219490 -148.012863
v 367.408173 75.000000 -18.492886
v 371.531281 75.000000 -91.071938
v 383.425049 75.000000 -91.635193
v 389.520844 75.000000 -192.652817
v 23.137896 0.000000 -205.233673
v 18.192076 0.000000 -123.092026
v 57.493828 0.000000 -120.725632
v 56.062599 0.000000 -96.946388
v 110.894569 0.000000 -94.241776
v 105.663307 0.000000 -21.234301
v 289.882996 0.000000 -10.143509
v 288.337860 0.000000 -22.592657
v 367.408173 0.000000 -18.492886
v 371.531281 0.000000 -91.071938
v 383.425049 0.000000 -91.635193
v 389.520844 0.000000 -192.652817
v 63.012123 0.000000 -212.409454
v 62.437801 0.000000 -202.867386
vt 0.154060 0.047491
vt 0.278350 0.309480
vt 0.408530 0.322640
vt 0.483720 0.489280
vt 0.497170 0.458220
vt 0.690690 0.478250
vt 0.786430 0.335640
vt 0.814770 0.336270
vt 0.952370 0.136090
vt 0.937470 0.589080
vt 0.908390 0.591610
vt 0.898310 0.917070
vt 0.704980 0.898690
vt 0.708760 0.954510
vt 0.258350 0.904780
vt 0.271140 0.577390
vt 0.137070 0.565260
vt 0.152660 0.090281
vt 0.140570 0.458630
vt 0.044479 0.448020
vt 0.056572 0.079670
vn 0.0370 0.7900 -0.6120
vn -0.5701 -0.8208 -0.0344
vn -0.0253 -0.8445 -0.5350
vn -0.5780 -0.8154 -0.0328
vn -0.0293 0.8242 0.5655
vn 0.6602 0.7466 -0.0819
vn -0.0349 0.8138 0.5801
vn -0.6327 0.7731 -0.0453
vn -0.0287 0.8128 0.5819
vn -0.6189 0.7846 -0.0373
vn 0.0000 -1.0000 0.0000
usemtl None
s off
f 4/1/1 9/2/1 10/3/1 11/4/1 12/5/1 13/6/1 16/7/1 17/8/1 21/9/1
f 17/8/2 21/9/2 20/10/2
f 20/10/3 19/11/3 16/7/3 17/8/3
f 19/11/4 18/12/4 13/6/4 16/7/4
f 18/12/5 13/6/5 12/5/5 15/13/5
f 15/13/6 12/5/6 11/4/6 14/14/6
f 14/14/7 11/4/7 8/15/7
f 8/15/8 11/4/8 10/3/8 7/16/8
f 7/16/9 10/3/9 9/2/9 6/17/9
f 6/17/10 9/2/10 4/1/10 5/18/10 3/19/10
f 5/18/11 3/19/11 2/20/11 1/21/11
