# Blender v2.92.0 OBJ File: ''
# www.blender.org
mtllib CG10_500_040063_0018_roof.mtl
o CG10_500_040063_0018_roof
v 30.771084 75.000000 -238.195786
v 18.933035 75.000000 -32.768665
v 82.098183 145.000000 -132.378265
v 336.561646 144.993484 -117.704369
v 389.977539 75.000000 -11.386020
v 401.813965 75.000000 -216.785233
v 30.771084 0.000000 -238.195786
v 18.933035 0.000000 -32.768665
v 389.977539 0.000000 -11.386020
v 401.813965 0.000000 -216.785233
vt 0.044865 0.869450
vt 0.194550 0.472600
vt 0.797540 0.531060
vt 0.924120 0.954640
vt 0.072917 0.051013
vt 0.952170 0.136310
vn 0.0323 -0.8273 -0.5609
vn -0.7724 0.6336 -0.0445
vn -0.0324 -0.8263 0.5623
vn -0.7609 -0.6473 -0.0439
usemtl None
s off
f 2/1/1 3/2/1 4/3/1 5/4/1
f 2/1/2 3/2/2 1/5/2
f 4/3/3 3/2/3 1/5/3 6/6/3
f 5/4/4 4/3/4 6/6/4
