# Blender v2.92.0 OBJ File: ''
# www.blender.org
mtllib CG10_500_038072_0010_roof.mtl
o CG10_500_038072_0010_roof
v 350.039185 75.000000 -215.011276
v 91.062271 75.000000 -328.128418
v 226.660477 145.000000 -169.853592
v 145.879776 144.990601 -205.150665
v 240.934296 123.762787 -130.539154
v 228.920883 123.813759 -103.209923
v 152.550537 75.000000 -93.231064
v 14.771357 75.000000 -153.458542
v 262.499969 75.000000 -14.609897
v 141.207550 75.000000 -67.587387
v 350.039185 0.000000 -215.011276
v 91.062271 0.000000 -328.128418
v 14.771357 0.000000 -153.458542
v 152.550537 0.000000 -93.231064
v 141.207550 0.000000 -67.587387
v 262.499969 0.000000 -14.609897
vt 0.040140 0.553900
vt 0.414540 0.728980
vt 0.654710 0.620530
vt 0.615930 0.506240
vt 0.396410 0.403630
vt 0.247450 0.046138
vt 0.713320 0.957530
vt 0.951190 0.374970
vt 0.622070 0.699970
vt 0.383720 0.803530
vn -0.2299 0.8189 0.5258
vn 0.5274 -0.8178 0.2304
vn 0.5437 0.8050 0.2375
vn 0.5448 -0.8032 0.2410
vn -0.2340 0.8114 0.5357
vn -0.2444 -0.7919 0.5596
usemtl None
s off
f 8/1/1 7/2/1 5/3/1 3/4/1 4/5/1
f 8/1/2 2/6/2 4/5/2
f 9/7/3 1/8/3 3/4/3 5/3/3 6/9/3
f 10/10/4 7/2/4 5/3/4 6/9/4
f 10/10/5 9/7/5 6/9/5
f 2/6/6 1/8/6 3/4/6 4/5/6
