# Blender v2.92.0 OBJ File: ''
# www.blender.org
mtllib CG10_500_039072_0020.mtl
o CG10_500_039072_0020
v 12.152945 75.000000 -19.262119
v 129.807831 75.000000 -12.437243
v 235.375717 75.000000 -23.775637
v 131.615051 75.000000 -30.008196
v 76.921577 112.298592 -74.476418
v 78.458992 112.561104 -93.479782
v 241.922699 75.000000 -136.157318
v 134.826721 145.000000 -142.152435
v 260.795959 75.000000 -135.615723
v 192.312729 109.552895 -194.972534
v 213.256393 109.362038 -194.054504
v 267.185944 75.000000 -245.362457
v 26.106085 75.000000 -259.411102
v 12.152945 0.000000 -19.262119
v 129.807831 0.000000 -12.437243
v 131.615051 0.000000 -30.008196
v 235.375717 0.000000 -23.775637
v 241.922699 0.000000 -136.157318
v 260.795959 0.000000 -135.615723
v 267.185944 0.000000 -245.362457
v 26.106085 0.000000 -259.411102
vn -0.0310 0.8447 0.5343
vn 0.5180 -0.8549 0.0301
vn -0.5318 -0.8451 -0.0547
vn -0.0318 0.8483 0.5286
vn -0.5456 -0.8374 -0.0318
vn 0.0148 -0.8566 -0.5157
vn -0.5589 -0.8286 -0.0325
vn -0.0311 -0.8453 0.5334
vn 0.0000 1.0000 0.0000
vn -0.0579 0.0000 0.9983
vn 0.9948 0.0000 0.1023
vn -0.0600 0.0000 0.9982
vn 0.9983 0.0000 0.0582
vn -0.0287 0.0000 0.9996
vn 0.9983 0.0000 0.0581
vn 0.0582 0.0000 -0.9983
vn -0.9983 0.0000 -0.0580
usemtl None
s off
f 1//1 2//1 5//1
f 1//2 13//2 8//2 6//2 5//2
f 6//3 4//3 2//3 5//3
f 4//4 3//4 8//4 6//4
f 8//5 10//5 7//5 3//5
f 10//6 11//6 9//6 7//6
f 11//7 12//7 9//7
f 13//8 12//8 11//8 10//8 8//8
f 14//9 15//9 16//9 17//9 18//9 19//9 20//9 21//9
f 1//10 14//10 15//10 2//10
f 2//11 15//11 16//11 4//11
f 4//12 16//12 17//12 3//12
f 3//13 17//13 18//13 7//13
f 7//14 18//14 19//14 9//14
f 9//15 19//15 20//15 12//15
f 12//16 20//16 21//16 13//16
f 13//17 21//17 14//17 1//17
