# Blender v2.92.0 OBJ File: ''
# www.blender.org
mtllib CG10_500_035062_0024_roof.mtl
o CG10_500_035062_0024_roof
v 27.890408 75.000000 -261.309052
v 294.981354 75.000000 -242.423874
v 217.521133 144.984528 -167.275299
v 102.284576 145.000000 -175.405487
v 83.672386 129.727585 -160.625153
v 284.144287 75.000000 -88.849426
v 135.497498 75.000000 -99.315773
v 77.305527 129.756866 -70.513527
v 129.376785 75.000000 -12.277387
v 10.796334 75.000000 -20.645098
v 27.890408 0.000000 -261.309052
v 294.981354 0.000000 -242.423874
v 284.144287 0.000000 -88.849426
v 135.497498 0.000000 -99.315773
v 129.376785 0.000000 -12.277387
v 10.796334 0.000000 -20.645098
vt 0.090848 0.049785
vt 0.333170 0.362160
vt 0.708540 0.391730
vt 0.960850 0.118460
vt 0.925550 0.676910
vt 0.441360 0.638850
vt 0.272550 0.415910
vt 0.421420 0.955350
vt 0.251810 0.743590
vt 0.035167 0.924930
vn 0.0463 0.7544 -0.6548
vn 0.6954 0.7170 0.0491
vn -0.0484 0.7245 0.6876
vn 0.6972 0.7152 0.0490
vn -0.0499 0.7050 0.7075
vn -0.6555 0.7538 -0.0466
usemtl None
s off
f 1/1/1 4/2/1 3/3/1 2/4/1
f 6/5/2 2/4/2 3/3/2
f 7/6/3 6/5/3 3/3/3 4/2/3 5/7/3
f 9/8/4 7/6/4 5/7/4 8/9/4
f 10/10/5 9/8/5 8/9/5
f 10/10/6 8/9/6 5/7/6 4/2/6 1/1/6
