# Blender v2.92.0 OBJ File: ''
# www.blender.org
mtllib CG10_500_043071_0033.mtl
o CG10_500_043071_0033
v 65.456306 75.000000 -19.515726
v 16.308270 75.000000 -194.733658
v 128.243057 144.962372 -129.524734
v 117.490730 144.997559 -168.025803
v 238.121780 75.000000 -67.934776
v 217.694382 75.000000 -141.398178
v 225.451447 145.000000 -278.481781
v 224.125549 75.000000 -407.362885
v 353.808411 75.000000 -280.652466
v 65.456306 0.000000 -19.515726
v 16.308270 0.000000 -194.733658
v 224.125549 0.000000 -407.362885
v 353.808411 0.000000 -280.652466
v 217.694382 0.000000 -141.398178
v 238.121780 0.000000 -67.934776
vn 0.1669 0.7861 0.5952
vn -0.5903 0.7901 0.1656
vn -0.5939 -0.7874 0.1651
vn 0.4382 0.7903 0.4283
vn -0.4254 -0.7935 0.4353
vn 0.4359 -0.7927 0.4261
vn 0.0000 -1.0000 0.0000
vn 0.9628 0.0000 -0.2701
vn 0.7152 0.0000 0.6990
vn -0.6989 0.0000 0.7153
vn -0.7151 0.0000 -0.6990
vn -0.9634 0.0000 0.2679
vn -0.2700 0.0000 -0.9629
usemtl None
s off
f 1//1 5//1 3//1
f 3//2 4//2 2//2 1//2
f 4//3 6//3 5//3 3//3
f 6//4 9//4 7//4 4//4
f 7//5 8//5 9//5
f 2//6 8//6 7//6 4//6
f 10//7 11//7 12//7 13//7 14//7 15//7
f 1//8 10//8 11//8 2//8
f 2//9 11//9 12//9 8//9
f 8//10 12//10 13//10 9//10
f 9//11 13//11 14//11 6//11
f 6//12 14//12 15//12 5//12
f 5//13 15//13 10//13 1//13
