# Blender v2.92.0 OBJ File: ''
# www.blender.org
mtllib CG10_500_035062_0001.mtl
o CG10_500_035062_0001
v 9.786244 75.000000 -25.728821
v 28.398861 75.000000 -314.935364
v 105.412064 144.994446 -99.188988
v 113.221199 145.000000 -220.416824
v 183.341125 75.000000 -14.557132
v 201.986572 75.000000 -303.761536
v 9.786244 0.000000 -25.728821
v 28.398861 0.000000 -314.935364
v 201.986572 0.000000 -303.761536
v 183.341125 0.000000 -14.557132
vn 0.6096 -0.7917 0.0392
vn -0.0425 0.7504 0.6597
vn 0.6424 0.7653 0.0414
vn 0.0397 0.7856 -0.6175
vn 0.0000 -1.0000 0.0000
vn 0.9979 0.0000 0.0642
vn -0.0642 0.0000 0.9979
vn -0.9979 0.0000 -0.0643
vn 0.0642 0.0000 -0.9979
usemtl None
s off
f 1//1 2//1 4//1 3//1
f 1//2 5//2 3//2
f 5//3 6//3 4//3 3//3
f 6//4 2//4 4//4
f 7//5 8//5 9//5 10//5
f 1//6 7//6 8//6 2//6
f 2//7 8//7 9//7 6//7
f 6//8 9//8 10//8 5//8
f 5//9 10//9 7//9 1//9
