# Blender v2.92.0 OBJ File: ''
# www.blender.org
mtllib CG10_500_038070_0024.mtl
o CG10_500_038070_0024
v 225.022324 75.000000 -13.824778
v 232.604935 75.000000 -150.773941
v 211.573029 75.000000 -270.871613
v 204.969879 75.000000 -152.359360
v 158.253067 126.016968 -85.791367
v 131.099258 126.042145 -87.314987
v 106.516479 144.985748 -114.026062
v 110.327858 145.000000 -182.784027
v 25.486313 75.000000 -281.174866
v 11.384700 75.000000 -25.546923
v 225.022324 0.000000 -13.824778
v 232.604935 0.000000 -150.773941
v 204.969879 0.000000 -152.359360
v 211.573029 0.000000 -270.871613
v 25.486313 0.000000 -281.174866
v 11.384700 0.000000 -25.546923
vn -0.0340 -0.8046 0.5928
vn 0.5875 0.8086 0.0327
vn -0.5846 -0.8107 -0.0324
vn 0.0328 -0.8008 -0.5981
vn 0.6124 -0.7898 0.0338
vn 0.0331 0.8007 -0.5982
vn 0.0000 1.0000 0.0000
vn 0.9985 0.0000 0.0553
vn 0.0573 0.0000 -0.9984
vn 0.9985 0.0000 0.0556
vn 0.0553 0.0000 -0.9985
vn -0.9985 0.0000 -0.0551
vn -0.0548 0.0000 0.9985
usemtl None
s off
f 6//1 4//1 2//1 5//1
f 7//2 6//2 4//2 3//2 8//2
f 1//3 5//3 2//3
f 10//4 7//4 6//4 5//4 1//4
f 10//5 9//5 8//5 7//5
f 9//6 8//6 3//6
f 11//7 12//7 13//7 14//7 15//7 16//7
f 1//8 11//8 12//8 2//8
f 2//9 12//9 13//9 4//9
f 4//10 13//10 14//10 3//10
f 3//11 14//11 15//11 9//11
f 9//12 15//12 16//12 10//12
f 10//13 16//13 11//13 1//13
