# Blender v2.92.0 OBJ File: ''
# www.blender.org
mtllib CG10_500_042066_0027_roof.mtl
o CG10_500_042066_0027_roof
v 283.075043 75.000000 -16.543472
v 146.562256 75.000000 -22.424299
v 97.206673 75.000000 -24.549019
v 201.256165 75.000000 -20.069345
v 14.139531 75.000000 -28.128210
v 151.352951 117.230843 -92.205009
v 128.439941 145.000000 -139.212585
v 168.248642 144.952515 -137.419128
v 84.712257 115.601234 -191.730789
v 87.408279 115.590553 -254.639343
v 293.191498 75.000000 -251.597946
v 159.841675 75.000000 -257.878448
v 162.520721 75.000000 -320.834839
v 27.013130 75.000000 -326.667755
v 283.075043 0.000000 -16.543472
v 201.256165 0.000000 -20.069345
v 146.562256 0.000000 -22.424299
v 97.206673 0.000000 -24.549019
v 14.139531 0.000000 -28.128210
v 27.013130 0.000000 -326.667755
v 162.520721 0.000000 -320.834839
v 159.841675 0.000000 -257.878448
v 293.191498 0.000000 -251.597946
vt 0.922070 0.951770
vt 0.548040 0.599360
vt 0.955020 0.266480
vt 0.655560 0.941490
vt 0.493010 0.731180
vt 0.316630 0.928430
vt 0.046057 0.917990
vt 0.418370 0.594130
vt 0.477400 0.934620
vt 0.275940 0.441020
vt 0.520660 0.248170
vt 0.284720 0.257610
vt 0.529380 0.064621
vt 0.087991 0.047616
vn -0.5034 -0.8638 -0.0217
vn 0.0223 -0.8560 -0.5165
vn -0.0222 0.8560 0.5165
vn -0.0237 -0.8638 0.5033
vn -0.4895 -0.8718 -0.0208
vn -0.0217 -0.8631 0.5046
vn 0.5384 -0.8423 0.0232
usemtl None
s off
f 1/1/1 8/2/1 11/3/1
f 1/1/2 4/4/2 6/5/2 3/6/2 5/7/2 7/8/2 8/2/2
f 4/4/3 6/5/3 2/9/3
f 2/9/3 6/5/3 3/6/3
f 11/3/4 8/2/4 7/8/4 9/10/4 12/11/4
f 12/11/5 9/10/5 10/12/5 13/13/5
f 13/13/6 10/12/6 14/14/6
f 14/14/7 10/12/7 9/10/7 7/8/7 5/7/7
