# Blender v2.92.0 OBJ File: ''
# www.blender.org
mtllib CG10_500_038071_0044_roof.mtl
o CG10_500_038071_0044_roof
v 79.018578 75.000000 -347.442780
v 278.371460 75.000000 -266.630371
v 145.121094 116.798363 -264.246033
v 108.853897 116.836029 -278.896973
v 165.415100 145.000000 -217.965530
v 40.158974 75.000000 -251.557739
v 76.239433 75.000000 -237.031494
v 130.184586 144.988358 -131.018936
v 176.944031 75.000000 -16.424231
v 13.687857 75.000000 -82.587654
v 79.018578 0.000000 -347.442780
v 278.371460 0.000000 -266.630371
v 176.944031 0.000000 -16.424231
v 13.687857 0.000000 -82.587654
v 76.239433 0.000000 -237.031494
v 40.158974 0.000000 -251.557739
vt 0.270610 0.045487
vt 0.372790 0.233800
vt 0.137530 0.308910
vt 0.496990 0.274050
vt 0.261090 0.348810
vt 0.566490 0.401190
vt 0.046876 0.773110
vt 0.445840 0.640060
vt 0.605970 0.954880
vt 0.953330 0.267500
vn 0.5716 -0.7872 0.2316
vn -0.2368 0.7733 0.5882
vn -0.5698 0.7887 -0.2308
vn -0.2328 0.7848 0.5743
vn 0.2346 0.7810 -0.5788
vn 0.5834 0.7770 0.2365
usemtl None
s off
f 1/1/1 4/2/1 6/3/1
f 3/4/2 4/2/2 6/3/2 7/5/2
f 5/6/3 3/4/3 7/5/3 10/7/3 8/8/3
f 8/8/4 10/7/4 9/9/4
f 2/10/5 1/1/5 4/2/5 3/4/5 5/6/5
f 2/10/6 5/6/6 8/8/6 9/9/6
