# Blender v2.92.0 OBJ File: ''
# www.blender.org
mtllib CG10_500_035062_0011.mtl
o CG10_500_035062_0011
v 208.192734 75.000000 -169.424194
v 202.962997 75.000000 -300.910980
v 187.768707 75.000000 -20.880478
v 182.251236 75.000000 -168.399841
v 143.801056 131.729263 -228.647598
v 115.096626 131.725464 -227.510010
v 100.532394 145.000000 -210.571854
v 104.958855 144.885101 -95.739975
v 22.443899 75.000000 -14.304498
v 11.347347 75.000000 -293.285828
v 208.192734 0.000000 -169.424194
v 202.962997 0.000000 -300.910980
v 11.347347 0.000000 -293.285828
v 22.443899 0.000000 -14.304498
v 187.768707 0.000000 -20.880478
v 182.251236 0.000000 -168.399841
vn -0.0251 0.7763 -0.6299
vn -0.6746 -0.7377 0.0268
vn -0.0267 -0.7362 -0.6762
vn -0.6576 -0.7529 0.0246
vn 0.0265 0.7452 0.6663
vn 0.6315 -0.7749 -0.0251
vn 0.0000 1.0000 0.0000
vn 0.9992 0.0000 -0.0397
vn -0.0398 0.0000 -0.9992
vn -0.9992 0.0000 0.0397
vn 0.0397 0.0000 0.9992
vn 0.9993 0.0000 -0.0374
vn 0.0395 0.0000 0.9992
usemtl None
s off
f 10//1 7//1 6//1 5//1 2//1
f 1//2 5//2 2//2
f 4//3 6//3 5//3 1//3
f 3//4 8//4 7//4 6//4 4//4
f 9//5 3//5 8//5
f 9//6 10//6 7//6 8//6
f 11//7 12//7 13//7 14//7 15//7 16//7
f 1//8 11//8 12//8 2//8
f 2//9 12//9 13//9 10//9
f 10//10 13//10 14//10 9//10
f 9//11 14//11 15//11 3//11
f 3//12 15//12 16//12 4//12
f 4//13 16//13 11//13 1//13
