# Blender v2.92.0 OBJ File: ''
# www.blender.org
mtllib CG10_500_042070_0002_roof.mtl
o CG10_500_042070_0002_roof
v 184.768921 75.000000 -39.090023
v 295.803619 75.000000 -296.878235
v 154.576035 75.000000 -17.068668
v 166.858841 75.000000 -46.111111
v 128.041336 145.000000 -155.810638
v 170.320526 144.985672 -253.919022
v 105.621124 138.196167 -122.703728
v 117.555267 138.110794 -150.622665
v 11.076075 75.000000 -78.930862
v 134.935455 75.000000 -366.228607
v 184.768921 0.000000 -39.090023
v 295.803619 0.000000 -296.878235
v 134.935455 0.000000 -366.228607
v 11.076075 0.000000 -78.930862
v 154.576035 0.000000 -17.068668
v 166.858841 0.000000 -46.111111
vt 0.035729 0.794980
vt 0.498630 0.955670
vt 0.340710 0.681290
vt 0.538250 0.880230
vt 0.379210 0.608770
vt 0.596030 0.898470
vt 0.413040 0.595300
vt 0.954210 0.228890
vt 0.549420 0.340470
vt 0.435280 0.048757
vn -0.2499 0.7755 0.5798
vn 0.5444 0.8066 0.2302
vn -0.2273 0.7825 0.5797
vn 0.5328 0.8145 0.2295
vn -0.2445 -0.7865 0.5671
vn -0.6178 0.7398 -0.2664
usemtl None
s off
f 9/1/1 3/2/1 7/3/1
f 7/3/2 3/2/2 4/4/2 8/5/2
f 4/4/3 1/6/3 5/7/3 8/5/3
f 1/6/4 2/8/4 6/9/4 5/7/4
f 6/9/5 10/10/5 2/8/5
f 9/1/6 7/3/6 8/5/6 5/7/6 6/9/6 10/10/6
