# Blender v2.92.0 OBJ File: ''
# www.blender.org
mtllib CG10_500_048066_0010.mtl
o CG10_500_048066_0010
v 178.377716 75.000000 -371.834473
v 35.579258 75.000000 -380.604553
v 25.184319 75.000000 -211.349121
v 167.979752 75.000000 -202.529999
v 272.492065 75.000000 -196.075241
v 59.724003 145.000000 -121.039948
v 222.220306 144.977921 -111.031891
v 14.293076 75.000000 -34.014172
v 261.606110 75.000000 -18.825397
v 178.377716 0.000000 -371.834473
v 35.579258 0.000000 -380.604553
v 25.184319 0.000000 -211.349121
v 14.293076 0.000000 -34.014172
v 261.606110 0.000000 -18.825397
v 272.492065 0.000000 -196.075241
v 167.979752 0.000000 -202.529999
vn 0.8666 -0.4962 0.0532
vn -0.0377 0.7882 0.6143
vn 0.8397 0.5406 0.0516
vn -0.0384 -0.7826 0.6213
vn 0.0000 1.0000 -0.0000
vn 0.0613 0.0000 -0.9981
vn -0.9981 0.0000 -0.0613
vn -0.0613 0.0000 0.9981
vn 0.9981 0.0000 0.0613
vn 0.0616 0.0000 -0.9981
usemtl None
s off
f 8//1 3//1 6//1
f 8//2 9//2 7//2 6//2
f 9//3 5//3 7//3
f 4//4 5//4 7//4 6//4 3//4
f 4//5 1//5 2//5 3//5
f 10//5 11//5 12//5 13//5 14//5 15//5 16//5
f 1//6 10//6 11//6 2//6
f 2//7 11//7 12//7 3//7
f 3//7 12//7 13//7 8//7
f 8//8 13//8 14//8 9//8
f 9//9 14//9 15//9 5//9
f 5//10 15//10 16//10 4//10
f 4//9 16//9 10//9 1//9
