# Blender v2.92.0 OBJ File: ''
# www.blender.org
mtllib CG10_500_043071_0031.mtl
o CG10_500_043071_0031
v 18.040398 75.000000 -153.057495
v 150.684555 75.000000 -17.161497
v 152.105865 145.000000 -151.162704
v 239.617310 75.000000 -103.988174
v 259.827332 75.000000 -83.288521
v 231.466064 144.991150 -228.626770
v 238.188538 141.453644 -228.488327
v 261.273956 141.450363 -204.837524
v 231.890839 75.000000 -361.753265
v 384.693512 75.000000 -205.166794
v 18.040398 0.000000 -153.057495
v 150.684555 0.000000 -17.161497
v 239.617310 0.000000 -103.988174
v 259.827332 0.000000 -83.288521
v 384.693512 0.000000 -205.166794
v 231.890839 0.000000 -361.753265
vn -0.4143 0.8050 -0.4246
vn 0.4376 -0.7911 -0.4273
vn -0.4147 -0.8047 -0.4248
vn -0.4295 -0.7999 0.4192
vn -0.4256 0.8039 0.4154
vn -0.4272 -0.7912 -0.4376
vn 0.0000 1.0000 0.0000
vn -0.7156 0.0000 0.6985
vn 0.6986 0.0000 0.7155
vn -0.7155 0.0000 0.6986
vn 0.6985 0.0000 0.7156
vn 0.7157 0.0000 -0.6984
vn -0.6984 0.0000 -0.7157
usemtl None
s off
f 9//1 1//1 3//1 6//1
f 5//2 4//2 7//2 8//2
f 4//3 2//3 3//3 6//3 7//3
f 9//4 10//4 8//4 7//4 6//4
f 1//5 2//5 3//5
f 10//6 5//6 8//6
f 11//7 12//7 13//7 14//7 15//7 16//7
f 1//8 11//8 12//8 2//8
f 2//9 12//9 13//9 4//9
f 4//10 13//10 14//10 5//10
f 5//11 14//11 15//11 10//11
f 10//12 15//12 16//12 9//12
f 9//13 16//13 11//13 1//13
