# Blender v2.92.0 OBJ File: ''
# www.blender.org
mtllib CG10_500_049074_0054_roof.mtl
o CG10_500_049074_0054_roof
v 358.992432 75.000000 -179.403229
v 27.733400 75.000000 -201.333344
v 302.079376 145.000000 -96.578995
v 68.705917 144.918396 -112.129807
v 347.590271 75.000000 -9.127104
v 16.349848 75.000000 -31.338921
v 358.992432 0.000000 -179.403229
v 27.733400 0.000000 -201.333344
v 16.349848 0.000000 -31.338921
v 347.590271 0.000000 -9.127104
vt 0.043484 0.851470
vt 0.073759 0.045814
vt 0.182730 0.468580
vt 0.924440 0.956740
vt 0.803400 0.542280
vt 0.954770 0.149750
vn 0.8289 -0.5566 0.0555
vn -0.0428 0.7690 0.6378
vn -0.8050 -0.5908 -0.0539
vn 0.0416 0.7770 -0.6281
usemtl None
s off
f 6/1/1 2/2/1 4/3/1
f 6/1/2 5/4/2 3/5/2 4/3/2
f 3/5/3 1/6/3 5/4/3
f 1/6/4 2/2/4 4/3/4 3/5/4
