# Blender v2.92.0 OBJ File: ''
# www.blender.org
mtllib CG10_500_044075_0005_roof.mtl
o CG10_500_044075_0005_roof
v 314.793518 75.000000 -18.434868
v 413.385590 75.000000 -255.191986
v 282.624939 135.268555 -94.126587
v 328.382538 135.287933 -204.057190
v 323.392181 144.998215 -216.714813
v 204.558594 75.000000 -64.312607
v 249.094147 75.000000 -171.356659
v 166.012131 75.000000 -205.928802
v 128.434616 75.000000 -115.616638
v 150.176193 145.000000 -288.795471
v 95.953979 132.830612 -190.977997
v 133.954865 132.816055 -282.269012
v 19.378025 75.000000 -161.003983
v 111.003532 75.000000 -381.026123
v 314.793518 0.000000 -18.434868
v 413.385590 0.000000 -255.191986
v 111.003532 0.000000 -381.026123
v 19.378025 0.000000 -161.003983
v 128.434616 0.000000 -115.616638
v 166.012131 0.000000 -205.928802
v 249.094147 0.000000 -171.356659
v 204.558594 0.000000 -64.312607
vt 0.256360 0.045047
vt 0.346830 0.276200
vt 0.746860 0.456860
vt 0.954700 0.360420
vt 0.472420 0.838820
vt 0.652710 0.764090
vt 0.727010 0.953800
vt 0.044753 0.596480
vt 0.221600 0.521360
vt 0.296620 0.710230
vt 0.575280 0.570530
vt 0.758390 0.488580
vt 0.309360 0.292560
vt 0.383400 0.483890
vn 0.2715 0.7076 -0.6524
vn 0.2780 -0.6904 -0.6679
vn 0.2734 -0.7026 -0.6570
vn 0.6509 -0.7092 0.2708
vn -0.6466 -0.7138 -0.2691
vn 0.2708 -0.7092 -0.6509
vn -0.6608 -0.6983 -0.2752
vn -0.6453 0.7151 -0.2687
usemtl None
s off
f 14/1/1 10/2/1 5/3/1 2/4/1
f 6/5/2 3/6/2 1/7/2
f 13/8/3 11/9/3 9/10/3
f 7/11/4 4/12/4 3/6/4 6/5/4
f 9/10/5 11/9/5 12/13/5 8/14/5
f 8/14/6 12/13/6 10/2/6 5/3/6 4/12/6 7/11/6
f 1/7/7 3/6/7 4/12/7 5/3/7 2/4/7
f 13/8/8 11/9/8 12/13/8 10/2/8 14/1/8
