# Blender v2.92.0 OBJ File: ''
# www.blender.org
mtllib CG10_500_037056_0032.mtl
o CG10_500_037056_0032
v 338.642822 75.000000 -231.114349
v 16.960268 75.000000 -197.805710
v 233.738007 136.498535 -139.047104
v 259.938690 136.638474 -141.575287
v 222.346558 145.000000 -126.641945
v 113.011879 144.995987 -115.326180
v 355.595673 75.000000 -67.349976
v 330.939362 75.000000 -65.147644
v 333.021149 75.000000 -42.126003
v 36.257149 75.000000 -11.426873
v 338.642822 0.000000 -231.114349
v 16.960268 0.000000 -197.805710
v 36.257149 0.000000 -11.426873
v 333.021149 0.000000 -42.126003
v 330.939362 0.000000 -65.147644
v 355.595673 0.000000 -67.349976
vn 0.6233 -0.7793 -0.0645
vn 0.0624 -0.7956 0.6026
vn 0.0608 0.8064 0.5882
vn 0.5612 0.8261 -0.0508
vn 0.0533 0.8009 0.5964
vn 0.5728 0.8175 -0.0593
vn 0.0000 1.0000 0.0000
vn -0.1030 0.0000 -0.9947
vn -0.9947 0.0000 0.1030
vn 0.1029 0.0000 0.9947
vn 0.9959 0.0000 -0.0901
vn 0.0890 0.0000 0.9960
vn 0.9947 0.0000 -0.1030
usemtl None
s off
f 10//1 2//1 6//1
f 2//2 1//2 4//2 3//2 5//2 6//2
f 10//3 9//3 5//3 6//3
f 9//4 8//4 3//4 5//4
f 8//5 7//5 4//5 3//5
f 7//6 1//6 4//6
f 11//7 12//7 13//7 14//7 15//7 16//7
f 1//8 11//8 12//8 2//8
f 2//9 12//9 13//9 10//9
f 10//10 13//10 14//10 9//10
f 9//11 14//11 15//11 8//11
f 8//12 15//12 16//12 7//12
f 7//13 16//13 11//13 1//13
