# Blender v2.92.0 OBJ File: ''
# www.blender.org
mtllib CG10_500_042071_0014_roof.mtl
o CG10_500_042071_0014_roof
v 129.460876 75.000000 -16.681614
v 16.887365 75.000000 -151.334015
v 140.545700 144.995483 -142.660080
v 234.541916 145.000000 -221.249771
v 242.529541 75.000000 -340.009491
v 355.120514 75.000000 -205.336227
v 129.460876 0.000000 -16.681614
v 16.887365 0.000000 -151.334015
v 242.529541 0.000000 -340.009491
v 355.120514 0.000000 -205.336227
vt 0.651960 0.044917
vt 0.954630 0.423210
vt 0.630490 0.378510
vt 0.348010 0.953140
vt 0.377810 0.599270
vt 0.045396 0.574900
vn -0.4971 -0.7617 0.4156
vn -0.3950 -0.7879 -0.4725
vn 0.4050 -0.7755 0.4843
vn -0.4733 0.7871 0.3957
usemtl None
s off
f 5/1/1 6/2/1 4/3/1
f 6/2/2 1/4/2 3/5/2 4/3/2
f 2/6/3 5/1/3 4/3/3 3/5/3
f 2/6/4 1/4/4 3/5/4
