# Blender v2.92.0 OBJ File: ''
# www.blender.org
mtllib CG10_500_033059_0037.mtl
o CG10_500_033059_0037
v 344.913147 75.000000 -13.488344
v 163.480713 75.000000 -25.845396
v 144.763123 75.000000 -106.241707
v 168.192642 75.000000 -104.583061
v 269.486053 144.814377 -112.550308
v 353.440765 75.000000 -139.750412
v 396.490173 75.000000 -137.282288
v 149.530807 75.000000 -175.314545
v 18.674965 75.000000 -184.050064
v 273.536072 145.000000 -175.748764
v 264.784607 138.576431 -184.514572
v 241.273560 138.552429 -186.146210
v 304.423767 120.414742 -204.914246
v 348.249634 120.236320 -202.156647
v 76.442192 113.107811 -229.733032
v 207.144135 113.039581 -220.919083
v 25.322451 75.000000 -281.681885
v 404.566864 75.000000 -255.855560
v 344.913147 0.000000 -13.488344
v 163.480713 0.000000 -25.845396
v 168.192642 0.000000 -104.583061
v 144.763123 0.000000 -106.241707
v 149.530807 0.000000 -175.314545
v 18.674965 0.000000 -184.050064
v 25.322451 0.000000 -281.681885
v 404.566864 0.000000 -255.855560
v 396.490173 0.000000 -137.282288
v 353.440765 0.000000 -139.750412
vn -0.0407 0.7920 0.6092
vn -0.5715 0.8197 -0.0389
vn -0.5721 0.8192 -0.0395
vn 0.0421 0.7854 -0.6175
vn -0.0418 0.8059 0.5905
vn -0.0406 0.8019 0.5961
vn 0.6471 0.7611 0.0437
vn -0.0337 0.8079 0.5884
vn 0.6510 0.7578 0.0443
vn -0.5690 0.8216 -0.0340
vn 0.0000 -1.0000 0.0000
vn 0.0680 0.0000 -0.9977
vn 0.9982 0.0000 0.0597
vn 0.0706 0.0000 -0.9975
vn 0.9976 0.0000 0.0689
vn 0.0666 0.0000 -0.9978
vn 0.9977 0.0000 0.0679
vn -0.0679 0.0000 0.9977
vn -0.9977 0.0000 -0.0680
vn 0.0572 0.0000 -0.9984
vn -0.9977 0.0000 -0.0674
usemtl None
s off
f 9//1 8//1 16//1 15//1
f 15//2 17//2 9//2
f 8//3 3//3 12//3 16//3
f 15//4 16//4 12//4 11//4 10//4 13//4 14//4 18//4 17//4
f 3//5 4//5 11//5 12//5
f 2//6 1//6 5//6
f 1//7 6//7 13//7 10//7 5//7
f 6//8 7//8 14//8 13//8
f 7//9 18//9 14//9
f 2//10 5//10 10//10 11//10 4//10
f 19//11 20//11 21//11 22//11 23//11 24//11 25//11 26//11 27//11 28//11
f 1//12 19//12 20//12 2//12
f 2//13 20//13 21//13 4//13
f 4//14 21//14 22//14 3//14
f 3//15 22//15 23//15 8//15
f 8//16 23//16 24//16 9//16
f 9//17 24//17 25//17 17//17
f 17//18 25//18 26//18 18//18
f 18//19 26//19 27//19 7//19
f 7//20 27//20 28//20 6//20
f 6//21 28//21 19//21 1//21
