# Blender v2.92.0 OBJ File: ''
# www.blender.org
mtllib CG10_500_038056_0009.mtl
o CG10_500_038056_0009
v 348.535736 75.000000 -178.254623
v 27.145041 75.000000 -197.432434
v 310.846375 145.000000 -94.011177
v 44.281239 144.884521 -110.060143
v 338.265930 75.000000 -8.821200
v 16.895279 75.000000 -28.335917
v 348.535736 0.000000 -178.254623
v 27.145041 0.000000 -197.432434
v 16.895279 0.000000 -28.335917
v 338.265930 0.000000 -8.821200
vn -0.0390 0.7658 0.6418
vn 0.9052 0.4214 0.0549
vn 0.0375 0.7768 -0.6287
vn -0.9506 0.3051 -0.0576
vn 0.0000 1.0000 0.0000
vn 0.0596 0.0000 -0.9982
vn -0.9982 0.0000 -0.0605
vn -0.0606 0.0000 0.9982
vn 0.9982 0.0000 0.0605
usemtl None
s off
f 6//1 5//1 3//1 4//1
f 5//2 1//2 3//2
f 2//3 4//3 3//3 1//3
f 2//4 6//4 4//4
f 7//5 8//5 9//5 10//5
f 1//6 7//6 8//6 2//6
f 2//7 8//7 9//7 6//7
f 6//8 9//8 10//8 5//8
f 5//9 10//9 7//9 1//9
