# Blender v2.92.0 OBJ File: ''
# www.blender.org
mtllib CG10_500_037058_0022_roof.mtl
o CG10_500_037058_0022_roof
v 262.136353 75.000000 -40.241337
v 272.606171 75.000000 -184.555435
v 267.574860 145.000000 -114.928436
v 114.822868 75.000000 -50.944462
v 111.921890 75.000000 -10.973595
v 11.224079 75.000000 -18.281883
v 14.125548 75.000000 -58.260674
v 19.476921 144.347412 -132.254135
v 24.505730 75.000000 -201.229050
v 262.136353 0.000000 -40.241337
v 272.606171 0.000000 -184.555435
v 24.505730 0.000000 -201.229050
v 14.125548 0.000000 -58.260674
v 11.224079 0.000000 -18.281883
v 111.921890 0.000000 -10.973595
v 114.822868 0.000000 -50.944462
vt 0.039521 0.913760
vt 0.394090 0.948240
vt 0.404310 0.759700
vt 0.049738 0.725190
vt 0.923020 0.810180
vt 0.942170 0.457880
vt 0.068581 0.376160
vt 0.959880 0.129460
vt 0.086288 0.050806
vn 0.0000 1.0000 0.0000
vn -0.0495 0.7305 0.6811
vn 0.0475 0.7061 -0.7065
vn -0.9974 0.0003 -0.0724
vn 0.9974 0.0003 0.0724
usemtl None
s off
f 6/1/1 5/2/1 4/3/1 7/4/1
f 4/3/2 1/5/2 3/6/2 8/7/2 7/4/2
f 3/6/3 2/8/3 9/9/3 8/7/3
f 1/5/4 3/6/4 2/8/4
f 9/9/5 8/7/5 7/4/5
