# Blender v2.92.0 OBJ File: ''
# www.blender.org
mtllib CG10_500_041072_0022.mtl
o CG10_500_041072_0022
v 285.688629 75.000000 -271.476562
v 251.297455 75.000000 -187.558563
v 273.804260 75.000000 -276.347015
v 167.562515 75.000000 -16.552490
v 239.475830 75.000000 -192.403214
v 133.831757 131.589966 -115.851219
v 143.624329 131.570068 -139.733215
v 135.928192 145.000000 -164.054031
v 164.006622 144.972229 -232.625381
v 34.059628 75.000000 -71.264793
v 44.069077 75.000000 -95.604553
v 109.543884 75.000000 -343.663971
v 13.385345 75.000000 -109.163094
v 285.688629 0.000000 -271.476562
v 251.297455 0.000000 -187.558563
v 239.475830 0.000000 -192.403214
v 167.562515 0.000000 -16.552490
v 34.059628 0.000000 -71.264793
v 44.069077 0.000000 -95.604553
v 13.385345 0.000000 -109.163094
v 109.543884 0.000000 -343.663971
v 273.804260 0.000000 -276.347015
vn 0.0000 -1.0000 0.0000
vn 0.2460 0.7611 -0.6002
vn 0.5581 -0.7976 0.2289
vn -0.2322 0.8185 0.5255
vn -0.5556 0.7995 -0.2285
vn 0.2207 -0.8133 -0.5384
vn -0.5879 -0.7723 -0.2404
vn -0.9253 0.0000 -0.3792
vn 0.3792 0.0000 -0.9253
vn -0.9256 0.0000 -0.3785
vn 0.9248 0.0000 0.3803
vn 0.4042 0.0000 -0.9147
vn 0.9252 0.0000 0.3794
vn -0.3792 0.0000 0.9253
usemtl None
s off
f 3//1 1//1 2//1 5//1
f 12//2 9//2 3//2
f 9//3 8//3 13//3 12//3
f 13//4 11//4 7//4 8//4
f 11//5 10//5 6//5 7//5
f 6//6 4//6 10//6
f 3//7 5//7 4//7 6//7 7//7 8//7 9//7
f 14//1 15//1 16//1 17//1 18//1 19//1 20//1 21//1 22//1
f 1//8 14//8 15//8 2//8
f 2//9 15//9 16//9 5//9
f 5//10 16//10 17//10 4//10
f 4//9 17//9 18//9 10//9
f 10//11 18//11 19//11 11//11
f 11//12 19//12 20//12 13//12
f 13//13 20//13 21//13 12//13
f 12//14 21//14 22//14 3//14
f 3//14 22//14 14//14 1//14
