# Blender v2.92.0 OBJ File: ''
# www.blender.org
mtllib CG10_500_035060_0014_roof.mtl
o CG10_500_035060_0014_roof
v 318.768951 75.000000 -8.838780
v 327.131378 75.000000 -168.489075
v 322.730835 144.705826 -84.246178
v 15.506220 75.000000 -24.640509
v 23.905355 75.000000 -184.964417
v 19.461508 145.000000 -100.367348
v 318.768951 0.000000 -8.838780
v 327.131378 0.000000 -168.489075
v 23.905355 0.000000 -184.964417
v 15.506220 0.000000 -24.640509
vt 0.045340 0.872330
vt 0.932070 0.954200
vt 0.943660 0.563490
vt 0.056905 0.479960
vt 0.956520 0.127000
vt 0.069899 0.041635
vn -0.0353 0.7348 0.6774
vn 0.0346 0.7709 -0.6360
vn -0.9986 0.0002 -0.0523
vn 0.9986 0.0002 0.0523
usemtl None
s off
f 4/1/1 1/2/1 3/3/1 6/4/1
f 6/4/2 3/3/2 2/5/2 5/6/2
f 1/2/3 3/3/3 2/5/3
f 5/6/4 6/4/4 4/1/4
