# Blender v2.92.0 OBJ File: ''
# www.blender.org
mtllib CG10_500_045064_0014.mtl
o CG10_500_045064_0014
v 10.632061 75.000000 -23.510715
v 29.955212 75.000000 -349.266815
v 74.290733 117.323708 -131.786316
v 71.317581 117.392487 -80.095863
v 118.686440 144.999435 -249.267410
v 113.924980 145.000000 -168.984283
v 128.482117 75.000000 -67.868645
v 125.631569 75.000000 -16.694517
v 204.259842 75.000000 -63.226315
v 220.551727 75.000000 -337.969238
v 10.632061 0.000000 -23.510715
v 29.955212 0.000000 -349.266815
v 220.551727 0.000000 -337.969238
v 204.259842 0.000000 -63.226315
v 128.482117 0.000000 -67.868645
v 125.631569 0.000000 -16.694517
vn 0.5908 0.8062 0.0329
vn -0.0341 0.8171 0.5755
vn -0.0351 0.8193 0.5722
vn -0.0352 -0.8038 0.5939
vn -0.5942 0.8036 -0.0352
vn 0.5864 0.8093 0.0348
vn 0.0000 -1.0000 0.0000
vn 0.9982 0.0000 0.0592
vn -0.0592 0.0000 0.9982
vn -0.9982 0.0000 -0.0592
vn 0.0611 0.0000 -0.9981
vn -0.9985 0.0000 -0.0556
vn 0.0592 0.0000 -0.9982
usemtl None
s off
f 8//1 7//1 3//1 4//1
f 1//2 8//2 4//2
f 9//3 6//3 3//3 7//3
f 5//4 2//4 10//4
f 6//5 5//5 2//5 1//5 4//5 3//5
f 9//6 10//6 5//6 6//6
f 11//7 12//7 13//7 14//7 15//7 16//7
f 1//8 11//8 12//8 2//8
f 2//9 12//9 13//9 10//9
f 10//10 13//10 14//10 9//10
f 9//11 14//11 15//11 7//11
f 7//12 15//12 16//12 8//12
f 8//13 16//13 11//13 1//13
