# Blender v2.92.0 OBJ File: ''
# www.blender.org
mtllib CG10_500_034061_0005_roof.mtl
o CG10_500_034061_0005_roof
v 13.169266 75.000000 -636.687073
v 280.896912 75.000000 -636.929321
v 123.049690 131.264038 -636.788696
v 177.225342 130.393723 -636.837646
v 149.899582 145.000000 -605.311218
v 150.197968 144.937164 -60.287380
v 13.635763 75.000000 -32.876083
v 281.097198 75.000000 -33.118595
v 120.153908 129.542404 -32.973392
v 178.490051 129.824997 -33.026287
v 13.169266 0.000000 -636.687073
v 280.896912 0.000000 -636.929321
v 281.097198 0.000000 -33.118595
v 13.635763 0.000000 -32.876083
vt 0.046223 0.950710
vt 0.044642 0.045447
vt 0.417120 0.045294
vt 0.508130 0.092487
vt 0.509150 0.909610
vt 0.407300 0.950560
vt 0.605050 0.950490
vt 0.952870 0.950350
vt 0.952190 0.045083
vt 0.600760 0.045221
vn 0.4558 -0.8901 -0.0004
vn 0.0038 -0.8729 -0.4878
vn 0.4713 0.8820 -0.0002
vn -0.0143 -0.9119 0.4101
vn -0.0009 -0.0000 -1.0000
vn 0.0009 0.0000 1.0000
usemtl None
s off
f 7/1/1 1/2/1 3/3/1 5/4/1 6/5/1 9/6/1
f 6/5/2 10/7/2 9/6/2
f 10/7/3 8/8/3 2/9/3 4/10/3 5/4/3 6/5/3
f 3/3/4 4/10/4 5/4/4
f 1/2/5 3/3/5 4/10/5 2/9/5
f 8/8/6 10/7/6 9/6/6 7/1/6
