# Blender v2.92.0 OBJ File: ''
# www.blender.org
mtllib CG10_500_041067_0041.mtl
o CG10_500_041067_0041
v 14.330836 75.000000 -208.650421
v 18.591837 75.000000 -330.812256
v 31.239885 75.000000 -26.337299
v 37.616306 75.000000 -208.005280
v 75.504585 126.631714 -264.884583
v 81.207336 113.525116 -70.785522
v 82.652222 113.888359 -98.947739
v 95.275475 126.570816 -264.268494
v 95.625206 122.301292 -167.382233
v 99.616119 122.889793 -260.018250
v 123.066765 145.000000 -136.621628
v 127.177567 75.000000 -23.006212
v 128.887848 75.000000 -48.238674
v 145.943787 75.000000 -19.168863
v 146.918243 75.000000 -47.564404
v 157.170502 75.000000 -225.980225
v 162.255341 75.000000 -325.787415
v 175.683105 144.815842 -134.422028
v 183.373627 102.429855 -51.798187
v 184.409378 102.461716 -80.750511
v 217.537796 75.000000 -16.671621
v 218.587234 75.000000 -44.884266
v 262.954041 75.000000 -43.225117
v 269.142670 75.000000 -220.790176
v 14.330836 0.000000 -208.650421
v 18.591837 0.000000 -330.812256
v 162.255341 0.000000 -325.787415
v 157.170502 0.000000 -225.980225
v 269.142670 0.000000 -220.790176
v 262.954041 0.000000 -43.225117
v 218.587234 0.000000 -44.884266
v 217.537796 0.000000 -16.671621
v 145.943787 0.000000 -19.168863
v 146.918243 0.000000 -47.564404
v 128.887848 0.000000 -48.238674
v 127.177567 0.000000 -23.006212
v 31.239885 0.000000 -26.337299
v 37.616306 0.000000 -208.005280
vn -0.0222 0.7677 0.6404
vn 0.6159 0.7867 0.0417
vn 0.0232 -0.7830 -0.6216
vn 0.6026 -0.7977 0.0207
vn -0.6116 -0.7909 -0.0227
vn 0.0219 -0.7775 -0.6285
vn -0.6109 -0.7914 -0.0213
vn -0.0283 -0.7921 0.6097
vn -0.6226 0.7823 -0.0219
vn -0.6280 -0.7775 -0.0320
vn 0.0220 0.7778 -0.6281
vn 0.6570 -0.7535 0.0229
vn 0.0184 -0.7464 -0.6653
vn 0.0000 -1.0000 0.0000
vn 0.9994 0.0000 0.0349
vn -0.0350 0.0000 0.9994
vn -0.9987 0.0000 -0.0509
vn -0.0463 0.0000 0.9989
vn -0.9994 0.0000 -0.0348
vn 0.0374 0.0000 -0.9993
vn -0.9993 0.0000 -0.0372
vn 0.0349 0.0000 -0.9994
vn 0.9994 0.0000 0.0343
vn -0.9977 0.0000 -0.0676
vn 0.0347 0.0000 -0.9994
vn 0.9994 0.0000 0.0351
vn 0.0277 0.0000 -0.9996
usemtl None
s off
f 3//1 12//1 6//1
f 12//2 13//2 7//2 6//2
f 7//3 11//3 18//3 23//3 22//3 20//3 15//3 13//3
f 15//4 20//4 19//4 14//4
f 19//5 20//5 22//5 21//5
f 14//6 19//6 21//6
f 23//7 18//7 24//7
f 9//8 16//8 24//8 18//8 11//8
f 3//9 6//9 7//9 11//9 9//9 10//9 4//9
f 10//10 8//10 17//10 16//10 9//10
f 8//11 17//11 2//11 5//11
f 2//12 5//12 1//12
f 1//13 5//13 8//13 10//13 4//13
f 25//14 26//14 27//14 28//14 29//14 30//14 31//14 32//14 33//14 34//14 35//14 36//14 37//14 38//14
f 1//15 25//15 26//15 2//15
f 2//16 26//16 27//16 17//16
f 17//17 27//17 28//17 16//17
f 16//18 28//18 29//18 24//18
f 24//19 29//19 30//19 23//19
f 23//20 30//20 31//20 22//20
f 22//21 31//21 32//21 21//21
f 21//22 32//22 33//22 14//22
f 14//23 33//23 34//23 15//23
f 15//20 34//20 35//20 13//20
f 13//24 35//24 36//24 12//24
f 12//25 36//25 37//25 3//25
f 3//26 37//26 38//26 4//26
f 4//27 38//27 25//27 1//27
