# Blender v2.92.0 OBJ File: ''
# www.blender.org
mtllib CG10_500_049072_0015_roof.mtl
o CG10_500_049072_0015_roof
v 246.631607 75.000000 -137.266251
v 255.082840 75.000000 -259.235840
v 216.561783 75.000000 -139.630051
v 213.532166 75.000000 -97.480835
v 193.256256 126.151604 -203.648987
v 164.110931 126.032784 -205.795654
v 145.273499 75.000000 -101.493011
v 140.334290 75.000000 -22.492386
v 153.353745 75.000000 -266.243378
v 166.549698 75.000000 -457.952484
v 141.535202 144.859390 -185.324234
v 108.603714 145.000000 -187.428192
v 84.139771 130.747040 -92.139587
v 89.332230 130.518997 -171.229309
v 89.233101 128.397385 -208.187073
v 102.481834 128.362427 -400.091095
v 10.071216 75.000000 -31.514925
v 40.215343 75.000000 -466.704529
v 246.631607 0.000000 -137.266251
v 255.082840 0.000000 -259.235840
v 153.353745 0.000000 -266.243378
v 166.549698 0.000000 -457.952484
v 40.215343 0.000000 -466.704529
v 10.071216 0.000000 -31.514925
v 140.334290 0.000000 -22.492386
v 145.273499 0.000000 -101.493011
v 213.532166 0.000000 -97.480835
v 216.561783 0.000000 -139.630051
vt 0.037720 0.935420
vt 0.525600 0.953910
vt 0.315130 0.811190
vt 0.544100 0.792020
vt 0.334580 0.649120
vt 0.150620 0.043638
vt 0.383830 0.180140
vt 0.334210 0.573390
vt 0.406760 0.615930
vt 0.530090 0.620240
vt 0.799750 0.800240
vt 0.614650 0.578290
vt 0.811090 0.713870
vt 0.923710 0.718720
vt 0.723810 0.582690
vt 0.955370 0.468780
vt 0.574360 0.454420
vt 0.623780 0.061573
vn -0.0447 0.7620 0.6460
vn 0.6767 0.7350 0.0423
vn 0.6231 -0.7809 0.0432
vn 0.0377 -0.7668 -0.6407
vn -0.6649 -0.7454 -0.0478
vn -0.0499 0.7713 0.6345
vn 0.6609 0.7491 0.0458
vn 0.0447 0.7594 -0.6491
vn 0.6633 0.7469 0.0457
vn 0.0450 0.7587 -0.6499
usemtl None
s off
f 17/1/1 8/2/1 13/3/1
f 8/2/2 7/4/2 14/5/2 13/3/2
f 17/1/3 18/6/3 16/7/3 15/8/3 12/9/3 14/5/3 13/3/3
f 12/9/4 11/10/4 4/11/4 7/4/4 14/5/4
f 11/10/5 6/12/5 3/13/5 4/11/5
f 3/13/6 1/14/6 5/15/6 6/12/6
f 1/14/7 2/16/7 5/15/7
f 2/16/8 9/17/8 15/8/8 12/9/8 11/10/8 6/12/8 5/15/8
f 9/17/9 10/18/9 16/7/9 15/8/9
f 10/18/10 18/6/10 16/7/10
