# Blender v2.92.0 OBJ File: ''
# www.blender.org
mtllib CG10_500_038070_0025_roof.mtl
o CG10_500_038070_0025_roof
v 132.877625 75.000000 -44.968918
v 17.353058 75.000000 -104.715714
v 72.643990 123.596413 -76.108093
v 152.700912 75.000000 -82.043327
v 284.723053 75.000000 -13.928557
v 122.623703 124.159103 -171.247314
v 240.558746 144.986191 -141.618927
v 159.095734 145.000000 -183.669220
v 370.317139 75.000000 -179.416885
v 122.185219 75.000000 -307.562805
v 132.877625 0.000000 -44.968918
v 17.353058 0.000000 -104.715714
v 122.185219 0.000000 -307.562805
v 370.317139 0.000000 -179.416885
v 284.723053 0.000000 -13.928557
v 152.700912 0.000000 -82.043327
vt 0.044840 0.676800
vt 0.187710 0.765100
vt 0.316860 0.471460
vt 0.411100 0.433120
vt 0.315720 0.050732
vt 0.343350 0.861210
vt 0.394580 0.746780
vt 0.735720 0.957010
vt 0.621600 0.562900
vt 0.956890 0.446240
vn -0.5467 0.7883 -0.2825
vn 0.5137 0.8128 0.2747
vn -0.2753 0.7997 0.5335
vn 0.5166 0.8135 0.2672
vn -0.2757 -0.7994 0.5338
vn -0.4594 -0.0002 0.8882
usemtl None
s off
f 2/1/1 3/2/1 6/3/1 8/4/1 10/5/1
f 3/2/2 1/6/2 4/7/2 6/3/2
f 4/7/3 5/8/3 7/9/3 8/4/3 6/3/3
f 5/8/4 9/10/4 7/9/4
f 10/5/5 9/10/5 7/9/5 8/4/5
f 1/6/6 3/2/6 2/1/6
