# Blender v2.92.0 OBJ File: ''
# www.blender.org
mtllib CG10_500_035064_0040_roof.mtl
o CG10_500_035064_0040_roof
v 34.178806 75.000000 -306.227234
v 517.250244 75.000000 -277.353729
v 513.510071 115.306671 -214.735596
v 431.665192 115.040604 -220.042343
v 108.881996 123.317535 -226.430832
v 269.358948 123.346359 -216.794083
v 301.966675 145.000000 -181.085144
v 389.983429 144.962357 -175.883011
v 509.612671 75.000000 -149.604935
v 479.805115 75.000000 -151.694870
v 187.466187 75.000000 -144.788208
v 25.114948 75.000000 -154.583923
v 423.927704 116.787010 -128.952271
v 352.609955 75.000000 -66.456589
v 183.366272 75.000000 -76.344063
v 417.051697 116.941696 -17.587914
v 471.573364 75.000000 -14.341743
v 349.741547 75.000000 -21.624424
v 34.178806 0.000000 -306.227234
v 517.250244 0.000000 -277.353729
v 509.612671 0.000000 -149.604935
v 479.805115 0.000000 -151.694870
v 471.573364 0.000000 -14.341743
v 349.741547 0.000000 -21.624424
v 352.609955 0.000000 -66.456589
v 183.366272 0.000000 -76.344063
v 187.466187 0.000000 -144.788208
v 25.114948 0.000000 -154.583923
vt 0.046423 0.518430
vt 0.201260 0.294610
vt 0.063177 0.046021
vt 0.346520 0.548950
vt 0.497890 0.324630
vt 0.338940 0.762170
vt 0.558160 0.435870
vt 0.720860 0.452080
vt 0.797900 0.314510
vt 0.949190 0.331040
vt 0.956100 0.135970
vt 0.651770 0.792970
vt 0.783600 0.598280
vt 0.646470 0.932630
vt 0.770890 0.945210
vt 0.871670 0.955320
vt 0.886890 0.527430
vt 0.941980 0.533940
vn -0.5192 0.8541 -0.0310
vn -0.0321 0.8463 0.5317
vn -0.5286 0.8483 -0.0317
vn 0.0323 0.8413 -0.5396
vn -0.0310 0.8469 0.5309
vn -0.5271 0.8491 -0.0337
vn 0.6080 0.7931 0.0364
vn -0.0368 0.8507 0.5243
vn 0.9982 -0.0001 0.0597
vn -0.0597 -0.0003 0.9982
usemtl None
s off
f 12/1/1 5/2/1 1/3/1
f 12/1/2 11/4/2 6/5/2 5/2/2
f 11/4/3 15/6/3 7/7/3 6/5/3
f 1/3/4 5/2/4 6/5/4 7/7/4 8/8/4 4/9/4 3/10/4 2/11/4
f 15/6/5 14/12/5 13/13/5 8/8/5 7/7/5
f 14/12/6 18/14/6 16/15/6 13/13/6
f 16/15/7 17/16/7 10/17/7 4/9/7 8/8/7 13/13/7
f 10/17/8 9/18/8 3/10/8 4/9/8
f 2/11/9 3/10/9 9/18/9
f 17/16/10 16/15/10 18/14/10
