# Blender v2.92.0 OBJ File: ''
# www.blender.org
mtllib CG10_500_035064_0011_roof.mtl
o CG10_500_035064_0011_roof
v 42.401512 75.000000 -14.356077
v 220.072311 75.000000 -27.219555
v 59.216091 88.926201 -38.241909
v 201.056793 89.128212 -48.840080
v 218.478333 75.000000 -70.847427
v 423.336548 75.000000 -86.746460
v 196.865952 91.168312 -91.512779
v 128.276474 143.325699 -111.905914
v 416.534424 75.000000 -173.580246
v 434.909454 75.000000 -175.493790
v 124.910995 144.588272 -159.748535
v 329.064697 144.095062 -174.911362
v 123.683350 144.819366 -174.184814
v 368.070496 110.451591 -220.022797
v 390.694763 110.176941 -221.979950
v 120.272209 145.000000 -222.678574
v 428.253540 75.000000 -268.917877
v 202.044724 75.000000 -252.804596
v 22.210098 75.000000 -282.429718
v 199.260468 75.000000 -295.063904
v 38.422928 87.195534 -283.592865
v 181.963196 89.523727 -293.837006
v 42.401512 0.000000 -14.356077
v 220.072311 0.000000 -27.219555
v 218.478333 0.000000 -70.847427
v 423.336548 0.000000 -86.746460
v 416.534424 0.000000 -173.580246
v 434.909454 0.000000 -175.493790
v 428.253540 0.000000 -268.917877
v 202.044724 0.000000 -252.804596
v 199.260468 0.000000 -295.063904
v 22.210098 0.000000 -282.429718
vt 0.048600 0.088936
vt 0.084076 0.085184
vt 0.263180 0.281680
vt 0.270640 0.438110
vt 0.129580 0.876640
vt 0.092782 0.953690
vt 0.439950 0.842450
vt 0.481560 0.912190
vt 0.280690 0.639010
vt 0.398170 0.052139
vt 0.273330 0.484680
vt 0.442110 0.184500
vt 0.436020 0.048181
vt 0.720050 0.435770
vt 0.805410 0.290250
vt 0.854910 0.283940
vt 0.937100 0.132520
vt 0.951660 0.433890
vt 0.911450 0.440060
vt 0.926340 0.720170
vt 0.430780 0.704800
vt 0.478070 0.771460
vn 0.5985 -0.7999 -0.0451
vn -0.0379 -0.8514 -0.5231
vn 0.0453 0.7829 0.6206
vn -0.0584 0.7621 -0.6448
vn 0.5759 -0.8151 -0.0620
vn 0.6407 0.7666 -0.0422
vn -0.0443 0.7821 -0.6216
vn 0.6513 0.7574 -0.0464
vn 0.0590 0.8222 0.5661
vn 0.6196 0.7834 -0.0485
vn 0.0455 0.8093 0.5856
vn 0.6093 0.7927 -0.0219
vn -0.6125 -0.7901 0.0224
vn 0.0712 0.0005 0.9975
usemtl None
s off
f 19/1/1 21/2/1 16/3/1 13/4/1 3/5/1 1/6/1
f 1/6/2 3/5/2 4/7/2 2/8/2
f 8/9/3 3/5/3 4/7/3
f 21/2/4 16/3/4 22/10/4
f 3/5/5 13/4/5 11/11/5 8/9/5
f 22/10/6 16/3/6 13/4/6 11/11/6 18/12/6 20/13/6
f 18/12/7 11/11/7 12/14/7 14/15/7 15/16/7 17/17/7
f 17/17/8 15/16/8 10/18/8
f 10/18/9 15/16/9 14/15/9 9/19/9
f 9/19/10 14/15/10 12/14/10 6/20/10
f 6/20/11 12/14/11 11/11/11 7/21/11 5/22/11
f 7/21/12 11/11/12 8/9/12 4/7/12
f 2/8/13 4/7/13 7/21/13 5/22/13
f 20/13/14 22/10/14 21/2/14 19/1/14
