# Blender v2.92.0 OBJ File: ''
# www.blender.org
mtllib CG10_500_041068_0057_roof.mtl
o CG10_500_041068_0057_roof
v 15.537293 75.000000 -31.966576
v 315.729462 75.000000 -16.098806
v 203.662704 145.000000 -139.827026
v 145.413712 144.996918 -142.900803
v 103.887779 120.168610 -189.782196
v 107.531258 120.166336 -259.031036
v 328.597321 75.000000 -259.254913
v 183.642609 75.000000 -266.890289
v 187.170731 75.000000 -334.016754
v 31.879892 75.000000 -342.234741
v 15.537293 0.000000 -31.966576
v 315.729462 0.000000 -16.098806
v 328.597321 0.000000 -259.254913
v 183.642609 0.000000 -266.890289
v 187.170731 0.000000 -334.016754
v 31.879892 0.000000 -342.234741
vt 0.312590 0.278470
vt 0.302000 0.471360
vt 0.533840 0.256570
vt 0.544100 0.069591
vt 0.092674 0.046700
vt 0.955220 0.277840
vt 0.592040 0.610510
vt 0.422710 0.601950
vt 0.917820 0.955160
vt 0.045167 0.910960
vn 0.5122 0.8584 0.0269
vn -0.0262 -0.8684 0.4952
vn -0.0256 -0.8739 0.4855
vn 0.5081 0.8609 0.0269
vn -0.0270 0.8594 0.5106
vn 0.4913 -0.8706 0.0259
usemtl None
s off
f 6/1/1 5/2/1 8/3/1 9/4/1
f 9/4/2 6/1/2 10/5/2
f 7/6/3 3/7/3 4/8/3 5/2/3 8/3/3
f 7/6/4 3/7/4 2/9/4
f 1/10/5 2/9/5 3/7/5 4/8/5
f 10/5/6 6/1/6 5/2/6 4/8/6 1/10/6
