# Blender v2.92.0 OBJ File: ''
# www.blender.org
mtllib CG10_500_039067_0054.mtl
o CG10_500_039067_0054
v 32.131691 75.000000 -209.657501
v 487.512299 75.000000 -185.044022
v 330.079132 124.111778 -127.666771
v 418.709015 124.207848 -122.747406
v 99.134949 129.492874 -132.930298
v 176.185547 129.687973 -128.503952
v 208.760345 133.842804 -121.169289
v 315.679779 134.630493 -114.333527
v 194.798599 145.000000 -106.955833
v 480.349152 75.000000 -53.568871
v 391.766602 75.000000 -58.613739
v 24.335262 75.000000 -66.526810
v 100.570526 75.000000 -61.895966
v 353.288055 75.000000 -37.467846
v 274.596161 75.000000 -43.219482
v 390.758331 75.000000 -34.729115
v 353.552704 75.000000 -37.448505
v 273.098663 75.000000 -13.855603
v 98.119804 75.000000 -23.389061
v 267.082703 75.000000 -14.183373
v 32.131691 0.000000 -209.657501
v 487.512299 0.000000 -185.044022
v 480.349152 0.000000 -53.568871
v 391.766602 0.000000 -58.613739
v 390.758331 0.000000 -34.729115
v 353.552704 0.000000 -37.448505
v 353.288055 0.000000 -37.467846
v 274.596161 0.000000 -43.219482
v 273.098663 0.000000 -13.855603
v 267.082703 0.000000 -14.183373
v 98.119804 0.000000 -23.389061
v 100.570526 0.000000 -61.895966
v 24.335262 0.000000 -66.526810
vn -0.6077 0.7932 -0.0387
vn 0.0370 -0.7925 -0.6087
vn -0.6075 0.7936 -0.0331
vn -0.0323 -0.8013 0.5973
vn -0.0341 0.7998 0.5993
vn 0.6009 0.7987 0.0327
vn -0.6050 -0.7958 -0.0255
vn -0.0337 0.7850 0.6186
vn 0.6441 0.7642 0.0328
vn -0.0458 0.7783 0.6262
vn 0.0000 -1.0000 0.0000
vn -0.0540 0.0000 0.9985
vn -0.9985 0.0000 -0.0544
vn 0.0569 0.0000 -0.9984
vn -0.9991 0.0000 -0.0422
vn 0.0729 0.0000 -0.9973
vn -0.9987 0.0000 -0.0509
vn 0.0544 0.0000 -0.9985
vn 0.9980 0.0000 0.0635
vn 0.0606 0.0000 -0.9982
vn 0.9985 0.0000 0.0544
usemtl None
s off
f 9//1 6//1 13//1 19//1
f 13//2 12//2 5//2 6//2
f 5//3 1//3 12//3
f 1//4 2//4 4//4 3//4 8//4 7//4 9//4 6//4 5//4
f 3//5 11//5 10//5 4//5
f 10//6 2//6 4//6
f 11//7 16//7 8//7 3//7
f 19//8 20//8 18//8 9//8
f 18//9 15//9 7//9 9//9
f 15//10 14//10 17//10 16//10 8//10 7//10
f 21//11 22//11 23//11 24//11 25//11 26//11 27//11 28//11 29//11 30//11 31//11 32//11 33//11
f 1//12 21//12 22//12 2//12
f 2//13 22//13 23//13 10//13
f 10//14 23//14 24//14 11//14
f 11//15 24//15 25//15 16//15
f 16//16 25//16 26//16 17//16
f 17//16 26//16 27//16 14//16
f 14//16 27//16 28//16 15//16
f 15//17 28//17 29//17 18//17
f 18//18 29//18 30//18 20//18
f 20//18 30//18 31//18 19//18
f 19//19 31//19 32//19 13//19
f 13//20 32//20 33//20 12//20
f 12//21 33//21 21//21 1//21
