# Blender v2.92.0 OBJ File: ''
# www.blender.org
mtllib CG10_500_038058_0008_roof.mtl
o CG10_500_038058_0008_roof
v 333.059296 75.000000 -207.814728
v 320.310608 75.000000 -9.860535
v 228.561508 145.000000 -119.453293
v 168.730652 144.999329 -123.305557
v 65.038353 75.000000 -26.300692
v 77.786507 75.000000 -224.246841
v 77.022552 75.000000 -212.384552
v 71.046280 75.000000 -119.588387
v 14.289986 75.000000 -123.243622
v 20.266260 75.000000 -216.039780
v 333.059296 0.000000 -207.814728
v 320.310608 0.000000 -9.860535
v 65.038353 0.000000 -26.300692
v 71.046280 0.000000 -119.588387
v 14.289986 0.000000 -123.243622
v 20.266260 0.000000 -216.039780
v 77.022552 0.000000 -212.384552
v 77.786507 0.000000 -224.246841
vt 0.186360 0.888080
vt 0.483470 0.475300
vt 0.654900 0.491690
vt 0.917800 0.958040
vt 0.954320 0.115680
vt 0.222880 0.045758
vt 0.220690 0.096236
vt 0.203570 0.491110
vt 0.040946 0.475560
vt 0.058070 0.080682
vn 0.0360 -0.8283 -0.5592
vn -0.5777 -0.8154 -0.0372
vn -0.0381 -0.8047 0.5924
vn -0.5830 0.8116 -0.0375
vn 0.0000 1.0000 0.0000
usemtl None
s off
f 5/1/1 4/2/1 3/3/1 2/4/1
f 2/4/2 3/3/2 1/5/2
f 1/5/3 3/3/3 4/2/3 6/6/3
f 5/1/4 4/2/4 6/6/4 7/7/4 8/8/4
f 9/9/5 8/8/5 7/7/5 10/10/5
