# Blender v2.92.0 OBJ File: ''
# www.blender.org
mtllib CG10_500_044074_0001_roof.mtl
o CG10_500_044074_0001_roof
v 261.284058 75.000000 -291.820984
v 410.309875 75.000000 -218.343445
v 231.708557 75.000000 -232.176102
v 125.997475 75.000000 -284.382721
v 296.320251 135.502914 -181.107208
v 77.017593 75.000000 -246.754227
v 100.674324 75.000000 -232.226440
v 266.844452 135.560883 -121.489578
v 194.034943 135.922806 -156.889603
v 177.732941 144.992783 -150.962234
v 161.604721 145.000000 -158.916214
v 126.581543 123.900070 -146.706543
v 103.282768 124.904495 -159.584686
v 309.758759 75.000000 -14.334859
v 234.842346 75.000000 -50.226776
v 225.272720 75.000000 -29.821033
v 19.919502 75.000000 -130.967133
v 261.284058 0.000000 -291.820984
v 410.309875 0.000000 -218.343445
v 309.758759 0.000000 -14.334859
v 234.842346 0.000000 -50.226776
v 225.272720 0.000000 -29.821033
v 19.919502 0.000000 -130.967133
v 77.017593 0.000000 -246.754227
v 100.674324 0.000000 -232.226440
v 125.997475 0.000000 -284.382721
v 231.708557 0.000000 -232.176102
vt 0.548700 0.835860
vt 0.723740 0.953150
vt 0.623470 0.602980
vt 0.453350 0.487290
vt 0.415260 0.506660
vt 0.377580 0.480670
vt 0.295750 0.520570
vt 0.241310 0.478480
vt 0.046541 0.572000
vt 0.526340 0.902550
vt 0.179950 0.193610
vt 0.235220 0.241090
vt 0.294390 0.070645
vt 0.541380 0.241250
vt 0.610480 0.046337
vt 0.692340 0.408150
vt 0.958670 0.286460
vn -0.2648 0.7902 0.5527
vn -0.2757 0.7815 0.5597
vn 0.5390 0.8035 0.2528
vn 0.5618 -0.7795 0.2770
vn -0.3329 -0.7716 0.5420
vn -0.5646 0.7785 -0.2741
vn 0.2596 0.8101 -0.5257
vn 0.5380 -0.7997 0.2668
vn 0.2588 0.8108 -0.5250
vn 0.5170 0.8172 0.2548
usemtl None
s off
f 15/1/1 14/2/1 8/3/1 9/4/1
f 10/5/2 11/6/2 12/7/2 13/8/2 17/9/2 16/10/2
f 16/10/3 15/1/3 9/4/3 10/5/3
f 17/9/4 6/11/4 13/8/4
f 6/11/5 7/12/5 12/7/5 13/8/5
f 12/7/6 11/6/6 4/13/6 7/12/6
f 11/6/7 10/5/7 9/4/7 8/3/7 3/14/7 4/13/7
f 3/14/8 1/15/8 5/16/8 8/3/8
f 5/16/9 2/17/9 1/15/9
f 14/2/10 2/17/10 5/16/10 8/3/10
