# Blender v2.92.0 OBJ File: ''
# www.blender.org
mtllib CG10_500_039073_0005.mtl
o CG10_500_039073_0005
v 256.979919 75.000000 -11.674827
v 307.454193 75.000000 -132.809753
v 218.805206 145.000000 -95.865303
v 95.451401 144.990021 -147.259598
v 64.992615 75.000000 -233.808563
v 14.532476 75.000000 -112.707603
v 256.979919 0.000000 -11.674827
v 307.454193 0.000000 -132.809753
v 64.992615 0.000000 -233.808563
v 14.532476 0.000000 -112.707603
vn -0.2859 0.6691 0.6860
vn 0.6939 -0.6595 0.2891
vn -0.2754 -0.6978 0.6612
vn -0.6639 -0.6948 -0.2766
vn 0.0000 1.0000 0.0000
vn 0.9231 0.0000 0.3846
vn 0.3845 0.0000 -0.9231
vn -0.9231 0.0000 -0.3846
vn -0.3847 0.0000 0.9231
usemtl None
s off
f 6//1 1//1 3//1 4//1
f 6//2 5//2 4//2
f 5//3 2//3 3//3 4//3
f 2//4 1//4 3//4
f 7//5 8//5 9//5 10//5
f 1//6 7//6 8//6 2//6
f 2//7 8//7 9//7 5//7
f 5//8 9//8 10//8 6//8
f 6//9 10//9 7//9 1//9
