# Blender v2.92.0 OBJ File: ''
# www.blender.org
mtllib CG10_500_037059_0009_roof.mtl
o CG10_500_037059_0009_roof
v 29.020166 75.000000 -199.044296
v 400.073608 75.000000 -176.931854
v 317.261688 145.000000 -101.124046
v 111.776932 144.988815 -113.382523
v 156.655121 107.959801 -64.976326
v 390.126251 75.000000 -10.331664
v 19.075611 75.000000 -32.492088
v 111.072472 75.000000 -26.997717
v 195.382767 75.000000 -21.962416
v 192.368256 75.000000 -9.325231
v 112.564560 75.000000 -14.090390
v 153.273453 101.651924 -11.497228
v 29.020166 0.000000 -199.044296
v 400.073608 0.000000 -176.931854
v 390.126251 0.000000 -10.331664
v 195.382767 0.000000 -21.962416
v 192.368256 0.000000 -9.325231
v 112.564560 0.000000 -14.090390
v 111.072472 0.000000 -26.997717
v 19.075611 0.000000 -32.492088
vt 0.364070 0.944990
vt 0.372100 0.689110
vt 0.464090 0.894920
vt 0.456930 0.955380
vt 0.263830 0.870820
vt 0.267370 0.932580
vt 0.926670 0.950570
vt 0.753590 0.516150
vt 0.265500 0.457500
vt 0.045310 0.844540
vt 0.950290 0.153440
vt 0.068932 0.047635
vn -0.5533 -0.8224 -0.1320
vn -0.5495 0.8331 0.0635
vn -0.0376 0.7766 0.6289
vn -0.6660 -0.7449 -0.0398
vn -0.0390 -0.7550 0.6546
vn 0.6226 -0.7817 0.0372
vn -0.0596 -0.0061 0.9982
usemtl None
s off
f 12/1/1 5/2/1 9/3/1 10/4/1
f 12/1/2 5/2/2 8/5/2 11/6/2
f 6/7/3 3/8/3 4/9/3 7/10/3 8/5/3 5/2/3 9/3/3
f 6/7/4 3/8/4 2/11/4
f 2/11/5 3/8/5 4/9/5 1/12/5
f 1/12/6 4/9/6 7/10/6
f 10/4/7 12/1/7 11/6/7
