# Blender v2.92.0 OBJ File: ''
# www.blender.org
mtllib CG10_500_038056_0012.mtl
o CG10_500_038056_0012
v 259.904572 75.000000 -12.454191
v 274.647034 75.000000 -262.443573
v 170.879074 145.000000 -106.813568
v 174.898178 144.994858 -174.848083
v 167.034607 137.983154 -184.673355
v 95.095993 137.976334 -188.914490
v 81.610825 75.000000 -22.973854
v 86.598488 75.000000 -107.274353
v 11.416003 75.000000 -111.716003
v 21.188965 75.000000 -277.354065
v 259.904572 0.000000 -12.454191
v 274.647034 0.000000 -262.443573
v 21.188965 0.000000 -277.354065
v 11.416003 0.000000 -111.716003
v 86.598488 0.000000 -107.274353
v 81.610825 0.000000 -22.973854
vn -0.0359 0.7931 0.6080
vn -0.6383 0.7688 -0.0378
vn -0.0364 0.7858 0.6173
vn -0.5945 -0.8033 -0.0351
vn 0.0352 0.7999 -0.5991
vn -0.6223 0.7819 -0.0367
vn 0.0000 1.0000 0.0000
vn 0.9983 0.0000 0.0589
vn 0.0587 0.0000 -0.9983
vn -0.9983 0.0000 -0.0589
vn -0.0590 0.0000 0.9983
vn -0.9983 0.0000 -0.0591
vn -0.0589 0.0000 0.9983
usemtl None
s off
f 8//1 5//1 6//1 9//1
f 7//2 3//2 4//2 5//2 8//2
f 1//3 3//3 7//3
f 1//4 3//4 4//4 2//4
f 10//5 6//5 5//5 4//5 2//5
f 9//6 6//6 10//6
f 11//7 12//7 13//7 14//7 15//7 16//7
f 1//8 11//8 12//8 2//8
f 2//9 12//9 13//9 10//9
f 10//10 13//10 14//10 9//10
f 9//11 14//11 15//11 8//11
f 8//12 15//12 16//12 7//12
f 7//13 16//13 11//13 1//13
