# Blender v2.92.0 OBJ File: ''
# www.blender.org
mtllib CG10_500_038056_0010.mtl
o CG10_500_038056_0010
v 13.654641 75.000000 -16.944660
v 118.327827 75.000000 -9.862176
v 285.045898 75.000000 -38.996559
v 121.044662 75.000000 -50.094376
v 67.143936 115.500885 -63.900238
v 69.825722 115.501884 -103.633324
v 197.304291 145.000000 -131.475861
v 108.756798 144.998260 -137.465637
v 28.252230 75.000000 -233.321960
v 296.965027 75.000000 -215.151764
v 13.654641 0.000000 -16.944660
v 118.327827 0.000000 -9.862176
v 121.044662 0.000000 -50.094376
v 285.045898 0.000000 -38.996559
v 296.965027 0.000000 -215.151764
v 28.252230 0.000000 -233.321960
vn -0.5936 -0.8037 -0.0401
vn 0.0425 -0.7768 -0.6283
vn 0.0414 0.7900 -0.6117
vn 0.5968 0.8014 0.0404
vn 0.0423 -0.7799 -0.6245
vn -0.6264 0.7783 -0.0423
vn 0.0000 1.0000 0.0000
vn -0.0675 0.0000 0.9977
vn 0.9977 0.0000 0.0674
vn 0.9977 0.0000 0.0675
vn 0.0675 0.0000 -0.9977
vn -0.9977 0.0000 -0.0673
usemtl None
s off
f 4//1 2//1 5//1 6//1
f 3//2 4//2 6//2 8//2 7//2
f 9//3 8//3 7//3 10//3
f 3//4 10//4 7//4
f 2//5 1//5 5//5
f 1//6 5//6 6//6 8//6 9//6
f 11//7 12//7 13//7 14//7 15//7 16//7
f 1//8 11//8 12//8 2//8
f 2//9 12//9 13//9 4//9
f 4//8 13//8 14//8 3//8
f 3//10 14//10 15//10 10//10
f 10//11 15//11 16//11 9//11
f 9//12 16//12 11//12 1//12
