# Blender v2.92.0 OBJ File: ''
# www.blender.org
mtllib CG10_500_045073_0020.mtl
o CG10_500_045073_0020
v 31.505671 75.000000 -296.838440
v 70.151382 75.000000 -388.265717
v 167.913284 75.000000 -346.942383
v 89.707848 75.000000 -161.902344
v 129.271667 75.000000 -255.513397
v 172.739319 75.000000 -358.361115
v 217.251678 145.000000 -232.324371
v 207.716537 144.881638 -210.154724
v 265.864502 75.000000 -319.006897
v 274.497253 75.000000 -340.381226
v 238.356598 133.715454 -240.691223
v 305.214996 121.718353 -258.081757
v 295.696686 121.545090 -235.102158
v 262.529755 75.000000 -88.857887
v 285.091888 75.000000 -140.328491
v 390.022491 75.000000 -291.553040
v 380.999237 75.000000 -270.351532
v 529.773254 133.652344 -117.636711
v 637.963562 75.000000 -161.759705
v 576.863525 75.000000 -17.210867
v 31.505671 0.000000 -296.838440
v 70.151382 0.000000 -388.265717
v 167.913284 0.000000 -346.942383
v 172.739319 0.000000 -358.361115
v 265.864502 0.000000 -319.006897
v 274.497253 0.000000 -340.381226
v 390.022491 0.000000 -291.553040
v 380.999237 0.000000 -270.351532
v 637.963562 0.000000 -161.759705
v 576.863525 0.000000 -17.210867
v 285.091888 0.000000 -140.328491
v 262.529755 0.000000 -88.857887
v 89.707848 0.000000 -161.902344
v 129.271667 0.000000 -255.513397
vn -0.2381 0.7911 0.5634
vn -0.5285 -0.8167 -0.2317
vn 0.2410 -0.7846 -0.5713
vn -0.5338 -0.8149 -0.2256
vn 0.2251 0.8159 -0.5326
vn -0.5374 -0.8117 -0.2287
vn -0.2299 -0.8070 0.5439
vn -0.5738 0.7855 -0.2317
vn -0.5652 0.7896 -0.2389
vn 0.0000 -1.0000 0.0000
vn 0.9211 0.0000 0.3893
vn -0.3893 0.0000 0.9211
vn 0.9272 0.0000 0.3745
vn -0.9201 0.0000 -0.3916
vn -0.9211 0.0000 -0.3893
vn 0.3888 0.0000 -0.9213
vn -0.9159 0.0000 -0.4015
vn 0.3893 0.0000 -0.9211
usemtl None
s off
f 4//1 14//1 8//1
f 8//2 7//2 11//2 15//2 14//2
f 11//3 18//3 20//3 15//3
f 18//4 19//4 20//4
f 19//5 17//5 13//5 9//5 6//5 7//5 11//5 18//5
f 13//6 12//6 16//6 17//6
f 12//7 10//7 16//7
f 13//8 12//8 10//8 9//8
f 4//9 8//9 7//9 6//9 3//9 5//9
f 5//10 1//10 2//10 3//10
f 21//10 22//10 23//10 24//10 25//10 26//10 27//10 28//10 29//10 30//10 31//10 32//10 33//10 34//10
f 1//11 21//11 22//11 2//11
f 2//12 22//12 23//12 3//12
f 3//11 23//11 24//11 6//11
f 6//12 24//12 25//12 9//12
f 9//13 25//13 26//13 10//13
f 10//12 26//12 27//12 16//12
f 16//14 27//14 28//14 17//14
f 17//12 28//12 29//12 19//12
f 19//15 29//15 30//15 20//15
f 20//16 30//16 31//16 15//16
f 15//17 31//17 32//17 14//17
f 14//18 32//18 33//18 4//18
f 4//11 33//11 34//11 5//11
f 5//18 34//18 21//18 1//18
