# Blender v2.92.0 OBJ File: ''
# www.blender.org
mtllib CG10_500_042070_0002.mtl
o CG10_500_042070_0002
v 184.768921 75.000000 -39.090023
v 295.803619 75.000000 -296.878235
v 154.576035 75.000000 -17.068668
v 166.858841 75.000000 -46.111111
v 128.041336 145.000000 -155.810638
v 170.320526 144.985672 -253.919022
v 105.621124 138.196167 -122.703728
v 117.555267 138.110794 -150.622665
v 11.076075 75.000000 -78.930862
v 134.935455 75.000000 -366.228607
v 184.768921 0.000000 -39.090023
v 295.803619 0.000000 -296.878235
v 134.935455 0.000000 -366.228607
v 11.076075 0.000000 -78.930862
v 154.576035 0.000000 -17.068668
v 166.858841 0.000000 -46.111111
vn -0.2499 0.7755 0.5798
vn 0.5444 0.8066 0.2302
vn -0.2273 0.7825 0.5797
vn 0.5328 0.8145 0.2295
vn -0.2445 -0.7865 0.5671
vn -0.6178 0.7398 -0.2664
vn 0.0000 1.0000 0.0000
vn 0.9184 0.0000 0.3956
vn 0.3959 0.0000 -0.9183
vn -0.9183 0.0000 -0.3959
vn -0.3959 0.0000 0.9183
vn 0.9210 0.0000 0.3895
vn -0.3650 0.0000 0.9310
usemtl None
s off
f 9//1 3//1 7//1
f 7//2 3//2 4//2 8//2
f 4//3 1//3 5//3 8//3
f 1//4 2//4 6//4 5//4
f 6//5 10//5 2//5
f 9//6 7//6 8//6 5//6 6//6 10//6
f 11//7 12//7 13//7 14//7 15//7 16//7
f 1//8 11//8 12//8 2//8
f 2//9 12//9 13//9 10//9
f 10//10 13//10 14//10 9//10
f 9//11 14//11 15//11 3//11
f 3//12 15//12 16//12 4//12
f 4//13 16//13 11//13 1//13
