# Blender v2.92.0 OBJ File: ''
# www.blender.org
mtllib CG10_500_041073_0013_roof.mtl
o CG10_500_041073_0013_roof
v 13.820446 75.000000 -91.724182
v 187.536621 75.000000 -18.425022
v 146.957565 144.962677 -145.683990
v 84.927025 75.000000 -260.708740
v 19.731800 75.000000 -287.274963
v 187.799240 145.000000 -242.604126
v 97.091278 116.600029 -319.648590
v 163.303070 116.269661 -292.160675
v 63.353233 75.000000 -390.673401
v 302.090546 75.000000 -289.935150
v 13.820446 0.000000 -91.724182
v 187.536621 0.000000 -18.425022
v 302.090546 0.000000 -289.935150
v 63.353233 0.000000 -390.673401
v 19.731800 0.000000 -287.274963
v 84.927025 0.000000 -260.708740
vt 0.267910 0.364130
vt 0.515150 0.287410
vt 0.306280 0.220370
vt 0.062245 0.299330
vt 0.199850 0.047138
vt 0.952970 0.292840
vt 0.592430 0.408280
vt 0.591600 0.955060
vt 0.463590 0.644670
vt 0.043598 0.776280
vn -0.2170 0.8181 0.5326
vn -0.5328 0.8159 -0.2248
vn 0.2419 0.7827 -0.5734
vn -0.5780 -0.7788 -0.2439
vn 0.2207 -0.8233 -0.5230
vn -0.5221 0.8241 -0.2197
usemtl None
s off
f 4/1/1 8/2/1 7/3/1 5/4/1
f 5/4/2 7/3/2 9/5/2
f 10/6/3 9/5/3 7/3/3 8/2/3 6/7/3
f 2/8/4 3/9/4 6/7/4 10/6/4
f 1/10/5 3/9/5 2/8/5
f 4/1/6 1/10/6 3/9/6 6/7/6 8/2/6
