# Blender v2.92.0 OBJ File: ''
# www.blender.org
mtllib CG10_500_039057_0010_roof.mtl
o CG10_500_039057_0010_roof
v 222.507050 75.000000 -27.003113
v 204.678024 75.000000 -318.277405
v 123.983147 145.000000 -20.970150
v 106.338715 144.868484 -312.264313
v 28.276899 75.000000 -15.118497
v 10.812840 75.000000 -306.414581
v 222.507050 0.000000 -27.003113
v 204.678024 0.000000 -318.277405
v 10.812840 0.000000 -306.414581
v 28.276899 0.000000 -15.118497
vt 0.527590 0.937220
vt 0.452510 0.065077
vt 0.870970 0.047074
vt 0.946840 0.919150
vt 0.120330 0.954740
vt 0.046012 0.082591
vn -0.5774 -0.8157 0.0353
vn 0.5886 -0.8077 -0.0353
vn 0.0611 0.0001 0.9981
vn -0.0611 0.0001 -0.9981
usemtl None
s off
f 3/1/1 4/2/1 2/3/1 1/4/1
f 3/1/2 5/5/2 6/6/2 4/2/2
f 2/3/3 4/2/3 6/6/3
f 5/5/4 3/1/4 1/4/4
