# Blender v2.92.0 OBJ File: ''
# www.blender.org
mtllib CG10_500_035064_0009.mtl
o CG10_500_035064_0009
v 359.889069 75.000000 -14.163749
v 376.338470 75.000000 -283.781464
v 251.815964 145.000000 -20.866596
v 261.748840 144.993011 -183.496506
v 250.582733 137.375153 -195.874359
v 147.158661 75.000000 -101.035225
v 142.671021 75.000000 -27.640638
v 16.779749 75.000000 -108.516197
v 23.034727 137.701553 -209.458099
v 28.986275 75.000000 -305.281403
v 359.889069 0.000000 -14.163749
v 376.338470 0.000000 -283.781464
v 28.986275 0.000000 -305.281403
v 16.779749 0.000000 -108.516197
v 147.158661 0.000000 -101.035225
v 142.671021 0.000000 -27.640638
vn -0.5381 0.8422 -0.0329
vn -0.0338 -0.8373 0.5458
vn -0.0302 0.8499 0.5261
vn -0.5419 -0.8398 -0.0331
vn 0.9981 0.0001 0.0619
vn 0.0619 0.0000 -0.9981
vn 0.0000 1.0000 0.0000
vn 0.9981 0.0000 0.0609
vn 0.0618 0.0000 -0.9981
vn -0.9981 0.0000 -0.0619
vn -0.0573 0.0000 0.9984
vn -0.9981 0.0000 -0.0610
vn -0.0619 0.0000 0.9981
usemtl None
s off
f 3//1 4//1 5//1 6//1 7//1
f 9//2 10//2 2//2 4//2 5//2
f 5//3 9//3 8//3 6//3
f 2//4 1//4 3//4 4//4
f 10//5 9//5 8//5
f 7//6 3//6 1//6
f 11//7 12//7 13//7 14//7 15//7 16//7
f 1//8 11//8 12//8 2//8
f 2//9 12//9 13//9 10//9
f 10//10 13//10 14//10 8//10
f 8//11 14//11 15//11 6//11
f 6//12 15//12 16//12 7//12
f 7//13 16//13 11//13 1//13
