# Blender v2.92.0 OBJ File: ''
# www.blender.org
mtllib CG10_500_042072_0027.mtl
o CG10_500_042072_0027
v 339.310516 75.000000 -186.933609
v 159.111282 75.000000 -317.373444
v 213.899445 127.636047 -201.006668
v 246.394409 127.773209 -177.284851
v 184.256607 144.845825 -197.383926
v 258.217712 75.000000 -74.920639
v 224.369354 75.000000 -99.883957
v 147.100739 145.000000 -145.735809
v 163.173157 75.000000 -14.260338
v 16.495636 75.000000 -120.442703
v 339.310516 0.000000 -186.933609
v 159.111282 0.000000 -317.373444
v 16.495636 0.000000 -120.442703
v 163.173157 0.000000 -14.260338
v 224.369354 0.000000 -99.883957
v 258.217712 0.000000 -74.920639
vn -0.4894 -0.7969 -0.3543
vn -0.3790 -0.7630 0.5236
vn -0.4940 0.7924 -0.3578
vn -0.3430 0.8111 0.4738
vn 0.3405 -0.8191 -0.4616
vn 0.5011 0.7878 0.3582
vn 0.0000 1.0000 0.0000
vn 0.5864 0.0000 -0.8100
vn -0.8099 0.0000 -0.5865
vn -0.5864 0.0000 0.8100
vn 0.8136 0.0000 0.5815
vn -0.5935 0.0000 0.8048
vn 0.8100 0.0000 0.5864
usemtl None
s off
f 6//1 4//1 1//1
f 1//2 4//2 3//2 5//2 2//2
f 5//3 2//3 10//3 8//3
f 8//4 10//4 9//4
f 7//5 3//5 4//5 6//5
f 7//6 3//6 5//6 8//6 9//6
f 11//7 12//7 13//7 14//7 15//7 16//7
f 1//8 11//8 12//8 2//8
f 2//9 12//9 13//9 10//9
f 10//10 13//10 14//10 9//10
f 9//11 14//11 15//11 7//11
f 7//12 15//12 16//12 6//12
f 6//13 16//13 11//13 1//13
