# Blender v2.92.0 OBJ File: ''
# www.blender.org
mtllib CG10_500_041070_0050.mtl
o CG10_500_041070_0050
v 454.828796 75.000000 -187.631073
v 445.095276 75.000000 -10.288792
v 357.310211 144.984756 -108.650757
v 221.207626 145.000000 -116.140518
v 206.590942 133.767288 -101.928596
v 142.155701 75.000000 -204.879776
v 140.351288 75.000000 -178.298920
v 97.509628 133.773071 -107.922775
v 29.941689 75.000000 -184.373352
v 21.662374 75.000000 -33.526997
v 454.828796 0.000000 -187.631073
v 445.095276 0.000000 -10.288792
v 21.662374 0.000000 -33.526997
v 29.941689 0.000000 -184.373352
v 140.351288 0.000000 -178.298920
v 142.155701 0.000000 -204.879776
vn -0.6332 0.7732 -0.0348
vn -0.0329 0.8003 0.5987
vn -0.6002 -0.7992 -0.0329
vn -0.0352 -0.7692 0.6381
vn 0.6348 -0.7715 0.0431
vn -0.0346 -0.7773 0.6281
vn 0.0000 -1.0000 0.0000
vn -0.9985 0.0000 -0.0548
vn 0.0548 0.0000 -0.9985
vn 0.9985 0.0000 0.0548
vn -0.0549 0.0000 0.9985
vn 0.9977 0.0000 0.0677
vn -0.0551 0.0000 0.9985
usemtl None
s off
f 10//1 8//1 9//1
f 10//2 2//2 3//2 4//2 5//2 8//2
f 2//3 3//3 1//3
f 1//4 3//4 4//4 6//4
f 4//5 5//5 7//5 6//5
f 5//6 8//6 9//6 7//6
f 11//7 12//7 13//7 14//7 15//7 16//7
f 1//8 11//8 12//8 2//8
f 2//9 12//9 13//9 10//9
f 10//10 13//10 14//10 9//10
f 9//11 14//11 15//11 7//11
f 7//12 15//12 16//12 6//12
f 6//13 16//13 11//13 1//13
