# Blender v2.92.0 OBJ File: ''
# www.blender.org
mtllib CG10_500_043069_0057_roof.mtl
o CG10_500_043069_0057_roof
v 386.990326 75.000000 -127.277596
v 341.238403 75.000000 -18.550426
v 306.322388 110.428307 -96.150719
v 359.523376 75.000000 -299.260590
v 302.157257 75.000000 -162.952362
v 219.394455 110.421684 -132.718597
v 183.262085 145.000000 -209.321457
v 193.876434 144.996918 -234.527863
v 150.806900 129.379822 -195.243103
v 131.544403 129.384476 -203.357117
v 109.145729 75.000000 -315.533234
v 141.025925 75.000000 -391.203430
v 18.240034 75.000000 -154.469421
v 89.500931 75.000000 -323.817261
v 386.990326 0.000000 -127.277596
v 341.238403 0.000000 -18.550426
v 18.240034 0.000000 -154.469421
v 89.500931 0.000000 -323.817261
v 109.145729 0.000000 -315.533234
v 141.025925 0.000000 -391.203430
v 359.523376 0.000000 -299.260590
v 302.157257 0.000000 -162.952362
vt 0.887710 0.270100
vt 0.478710 0.427980
vt 0.348210 0.045845
vt 0.955530 0.689570
vt 0.756350 0.765490
vt 0.842560 0.954760
vt 0.541710 0.676300
vt 0.452500 0.489460
vt 0.372360 0.523800
vt 0.324800 0.504010
vt 0.045037 0.623250
vt 0.746070 0.602560
vt 0.220990 0.210200
vt 0.269500 0.230410
vn -0.1908 -0.8707 0.4533
vn 0.4557 0.8692 0.1918
vn -0.2022 0.8533 0.4806
vn 0.1972 0.8610 -0.4689
vn -0.4434 -0.8767 -0.1866
vn 0.4948 -0.8437 0.2082
vn 0.1936 0.8671 -0.4590
vn 0.4962 -0.8426 0.2091
usemtl None
s off
f 4/1/1 8/2/1 12/3/1
f 1/4/2 3/5/2 2/6/2
f 2/6/3 3/5/3 6/7/3 7/8/3 9/9/3 10/10/3 13/11/3
f 1/4/4 5/12/4 6/7/4 3/5/4
f 4/1/5 5/12/5 6/7/5 7/8/5 8/2/5
f 13/11/6 14/13/6 10/10/6
f 10/10/7 9/9/7 11/14/7 14/13/7
f 12/3/8 8/2/8 7/8/8 9/9/8 11/14/8
