# Blender v2.92.0 OBJ File: ''
# www.blender.org
mtllib CG10_500_045064_0022_roof.mtl
o CG10_500_045064_0022_roof
v 279.187958 75.000000 -36.784466
v 293.748413 75.000000 -234.223404
v 196.690033 75.000000 -42.807518
v 194.949646 75.000000 -13.744028
v 192.496643 145.000000 -143.073395
v 142.271149 75.000000 -244.827393
v 145.276184 75.000000 -284.684204
v 124.310928 144.927628 -147.948212
v 113.301804 139.213699 -113.535461
v 115.079315 139.084671 -140.278473
v 85.888382 114.954201 -229.953079
v 83.128525 114.931305 -192.928009
v 11.700636 75.000000 -27.255436
v 31.272301 75.000000 -293.092468
v 279.187958 0.000000 -36.784466
v 293.748413 0.000000 -234.223404
v 142.271149 0.000000 -244.827393
v 145.276184 0.000000 -284.684204
v 31.272301 0.000000 -293.092468
v 11.700636 0.000000 -27.255436
v 194.949646 0.000000 -13.744028
v 196.690033 0.000000 -42.807518
vt 0.624990 0.533960
vt 0.906450 0.880180
vt 0.953730 0.237060
vt 0.373630 0.543070
vt 0.638600 0.860560
vt 0.403610 0.518080
vt 0.367860 0.630180
vt 0.632950 0.955230
vt 0.037989 0.911220
vt 0.101530 0.045301
vt 0.278860 0.250970
vt 0.269900 0.371570
vt 0.471680 0.072690
vt 0.461920 0.202520
vn 0.5945 0.8029 0.0438
vn -0.0418 0.8184 0.5731
vn 0.5907 0.8061 0.0354
vn 0.0416 -0.8244 -0.5645
vn 0.5585 -0.8285 0.0411
vn 0.0413 0.8278 -0.5595
vn 0.5853 0.8096 0.0441
vn -0.0406 -0.8137 0.5798
usemtl None
s off
f 5/1/1 1/2/1 2/3/1
f 10/4/2 3/5/2 1/2/2 5/1/2 8/6/2
f 10/4/3 9/7/3 4/8/3 3/5/3
f 13/9/4 9/7/4 4/8/4
f 13/9/5 14/10/5 11/11/5 12/12/5 8/6/5 10/4/5 9/7/5
f 14/10/6 11/11/6 7/13/6
f 11/11/7 12/12/7 6/14/7 7/13/7
f 6/14/8 2/3/8 5/1/8 8/6/8 12/12/8
