# Blender v2.92.0 OBJ File: ''
# www.blender.org
mtllib CG10_500_043069_0007.mtl
o CG10_500_043069_0007
v 103.021179 75.000000 -317.325531
v 420.037872 75.000000 -185.555222
v 157.797028 145.000000 -192.728943
v 305.101685 144.984314 -131.523514
v 131.985580 130.635712 -183.238724
v 120.274902 130.638504 -155.052933
v 349.091766 75.000000 -14.781640
v 165.266220 75.000000 -91.134033
v 153.774078 75.000000 -63.465748
v 20.518175 75.000000 -118.825523
v 103.021179 0.000000 -317.325531
v 420.037872 0.000000 -185.555222
v 349.091766 0.000000 -14.781640
v 165.266220 0.000000 -91.134033
v 153.774078 0.000000 -63.465748
v 20.518175 0.000000 -118.825523
vn 0.5949 0.7649 0.2471
vn 0.2339 -0.7925 -0.5632
vn 0.5853 0.7735 0.2432
vn 0.2292 0.8021 -0.5514
vn 0.2351 -0.7901 -0.5660
vn 0.5353 -0.8149 0.2225
vn 0.0000 -1.0000 0.0000
vn -0.3838 0.0000 0.9234
vn -0.9235 0.0000 -0.3836
vn 0.3836 0.0000 -0.9235
vn 0.9234 0.0000 0.3838
usemtl None
s off
f 8//1 5//1 6//1 9//1
f 7//2 8//2 5//2 3//2 4//2
f 2//3 4//3 7//3
f 1//4 3//4 4//4 2//4
f 10//5 6//5 9//5
f 6//6 10//6 1//6 3//6 5//6
f 11//7 12//7 13//7 14//7 15//7 16//7
f 1//8 11//8 12//8 2//8
f 2//9 12//9 13//9 7//9
f 7//10 13//10 14//10 8//10
f 8//9 14//9 15//9 9//9
f 9//10 15//10 16//10 10//10
f 10//11 16//11 11//11 1//11
