# Blender v2.92.0 OBJ File: ''
# www.blender.org
mtllib CG10_500_038068_0007_roof.mtl
o CG10_500_038068_0007_roof
v 27.186010 75.000000 -262.601074
v 21.801151 75.000000 -173.509613
v 24.410059 107.090584 -217.265518
v 55.094074 75.000000 -170.444504
v 48.586014 75.000000 -71.121292
v 80.147728 75.000000 -259.386658
v 81.405602 75.000000 -279.923737
v 104.128464 107.987289 -211.155655
v 114.645363 75.000000 -36.939686
v 116.491791 75.000000 -67.000557
v 134.003601 112.720352 -276.748871
v 130.643982 113.609741 -201.573776
v 152.522003 145.000000 -155.734955
v 184.596542 75.000000 -253.047363
v 185.185135 75.000000 -273.620728
v 182.753632 119.284386 -120.499184
v 180.968491 119.317635 -90.666176
v 235.093689 75.000000 -29.637033
v 236.848770 75.000000 -59.696926
v 272.347687 75.000000 -420.219696
v 261.948669 75.000000 -248.352661
v 285.445251 75.000000 -27.291145
v 286.914825 75.000000 -56.658764
v 321.070740 144.999405 -145.506119
v 340.368896 132.095230 -188.402130
v 338.823120 132.100952 -162.718521
v 358.579712 144.152420 -203.016815
v 365.347961 144.154739 -314.821838
v 353.756836 118.079033 -108.556587
v 352.141937 117.975800 -79.360847
v 409.813263 75.000000 -112.050270
v 404.304688 75.000000 -20.082493
v 440.439301 75.000000 -110.644485
v 458.504425 75.000000 -408.933075
v 27.186010 0.000000 -262.601074
v 21.801151 0.000000 -173.509613
v 55.094074 0.000000 -170.444504
v 48.586014 0.000000 -71.121292
v 116.491791 0.000000 -67.000557
v 114.645363 0.000000 -36.939686
v 235.093689 0.000000 -29.637033
v 236.848770 0.000000 -59.696926
v 286.914825 0.000000 -56.658764
v 285.445251 0.000000 -27.291145
v 404.304688 0.000000 -20.082493
v 409.813263 0.000000 -112.050270
v 440.439301 0.000000 -110.644485
v 458.504425 0.000000 -408.933075
v 272.347687 0.000000 -420.219696
v 261.948669 0.000000 -248.352661
v 184.596542 0.000000 -253.047363
v 185.185135 0.000000 -273.620728
v 81.405602 0.000000 -279.923737
v 80.147728 0.000000 -259.386658
vt 0.045419 0.606550
vt 0.050854 0.507330
vt 0.216930 0.521190
vt 0.114780 0.613500
vt 0.101220 0.838730
vt 0.317750 0.646860
vt 0.238840 0.916240
vt 0.242690 0.848070
vt 0.380740 0.726760
vt 0.377020 0.794410
vt 0.489780 0.932800
vt 0.493430 0.864630
vt 0.594680 0.938120
vt 0.597740 0.871520
vt 0.736990 0.753840
vt 0.733630 0.820040
vt 0.842300 0.954460
vt 0.853780 0.745920
vt 0.709100 0.572780
vt 0.705880 0.631020
vt 0.668900 0.670050
vt 0.917580 0.749110
vt 0.747040 0.539640
vt 0.761140 0.286120
vt 0.955220 0.072714
vt 0.567390 0.047121
vt 0.545730 0.436840
vt 0.056638 0.404530
vt 0.166970 0.411820
vt 0.272170 0.542920
vt 0.384580 0.426200
vt 0.279170 0.372450
vt 0.169600 0.365250
vt 0.385800 0.379540
vn 0.0542 -0.8067 -0.5884
vn -0.5793 0.8142 -0.0380
vn 0.5749 -0.8175 0.0353
vn -0.0369 0.7928 0.6084
vn 0.6088 0.7925 0.0355
vn 0.5567 -0.8302 0.0279
vn -0.0369 0.7934 0.6076
vn 0.6104 0.7913 0.0366
vn -0.0282 0.7880 0.6150
vn -0.6198 -0.7839 -0.0375
vn 0.0345 0.8214 -0.5694
vn -0.5708 0.8203 -0.0345
vn -0.0370 0.7918 0.6096
vn -0.0350 -0.8167 0.5760
vn -0.5810 0.8131 -0.0356
vn -0.5925 -0.8054 -0.0170
vn 0.9982 0.0011 0.0603
vn -0.0606 0.0005 0.9982
usemtl None
s off
f 2/1/1 3/2/1 8/3/1 4/4/1
f 4/4/2 5/5/2 13/6/2 8/3/2
f 9/7/3 10/8/3 16/9/3 17/10/3
f 9/7/4 18/11/4 17/10/4
f 18/11/5 19/12/5 16/9/5 17/10/5
f 22/13/6 23/14/6 29/15/6 30/16/6
f 22/13/7 32/17/7 30/16/7
f 32/17/8 31/18/8 25/19/8 26/20/8 24/21/8 29/15/8 30/16/8
f 31/18/9 33/22/9 27/23/9 25/19/9
f 27/23/10 28/24/10 34/25/10 33/22/10
f 20/26/11 28/24/11 34/25/11
f 20/26/12 21/27/12 26/20/12 25/19/12 27/23/12 28/24/12
f 5/5/13 10/8/13 16/9/13 19/12/13 23/14/13 29/15/13 24/21/13 13/6/13
f 3/2/14 1/28/14 6/29/14 12/30/14 14/31/14 21/27/14 26/20/14 24/21/14 13/6/14 8/3/14
f 6/29/15 12/30/15 11/32/15 7/33/15
f 11/32/16 15/34/16 14/31/16 12/30/16
f 1/28/17 3/2/17 2/1/17
f 15/34/18 11/32/18 7/33/18
