# Blender v2.92.0 OBJ File: ''
# www.blender.org
mtllib CG10_500_037059_0045.mtl
o CG10_500_037059_0045
v 40.360340 75.000000 -479.839783
v 194.098663 75.000000 -472.717865
v 106.853073 122.184319 -396.760101
v 105.484619 122.175064 -367.491241
v 112.387566 118.006935 -357.207214
v 186.893066 75.000000 -320.429291
v 366.208405 75.000000 -312.085083
v 32.049038 75.000000 -300.264771
v 44.132942 75.000000 -296.344635
v 264.039978 116.130569 -248.752762
v 293.764862 116.249329 -247.172958
v 107.477898 117.993881 -252.953720
v 160.401291 137.406647 -218.355545
v 225.325943 137.546600 -215.102676
v 146.364014 145.000000 -206.438904
v 331.842957 75.000000 -183.042587
v 360.150146 75.000000 -181.368469
v 144.141586 144.847488 -163.999832
v 37.151962 75.000000 -147.506546
v 21.611345 75.000000 -146.858963
v 264.110046 75.000000 -117.621170
v 328.383179 75.000000 -114.189583
v 98.466560 116.124138 -121.447372
v 96.981430 116.046844 -92.289177
v 87.252975 109.932701 -83.105492
v 69.576355 109.485260 -83.220512
v 260.043579 75.000000 -48.321369
v 172.593185 75.000000 -53.022842
v 16.260326 75.000000 -31.350275
v 170.978775 75.000000 -24.172071
v 40.360340 0.000000 -479.839783
v 194.098663 0.000000 -472.717865
v 186.893066 0.000000 -320.429291
v 366.208405 0.000000 -312.085083
v 360.150146 0.000000 -181.368469
v 331.842957 0.000000 -183.042587
v 328.383179 0.000000 -114.189583
v 264.110046 0.000000 -117.621170
v 260.043579 0.000000 -48.321369
v 172.593185 0.000000 -53.022842
v 170.978775 0.000000 -24.172071
v 16.260326 0.000000 -31.350275
v 21.611345 0.000000 -146.858963
v 37.151962 0.000000 -147.506546
v 44.132942 0.000000 -296.344635
v 32.049038 0.000000 -300.264771
vn -0.0328 0.8316 0.5544
vn -0.5106 -0.8595 -0.0237
vn 0.0241 0.8557 -0.5169
vn 0.4912 0.8708 0.0232
vn 0.0235 0.8611 -0.5079
vn -0.5569 0.8302 -0.0258
vn -0.1476 0.8782 0.4550
vn -0.5493 0.8353 -0.0258
vn -0.0194 0.8851 -0.4650
vn -0.5606 0.8277 -0.0260
vn -0.0249 0.8441 0.5356
vn 0.4664 0.8842 0.0261
vn 0.4945 0.8687 0.0290
vn -0.0289 0.8426 0.5377
vn 0.5006 0.8653 0.0252
vn -0.0293 0.8360 0.5480
vn 0.0000 -1.0000 0.0000
vn -0.0463 0.0000 0.9989
vn -0.9989 0.0000 -0.0473
vn -0.0465 0.0000 0.9989
vn -0.9989 0.0000 -0.0463
vn 0.0590 0.0000 -0.9983
vn -0.9987 0.0000 -0.0502
vn 0.0533 0.0000 -0.9986
vn -0.9983 0.0000 -0.0586
vn 0.0537 0.0000 -0.9986
vn -0.9984 0.0000 -0.0559
vn 0.0463 0.0000 -0.9989
vn 0.9989 0.0000 0.0463
vn 0.0416 0.0000 0.9991
vn 0.9989 0.0000 0.0469
vn 0.3086 0.0000 -0.9512
vn 0.9989 0.0000 0.0462
usemtl None
s off
f 16//1 17//1 11//1 10//1
f 11//2 7//2 17//2
f 7//3 6//3 12//3 15//3 13//3 14//3 10//3 11//3
f 6//4 2//4 3//4 4//4 5//4 12//4
f 2//5 1//5 3//5
f 1//6 8//6 4//6 3//6
f 8//7 9//7 5//7 4//7
f 9//8 19//8 25//8 24//8 23//8 18//8 15//8 12//8 5//8
f 19//9 20//9 26//9 25//9
f 29//10 26//10 20//10
f 29//11 30//11 24//11 25//11 26//11
f 30//12 28//12 23//12 24//12
f 27//13 21//13 13//13 15//13 18//13
f 28//14 27//14 18//14 23//14
f 22//15 16//15 10//15 14//15
f 21//16 22//16 14//16 13//16
f 31//17 32//17 33//17 34//17 35//17 36//17 37//17 38//17 39//17 40//17 41//17 42//17 43//17 44//17 45//17 46//17
f 1//18 31//18 32//18 2//18
f 2//19 32//19 33//19 6//19
f 6//20 33//20 34//20 7//20
f 7//21 34//21 35//21 17//21
f 17//22 35//22 36//22 16//22
f 16//23 36//23 37//23 22//23
f 22//24 37//24 38//24 21//24
f 21//25 38//25 39//25 27//25
f 27//26 39//26 40//26 28//26
f 28//27 40//27 41//27 30//27
f 30//28 41//28 42//28 29//28
f 29//29 42//29 43//29 20//29
f 20//30 43//30 44//30 19//30
f 19//31 44//31 45//31 9//31
f 9//32 45//32 46//32 8//32
f 8//33 46//33 31//33 1//33
