# Blender v2.92.0 OBJ File: ''
# www.blender.org
mtllib CG10_500_048067_0013_roof.mtl
o CG10_500_048067_0013_roof
v 353.032379 75.000000 -172.186844
v 346.374512 75.000000 -54.641617
v 331.274170 75.000000 -54.177803
v 328.154205 75.000000 -9.248960
v 289.835205 126.861137 -114.765030
v 272.373596 127.504417 -114.995995
v 249.998337 145.000000 -95.684196
v 106.411018 144.966431 -103.844421
v 26.527409 75.000000 -190.652710
v 17.256348 75.000000 -27.002752
v 353.032379 0.000000 -172.186844
v 346.374512 0.000000 -54.641617
v 331.274170 0.000000 -54.177803
v 328.154205 0.000000 -9.248960
v 17.256348 0.000000 -27.002752
v 26.527409 0.000000 -190.652710
vt 0.046639 0.864990
vt 0.287600 0.480780
vt 0.675670 0.521580
vt 0.886900 0.953760
vt 0.736140 0.425020
vt 0.895340 0.729110
vt 0.783340 0.426170
vt 0.936150 0.726790
vt 0.954140 0.139070
vt 0.071696 0.046736
vn 0.0371 -0.7599 -0.6489
vn -0.6388 -0.7681 -0.0444
vn -0.0197 -0.7662 -0.6423
vn -0.6538 -0.7557 -0.0370
vn -0.0366 -0.7613 0.6473
vn 0.6360 -0.7708 0.0360
usemtl None
s off
f 10/1/1 8/2/1 7/3/1 4/4/1
f 4/4/2 7/3/2 6/5/2 3/6/2
f 3/6/3 6/5/3 5/7/3 2/8/3
f 2/8/4 5/7/4 1/9/4
f 1/9/5 5/7/5 6/5/5 7/3/5 8/2/5 9/10/5
f 9/10/6 8/2/6 10/1/6
