# Blender v2.92.0 OBJ File: ''
# www.blender.org
mtllib CG10_500_040071_0001.mtl
o CG10_500_040071_0001
v 16.128662 75.000000 -22.228872
v 279.041382 75.000000 -9.971040
v 283.567780 75.000000 -106.546364
v 186.843719 145.000000 -111.342918
v 345.287048 75.000000 -103.392883
v 111.181473 144.998856 -114.868950
v 302.028107 109.094772 -153.421295
v 238.833496 108.990105 -156.503357
v 349.613892 75.000000 -196.256302
v 24.940277 75.000000 -211.380356
v 16.128662 0.000000 -22.228872
v 279.041382 0.000000 -9.971040
v 283.567780 0.000000 -106.546364
v 345.287048 0.000000 -103.392883
v 349.613892 0.000000 -196.256302
v 24.940277 0.000000 -211.380356
vn 0.0273 -0.8108 -0.5847
vn 0.5852 0.8104 0.0274
vn -0.0296 0.8139 0.5803
vn 0.5987 0.8005 0.0279
vn 0.0281 0.7971 -0.6032
vn -0.6106 0.7915 -0.0284
vn 0.0000 1.0000 0.0000
vn -0.0466 0.0000 0.9989
vn 0.9989 0.0000 0.0468
vn -0.0510 0.0000 0.9987
vn 0.9989 0.0000 0.0465
vn 0.0465 0.0000 -0.9989
vn -0.9989 0.0000 -0.0465
usemtl None
s off
f 1//1 6//1 4//1 2//1
f 4//2 2//2 3//2 8//2
f 3//3 5//3 7//3 8//3
f 7//4 5//4 9//4
f 10//5 6//5 4//5 8//5 7//5 9//5
f 1//6 6//6 10//6
f 11//7 12//7 13//7 14//7 15//7 16//7
f 1//8 11//8 12//8 2//8
f 2//9 12//9 13//9 3//9
f 3//10 13//10 14//10 5//10
f 5//11 14//11 15//11 9//11
f 9//12 15//12 16//12 10//12
f 10//13 16//13 11//13 1//13
