# Blender v2.92.0 OBJ File: ''
# www.blender.org
mtllib CG10_500_038057_0054_roof.mtl
o CG10_500_038057_0054_roof
v 396.120331 75.000000 -205.602493
v 387.503998 75.000000 -19.681160
v 296.856628 144.928970 -119.114868
v 253.653549 75.000000 -9.594126
v 254.394348 75.000000 -25.845205
v 202.816864 115.048615 -82.775711
v 197.910461 116.297691 -12.206429
v 149.727158 75.000000 -30.692141
v 148.254898 75.000000 -14.495074
v 28.128344 75.000000 -222.898788
v 19.499964 75.000000 -36.722710
v 23.904175 145.000000 -131.851517
v 396.120331 0.000000 -205.602493
v 387.503998 0.000000 -19.681160
v 254.394348 0.000000 -25.845205
v 253.653549 0.000000 -9.594126
v 148.254898 0.000000 -14.495074
v 149.727158 0.000000 -30.692141
v 19.499964 0.000000 -36.722710
v 28.128344 0.000000 -222.898788
vt 0.067779 0.055514
vt 0.954510 0.128800
vt 0.715320 0.495280
vt 0.057600 0.441310
vt 0.933740 0.916610
vt 0.613000 0.890490
vt 0.046988 0.844400
vt 0.360790 0.869950
vt 0.488720 0.649260
vt 0.476890 0.948280
vt 0.611210 0.959350
vt 0.357240 0.938580
vn -0.0286 -0.7931 0.6084
vn 0.5916 0.8058 0.0274
vn -0.0274 0.8057 0.5916
vn 0.5942 0.8038 0.0271
vn -0.6368 0.7689 -0.0579
vn -0.0464 0.0005 0.9989
vn -0.9989 -0.0001 -0.0463
usemtl None
s off
f 10/1/1 1/2/1 3/3/1 12/4/1
f 2/5/2 1/2/2 3/3/2
f 5/6/3 2/5/3 3/3/3 12/4/3 11/7/3 8/8/3 6/9/3
f 7/10/4 4/11/4 5/6/4 6/9/4
f 9/12/5 7/10/5 6/9/5 8/8/5
f 4/11/6 7/10/6 9/12/6
f 11/7/7 12/4/7 10/1/7
