# Blender v2.92.0 OBJ File: ''
# www.blender.org
mtllib CG10_500_048066_0009_roof.mtl
o CG10_500_048066_0009_roof
v 150.853729 75.000000 -277.788696
v 278.678741 75.000000 -268.734589
v 147.609558 75.000000 -237.475128
v 32.183155 75.000000 -245.659897
v 204.406921 122.712524 -208.693481
v 314.223816 75.000000 -183.454880
v 273.659210 75.000000 -186.012955
v 201.566605 123.001869 -168.943726
v 110.369759 145.000000 -145.757431
v 167.365494 144.990555 -141.728653
v 227.859955 128.673218 -116.693810
v 190.310562 128.566910 -119.204758
v 60.704254 106.732315 -100.543869
v 304.278320 75.000000 -42.983749
v 106.134865 75.000000 -56.947807
v 57.832531 106.717033 -59.398190
v 102.935509 75.000000 -11.477545
v 16.369442 75.000000 -17.607750
v 150.853729 0.000000 -277.788696
v 278.678741 0.000000 -268.734589
v 273.659210 0.000000 -186.012955
v 314.223816 0.000000 -183.454880
v 304.278320 0.000000 -42.983749
v 106.134865 0.000000 -56.947807
v 102.935509 0.000000 -11.477545
v 16.369442 0.000000 -17.607750
v 32.183155 0.000000 -245.659897
v 147.609558 0.000000 -237.475128
vt 0.314790 0.960560
vt 0.176860 0.795880
vt 0.185640 0.654490
vt 0.324570 0.804300
vt 0.836880 0.360780
vt 0.581990 0.590360
vt 0.511820 0.512960
vt 0.616410 0.419440
vt 0.625100 0.282840
vt 0.852230 0.076513
vt 0.461330 0.045400
vt 0.451410 0.183930
vt 0.337520 0.499120
vt 0.098419 0.155810
vt 0.050059 0.939490
vt 0.696820 0.598990
vt 0.960930 0.369570
vt 0.930510 0.852290
vn -0.5471 -0.8362 -0.0385
vn -0.5595 -0.8282 -0.0339
vn -0.0418 -0.8067 0.5894
vn 0.6273 -0.7772 0.0505
vn -0.0422 -0.8024 0.5953
vn 0.6346 -0.7716 0.0440
vn 0.0409 -0.8150 -0.5780
vn -0.0376 -0.8020 0.5961
vn 0.0435 -0.7856 -0.6172
vn -0.5489 -0.8350 -0.0389
usemtl None
s off
f 17/1/1 16/2/1 13/3/1 15/4/1
f 7/5/2 12/6/2 10/7/2 8/8/2 5/9/2 2/10/2
f 2/10/3 5/9/3 1/11/3
f 1/11/4 5/9/4 8/8/4 3/12/4
f 3/12/5 8/8/5 10/7/5 9/13/5 4/14/5
f 4/14/6 9/13/6 13/3/6 16/2/6 18/15/6
f 18/15/7 16/2/7 17/1/7
f 11/16/8 12/6/8 7/5/8 6/17/8
f 15/4/9 13/3/9 9/13/9 10/7/9 12/6/9 11/16/9 14/18/9
f 14/18/10 11/16/10 6/17/10
