# Blender v2.92.0 OBJ File: ''
# www.blender.org
mtllib CG10_500_038057_0004_roof.mtl
o CG10_500_038057_0004_roof
v 279.832489 75.000000 -180.433228
v 269.385956 75.000000 -8.386746
v 188.652588 145.000000 -104.287933
v 113.340019 144.999069 -108.881256
v 80.922066 115.213837 -145.623718
v 62.384224 115.004013 -146.998993
v 29.569651 75.000000 -95.715782
v 24.054890 75.000000 -23.353443
v 13.142541 75.000000 -97.186478
v 19.156771 75.000000 -196.328079
v 279.832489 0.000000 -180.433228
v 269.385956 0.000000 -8.386746
v 24.054890 0.000000 -23.353443
v 29.569651 0.000000 -95.715782
v 13.142541 0.000000 -97.186478
v 19.156771 0.000000 -196.328079
vt 0.065381 0.046951
vt 0.212920 0.286410
vt 0.276180 0.293090
vt 0.386830 0.471450
vt 0.643870 0.493750
vt 0.955060 0.124110
vt 0.044855 0.528220
vt 0.100920 0.535360
vt 0.082099 0.886630
vt 0.919410 0.959290
vn 0.0396 0.7588 -0.6501
vn 0.0531 -0.8036 -0.5929
vn -0.6539 0.7555 -0.0397
vn -0.6450 0.7626 -0.0492
vn 0.0372 -0.7920 -0.6094
vn -0.6284 -0.7770 -0.0382
usemtl None
s off
f 10/1/1 6/2/1 5/3/1 4/4/1 3/5/1 1/6/1
f 9/7/2 6/2/2 5/3/2 7/8/2
f 9/7/3 6/2/3 10/1/3
f 7/8/4 8/9/4 4/4/4 5/3/4
f 8/9/5 4/4/5 3/5/5 2/10/5
f 2/10/6 3/5/6 1/6/6
