# Blender v2.92.0 OBJ File: ''
# www.blender.org
mtllib CG10_500_045066_0003.mtl
o CG10_500_045066_0003
v 18.968626 115.831612 -222.844193
v 15.716064 75.000000 -167.748825
v 22.136827 75.000000 -275.777649
v 41.277100 75.000000 -165.581253
v 37.242188 75.000000 -91.610779
v 94.557388 116.554085 -217.414032
v 126.971306 145.000000 -178.480576
v 133.683823 75.000000 -21.760149
v 137.259277 75.000000 -86.751671
v 189.883316 144.738602 -175.083466
v 206.322540 129.500946 -92.193565
v 209.872620 129.602859 -154.386307
v 247.388672 105.723305 -222.426132
v 282.338745 105.667885 -220.422089
v 287.912689 75.000000 -179.550934
v 278.033020 75.000000 -13.167580
v 326.738403 75.000000 -257.683319
v 321.975403 75.000000 -177.669189
v 15.716064 0.000000 -167.748825
v 22.136827 0.000000 -275.777649
v 326.738403 0.000000 -257.683319
v 321.975403 0.000000 -177.669189
v 287.912689 0.000000 -179.550934
v 278.033020 0.000000 -13.167580
v 133.683823 0.000000 -21.760149
v 137.259277 0.000000 -86.751671
v 37.242188 0.000000 -91.610779
v 41.277100 0.000000 -165.581253
vn -0.0350 0.8076 0.5887
vn -0.6208 0.7832 -0.0342
vn 0.5804 0.8136 0.0345
vn -0.0333 0.7972 0.6028
vn 0.5877 0.8083 0.0350
vn -0.0296 0.7930 0.6085
vn 0.6354 -0.7714 0.0347
vn -0.0503 0.8038 0.5927
vn -0.0362 -0.7923 0.6090
vn 0.9982 0.0005 0.0593
vn 0.0000 -1.0000 0.0000
vn 0.9982 0.0000 0.0593
vn -0.0593 0.0000 0.9982
vn -0.9982 0.0000 -0.0594
vn 0.0552 0.0000 -0.9985
vn -0.9982 0.0000 -0.0593
vn 0.0594 0.0000 -0.9982
vn 0.9985 0.0000 0.0549
vn 0.0485 0.0000 -0.9988
vn 0.9985 0.0000 0.0545
vn 0.0845 0.0000 -0.9964
usemtl None
s off
f 8//1 16//1 11//1
f 11//2 12//2 9//2 8//2
f 11//3 16//3 15//3 13//3 10//3 12//3
f 15//4 18//4 14//4 13//4
f 18//5 17//5 14//5
f 5//6 9//6 12//6 10//6 7//6
f 5//7 4//7 6//7 7//7
f 6//8 1//8 2//8 4//8
f 1//9 3//9 17//9 14//9 13//9 10//9 7//9 6//9
f 3//10 1//10 2//10
f 19//11 20//11 21//11 22//11 23//11 24//11 25//11 26//11 27//11 28//11
f 2//12 19//12 20//12 3//12
f 3//13 20//13 21//13 17//13
f 17//14 21//14 22//14 18//14
f 18//15 22//15 23//15 15//15
f 15//16 23//16 24//16 16//16
f 16//17 24//17 25//17 8//17
f 8//18 25//18 26//18 9//18
f 9//19 26//19 27//19 5//19
f 5//20 27//20 28//20 4//20
f 4//21 28//21 19//21 2//21
