# Blender v2.92.0 OBJ File: ''
# www.blender.org
mtllib CG10_500_039070_0042_roof.mtl
o CG10_500_039070_0042_roof
v 291.768127 75.000000 -370.433746
v 32.326637 75.000000 -384.337250
v 207.846375 123.893272 -297.348114
v 170.356476 124.869278 -297.808472
v 135.785736 145.000000 -267.718018
v 283.372009 75.000000 -214.729675
v 247.408478 75.000000 -213.541443
v 129.666946 144.984406 -154.112534
v 172.824844 117.000961 -105.370667
v 172.745056 116.391930 -85.467430
v 105.509689 75.000000 -39.175529
v 14.069020 75.000000 -43.995392
v 236.803314 75.000000 -17.456112
v 106.203613 75.000000 -24.509888
v 291.768127 0.000000 -370.433746
v 32.326637 0.000000 -384.337250
v 14.069020 0.000000 -43.995392
v 105.509689 0.000000 -39.175529
v 106.203613 0.000000 -24.509888
v 236.803314 0.000000 -17.456112
v 247.408478 0.000000 -213.541443
v 283.372009 0.000000 -214.729675
vt 0.345940 0.939030
vt 0.771350 0.956580
vt 0.562690 0.787390
vt 0.343680 0.902550
vt 0.562950 0.737880
vt 0.805890 0.468800
vt 0.554910 0.259180
vt 0.442300 0.334030
vt 0.422370 0.616640
vt 0.923040 0.465850
vt 0.677020 0.260330
vt 0.045827 0.890560
vt 0.950380 0.078523
vt 0.105300 0.043937
vn -0.0291 0.8414 0.5396
vn 0.5119 -0.8587 -0.0242
vn 0.5212 0.8530 0.0282
vn 0.0165 0.8670 0.4980
vn -0.0272 0.8563 0.5157
vn 0.5214 0.8529 0.0281
vn 0.0286 0.8457 -0.5329
vn -0.5376 0.8427 -0.0288
usemtl None
s off
f 14/1/1 13/2/1 10/3/1
f 11/4/2 9/5/2 10/3/2 14/1/2
f 10/3/3 13/2/3 7/6/3 4/7/3 5/8/3 8/9/3 9/5/3
f 7/6/4 6/10/4 3/11/4 4/7/4
f 12/12/5 11/4/5 9/5/5 8/9/5
f 3/11/6 6/10/6 1/13/6
f 2/14/7 5/8/7 4/7/7 3/11/7 1/13/7
f 12/12/8 8/9/8 5/8/8 2/14/8
