# Blender v2.92.0 OBJ File: ''
# www.blender.org
mtllib CG10_500_040064_0035.mtl
o CG10_500_040064_0035
v 28.722736 75.000000 -199.126968
v 18.764954 75.000000 -29.609680
v 110.710121 145.000000 -110.231056
v 219.426773 144.999207 -103.827110
v 247.427704 75.000000 -186.242249
v 252.662750 75.000000 -276.070251
v 261.809723 110.296013 -143.006577
v 290.154694 110.208733 -169.123642
v 288.652100 110.298775 -141.421875
v 299.980347 75.000000 -100.010010
v 294.816772 75.000000 -13.351348
v 326.412964 137.956741 -199.990570
v 326.520691 75.000000 -98.439995
v 327.894531 75.000000 -125.615562
v 389.571381 75.000000 -122.417946
v 398.096466 75.000000 -267.527191
v 28.722736 0.000000 -199.126968
v 18.764954 0.000000 -29.609680
v 294.816772 0.000000 -13.351348
v 299.980347 0.000000 -100.010010
v 326.520691 0.000000 -98.439995
v 327.894531 0.000000 -125.615562
v 389.571381 0.000000 -122.417946
v 398.096466 0.000000 -267.527191
v 252.662750 0.000000 -276.070251
v 247.427704 0.000000 -186.242249
vn -0.6255 0.7793 -0.0367
vn 0.6544 0.7552 0.0390
vn 0.0387 -0.7552 -0.6543
vn -0.0387 -0.7511 0.6591
vn -0.6804 -0.7318 -0.0400
vn -0.6609 -0.7497 -0.0334
vn -0.0335 0.7625 0.6461
vn -0.0371 0.7752 0.6307
vn -0.6268 0.7784 -0.0365
vn -0.0377 -0.7679 0.6394
vn 0.0000 1.0000 0.0000
vn -0.9983 0.0000 -0.0586
vn -0.0588 0.0000 0.9983
vn 0.9982 0.0000 0.0595
vn -0.0591 0.0000 0.9983
vn 0.9987 0.0000 0.0505
vn -0.0518 0.0000 0.9987
vn 0.9983 0.0000 0.0586
vn 0.0586 0.0000 -0.9983
vn -0.9983 0.0000 -0.0582
vn 0.0588 0.0000 -0.9983
usemtl None
s off
f 2//1 3//1 1//1
f 4//2 11//2 10//2 7//2
f 9//3 13//3 10//3 7//3
f 6//4 16//4 12//4
f 16//5 15//5 12//5
f 8//6 14//6 13//6 9//6
f 14//7 15//7 12//7 8//7
f 2//8 11//8 4//8 3//8
f 8//9 12//9 6//9 5//9 9//9
f 1//10 5//10 9//10 7//10 4//10 3//10
f 17//11 18//11 19//11 20//11 21//11 22//11 23//11 24//11 25//11 26//11
f 1//12 17//12 18//12 2//12
f 2//13 18//13 19//13 11//13
f 11//14 19//14 20//14 10//14
f 10//15 20//15 21//15 13//15
f 13//16 21//16 22//16 14//16
f 14//17 22//17 23//17 15//17
f 15//18 23//18 24//18 16//18
f 16//19 24//19 25//19 6//19
f 6//20 25//20 26//20 5//20
f 5//21 26//21 17//21 1//21
