# Blender v2.92.0 OBJ File: ''
# www.blender.org
mtllib CG10_500_038057_0026_roof.mtl
o CG10_500_038057_0026_roof
v 183.240997 75.000000 -249.386444
v 307.526520 75.000000 -242.327835
v 25.340570 75.000000 -205.102219
v 180.230682 75.000000 -196.382141
v 304.519714 75.000000 -189.384842
v 20.422726 144.878098 -118.541382
v 299.596649 145.000000 -102.672836
v 15.317740 75.000000 -28.625326
v 294.479401 75.000000 -12.600123
v 183.240997 0.000000 -249.386444
v 307.526520 0.000000 -242.327835
v 304.519714 0.000000 -189.384842
v 294.479401 0.000000 -12.600123
v 15.317740 0.000000 -28.625326
v 25.340570 0.000000 -205.102219
v 180.230682 0.000000 -196.382141
vt 0.063425 0.547550
vt 0.078697 0.217170
vt 0.559720 0.250450
vt 0.945710 0.277160
vt 0.930420 0.608120
vt 0.569070 0.048143
vt 0.955050 0.075085
vt 0.047571 0.890740
vt 0.914530 0.951910
vn -0.0353 -0.7786 0.6265
vn 0.0000 -1.0000 0.0000
vn 0.0351 -0.7901 -0.6120
vn 0.9984 -0.0000 0.0567
vn -0.9984 -0.0000 -0.0567
usemtl None
s off
f 6/1/1 3/2/1 4/3/1 5/4/1 7/5/1
f 4/3/2 1/6/2 2/7/2 5/4/2
f 8/8/3 6/1/3 7/5/3 9/9/3
f 5/4/4 7/5/4 9/9/4
f 8/8/5 6/1/5 3/2/5
