# Blender v2.92.0 OBJ File: ''
# www.blender.org
mtllib CG10_500_038070_0006.mtl
o CG10_500_038070_0006
v 347.906189 75.000000 -468.626434
v 205.854401 75.000000 -540.797729
v 205.697586 75.000000 -540.482300
v 348.521667 75.000000 -469.870422
v 245.016571 145.000000 -444.589386
v 259.101044 120.282547 -408.114624
v 298.779572 75.000000 -369.337555
v 347.713898 75.000000 -344.706818
v 142.439026 75.000000 -413.238098
v 190.890244 75.000000 -388.770142
v 228.026016 120.437775 -345.716980
v 238.933304 141.820206 -312.352142
v 301.035065 75.000000 -250.806488
v 360.542297 75.000000 -219.566940
v 212.317749 128.450485 -221.501862
v 273.509827 125.554764 -193.488525
v 116.066788 75.000000 -239.489822
v 66.876511 75.000000 -263.977661
v 304.944031 75.000000 -107.710236
v 242.059143 75.000000 -132.169067
v 167.889923 142.038879 -170.049728
v 90.134583 123.513000 -185.546875
v 139.412796 123.497177 -161.037262
v 180.201981 122.000267 -138.896103
v 160.728592 121.160095 -97.378075
v 16.055441 75.000000 -161.753006
v 39.626011 75.000000 -150.039200
v 110.712791 73.709351 -113.097916
v 21.103012 75.000000 -112.780563
v 94.346237 73.682198 -76.369812
v 190.545181 75.000000 -28.542297
v 347.906189 0.000000 -468.626434
v 348.521667 0.000000 -469.870422
v 205.854401 0.000000 -540.797729
v 205.697586 0.000000 -540.482300
v 142.439026 0.000000 -413.238098
v 190.890244 0.000000 -388.770142
v 116.066788 0.000000 -239.489822
v 66.876511 0.000000 -263.977661
v 16.055441 0.000000 -161.753006
v 39.626011 0.000000 -150.039200
v 21.103012 0.000000 -112.780563
v 190.545181 0.000000 -28.542297
v 242.059143 0.000000 -132.169067
v 304.944031 0.000000 -107.710236
v 360.542297 0.000000 -219.566940
v 301.035065 0.000000 -250.806488
v 347.713898 0.000000 -344.706818
v 298.779572 0.000000 -369.337555
vn -0.3177 0.7181 0.6192
vn 0.5615 0.7790 0.2791
vn -0.2152 0.8048 0.5532
vn 0.5428 0.7953 0.2698
vn -0.2894 -0.7826 0.5512
vn -0.2929 -0.7586 0.5819
vn -0.5837 -0.7588 -0.2888
vn -0.3177 -0.7005 0.6390
vn -0.5985 0.7438 -0.2975
vn -0.3093 0.7275 0.6124
vn -0.5851 0.7561 -0.2933
vn 0.2806 0.7768 -0.5637
vn -0.5879 0.7543 -0.2923
vn -0.2966 0.7456 0.5968
vn 0.0144 0.9999 0.0072
vn -0.6153 0.7392 -0.2737
vn -0.4452 -0.0015 0.8954
vn 0.0000 1.0000 0.0000
vn 0.8963 0.0000 0.4435
vn 0.4452 0.0000 -0.8954
vn -0.8954 0.0000 -0.4452
vn -0.4508 0.0000 0.8926
vn -0.8940 0.0000 -0.4481
vn 0.4457 0.0000 -0.8952
vn -0.4450 0.0000 0.8955
vn -0.4452 0.0000 0.8954
vn 0.8955 0.0000 0.4451
vn -0.3625 0.0000 0.9320
vn 0.4648 0.0000 -0.8854
vn 0.4496 0.0000 -0.8932
usemtl None
s off
f 30//1 31//1 25//1
f 31//2 20//2 15//2 13//2 8//2 12//2 21//2 24//2 25//2
f 20//3 19//3 16//3 15//3
f 19//4 14//4 16//4
f 15//5 13//5 14//5 16//5
f 12//6 11//6 7//6 8//6
f 11//7 6//7 5//7 4//7 1//7 7//7
f 5//8 2//8 4//8
f 2//9 3//9 9//9 5//9
f 9//10 10//10 6//10 5//10
f 17//11 23//11 21//11 12//11 11//11 6//11 10//11
f 18//12 22//12 23//12 17//12
f 18//13 26//13 22//13
f 26//14 27//14 28//14 24//14 21//14 23//14 22//14
f 27//15 29//15 30//15 28//15
f 30//16 25//16 24//16 28//16
f 29//17 30//17 31//17
f 32//18 33//18 34//18 35//18 36//18 37//18 38//18 39//18 40//18 41//18 42//18 43//18 44//18 45//18 46//18 47//18 48//18 49//18
f 1//19 32//19 33//19 4//19
f 4//20 33//20 34//20 2//20
f 2//21 34//21 35//21 3//21
f 3//21 35//21 36//21 9//21
f 9//22 36//22 37//22 10//22
f 10//23 37//23 38//23 17//23
f 17//24 38//24 39//24 18//24
f 18//21 39//21 40//21 26//21
f 26//25 40//25 41//25 27//25
f 27//21 41//21 42//21 29//21
f 29//26 42//26 43//26 31//26
f 31//27 43//27 44//27 20//27
f 20//28 44//28 45//28 19//28
f 19//27 45//27 46//27 14//27
f 14//29 46//29 47//29 13//29
f 13//27 47//27 48//27 8//27
f 8//30 48//30 49//30 7//30
f 7//19 49//19 32//19 1//19
