# Blender v2.92.0 OBJ File: ''
# www.blender.org
mtllib CG10_500_039063_0021_roof.mtl
o CG10_500_039063_0021_roof
v 100.724777 75.000000 -274.694641
v 24.718153 75.000000 -279.611908
v 333.891602 75.000000 -220.288132
v 81.338844 75.000038 -236.642288
v 98.192421 75.000000 -235.550934
v 168.334961 145.000000 -136.606369
v 231.349243 144.978226 -132.555237
v 15.918561 75.000000 -143.594818
v 75.209290 75.000000 -139.758881
v 130.746185 118.385521 -103.320549
v 126.481529 116.587723 -73.798141
v 321.772156 75.000000 -32.956558
v 184.797424 75.000000 -41.699051
v 67.711121 75.000000 -21.243122
v 178.139023 75.000000 -14.091630
v 100.724777 0.000000 -274.694641
v 24.718153 0.000000 -279.611908
v 15.918561 0.000000 -143.594818
v 75.209290 0.000000 -139.758881
v 67.711121 0.000000 -21.243122
v 178.139023 0.000000 -14.091630
v 184.797424 0.000000 -41.699051
v 321.772156 0.000000 -32.956558
v 333.891602 0.000000 -220.288132
v 98.192421 0.000000 -235.550934
vt 0.192910 0.927500
vt 0.360350 0.748130
vt 0.507520 0.951910
vt 0.372500 0.647370
vt 0.526490 0.857680
vt 0.479590 0.533770
vt 0.659110 0.547590
vt 0.916730 0.887520
vt 0.951260 0.248160
vt 0.231730 0.192350
vt 0.279750 0.196070
vt 0.214270 0.523010
vt 0.045352 0.509920
vt 0.286970 0.062476
vt 0.070422 0.045693
vn 0.0384 -0.8041 -0.5933
vn -0.5284 -0.8394 -0.1274
vn 0.0381 -0.8010 -0.5974
vn -0.5852 -0.8100 -0.0379
vn -0.0385 -0.8027 0.5952
vn -0.5996 0.7994 -0.0379
vn -0.0000 1.0000 -0.0000
usemtl None
s off
f 14/1/1 11/2/1 15/3/1
f 15/3/2 11/2/2 10/4/2 13/5/2
f 13/5/3 10/4/3 6/6/3 7/7/3 12/8/3
f 12/8/4 7/7/4 3/9/4
f 3/9/5 7/7/5 6/6/5 4/10/5 5/11/5
f 14/1/6 11/2/6 10/4/6 6/6/6 4/10/6 9/12/6
f 8/13/7 9/12/7 4/10/7 5/11/7 1/14/7 2/15/7
