# Blender v2.92.0 OBJ File: ''
# www.blender.org
mtllib CG10_500_042066_0002_roof.mtl
o CG10_500_042066_0002_roof
v 267.545441 75.000000 -15.789082
v 76.868217 75.000000 -23.047432
v 168.049026 144.764633 -112.812630
v 398.029236 75.000000 -152.806656
v 274.027710 75.000000 -159.210159
v 18.789637 75.000000 -197.461945
v 83.475334 75.000000 -194.435318
v 172.093948 145.000000 -210.060715
v 323.884155 128.755005 -227.106995
v 198.243317 128.128067 -232.773270
v 139.505188 117.875229 -249.417740
v 75.124603 117.671402 -252.156235
v 403.633270 75.000000 -299.606293
v 23.228502 75.000000 -314.094818
v 267.545441 0.000000 -15.789082
v 76.868217 0.000000 -23.047432
v 83.475334 0.000000 -194.435318
v 18.789637 0.000000 -197.461945
v 23.228502 0.000000 -314.094818
v 403.633270 0.000000 -299.606293
v 398.029236 0.000000 -152.806656
v 274.027710 0.000000 -159.210159
vt 0.181720 0.930580
vt 0.632500 0.952440
vt 0.397280 0.660200
vt 0.197340 0.414350
vt 0.329800 0.248740
vt 0.406840 0.367290
vt 0.044420 0.405240
vt 0.177600 0.240490
vt 0.054914 0.053931
vt 0.468660 0.298880
vt 0.765680 0.315940
vt 0.954220 0.097571
vt 0.647820 0.520450
vt 0.940970 0.539740
vn -0.0228 0.8005 0.5990
vn 0.6223 -0.7824 0.0240
vn 0.0279 -0.8019 -0.5968
vn 0.6180 -0.7858 0.0235
vn 0.0221 0.8146 -0.5797
vn -0.0313 0.7947 0.6062
vn 0.5724 0.8197 0.0219
vn 0.5573 0.8299 0.0252
usemtl None
s off
f 2/1/1 1/2/1 3/3/1
f 2/1/2 7/4/2 11/5/2 8/6/2 3/3/2
f 11/5/3 7/4/3 6/7/3 12/8/3
f 6/7/4 14/9/4 12/8/4
f 14/9/5 12/8/5 11/5/5 8/6/5 10/10/5 9/11/5 13/12/5
f 5/13/6 4/14/6 9/11/6 10/10/6
f 9/11/7 4/14/7 13/12/7
f 3/3/8 1/2/8 5/13/8 10/10/8 8/6/8
