# Blender v2.92.0 OBJ File: ''
# www.blender.org
mtllib CG10_500_042066_0033.mtl
o CG10_500_042066_0033
v 24.952866 75.000000 -194.369217
v 15.711492 75.000000 -25.957678
v 54.602112 144.977127 -104.824074
v 282.194702 145.000000 -92.355293
v 320.172272 75.000000 -9.242202
v 329.417664 75.000000 -177.727417
v 24.952866 0.000000 -194.369217
v 15.711492 0.000000 -25.957678
v 320.172272 0.000000 -9.242202
v 329.417664 0.000000 -177.727417
vn -0.8955 0.4423 -0.0491
vn 0.0359 -0.7562 -0.6533
vn -0.8536 -0.5187 -0.0468
vn -0.0340 -0.7820 0.6224
vn 0.0000 1.0000 0.0000
vn -0.9985 0.0000 -0.0548
vn -0.0548 0.0000 0.9985
vn 0.9985 0.0000 0.0548
vn 0.0546 0.0000 -0.9985
usemtl None
s off
f 2//1 3//1 1//1
f 2//2 3//2 4//2 5//2
f 5//3 4//3 6//3
f 6//4 4//4 3//4 1//4
f 7//5 8//5 9//5 10//5
f 1//6 7//6 8//6 2//6
f 2//7 8//7 9//7 5//7
f 5//8 9//8 10//8 6//8
f 6//9 10//9 7//9 1//9
