# Blender v2.92.0 OBJ File: ''
# www.blender.org
mtllib CG10_500_038064_0007.mtl
o CG10_500_038064_0007
v 534.316223 75.000000 -12.536760
v 476.480927 74.999832 -17.003540
v 25.700552 75.000000 -40.307888
v 540.226257 75.000000 -123.094185
v 437.656128 144.132980 -129.809128
v 481.689087 75.000000 -126.490891
v 81.670128 145.000000 -149.602234
v 486.660370 75.000000 -230.998795
v 37.808071 75.000000 -257.601227
v 534.316223 0.000000 -12.536760
v 25.700552 0.000000 -40.307888
v 37.808071 0.000000 -257.601227
v 486.660370 0.000000 -230.998795
v 481.689087 0.000000 -126.490891
v 540.226257 0.000000 -123.094185
vn -0.0274 0.8481 0.5292
vn 0.8419 0.5382 0.0400
vn 0.0328 0.8326 -0.5529
vn -0.8136 0.5797 -0.0453
vn -0.0000 1.0000 0.0000
vn 0.0000 1.0000 -0.0001
vn 0.0000 -1.0000 0.0000
vn 0.0545 0.0000 -0.9985
vn 0.9985 0.0000 0.0556
vn -0.0592 0.0000 0.9982
vn -0.9989 0.0000 -0.0475
vn -0.0579 0.0000 0.9983
vn -0.9986 0.0000 -0.0534
usemtl None
s off
f 3//1 2//1 5//1 7//1
f 2//2 6//2 8//2 5//2
f 9//3 7//3 5//3 8//3
f 9//4 3//4 7//4
f 2//5 1//5 4//5 6//5
f 1//6 2//6 3//6
f 10//7 11//7 12//7 13//7 14//7 15//7
f 1//8 10//8 11//8 3//8
f 3//9 11//9 12//9 9//9
f 9//10 12//10 13//10 8//10
f 8//11 13//11 14//11 6//11
f 6//12 14//12 15//12 4//12
f 4//13 15//13 10//13 1//13
