# Blender v2.92.0 OBJ File: ''
# www.blender.org
mtllib CG10_500_044069_0023.mtl
o CG10_500_044069_0023
v 291.206360 75.000000 -158.959656
v 327.663239 75.000000 -245.807236
v 310.212494 75.000000 -253.157867
v 354.770782 75.000000 -359.306183
v 260.383972 75.000000 -172.162399
v 196.283920 75.000000 -19.464113
v 267.262848 145.000000 -217.778412
v 149.668762 71.670609 -145.724274
v 174.837540 71.680992 -206.503571
v 235.458618 75.000000 -409.390259
v 210.007523 75.000000 -348.759735
v 145.388229 144.404160 -269.569916
v 145.151245 75.000000 -375.984680
v 82.224754 75.000000 -248.476730
v 118.150070 75.000000 -334.058929
v 17.580465 75.000000 -94.479095
v 291.206360 0.000000 -158.959656
v 327.663239 0.000000 -245.807236
v 310.212494 0.000000 -253.157867
v 354.770782 0.000000 -359.306183
v 235.458618 0.000000 -409.390259
v 210.007523 0.000000 -348.759735
v 145.151245 0.000000 -375.984680
v 118.150070 0.000000 -334.058929
v 82.224754 0.000000 -248.476730
v 17.580465 0.000000 -94.479095
v 196.283920 0.000000 -19.464113
v 260.383972 0.000000 -172.162399
vn -0.0131 -0.9994 0.0312
vn -0.0301 -0.9995 -0.0126
vn 0.3320 -0.5377 -0.7750
vn 0.7477 -0.5851 0.3139
vn -0.3174 -0.5756 0.7536
vn 0.0000 -1.0000 0.0000
vn -0.7764 -0.5394 -0.3259
vn 0.0334 -0.9993 0.0140
vn 0.0333 -0.9994 0.0136
vn 0.0000 1.0000 0.0000
vn 0.9221 0.0000 0.3871
vn 0.3882 0.0000 -0.9216
vn 0.3871 0.0000 -0.9221
vn -0.9221 0.0000 -0.3871
vn -0.8407 0.0000 -0.5415
vn -0.3871 0.0000 0.9221
vn -0.3937 0.0000 0.9192
usemtl None
s off
f 16//1 8//1 6//1
f 16//2 14//2 9//2 8//2
f 14//3 12//3 7//3 1//3 5//3 9//3
f 14//4 15//4 12//4
f 12//5 15//5 3//5 2//5 7//5
f 15//6 13//6 11//6 10//6 4//6 3//6
f 1//7 7//7 2//7
f 6//8 8//8 5//8
f 8//9 9//9 5//9
f 17//10 18//10 19//10 20//10 21//10 22//10 23//10 24//10 25//10 26//10 27//10 28//10
f 1//11 17//11 18//11 2//11
f 2//12 18//12 19//12 3//12
f 3//11 19//11 20//11 4//11
f 4//13 20//13 21//13 10//13
f 10//14 21//14 22//14 11//14
f 11//13 22//13 23//13 13//13
f 13//15 23//15 24//15 15//15
f 15//14 24//14 25//14 14//14
f 14//14 25//14 26//14 16//14
f 16//16 26//16 27//16 6//16
f 6//11 27//11 28//11 5//11
f 5//17 28//17 17//17 1//17
