# Blender v2.92.0 OBJ File: ''
# www.blender.org
mtllib CG10_500_037059_0046_roof.mtl
o CG10_500_037059_0046_roof
v 263.811737 75.000000 -19.413654
v 13.427254 75.000000 -33.518799
v 144.938446 114.157967 -76.005478
v 211.532227 114.371216 -72.525711
v 104.248375 144.999466 -117.596062
v 269.691284 75.000000 -124.621696
v 202.432205 75.000000 -127.836029
v 208.363358 75.000000 -234.259369
v 264.239716 75.000000 -231.172241
v 114.070389 145.000000 -293.847229
v 186.576172 132.824310 -306.648682
v 131.908157 132.841522 -309.690216
v 272.667358 75.000000 -381.925568
v 33.588745 75.000000 -395.331390
v 168.398193 75.000000 -387.772247
v 244.658310 75.000000 -383.496124
v 169.388489 75.000000 -405.486542
v 245.649323 75.000000 -401.223297
v 263.811737 0.000000 -19.413654
v 13.427254 0.000000 -33.518799
v 33.588745 0.000000 -395.331390
v 168.398193 0.000000 -387.772247
v 169.388489 0.000000 -405.486542
v 245.649323 0.000000 -401.223297
v 244.658310 0.000000 -383.496124
v 272.667358 0.000000 -381.925568
v 264.239716 0.000000 -231.172241
v 208.363358 0.000000 -234.259369
v 202.432205 0.000000 -127.836029
v 269.691284 0.000000 -124.621696
vt 0.588800 0.085443
vt 0.592270 0.043664
vt 0.858910 0.053719
vt 0.855450 0.095528
vt 0.046948 0.920950
vt 0.922420 0.954210
vt 0.739620 0.828950
vt 0.506780 0.820740
vt 0.364500 0.722650
vt 0.942980 0.706080
vt 0.707800 0.698500
vt 0.117440 0.067615
vt 0.398850 0.306960
vt 0.728540 0.447500
vt 0.461220 0.269600
vt 0.923920 0.454780
vt 0.652360 0.276770
vt 0.953380 0.099232
vn 0.0000 -1.0000 0.0000
vn -0.0348 0.7862 0.6170
vn 0.5800 0.8139 0.0324
vn 0.0278 0.8122 -0.5827
vn -0.6303 0.7756 -0.0351
vn 0.5825 0.8122 0.0325
vn -0.0348 0.7757 0.6301
vn 0.5765 0.8164 0.0322
vn 0.0328 0.8104 -0.5850
usemtl None
s off
f 15/1/1 17/2/1 18/3/1 16/4/1
f 2/5/2 1/6/2 4/7/2 3/8/2 5/9/2
f 1/6/3 6/10/3 4/7/3
f 6/10/4 7/11/4 3/8/4 4/7/4
f 14/12/5 2/5/5 5/9/5 10/13/5
f 7/11/6 8/14/6 12/15/6 10/13/6 5/9/6 3/8/6
f 8/14/7 9/16/7 11/17/7 12/15/7
f 9/16/8 13/18/8 11/17/8
f 14/12/9 10/13/9 12/15/9 11/17/9 13/18/9 16/4/9 15/1/9
