# Blender v2.92.0 OBJ File: ''
# www.blender.org
mtllib CG10_500_042070_0014.mtl
o CG10_500_042070_0014
v 298.683624 75.000000 -313.368317
v 368.352692 75.000000 -173.863068
v 345.715546 75.000000 -159.712997
v 353.027985 75.000000 -141.180603
v 256.043365 135.601074 -210.524429
v 233.068130 136.528946 -197.799255
v 225.598221 145.000000 -182.669296
v 127.427574 144.989136 -133.645401
v 98.323120 75.000000 -14.029846
v 18.671829 75.000000 -173.495941
v 298.683624 0.000000 -313.368317
v 368.352692 0.000000 -173.863068
v 345.715546 0.000000 -159.712997
v 353.027985 0.000000 -141.180603
v 98.323120 0.000000 -14.029846
v 18.671829 0.000000 -173.495941
vn 0.2667 0.8022 0.5342
vn 0.5218 0.8279 -0.2059
vn 0.2947 0.8312 0.4714
vn 0.5230 0.8113 -0.2612
vn -0.2856 0.7692 -0.5716
vn -0.5912 0.7505 0.2953
vn 0.0000 -1.0000 0.0000
vn -0.8946 0.0000 0.4468
vn -0.5300 0.0000 -0.8480
vn -0.9302 0.0000 0.3670
vn -0.4466 0.0000 -0.8947
vn 0.8946 0.0000 -0.4468
vn 0.4469 0.0000 0.8946
usemtl None
s off
f 9//1 4//1 7//1 8//1
f 4//2 3//2 6//2 7//2
f 3//3 2//3 5//3 6//3
f 2//4 1//4 5//4
f 1//5 10//5 8//5 7//5 6//5 5//5
f 10//6 9//6 8//6
f 11//7 12//7 13//7 14//7 15//7 16//7
f 1//8 11//8 12//8 2//8
f 2//9 12//9 13//9 3//9
f 3//10 13//10 14//10 4//10
f 4//11 14//11 15//11 9//11
f 9//12 15//12 16//12 10//12
f 10//13 16//13 11//13 1//13
