# Blender v2.92.0 OBJ File: ''
# www.blender.org
mtllib CG10_500_035060_0030_roof.mtl
o CG10_500_035060_0030_roof
v 20.755186 75.000000 -348.009430
v 7.998569 75.000000 -22.060915
v 75.496658 123.483734 -345.823395
v 71.305290 122.929527 -254.741745
v 95.010925 144.802322 -228.453659
v 87.031960 145.000000 -18.868114
v 116.946266 127.042076 -248.106445
v 129.615921 75.000000 -343.623810
v 127.728455 75.000000 -307.892670
v 176.938934 75.000000 -189.747421
v 170.502289 75.000000 -15.519025
v 228.696106 75.000000 -303.743073
v 226.429428 125.158394 -245.786911
v 224.066910 75.000000 -189.656418
v 20.755186 0.000000 -348.009430
v 7.998569 0.000000 -22.060915
v 170.502289 0.000000 -15.519025
v 176.938934 0.000000 -189.747421
v 224.066910 0.000000 -189.656418
v 228.696106 0.000000 -303.743073
v 127.728455 0.000000 -307.892670
v 129.615921 0.000000 -343.623810
vt 0.315890 0.052539
vt 0.298350 0.302080
vt 0.534430 0.156460
vt 0.542330 0.058565
vt 0.956890 0.167830
vt 0.397540 0.374100
vt 0.489310 0.320260
vt 0.947400 0.326610
vt 0.937520 0.480390
vt 0.740330 0.480140
vt 0.713400 0.957480
vt 0.364150 0.948310
vt 0.033467 0.939560
vt 0.086842 0.046550
vn 0.6661 0.7451 0.0352
vn 0.0269 0.7564 -0.6536
vn -0.0013 0.7457 0.6663
vn 0.6418 0.7665 0.0237
vn -0.6622 0.7489 -0.0259
vn 0.0402 0.0002 -0.9992
vn -0.9992 0.0017 -0.0405
vn -0.0403 0.0004 0.9992
usemtl None
s off
f 3/1/1 4/2/1 9/3/1 8/4/1
f 12/5/2 9/3/2 4/2/2 5/6/2 7/7/2 13/8/2
f 14/9/3 13/8/3 7/7/3 10/10/3
f 11/11/4 10/10/4 7/7/4 5/6/4 6/12/4
f 2/13/5 6/12/5 5/6/5 4/2/5 3/1/5 1/14/5
f 2/13/6 6/12/6 11/11/6
f 14/9/7 13/8/7 12/5/7
f 8/4/8 3/1/8 1/14/8
