# Blender v2.92.0 OBJ File: ''
# www.blender.org
mtllib CG10_500_036061_0006_roof.mtl
o CG10_500_036061_0006_roof
v 64.617104 75.000000 -284.633026
v 20.808840 75.000000 -137.053223
v 84.303963 140.219940 -195.001282
v 176.566864 75.000000 -89.529053
v 168.529846 75.000000 -62.110462
v 274.538818 140.890671 -137.752884
v 261.975586 145.000000 -77.055824
v 326.763763 75.000000 -35.927834
v 323.990631 75.000000 -15.948622
v 395.366638 75.000000 -12.125719
v 443.044098 75.000000 -172.465240
v 419.091980 143.750381 -91.232330
v 64.617104 0.000000 -284.633026
v 20.808840 0.000000 -137.053223
v 176.566864 0.000000 -89.529053
v 168.529846 0.000000 -62.110462
v 323.990631 0.000000 -15.948622
v 326.763763 0.000000 -35.927834
v 395.366638 0.000000 -12.125719
v 443.044098 0.000000 -172.465240
vt 0.044847 0.543160
vt 0.181690 0.350000
vt 0.591680 0.540820
vt 0.380530 0.701570
vt 0.363210 0.792970
vt 0.564600 0.743150
vt 0.698260 0.946840
vt 0.704230 0.880240
vt 0.852080 0.959580
vt 0.903220 0.695890
vt 0.139260 0.051223
vt 0.954840 0.425120
vn 0.1930 -0.7500 -0.6326
vn -0.6080 0.7736 -0.1782
vn -0.2457 0.5047 0.8276
vn -0.2098 0.7683 0.6048
vn -0.7013 -0.7062 -0.0973
vn 0.7926 -0.5626 0.2353
vn 0.1791 0.7764 -0.6043
vn -0.9585 0.0028 -0.2850
usemtl None
s off
f 2/1/1 3/2/1 6/3/1 4/4/1
f 5/5/2 7/6/2 6/3/2 4/4/2
f 9/7/3 7/6/3 5/5/3
f 8/8/4 10/9/4 12/10/4 6/3/4
f 9/7/5 7/6/5 6/3/5 8/8/5
f 1/11/6 3/2/6 2/1/6
f 1/11/7 3/2/7 6/3/7 12/10/7 11/12/7
f 10/9/8 12/10/8 11/12/8
