# Blender v2.92.0 OBJ File: ''
# www.blender.org
mtllib CG10_500_042060_0024_roof.mtl
o CG10_500_042060_0024_roof
v 25.773775 75.000000 -299.936462
v 122.807228 144.547379 -294.903687
v 228.100662 75.000000 -289.368591
v 224.795959 75.000000 -210.071594
v 235.773148 75.000000 -208.430511
v 116.888016 145.000000 -169.349533
v 156.130157 126.791435 -140.745255
v 142.715729 127.228783 -142.078598
v 80.107651 119.999176 -134.773193
v 77.400681 120.053032 -81.459633
v 143.101868 75.000000 -65.844040
v 228.102280 75.000000 -61.439304
v 11.231894 75.000000 -21.291782
v 140.573380 75.000000 -14.539379
v 25.773775 0.000000 -299.936462
v 228.100662 0.000000 -289.368591
v 224.795959 0.000000 -210.071594
v 235.773148 0.000000 -208.430511
v 228.102280 0.000000 -61.439304
v 143.101868 0.000000 -65.844040
v 140.573380 0.000000 -14.539379
v 11.231894 0.000000 -21.291782
vt 0.045473 0.932410
vt 0.569120 0.953840
vt 0.313360 0.741400
vt 0.579360 0.790970
vt 0.324320 0.572150
vt 0.473230 0.462380
vt 0.497200 0.063798
vt 0.104350 0.047821
vt 0.923490 0.804950
vt 0.632110 0.553190
vt 0.577800 0.548960
vt 0.954550 0.338320
vt 0.910110 0.333110
vt 0.923480 0.081370
vn -0.0302 0.8157 0.5776
vn 0.5608 0.8275 0.0276
vn -0.5812 0.8132 -0.0303
vn -0.0293 0.8245 0.5650
vn 0.5623 0.8264 0.0293
vn 0.5502 0.8347 0.0229
vn -0.0813 -0.8354 0.5436
vn 0.0522 -0.0005 -0.9986
usemtl None
s off
f 13/1/1 14/2/1 10/3/1
f 14/2/2 11/4/2 9/5/2 10/3/2
f 13/1/3 10/3/3 9/5/3 6/6/3 2/7/3 1/8/3
f 11/4/4 12/9/4 7/10/4 8/11/4 6/6/4 9/5/4
f 12/9/5 5/12/5 7/10/5
f 6/6/6 8/11/6 4/13/6 3/14/6 2/7/6
f 7/10/7 8/11/7 4/13/7 5/12/7
f 1/8/8 2/7/8 3/14/8
