# Blender v2.92.0 OBJ File: ''
# www.blender.org
mtllib CG10_500_036063_0005_roof.mtl
o CG10_500_036063_0005_roof
v 436.921173 75.000000 -64.894981
v 51.188107 75.000000 -14.065857
v 33.534058 145.000000 -149.018982
v 419.302490 144.903549 -199.663620
v 405.887238 75.000000 -302.206177
v 20.110733 75.000000 -251.704391
v 436.921173 0.000000 -64.894981
v 51.188107 0.000000 -14.065857
v 20.110733 0.000000 -251.704391
v 405.887238 0.000000 -302.206177
vt 0.074355 0.528420
vt 0.929720 0.368150
vt 0.899970 0.043651
vt 0.044591 0.203470
vt 0.113500 0.955490
vt 0.968780 0.794640
vn -0.0727 0.8285 -0.5553
vn 0.0598 0.8893 0.4534
vn -0.9916 -0.0001 0.1297
vn 0.9916 -0.0001 -0.1297
usemtl None
s off
f 3/1/1 4/2/1 5/3/1 6/4/1
f 3/1/2 2/5/2 1/6/2 4/2/2
f 2/5/3 3/1/3 6/4/3
f 5/3/4 4/2/4 1/6/4
