# Blender v2.92.0 OBJ File: ''
# www.blender.org
mtllib CG10_500_037057_0016_roof.mtl
o CG10_500_037057_0016_roof
v 31.665073 75.000000 -21.801668
v 315.405609 75.000000 -9.464167
v 318.132538 75.000000 -69.716606
v 367.540070 75.000000 -67.841576
v 35.294628 75.000000 -94.479164
v 17.318583 75.000000 -98.746666
v 120.925728 144.999756 -115.344635
v 223.836639 145.000000 -110.870232
v 256.152222 122.334579 -136.949844
v 307.809570 122.224091 -134.837982
v 88.761444 116.917824 -150.795776
v 68.884254 115.569542 -153.294907
v 372.807648 75.000000 -189.277161
v 21.874006 75.000000 -204.534256
v 31.665073 0.000000 -21.801668
v 315.405609 0.000000 -9.464167
v 318.132538 0.000000 -69.716606
v 367.540070 0.000000 -67.841576
v 372.807648 0.000000 -189.277161
v 21.874006 0.000000 -204.534256
v 17.318583 0.000000 -98.746666
v 35.294628 0.000000 -94.479164
vt 0.081192 0.898600
vt 0.808730 0.955980
vt 0.573940 0.484320
vt 0.310070 0.463510
vt 0.656800 0.363020
vt 0.815720 0.675740
vt 0.942410 0.684460
vt 0.789260 0.372850
vt 0.955920 0.119640
vt 0.227590 0.298620
vt 0.090499 0.560560
vt 0.056087 0.048678
vt 0.176630 0.287000
vt 0.044407 0.540710
vn -0.0254 0.8118 0.5833
vn -0.5883 -0.8082 -0.0266
vn 0.0224 -0.8077 -0.5892
vn -0.6018 -0.7982 -0.0261
vn -0.6372 0.7700 -0.0318
vn 0.0276 0.7712 -0.6360
vn -0.1223 0.8483 0.5153
vn -0.6358 0.7713 -0.0274
usemtl None
s off
f 1/1/1 2/2/1 8/3/1 7/4/1
f 9/5/2 3/6/2 2/2/2 8/3/2
f 4/7/3 3/6/3 9/5/3 10/8/3
f 13/9/4 4/7/4 10/8/4
f 1/1/5 7/4/5 11/10/5 5/11/5
f 14/12/6 12/13/6 11/10/6 7/4/6 8/3/6 9/5/6 10/8/6 13/9/6
f 5/11/7 11/10/7 12/13/7 6/14/7
f 6/14/8 12/13/8 14/12/8
