# Blender v2.92.0 OBJ File: ''
# www.blender.org
mtllib CG10_500_038069_0015_roof.mtl
o CG10_500_038069_0015_roof
v 215.027145 75.000000 -314.498016
v 203.094604 75.000000 -57.202423
v 130.667236 75.000000 -60.951946
v 127.889450 75.000000 -14.738790
v 111.229408 145.000000 -224.759857
v 108.015869 144.997604 -155.394302
v 73.110420 118.772072 -122.256599
v 70.583626 118.524765 -74.462440
v 26.711536 75.000000 -323.203979
v 12.680879 75.000000 -20.059679
v 215.027145 0.000000 -314.498016
v 203.094604 0.000000 -57.202423
v 130.667236 0.000000 -60.951946
v 127.889450 0.000000 -14.738790
v 12.680879 0.000000 -20.059679
v 26.711536 0.000000 -323.203979
vt 0.898650 0.832250
vt 0.951450 0.077718
vt 0.492170 0.340880
vt 0.477950 0.544300
vt 0.578170 0.821260
vt 0.323500 0.641480
vt 0.565880 0.956780
vt 0.312320 0.781640
vt 0.056110 0.941170
vt 0.118190 0.052188
vn 0.5747 0.8180 0.0267
vn -0.0311 0.7994 0.6000
vn 0.5811 0.8131 0.0349
vn -0.0280 0.7949 0.6061
vn 0.6176 -0.7859 0.0286
vn -0.0275 -0.8034 0.5949
usemtl None
s off
f 2/1/1 1/2/1 5/3/1 6/4/1
f 3/5/2 2/1/2 6/4/2 7/6/2
f 4/7/3 3/5/3 7/6/3 8/8/3
f 10/9/4 4/7/4 8/8/4
f 10/9/5 9/10/5 5/3/5 6/4/5 7/6/5 8/8/5
f 9/10/6 1/2/6 5/3/6
