# Blender v2.92.0 OBJ File: ''
# www.blender.org
mtllib CG10_500_036062_0028.mtl
o CG10_500_036062_0028
v 515.898865 75.000000 -164.412827
v 524.982971 75.000000 -315.893982
v 506.423401 75.000000 -66.379257
v 510.360657 75.000000 -132.049881
v 490.874512 75.000000 -133.370590
v 486.921265 75.000000 -67.550156
v 492.818817 75.000000 -165.742493
v 483.772858 75.000000 -15.130440
v 477.670471 95.291710 -99.784058
v 458.700378 95.336731 -100.993294
v 448.496918 124.342880 -241.320145
v 434.963165 116.540794 -230.553284
v 432.464966 116.549149 -189.165543
v 387.521942 145.000000 -145.005524
v 386.482635 144.958572 -126.676170
v 375.016174 137.110229 -158.754791
v 368.261169 75.000000 -261.472351
v 372.120605 75.000000 -325.060791
v 263.939453 75.000000 -28.314987
v 266.254547 75.000000 -72.070869
v 184.174179 137.060272 -170.325668
v 152.180222 116.157829 -206.683197
v 95.259674 116.074089 -210.247726
v 80.100014 75.000000 -149.319458
v 75.479050 75.000000 -83.712715
v 24.255308 75.000000 -152.940430
v 31.977217 75.000000 -281.716522
v 515.898865 0.000000 -164.412827
v 524.982971 0.000000 -315.893982
v 372.120605 0.000000 -325.060791
v 368.261169 0.000000 -261.472351
v 31.977217 0.000000 -281.716522
v 24.255308 0.000000 -152.940430
v 80.100014 0.000000 -149.319458
v 75.479050 0.000000 -83.712715
v 266.254547 0.000000 -72.070869
v 263.939453 0.000000 -28.314987
v 483.772858 0.000000 -15.130440
v 486.921265 0.000000 -67.550156
v 506.423401 0.000000 -66.379257
v 510.360657 0.000000 -132.049881
v 490.874512 0.000000 -133.370590
v 492.818817 0.000000 -165.742493
vn -0.0331 0.8335 0.5516
vn 0.5579 0.8292 0.0335
vn -0.0324 0.8416 0.5391
vn 0.5504 0.8342 0.0330
vn 0.0344 0.8613 -0.5069
vn -0.0322 0.8281 0.5596
vn 0.5649 0.8245 0.0339
vn 0.0317 0.8482 -0.5287
vn -0.5178 0.8549 -0.0314
vn 0.0312 0.8544 -0.5187
vn -0.5192 0.8541 -0.0311
vn -0.0358 0.8328 0.5525
vn -0.5172 0.8551 -0.0364
vn -0.0338 0.8320 0.5537
vn -0.5119 0.8586 -0.0271
vn 0.0000 1.0000 0.0000
vn 0.9982 0.0000 0.0599
vn 0.0599 0.0000 -0.9982
vn -0.9982 0.0000 -0.0606
vn 0.0601 0.0000 -0.9982
vn -0.9982 0.0000 -0.0599
vn -0.0647 0.0000 0.9979
vn -0.9975 0.0000 -0.0703
vn -0.0609 0.0000 0.9981
vn -0.9986 0.0000 -0.0528
vn -0.0599 0.0000 0.9982
vn 0.9982 0.0000 0.0600
vn 0.9982 0.0000 0.0598
vn 0.0676 0.0000 -0.9977
vn -0.0575 0.0000 0.9983
usemtl None
s off
f 19//1 8//1 15//1
f 8//2 6//2 10//2 5//2 7//2 12//2 13//2 14//2 15//2
f 6//3 3//3 9//3 10//3
f 3//4 4//4 9//4
f 4//5 5//5 10//5 9//5
f 7//6 1//6 11//6 12//6
f 1//7 2//7 11//7
f 2//8 18//8 11//8
f 18//9 17//9 13//9 12//9 11//9
f 17//10 27//10 23//10 22//10 21//10 16//10 14//10 13//10
f 27//11 26//11 23//11
f 26//12 24//12 22//12 23//12
f 24//13 25//13 21//13 22//13
f 25//14 20//14 16//14 21//14
f 20//15 19//15 15//15 14//15 16//15
f 28//16 29//16 30//16 31//16 32//16 33//16 34//16 35//16 36//16 37//16 38//16 39//16 40//16 41//16 42//16 43//16
f 1//17 28//17 29//17 2//17
f 2//18 29//18 30//18 18//18
f 18//19 30//19 31//19 17//19
f 17//20 31//20 32//20 27//20
f 27//21 32//21 33//21 26//21
f 26//22 33//22 34//22 24//22
f 24//23 34//23 35//23 25//23
f 25//24 35//24 36//24 20//24
f 20//25 36//25 37//25 19//25
f 19//26 37//26 38//26 8//26
f 8//27 38//27 39//27 6//27
f 6//26 39//26 40//26 3//26
f 3//28 40//28 41//28 4//28
f 4//29 41//29 42//29 5//29
f 5//27 42//27 43//27 7//27
f 7//30 43//30 28//30 1//30
