# Blender v2.92.0 OBJ File: ''
# www.blender.org
mtllib CG10_500_049069_0029_roof.mtl
o CG10_500_049069_0029_roof
v 348.067078 75.000000 -10.507320
v 16.871944 75.000000 -26.162397
v 21.168783 144.996384 -117.067444
v 352.363983 145.000000 -101.417068
v 323.663666 75.000000 -196.386658
v 356.778839 75.000000 -194.822296
v 297.389221 75.000000 -197.627853
v 25.583235 75.000000 -210.467865
v 81.060036 75.000000 -207.847153
v 55.553802 75.000000 -209.052063
v 296.293854 75.000000 -206.182098
v 322.568237 75.000000 -204.940216
v 56.009190 75.000000 -218.686844
v 79.817139 75.000000 -217.561539
v 348.067078 0.000000 -10.507320
v 16.871944 0.000000 -26.162397
v 25.583235 0.000000 -210.467865
v 55.553802 0.000000 -209.052063
v 56.009190 0.000000 -218.686844
v 79.817139 0.000000 -217.561539
v 81.060036 0.000000 -207.847153
v 297.389221 0.000000 -197.627853
v 296.293854 0.000000 -206.182098
v 322.568237 0.000000 -204.940216
v 323.663666 0.000000 -196.386658
v 356.778839 0.000000 -194.822296
vt 0.056905 0.488790
vt 0.947220 0.557130
vt 0.935660 0.954120
vt 0.045355 0.885750
vt 0.870060 0.142420
vt 0.867120 0.105060
vt 0.796490 0.099641
vt 0.799430 0.137000
vt 0.068772 0.080926
vt 0.149340 0.087109
vt 0.217900 0.092370
vt 0.959080 0.149250
vt 0.214560 0.049950
vt 0.150560 0.045036
vn 0.0288 -0.7927 -0.6090
vn 0.0000 1.0000 -0.0000
vn -0.0283 -0.8005 0.5986
vn -0.9989 0.0000 -0.0472
vn 0.9989 0.0000 0.0472
usemtl None
s off
f 3/1/1 4/2/1 1/3/1 2/4/1
f 5/5/2 12/6/2 11/7/2 7/8/2
f 3/1/3 8/9/3 10/10/3 9/11/3 7/8/3 5/5/3 6/12/3 4/2/3
f 9/11/2 14/13/2 13/14/2 10/10/2
f 2/4/4 3/1/4 8/9/4
f 6/12/5 4/2/5 1/3/5
