# Blender v2.92.0 OBJ File: ''
# www.blender.org
mtllib CG10_500_039070_0030_roof.mtl
o CG10_500_039070_0030_roof
v 14.949697 75.000000 -135.731003
v 15.599575 75.000000 -146.696564
v 27.272532 75.000000 -343.656830
v 15.646050 75.000000 -147.480789
v 14.827420 75.000000 -133.667892
v 8.634175 75.000000 -29.167774
v 101.097801 144.989365 -118.999420
v 108.835335 145.000000 -249.332901
v 125.844177 126.857147 -92.843117
v 153.611465 126.854614 -91.195587
v 204.596176 75.000000 -152.165512
v 215.322372 75.000000 -332.481628
v 222.221329 75.000000 -16.521538
v 230.191833 75.000000 -150.643936
v 14.949697 0.000000 -135.731003
v 15.599575 0.000000 -146.696564
v 15.646050 0.000000 -147.480789
v 27.272532 0.000000 -343.656830
v 215.322372 0.000000 -332.481628
v 204.596176 0.000000 -152.165512
v 230.191833 0.000000 -150.643936
v 222.221329 0.000000 -16.521538
v 8.634175 0.000000 -29.167774
v 14.827420 0.000000 -133.667892
vt 0.112700 0.045398
vt 0.449730 0.307410
vt 0.889760 0.076440
vt 0.417760 0.669450
vt 0.520020 0.742100
vt 0.845440 0.577320
vt 0.634760 0.746680
vt 0.951210 0.581540
vt 0.918270 0.954110
vt 0.035678 0.918980
vt 0.064653 0.590330
vt 0.064461 0.592510
vt 0.061776 0.622970
vt 0.061270 0.628700
vn 0.0366 0.7871 -0.6158
vn 0.5673 0.8229 0.0337
vn 0.0374 0.7764 -0.6291
vn -0.5785 -0.8149 -0.0344
vn -0.0350 0.8055 0.5915
vn -0.6258 0.7791 -0.0371
usemtl None
s off
f 3/1/1 8/2/1 12/3/1
f 7/4/2 9/5/2 11/6/2 12/3/2 8/2/2
f 9/5/3 10/7/3 14/8/3 11/6/3
f 13/9/4 10/7/4 14/8/4
f 6/10/5 13/9/5 10/7/5 9/5/5 7/4/5
f 3/1/6 4/11/6 2/12/6 1/13/6 5/14/6 6/10/6 7/4/6 8/2/6
