# Blender v2.92.0 OBJ File: ''
# www.blender.org
mtllib CG10_500_036064_0028_roof.mtl
o CG10_500_036064_0028_roof
v 308.185699 75.000000 -321.300140
v 461.521790 75.000000 -331.176605
v 312.220490 75.000000 -261.919159
v 22.991428 75.000000 -242.261368
v 392.601501 132.453705 -251.787567
v 396.528473 132.375351 -192.393845
v 470.104370 75.000000 -197.895676
v 125.841919 144.297638 -158.358658
v 381.393433 145.000000 -174.806290
v 437.188080 102.314636 -162.518585
v 472.273560 75.000000 -164.156708
v 398.199707 132.750351 -158.947845
v 474.451080 75.000000 -130.418060
v 401.767700 132.896896 -100.626274
v 325.843842 75.000000 -75.001137
v 34.900024 75.000000 -57.377243
v 481.167389 75.000000 -26.200857
v 329.231110 75.000000 -16.415716
v 308.185699 0.000000 -321.300140
v 461.521790 0.000000 -331.176605
v 470.104370 0.000000 -197.895676
v 472.273560 0.000000 -164.156708
v 474.451080 0.000000 -130.418060
v 481.167389 0.000000 -26.200857
v 329.231110 0.000000 -16.415716
v 325.843842 0.000000 -75.001137
v 34.900024 0.000000 -57.377243
v 22.991428 0.000000 -242.261368
v 312.220490 0.000000 -261.919159
vt 0.867440 0.531650
vt 0.941370 0.624160
vt 0.937050 0.526930
vt 0.932750 0.429700
vt 0.045618 0.301840
vt 0.249690 0.543630
vt 0.756730 0.496240
vt 0.786760 0.445550
vt 0.619490 0.245190
vt 0.646520 0.783860
vt 0.069246 0.834650
vt 0.790080 0.541940
vt 0.653240 0.952690
vt 0.797160 0.710010
vt 0.611480 0.074063
vt 0.778970 0.274390
vt 0.915720 0.045601
vt 0.954700 0.924490
vn 0.6127 0.7893 -0.0395
vn 0.6127 0.7893 -0.0394
vn -0.0412 0.7946 -0.6058
vn -0.0356 -0.8088 -0.5870
vn -0.5791 0.8144 0.0373
vn -0.5986 0.8003 0.0346
vn -0.5843 0.8105 0.0397
vn 0.0392 -0.7930 0.6079
vn -0.0379 -0.8079 -0.5881
vn 0.6126 0.7894 -0.0395
usemtl None
s off
f 10/1/1 13/2/1 11/3/1
f 7/4/2 10/1/2 11/3/2
f 4/5/3 8/6/3 9/7/3 6/8/3 3/9/3
f 15/10/4 16/11/4 8/6/4 9/7/4 12/12/4
f 4/5/5 16/11/5 8/6/5
f 15/10/6 18/13/6 14/14/6 12/12/6
f 1/15/7 3/9/7 6/8/7 5/16/7
f 2/17/8 5/16/8 1/15/8
f 17/18/9 18/13/9 14/14/9
f 2/17/10 5/16/10 6/8/10 9/7/10 12/12/10 14/14/10 17/18/10 13/2/10 10/1/10 7/4/10
