# Blender v2.92.0 OBJ File: ''
# www.blender.org
mtllib CG10_500_047073_0011.mtl
o CG10_500_047073_0011
v 48.187763 75.000000 -461.989197
v 145.306625 75.000000 -456.234253
v 151.542542 75.000000 -373.379272
v 140.435913 75.000000 -374.037415
v 43.317020 75.000000 -379.792419
v 31.366302 75.000000 -380.500580
v 148.466339 75.000000 -323.612335
v 221.585617 75.000000 -319.109314
v 94.035255 118.522163 -318.407135
v 91.003006 118.476028 -268.423462
v 129.175690 145.000000 -230.243851
v 123.528351 144.994797 -135.076553
v 79.430397 117.469543 -99.023804
v 77.310982 116.601181 -85.597313
v 204.476364 75.000000 -31.119541
v 129.144638 75.000000 -35.909508
v 10.557396 75.000000 -29.341505
v 125.692116 75.000000 -22.548180
v 48.187763 0.000000 -461.989197
v 145.306625 0.000000 -456.234253
v 140.435913 0.000000 -374.037415
v 151.542542 0.000000 -373.379272
v 148.466339 0.000000 -323.612335
v 221.585617 0.000000 -319.109314
v 204.476364 0.000000 -31.119541
v 129.144638 0.000000 -35.909508
v 125.692116 0.000000 -22.548180
v 10.557396 0.000000 -29.341505
v 31.366302 0.000000 -380.500580
v 43.317020 0.000000 -379.792419
vn 0.0335 -0.8222 -0.5682
vn -0.5358 -0.8329 -0.1384
vn 0.0367 -0.8155 -0.5777
vn -0.6259 -0.7790 -0.0372
vn -0.0366 -0.8032 0.5946
vn -0.6263 -0.7786 -0.0387
vn 0.5482 -0.8357 0.0325
vn -0.0354 -0.8012 0.5973
vn 0.0000 -1.0000 -0.0000
vn -0.0592 0.0000 0.9982
vn -0.9982 0.0000 -0.0592
vn -0.9981 0.0000 -0.0617
vn -0.0615 0.0000 0.9981
vn -0.9982 0.0000 -0.0593
vn 0.0635 0.0000 -0.9980
vn -0.9682 0.0000 -0.2502
vn 0.0589 0.0000 -0.9983
vn 0.9982 0.0000 0.0592
usemtl None
s off
f 17//1 14//1 18//1
f 18//2 14//2 13//2 16//2
f 16//3 13//3 12//3 15//3
f 15//4 12//4 11//4 8//4
f 8//5 11//5 10//5 7//5
f 7//6 10//6 9//6 3//6
f 6//7 9//7 10//7 11//7 12//7 13//7 14//7 17//7
f 3//8 9//8 6//8 5//8 4//8
f 4//9 5//9 1//9 2//9
f 19//9 20//9 21//9 22//9 23//9 24//9 25//9 26//9 27//9 28//9 29//9 30//9
f 1//10 19//10 20//10 2//10
f 2//11 20//11 21//11 4//11
f 4//10 21//10 22//10 3//10
f 3//12 22//12 23//12 7//12
f 7//13 23//13 24//13 8//13
f 8//14 24//14 25//14 15//14
f 15//15 25//15 26//15 16//15
f 16//16 26//16 27//16 18//16
f 18//17 27//17 28//17 17//17
f 17//18 28//18 29//18 6//18
f 6//10 29//10 30//10 5//10
f 5//18 30//18 19//18 1//18
