# Blender v2.92.0 OBJ File: ''
# www.blender.org
mtllib CG10_500_041071_0023.mtl
o CG10_500_041071_0023
v 14.571975 75.000000 -26.357702
v 295.851135 75.000000 -10.675653
v 211.448303 145.000000 -108.181450
v 107.057251 144.990417 -113.988808
v 298.920288 75.000000 -188.626450
v 243.619339 75.000000 -191.696701
v 24.430285 75.000000 -203.865860
v 305.713135 75.000000 -188.249313
v 300.942932 75.000000 -225.045975
v 245.642059 75.000000 -228.117249
v 14.571975 0.000000 -26.357702
v 295.851135 0.000000 -10.675653
v 305.713135 0.000000 -188.249313
v 298.920288 0.000000 -188.626450
v 300.942932 0.000000 -225.045975
v 245.642059 0.000000 -228.117249
v 243.619339 0.000000 -191.696701
v 24.430285 0.000000 -203.865860
vn 0.0000 -1.0000 0.0000
vn -0.0352 -0.7726 0.6340
vn -0.6144 -0.7883 -0.0341
vn 0.0336 -0.7979 -0.6019
vn 0.6238 -0.7809 0.0346
vn 0.0000 1.0000 0.0000
vn -0.0557 0.0000 0.9984
vn 0.9985 0.0000 0.0555
vn 0.0554 0.0000 -0.9985
vn 0.0555 0.0000 -0.9985
vn -0.9985 0.0000 -0.0555
usemtl None
s off
f 6//1 10//1 9//1 5//1
f 8//2 3//2 4//2 7//2 6//2 5//2
f 8//3 2//3 3//3
f 2//4 1//4 4//4 3//4
f 1//5 7//5 4//5
f 11//6 12//6 13//6 14//6 15//6 16//6 17//6 18//6
f 1//7 11//7 12//7 2//7
f 2//8 12//8 13//8 8//8
f 8//9 13//9 14//9 5//9
f 5//8 14//8 15//8 9//8
f 9//10 15//10 16//10 10//10
f 10//11 16//11 17//11 6//11
f 6//9 17//9 18//9 7//9
f 7//11 18//11 11//11 1//11
