# Blender v2.92.0 OBJ File: ''
# www.blender.org
mtllib CG10_500_045064_0022.mtl
o CG10_500_045064_0022
v 279.187958 75.000000 -36.784466
v 293.748413 75.000000 -234.223404
v 196.690033 75.000000 -42.807518
v 194.949646 75.000000 -13.744028
v 192.496643 145.000000 -143.073395
v 142.271149 75.000000 -244.827393
v 145.276184 75.000000 -284.684204
v 124.310928 144.927628 -147.948212
v 113.301804 139.213699 -113.535461
v 115.079315 139.084671 -140.278473
v 85.888382 114.954201 -229.953079
v 83.128525 114.931305 -192.928009
v 11.700636 75.000000 -27.255436
v 31.272301 75.000000 -293.092468
v 279.187958 0.000000 -36.784466
v 293.748413 0.000000 -234.223404
v 142.271149 0.000000 -244.827393
v 145.276184 0.000000 -284.684204
v 31.272301 0.000000 -293.092468
v 11.700636 0.000000 -27.255436
v 194.949646 0.000000 -13.744028
v 196.690033 0.000000 -42.807518
vn 0.5945 0.8029 0.0438
vn -0.0418 0.8184 0.5731
vn 0.5907 0.8061 0.0354
vn 0.0416 -0.8244 -0.5645
vn 0.5585 -0.8285 0.0411
vn 0.0413 0.8278 -0.5595
vn 0.5853 0.8096 0.0441
vn -0.0406 -0.8137 0.5798
vn 0.0000 1.0000 0.0000
vn 0.9973 0.0000 0.0735
vn 0.0698 0.0000 -0.9976
vn 0.9972 0.0000 0.0752
vn 0.0736 0.0000 -0.9973
vn -0.9973 0.0000 -0.0734
vn -0.0735 0.0000 0.9973
vn 0.9982 0.0000 0.0598
vn -0.0728 0.0000 0.9973
usemtl None
s off
f 5//1 1//1 2//1
f 10//2 3//2 1//2 5//2 8//2
f 10//3 9//3 4//3 3//3
f 13//4 9//4 4//4
f 13//5 14//5 11//5 12//5 8//5 10//5 9//5
f 14//6 11//6 7//6
f 11//7 12//7 6//7 7//7
f 6//8 2//8 5//8 8//8 12//8
f 15//9 16//9 17//9 18//9 19//9 20//9 21//9 22//9
f 1//10 15//10 16//10 2//10
f 2//11 16//11 17//11 6//11
f 6//12 17//12 18//12 7//12
f 7//13 18//13 19//13 14//13
f 14//14 19//14 20//14 13//14
f 13//15 20//15 21//15 4//15
f 4//16 21//16 22//16 3//16
f 3//17 22//17 15//17 1//17
