# Blender v2.92.0 OBJ File: ''
# www.blender.org
mtllib CG10_500_041069_0047.mtl
o CG10_500_041069_0047
v 39.182571 75.000000 -394.999054
v 156.368622 75.000000 -385.917633
v 97.671478 117.670677 -331.830566
v 224.981857 75.000000 -306.727142
v 150.898972 75.000000 -312.354614
v 91.967110 117.759132 -256.635132
v 129.238007 144.998535 -215.456512
v 124.834091 145.000000 -158.683182
v 80.481705 116.930862 -124.498047
v 77.224930 117.092728 -79.435143
v 205.652618 75.000000 -57.437790
v 129.959641 75.000000 -63.761692
v 126.908768 75.000000 -18.684439
v 10.676322 75.000000 -27.689270
v 39.182571 0.000000 -394.999054
v 156.368622 0.000000 -385.917633
v 150.898972 0.000000 -312.354614
v 224.981857 0.000000 -306.727142
v 205.652618 0.000000 -57.437790
v 129.959641 0.000000 -63.761692
v 126.908768 0.000000 -18.684439
v 10.676322 0.000000 -27.689270
vn -0.0460 0.8031 0.5941
vn -0.6157 -0.7869 -0.0417
vn -0.0497 0.8025 0.5945
vn -0.5579 0.8288 -0.0433
vn 0.0456 0.8077 -0.5878
vn 0.6146 0.7875 0.0457
vn 0.0439 0.8145 -0.5785
vn 0.6189 0.7840 0.0480
vn 0.0000 -1.0000 0.0000
vn -0.0773 0.0000 0.9970
vn -0.9972 0.0000 -0.0741
vn -0.0757 0.0000 0.9971
vn -0.9970 0.0000 -0.0773
vn 0.0833 0.0000 -0.9965
vn -0.9977 0.0000 -0.0675
vn 0.0772 0.0000 -0.9970
vn 0.9970 0.0000 0.0774
usemtl None
s off
f 14//1 13//1 10//1
f 10//2 9//2 12//2 13//2
f 12//3 11//3 8//3 9//3
f 14//4 10//4 9//4 8//4 7//4 6//4 3//4 1//4
f 1//5 3//5 2//5
f 2//6 3//6 6//6 5//6
f 5//7 6//7 7//7 4//7
f 4//8 7//8 8//8 11//8
f 15//9 16//9 17//9 18//9 19//9 20//9 21//9 22//9
f 1//10 15//10 16//10 2//10
f 2//11 16//11 17//11 5//11
f 5//12 17//12 18//12 4//12
f 4//13 18//13 19//13 11//13
f 11//14 19//14 20//14 12//14
f 12//15 20//15 21//15 13//15
f 13//16 21//16 22//16 14//16
f 14//17 22//17 15//17 1//17
