# Blender v2.92.0 OBJ File: ''
# www.blender.org
mtllib CG10_500_038057_0057_roof.mtl
o CG10_500_038057_0057_roof
v 335.422668 75.000000 -21.365322
v 345.509583 75.000000 -215.404938
v 259.118347 75.000000 -26.055021
v 258.396637 75.000000 -11.344476
v 236.769348 145.000000 -123.610672
v 196.468079 144.841171 -125.869392
v 177.412750 131.385651 -93.071960
v 178.245728 131.332855 -108.428505
v 159.882187 114.052399 -170.512863
v 107.096802 75.000000 -118.304031
v 101.305374 75.000000 -19.508623
v 70.052101 113.394661 -175.969635
v 22.174709 75.000000 -231.755524
v 16.634880 75.000000 -124.748474
v 335.422668 0.000000 -21.365322
v 345.509583 0.000000 -215.404938
v 22.174709 0.000000 -231.755524
v 16.634880 0.000000 -124.748474
v 107.096802 0.000000 -118.304031
v 101.305374 0.000000 -19.508623
v 258.396637 0.000000 -11.344476
v 259.118347 0.000000 -26.055021
vt 0.655870 0.495470
vt 0.957090 0.120800
vt 0.929150 0.912790
vt 0.491450 0.620110
vt 0.493760 0.557430
vt 0.717780 0.893650
vt 0.715780 0.953700
vt 0.544230 0.486250
vt 0.280620 0.920370
vt 0.296670 0.517130
vt 0.442890 0.304030
vt 0.046080 0.490820
vt 0.194050 0.281760
vt 0.061426 0.054059
vn -0.5583 -0.8292 -0.0290
vn -0.5526 -0.8330 -0.0271
vn -0.0361 0.8080 0.5881
vn -0.0306 0.8083 0.5880
vn -0.6172 0.7859 -0.0362
vn -0.0407 0.8194 0.5717
vn 0.0295 0.8114 -0.5838
vn -0.6029 0.7972 -0.0312
usemtl None
s off
f 5/1/1 2/2/1 1/3/1
f 7/4/2 8/5/2 3/6/2 4/7/2
f 8/5/3 3/6/3 1/3/3 5/1/3 6/8/3
f 11/9/4 4/7/4 7/4/4
f 10/10/5 11/9/5 7/4/5 8/5/5 6/8/5 9/11/5
f 14/12/6 10/10/6 9/11/6 12/13/6
f 13/14/7 12/13/7 9/11/7 6/8/7 5/1/7 2/2/7
f 14/12/8 12/13/8 13/14/8
