# Blender v2.92.0 OBJ File: ''
# www.blender.org
mtllib CG10_500_049072_0055.mtl
o CG10_500_049072_0055
v 102.599030 145.000000 -371.060974
v 26.653988 75.000000 -375.056549
v 174.677765 75.000000 -367.265442
v 156.013580 75.000000 -17.766640
v 8.304687 75.000000 -25.540928
v 84.087982 144.851074 -21.550495
v 26.653988 0.000000 -375.056549
v 174.677765 0.000000 -367.265442
v 156.013580 0.000000 -17.766640
v 8.304687 0.000000 -25.540928
vn 0.6763 -0.7358 0.0355
vn 0.6952 0.7179 0.0371
vn 0.0526 0.0000 -0.9986
vn -0.0526 0.0000 0.9986
vn 0.0000 -1.0000 0.0000
vn -0.9986 0.0000 -0.0533
vn 0.9986 0.0000 0.0524
usemtl None
s off
f 5//1 2//1 1//1 6//1
f 6//2 4//2 3//2 1//2
f 5//3 6//3 4//3
f 3//4 1//4 2//4
f 7//5 8//5 9//5 10//5
f 2//4 7//4 8//4 3//4
f 3//6 8//6 9//6 4//6
f 4//3 9//3 10//3 5//3
f 5//7 10//7 7//7 2//7
