# Blender v2.92.0 OBJ File: ''
# www.blender.org
mtllib CG10_500_042072_0028.mtl
o CG10_500_042072_0028
v 281.633392 75.000000 -14.202197
v 16.341806 75.000000 -122.863747
v 236.601028 144.998535 -133.999374
v 139.580444 145.000000 -173.740448
v 349.748199 75.000000 -180.499481
v 349.605713 75.000000 -180.151596
v 84.460503 75.000000 -289.170593
v 281.633392 0.000000 -14.202197
v 16.341806 0.000000 -122.863747
v 84.460503 0.000000 -289.170593
v 349.748199 0.000000 -180.499481
v 349.605713 0.000000 -180.151596
vn 0.5498 -0.8043 0.2252
vn -0.2267 0.8014 0.5535
vn 0.5798 0.7794 0.2375
vn 0.2394 0.7753 -0.5845
vn 0.0000 -1.0000 0.0000
vn 0.3790 0.0000 -0.9254
vn 0.9254 0.0000 0.3790
vn -0.3791 0.0000 0.9254
vn -0.9254 0.0000 -0.3790
usemtl None
s off
f 2//1 7//1 4//1
f 2//2 1//2 3//2 4//2
f 1//3 6//3 5//3 3//3
f 5//4 7//4 4//4 3//4
f 8//5 9//5 10//5 11//5 12//5
f 1//6 8//6 9//6 2//6
f 2//7 9//7 10//7 7//7
f 7//8 10//8 11//8 5//8
f 5//9 11//9 12//9 6//9
f 6//9 12//9 8//9 1//9
