# Blender v2.92.0 OBJ File: ''
# www.blender.org
mtllib CG10_500_038058_0019_roof.mtl
o CG10_500_038058_0019_roof
v 268.529968 75.000000 -203.178741
v 24.325939 75.000000 -217.828796
v 116.286659 145.000000 -116.214165
v 166.528381 144.999985 -113.200150
v 256.943542 75.000000 -10.037718
v 12.739498 75.000000 -24.687395
v 268.529968 0.000000 -203.178741
v 24.325939 0.000000 -217.828796
v 12.739498 0.000000 -24.687395
v 256.943542 0.000000 -10.037718
vt 0.045661 0.891720
vt 0.416800 0.490290
vt 0.596880 0.503510
vt 0.920940 0.955970
vt 0.962470 0.108870
vt 0.087190 0.044611
vn 0.0349 -0.8125 -0.5819
vn -0.5864 -0.8093 -0.0352
vn -0.0353 -0.8078 0.5884
vn 0.5807 -0.8134 0.0348
usemtl None
s off
f 6/1/1 3/2/1 4/3/1 5/4/1
f 5/4/2 4/3/2 1/5/2
f 1/5/3 4/3/3 3/2/3 2/6/3
f 2/6/4 3/2/4 6/1/4
