# Blender v2.92.0 OBJ File: ''
# www.blender.org
mtllib CG10_500_035063_0032_roof.mtl
o CG10_500_035063_0032_roof
v 17.284834 75.000000 -325.112488
v 12.147998 75.000000 -231.861404
v 58.769386 114.896606 -274.991364
v 66.640266 75.000000 -228.406128
v 55.090401 75.000000 -20.900045
v 115.250175 115.095833 -271.640137
v 105.351929 116.512604 -64.476059
v 113.085472 116.653542 -200.499619
v 147.614594 145.000000 -234.002274
v 153.590424 75.000000 -15.473409
v 161.179962 75.000000 -146.035965
v 185.955566 144.966248 -231.929993
v 274.332642 75.000000 -310.947968
v 264.942749 75.000000 -140.541565
v 17.284834 0.000000 -325.112488
v 12.147998 0.000000 -231.861404
v 66.640266 0.000000 -228.406128
v 55.090401 0.000000 -20.900045
v 153.590424 0.000000 -15.473409
v 161.179962 0.000000 -146.035965
v 264.942749 0.000000 -140.541565
v 274.332642 0.000000 -310.947968
vt 0.042328 0.322040
vt 0.060226 0.049379
vt 0.204770 0.195930
vt 0.955860 0.090795
vt 0.647930 0.321840
vt 0.514340 0.315780
vt 0.401570 0.205730
vt 0.923150 0.589060
vt 0.561600 0.572990
vt 0.394030 0.413740
vt 0.535160 0.954760
vt 0.367080 0.811470
vt 0.191950 0.938890
vt 0.232200 0.332150
vn 0.6692 -0.7422 0.0369
vn -0.0353 -0.7675 0.6401
vn 0.6395 0.7680 0.0352
vn -0.0331 0.7796 0.6255
vn 0.6302 0.7756 0.0366
vn 0.0367 -0.7444 -0.6668
vn -0.0415 0.7554 0.6539
vn -0.6550 0.7548 -0.0365
usemtl None
s off
f 2/1/1 1/2/1 3/3/1
f 13/4/2 12/5/2 9/6/2 6/7/2 3/3/2 1/2/2
f 14/8/3 13/4/3 12/5/3
f 11/9/4 14/8/4 12/5/4 9/6/4 8/10/4
f 10/11/5 11/9/5 8/10/5 7/12/5
f 5/13/6 7/12/6 10/11/6
f 4/14/7 6/7/7 3/3/7 2/1/7
f 4/14/8 5/13/8 7/12/8 8/10/8 9/6/8 6/7/8
