# Blender v2.92.0 OBJ File: ''
# www.blender.org
mtllib CG10_500_034059_0006_roof.mtl
o CG10_500_034059_0006_roof
v 31.130087 75.000000 -301.886414
v 259.607330 75.000000 -285.566284
v 202.447571 123.596184 -235.785645
v 132.952515 123.608894 -240.735596
v 107.952141 144.994217 -218.818100
v 181.969360 75.000000 -180.932510
v 251.793350 75.000000 -175.973923
v 99.460587 145.000000 -99.704826
v 170.082138 75.000000 -14.062965
v 11.401922 75.000000 -25.376905
v 31.130087 0.000000 -301.886414
v 259.607330 0.000000 -285.566284
v 251.793350 0.000000 -175.973923
v 181.969360 0.000000 -180.932510
v 170.082138 0.000000 -14.062965
v 11.401922 0.000000 -25.376905
vt 0.041765 0.919690
vt 0.623010 0.955500
vt 0.364320 0.684480
vt 0.666550 0.427430
vt 0.487010 0.238180
vt 0.395430 0.307540
vt 0.922320 0.443120
vt 0.741570 0.253840
vt 0.950940 0.096309
vt 0.114030 0.044663
vn -0.0467 0.7542 0.6550
vn 0.6732 0.7379 0.0480
vn -0.0463 0.7562 0.6527
vn 0.6708 0.7401 0.0478
vn -0.0478 -0.7416 0.6691
vn 0.6451 -0.7627 0.0460
usemtl None
s off
f 10/1/1 9/2/1 8/3/1
f 8/3/2 9/2/2 6/4/2 4/5/2 5/6/2
f 4/5/3 6/4/3 7/7/3 3/8/3
f 3/8/4 7/7/4 2/9/4
f 2/9/5 3/8/5 4/5/5 5/6/5 1/10/5
f 1/10/6 5/6/6 8/3/6 10/1/6
