# Blender v2.92.0 OBJ File: ''
# www.blender.org
mtllib CG10_500_041069_0053.mtl
o CG10_500_041069_0053
v 225.261993 75.000000 -108.617172
v 246.968384 75.000000 -381.857147
v 136.269348 144.999359 -215.680466
v 141.336395 145.000000 -279.475677
v 109.210510 75.000000 -116.787804
v 101.708817 75.000000 -18.178139
v 70.283966 106.934387 -165.513351
v 62.568539 107.046333 -66.058624
v 7.165627 75.000000 -25.702446
v 36.776615 75.000000 -398.586487
v 225.261993 0.000000 -108.617172
v 246.968384 0.000000 -381.857147
v 36.776615 0.000000 -398.586487
v 7.165627 0.000000 -25.702446
v 101.708817 0.000000 -18.178139
v 109.210510 0.000000 -116.787804
vn 0.0463 -0.8123 -0.5815
vn 0.5989 0.7995 0.0456
vn 0.0401 -0.8207 -0.5699
vn -0.5826 -0.8114 -0.0463
vn 0.0425 0.8446 -0.5337
vn 0.5228 -0.8515 0.0415
vn 0.0000 1.0000 0.0000
vn 0.9969 0.0000 0.0792
vn 0.0793 0.0000 -0.9968
vn -0.9969 0.0000 -0.0792
vn -0.0793 0.0000 0.9968
vn 0.9971 0.0000 0.0759
vn -0.0702 0.0000 0.9975
usemtl None
s off
f 9//1 8//1 6//1
f 5//2 7//2 8//2 6//2
f 1//3 5//3 7//3 3//3
f 2//4 1//4 3//4 4//4
f 10//5 4//5 2//5
f 10//6 4//6 3//6 7//6 8//6 9//6
f 11//7 12//7 13//7 14//7 15//7 16//7
f 1//8 11//8 12//8 2//8
f 2//9 12//9 13//9 10//9
f 10//10 13//10 14//10 9//10
f 9//11 14//11 15//11 6//11
f 6//12 15//12 16//12 5//12
f 5//13 16//13 11//13 1//13
