# Blender v2.92.0 OBJ File: ''
# www.blender.org
mtllib CG10_500_041065_0030.mtl
o CG10_500_041065_0030
v 13.093013 75.000000 -140.058960
v 20.654079 75.000000 -251.403580
v 46.371391 75.000000 -138.205872
v 38.999207 75.000000 -26.589056
v 77.074539 115.887360 -192.059448
v 110.753380 115.736732 -189.979370
v 149.768860 145.000000 -117.656059
v 151.202209 144.617615 -148.021072
v 174.911743 123.892197 -86.217094
v 187.268524 116.406174 -183.880066
v 213.979614 116.159821 -182.402634
v 208.576248 125.110924 -85.645859
v 225.304092 84.439194 -134.925598
v 250.094742 85.068954 -134.826401
v 269.479370 75.000000 -234.524689
v 263.651550 75.000000 -147.275925
v 274.224487 75.000000 -147.556122
v 265.017883 75.000000 -11.229047
v 13.093013 0.000000 -140.058960
v 20.654079 0.000000 -251.403580
v 269.479370 0.000000 -234.524689
v 263.651550 0.000000 -147.275925
v 274.224487 0.000000 -147.556122
v 265.017883 0.000000 -11.229047
v 38.999207 0.000000 -26.589056
v 46.371391 0.000000 -138.205872
vn -0.0330 0.8050 0.5924
vn -0.5599 0.8277 -0.0380
vn -0.0402 -0.8045 0.5925
vn -0.5552 0.8309 -0.0367
vn -0.0393 0.8148 0.5785
vn -0.6200 -0.7835 -0.0414
vn 0.0233 -0.8287 -0.5592
vn -0.6282 -0.7778 -0.0199
vn -0.6313 -0.7744 -0.0426
vn 0.0170 -0.7683 0.6399
vn 0.0000 -1.0000 0.0000
vn 0.9977 0.0000 0.0678
vn -0.0677 0.0000 0.9977
vn -0.9978 0.0000 -0.0666
vn 0.0265 0.0000 0.9996
vn -0.9977 0.0000 -0.0674
vn 0.0678 0.0000 -0.9977
vn 0.9978 0.0000 0.0659
vn 0.0556 0.0000 -0.9985
usemtl None
s off
f 1//1 3//1 6//1 5//1
f 1//2 5//2 2//2
f 2//3 15//3 11//3 10//3 8//3 6//3 5//3
f 3//4 4//4 7//4 8//4 6//4
f 4//5 18//5 12//5 9//5 7//5
f 15//6 16//6 14//6 11//6
f 14//7 13//7 10//7 11//7
f 9//8 7//8 8//8 10//8 13//8
f 18//9 12//9 17//9
f 12//10 9//10 13//10 14//10 16//10 17//10
f 19//11 20//11 21//11 22//11 23//11 24//11 25//11 26//11
f 1//12 19//12 20//12 2//12
f 2//13 20//13 21//13 15//13
f 15//14 21//14 22//14 16//14
f 16//15 22//15 23//15 17//15
f 17//16 23//16 24//16 18//16
f 18//17 24//17 25//17 4//17
f 4//18 25//18 26//18 3//18
f 3//19 26//19 19//19 1//19
