# Blender v2.92.0 OBJ File: ''
# www.blender.org
mtllib CG10_500_039056_0006_roof.mtl
o CG10_500_039056_0006_roof
v 99.260284 75.000000 -17.729025
v 262.840302 75.000000 -63.583221
v 154.758484 144.971069 -122.314140
v 113.827606 145.000000 -268.422211
v 176.419617 75.000000 -372.358795
v 12.696664 75.000000 -326.464600
v 99.260284 0.000000 -17.729025
v 262.840302 0.000000 -63.583221
v 176.419617 0.000000 -372.358795
v 12.696664 0.000000 -326.464600
vt 0.360950 0.954540
vt 0.046170 0.162910
vt 0.413920 0.311740
vt 0.562760 0.686370
vt 0.641530 0.045234
vt 0.955780 0.836970
vn 0.6265 -0.7594 -0.1756
vn -0.1738 0.7651 -0.6200
vn -0.1707 -0.7747 -0.6089
vn 0.5983 0.7836 -0.1674
usemtl None
s off
f 1/1/1 6/2/1 4/3/1 3/4/1
f 4/3/2 5/5/2 6/2/2
f 1/1/3 3/4/3 2/6/3
f 3/4/4 2/6/4 5/5/4 4/3/4
