# Blender v2.92.0 OBJ File: ''
# www.blender.org
mtllib CG10_500_040066_0009_roof.mtl
o CG10_500_040066_0009_roof
v 486.539734 75.000000 -43.326748
v 496.971954 75.000000 -202.192413
v 421.164154 129.394470 -130.578751
v 298.773773 75.000000 -11.113761
v 302.231567 75.000000 -55.958279
v 234.775131 129.206345 -143.066620
v 211.566681 145.000000 -122.351814
v 202.540512 139.042419 -131.331741
v 127.878593 139.051178 -136.215591
v 94.856377 75.000000 -24.502581
v 95.863976 75.000000 -43.732815
v 22.871159 75.000000 -48.494858
v 34.952663 75.000000 -232.490646
v 486.539734 0.000000 -43.326748
v 496.971954 0.000000 -202.192413
v 34.952663 0.000000 -232.490646
v 22.871159 0.000000 -48.494858
v 95.863976 0.000000 -43.732815
v 94.856377 0.000000 -24.502581
v 298.773773 0.000000 -11.113761
v 302.231567 0.000000 -55.958279
vt 0.451490 0.413660
vt 0.581210 0.770660
vt 0.935650 0.822430
vt 0.809930 0.464840
vt 0.389500 0.461760
vt 0.245920 0.441740
vt 0.043983 0.801250
vt 0.184350 0.820770
vt 0.067217 0.047170
vt 0.955720 0.171340
vt 0.406860 0.498560
vt 0.182420 0.899580
vt 0.574560 0.954450
vn -0.0376 0.8351 0.5488
vn -0.0366 0.8274 0.5604
vn 0.5419 -0.8397 0.0356
vn -0.6071 -0.7936 -0.0399
vn 0.0379 0.8147 -0.5786
vn -0.0363 0.8327 0.5525
vn 0.5312 -0.8468 0.0278
vn 0.5894 0.8065 0.0454
usemtl None
s off
f 6/1/1 5/2/1 1/3/1 3/4/1
f 8/5/2 9/6/2 12/7/2 11/8/2
f 9/6/3 12/7/3 13/9/3
f 3/4/4 2/10/4 1/3/4
f 2/10/5 13/9/5 9/6/5 8/5/5 7/11/5 6/1/5 3/4/5
f 7/11/6 10/12/6 4/13/6
f 8/5/7 7/11/7 10/12/7 11/8/7
f 7/11/8 4/13/8 5/2/8 6/1/8
