# Blender v2.92.0 OBJ File: ''
# www.blender.org
mtllib CG10_500_038057_0046_roof.mtl
o CG10_500_038057_0046_roof
v 32.442352 75.000000 -283.669556
v 372.247101 75.000000 -262.278320
v 164.820358 112.073647 -224.900620
v 317.229492 112.257179 -215.056534
v 114.751251 145.000000 -183.259033
v 365.883698 75.000000 -161.689987
v 214.807953 75.000000 -171.692825
v 110.213310 144.978455 -111.667282
v 204.679916 75.000000 -12.995255
v 16.139904 75.000000 -24.921539
v 32.442352 0.000000 -283.669556
v 372.247101 0.000000 -262.278320
v 365.883698 0.000000 -161.689987
v 214.807953 0.000000 -171.692825
v 204.679916 0.000000 -12.995255
v 16.139904 0.000000 -24.921539
vt 0.083186 0.044884
vt 0.954480 0.116910
vt 0.813410 0.275900
vt 0.422620 0.242760
vt 0.294230 0.382970
vt 0.938160 0.455590
vt 0.524820 0.956240
vt 0.550790 0.421910
vt 0.282600 0.624020
vt 0.041384 0.916090
vn -0.0373 -0.8052 0.5919
vn 0.5818 0.8125 0.0368
vn 0.5700 0.8208 0.0364
vn -0.0395 0.8021 0.5959
vn 0.6193 -0.7842 0.0390
vn 0.0381 -0.7975 -0.6021
usemtl None
s off
f 1/1/1 2/2/1 4/3/1 3/4/1 5/5/1
f 6/6/2 2/2/2 4/3/2
f 9/7/3 7/8/3 3/4/3 5/5/3 8/9/3
f 7/8/4 6/6/4 4/3/4 3/4/4
f 1/1/5 5/5/5 8/9/5 10/10/5
f 8/9/6 9/7/6 10/10/6
