# Blender v2.92.0 OBJ File: ''
# www.blender.org
mtllib CG10_500_038066_0030.mtl
o CG10_500_038066_0030
v 22.260605 75.000000 -115.057350
v 38.673443 75.000000 -270.629791
v 104.538498 145.000000 -181.380676
v 148.859695 75.000000 -101.714523
v 140.447937 75.000000 -22.879044
v 195.810486 120.755730 -65.982887
v 204.172791 120.707718 -144.854080
v 244.828156 75.000000 -11.866908
v 253.131668 75.000000 -90.724846
v 378.129303 144.920776 -152.460846
v 449.515472 75.000000 -70.027092
v 465.899231 75.000000 -225.324631
v 22.260605 0.000000 -115.057350
v 38.673443 0.000000 -270.629791
v 465.899231 0.000000 -225.324631
v 449.515472 0.000000 -70.027092
v 253.131668 0.000000 -90.724846
v 244.828156 0.000000 -11.866908
v 140.447937 0.000000 -22.879044
v 148.859695 0.000000 -101.714523
vn -0.0686 -0.7598 0.6465
vn 0.6561 0.7515 0.0692
vn -0.0717 0.7291 0.6806
vn 0.6400 0.7654 0.0674
vn -0.0719 0.7286 0.6811
vn -0.6678 0.7409 -0.0713
vn 0.6792 -0.7304 0.0717
vn 0.0000 -1.0000 0.0000
vn 0.9945 0.0000 0.1049
vn -0.1055 0.0000 0.9944
vn -0.9945 0.0000 -0.1049
vn 0.1048 0.0000 -0.9945
vn -0.9945 0.0000 -0.1047
vn 0.1049 0.0000 -0.9945
vn 0.9944 0.0000 0.1061
usemtl None
s off
f 2//1 12//1 10//1 3//1
f 11//2 12//2 10//2
f 9//3 11//3 10//3 3//3 1//3 4//3 7//3
f 8//4 9//4 7//4 6//4
f 5//5 8//5 6//5
f 4//6 5//6 6//6 7//6
f 2//7 3//7 1//7
f 13//8 14//8 15//8 16//8 17//8 18//8 19//8 20//8
f 1//9 13//9 14//9 2//9
f 2//10 14//10 15//10 12//10
f 12//11 15//11 16//11 11//11
f 11//12 16//12 17//12 9//12
f 9//13 17//13 18//13 8//13
f 8//14 18//14 19//14 5//14
f 5//15 19//15 20//15 4//15
f 4//12 20//12 13//12 1//12
