# Blender v2.92.0 OBJ File: ''
# www.blender.org
mtllib CG10_500_041071_0005.mtl
o CG10_500_041071_0005
v 50.428650 75.000000 -346.051880
v 172.554031 75.000000 -337.329224
v 26.943722 75.000000 -275.604950
v 45.303406 75.000000 -274.293640
v 167.428787 75.000000 -265.570984
v 178.455353 75.000000 -264.783417
v 95.480148 144.985611 -195.760590
v 171.026627 75.000000 -160.397415
v 186.030212 75.000000 -159.325806
v 169.315033 75.000000 -136.346497
v 184.218704 75.000000 -133.963058
v 88.569885 145.000000 -98.885353
v 160.692627 75.000000 -15.187278
v 9.100737 75.000000 -26.014538
v 50.428650 0.000000 -346.051880
v 172.554031 0.000000 -337.329224
v 167.428787 0.000000 -265.570984
v 178.455353 0.000000 -264.783417
v 171.026627 0.000000 -160.397415
v 186.030212 0.000000 -159.325806
v 184.218704 0.000000 -133.963058
v 169.315033 0.000000 -136.346497
v 160.692627 0.000000 -15.187278
v 9.100737 0.000000 -26.014538
v 26.943722 0.000000 -275.604950
v 45.303406 0.000000 -274.293640
vn 0.0475 -0.7457 -0.6646
vn 0.6851 -0.7268 0.0490
vn 0.0487 0.7300 -0.6817
vn 0.0000 -1.0000 -0.0000
vn 0.6668 0.7437 0.0475
vn 0.0000 1.0000 -0.0000
vn -0.0712 0.0000 0.9975
vn -0.9975 0.0000 -0.0712
vn -0.9975 0.0000 -0.0710
vn 0.1579 0.0000 -0.9875
vn 0.0712 0.0000 -0.9975
vn 0.9975 0.0000 0.0713
vn 0.9975 0.0000 0.0712
usemtl None
s off
f 14//1 12//1 13//1
f 14//2 3//2 7//2 12//2
f 6//3 5//3 4//3 3//3 7//3
f 4//4 1//4 2//4 5//4
f 13//5 10//5 8//5 6//5 7//5 12//5
f 10//6 11//6 9//6 8//6
f 15//4 16//4 17//4 18//4 19//4 20//4 21//4 22//4 23//4 24//4 25//4 26//4
f 1//7 15//7 16//7 2//7
f 2//8 16//8 17//8 5//8
f 5//7 17//7 18//7 6//7
f 6//9 18//9 19//9 8//9
f 8//7 19//7 20//7 9//7
f 9//8 20//8 21//8 11//8
f 11//10 21//10 22//10 10//10
f 10//9 22//9 23//9 13//9
f 13//11 23//11 24//11 14//11
f 14//12 24//12 25//12 3//12
f 3//7 25//7 26//7 4//7
f 4//13 26//13 15//13 1//13
