# Blender v2.92.0 OBJ File: ''
# www.blender.org
mtllib CG10_500_045070_0003.mtl
o CG10_500_045070_0003
v 12.290708 75.000000 -85.201866
v 181.076920 75.000000 -17.141642
v 214.336716 75.000000 -99.616447
v 122.819054 144.987900 -135.894440
v 242.253418 75.000000 -88.863815
v 215.395309 106.434204 -147.484985
v 189.794601 106.598900 -157.598511
v 247.607773 75.000000 -182.119156
v 275.335999 75.000000 -170.894592
v 163.075851 145.000000 -235.765335
v 290.033600 75.000000 -287.323090
v 121.168396 75.000000 -355.415131
v 12.290708 0.000000 -85.201866
v 181.076920 0.000000 -17.141642
v 214.336716 0.000000 -99.616447
v 242.253418 0.000000 -88.863815
v 275.335999 0.000000 -170.894592
v 247.607773 0.000000 -182.119156
v 290.033600 0.000000 -287.323090
v 121.168396 0.000000 -355.415131
vn -0.2214 -0.8059 0.5490
vn 0.5374 0.8150 0.2167
vn -0.2175 -0.8149 0.5373
vn -0.2057 0.8201 0.5340
vn -0.5168 -0.8303 -0.2084
vn -0.2322 0.7839 0.5759
vn -0.5955 0.7667 -0.2400
vn 0.0000 1.0000 0.0000
vn -0.3740 0.0000 0.9274
vn 0.9274 0.0000 0.3740
vn -0.3594 0.0000 0.9332
vn 0.3752 0.0000 -0.9269
vn 0.3740 0.0000 -0.9274
vn -0.9275 0.0000 -0.3737
usemtl None
s off
f 10//1 12//1 11//1
f 8//2 11//2 10//2 4//2 2//2 3//2 7//2
f 7//3 8//3 9//3 6//3
f 6//4 7//4 3//4 5//4
f 5//5 6//5 9//5
f 2//6 4//6 1//6
f 1//7 4//7 10//7 12//7
f 13//8 14//8 15//8 16//8 17//8 18//8 19//8 20//8
f 1//9 13//9 14//9 2//9
f 2//10 14//10 15//10 3//10
f 3//11 15//11 16//11 5//11
f 5//10 16//10 17//10 9//10
f 9//12 17//12 18//12 8//12
f 8//10 18//10 19//10 11//10
f 11//13 19//13 20//13 12//13
f 12//14 20//14 13//14 1//14
