# Blender v2.92.0 OBJ File: ''
# www.blender.org
mtllib CG10_500_048071_0013_roof.mtl
o CG10_500_048071_0013_roof
v 262.163605 75.000000 -250.781265
v 254.268768 75.000000 -99.917946
v 212.847290 75.000000 -102.231468
v 208.889877 75.000000 -21.236923
v 181.569107 128.949478 -182.143738
v 144.930222 75.000000 -256.867279
v 132.609848 75.000000 -25.486919
v 148.657776 75.000000 -331.310455
v 130.291519 75.000000 -15.290952
v 140.237747 128.891296 -184.367935
v 116.404472 144.951584 -163.926910
v 114.471420 145.000000 -125.772629
v 81.700989 117.916992 -202.220016
v 85.528175 117.854530 -276.895081
v 75.162933 117.473053 -88.923576
v 73.603813 116.786514 -76.957230
v 30.511726 75.000000 -337.492981
v 13.951509 75.000000 -21.379158
v 262.163605 0.000000 -250.781265
v 254.268768 0.000000 -99.917946
v 212.847290 0.000000 -102.231468
v 208.889877 0.000000 -21.236923
v 132.609848 0.000000 -25.486919
v 130.291519 0.000000 -15.290952
v 13.951509 0.000000 -21.379158
v 30.511726 0.000000 -337.492981
v 148.657776 0.000000 -331.310455
v 144.930222 0.000000 -256.867279
vt 0.050733 0.939610
vt 0.267650 0.782610
vt 0.473790 0.956810
vt 0.482220 0.928000
vt 0.273320 0.748800
vt 0.759600 0.940010
vt 0.416260 0.644710
vt 0.773990 0.711210
vt 0.509960 0.479190
vt 0.423290 0.536930
vt 0.924610 0.717750
vt 0.660250 0.485470
vt 0.953320 0.291580
vt 0.527020 0.274390
vt 0.297090 0.428760
vt 0.540570 0.064095
vt 0.311010 0.217810
vt 0.110950 0.046630
vn 0.0303 -0.8143 -0.5797
vn 0.5054 0.8552 0.1149
vn -0.0321 0.8168 0.5760
vn 0.5751 0.8176 0.0281
vn -0.0317 0.8226 0.5677
vn 0.5735 0.8186 0.0300
vn 0.0309 0.8031 -0.5950
vn 0.5784 0.8153 0.0290
vn 0.0312 0.8025 -0.5958
vn -0.5927 0.8048 -0.0311
usemtl None
s off
f 18/1/1 16/2/1 9/3/1
f 9/3/2 7/4/2 15/5/2 16/2/2
f 7/4/3 4/6/3 12/7/3 15/5/3
f 4/6/4 3/8/4 10/9/4 11/10/4 12/7/4
f 3/8/5 2/11/5 5/12/5 10/9/5
f 2/11/6 1/13/6 5/12/6
f 1/13/7 6/14/7 13/15/7 11/10/7 10/9/7 5/12/7
f 6/14/8 8/16/8 14/17/8 13/15/8
f 8/16/9 17/18/9 14/17/9
f 17/18/10 18/1/10 16/2/10 15/5/10 12/7/10 11/10/10 13/15/10 14/17/10
