# Blender v2.92.0 OBJ File: ''
# www.blender.org
mtllib CG10_500_039070_0032_roof.mtl
o CG10_500_039070_0032_roof
v 500.137726 75.000000 -224.844238
v 494.726746 75.000000 -122.744568
v 480.628601 75.000000 -123.402008
v 476.156616 75.000000 -46.331299
v 439.095490 115.905563 -175.381180
v 426.392090 115.937927 -176.013184
v 399.395935 75.000000 -50.741100
v 397.492065 75.000000 -11.909595
v 383.681000 145.000000 -140.836426
v 344.152954 144.931900 -143.020477
v 331.277435 133.298233 -158.691406
v 323.399902 129.981339 -84.407883
v 325.484894 129.912689 -124.955780
v 258.905060 75.000000 -90.241280
v 255.123840 75.000000 -19.452738
v 94.870529 133.232727 -171.313217
v 32.034412 75.000000 -249.669220
v 24.254932 75.000000 -102.849968
v 500.137726 0.000000 -224.844238
v 494.726746 0.000000 -122.744568
v 480.628601 0.000000 -123.402008
v 476.156616 0.000000 -46.331299
v 399.395935 0.000000 -50.741100
v 397.492065 0.000000 -11.909595
v 255.123840 0.000000 -19.452738
v 258.905060 0.000000 -90.241280
v 24.254932 0.000000 -102.849968
v 32.034412 0.000000 -249.669220
vt 0.046112 0.607440
vt 0.492210 0.655570
vt 0.629810 0.394310
vt 0.180360 0.346130
vt 0.060902 0.047064
vt 0.618790 0.523070
vt 0.614830 0.677830
vt 0.485030 0.925750
vt 0.654280 0.454120
vt 0.940550 0.531510
vt 0.913740 0.529000
vt 0.810630 0.328190
vt 0.834780 0.330610
vt 0.950830 0.141820
vt 0.729430 0.462460
vt 0.755690 0.954540
vt 0.759310 0.806330
vt 0.905240 0.823160
vn -0.0337 0.7782 0.6271
vn 0.6557 -0.7542 0.0347
vn 0.6466 -0.7621 0.0345
vn 0.0295 -0.7739 -0.6326
vn -0.0325 -0.7895 0.6128
vn 0.5733 0.8188 0.0304
vn -0.0331 0.7798 0.6252
vn -0.5777 -0.8158 -0.0283
vn 0.0354 -0.7862 -0.6170
vn -0.5811 -0.8132 -0.0337
usemtl None
s off
f 18/1/1 14/2/1 11/3/1 16/4/1
f 17/5/2 16/4/2 18/1/2
f 13/6/3 12/7/3 15/8/3 14/2/3 11/3/3 10/9/3
f 2/10/4 3/11/4 6/12/4 5/13/4
f 1/14/5 5/13/5 6/12/5 9/15/5 10/9/5 11/3/5 16/4/5 17/5/5
f 1/14/6 5/13/6 2/10/6
f 15/8/7 8/16/7 12/7/7
f 7/17/8 8/16/8 12/7/8 13/6/8
f 7/17/9 13/6/9 10/9/9 9/15/9 4/18/9
f 4/18/10 9/15/10 6/12/10 3/11/10
