# Blender v2.92.0 OBJ File: ''
# www.blender.org
mtllib CG10_500_042065_0033.mtl
o CG10_500_042065_0033
v 238.264725 75.000000 -290.852051
v 486.739532 75.000000 -279.893707
v 236.476425 75.000000 -258.090302
v 196.567490 75.000000 -260.356567
v 194.295563 75.000000 -208.912216
v 28.939714 75.000000 -216.320679
v 347.586975 145.000000 -164.222565
v 335.847687 144.999878 -164.740509
v 278.162048 134.398987 -149.607727
v 318.867035 134.249954 -147.562531
v 86.124855 117.145599 -139.194565
v 252.198044 117.106102 -131.823853
v 325.985168 107.274834 -102.262276
v 22.555704 75.000000 -71.549347
v 187.908005 75.000000 -64.276367
v 277.800049 75.000000 -50.564781
v 476.240692 75.000000 -41.805878
v 187.478531 75.000000 -54.551445
v 389.213837 75.000000 -45.647152
v 387.367126 75.000000 -13.291759
v 276.370697 75.000000 -18.183281
v 321.730408 106.954994 -16.177156
v 238.264725 0.000000 -290.852051
v 486.739532 0.000000 -279.893707
v 476.240692 0.000000 -41.805878
v 389.213837 0.000000 -45.647152
v 387.367126 0.000000 -13.291759
v 276.370697 0.000000 -18.183281
v 277.800049 0.000000 -50.564781
v 187.478531 0.000000 -54.551445
v 187.908005 0.000000 -64.276367
v 22.555704 0.000000 -71.549347
v 28.939714 0.000000 -216.320679
v 194.295563 0.000000 -208.912216
v 196.567490 0.000000 -260.356567
v 236.476425 0.000000 -258.090302
vn -0.0226 0.8579 0.5133
vn -0.5709 0.8207 -0.0252
vn 0.0220 0.8703 -0.4919
vn -0.5660 0.8241 -0.0250
vn -0.0227 0.8574 0.5141
vn -0.5750 0.8178 -0.0254
vn 0.4367 0.8993 0.0249
vn 0.4628 0.8862 0.0204
vn 0.0220 0.8668 -0.4981
vn 0.0277 0.8723 -0.4883
vn -0.5564 0.8304 -0.0304
vn -0.0440 -0.0002 0.9990
vn 0.0000 -1.0000 0.0000
vn -0.0441 0.0000 0.9990
vn -0.9990 0.0000 -0.0441
vn 0.0441 0.0000 -0.9990
vn -0.9984 0.0000 -0.0570
vn 0.0440 0.0000 -0.9990
vn 0.9990 0.0000 0.0441
vn 0.0439 0.0000 -0.9990
vn -0.0448 0.0000 0.9990
vn -0.0567 0.0000 0.9984
vn 0.9985 0.0000 0.0545
usemtl None
s off
f 14//1 15//1 12//1 11//1
f 14//2 11//2 6//2
f 11//3 12//3 5//3 6//3
f 15//4 18//4 9//4 4//4 5//4 12//4
f 18//5 16//5 13//5 19//5 17//5 7//5 8//5 10//5 9//5
f 21//6 22//6 13//6 16//6
f 22//7 20//7 19//7 13//7
f 7//8 17//8 2//8
f 1//9 8//9 7//9 2//9
f 4//10 9//10 10//10 3//10
f 10//11 8//11 1//11 3//11
f 20//12 22//12 21//12
f 23//13 24//13 25//13 26//13 27//13 28//13 29//13 30//13 31//13 32//13 33//13 34//13 35//13 36//13
f 1//14 23//14 24//14 2//14
f 2//15 24//15 25//15 17//15
f 17//16 25//16 26//16 19//16
f 19//17 26//17 27//17 20//17
f 20//18 27//18 28//18 21//18
f 21//19 28//19 29//19 16//19
f 16//16 29//16 30//16 18//16
f 18//19 30//19 31//19 15//19
f 15//20 31//20 32//20 14//20
f 14//19 32//19 33//19 6//19
f 6//21 33//21 34//21 5//21
f 5//19 34//19 35//19 4//19
f 4//22 35//22 36//22 3//22
f 3//23 36//23 23//23 1//23
