# Blender v2.92.0 OBJ File: ''
# www.blender.org
mtllib CG10_500_035062_0002.mtl
o CG10_500_035062_0002
v 175.909576 75.000000 -14.596459
v 192.848602 75.000000 -296.809875
v 99.476379 145.000000 -98.765839
v 106.455910 144.995895 -214.969101
v 7.577733 75.000000 -24.712608
v 24.540728 75.000000 -306.924561
v 175.909576 0.000000 -14.596459
v 192.848602 0.000000 -296.809875
v 24.540728 0.000000 -306.924561
v 7.577733 0.000000 -24.712608
vn 0.0397 -0.7502 -0.6600
vn 0.6245 -0.7801 0.0375
vn -0.0376 -0.7787 0.6263
vn -0.6511 -0.7580 -0.0391
vn 0.0000 1.0000 0.0000
vn 0.9982 0.0000 0.0599
vn 0.0600 0.0000 -0.9982
vn -0.9982 0.0000 -0.0600
vn -0.0600 0.0000 0.9982
usemtl None
s off
f 5//1 3//1 1//1
f 5//2 6//2 4//2 3//2
f 6//3 2//3 4//3
f 2//4 1//4 3//4 4//4
f 7//5 8//5 9//5 10//5
f 1//6 7//6 8//6 2//6
f 2//7 8//7 9//7 6//7
f 6//8 9//8 10//8 5//8
f 5//9 10//9 7//9 1//9
