# Blender v2.92.0 OBJ File: ''
# www.blender.org
mtllib CG10_500_041068_0004_roof.mtl
o CG10_500_041068_0004_roof
v 80.328346 75.000000 -21.556112
v 176.953079 75.000000 -15.611421
v 131.851105 116.232666 -64.946472
v 9.377947 75.000000 -88.792671
v 84.722404 75.000000 -83.859726
v 136.223373 115.976463 -131.210709
v 104.684624 144.992950 -169.193771
v 108.672752 145.000000 -234.208405
v 144.260773 116.255234 -267.261108
v 145.706955 116.231384 -290.335236
v 23.887413 75.000000 -325.868378
v 94.228333 75.000000 -321.286011
v 196.801895 75.000000 -338.520111
v 95.729530 75.000000 -344.736267
v 80.328346 0.000000 -21.556112
v 176.953079 0.000000 -15.611421
v 196.801895 0.000000 -338.520111
v 95.729530 0.000000 -344.736267
v 94.228333 0.000000 -321.286011
v 23.887413 0.000000 -325.868378
v 9.377947 0.000000 -88.792671
v 84.722404 0.000000 -83.859726
vt 0.393770 0.940290
vt 0.646330 0.820090
vt 0.867420 0.956760
vt 0.415310 0.767700
vt 0.667760 0.636540
vt 0.045970 0.754040
vt 0.513160 0.531320
vt 0.117100 0.097318
vt 0.532710 0.351220
vt 0.461900 0.110010
vt 0.707160 0.259660
vt 0.469260 0.045052
vt 0.714250 0.195750
vt 0.964720 0.062271
vn 0.0408 -0.7480 -0.6624
vn 0.6473 -0.7608 0.0457
vn 0.0411 -0.7772 -0.6279
vn 0.6118 -0.7901 0.0374
vn -0.0411 -0.7754 0.6301
vn 0.6103 -0.7912 0.0391
vn -0.0385 -0.7790 0.6258
vn -0.6500 -0.7588 -0.0400
usemtl None
s off
f 1/1/1 3/2/1 2/3/1
f 1/1/2 5/4/2 6/5/2 3/2/2
f 5/4/3 4/6/3 7/7/3 6/5/3
f 4/6/4 11/8/4 8/9/4 7/7/4
f 8/9/5 11/8/5 12/10/5 9/11/5
f 9/11/6 12/10/6 14/12/6 10/13/6
f 10/13/7 14/12/7 13/14/7
f 2/3/8 3/2/8 6/5/8 7/7/8 8/9/8 9/11/8 10/13/8 13/14/8
