# Blender v2.92.0 OBJ File: ''
# www.blender.org
mtllib CG10_500_044068_0052.mtl
o CG10_500_044068_0052
v 368.034393 75.000000 -379.073517
v 273.410492 75.000000 -419.037933
v 179.729767 75.000000 -457.623993
v 509.152008 75.000000 -320.963074
v 324.308990 93.179596 -389.529510
v 291.529022 75.000000 -402.977814
v 354.112579 75.000000 -377.224121
v 286.794708 75.000000 -389.825317
v 265.487244 75.000000 -399.044250
v 358.946411 75.000000 -358.608032
v 348.476593 75.000000 -363.137939
v 209.883194 103.795158 -390.598022
v 307.541962 92.735390 -345.502625
v 201.267670 103.884064 -369.264496
v 412.670837 115.579170 -276.538361
v 404.624786 115.727867 -257.675201
v 306.109863 116.508026 -298.744049
v 242.527130 144.907028 -269.655426
v 342.279175 75.000000 -202.242584
v 443.593597 75.000000 -161.591507
v 205.036072 145.000000 -178.251755
v 122.644882 110.199043 -147.788574
v 154.547623 75.000000 -69.390579
v 268.773346 75.000000 -22.221600
v 138.649612 75.000000 -33.073952
v 24.157179 75.000000 -80.214096
v 83.493843 109.594246 -55.754631
v 368.034393 0.000000 -379.073517
v 509.152008 0.000000 -320.963074
v 443.593597 0.000000 -161.591507
v 342.279175 0.000000 -202.242584
v 268.773346 0.000000 -22.221600
v 154.547623 0.000000 -69.390579
v 138.649612 0.000000 -33.073952
v 24.157179 0.000000 -80.214096
v 179.729767 0.000000 -457.623993
v 273.410492 0.000000 -419.037933
v 265.487244 0.000000 -399.044250
v 286.794708 0.000000 -389.825317
v 291.529022 0.000000 -402.977814
v 354.112579 0.000000 -377.224121
v 348.476593 0.000000 -363.137939
v 358.946411 0.000000 -358.608032
vn 0.4597 0.8649 0.2013
vn -0.1925 0.8636 0.4660
vn -0.4387 0.8803 -0.1808
vn -0.4724 -0.8600 -0.1929
vn -0.1783 0.8779 0.4444
vn 0.4525 0.8721 0.1861
vn 0.1761 0.8867 -0.4276
vn -0.4037 0.8971 -0.1793
vn 0.4560 0.8711 0.1825
vn -0.1887 -0.8687 0.4581
vn 0.4740 0.8602 0.1878
vn 0.1905 0.8774 -0.4403
vn 0.4299 -0.8895 0.1547
vn -0.3807 -0.0008 0.9247
vn 0.3805 -0.0021 -0.9248
vn 0.0000 -1.0000 0.0000
vn -0.3808 0.0000 0.9247
vn -0.9248 0.0000 -0.3804
vn 0.3724 0.0000 -0.9281
vn -0.9258 0.0000 -0.3780
vn 0.3817 0.0000 -0.9243
vn -0.9161 0.0000 -0.4010
vn 0.3807 0.0000 -0.9247
vn 0.9245 0.0000 0.3811
vn -0.3808 0.0000 0.9246
vn -0.9297 0.0000 -0.3684
vn -0.3971 0.0000 0.9178
vn 0.9409 0.0000 0.3387
vn -0.3805 0.0000 0.9248
vn -0.9284 0.0000 -0.3715
vn 0.9139 0.0000 0.4058
usemtl None
s off
f 27//1 25//1 23//1 22//1
f 23//2 24//2 21//2 22//2
f 26//3 27//3 22//3 21//3 18//3 14//3 12//3 3//3
f 18//4 17//4 19//4 24//4 21//4
f 19//5 20//5 16//5 17//5
f 20//6 4//6 15//6 16//6
f 4//7 1//7 15//7
f 1//8 10//8 16//8 15//8
f 13//9 11//9 7//9 5//9
f 3//10 2//10 12//10
f 12//11 14//11 9//11 2//11
f 9//12 14//12 18//12 17//12 16//12 10//12 11//12 13//12 8//12
f 8//13 6//13 5//13 13//13
f 25//14 27//14 26//14
f 6//15 5//15 7//15
f 28//16 29//16 30//16 31//16 32//16 33//16 34//16 35//16 36//16 37//16 38//16 39//16 40//16 41//16 42//16 43//16
f 1//17 28//17 29//17 4//17
f 4//18 29//18 30//18 20//18
f 20//19 30//19 31//19 19//19
f 19//20 31//20 32//20 24//20
f 24//21 32//21 33//21 23//21
f 23//22 33//22 34//22 25//22
f 25//23 34//23 35//23 26//23
f 26//24 35//24 36//24 3//24
f 3//25 36//25 37//25 2//25
f 2//26 37//26 38//26 9//26
f 9//27 38//27 39//27 8//27
f 8//28 39//28 40//28 6//28
f 6//29 40//29 41//29 7//29
f 7//30 41//30 42//30 11//30
f 11//27 42//27 43//27 10//27
f 10//31 43//31 28//31 1//31
