# Blender v2.92.0 OBJ File: ''
# www.blender.org
mtllib CG10_500_045067_0007_roof.mtl
o CG10_500_045067_0007_roof
v 13.746619 75.000000 -60.720341
v 75.422890 75.000000 -338.171906
v 124.351723 144.988083 -82.724106
v 165.219818 145.000000 -266.488861
v 280.980713 75.000000 -292.479004
v 219.251633 75.000000 -15.039194
v 13.746619 0.000000 -60.720341
v 75.422890 0.000000 -338.171906
v 280.980713 0.000000 -292.479004
v 219.251633 0.000000 -15.039194
vt 0.046917 0.828470
vt 0.424410 0.766320
vt 0.748300 0.957520
vt 0.257420 0.044712
vt 0.563890 0.247210
vt 0.958980 0.173790
vn 0.1819 -0.5449 -0.8185
vn 0.5479 -0.8276 0.1218
vn -0.1760 -0.5850 0.7917
vn -0.5332 -0.8377 -0.1186
usemtl None
s off
f 1/1/1 3/2/1 6/3/1
f 1/1/2 2/4/2 4/5/2 3/2/2
f 4/5/3 2/4/3 5/6/3
f 6/3/4 3/2/4 4/5/4 5/6/4
