# Blender v2.92.0 OBJ File: ''
# www.blender.org
mtllib CG10_500_043075_0012_roof.mtl
o CG10_500_043075_0012_roof
v 381.749268 75.000000 -246.301437
v 286.625702 75.000000 -16.256773
v 287.938110 123.566330 -167.644806
v 254.823624 123.552681 -87.519814
v 274.369904 145.000000 -200.242798
v 180.625977 75.000000 -60.075794
v 212.669479 75.000000 -137.650757
v 143.563339 75.000000 -166.247772
v 120.710487 75.000000 -111.104523
v 148.614624 144.962296 -252.234528
v 112.483238 121.362106 -237.475372
v 88.667580 121.325226 -179.892548
v 104.401634 75.000000 -360.859467
v 18.713575 75.000000 -153.268860
v 381.749268 0.000000 -246.301437
v 286.625702 0.000000 -16.256773
v 180.625977 0.000000 -60.075794
v 212.669479 0.000000 -137.650757
v 143.563339 0.000000 -166.247772
v 120.710487 0.000000 -111.104523
v 18.713575 0.000000 -153.268860
v 104.401634 0.000000 -360.859467
vt 0.714780 0.956990
vt 0.635470 0.768470
vt 0.450440 0.841070
vt 0.718050 0.556500
vt 0.530350 0.635840
vt 0.684210 0.470260
vt 0.951990 0.348410
vt 0.370610 0.332710
vt 0.280510 0.371760
vt 0.358010 0.560190
vt 0.221120 0.524090
vt 0.301020 0.706070
vt 0.046667 0.594530
vt 0.260350 0.045345
vn -0.2562 0.7418 0.6197
vn -0.5927 0.7673 -0.2448
vn -0.6016 -0.7591 -0.2487
vn -0.2493 0.7583 0.6024
vn 0.5892 0.7702 0.2442
vn -0.2560 0.7424 0.6192
vn -0.5986 0.7620 -0.2471
vn 0.2452 0.7666 -0.5935
usemtl None
s off
f 2/1/1 4/2/1 6/3/1
f 6/3/2 4/2/2 3/4/2 7/5/2
f 2/1/3 4/2/3 3/4/3 5/6/3 1/7/3
f 7/5/4 3/4/4 5/6/4 10/8/4 11/9/4 8/10/4
f 8/10/5 11/9/5 12/11/5 9/12/5
f 9/12/6 12/11/6 14/13/6
f 14/13/7 12/11/7 11/9/7 10/8/7 13/14/7
f 13/14/8 10/8/8 5/6/8 1/7/8
