# Blender v2.92.0 OBJ File: ''
# www.blender.org
mtllib CG10_500_037056_0018_roof.mtl
o CG10_500_037056_0018_roof
v 103.017960 75.000000 -25.766275
v 204.835068 75.000000 -18.682302
v 14.691858 75.000000 -50.398586
v 104.315941 75.000000 -44.163677
v 206.047546 75.000000 -37.086479
v 300.177277 75.000000 -30.538126
v 152.235580 109.257858 -73.543114
v 153.441437 109.230232 -91.158775
v 168.649811 124.044533 -111.918556
v 84.779007 123.976883 -117.653587
v 198.530746 144.982224 -140.675812
v 108.400749 75.000000 -186.516266
v 24.554956 75.000000 -192.152298
v 205.290512 145.000000 -238.810547
v 78.835930 75.000000 -258.231018
v 113.213699 75.000000 -256.633942
v 175.073807 120.455322 -275.201538
v 177.709824 120.345001 -315.746857
v 158.791809 133.258728 -334.313690
v 249.263794 75.000000 -334.868164
v 320.932129 75.000000 -330.612976
v 89.790901 75.000000 -415.815491
v 253.492081 75.000000 -404.423492
v 103.017960 0.000000 -25.766275
v 204.835068 0.000000 -18.682302
v 206.047546 0.000000 -37.086479
v 300.177277 0.000000 -30.538126
v 320.932129 0.000000 -330.612976
v 249.263794 0.000000 -334.868164
v 253.492081 0.000000 -404.423492
v 89.790901 0.000000 -415.815491
v 78.835930 0.000000 -258.231018
v 113.213699 0.000000 -256.633942
v 108.400749 0.000000 -186.516266
v 24.554956 0.000000 -192.152298
v 14.691858 0.000000 -50.398586
v 104.315941 0.000000 -44.163677
vt 0.741860 0.231950
vt 0.754440 0.072423
vt 0.472590 0.233230
vt 0.528900 0.275810
vt 0.521050 0.368800
vt 0.267230 0.046295
vt 0.234630 0.407730
vt 0.336950 0.411390
vt 0.322620 0.572210
vt 0.501930 0.743310
vt 0.590870 0.677350
vt 0.610980 0.452270
vt 0.073080 0.559280
vt 0.252320 0.730150
vt 0.043726 0.884410
vt 0.310460 0.898710
vt 0.306600 0.940900
vt 0.453080 0.831320
vt 0.456670 0.790920
vt 0.609630 0.957150
vt 0.613240 0.914940
vt 0.893380 0.929960
vt 0.955160 0.241710
vn 0.5413 0.8402 0.0329
vn 0.0421 0.7956 -0.6043
vn -0.6146 0.7877 -0.0427
vn -0.0274 0.8074 0.5894
vn -0.5996 0.7992 -0.0412
vn 0.0383 0.8205 -0.5704
vn -0.5989 0.7998 -0.0417
vn -0.5980 0.8004 -0.0422
vn -0.0387 0.8305 0.5557
vn 0.5201 0.8534 0.0343
vn -0.0390 0.8267 0.5613
vn 0.5390 0.8415 0.0373
vn 0.0343 0.8151 -0.5783
usemtl None
s off
f 20/1/1 23/2/1 19/3/1 18/4/1 17/5/1
f 23/2/2 22/6/2 19/3/2
f 22/6/3 15/7/3 19/3/3
f 15/7/4 16/8/4 18/4/4 19/3/4
f 16/8/5 12/9/5 9/10/5 11/11/5 14/12/5 17/5/5 18/4/5
f 12/9/6 13/13/6 10/14/6 9/10/6
f 13/13/7 3/15/7 10/14/7
f 4/16/8 1/17/8 7/18/8 8/19/8
f 1/17/9 2/20/9 7/18/9
f 2/20/10 5/21/10 8/19/10 7/18/10
f 3/15/11 4/16/11 8/19/11 5/21/11 6/22/11 11/11/11 9/10/11 10/14/11
f 6/22/12 21/23/12 14/12/12 11/11/12
f 21/23/13 20/1/13 17/5/13 14/12/13
