# Blender v2.92.0 OBJ File: ''
# www.blender.org
mtllib CG10_500_042071_0017_roof.mtl
o CG10_500_042071_0017_roof
v 12.754409 75.000000 -84.783691
v 117.714714 75.000000 -344.423218
v 114.485970 144.759171 -134.441910
v 159.720261 145.000000 -245.640289
v 131.815796 118.790176 -93.637993
v 154.628586 118.400009 -83.906998
v 267.192505 75.000000 -283.980438
v 199.461594 75.000000 -118.633163
v 182.229599 75.000000 -16.264780
v 219.901566 75.000000 -109.472755
v 12.754409 0.000000 -84.783691
v 117.714714 0.000000 -344.423218
v 267.192505 0.000000 -283.980438
v 199.461594 0.000000 -118.633163
v 219.901566 0.000000 -109.472755
v 182.229599 0.000000 -16.264780
vt 0.045715 0.766440
vt 0.653150 0.955190
vt 0.554220 0.768850
vt 0.472460 0.742040
vt 0.410340 0.629640
vt 0.788180 0.698420
vt 0.714920 0.673190
vt 0.421920 0.051176
vt 0.572470 0.323310
vt 0.957680 0.217680
vn -0.2392 0.7699 0.5916
vn 0.6013 0.7612 0.2430
vn -0.2680 -0.7554 0.5980
vn 0.6282 -0.7354 0.2540
vn -0.5886 -0.7716 -0.2411
vn -0.2543 -0.7348 0.6288
usemtl None
s off
f 1/1/1 9/2/1 6/3/1 5/4/1 3/5/1
f 9/2/2 10/6/2 6/3/2
f 6/3/3 5/4/3 8/7/3 10/6/3
f 3/5/4 1/1/4 2/8/4 4/9/4
f 4/9/5 7/10/5 8/7/5 5/4/5 3/5/5
f 2/8/6 7/10/6 4/9/6
