# Blender v2.92.0 OBJ File: ''
# www.blender.org
mtllib CG10_500_047072_0014_roof.mtl
o CG10_500_047072_0014_roof
v 284.164825 75.000000 -19.829496
v 171.894470 75.000000 -25.022217
v 232.226059 113.798203 -81.374176
v 175.067322 75.000000 -94.139435
v 14.211634 75.000000 -101.571770
v 235.258957 113.808769 -147.100113
v 193.378189 144.998657 -193.833908
v 122.615372 145.000000 -197.105408
v 296.608124 75.000000 -288.168274
v 152.804993 75.000000 -294.820435
v 23.426392 75.000000 -300.805298
v 34.998669 75.000000 -300.269989
v 157.675598 75.000000 -400.126678
v 39.869270 75.000000 -405.575439
v 284.164825 0.000000 -19.829496
v 171.894470 0.000000 -25.022217
v 175.067322 0.000000 -94.139435
v 14.211634 0.000000 -101.571770
v 23.426392 0.000000 -300.805298
v 34.998669 0.000000 -300.269989
v 39.869270 0.000000 -405.575439
v 157.675598 0.000000 -400.126678
v 152.804993 0.000000 -294.820435
v 296.608124 0.000000 -288.168274
vt 0.074845 0.290550
vt 0.045405 0.760440
vt 0.391740 0.535130
vt 0.559320 0.777970
vt 0.751630 0.653070
vt 0.617820 0.542840
vt 0.549180 0.940990
vt 0.907870 0.953230
vt 0.741940 0.808080
vt 0.947630 0.320360
vt 0.111820 0.291820
vt 0.488190 0.304670
vt 0.127380 0.043454
vt 0.503760 0.056305
vn -0.5582 0.8293 -0.0258
vn -0.0264 0.8204 0.5712
vn -0.0254 0.8359 0.5483
vn -0.5575 0.8298 -0.0256
vn 0.5777 0.8158 0.0268
vn -0.0267 -0.8165 0.5767
vn 0.0000 -1.0000 -0.0000
usemtl None
s off
f 11/1/1 5/2/1 8/3/1
f 5/2/2 4/4/2 6/5/2 7/6/2 8/3/2
f 2/7/3 1/8/3 3/9/3
f 4/4/4 2/7/4 3/9/4 6/5/4
f 1/8/5 9/10/5 7/6/5 6/5/5 3/9/5
f 8/3/6 11/1/6 12/11/6 10/12/6 9/10/6 7/6/6
f 12/11/7 14/13/7 13/14/7 10/12/7
