# Blender v2.92.0 OBJ File: ''
# www.blender.org
mtllib CG10_500_045069_0002.mtl
o CG10_500_045069_0002
v 124.477875 75.000000 -19.664534
v 13.097399 75.000000 -66.026428
v 95.575882 116.217445 -96.741051
v 148.759277 75.000000 -76.118805
v 225.712128 75.000000 -43.085392
v 119.939499 116.468948 -154.266785
v 176.847961 144.998825 -175.090836
v 182.747147 145.000000 -189.262283
v 165.377319 125.220970 -227.893555
v 107.165192 75.000000 -292.078857
v 98.074608 75.000000 -297.931396
v 309.983032 75.000000 -245.467697
v 256.254333 75.000000 -268.391510
v 196.350708 125.373062 -301.707031
v 186.017532 113.610382 -324.673370
v 176.313263 113.020729 -329.647919
v 287.997986 75.000000 -343.498901
v 142.286102 75.000000 -404.143433
v 124.477875 0.000000 -19.664534
v 13.097399 0.000000 -66.026428
v 107.165192 0.000000 -292.078857
v 98.074608 0.000000 -297.931396
v 142.286102 0.000000 -404.143433
v 287.997986 0.000000 -343.498901
v 256.254333 0.000000 -268.391510
v 309.983032 0.000000 -245.467697
v 225.712128 0.000000 -43.085392
v 148.759277 0.000000 -76.118805
vn -0.2175 0.8245 0.5224
vn 0.5383 0.8104 0.2315
vn -0.2232 0.8246 0.5199
vn 0.5444 0.8076 0.2267
vn 0.4939 -0.8449 0.2056
vn -0.2612 0.8759 0.4057
vn -0.4980 0.8421 -0.2072
vn 0.2166 0.8259 -0.5205
vn -0.5475 -0.8042 -0.2314
vn -0.2226 -0.8235 0.5217
vn 0.0000 -1.0000 0.0000
vn 0.3843 0.0000 -0.9232
vn 0.9233 0.0000 0.3842
vn 0.5413 0.0000 -0.8408
vn 0.9232 0.0000 0.3843
vn -0.3842 0.0000 0.9232
vn -0.9211 0.0000 -0.3893
vn -0.3924 0.0000 0.9198
vn -0.9232 0.0000 -0.3844
vn 0.3945 0.0000 -0.9189
vn -0.9186 0.0000 -0.3951
usemtl None
s off
f 2//1 1//1 3//1
f 1//2 4//2 6//2 3//2
f 4//3 5//3 7//3 6//3
f 5//4 12//4 8//4 7//4
f 11//5 18//5 16//5
f 11//6 10//6 15//6 16//6
f 2//7 3//7 6//7 7//7 8//7 9//7 14//7 15//7 10//7
f 18//8 16//8 15//8 14//8 17//8
f 9//9 14//9 17//9 13//9
f 8//10 9//10 13//10 12//10
f 19//11 20//11 21//11 22//11 23//11 24//11 25//11 26//11 27//11 28//11
f 1//12 19//12 20//12 2//12
f 2//13 20//13 21//13 10//13
f 10//14 21//14 22//14 11//14
f 11//15 22//15 23//15 18//15
f 18//16 23//16 24//16 17//16
f 17//17 24//17 25//17 13//17
f 13//18 25//18 26//18 12//18
f 12//19 26//19 27//19 5//19
f 5//20 27//20 28//20 4//20
f 4//21 28//21 19//21 1//21
