# Blender v2.92.0 OBJ File: ''
# www.blender.org
mtllib CG10_500_035062_0012_roof.mtl
o CG10_500_035062_0012_roof
v 10.031301 75.000000 -27.541389
v 209.440796 75.000000 -14.371728
v 13.935879 142.609161 -88.083038
v 141.097229 144.612732 -81.486656
v 69.764938 75.000000 -148.049835
v 18.010460 75.000000 -149.986084
v 155.658768 145.000000 -303.896454
v 79.983131 75.000000 -308.759888
v 228.601151 75.000000 -299.097321
v 10.031301 0.000000 -27.541389
v 209.440796 0.000000 -14.371728
v 228.601151 0.000000 -299.097321
v 79.983131 0.000000 -308.759888
v 69.764938 0.000000 -148.049835
v 18.010460 0.000000 -149.986084
vt 0.041797 0.914730
vt 0.058066 0.727300
vt 0.587910 0.747720
vt 0.872670 0.955510
vt 0.075044 0.535650
vt 0.290690 0.541640
vt 0.333260 0.044087
vt 0.648580 0.059144
vt 0.952500 0.074002
vn 0.0490 -0.6679 -0.7427
vn -0.0276 -0.6759 0.7364
vn 0.6769 -0.7348 0.0430
vn 0.6901 0.7223 0.0464
vn -0.0649 0.0008 0.9979
vn 0.9979 0.0006 0.0650
usemtl None
s off
f 1/1/1 3/2/1 4/3/1 2/4/1
f 3/2/2 6/5/2 5/6/2 4/3/2
f 5/6/3 8/7/3 7/8/3 4/3/3
f 2/4/4 9/9/4 7/8/4 4/3/4
f 9/9/5 7/8/5 8/7/5
f 6/5/6 3/2/6 1/1/6
