# Blender v2.92.0 OBJ File: ''
# www.blender.org
mtllib CG10_500_036060_0027.mtl
o CG10_500_036060_0027
v 27.377737 75.000000 -337.908722
v 216.069733 75.000000 -328.177338
v 114.197815 145.000000 -235.186218
v 205.070419 75.000000 -129.638474
v 238.100967 75.000000 -127.647377
v 108.663498 144.851593 -131.589966
v 69.452301 116.416695 -96.793900
v 153.791519 110.297836 -84.380852
v 187.213974 110.207687 -82.489609
v 67.953110 116.222511 -72.662521
v 121.113678 75.000000 -40.337280
v 233.292542 75.000000 -34.381935
v 11.101287 75.000000 -22.087084
v 119.375153 75.000000 -16.510302
v 27.377737 0.000000 -337.908722
v 216.069733 0.000000 -328.177338
v 205.070419 0.000000 -129.638474
v 238.100967 0.000000 -127.647377
v 233.292542 0.000000 -34.381935
v 121.113678 0.000000 -40.337280
v 119.375153 0.000000 -16.510302
v 11.101287 0.000000 -22.087084
vn -0.0314 0.7918 0.6100
vn -0.5956 -0.8021 -0.0435
vn 0.0324 -0.7915 -0.6103
vn -0.5867 -0.8092 -0.0302
vn 0.0355 0.8072 -0.5893
vn -0.5860 -0.8097 -0.0325
vn -0.6048 0.7958 -0.0312
vn 0.0299 0.8141 -0.5800
vn 0.0000 -1.0000 0.0000
vn -0.0515 0.0000 0.9987
vn -0.9985 0.0000 -0.0553
vn -0.0602 0.0000 0.9982
vn -0.9987 0.0000 -0.0515
vn 0.0530 0.0000 -0.9986
vn -0.9973 0.0000 -0.0728
vn 0.0514 0.0000 -0.9987
vn 0.9987 0.0000 0.0515
usemtl None
s off
f 13//1 14//1 10//1
f 11//2 14//2 10//2 7//2
f 12//3 11//3 7//3 6//3 8//3 9//3
f 5//4 12//4 9//4
f 4//5 8//5 9//5 5//5
f 4//6 8//6 6//6 3//6 2//6
f 1//7 13//7 10//7 7//7 6//7 3//7
f 2//8 1//8 3//8
f 15//9 16//9 17//9 18//9 19//9 20//9 21//9 22//9
f 1//10 15//10 16//10 2//10
f 2//11 16//11 17//11 4//11
f 4//12 17//12 18//12 5//12
f 5//13 18//13 19//13 12//13
f 12//14 19//14 20//14 11//14
f 11//15 20//15 21//15 14//15
f 14//16 21//16 22//16 13//16
f 13//17 22//17 15//17 1//17
