# Blender v2.92.0 OBJ File: ''
# www.blender.org
mtllib CG10_500_044066_0022.mtl
o CG10_500_044066_0022
v 218.344788 75.000000 -16.177700
v 12.461308 75.000000 -26.781073
v 252.094299 75.000000 -94.574814
v 222.085587 75.000000 -95.787971
v 117.122742 145.000000 -124.325417
v 121.192825 144.870773 -206.767380
v 152.268021 144.757843 -205.338348
v 263.017303 75.000000 -306.605103
v 27.526711 75.000000 -318.746796
v 218.344788 0.000000 -16.177700
v 12.461308 0.000000 -26.781073
v 27.526711 0.000000 -318.746796
v 263.017303 0.000000 -306.605103
v 252.094299 0.000000 -94.574814
v 222.085587 0.000000 -95.787971
vn -0.0282 -0.8373 0.5460
vn 0.5512 0.8339 0.0284
vn 0.0221 -0.8369 -0.5470
vn 0.5746 -0.8179 0.0297
vn -0.5498 -0.8349 -0.0258
vn -0.0289 0.8266 0.5621
vn 0.0000 -1.0000 0.0000
vn 0.0514 0.0000 -0.9987
vn 0.9987 0.0000 0.0515
vn -0.0515 0.0000 0.9987
vn -0.9987 0.0000 -0.0514
vn 0.0404 0.0000 -0.9992
vn -0.9989 0.0000 -0.0469
usemtl None
s off
f 6//1 9//1 8//1 7//1
f 7//2 3//2 8//2
f 3//3 4//3 6//3 7//3
f 2//4 9//4 6//4 5//4
f 4//5 1//5 5//5 6//5
f 2//6 1//6 5//6
f 10//7 11//7 12//7 13//7 14//7 15//7
f 1//8 10//8 11//8 2//8
f 2//9 11//9 12//9 9//9
f 9//10 12//10 13//10 8//10
f 8//11 13//11 14//11 3//11
f 3//12 14//12 15//12 4//12
f 4//13 15//13 10//13 1//13
