# Blender v2.92.0 OBJ File: ''
# www.blender.org
mtllib CG10_500_048071_0028_roof.mtl
o CG10_500_048071_0028_roof
v 203.304199 75.000000 -291.959717
v 188.877594 75.000000 -39.268860
v 128.335098 75.000000 -296.000458
v 133.956985 75.000000 -395.607391
v 112.435226 75.000000 -43.660580
v 110.626106 75.000000 -18.160652
v 106.820702 145.000000 -210.875809
v 102.624199 144.998611 -137.339615
v 63.826889 115.521484 -100.356735
v 77.922844 115.529640 -347.286285
v 72.346825 115.552788 -249.031494
v 62.130630 115.376259 -73.789146
v 9.035003 75.000000 -23.954660
v 30.572014 75.000000 -401.506958
v 203.304199 0.000000 -291.959717
v 188.877594 0.000000 -39.268860
v 112.435226 0.000000 -43.660580
v 110.626106 0.000000 -18.160652
v 9.035003 0.000000 -23.954660
v 30.572014 0.000000 -401.506958
v 133.956985 0.000000 -395.607391
v 128.335098 0.000000 -296.000458
vt 0.364130 0.175090
vt 0.142860 0.046302
vt 0.625970 0.060315
vt 0.338070 0.408480
vt 0.599700 0.296910
vt 0.499160 0.499110
vt 0.950020 0.306510
vt 0.882610 0.906720
vt 0.479550 0.673780
vt 0.525400 0.896290
vt 0.298260 0.761620
vt 0.516940 0.956860
vt 0.290330 0.824730
vt 0.042220 0.943100
vn -0.0353 -0.7855 0.6179
vn 0.6049 0.7956 0.0341
vn 0.0339 0.7761 -0.6297
vn -0.6058 -0.7949 -0.0346
vn 0.0345 -0.7989 -0.6005
vn -0.6095 -0.7916 -0.0432
vn 0.0346 -0.7942 -0.6066
vn 0.6259 -0.7791 0.0357
usemtl None
s off
f 10/1/1 14/2/1 4/3/1
f 10/1/2 11/4/2 3/5/2 4/3/2
f 11/4/3 7/6/3 1/7/3 3/5/3
f 1/7/4 2/8/4 8/9/4 7/6/4
f 2/8/5 5/10/5 9/11/5 8/9/5
f 5/10/6 6/12/6 12/13/6 9/11/6
f 6/12/7 13/14/7 12/13/7
f 13/14/8 14/2/8 10/1/8 11/4/8 7/6/8 8/9/8 9/11/8 12/13/8
