# Blender v2.92.0 OBJ File: ''
# www.blender.org
mtllib CG10_500_039065_0011.mtl
o CG10_500_039065_0011
v 47.339897 75.000000 -449.263916
v 17.697428 75.000000 -47.182041
v 120.204033 144.996262 -133.791473
v 140.006821 144.991028 -402.501373
v 230.994446 75.000000 -435.729828
v 214.888062 75.000000 -217.104889
v 295.100372 145.000000 -120.902710
v 379.985718 75.000000 -204.942780
v 366.465027 75.000000 -21.470081
v 47.339897 0.000000 -449.263916
v 17.697428 0.000000 -47.182041
v 366.465027 0.000000 -21.470081
v 379.985718 0.000000 -204.942780
v 214.888062 0.000000 -217.104889
v 230.994446 0.000000 -435.729828
vn 0.0451 0.7895 -0.6121
vn -0.6638 -0.7463 -0.0489
vn 0.0439 -0.8018 -0.5960
vn 0.6195 0.7837 0.0456
vn 0.5881 -0.8076 0.0434
vn -0.0639 -0.4946 0.8668
vn 0.0000 1.0000 0.0000
vn -0.9973 0.0000 -0.0735
vn -0.0735 0.0000 0.9973
vn 0.9973 0.0000 0.0735
vn 0.0735 0.0000 -0.9973
usemtl None
s off
f 3//1 7//1 8//1 6//1
f 9//2 7//2 8//2
f 2//3 3//3 7//3 9//3
f 3//4 6//4 5//4 4//4
f 3//5 2//5 1//5 4//5
f 1//6 5//6 4//6
f 10//7 11//7 12//7 13//7 14//7 15//7
f 1//8 10//8 11//8 2//8
f 2//9 11//9 12//9 9//9
f 9//10 12//10 13//10 8//10
f 8//11 13//11 14//11 6//11
f 6//10 14//10 15//10 5//10
f 5//11 15//11 10//11 1//11
