# Blender v2.92.0 OBJ File: ''
# www.blender.org
mtllib CG10_500_044064_0010_roof.mtl
o CG10_500_044064_0010_roof
v 17.066742 75.000000 -152.058243
v 247.757385 75.000000 -11.911520
v 55.657719 144.966766 -214.910721
v 286.066467 145.000000 -74.976234
v 92.813515 75.000000 -276.753632
v 323.540192 75.000000 -136.666199
v 17.066742 0.000000 -152.058243
v 247.757385 0.000000 -11.911520
v 323.540192 0.000000 -136.666199
v 92.813515 0.000000 -276.753632
vt 0.050196 0.475660
vt 0.163700 0.258930
vt 0.841370 0.741460
vt 0.728700 0.958930
vt 0.272980 0.045677
vt 0.951590 0.528740
vn 0.3573 -0.7255 -0.5882
vn -0.3613 -0.7179 0.5951
vn -0.8547 0.0000 -0.5192
vn 0.8547 -0.0050 0.5192
usemtl None
s off
f 1/1/1 3/2/1 4/3/1 2/4/1
f 4/3/2 3/2/2 5/5/2 6/6/2
f 2/4/3 4/3/3 6/6/3
f 5/5/4 3/2/4 1/1/4
