# Blender v2.92.0 OBJ File: ''
# www.blender.org
mtllib CG10_500_037057_0043.mtl
o CG10_500_037057_0043
v 359.052673 75.000000 -182.095520
v 349.975159 75.000000 -14.493083
v 271.190430 145.000000 -101.939934
v 164.020264 75.000000 -24.592405
v 159.098541 75.000000 -9.515916
v 103.213181 144.962799 -111.018677
v 93.337723 136.962662 -102.049942
v 90.818687 135.493408 -87.362808
v 16.021536 75.000000 -17.265463
v 25.906891 75.000000 -200.011703
v 359.052673 0.000000 -182.095520
v 349.975159 0.000000 -14.493083
v 164.020264 0.000000 -24.592405
v 159.098541 0.000000 -9.515916
v 16.021536 0.000000 -17.265463
v 25.906891 0.000000 -200.011703
vn -0.0342 0.7744 0.6318
vn 0.0342 0.7710 -0.6359
vn -0.6420 -0.7660 -0.0348
vn 0.0350 -0.7646 -0.6435
vn -0.5341 -0.8272 -0.1744
vn 0.6481 -0.7607 0.0351
vn 0.0000 -1.0000 0.0000
vn -0.9985 0.0000 -0.0541
vn 0.0542 0.0000 -0.9985
vn -0.9506 0.0000 -0.3103
vn 0.0541 0.0000 -0.9985
vn 0.9985 0.0000 0.0540
vn -0.0537 0.0000 0.9986
usemtl None
s off
f 9//1 5//1 8//1
f 1//2 10//2 6//2 3//2
f 1//3 2//3 3//3
f 2//4 4//4 7//4 6//4 3//4
f 4//5 5//5 8//5 7//5
f 9//6 10//6 6//6 7//6 8//6
f 11//7 12//7 13//7 14//7 15//7 16//7
f 1//8 11//8 12//8 2//8
f 2//9 12//9 13//9 4//9
f 4//10 13//10 14//10 5//10
f 5//11 14//11 15//11 9//11
f 9//12 15//12 16//12 10//12
f 10//13 16//13 11//13 1//13
