# Blender v2.92.0 OBJ File: ''
# www.blender.org
mtllib CG10_500_042073_0036.mtl
o CG10_500_042073_0036
v 16.066986 75.000000 -80.343338
v 117.666992 75.000000 -331.158234
v 174.697098 145.000000 -218.596420
v 138.669983 144.879166 -130.095413
v 217.187103 116.329964 -238.028687
v 176.051132 75.000000 -15.535790
v 259.399567 116.538475 -220.665192
v 239.681381 75.000000 -171.215057
v 285.009399 75.000000 -152.259033
v 323.682434 75.000000 -247.717331
v 16.066986 0.000000 -80.343338
v 117.666992 0.000000 -331.158234
v 323.682434 0.000000 -247.717331
v 285.009399 0.000000 -152.259033
v 239.681381 0.000000 -171.215057
v 176.051132 0.000000 -15.535790
vn -0.2269 0.7968 0.5601
vn 0.5494 -0.8054 0.2225
vn 0.2422 0.7641 -0.5979
vn 0.5963 0.7655 0.2416
vn 0.2374 -0.7884 -0.5676
vn 0.6179 0.7446 0.2526
vn 0.0000 -1.0000 0.0000
vn 0.9268 0.0000 0.3754
vn -0.3754 0.0000 0.9269
vn -0.9268 0.0000 -0.3755
vn 0.3858 0.0000 -0.9226
vn -0.9257 0.0000 -0.3783
vn 0.3755 0.0000 -0.9268
usemtl None
s off
f 1//1 6//1 4//1
f 1//2 2//2 3//2 4//2
f 3//3 5//3 7//3 10//3 2//3
f 7//4 9//4 10//4
f 9//5 8//5 5//5 7//5
f 6//6 8//6 5//6 3//6 4//6
f 11//7 12//7 13//7 14//7 15//7 16//7
f 1//8 11//8 12//8 2//8
f 2//9 12//9 13//9 10//9
f 10//10 13//10 14//10 9//10
f 9//11 14//11 15//11 8//11
f 8//12 15//12 16//12 6//12
f 6//13 16//13 11//13 1//13
