# Blender v2.92.0 OBJ File: ''
# www.blender.org
mtllib CG10_500_039058_0005.mtl
o CG10_500_039058_0005
v 195.785660 75.000000 -353.081177
v 180.996765 75.000000 -87.205330
v 138.533920 75.000000 -366.761688
v 139.512177 75.000000 -356.931610
v 122.209045 75.000000 -89.860329
v 118.120483 75.000000 -18.457655
v 104.344475 145.000000 -276.813477
v 99.089523 144.996994 -182.272415
v 78.717430 122.721283 -304.831818
v 66.440567 119.676270 -150.695480
v 77.594719 118.820396 -370.308899
v 62.491127 119.629059 -80.629242
v 24.281378 75.000000 -373.082703
v 4.932735 75.000000 -24.741390
v 195.785660 0.000000 -353.081177
v 180.996765 0.000000 -87.205330
v 122.209045 0.000000 -89.860329
v 118.120483 0.000000 -18.457655
v 4.932735 0.000000 -24.741390
v 24.281378 0.000000 -373.082703
v 138.533920 0.000000 -366.761688
v 139.512177 0.000000 -356.931610
vn 0.0334 -0.7975 -0.6024
vn 0.6335 -0.7730 0.0352
vn -0.6017 -0.7980 -0.0345
vn -0.0275 0.7935 0.6079
vn -0.6256 -0.7793 -0.0348
vn -0.0442 -0.7619 0.6462
vn -0.5851 -0.8089 0.0582
vn 0.0552 -0.0040 -0.9985
vn 0.0000 -1.0000 0.0000
vn -0.9985 0.0000 -0.0555
vn 0.0451 0.0000 -0.9990
vn -0.9984 0.0000 -0.0572
vn 0.0554 0.0000 -0.9985
vn 0.9985 0.0000 0.0555
vn -0.0552 0.0000 0.9985
vn -0.9951 0.0000 0.0990
vn -0.0683 0.0000 0.9977
usemtl None
s off
f 14//1 12//1 6//1
f 14//2 13//2 11//2 9//2 7//2 8//2 10//2 12//2
f 10//3 5//3 6//3 12//3
f 5//4 2//4 8//4 10//4
f 7//5 1//5 2//5 8//5
f 9//6 4//6 1//6 7//6
f 9//7 11//7 3//7 4//7
f 13//8 11//8 3//8
f 15//9 16//9 17//9 18//9 19//9 20//9 21//9 22//9
f 1//10 15//10 16//10 2//10
f 2//11 16//11 17//11 5//11
f 5//12 17//12 18//12 6//12
f 6//13 18//13 19//13 14//13
f 14//14 19//14 20//14 13//14
f 13//15 20//15 21//15 3//15
f 3//16 21//16 22//16 4//16
f 4//17 22//17 15//17 1//17
