# Blender v2.92.0 OBJ File: ''
# www.blender.org
mtllib CG10_500_045067_0026.mtl
o CG10_500_045067_0026
v 337.377625 75.000000 -111.086769
v 364.261292 75.000000 -240.047455
v 285.797333 125.002960 -188.596039
v 262.280426 75.000000 -126.251793
v 237.741043 75.000000 -15.347570
v 211.056381 125.185524 -203.934082
v 159.728943 134.852905 -31.522377
v 187.541702 137.158051 -171.422089
v 179.558975 144.996307 -183.635056
v 123.099014 145.000000 -195.403564
v 78.622398 75.000000 -48.538975
v 89.114281 75.000000 -108.269318
v 97.002930 118.487541 -236.801224
v 16.492222 75.000000 -123.400284
v 30.629486 75.000000 -191.377136
v 46.018261 75.000000 -306.410248
v 22.353914 75.000000 -192.867584
v 34.065166 119.156227 -249.018692
v 337.377625 0.000000 -111.086769
v 364.261292 0.000000 -240.047455
v 46.018261 0.000000 -306.410248
v 22.353914 0.000000 -192.867584
v 30.629486 0.000000 -191.377136
v 16.492222 0.000000 -123.400284
v 89.114281 0.000000 -108.269318
v 78.622398 0.000000 -48.538975
v 237.741043 0.000000 -15.347570
v 262.280426 0.000000 -126.251793
vn -0.5769 0.8105 -0.1013
vn -0.1233 0.7966 0.5918
vn -0.6023 0.7884 -0.1253
vn 0.1081 -0.7923 -0.6005
vn 0.1228 0.7988 -0.5890
vn -0.5894 -0.7984 -0.1229
vn 0.1198 -0.7960 -0.5933
vn -0.5865 -0.7995 -0.1298
vn 0.9790 -0.0002 0.2040
vn 0.2042 0.0016 -0.9789
vn 0.0000 1.0000 0.0000
vn 0.9790 0.0000 0.2041
vn 0.2041 0.0000 -0.9789
vn -0.9790 0.0000 -0.2040
vn -0.1772 0.0000 0.9842
vn -0.9791 0.0000 -0.2036
vn -0.2040 0.0000 0.9790
vn -0.9849 0.0000 -0.1730
vn -0.2042 0.0000 0.9789
vn 0.9764 0.0000 0.2160
vn -0.1979 0.0000 0.9802
usemtl None
s off
f 11//1 7//1 8//1 12//1
f 12//2 8//2 9//2 10//2 14//2
f 13//3 15//3 14//3 10//3
f 18//4 13//4 15//4 17//4
f 16//5 18//5 13//5 10//5 9//5 6//5 3//5 2//5
f 3//6 2//6 1//6
f 3//7 1//7 4//7 6//7
f 8//8 9//8 6//8 4//8 5//8 7//8
f 16//9 18//9 17//9
f 11//10 7//10 5//10
f 19//11 20//11 21//11 22//11 23//11 24//11 25//11 26//11 27//11 28//11
f 1//12 19//12 20//12 2//12
f 2//13 20//13 21//13 16//13
f 16//14 21//14 22//14 17//14
f 17//15 22//15 23//15 15//15
f 15//16 23//16 24//16 14//16
f 14//17 24//17 25//17 12//17
f 12//18 25//18 26//18 11//18
f 11//19 26//19 27//19 5//19
f 5//20 27//20 28//20 4//20
f 4//21 28//21 19//21 1//21
