# Blender v2.92.0 OBJ File: ''
# www.blender.org
mtllib CG10_500_041069_0016_roof.mtl
o CG10_500_041069_0016_roof
v 29.683393 75.000000 -29.240856
v 306.399628 75.000000 -8.741363
v 35.522625 75.000000 -109.973938
v 13.927778 75.000000 -115.143127
v 137.496307 145.000000 -112.314560
v 233.853561 144.988968 -105.161942
v 94.839714 113.452667 -156.892609
v 72.446121 112.179451 -160.229324
v 21.223986 75.000000 -212.836533
v 319.934235 75.000000 -190.618317
v 29.683393 0.000000 -29.240856
v 306.399628 0.000000 -8.741363
v 319.934235 0.000000 -190.618317
v 21.223986 0.000000 -212.836533
v 13.927778 0.000000 -115.143127
v 35.522625 0.000000 -109.973938
vt 0.088607 0.867090
vt 0.106040 0.500120
vt 0.283100 0.286850
vt 0.410440 0.489480
vt 0.041575 0.476620
vt 0.216260 0.271680
vt 0.063355 0.032561
vt 0.955030 0.133550
vt 0.698070 0.521990
vt 0.914630 0.960270
vn 0.5661 -0.8233 0.0409
vn -0.1264 0.8396 0.5283
vn 0.5585 -0.8285 0.0417
vn 0.0450 0.7946 -0.6054
vn -0.6590 -0.7506 -0.0490
vn 0.0451 -0.7920 -0.6088
usemtl None
s off
f 1/1/1 3/2/1 7/3/1 5/4/1
f 4/5/2 3/2/2 7/3/2 8/6/2
f 9/7/3 8/6/3 4/5/3
f 10/8/4 9/7/4 8/6/4 7/3/4 5/4/4 6/9/4
f 2/10/5 6/9/5 10/8/5
f 1/1/6 5/4/6 6/9/6 2/10/6
