# Blender v2.92.0 OBJ File: ''
# www.blender.org
mtllib CG10_500_038069_0021.mtl
o CG10_500_038069_0021
v 192.065735 75.000000 -24.690731
v 210.933487 75.000000 -287.641937
v 193.659515 75.000000 -531.881897
v 175.675644 75.000000 -290.089081
v 102.895439 145.000000 -204.952148
v 97.197021 144.999023 -125.515831
v 104.576546 130.710709 -464.564514
v 87.097603 130.474304 -224.763641
v 7.936759 75.000000 -37.903191
v 44.134914 75.000000 -542.612427
v 192.065735 0.000000 -24.690731
v 210.933487 0.000000 -287.641937
v 175.675644 0.000000 -290.089081
v 193.659515 0.000000 -531.881897
v 44.134914 0.000000 -542.612427
v 7.936759 0.000000 -37.903191
vn -0.0428 0.8014 0.5966
vn -0.6441 0.7635 -0.0462
vn -0.5650 -0.8241 -0.0405
vn -0.0425 -0.7893 0.6126
vn -0.5519 -0.8329 -0.0410
vn 0.0432 0.7970 -0.6024
vn 0.0000 1.0000 0.0000
vn 0.9974 0.0000 0.0716
vn 0.0692 0.0000 -0.9976
vn 0.9972 0.0000 0.0742
vn 0.0716 0.0000 -0.9974
vn -0.9974 0.0000 -0.0715
vn -0.0716 0.0000 0.9974
usemtl None
s off
f 9//1 1//1 6//1
f 9//2 6//2 5//2 8//2 7//2 10//2
f 1//3 6//3 5//3 2//3
f 2//4 5//4 8//4 4//4
f 4//5 8//5 7//5 3//5
f 10//6 7//6 3//6
f 11//7 12//7 13//7 14//7 15//7 16//7
f 1//8 11//8 12//8 2//8
f 2//9 12//9 13//9 4//9
f 4//10 13//10 14//10 3//10
f 3//11 14//11 15//11 10//11
f 10//12 15//12 16//12 9//12
f 9//13 16//13 11//13 1//13
