# Blender v2.92.0 OBJ File: ''
# www.blender.org
mtllib CG10_500_040064_0033_roof.mtl
o CG10_500_040064_0033_roof
v 97.579910 114.913170 -418.108246
v 33.261059 75.000000 -421.621460
v 160.493820 75.000000 -414.660767
v 159.689178 75.000000 -403.670227
v 244.189316 75.000000 -399.265839
v 92.895378 114.487976 -344.932220
v 134.412064 141.696655 -299.896698
v 237.277939 75.000000 -274.573578
v 247.867554 75.000000 -272.997833
v 242.925201 75.000000 -179.120087
v 255.384598 75.000000 -178.534302
v 127.714638 141.665985 -178.199387
v 132.726059 144.981155 -171.850479
v 131.098633 145.000000 -141.500351
v 171.644852 124.450050 -105.664017
v 161.524750 124.425720 -106.177612
v 12.059079 75.000000 -33.491795
v 246.750168 75.000000 -20.658108
v 33.261059 0.000000 -421.621460
v 160.493820 0.000000 -414.660767
v 159.689178 0.000000 -403.670227
v 244.189316 0.000000 -399.265839
v 237.277939 0.000000 -274.573578
v 247.867554 0.000000 -272.997833
v 242.925201 0.000000 -179.120087
v 255.384598 0.000000 -178.534302
v 246.750168 0.000000 -20.658108
v 12.059079 0.000000 -33.491795
vt 0.642860 0.760940
vt 0.956500 0.596080
vt 0.924160 0.953260
vt 0.909830 0.594750
vt 0.604960 0.759780
vt 0.491010 0.679860
vt 0.497100 0.611200
vt 0.928340 0.382360
vt 0.478330 0.596830
vt 0.888680 0.378790
vt 0.045165 0.924230
vt 0.503420 0.321500
vt 0.914570 0.096684
vt 0.347920 0.219610
vt 0.598090 0.086719
vt 0.365470 0.054054
vt 0.601100 0.061853
vt 0.124570 0.046105
vn -0.5267 -0.8495 -0.0288
vn 0.0254 0.8405 -0.5412
vn -0.5372 -0.8430 -0.0283
vn -0.0756 -0.8582 0.5077
vn -0.0285 0.8529 0.5213
vn -0.5386 -0.8420 -0.0299
vn -0.0279 -0.8440 0.5356
vn -0.5338 -0.8447 -0.0391
vn 0.5259 -0.8500 0.0287
vn -0.0546 0.0001 0.9985
usemtl None
s off
f 15/1/1 11/2/1 18/3/1
f 11/2/2 10/4/2 16/5/2 15/1/2
f 14/6/3 13/7/3 9/8/3 10/4/3 16/5/3
f 13/7/4 12/9/4 8/10/4 9/8/4
f 17/11/5 18/3/5 15/1/5 16/5/5 14/6/5
f 12/9/6 7/12/6 5/13/6 8/10/6
f 7/12/7 6/14/7 4/15/7 5/13/7
f 6/14/8 1/16/8 3/17/8 4/15/8
f 17/11/9 2/18/9 1/16/9 6/14/9 7/12/9 12/9/9 13/7/9 14/6/9
f 3/17/10 1/16/10 2/18/10
