# Blender v2.92.0 OBJ File: ''
# www.blender.org
mtllib CG10_500_049074_0025.mtl
o CG10_500_049074_0025
v 69.722076 75.000000 -28.017916
v 147.026581 144.354202 -18.979519
v 224.780289 75.000000 -9.888687
v 15.163154 75.000000 -81.126045
v 75.138313 75.000000 -74.675003
v 313.392883 75.000000 -50.257988
v 230.668442 75.000000 -60.085201
v 23.996450 145.000000 -156.748840
v 321.830750 144.555313 -122.417961
v 161.305695 144.419861 -141.344986
v 33.118221 75.000000 -234.718140
v 330.888184 75.000000 -199.892700
v 69.722076 0.000000 -28.017916
v 224.780289 0.000000 -9.888687
v 230.668442 0.000000 -60.085201
v 313.392883 0.000000 -50.257988
v 330.888184 0.000000 -199.892700
v 33.118221 0.000000 -234.718140
v 15.163154 0.000000 -81.126045
v 75.138313 0.000000 -74.675003
vn 0.6608 -0.7466 0.0767
vn -0.6586 -0.7485 -0.0773
vn -0.0816 0.7223 0.6867
vn 0.0773 0.7464 -0.6610
vn -0.0724 0.7361 0.6729
vn 0.1161 0.0000 -0.9932
vn -0.9932 0.0000 -0.1161
vn 0.9932 0.0001 0.1161
vn 0.0000 1.0000 0.0000
vn -0.1161 0.0000 0.9932
vn 0.9932 0.0000 0.1165
vn -0.1180 0.0000 0.9930
vn 0.9932 0.0000 0.1161
vn 0.1162 0.0000 -0.9932
vn -0.1069 0.0000 0.9943
vn -0.9933 0.0000 -0.1153
usemtl None
s off
f 1//1 5//1 10//1 2//1
f 2//2 10//2 7//2 3//2
f 7//3 6//3 9//3 10//3
f 9//4 12//4 11//4 8//4 10//4
f 8//5 4//5 5//5 10//5
f 1//6 2//6 3//6
f 6//7 9//7 12//7
f 11//8 8//8 4//8
f 13//9 14//9 15//9 16//9 17//9 18//9 19//9 20//9
f 1//10 13//10 14//10 3//10
f 3//11 14//11 15//11 7//11
f 7//12 15//12 16//12 6//12
f 6//13 16//13 17//13 12//13
f 12//14 17//14 18//14 11//14
f 11//7 18//7 19//7 4//7
f 4//15 19//15 20//15 5//15
f 5//16 20//16 13//16 1//16
