# Blender v2.92.0 OBJ File: ''
# www.blender.org
mtllib CG10_500_039058_0030_roof.mtl
o CG10_500_039058_0030_roof
v 188.438065 75.000000 -15.173966
v 351.666290 75.000000 -91.143051
v 87.998566 75.000000 -57.641792
v 154.316956 75.000000 -88.508171
v 233.482437 145.000000 -132.868973
v 205.038696 144.994873 -193.985504
v 193.064545 138.071182 -198.503983
v 129.002640 138.068192 -168.683441
v 247.161514 75.000000 -315.633392
v 17.654799 75.000000 -208.783401
v 188.438065 0.000000 -15.173966
v 351.666290 0.000000 -91.143051
v 247.161514 0.000000 -315.633392
v 17.654799 0.000000 -208.783401
v 87.998566 0.000000 -57.641792
v 154.316956 0.000000 -88.508171
vt 0.510670 0.954020
vt 0.418200 0.731790
vt 0.523210 0.398470
vt 0.555660 0.412170
vt 0.632740 0.597370
vt 0.953030 0.723810
vt 0.669810 0.043535
vt 0.238480 0.825330
vt 0.349600 0.488840
vt 0.047845 0.367320
vn 0.5548 -0.7910 -0.2581
vn 0.2632 0.7816 0.5656
vn 0.5584 0.7878 -0.2599
vn 0.2546 0.7975 0.5470
vn 0.5442 -0.7998 -0.2533
vn 0.2547 -0.7974 0.5470
usemtl None
s off
f 1/1/1 4/2/1 7/3/1 6/4/1 5/5/1
f 1/1/2 2/6/2 5/5/2
f 2/6/3 9/7/3 6/4/3 5/5/3
f 3/8/4 4/2/4 7/3/4 8/9/4
f 3/8/5 10/10/5 8/9/5
f 8/9/6 10/10/6 9/7/6 6/4/6 7/3/6
