# Blender v2.92.0 OBJ File: ''
# www.blender.org
mtllib CG10_500_048075_0034_roof.mtl
o CG10_500_048075_0034_roof
v 22.834879 75.000000 -176.932419
v 13.792807 75.000000 -24.173405
v 18.180635 145.000000 -98.376900
v 282.447357 75.000000 -8.328950
v 286.832001 144.812469 -82.333153
v 291.464661 75.000000 -160.678772
v 22.834879 0.000000 -176.932419
v 13.792807 0.000000 -24.173405
v 282.447357 0.000000 -8.328950
v 291.464661 0.000000 -160.678772
vt 0.059028 0.468230
vt 0.931270 0.554960
vt 0.917040 0.954980
vt 0.044782 0.869330
vt 0.074139 0.043609
vt 0.946310 0.131470
vn 0.0404 -0.7280 -0.6844
vn -0.0401 -0.7472 0.6634
vn 0.9983 0.0001 0.0591
vn -0.9983 0.0001 -0.0591
usemtl None
s off
f 3/1/1 5/2/1 4/3/1 2/4/1
f 3/1/2 1/5/2 6/6/2 5/2/2
f 1/5/3 3/1/3 2/4/3
f 4/3/4 5/2/4 6/6/4
