# Blender v2.92.0 OBJ File: ''
# www.blender.org
mtllib CG10_500_044066_0021.mtl
o CG10_500_044066_0021
v 180.304306 75.000000 -14.447621
v 92.414040 145.000000 -19.614723
v 12.260949 75.000000 -24.342632
v 248.583313 75.000000 -134.196594
v 186.978531 75.000000 -137.864685
v 103.341789 144.605743 -212.503555
v 109.946831 139.606125 -218.193039
v 172.340866 139.621490 -214.495972
v 257.643585 75.000000 -288.038177
v 28.616068 75.000000 -301.540283
v 180.304306 0.000000 -14.447621
v 12.260949 0.000000 -24.342632
v 28.616068 0.000000 -301.540283
v 257.643585 0.000000 -288.038177
v 248.583313 0.000000 -134.196594
v 186.978531 0.000000 -137.864685
vn 0.6560 -0.7538 0.0387
vn 0.0374 0.7718 -0.6348
vn -0.6214 -0.7827 -0.0336
vn -0.6234 -0.7811 -0.0367
vn 0.0386 -0.7603 -0.6485
vn -0.0588 -0.0001 0.9983
vn 0.0000 -1.0000 0.0000
vn 0.0588 0.0000 -0.9983
vn 0.9983 0.0000 0.0589
vn -0.0589 0.0000 0.9983
vn -0.9983 0.0000 -0.0588
vn 0.0594 0.0000 -0.9982
vn -0.9985 0.0000 -0.0540
usemtl None
s off
f 2//1 3//1 10//1 6//1
f 7//2 8//2 9//2 10//2 6//2
f 5//3 1//3 2//3 6//3 7//3
f 9//4 4//4 8//4
f 4//5 5//5 7//5 8//5
f 1//6 2//6 3//6
f 11//7 12//7 13//7 14//7 15//7 16//7
f 1//8 11//8 12//8 3//8
f 3//9 12//9 13//9 10//9
f 10//10 13//10 14//10 9//10
f 9//11 14//11 15//11 4//11
f 4//12 15//12 16//12 5//12
f 5//13 16//13 11//13 1//13
