# Blender v2.92.0 OBJ File: ''
# www.blender.org
mtllib CG10_500_033059_0024.mtl
o CG10_500_033059_0024
v 28.052002 75.000000 -322.397125
v 19.587788 75.000000 -156.426224
v 108.964661 132.068329 -235.004684
v 121.627205 132.068359 -234.358612
v 132.754807 123.604279 -221.460098
v 132.696060 75.000000 -23.894880
v 139.137787 75.000000 -150.326248
v 206.469788 75.000000 -313.294647
v 205.049911 75.000000 -289.296295
v 217.270676 123.588387 -217.124542
v 222.252182 130.688141 -100.579704
v 225.579208 130.754013 -163.890411
v 248.507492 144.995804 -183.993225
v 294.730927 75.000000 -15.631731
v 298.033142 75.000000 -76.794228
v 313.583496 145.000000 -180.630722
v 415.315277 75.000000 -278.451752
v 404.749451 75.000000 -71.269852
v 28.052002 0.000000 -322.397125
v 19.587788 0.000000 -156.426224
v 139.137787 0.000000 -150.326248
v 132.696060 0.000000 -23.894880
v 294.730927 0.000000 -15.631731
v 298.033142 0.000000 -76.794228
v 404.749451 0.000000 -71.269852
v 415.315277 0.000000 -278.451752
v 205.049911 0.000000 -289.296295
v 206.469788 0.000000 -313.294647
vn -0.0289 0.8241 0.5657
vn -0.5449 0.8380 -0.0278
vn -0.0288 0.8245 0.5651
vn 0.5854 0.8101 0.0316
vn -0.0288 0.8308 0.5558
vn 0.5859 0.8098 0.0299
vn 0.0290 0.8269 -0.5616
vn 0.5796 0.8142 0.0343
vn 0.0288 0.8245 -0.5651
vn -0.5555 0.8310 -0.0283
vn 0.0000 1.0000 0.0000
vn -0.9987 0.0000 -0.0509
vn -0.0510 0.0000 0.9987
vn -0.0509 0.0000 0.9987
vn 0.9985 0.0000 0.0539
vn -0.0517 0.0000 0.9987
vn 0.9987 0.0000 0.0509
vn 0.0515 0.0000 -0.9987
vn 0.9983 0.0000 0.0591
vn 0.0510 0.0000 -0.9987
usemtl None
s off
f 2//1 7//1 10//1 5//1 4//1 3//1
f 7//2 6//2 11//2 12//2 13//2 10//2
f 6//3 14//3 11//3
f 14//4 15//4 12//4 11//4
f 15//5 18//5 16//5 13//5 12//5
f 18//6 17//6 16//6
f 17//7 9//7 5//7 10//7 13//7 16//7
f 9//8 8//8 4//8 5//8
f 8//9 1//9 3//9 4//9
f 1//10 2//10 3//10
f 19//11 20//11 21//11 22//11 23//11 24//11 25//11 26//11 27//11 28//11
f 1//12 19//12 20//12 2//12
f 2//13 20//13 21//13 7//13
f 7//12 21//12 22//12 6//12
f 6//14 22//14 23//14 14//14
f 14//15 23//15 24//15 15//15
f 15//16 24//16 25//16 18//16
f 18//17 25//17 26//17 17//17
f 17//18 26//18 27//18 9//18
f 9//19 27//19 28//19 8//19
f 8//20 28//20 19//20 1//20
