# Blender v2.92.0 OBJ File: ''
# www.blender.org
mtllib CG10_500_042072_0002_roof.mtl
o CG10_500_042072_0002_roof
v 182.844635 75.000000 -21.305916
v 303.474274 75.000000 -123.101807
v 395.988617 75.000000 -297.448578
v 255.540100 75.000000 -179.907501
v 134.492386 75.000000 -78.602928
v 337.041321 145.000000 -367.309937
v 75.997581 144.456589 -147.917618
v 279.366730 75.000000 -435.649170
v 18.775478 75.000000 -215.730301
v 182.844635 0.000000 -21.305916
v 303.474274 0.000000 -123.101807
v 255.540100 0.000000 -179.907501
v 395.988617 0.000000 -297.448578
v 279.366730 0.000000 -435.649170
v 18.775478 0.000000 -215.730301
v 134.492386 0.000000 -78.602928
vt 0.183570 0.676330
vt 0.045351 0.527940
vt 0.674800 0.046720
vt 0.814110 0.196260
vt 0.324860 0.828000
vt 0.617250 0.606330
vt 0.956490 0.349130
vt 0.441650 0.953380
vt 0.733030 0.730630
vn 0.3975 -0.7874 0.4711
vn 0.3902 0.7939 0.4663
vn 0.0000 1.0000 -0.0000
vn -0.7643 0.0001 0.6449
vn 0.7642 0.0000 -0.6449
usemtl None
s off
f 7/1/1 9/2/1 8/3/1 6/4/1
f 7/1/2 5/5/2 4/6/2 3/7/2 6/4/2
f 5/5/3 1/8/3 2/9/3 4/6/3
f 3/7/4 6/4/4 8/3/4
f 9/2/5 7/1/5 5/5/5
