# Blender v2.92.0 OBJ File: ''
# www.blender.org
mtllib CG10_500_035059_0002.mtl
o CG10_500_035059_0002
v 289.860962 75.000000 -273.966888
v 125.987045 75.000000 -282.133911
v 123.152954 75.000000 -230.801895
v 92.828819 75.000000 -233.080444
v 286.090393 75.000000 -210.518143
v 387.413147 75.000000 -205.465500
v 207.546677 133.957672 -197.207703
v 204.572922 133.879196 -145.425308
v 189.086441 145.000000 -131.618958
v 188.517502 144.935440 -120.612465
v 88.089325 75.000000 -123.515305
v 22.516531 75.000000 -126.475662
v 135.174454 109.269737 -72.930290
v 69.397545 109.165764 -76.046890
v 377.800354 75.000000 -12.550561
v 274.629089 75.000000 -17.652937
v 17.728527 75.000000 -30.398287
v 289.860962 0.000000 -273.966888
v 125.987045 0.000000 -282.133911
v 123.152954 0.000000 -230.801895
v 92.828819 0.000000 -233.080444
v 88.089325 0.000000 -123.515305
v 22.516531 0.000000 -126.475662
v 17.728527 0.000000 -30.398287
v 274.629089 0.000000 -17.652937
v 377.800354 0.000000 -12.550561
v 387.413147 0.000000 -205.465500
v 286.090393 0.000000 -210.518143
vn -0.5686 0.8221 -0.0283
vn 0.0261 0.8162 -0.5772
vn -0.5708 0.8207 -0.0247
vn 0.0448 0.8019 -0.5957
vn 0.5641 -0.8251 0.0311
vn -0.0293 -0.8077 0.5889
vn -0.0287 0.8156 0.5780
vn -0.6038 -0.7963 -0.0359
vn 0.0000 -1.0000 -0.0000
vn 0.0000 1.0000 0.0000
vn 0.0498 0.0000 -0.9988
vn -0.9985 0.0000 -0.0551
vn 0.0749 0.0000 -0.9972
vn -0.9991 0.0000 -0.0432
vn 0.0451 0.0000 -0.9990
vn -0.9988 0.0000 -0.0498
vn -0.0496 0.0000 0.9988
vn -0.0494 0.0000 0.9988
vn 0.9988 0.0000 0.0498
vn 0.9982 0.0000 0.0593
usemtl None
s off
f 17//1 14//1 12//1
f 12//2 14//2 13//2 11//2
f 11//3 13//3 10//3 9//3 4//3
f 9//4 8//4 3//4 4//4
f 8//5 3//5 2//5 7//5
f 7//6 2//6 1//6
f 17//7 16//7 10//7 13//7 14//7
f 1//8 5//8 16//8 10//8 9//8 8//8 7//8
f 5//9 6//9 15//9 16//9
f 18//10 19//10 20//10 21//10 22//10 23//10 24//10 25//10 26//10 27//10 28//10
f 1//11 18//11 19//11 2//11
f 2//12 19//12 20//12 3//12
f 3//13 20//13 21//13 4//13
f 4//14 21//14 22//14 11//14
f 11//15 22//15 23//15 12//15
f 12//16 23//16 24//16 17//16
f 17//17 24//17 25//17 16//17
f 16//18 25//18 26//18 15//18
f 15//19 26//19 27//19 6//19
f 6//11 27//11 28//11 5//11
f 5//20 28//20 18//20 1//20
