# Blender v2.92.0 OBJ File: ''
# www.blender.org
mtllib CG10_500_037056_0010_roof.mtl
o CG10_500_037056_0010_roof
v 335.634552 75.000000 -77.380325
v 347.213623 75.000000 -254.113724
v 244.124359 145.000000 -171.768478
v 207.350082 75.000000 -12.684940
v 212.415649 75.000000 -86.317024
v 201.418396 144.880859 -174.716461
v 168.776199 113.158562 -217.229752
v 157.786682 112.189018 -65.729637
v 162.531693 112.283798 -136.673508
v 113.194725 75.000000 -18.852209
v 123.192329 75.000000 -171.739487
v 59.706043 113.191437 -224.329742
v 14.368401 75.000000 -178.781830
v 20.703459 75.000000 -275.493378
v 335.634552 0.000000 -77.380325
v 347.213623 0.000000 -254.113724
v 20.703459 0.000000 -275.493378
v 14.368401 0.000000 -178.781830
v 123.192329 0.000000 -171.739487
v 113.194725 0.000000 -18.852209
v 207.350082 0.000000 -12.684940
v 212.415649 0.000000 -86.317024
vt 0.310970 0.934540
vt 0.569640 0.955960
vt 0.433480 0.771770
vt 0.583560 0.700290
vt 0.446520 0.525440
vt 0.922070 0.731320
vt 0.670670 0.403580
vt 0.553350 0.393350
vt 0.953880 0.117660
vt 0.039474 0.379230
vt 0.164030 0.221080
vt 0.056878 0.043426
vt 0.463670 0.245730
vt 0.338440 0.403680
vn -0.0392 0.8006 0.5979
vn 0.5724 0.8190 0.0394
vn -0.0452 0.7809 0.6230
vn 0.5820 0.8123 0.0381
vn -0.6690 0.7419 -0.0438
vn 0.0404 0.7857 -0.6173
vn -0.0400 0.7849 0.6183
vn 0.6665 -0.7442 0.0436
usemtl None
s off
f 10/1/1 4/2/1 8/3/1
f 5/4/2 9/5/2 8/3/2 4/2/2
f 5/4/3 1/6/3 3/7/3 6/8/3 9/5/3
f 1/6/4 2/9/4 3/7/4
f 13/10/5 12/11/5 14/12/5
f 14/12/6 12/11/6 7/13/6 6/8/6 3/7/6 2/9/6
f 13/10/7 11/14/7 7/13/7 12/11/7
f 10/1/8 11/14/8 7/13/8 6/8/8 9/5/8 8/3/8
