# Blender v2.92.0 OBJ File: ''
# www.blender.org
mtllib CG10_500_034060_0008_roof.mtl
o CG10_500_034060_0008_roof
v 386.133820 75.000000 -206.335358
v 375.783508 75.000000 -32.358135
v 290.321899 145.000000 -121.117249
v 271.144562 75.000000 -38.702385
v 269.229340 75.000000 -10.503587
v 188.018341 144.951416 -127.261887
v 180.925751 144.574127 -15.753780
v 95.161346 75.000000 -20.858248
v 99.360687 75.000000 -91.529976
v 107.167870 75.000000 -222.918762
v 106.529007 75.000000 -212.167145
v 18.367405 75.000000 -96.348412
v 25.544306 75.000000 -216.985077
v 386.133820 0.000000 -206.335358
v 375.783508 0.000000 -32.358135
v 271.144562 0.000000 -38.702385
v 269.229340 0.000000 -10.503587
v 95.161346 0.000000 -20.858248
v 99.360687 0.000000 -91.529976
v 18.367405 0.000000 -96.348412
v 25.544306 0.000000 -216.985077
v 106.529007 0.000000 -212.167145
v 107.167870 0.000000 -222.918762
vt 0.045464 0.586490
vt 0.245940 0.607170
vt 0.263690 0.089411
vt 0.063228 0.068734
vt 0.235550 0.910480
vt 0.447840 0.932390
vt 0.465390 0.453810
vt 0.265270 0.043267
vt 0.718620 0.480180
vt 0.955780 0.114440
vt 0.930160 0.861120
vt 0.666410 0.954920
vt 0.671150 0.833900
vn 0.0000 1.0000 -0.0000
vn -0.6282 0.7771 -0.0373
vn 0.0362 0.7918 -0.6097
vn 0.6104 0.7913 0.0363
vn 0.6168 0.7860 0.0419
vn -0.0389 0.7661 0.6416
vn -0.0594 -0.0000 0.9982
usemtl None
s off
f 12/1/1 9/2/1 11/3/1 13/4/1
f 9/2/2 8/5/2 7/6/2 6/7/2 10/8/2 11/3/2
f 10/8/3 6/7/3 3/9/3 1/10/3
f 1/10/4 3/9/4 2/11/4
f 6/7/5 7/6/5 5/12/5 4/13/5
f 4/13/6 2/11/6 3/9/6 6/7/6
f 5/12/7 7/6/7 8/5/7
