# Blender v2.92.0 OBJ File: ''
# www.blender.org
mtllib CG10_500_038071_0037_roof.mtl
o CG10_500_038071_0037_roof
v 15.819922 75.000000 -79.481293
v 111.483040 75.000000 -38.953560
v 126.904182 75.000000 -75.315315
v 280.092163 75.000000 -10.817450
v 85.368759 117.542923 -106.748199
v 101.572510 117.548988 -144.973724
v 147.014099 145.000000 -163.901077
v 234.382782 144.909637 -126.990303
v 99.979164 75.000000 -278.118896
v 348.676331 75.000000 -172.705002
v 15.819922 0.000000 -79.481293
v 111.483040 0.000000 -38.953560
v 126.904182 0.000000 -75.315315
v 280.092163 0.000000 -10.817450
v 348.676331 0.000000 -172.705002
v 99.979164 0.000000 -278.118896
vt 0.273920 0.047538
vt 0.402780 0.438690
vt 0.642140 0.565100
vt 0.955280 0.408540
vt 0.278280 0.503510
vt 0.233890 0.634420
vt 0.043342 0.727800
vt 0.305430 0.866600
vt 0.347680 0.742070
vt 0.767380 0.962950
vn 0.2450 0.7784 -0.5780
vn 0.5737 -0.7821 0.2431
vn -0.2463 0.7754 0.5815
vn 0.5931 0.7649 0.2515
vn 0.2391 -0.7875 -0.5680
vn -0.5751 -0.7809 -0.2437
usemtl None
s off
f 9/1/1 7/2/1 8/3/1 10/4/1
f 9/1/2 7/2/2 6/5/2 5/6/2 1/7/2
f 5/6/3 1/7/3 2/8/3
f 6/5/4 5/6/4 2/8/4 3/9/4
f 3/9/5 6/5/5 7/2/5 8/3/5 4/10/5
f 8/3/6 10/4/6 4/10/6
