# Blender v2.92.0 OBJ File: ''
# www.blender.org
mtllib CG10_500_039058_0024.mtl
o CG10_500_039058_0024
v 11.007150 75.000000 -23.323545
v 187.817032 75.000000 -14.269252
v 105.675148 144.979507 -106.583168
v 193.050278 75.000000 -115.752197
v 222.695679 75.000000 -114.230545
v 227.382996 145.000000 -205.757996
v 111.078094 144.994614 -211.720642
v 231.732269 75.000000 -290.694550
v 25.239017 75.000000 -301.269257
v 11.007150 0.000000 -23.323545
v 187.817032 0.000000 -14.269252
v 193.050278 0.000000 -115.752197
v 222.695679 0.000000 -114.230545
v 231.732269 0.000000 -290.694550
v 25.239017 0.000000 -301.269257
vn 0.6118 -0.7904 0.0313
vn 0.0318 -0.7827 -0.6216
vn -0.6269 -0.7785 -0.0323
vn 0.0311 -0.7947 -0.6062
vn -0.0325 -0.7721 0.6347
vn -0.9987 0.0000 -0.0511
vn 0.0000 1.0000 0.0000
vn -0.0511 0.0000 0.9987
vn 0.9987 0.0000 0.0515
vn -0.0513 0.0000 0.9987
vn 0.9987 0.0000 0.0511
vn 0.0511 0.0000 -0.9987
usemtl None
s off
f 1//1 9//1 7//1 3//1
f 1//2 3//2 2//2
f 2//3 3//3 7//3 4//3
f 4//4 7//4 6//4 5//4
f 6//5 7//5 9//5 8//5
f 5//6 6//6 8//6
f 10//7 11//7 12//7 13//7 14//7 15//7
f 1//8 10//8 11//8 2//8
f 2//9 11//9 12//9 4//9
f 4//10 12//10 13//10 5//10
f 5//11 13//11 14//11 8//11
f 8//12 14//12 15//12 9//12
f 9//6 15//6 10//6 1//6
