# Blender v2.92.0 OBJ File: ''
# www.blender.org
mtllib CG10_500_041072_0003.mtl
o CG10_500_041072_0003
v 22.907881 75.000000 -241.266098
v 286.974548 75.000000 -224.203247
v 198.774368 145.000000 -143.869751
v 104.822250 144.919434 -150.039566
v 231.061890 115.662827 -105.150711
v 228.405472 115.738571 -65.430237
v 11.781240 75.000000 -69.105278
v 178.272980 75.000000 -57.993866
v 273.213409 75.000000 -11.237012
v 175.474564 75.000000 -17.554449
v 22.907881 0.000000 -241.266098
v 286.974548 0.000000 -224.203247
v 273.213409 0.000000 -11.237012
v 175.474564 0.000000 -17.554449
v 178.272980 0.000000 -57.993866
v 11.781240 0.000000 -69.105278
vn -0.6224 0.7817 -0.0402
vn -0.0407 -0.7750 0.6306
vn -0.6441 -0.7638 -0.0416
vn 0.0402 -0.7825 -0.6214
vn 0.0417 -0.7793 -0.6253
vn -0.6340 0.7721 -0.0439
vn 0.0000 -1.0000 0.0000
vn -0.0645 0.0000 0.9979
vn -0.9979 0.0000 -0.0645
vn 0.0645 0.0000 -0.9979
vn 0.9976 0.0000 0.0690
vn 0.0666 0.0000 -0.9978
vn 0.9979 0.0000 0.0645
usemtl None
s off
f 7//1 4//1 1//1
f 2//2 3//2 4//2 1//2
f 9//3 6//3 5//3 3//3 2//3
f 10//4 6//4 9//4
f 7//5 4//5 3//5 5//5 8//5
f 10//6 6//6 5//6 8//6
f 11//7 12//7 13//7 14//7 15//7 16//7
f 1//8 11//8 12//8 2//8
f 2//9 12//9 13//9 9//9
f 9//10 13//10 14//10 10//10
f 10//11 14//11 15//11 8//11
f 8//12 15//12 16//12 7//12
f 7//13 16//13 11//13 1//13
