# Blender v2.92.0 OBJ File: ''
# www.blender.org
mtllib CG10_500_048077_0041_roof.mtl
o CG10_500_048077_0041_roof
v 211.647064 75.000000 -413.865295
v 260.020691 75.000000 -318.066498
v 189.659729 121.372192 -339.813385
v 210.078217 75.000000 -292.809357
v 310.643677 75.000000 -93.849304
v 139.432785 121.376724 -314.417999
v 128.143616 144.929977 -276.744354
v 206.040817 145.000000 -122.453087
v 165.587128 75.000000 -20.603100
v 16.913427 75.000000 -315.429230
v 211.647064 0.000000 -413.865295
v 260.020691 0.000000 -318.066498
v 210.078217 0.000000 -292.809357
v 310.643677 0.000000 -93.849304
v 165.587128 0.000000 -20.603100
v 16.913427 0.000000 -315.429230
vt 0.511070 0.952530
vt 0.635930 0.717850
vt 0.958780 0.783760
vt 0.395500 0.362340
vt 0.430350 0.275530
vt 0.648390 0.325320
vt 0.585370 0.217020
vt 0.802530 0.267130
vt 0.653230 0.046393
vt 0.052202 0.273200
vn -0.3127 -0.7203 -0.6192
vn -0.5858 -0.7544 0.2961
vn -0.3031 -0.7409 -0.5993
vn -0.5878 -0.7526 0.2968
vn 0.2872 -0.7712 0.5682
vn -0.5798 0.7605 0.2924
usemtl None
s off
f 9/1/1 8/2/1 5/3/1
f 5/3/2 8/2/2 7/4/2 6/5/2 4/6/2
f 4/6/3 6/5/3 3/7/3 2/8/3
f 2/8/4 3/7/4 1/9/4
f 1/9/5 3/7/5 6/5/5 7/4/5 10/10/5
f 9/1/6 8/2/6 7/4/6 10/10/6
