# Blender v2.92.0 OBJ File: ''
# www.blender.org
mtllib CG10_500_049072_0018.mtl
o CG10_500_049072_0018
v 269.819122 75.000000 -14.687301
v 155.442520 75.000000 -21.685677
v 217.144989 121.548676 -75.502686
v 12.938455 75.000000 -108.093155
v 160.333511 75.000000 -99.021538
v 221.912689 121.486908 -152.112198
v 106.706680 145.000000 -187.972931
v 195.426880 144.875977 -182.360764
v 225.800613 121.185997 -209.629669
v 228.521042 120.736427 -245.147659
v 23.444342 75.000000 -279.790863
v 171.145462 75.000000 -270.192841
v 287.262787 75.000000 -299.450195
v 174.510254 75.000000 -306.328033
v 269.819122 0.000000 -14.687301
v 155.442520 0.000000 -21.685677
v 160.333511 0.000000 -99.021538
v 12.938455 0.000000 -108.093155
v 23.444342 0.000000 -279.790863
v 171.145462 0.000000 -270.192841
v 174.510254 0.000000 -306.328033
v 287.262787 0.000000 -299.450195
vn 0.6183 -0.7850 0.0378
vn -0.0389 0.7737 0.6323
vn 0.0409 0.7764 -0.6290
vn -0.6071 0.7926 -0.0565
vn -0.0378 -0.7841 0.6195
vn -0.6361 -0.7707 -0.0390
vn 0.0384 -0.7772 -0.6281
vn 0.6235 -0.7809 0.0394
vn 0.0000 -1.0000 0.0000
vn 0.0611 0.0000 -0.9981
vn 0.9980 0.0000 0.0631
vn 0.0614 0.0000 -0.9981
vn 0.9981 0.0000 0.0611
vn -0.0648 0.0000 0.9979
vn 0.9957 0.0000 0.0927
vn -0.0609 0.0000 0.9981
vn -0.9981 0.0000 -0.0611
usemtl None
s off
f 4//1 11//1 7//1
f 4//2 5//2 6//2 8//2 7//2
f 8//3 9//3 12//3 11//3 7//3
f 9//4 10//4 14//4 12//4
f 14//5 13//5 10//5
f 13//6 1//6 3//6 6//6 8//6 9//6 10//6
f 1//7 2//7 3//7
f 2//8 5//8 6//8 3//8
f 15//9 16//9 17//9 18//9 19//9 20//9 21//9 22//9
f 1//10 15//10 16//10 2//10
f 2//11 16//11 17//11 5//11
f 5//12 17//12 18//12 4//12
f 4//13 18//13 19//13 11//13
f 11//14 19//14 20//14 12//14
f 12//15 20//15 21//15 14//15
f 14//16 21//16 22//16 13//16
f 13//17 22//17 15//17 1//17
