# Blender v2.92.0 OBJ File: ''
# www.blender.org
mtllib CG10_500_045072_0040.mtl
o CG10_500_045072_0040
v 242.605408 75.000000 -318.122803
v 310.505005 75.000000 -296.148865
v 233.696304 75.000000 -290.593628
v 227.510513 75.000000 -292.595490
v 335.443176 75.000000 -253.717270
v 225.723679 75.000000 -289.225403
v 300.439209 75.000000 -265.045471
v 71.119446 75.000000 -339.259430
v 226.676270 144.964142 -198.986572
v 131.706635 145.000000 -229.675171
v 246.291992 119.256622 -156.220261
v 15.661319 75.000000 -167.893173
v 171.451385 75.000000 -117.634354
v 224.450745 119.238731 -88.662354
v 150.081543 75.000000 -51.458195
v 258.616119 75.000000 -16.333824
v 242.605408 0.000000 -318.122803
v 310.505005 0.000000 -296.148865
v 300.439209 0.000000 -265.045471
v 335.443176 0.000000 -253.717270
v 258.616119 0.000000 -16.333824
v 150.081543 0.000000 -51.458195
v 171.451385 0.000000 -117.634354
v 15.661319 0.000000 -167.893173
v 71.119446 0.000000 -339.259430
v 225.723679 0.000000 -289.225403
v 227.510513 0.000000 -292.595490
v 233.696304 0.000000 -290.593628
vn -0.5786 0.7939 -0.1872
vn -0.1861 0.7966 0.5751
vn 0.5978 0.7780 0.1935
vn -0.1949 -0.7741 0.6023
vn 0.0000 -1.0000 0.0000
vn -0.5688 0.8017 -0.1837
vn -0.1828 0.8033 0.5668
vn -0.3079 0.0000 0.9514
vn -0.9514 0.0000 -0.3079
vn 0.3079 0.0000 -0.9514
vn 0.9516 0.0000 0.3073
vn 0.3070 0.0000 -0.9517
vn 0.9514 0.0000 0.3079
vn 0.8835 0.0000 0.4684
usemtl None
s off
f 12//1 10//1 8//1
f 15//2 16//2 14//2
f 16//3 5//3 9//3 11//3 14//3
f 8//4 6//4 7//4 5//4 9//4 10//4
f 6//5 4//5 3//5 1//5 2//5 7//5
f 13//6 15//6 14//6 11//6
f 12//7 13//7 11//7 9//7 10//7
f 17//5 18//5 19//5 20//5 21//5 22//5 23//5 24//5 25//5 26//5 27//5 28//5
f 1//8 17//8 18//8 2//8
f 2//9 18//9 19//9 7//9
f 7//8 19//8 20//8 5//8
f 5//9 20//9 21//9 16//9
f 16//10 21//10 22//10 15//10
f 15//11 22//11 23//11 13//11
f 13//12 23//12 24//12 12//12
f 12//13 24//13 25//13 8//13
f 8//8 25//8 26//8 6//8
f 6//14 26//14 27//14 4//14
f 4//8 27//8 28//8 3//8
f 3//13 28//13 17//13 1//13
