# Blender v2.92.0 OBJ File: ''
# www.blender.org
mtllib CG10_500_039058_0029.mtl
o CG10_500_039058_0029
v 411.998962 75.000000 -164.099548
v 107.565895 75.000000 -296.509399
v 149.929367 144.997147 -189.143723
v 304.730530 145.000000 -121.811035
v 113.644341 121.422569 -174.661728
v 346.616272 75.000000 -13.724051
v 141.772507 75.000000 -102.828247
v 89.994507 121.292107 -120.646385
v 119.348946 75.000000 -51.975025
v 20.026270 75.000000 -95.159203
v 411.998962 0.000000 -164.099548
v 107.565895 0.000000 -296.509399
v 20.026270 0.000000 -95.159203
v 119.348946 0.000000 -51.975025
v 141.772507 0.000000 -102.828247
v 346.616272 0.000000 -13.724051
vn 0.5968 -0.7592 0.2595
vn 0.2672 -0.7422 -0.6146
vn 0.2582 -0.7622 -0.5937
vn -0.5975 -0.7586 -0.2598
vn 0.5919 0.7626 0.2610
vn -0.2598 -0.7588 0.5972
vn 0.0000 1.0000 0.0000
vn 0.3988 0.0000 -0.9170
vn -0.9171 0.0000 -0.3987
vn -0.3987 0.0000 0.9171
vn 0.9150 0.0000 0.4035
vn -0.3989 0.0000 0.9170
vn 0.9171 0.0000 0.3987
usemtl None
s off
f 10//1 2//1 3//1 5//1 8//1
f 10//2 8//2 9//2
f 6//3 7//3 5//3 3//3 4//3
f 6//4 4//4 1//4
f 9//5 7//5 5//5 8//5
f 2//6 1//6 4//6 3//6
f 11//7 12//7 13//7 14//7 15//7 16//7
f 1//8 11//8 12//8 2//8
f 2//9 12//9 13//9 10//9
f 10//10 13//10 14//10 9//10
f 9//11 14//11 15//11 7//11
f 7//12 15//12 16//12 6//12
f 6//13 16//13 11//13 1//13
