# Blender v2.92.0 OBJ File: ''
# www.blender.org
mtllib CG10_500_038071_0025_roof.mtl
o CG10_500_038071_0025_roof
v 258.870880 75.000000 -254.781525
v 242.525757 75.000000 -14.481264
v 214.239822 75.000000 -257.649536
v 218.369186 75.000000 -319.919434
v 133.761490 144.999969 -139.896805
v 134.101212 145.000000 -144.892075
v 113.712334 131.569763 -168.824005
v 118.008759 131.537308 -232.794144
v 11.551681 75.000000 -30.193083
v 32.113018 75.000000 -332.589447
v 258.870880 0.000000 -254.781525
v 242.525757 0.000000 -14.481264
v 11.551681 0.000000 -30.193083
v 32.113018 0.000000 -332.589447
v 218.369186 0.000000 -319.919434
v 214.239822 0.000000 -257.649536
vt 0.042626 0.913240
vt 0.894930 0.958390
vt 0.493580 0.598000
vt 0.494840 0.583640
vt 0.955240 0.267870
vt 0.419600 0.514870
vt 0.790550 0.259630
vt 0.435460 0.331050
vt 0.805790 0.080691
vt 0.118500 0.044283
vn -0.0347 0.8596 0.5098
vn -0.5122 -0.8582 -0.0348
vn -0.0328 -0.8594 0.5102
vn -0.5128 -0.8578 -0.0340
vn -0.0351 -0.8563 0.5153
vn 0.5204 -0.8532 0.0354
usemtl None
s off
f 9/1/1 2/2/1 5/3/1
f 5/3/2 6/4/2 1/5/2 2/2/2
f 6/4/3 7/6/3 3/7/3 1/5/3
f 7/6/4 8/8/4 4/9/4 3/7/4
f 8/8/5 10/10/5 4/9/5
f 9/1/6 10/10/6 8/8/6 7/6/6 6/4/6 5/3/6
