# Blender v2.92.0 OBJ File: ''
# www.blender.org
mtllib CG10_500_045074_0012.mtl
o CG10_500_045074_0012
v 16.032188 75.000000 -82.520996
v 118.890320 75.000000 -328.714691
v 161.381424 144.995300 -216.009552
v 124.373520 145.000000 -127.415489
v 210.124817 115.905617 -235.111343
v 222.234512 75.000000 -126.852364
v 240.592773 75.339867 -171.948257
v 175.839828 75.000000 -15.766912
v 271.551575 115.770912 -209.634506
v 299.282562 75.341896 -147.769775
v 336.756409 75.000000 -237.706635
v 280.316437 75.000000 -102.590714
v 16.032188 0.000000 -82.520996
v 118.890320 0.000000 -328.714691
v 336.756409 0.000000 -237.706635
v 280.316437 0.000000 -102.590714
v 222.234512 0.000000 -126.852364
v 175.839828 0.000000 -15.766912
vn -0.2482 0.7651 0.5941
vn 0.5871 0.7726 0.2417
vn -0.2406 -0.7813 0.5759
vn -0.2495 0.7556 0.6056
vn -0.5963 0.7631 -0.2491
vn 0.5645 0.7911 0.2358
vn -0.0027 1.0000 0.0064
vn 0.8943 -0.2462 0.3736
vn 0.0000 -1.0000 0.0000
vn 0.9227 0.0000 0.3855
vn -0.3854 0.0000 0.9227
vn -0.9227 0.0000 -0.3854
vn 0.3854 0.0000 -0.9227
vn -0.9228 0.0000 -0.3854
usemtl None
s off
f 1//1 8//1 4//1
f 10//2 11//2 9//2
f 3//3 2//3 11//3 9//3 5//3
f 7//4 10//4 9//4 5//4
f 1//5 4//5 3//5 2//5
f 8//6 6//6 7//6 5//6 3//6 4//6
f 6//7 12//7 10//7 7//7
f 11//8 10//8 12//8
f 13//9 14//9 15//9 16//9 17//9 18//9
f 1//10 13//10 14//10 2//10
f 2//11 14//11 15//11 11//11
f 11//12 15//12 16//12 12//12
f 12//13 16//13 17//13 6//13
f 6//14 17//14 18//14 8//14
f 8//13 18//13 13//13 1//13
