# Blender v2.92.0 OBJ File: ''
# www.blender.org
mtllib CG10_500_039056_0017_roof.mtl
o CG10_500_039056_0017_roof
v 137.235626 75.000000 -263.480225
v 149.166885 75.000000 -18.660671
v 83.667900 145.000000 -15.560118
v 71.962563 144.758041 -260.400055
v 20.011515 75.000000 -12.556067
v 8.526630 75.000000 -257.397369
v 137.235626 0.000000 -263.480225
v 149.166885 0.000000 -18.660671
v 20.011515 0.000000 -12.556067
v 8.526630 0.000000 -257.397369
vt 0.128280 0.954670
vt 0.054658 0.070768
vt 0.461300 0.059928
vt 0.536330 0.943830
vt 0.956200 0.932630
vt 0.879720 0.048808
vn 0.7387 -0.6732 -0.0346
vn 0.7289 0.6836 -0.0355
vn 0.0472 -0.0001 0.9989
vn -0.0472 -0.0001 -0.9989
usemtl None
s off
f 5/1/1 6/2/1 4/3/1 3/4/1
f 3/4/2 2/5/2 1/6/2 4/3/2
f 2/5/3 3/4/3 5/1/3
f 6/2/4 4/3/4 1/6/4
