# Blender v2.92.0 OBJ File: ''
# www.blender.org
mtllib CG10_500_049064_0017.mtl
o CG10_500_049064_0017
v 267.516144 75.000000 -205.253677
v 255.518646 75.000000 -10.492908
v 169.784195 144.999649 -119.076447
v 120.102219 145.000000 -122.137398
v 25.190271 75.000000 -220.185837
v 13.192452 75.000000 -25.420349
v 267.516144 0.000000 -205.253677
v 255.518646 0.000000 -10.492908
v 13.192452 0.000000 -25.420349
v 25.190271 0.000000 -220.185837
vn 0.0345 -0.8273 -0.5606
vn 0.5695 -0.8213 0.0351
vn -0.0372 -0.7959 0.6043
vn 0.6033 0.7966 0.0372
vn 0.0000 -1.0000 0.0000
vn -0.9981 0.0000 -0.0615
vn 0.0615 0.0000 -0.9981
vn 0.9981 0.0000 0.0615
vn -0.0615 0.0000 0.9981
usemtl None
s off
f 6//1 4//1 3//1 2//1
f 6//2 5//2 4//2
f 5//3 1//3 3//3 4//3
f 2//4 1//4 3//4
f 7//5 8//5 9//5 10//5
f 1//6 7//6 8//6 2//6
f 2//7 8//7 9//7 6//7
f 6//8 9//8 10//8 5//8
f 5//9 10//9 7//9 1//9
