# Blender v2.92.0 OBJ File: ''
# www.blender.org
mtllib CG10_500_037071_0010.mtl
o CG10_500_037071_0010
v 181.096695 75.000000 -256.830688
v 208.796066 75.000000 -245.328827
v 99.177887 75.000000 -281.834442
v 177.908401 75.000000 -249.152451
v 205.609009 75.000000 -237.653595
v 349.000092 75.000000 -178.130203
v 149.632431 144.995590 -165.666489
v 233.461746 145.000000 -130.861923
v 100.861504 116.157547 -146.060257
v 85.684319 116.150452 -109.493050
v 127.168411 75.000000 -78.250000
v 281.000458 75.000000 -14.370262
v 112.798859 75.000000 -43.650066
v 16.901358 75.000000 -83.470551
v 181.096695 0.000000 -256.830688
v 208.796066 0.000000 -245.328827
v 205.609009 0.000000 -237.653595
v 349.000092 0.000000 -178.130203
v 281.000458 0.000000 -14.370262
v 127.168411 0.000000 -78.250000
v 112.798859 0.000000 -43.650066
v 16.901358 0.000000 -83.470551
v 99.177887 0.000000 -281.834442
v 177.908401 0.000000 -249.152451
vn -0.2387 -0.7824 0.5751
vn 0.5726 0.7846 0.2378
vn 0.2365 -0.7872 -0.5695
vn -0.5848 -0.7740 -0.2429
vn -0.2425 0.7747 0.5840
vn 0.5627 -0.7930 0.2334
vn 0.0000 -1.0000 0.0000
vn -0.3835 0.0000 0.9235
vn -0.9235 0.0000 -0.3835
vn -0.3834 0.0000 0.9236
vn 0.3835 0.0000 -0.9235
vn 0.9237 0.0000 0.3831
vn 0.9235 0.0000 0.3835
usemtl None
s off
f 7//1 3//1 4//1 5//1 6//1 8//1
f 8//2 12//2 6//2
f 12//3 11//3 9//3 7//3 8//3
f 11//4 13//4 10//4 9//4
f 10//5 14//5 13//5
f 14//6 3//6 7//6 9//6 10//6
f 4//7 1//7 2//7 5//7
f 15//7 16//7 17//7 18//7 19//7 20//7 21//7 22//7 23//7 24//7
f 1//8 15//8 16//8 2//8
f 2//9 16//9 17//9 5//9
f 5//10 17//10 18//10 6//10
f 6//9 18//9 19//9 12//9
f 12//11 19//11 20//11 11//11
f 11//9 20//9 21//9 13//9
f 13//11 21//11 22//11 14//11
f 14//12 22//12 23//12 3//12
f 3//10 23//10 24//10 4//10
f 4//13 24//13 15//13 1//13
