# Blender v2.92.0 OBJ File: ''
# www.blender.org
mtllib CG10_500_038070_0025.mtl
o CG10_500_038070_0025
v 132.877625 75.000000 -44.968918
v 17.353058 75.000000 -104.715714
v 72.643990 123.596413 -76.108093
v 152.700912 75.000000 -82.043327
v 284.723053 75.000000 -13.928557
v 122.623703 124.159103 -171.247314
v 240.558746 144.986191 -141.618927
v 159.095734 145.000000 -183.669220
v 370.317139 75.000000 -179.416885
v 122.185219 75.000000 -307.562805
v 132.877625 0.000000 -44.968918
v 17.353058 0.000000 -104.715714
v 122.185219 0.000000 -307.562805
v 370.317139 0.000000 -179.416885
v 284.723053 0.000000 -13.928557
v 152.700912 0.000000 -82.043327
vn -0.5467 0.7883 -0.2825
vn 0.5137 0.8128 0.2747
vn -0.2753 0.7997 0.5335
vn 0.5166 0.8135 0.2672
vn -0.2757 -0.7994 0.5338
vn -0.4594 -0.0002 0.8882
vn 0.0000 -1.0000 0.0000
vn 0.4594 0.0000 -0.8882
vn 0.8884 0.0000 0.4591
vn -0.4589 0.0000 0.8885
vn -0.8882 0.0000 -0.4594
vn 0.4585 0.0000 -0.8887
vn -0.8819 0.0000 -0.4715
usemtl None
s off
f 2//1 3//1 6//1 8//1 10//1
f 3//2 1//2 4//2 6//2
f 4//3 5//3 7//3 8//3 6//3
f 5//4 9//4 7//4
f 10//5 9//5 7//5 8//5
f 1//6 3//6 2//6
f 11//7 12//7 13//7 14//7 15//7 16//7
f 1//8 11//8 12//8 2//8
f 2//9 12//9 13//9 10//9
f 10//10 13//10 14//10 9//10
f 9//11 14//11 15//11 5//11
f 5//12 15//12 16//12 4//12
f 4//13 16//13 11//13 1//13
