# Blender v2.92.0 OBJ File: ''
# www.blender.org
mtllib CG10_500_048072_0017.mtl
o CG10_500_048072_0017
v 253.739792 75.000000 -191.033447
v 260.594788 75.000000 -306.865479
v 205.834885 121.984688 -252.123901
v 195.169327 75.000000 -194.385712
v 184.625305 75.000000 -15.276758
v 142.651733 122.052406 -255.824265
v 113.740959 144.974365 -229.249527
v 106.366470 145.000000 -104.499924
v 10.778835 75.000000 -25.565065
v 28.308815 75.000000 -320.776886
v 253.739792 0.000000 -191.033447
v 260.594788 0.000000 -306.865479
v 28.308815 0.000000 -320.776886
v 10.778835 0.000000 -25.565065
v 184.625305 0.000000 -15.276758
v 195.169327 0.000000 -194.385712
vn 0.0377 -0.7699 -0.6371
vn 0.6419 0.7658 0.0378
vn 0.0359 -0.7784 -0.6268
vn 0.6733 0.7383 0.0398
vn -0.0377 -0.7766 0.6289
vn 0.6097 -0.7918 0.0362
vn 0.0000 1.0000 0.0000
vn 0.9983 0.0000 0.0591
vn 0.0598 0.0000 -0.9982
vn -0.9982 0.0000 -0.0593
vn -0.0591 0.0000 0.9983
vn 0.9983 0.0000 0.0588
vn -0.0571 0.0000 0.9984
usemtl None
s off
f 9//1 8//1 5//1
f 5//2 4//2 6//2 7//2 8//2
f 1//3 4//3 6//3 3//3
f 2//4 3//4 1//4
f 10//5 2//5 3//5 6//5 7//5
f 9//6 10//6 7//6 8//6
f 11//7 12//7 13//7 14//7 15//7 16//7
f 1//8 11//8 12//8 2//8
f 2//9 12//9 13//9 10//9
f 10//10 13//10 14//10 9//10
f 9//11 14//11 15//11 5//11
f 5//12 15//12 16//12 4//12
f 4//13 16//13 11//13 1//13
