# Blender v2.92.0 OBJ File: ''
# www.blender.org
mtllib CG10_500_041073_0067.mtl
o CG10_500_041073_0067
v 126.291977 75.000000 -372.754456
v 290.903564 75.000000 -304.768860
v 181.454437 144.545853 -258.794189
v 218.663025 75.000000 -125.728828
v 256.970428 75.000000 -109.924294
v 136.956879 145.000000 -149.983154
v 155.576370 115.484100 -100.517464
v 194.673340 115.500999 -84.365799
v 218.653519 75.000000 -17.139339
v 13.850710 75.000000 -101.872261
v 126.291977 0.000000 -372.754456
v 290.903564 0.000000 -304.768860
v 218.663025 0.000000 -125.728828
v 256.970428 0.000000 -109.924294
v 218.653519 0.000000 -17.139339
v 13.850710 0.000000 -101.872261
vn -0.5973 -0.7631 -0.2467
vn -0.2323 0.7943 0.5614
vn -0.2478 -0.7602 0.6006
vn 0.5902 0.7714 0.2381
vn 0.2430 0.7713 -0.5883
vn -0.5469 0.8058 -0.2270
vn 0.0000 -1.0000 0.0000
vn -0.3817 0.0000 0.9243
vn -0.9274 0.0000 -0.3742
vn -0.3814 0.0000 0.9244
vn -0.9243 0.0000 -0.3817
vn 0.3823 0.0000 -0.9240
vn 0.9236 0.0000 0.3834
usemtl None
s off
f 9//1 8//1 5//1
f 10//2 9//2 8//2 7//2 6//2
f 5//3 8//3 7//3 4//3
f 3//4 6//4 7//4 4//4 2//4
f 1//5 3//5 2//5
f 10//6 6//6 3//6 1//6
f 11//7 12//7 13//7 14//7 15//7 16//7
f 1//8 11//8 12//8 2//8
f 2//9 12//9 13//9 4//9
f 4//10 13//10 14//10 5//10
f 5//11 14//11 15//11 9//11
f 9//12 15//12 16//12 10//12
f 10//13 16//13 11//13 1//13
