# Blender v2.92.0 OBJ File: ''
# www.blender.org
mtllib CG10_500_042069_0007.mtl
o CG10_500_042069_0007
v 303.286346 75.000000 -185.162064
v 293.858337 75.000000 -9.475203
v 219.701492 145.000000 -100.510956
v 115.109138 144.993561 -106.117485
v 13.174954 75.000000 -24.542353
v 22.600677 75.000000 -200.185822
v 303.286346 0.000000 -185.162064
v 293.858337 0.000000 -9.475203
v 13.174954 0.000000 -24.542353
v 22.600677 0.000000 -200.185822
vn -0.5827 0.8121 -0.0313
vn -0.0336 0.7789 0.6263
vn 0.6626 0.7482 0.0356
vn 0.0330 0.7860 -0.6173
vn 0.0000 -1.0000 0.0000
vn -0.9986 0.0000 -0.0536
vn 0.0536 0.0000 -0.9986
vn 0.9986 0.0000 0.0536
vn -0.0534 0.0000 0.9986
usemtl None
s off
f 5//1 4//1 6//1
f 5//2 2//2 3//2 4//2
f 2//3 1//3 3//3
f 1//4 6//4 4//4 3//4
f 7//5 8//5 9//5 10//5
f 1//6 7//6 8//6 2//6
f 2//7 8//7 9//7 5//7
f 5//8 9//8 10//8 6//8
f 6//9 10//9 7//9 1//9
