# Blender v2.92.0 OBJ File: ''
# www.blender.org
mtllib CG10_500_045066_0011.mtl
o CG10_500_045066_0011
v 56.592373 75.000000 -348.318329
v 221.111618 75.000000 -335.526184
v 128.207962 145.000000 -261.828522
v 20.899393 75.000000 -177.051376
v 43.426395 75.000000 -174.859589
v 116.044754 144.894135 -103.138954
v 15.115131 137.918716 -102.798927
v 106.772301 137.159744 -94.783508
v 196.268555 75.000000 -14.882954
v 9.414591 75.000000 -29.407665
v 56.592373 0.000000 -348.318329
v 221.111618 0.000000 -335.526184
v 196.268555 0.000000 -14.882954
v 9.414591 0.000000 -29.407665
v 20.899393 0.000000 -177.051376
v 43.426395 0.000000 -174.859589
vn -0.0504 0.7602 0.6478
vn -0.0625 -0.7638 0.6424
vn -0.6662 0.7441 -0.0506
vn 0.6253 0.7789 0.0484
vn -0.0508 -0.7553 0.6534
vn -0.9970 -0.0001 -0.0776
vn 0.0000 -1.0000 0.0000
vn -0.0775 0.0000 0.9970
vn -0.9970 0.0000 -0.0772
vn 0.0775 0.0000 -0.9970
vn 0.9970 0.0000 0.0776
vn -0.0968 0.0000 0.9953
vn 0.9971 0.0000 0.0757
usemtl None
s off
f 10//1 9//1 6//1 8//1 7//1
f 7//2 4//2 5//2 8//2
f 8//3 6//3 3//3 1//3 5//3
f 6//4 9//4 2//4 3//4
f 3//5 1//5 2//5
f 10//6 7//6 4//6
f 11//7 12//7 13//7 14//7 15//7 16//7
f 1//8 11//8 12//8 2//8
f 2//9 12//9 13//9 9//9
f 9//10 13//10 14//10 10//10
f 10//11 14//11 15//11 4//11
f 4//12 15//12 16//12 5//12
f 5//13 16//13 11//13 1//13
