# Blender v2.92.0 OBJ File: ''
# www.blender.org
mtllib CG10_500_038057_0007.mtl
o CG10_500_038057_0007
v 285.917877 75.000000 -222.773849
v 280.939880 75.000000 -121.895172
v 253.634354 75.000000 -10.829818
v 258.201904 75.000000 -106.597954
v 258.314575 75.000000 -108.960114
v 242.834656 75.000000 -127.609222
v 241.977570 75.000000 -106.587067
v 233.150116 115.656242 -172.296112
v 208.280792 117.342773 -66.515259
v 197.005020 114.112747 -176.074844
v 190.565048 115.687195 -65.317352
v 156.425919 144.905029 -103.884956
v 157.688019 145.000000 -137.688354
v 125.414375 119.096077 -173.066925
v 72.047752 119.040039 -175.745361
v 63.299118 75.000000 -20.394590
v 66.641655 75.000000 -119.560020
v 13.123602 75.000000 -122.318100
v 18.694845 75.000000 -235.819473
v 285.917877 0.000000 -222.773849
v 280.939880 0.000000 -121.895172
v 242.834656 0.000000 -127.609222
v 241.977570 0.000000 -106.587067
v 258.314575 0.000000 -108.960114
v 258.201904 0.000000 -106.597954
v 253.634354 0.000000 -10.829818
v 63.299118 0.000000 -20.394590
v 66.641655 0.000000 -119.560020
v 13.123602 0.000000 -122.318100
v 18.694845 0.000000 -235.819473
vn 0.0297 0.7934 -0.6080
vn -0.6158 0.7873 -0.0302
vn -0.0317 0.7881 0.6147
vn -0.6120 0.7906 -0.0206
vn -0.0312 0.7832 0.6210
vn 0.6611 0.7496 0.0315
vn -0.1110 0.6351 -0.7644
vn 0.6330 0.7737 0.0258
vn -0.1022 0.7247 0.6815
vn 0.6285 0.7772 0.0310
vn 0.0000 -1.0000 0.0000
vn -0.9988 0.0000 -0.0493
vn 0.1483 0.0000 -0.9889
vn -0.9992 0.0000 -0.0407
vn 0.1437 0.0000 0.9896
vn -0.9989 0.0000 -0.0476
vn 0.0502 0.0000 -0.9987
vn 0.9994 0.0000 0.0337
vn 0.0515 0.0000 -0.9987
vn 0.9988 0.0000 0.0490
vn -0.0488 0.0000 0.9988
usemtl None
s off
f 19//1 15//1 14//1 13//1 10//1 8//1 1//1
f 18//2 15//2 19//2
f 17//3 14//3 15//3 18//3
f 16//4 12//4 13//4 14//4 17//4
f 3//5 9//5 11//5 12//5 16//5
f 3//6 4//6 5//6 9//6
f 7//7 11//7 9//7 5//7
f 11//8 7//8 6//8 10//8 13//8 12//8
f 6//9 2//9 8//9 10//9
f 2//10 1//10 8//10
f 20//11 21//11 22//11 23//11 24//11 25//11 26//11 27//11 28//11 29//11 30//11
f 1//12 20//12 21//12 2//12
f 2//13 21//13 22//13 6//13
f 6//14 22//14 23//14 7//14
f 7//15 23//15 24//15 5//15
f 5//16 24//16 25//16 4//16
f 4//16 25//16 26//16 3//16
f 3//17 26//17 27//17 16//17
f 16//18 27//18 28//18 17//18
f 17//19 28//19 29//19 18//19
f 18//20 29//20 30//20 19//20
f 19//21 30//21 20//21 1//21
