# Blender v2.92.0 OBJ File: ''
# www.blender.org
mtllib CG10_500_035062_0009.mtl
o CG10_500_035062_0009
v 202.116898 75.000000 -307.641602
v 183.723114 75.000000 -15.124621
v 115.960472 145.000000 -221.102539
v 108.459557 144.992889 -101.684937
v 9.452442 75.000000 -26.059811
v 27.802862 75.000000 -318.579498
v 202.116898 0.000000 -307.641602
v 183.723114 0.000000 -15.124621
v 9.452442 0.000000 -26.059811
v 27.802862 0.000000 -318.579498
vn 0.0408 -0.7593 -0.6494
vn 0.5957 -0.8023 0.0374
vn -0.0380 -0.7951 0.6053
vn -0.6546 -0.7548 -0.0412
vn 0.0000 -1.0000 0.0000
vn -0.9980 0.0000 -0.0628
vn 0.0626 0.0000 -0.9980
vn 0.9980 0.0000 0.0626
vn -0.0626 0.0000 0.9980
usemtl None
s off
f 5//1 4//1 2//1
f 5//2 6//2 3//2 4//2
f 6//3 1//3 3//3
f 1//4 2//4 4//4 3//4
f 7//5 8//5 9//5 10//5
f 1//6 7//6 8//6 2//6
f 2//7 8//7 9//7 5//7
f 5//8 9//8 10//8 6//8
f 6//9 10//9 7//9 1//9
