# Blender v2.92.0 OBJ File: ''
# www.blender.org
mtllib CG10_500_043070_0030.mtl
o CG10_500_043070_0030
v 18.080317 75.000000 -95.302925
v 153.946259 75.000000 -426.292023
v 138.563080 144.998825 -148.995728
v 198.614136 145.000000 -295.284698
v 279.869354 103.850204 -328.161163
v 318.313568 103.849739 -312.379700
v 200.964539 75.000000 -20.224556
v 305.461884 75.000000 -274.779877
v 345.049103 75.000000 -258.529907
v 376.425201 75.000000 -334.959259
v 18.080317 0.000000 -95.302925
v 153.946259 0.000000 -426.292023
v 376.425201 0.000000 -334.959259
v 345.049103 0.000000 -258.529907
v 305.461884 0.000000 -274.779877
v 200.964539 0.000000 -20.224556
vn 0.2246 -0.8063 -0.5472
vn -0.2234 0.8087 0.5442
vn 0.4978 0.8428 0.2044
vn 0.5077 0.8360 0.2084
vn 0.5638 -0.7929 0.2314
vn -0.2117 -0.8302 0.5158
vn 0.0000 -1.0000 0.0000
vn 0.9251 0.0000 0.3797
vn -0.3798 0.0000 0.9251
vn -0.9251 0.0000 -0.3798
vn 0.3797 0.0000 -0.9251
vn 0.3798 0.0000 -0.9251
usemtl None
s off
f 1//1 3//1 7//1
f 8//2 9//2 6//2 5//2
f 9//3 10//3 6//3
f 7//4 8//4 5//4 4//4 3//4
f 1//5 2//5 4//5 3//5
f 2//6 10//6 6//6 5//6 4//6
f 11//7 12//7 13//7 14//7 15//7 16//7
f 1//8 11//8 12//8 2//8
f 2//9 12//9 13//9 10//9
f 10//10 13//10 14//10 9//10
f 9//11 14//11 15//11 8//11
f 8//10 15//10 16//10 7//10
f 7//12 16//12 11//12 1//12
