# Blender v2.92.0 OBJ File: ''
# www.blender.org
mtllib CG10_500_038069_0023.mtl
o CG10_500_038069_0023
v 376.271576 75.000000 -228.095428
v 366.290466 75.000000 -12.516302
v 316.251373 113.495033 -104.507477
v 314.511261 113.455193 -65.709801
v 273.752838 145.000000 -146.410004
v 264.460693 75.000000 -58.035500
v 262.684387 75.000000 -17.222404
v 183.357147 144.972687 -150.495605
v 157.492935 120.366180 -181.984482
v 100.419472 75.000000 -65.512550
v 103.818947 75.000000 -128.706879
v 71.126732 119.548523 -186.863632
v 24.072437 75.000000 -243.882538
v 19.122471 75.000000 -134.498245
v 376.271576 0.000000 -228.095428
v 366.290466 0.000000 -12.516302
v 262.684387 0.000000 -17.222404
v 264.460693 0.000000 -58.035500
v 100.419472 0.000000 -65.512550
v 103.818947 0.000000 -128.706879
v 19.122471 0.000000 -134.498245
v 24.072437 0.000000 -243.882538
vn 0.6676 -0.7439 0.0302
vn -0.0426 0.7814 0.6225
vn -0.6656 0.7454 -0.0358
vn -0.0282 0.7850 0.6188
vn -0.6116 0.7907 -0.0266
vn -0.0274 0.7973 0.6030
vn 0.5781 0.8155 0.0268
vn -0.0282 -0.7763 0.6298
vn 0.0000 -1.0000 0.0000
vn -0.9989 0.0000 -0.0462
vn 0.0454 0.0000 -0.9990
vn 0.9991 0.0000 0.0435
vn 0.0455 0.0000 -0.9990
vn 0.9986 0.0000 0.0537
vn 0.0682 0.0000 -0.9977
vn 0.9990 0.0000 0.0452
vn -0.0448 0.0000 0.9990
usemtl None
s off
f 14//1 13//1 12//1
f 14//2 11//2 9//2 12//2
f 11//3 10//3 8//3 9//3
f 10//4 6//4 3//4 5//4 8//4
f 6//5 7//5 4//5 3//5
f 7//6 2//6 4//6
f 2//7 1//7 5//7 3//7 4//7
f 13//8 1//8 5//8 8//8 9//8 12//8
f 15//9 16//9 17//9 18//9 19//9 20//9 21//9 22//9
f 1//10 15//10 16//10 2//10
f 2//11 16//11 17//11 7//11
f 7//12 17//12 18//12 6//12
f 6//13 18//13 19//13 10//13
f 10//14 19//14 20//14 11//14
f 11//15 20//15 21//15 14//15
f 14//16 21//16 22//16 13//16
f 13//17 22//17 15//17 1//17
