# Blender v2.92.0 OBJ File: ''
# www.blender.org
mtllib CG10_500_040070_0049_roof.mtl
o CG10_500_040070_0049_roof
v 28.332445 75.000000 -238.059860
v 16.503603 75.000000 -22.853704
v 122.400955 145.000000 -124.199501
v 135.552338 136.518356 -136.646286
v 224.510147 75.000000 -11.428395
v 225.244080 75.000000 -36.023540
v 261.189392 136.479248 -129.801804
v 354.222076 75.000000 -29.059566
v 364.693726 75.000000 -219.572968
v 28.332445 0.000000 -238.059860
v 16.503603 0.000000 -22.853704
v 224.510147 0.000000 -11.428395
v 225.244080 0.000000 -36.023540
v 354.222076 0.000000 -29.059566
v 364.693726 0.000000 -219.572968
vt 0.042978 0.909310
vt 0.584660 0.954650
vt 0.318750 0.507140
vt 0.586570 0.857050
vt 0.353000 0.457750
vt 0.922450 0.884680
vt 0.680180 0.484910
vt 0.949720 0.128680
vt 0.073782 0.055318
vn -0.0300 0.8368 0.5466
vn 0.5529 0.8331 0.0165
vn -0.0292 0.8410 0.5402
vn 0.5290 0.8481 0.0291
vn 0.0297 0.8404 -0.5412
vn -0.5719 0.8197 -0.0314
usemtl None
s off
f 2/1/1 5/2/1 3/3/1
f 5/2/2 6/4/2 4/5/2 3/3/2
f 6/4/3 8/6/3 7/7/3 4/5/3
f 8/6/4 9/8/4 7/7/4
f 1/9/5 3/3/5 4/5/5 7/7/5 9/8/5
f 2/1/6 3/3/6 1/9/6
