# Blender v2.92.0 OBJ File: ''
# www.blender.org
mtllib CG10_500_037059_0009.mtl
o CG10_500_037059_0009
v 29.020166 75.000000 -199.044296
v 400.073608 75.000000 -176.931854
v 317.261688 145.000000 -101.124046
v 111.776932 144.988815 -113.382523
v 156.655121 107.959801 -64.976326
v 390.126251 75.000000 -10.331664
v 19.075611 75.000000 -32.492088
v 111.072472 75.000000 -26.997717
v 195.382767 75.000000 -21.962416
v 192.368256 75.000000 -9.325231
v 112.564560 75.000000 -14.090390
v 153.273453 101.651924 -11.497228
v 29.020166 0.000000 -199.044296
v 400.073608 0.000000 -176.931854
v 390.126251 0.000000 -10.331664
v 195.382767 0.000000 -21.962416
v 192.368256 0.000000 -9.325231
v 112.564560 0.000000 -14.090390
v 111.072472 0.000000 -26.997717
v 19.075611 0.000000 -32.492088
vn -0.5533 -0.8224 -0.1320
vn -0.5495 0.8331 0.0635
vn -0.0376 0.7766 0.6289
vn -0.6660 -0.7449 -0.0398
vn -0.0390 -0.7550 0.6546
vn 0.6226 -0.7817 0.0372
vn -0.0596 -0.0061 0.9982
vn 0.0000 -1.0000 0.0000
vn -0.0595 0.0000 0.9982
vn -0.9982 0.0000 -0.0596
vn 0.0596 0.0000 -0.9982
vn -0.9727 0.0000 -0.2320
vn 0.9934 0.0000 -0.1148
vn 0.9982 0.0000 0.0596
usemtl None
s off
f 12//1 5//1 9//1 10//1
f 12//2 5//2 8//2 11//2
f 6//3 3//3 4//3 7//3 8//3 5//3 9//3
f 6//4 3//4 2//4
f 2//5 3//5 4//5 1//5
f 1//6 4//6 7//6
f 10//7 12//7 11//7
f 13//8 14//8 15//8 16//8 17//8 18//8 19//8 20//8
f 1//9 13//9 14//9 2//9
f 2//10 14//10 15//10 6//10
f 6//11 15//11 16//11 9//11
f 9//12 16//12 17//12 10//12
f 10//11 17//11 18//11 11//11
f 11//13 18//13 19//13 8//13
f 8//11 19//11 20//11 7//11
f 7//14 20//14 13//14 1//14
