# Blender v2.92.0 OBJ File: ''
# www.blender.org
mtllib CG10_500_049063_0005_roof.mtl
o CG10_500_049063_0005_roof
v 76.866875 75.000000 -12.109196
v 92.867874 75.000000 -263.875366
v 39.881123 143.798691 -14.296638
v 55.239651 145.000000 -266.153473
v 2.483450 75.000000 -16.560797
v 17.186060 75.000000 -268.407379
v 76.866875 0.000000 -12.109196
v 92.867874 0.000000 -263.875366
v 17.186060 0.000000 -268.407379
v 2.483450 0.000000 -16.560797
vt 0.026142 0.941060
vt 0.419800 0.949120
vt 0.581470 0.052835
vt 0.180910 0.044814
vt 0.809120 0.956910
vt 0.977560 0.060942
vn -0.8767 0.4783 -0.0512
vn 0.8787 0.4741 0.0558
vn -0.0598 0.0004 0.9982
vn 0.0597 0.0004 -0.9982
usemtl None
s off
f 5/1/1 3/2/1 4/3/1 6/4/1
f 3/2/2 1/5/2 2/6/2 4/3/2
f 2/6/3 4/3/3 6/4/3
f 5/1/4 3/2/4 1/5/4
