# Blender v2.92.0 OBJ File: ''
# www.blender.org
mtllib CG10_500_045068_0036_roof.mtl
o CG10_500_045068_0036_roof
v 280.233337 75.000000 -373.637482
v 148.267746 75.000000 -429.222137
v 187.646698 122.573151 -333.563019
v 231.949585 75.000000 -257.931183
v 333.751465 75.000000 -214.822632
v 138.891235 122.714539 -217.266678
v 198.877197 144.969589 -154.518723
v 157.195892 145.000000 -172.117859
v 250.977676 75.000000 -18.302496
v 16.711441 75.000000 -116.937790
v 280.233337 0.000000 -373.637482
v 148.267746 0.000000 -429.222137
v 16.711441 0.000000 -116.937790
v 250.977676 0.000000 -18.302496
v 333.751465 0.000000 -214.822632
v 231.949585 0.000000 -257.931183
vt 0.537670 0.257100
vt 0.424840 0.044049
vt 0.802960 0.167850
vt 0.664610 0.425540
vt 0.397970 0.516110
vt 0.450420 0.616660
vt 0.047884 0.739560
vt 0.956310 0.521550
vt 0.569850 0.655860
vt 0.719130 0.959240
vn -0.2122 -0.8374 0.5038
vn -0.5187 -0.8271 -0.2164
vn 0.5011 -0.8393 0.2111
vn -0.2118 -0.8395 0.5003
vn 0.2147 -0.8330 -0.5100
vn -0.5252 -0.8217 -0.2212
usemtl None
s off
f 3/1/1 2/2/1 1/3/1
f 3/1/2 1/3/2 4/4/2 6/5/2
f 2/2/3 3/1/3 6/5/3 8/6/3 10/7/3
f 8/6/4 6/5/4 4/4/4 5/8/4 7/9/4
f 10/7/5 8/6/5 7/9/5 9/10/5
f 9/10/6 7/9/6 5/8/6
