# Blender v2.92.0 OBJ File: ''
# www.blender.org
mtllib CG10_500_049071_0016_roof.mtl
o CG10_500_049071_0016_roof
v 31.381046 75.000000 -364.496094
v 9.437757 75.000000 -24.554104
v 67.176674 116.626602 -75.208542
v 71.095497 116.809441 -132.211990
v 110.165642 144.992432 -166.173141
v 117.094124 145.000000 -273.354736
v 115.035271 75.000000 -17.727350
v 119.195679 75.000000 -74.909531
v 212.698578 75.000000 -352.771240
v 194.393890 75.000000 -70.002373
v 31.381046 0.000000 -364.496094
v 9.437757 0.000000 -24.554104
v 115.035271 0.000000 -17.727350
v 119.195679 0.000000 -74.909531
v 194.393890 0.000000 -70.002373
v 212.698578 0.000000 -352.771240
vt 0.042512 0.935720
vt 0.302600 0.803120
vt 0.518180 0.953590
vt 0.141360 0.045822
vt 0.527450 0.284410
vt 0.496240 0.564990
vt 0.320250 0.653900
vt 0.536920 0.803900
vt 0.875650 0.816750
vt 0.958100 0.076515
vn 0.0393 -0.7935 -0.6073
vn 0.6067 -0.7939 0.0392
vn -0.6240 -0.7801 -0.0454
vn -0.0398 0.7910 0.6106
vn 0.6115 0.7903 0.0396
vn -0.0409 -0.7735 0.6325
usemtl None
s off
f 2/1/1 3/2/1 7/3/1
f 2/1/2 1/4/2 6/5/2 5/6/2 4/7/2 3/2/2
f 4/7/3 8/8/3 7/3/3 3/2/3
f 8/8/4 10/9/4 5/6/4 4/7/4
f 10/9/5 9/10/5 6/5/5 5/6/5
f 1/4/6 9/10/6 6/5/6
