# Blender v2.92.0 OBJ File: ''
# www.blender.org
mtllib CG10_500_039063_0014.mtl
o CG10_500_039063_0014
v 271.644165 75.000000 -347.693695
v 35.051033 75.000000 -362.606262
v 362.055695 75.000000 -306.041138
v 269.576538 75.000000 -312.091339
v 164.132874 145.000000 -256.650543
v 127.470764 144.989532 -258.976013
v 181.108414 132.585846 -236.791138
v 275.961212 132.535126 -230.657013
v 287.960754 123.395943 -216.068436
v 90.159981 120.157928 -223.803055
v 215.445587 75.000000 -147.504547
v 153.097336 75.000000 -151.486206
v 148.235565 75.000000 -72.355278
v 17.328672 75.000000 -80.610970
v 81.009186 120.229202 -76.594086
v 274.999908 123.883759 -21.598932
v 343.833954 75.000000 -17.270338
v 206.914841 75.000000 -25.908764
v 271.644165 0.000000 -347.693695
v 35.051033 0.000000 -362.606262
v 17.328672 0.000000 -80.610970
v 148.235565 0.000000 -72.355278
v 153.097336 0.000000 -151.486206
v 215.445587 0.000000 -147.504547
v 206.914841 0.000000 -25.908764
v 343.833954 0.000000 -17.270338
v 362.055695 0.000000 -306.041138
v 269.576538 0.000000 -312.091339
vn -0.5772 0.8158 -0.0363
vn -0.0367 -0.8127 0.5816
vn 0.5647 0.8246 0.0328
vn -0.5564 -0.8302 -0.0342
vn 0.5771 0.8159 0.0364
vn -0.0352 0.8336 0.5512
vn 0.5810 -0.8129 0.0408
vn -0.0379 -0.8147 0.5786
vn 0.0629 0.0000 -0.9980
vn 0.0630 0.0003 -0.9980
vn 0.0000 1.0000 0.0000
vn -0.9980 0.0000 -0.0627
vn -0.0629 0.0000 0.9980
vn 0.9981 0.0000 0.0613
vn -0.0637 0.0000 0.9980
vn -0.9975 0.0000 -0.0700
vn -0.0630 0.0000 0.9980
vn 0.9980 0.0000 0.0630
vn 0.0653 0.0000 -0.9979
vn 0.9983 0.0000 0.0580
usemtl None
s off
f 14//1 15//1 10//1 6//1 2//1
f 2//2 1//2 5//2 6//2
f 5//3 7//3 4//3 1//3
f 12//4 13//4 15//4 10//4
f 16//5 17//5 3//5 8//5 9//5
f 11//6 9//6 8//6 7//6 5//6 6//6 10//6 12//6
f 18//7 11//7 9//7 16//7
f 4//8 3//8 8//8 7//8
f 14//9 15//9 13//9
f 18//10 16//10 17//10
f 19//11 20//11 21//11 22//11 23//11 24//11 25//11 26//11 27//11 28//11
f 1//9 19//9 20//9 2//9
f 2//12 20//12 21//12 14//12
f 14//13 21//13 22//13 13//13
f 13//14 22//14 23//14 12//14
f 12//15 23//15 24//15 11//15
f 11//16 24//16 25//16 18//16
f 18//17 25//17 26//17 17//17
f 17//18 26//18 27//18 3//18
f 3//19 27//19 28//19 4//19
f 4//20 28//20 19//20 1//20
