# Blender v2.92.0 OBJ File: ''
# www.blender.org
mtllib CG10_500_039057_0037_roof.mtl
o CG10_500_039057_0037_roof
v 10.262128 75.000000 -304.484955
v 210.051941 75.000000 -315.482147
v 120.198364 122.929924 -254.371368
v 158.127716 122.968140 -256.414368
v 94.412140 145.000000 -227.089996
v 182.143692 75.000000 -204.406616
v 216.007935 75.000000 -206.192764
v 101.359970 144.996521 -99.534622
v 191.950272 75.000000 -24.256105
v 26.027485 75.000000 -15.213889
v 10.262128 0.000000 -304.484955
v 210.051941 0.000000 -315.482147
v 216.007935 0.000000 -206.192764
v 182.143692 0.000000 -204.406616
v 191.950272 0.000000 -24.256105
v 26.027485 0.000000 -15.213889
vt 0.115170 0.953900
vt 0.448500 0.698380
vt 0.849340 0.926500
vt 0.417750 0.311850
vt 0.531850 0.229180
vt 0.805950 0.380590
vt 0.955790 0.375170
vt 0.699680 0.222990
vt 0.929430 0.043993
vt 0.045408 0.077318
vn -0.0358 -0.7530 -0.6571
vn -0.6287 -0.7769 0.0342
vn 0.0353 0.7427 0.6687
vn 0.6559 0.7540 -0.0357
vn 0.6584 -0.7518 -0.0359
vn 0.0357 -0.7602 0.6487
usemtl None
s off
f 10/1/1 8/2/1 9/3/1
f 8/2/2 5/4/2 3/5/2 6/6/2 9/3/2
f 6/6/3 7/7/3 4/8/3 3/5/3
f 7/7/4 2/9/4 4/8/4
f 10/1/5 1/10/5 5/4/5 8/2/5
f 1/10/6 2/9/6 4/8/6 3/5/6 5/4/6
