# Blender v2.92.0 OBJ File: ''
# www.blender.org
mtllib CG10_500_038071_0022_roof.mtl
o CG10_500_038071_0022_roof
v 329.160828 75.000000 -229.632034
v 29.451538 75.000000 -247.721176
v 237.054779 144.886108 -148.625198
v 108.680824 145.000000 -156.232208
v 75.082603 118.778023 -125.542770
v 318.741333 75.000000 -56.875065
v 124.065422 75.000000 -68.195900
v 71.461716 118.684875 -67.391678
v 120.440071 75.000000 -11.720777
v 15.595634 75.000000 -18.043272
v 329.160828 0.000000 -229.632034
v 29.451538 0.000000 -247.721176
v 15.595634 0.000000 -18.043272
v 120.440071 0.000000 -11.720777
v 124.065422 0.000000 -68.195900
v 318.741333 0.000000 -56.875065
vt 0.687120 0.428360
vt 0.923890 0.781250
vt 0.954090 0.116800
vt 0.085367 0.047226
vt 0.315020 0.399110
vt 0.045205 0.930600
vt 0.207140 0.740800
vt 0.217630 0.517140
vt 0.349100 0.954920
vt 0.359610 0.737710
vn 0.6249 0.7798 0.0377
vn 0.0379 0.7775 -0.6277
vn -0.6364 0.7704 -0.0384
vn -0.0384 0.7694 0.6376
vn -0.6387 -0.7684 -0.0410
vn -0.0364 0.7791 0.6258
usemtl None
s off
f 3/1/1 6/2/1 1/3/1
f 2/4/2 4/5/2 3/1/2 1/3/2
f 2/4/3 10/6/3 8/7/3 5/8/3 4/5/3
f 10/6/4 9/9/4 8/7/4
f 8/7/5 5/8/5 7/10/5 9/9/5
f 7/10/6 6/2/6 3/1/6 4/5/6 5/8/6
