# Blender v2.92.0 OBJ File: ''
# www.blender.org
mtllib CG10_500_040071_0027_roof.mtl
o CG10_500_040071_0027_roof
v 334.863892 75.000000 -65.995651
v 348.602020 75.000000 -263.671051
v 301.643768 75.000000 -40.818802
v 303.394531 75.000000 -68.093552
v 245.336029 137.539810 -172.439087
v 211.687286 137.566589 -174.725296
v 199.291260 144.995071 -163.897751
v 161.911804 75.000000 -276.589142
v 162.591507 75.000000 -300.494598
v 126.094124 75.000000 -13.495208
v 129.184860 75.000000 -52.726868
v 91.017632 145.000000 -171.382065
v 94.386810 143.530106 -239.729218
v 81.256508 135.710632 -156.659622
v 75.044724 135.294998 -72.935242
v 14.736712 75.000000 -21.232531
v 34.771080 75.000000 -309.397919
v 334.863892 0.000000 -65.995651
v 348.602020 0.000000 -263.671051
v 161.911804 0.000000 -276.589142
v 162.591507 0.000000 -300.494598
v 34.771080 0.000000 -309.397919
v 14.736712 0.000000 -21.232531
v 126.094124 0.000000 -13.495208
v 129.184860 0.000000 -52.726868
v 301.643768 0.000000 -40.818802
v 303.394531 0.000000 -68.093552
vt 0.040485 0.934260
vt 0.206170 0.774190
vt 0.346410 0.958220
vt 0.223230 0.514990
vt 0.354900 0.836760
vt 0.828690 0.873630
vt 0.547500 0.492580
vt 0.250050 0.469410
vt 0.581560 0.459050
vt 0.833500 0.789180
vt 0.674000 0.466130
vt 0.919960 0.795680
vt 0.444810 0.143690
vt 0.446680 0.069676
vt 0.259300 0.257800
vt 0.095525 0.042112
vt 0.957700 0.183680
vn 0.0509 -0.6789 -0.7324
vn -0.7331 -0.6776 -0.0578
vn -0.0356 0.8557 0.5163
vn -0.5357 -0.8437 -0.0344
vn 0.0352 -0.8484 -0.5281
vn 0.7176 0.6961 0.0204
vn 0.0503 0.6902 -0.7219
vn 0.7275 -0.6843 0.0506
vn -0.5418 -0.8397 -0.0377
vn -0.0371 -0.8433 0.5361
usemtl None
s off
f 16/1/1 15/2/1 10/3/1
f 10/3/2 15/2/2 14/4/2 11/5/2
f 11/5/3 3/6/3 7/7/3 12/8/3 14/4/3
f 3/6/4 7/7/4 6/9/4 4/10/4
f 4/10/5 6/9/5 5/11/5 1/12/5
f 12/8/6 8/13/6 9/14/6 13/15/6
f 13/15/7 9/14/7 17/16/7
f 17/16/8 13/15/8 12/8/8 14/4/8 15/2/8 16/1/8
f 1/12/9 5/11/9 2/17/9
f 2/17/10 5/11/10 6/9/10 7/7/10 12/8/10 8/13/10
