# Blender v2.92.0 OBJ File: ''
# www.blender.org
mtllib CG10_500_039069_0061.mtl
o CG10_500_039069_0061
v 23.436123 75.000000 -239.214249
v 299.191010 75.000000 -226.479980
v 239.306000 111.676788 -176.658813
v 164.747101 111.738029 -180.014084
v 109.769737 144.998047 -134.865189
v 294.385132 75.000000 -121.266693
v 220.698792 75.000000 -124.495270
v 109.090965 145.000000 -119.951904
v 215.551132 75.000000 -10.873246
v 13.426058 75.000000 -20.105579
v 23.436123 0.000000 -239.214249
v 299.191010 0.000000 -226.479980
v 294.385132 0.000000 -121.266693
v 220.698792 0.000000 -124.495270
v 215.551132 0.000000 -10.873246
v 13.426058 0.000000 -20.105579
vn -0.0255 0.8299 0.5574
vn -0.5319 -0.8465 -0.0241
vn 0.0249 -0.8219 -0.5690
vn 0.6090 -0.7927 0.0278
vn 0.0264 0.8199 -0.5719
vn 0.5369 0.8433 0.0245
vn 0.0000 -1.0000 0.0000
vn -0.0461 0.0000 0.9989
vn -0.9990 0.0000 -0.0456
vn 0.0438 0.0000 -0.9990
vn -0.9990 0.0000 -0.0453
vn 0.0456 0.0000 -0.9990
vn 0.9990 0.0000 0.0456
usemtl None
s off
f 10//1 9//1 8//1
f 7//2 9//2 8//2 5//2 4//2
f 6//3 7//3 4//3 3//3
f 1//4 5//4 8//4 10//4
f 4//5 3//5 2//5 1//5 5//5
f 2//6 3//6 6//6
f 11//7 12//7 13//7 14//7 15//7 16//7
f 1//8 11//8 12//8 2//8
f 2//9 12//9 13//9 6//9
f 6//10 13//10 14//10 7//10
f 7//11 14//11 15//11 9//11
f 9//12 15//12 16//12 10//12
f 10//13 16//13 11//13 1//13
