# Blender v2.92.0 OBJ File: ''
# www.blender.org
mtllib CG10_500_036062_0015_roof.mtl
o CG10_500_036062_0015_roof
v 270.392670 75.000000 -14.701636
v 94.028374 75.000000 -24.654205
v 272.876007 75.000000 -60.970009
v 447.813110 75.000000 -51.151485
v 585.305237 75.000000 -88.754662
v 450.105408 75.000000 -96.604675
v 180.324677 129.633621 -113.856544
v 27.172052 75.000000 -141.484909
v 100.387154 75.000000 -137.361267
v 182.817413 129.595245 -159.051254
v 221.223145 135.215210 -166.471695
v 191.770309 135.266800 -168.212692
v 237.247192 145.000000 -182.244934
v 332.392578 144.994003 -176.894592
v 165.110947 116.142113 -199.890839
v 31.040262 116.375786 -207.817825
v 494.008484 131.022903 -190.067978
v 357.877350 130.951767 -197.850159
v 135.292465 75.000000 -266.335449
v 34.571224 75.000000 -272.566254
v 595.740906 75.000000 -273.669037
v 137.427185 75.000000 -299.487549
v 270.392670 0.000000 -14.701636
v 94.028374 0.000000 -24.654205
v 100.387154 0.000000 -137.361267
v 27.172052 0.000000 -141.484909
v 34.571224 0.000000 -272.566254
v 135.292465 0.000000 -266.335449
v 137.427185 0.000000 -299.487549
v 595.740906 0.000000 -273.669037
v 585.305237 0.000000 -88.754662
v 450.105408 0.000000 -96.604675
v 447.813110 0.000000 -51.151485
v 272.876007 0.000000 -60.970009
vt 0.150690 0.922230
vt 0.433320 0.953620
vt 0.288980 0.640830
vt 0.160880 0.566680
vt 0.264600 0.369430
vt 0.307320 0.469360
vt 0.292980 0.498260
vt 0.437300 0.807670
vt 0.043545 0.553680
vt 0.049744 0.344420
vt 0.055403 0.140170
vt 0.216810 0.159830
vt 0.354520 0.474850
vt 0.220240 0.055244
vt 0.380200 0.425090
vt 0.532680 0.441970
vt 0.573520 0.375870
vt 0.791680 0.400420
vt 0.954710 0.136690
vt 0.717650 0.838640
vt 0.721320 0.695250
vt 0.937990 0.720020
vn -0.0283 0.8644 0.5020
vn 0.5577 -0.8295 0.0315
vn 0.4968 0.8674 0.0267
vn 0.0297 -0.8489 -0.5278
vn -0.0332 -0.8430 0.5369
vn 0.5458 -0.8372 0.0351
vn 0.0299 0.8468 -0.5311
vn -0.0284 0.8621 0.5059
vn 0.4982 0.8667 0.0251
vn -0.0292 0.8633 0.5038
vn 0.4999 0.8656 0.0282
vn -0.9984 0.0030 -0.0564
usemtl None
s off
f 2/1/1 1/2/1 7/3/1
f 2/1/2 9/4/2 15/5/2 12/6/2 10/7/2 7/3/2
f 7/3/3 1/2/3 3/8/3 10/7/3
f 9/4/4 8/9/4 16/10/4 15/5/4
f 16/10/5 20/11/5 19/12/5 11/13/5 12/6/5 15/5/5
f 19/12/6 22/14/6 13/15/6 11/13/6
f 13/15/7 14/16/7 18/17/7 17/18/7 21/19/7 22/14/7
f 3/8/8 4/20/8 14/16/8 13/15/8 11/13/8 12/6/8 10/7/8
f 4/20/9 6/21/9 18/17/9 14/16/9
f 6/21/10 5/22/10 17/18/10 18/17/10
f 5/22/11 21/19/11 17/18/11
f 8/9/12 16/10/12 20/11/12
