# Blender v2.92.0 OBJ File: ''
# www.blender.org
mtllib CG10_500_038070_0042.mtl
o CG10_500_038070_0042
v 224.158600 75.000000 -14.410275
v 10.932400 75.000000 -27.385868
v 173.860519 115.316284 -68.239861
v 134.196075 115.375572 -70.728249
v 96.954620 144.986053 -110.281891
v 191.175430 75.000000 -117.185204
v 230.322983 75.000000 -114.656586
v 102.585464 145.000000 -201.780685
v 27.334290 75.000000 -294.674469
v 201.473190 75.000000 -283.966125
v 224.158600 0.000000 -14.410275
v 10.932400 0.000000 -27.385868
v 27.334290 0.000000 -294.674469
v 201.473190 0.000000 -283.966125
v 191.175430 0.000000 -117.185204
v 230.322983 0.000000 -114.656586
vn -0.0405 -0.7782 0.6267
vn 0.5976 0.8009 0.0369
vn -0.0382 -0.7829 0.6209
vn 0.6006 0.7987 0.0369
vn 0.6536 -0.7558 0.0401
vn -0.0378 0.7826 0.6214
vn 0.0000 -1.0000 0.0000
vn 0.0607 0.0000 -0.9982
vn 0.9981 0.0000 0.0612
vn -0.0614 0.0000 0.9981
vn -0.9981 0.0000 -0.0616
vn -0.0645 0.0000 0.9979
vn -0.9981 0.0000 -0.0614
usemtl None
s off
f 4//1 6//1 7//1 3//1
f 5//2 4//2 6//2 10//2 8//2
f 8//3 9//3 10//3
f 3//4 1//4 7//4
f 2//5 9//5 8//5 5//5
f 2//6 1//6 3//6 4//6 5//6
f 11//7 12//7 13//7 14//7 15//7 16//7
f 1//8 11//8 12//8 2//8
f 2//9 12//9 13//9 9//9
f 9//10 13//10 14//10 10//10
f 10//11 14//11 15//11 6//11
f 6//12 15//12 16//12 7//12
f 7//13 16//13 11//13 1//13
