# Blender v2.92.0 OBJ File: ''
# www.blender.org
mtllib CG10_500_045073_0021.mtl
o CG10_500_045073_0021
v 255.463562 75.000000 -11.576575
v 14.365610 75.000000 -109.317711
v 280.442566 144.731949 -73.111465
v 39.429272 145.000000 -171.093750
v 306.278656 75.000000 -136.791870
v 65.376686 75.000000 -235.014038
v 255.463562 0.000000 -11.576575
v 14.365610 0.000000 -109.317711
v 65.376686 0.000000 -235.014038
v 306.278656 0.000000 -136.791870
vn -0.2721 0.6897 0.6711
vn 0.2689 0.7019 -0.6595
vn -0.9266 -0.0001 -0.3760
vn 0.9266 -0.0001 0.3760
vn 0.0000 -1.0000 0.0000
vn 0.3757 0.0000 -0.9267
vn 0.9266 0.0000 0.3760
vn -0.3776 0.0000 0.9260
vn -0.9266 0.0000 -0.3760
usemtl None
s off
f 2//1 1//1 3//1 4//1
f 3//2 5//2 6//2 4//2
f 2//3 4//3 6//3
f 5//4 3//4 1//4
f 7//5 8//5 9//5 10//5
f 1//6 7//6 8//6 2//6
f 2//7 8//7 9//7 6//7
f 6//8 9//8 10//8 5//8
f 5//9 10//9 7//9 1//9
