# Blender v2.92.0 OBJ File: ''
# www.blender.org
mtllib CG10_500_040073_0024.mtl
o CG10_500_040073_0024
v 70.015068 75.000000 -306.771515
v 26.202879 75.000000 -197.183289
v 17.273870 75.000000 -120.412407
v 45.083004 75.000000 -189.176788
v 96.225906 118.690514 -228.270523
v 117.990883 118.868546 -219.288315
v 134.941238 144.958267 -171.892181
v 160.679276 145.000000 -161.533112
v 128.056610 75.000000 -75.569954
v 119.047592 75.000000 -53.323704
v 216.471649 115.552658 -185.062500
v 189.465546 111.681068 -102.678558
v 180.676117 111.704781 -80.894058
v 212.368301 75.000000 -16.010563
v 251.020111 75.000000 -112.216957
v 283.530060 115.719566 -157.982208
v 318.759064 75.000000 -84.617508
v 361.045624 75.000000 -190.371918
v 70.015068 0.000000 -306.771515
v 26.202879 0.000000 -197.183289
v 45.083004 0.000000 -189.176788
v 17.273870 0.000000 -120.412407
v 128.056610 0.000000 -75.569954
v 119.047592 0.000000 -53.323704
v 212.368301 0.000000 -16.010563
v 251.020111 0.000000 -112.216957
v 318.759064 0.000000 -84.617508
v 361.045624 0.000000 -190.371918
vn -0.2273 0.7956 0.5616
vn 0.5698 -0.7888 0.2304
vn 0.2403 -0.7882 -0.5666
vn -0.5875 0.7744 -0.2349
vn -0.5722 0.7867 -0.2317
vn -0.2241 0.7973 0.5605
vn 0.5243 0.8251 0.2106
vn -0.2113 -0.8224 0.5282
vn -0.2254 0.8019 0.5533
vn 0.5217 0.8272 0.2086
vn 0.0000 1.0000 0.0000
vn -0.9285 0.0000 -0.3712
vn -0.3904 0.0000 0.9206
vn -0.9271 0.0000 -0.3749
vn -0.3752 0.0000 0.9269
vn -0.9269 0.0000 -0.3754
vn -0.3713 0.0000 0.9285
vn 0.9279 0.0000 0.3728
vn -0.3773 0.0000 0.9261
vn 0.9285 0.0000 0.3713
vn 0.3714 0.0000 -0.9285
usemtl None
s off
f 3//1 9//1 12//1 8//1 7//1
f 3//2 4//2 6//2 7//2
f 4//3 2//3 5//3 6//3
f 2//4 5//4 1//4
f 9//5 10//5 13//5 12//5
f 10//6 14//6 13//6
f 13//7 14//7 15//7 11//7 8//7 12//7
f 7//8 6//8 5//8 1//8 18//8 16//8 11//8 8//8
f 11//9 15//9 17//9 16//9
f 17//10 18//10 16//10
f 19//11 20//11 21//11 22//11 23//11 24//11 25//11 26//11 27//11 28//11
f 1//12 19//12 20//12 2//12
f 2//13 20//13 21//13 4//13
f 4//14 21//14 22//14 3//14
f 3//15 22//15 23//15 9//15
f 9//16 23//16 24//16 10//16
f 10//17 24//17 25//17 14//17
f 14//18 25//18 26//18 15//18
f 15//19 26//19 27//19 17//19
f 17//20 27//20 28//20 18//20
f 18//21 28//21 19//21 1//21
