# Blender v2.92.0 OBJ File: ''
# www.blender.org
mtllib CG10_500_038071_0041.mtl
o CG10_500_038071_0041
v 16.936434 75.000000 -66.135117
v 101.924057 75.000000 -272.589539
v 83.535294 117.387306 -92.057999
v 105.152664 117.418983 -144.470001
v 148.846268 144.991287 -162.236221
v 131.231812 75.000000 -78.705467
v 110.174431 75.000000 -27.744936
v 246.397293 145.000000 -122.064690
v 290.384521 75.000000 -13.147906
v 354.409637 75.000000 -168.645248
v 16.936434 0.000000 -66.135117
v 101.924057 0.000000 -272.589539
v 354.409637 0.000000 -168.645248
v 290.384521 0.000000 -13.147906
v 131.231812 0.000000 -78.705467
v 110.174431 0.000000 -27.744936
vn -0.2481 0.7584 0.6027
vn 0.6034 0.7575 0.2493
vn -0.2439 0.7680 0.5921
vn 0.5998 0.7611 0.2469
vn 0.2434 0.7689 -0.5912
vn 0.5862 -0.7734 0.2413
vn 0.0000 -1.0000 0.0000
vn 0.9247 0.0000 0.3807
vn -0.3807 0.0000 0.9247
vn -0.9247 0.0000 -0.3807
vn 0.3809 0.0000 -0.9246
vn -0.9242 0.0000 -0.3819
vn 0.3807 0.0000 -0.9247
usemtl None
s off
f 1//1 7//1 3//1
f 7//2 6//2 4//2 3//2
f 6//3 9//3 8//3 5//3 4//3
f 9//4 10//4 8//4
f 10//5 2//5 5//5 8//5
f 1//6 2//6 5//6 4//6 3//6
f 11//7 12//7 13//7 14//7 15//7 16//7
f 1//8 11//8 12//8 2//8
f 2//9 12//9 13//9 10//9
f 10//10 13//10 14//10 9//10
f 9//11 14//11 15//11 6//11
f 6//12 15//12 16//12 7//12
f 7//13 16//13 11//13 1//13
