# Blender v2.92.0 OBJ File: ''
# www.blender.org
mtllib CG10_500_043061_0013_roof.mtl
o CG10_500_043061_0013_roof
v 398.643585 75.000000 -12.180639
v 138.204315 75.000000 -25.833563
v 416.149475 75.000000 -86.752663
v 402.550842 75.000000 -87.118980
v 143.419983 75.000000 -116.283394
v 19.571039 75.000000 -122.933624
v 312.358673 145.000000 -110.240623
v 244.535553 144.998001 -113.793434
v 348.593628 118.731651 -147.387695
v 419.185394 118.098328 -144.634293
v 78.439224 112.272812 -171.127548
v 200.212326 112.330490 -164.668243
v 422.521973 75.000000 -208.518295
v 25.134609 75.000000 -229.317474
v 398.643585 0.000000 -12.180639
v 138.204315 0.000000 -25.833563
v 143.419983 0.000000 -116.283394
v 19.571039 0.000000 -122.933624
v 25.134609 0.000000 -229.317474
v 422.521973 0.000000 -208.518295
v 416.149475 0.000000 -86.752663
v 402.550842 0.000000 -87.118980
vt 0.044178 0.489900
vt 0.056737 0.048475
vt 0.177060 0.289930
vt 0.908690 0.638510
vt 0.939390 0.640030
vt 0.946240 0.399860
vt 0.786890 0.388430
vt 0.323750 0.517500
vt 0.451950 0.316730
vt 0.899870 0.949460
vt 0.311970 0.892810
vt 0.552000 0.527830
vt 0.705100 0.542570
vt 0.953770 0.134780
vn 0.5515 -0.8337 0.0288
vn -0.0161 0.8024 0.5966
vn 0.0315 -0.8089 -0.5871
vn 0.0314 -0.8002 -0.5989
vn -0.0292 -0.8293 0.5580
vn 0.5683 -0.8221 0.0328
vn 0.6077 0.7935 0.0317
vn 0.9986 -0.0002 0.0523
usemtl None
s off
f 6/1/1 14/2/1 11/3/1
f 4/4/2 3/5/2 10/6/2 9/7/2
f 5/8/3 6/1/3 11/3/3 12/9/3
f 1/10/4 2/11/4 8/12/4 7/13/4
f 14/2/5 13/14/5 10/6/5 9/7/5 7/13/5 8/12/5 12/9/5 11/3/5
f 2/11/6 5/8/6 12/9/6 8/12/6
f 1/10/7 4/4/7 9/7/7 7/13/7
f 13/14/8 10/6/8 3/5/8
