# Blender v2.92.0 OBJ File: ''
# www.blender.org
mtllib CG10_500_042069_0037.mtl
o CG10_500_042069_0037
v 296.972656 75.000000 -148.870178
v 72.687920 75.000000 -243.811783
v 267.775574 145.000000 -80.313599
v 43.598396 144.688217 -175.570068
v 238.198532 75.000000 -10.925509
v 14.174136 75.000000 -106.482048
v 296.972656 0.000000 -148.870178
v 72.687920 0.000000 -243.811783
v 14.174136 0.000000 -106.482048
v 238.198532 0.000000 -10.925509
vn 0.2669 -0.7330 -0.6257
vn -0.2669 -0.7288 0.6305
vn 0.9200 0.0002 0.3920
vn -0.9200 0.0002 -0.3920
vn 0.0000 1.0000 0.0000
vn 0.3898 0.0000 -0.9209
vn -0.9200 0.0000 -0.3920
vn -0.3923 0.0000 0.9198
vn 0.9200 0.0000 0.3920
usemtl None
s off
f 6//1 4//1 3//1 5//1
f 4//2 2//2 1//2 3//2
f 2//3 4//3 6//3
f 5//4 3//4 1//4
f 7//5 8//5 9//5 10//5
f 1//6 7//6 8//6 2//6
f 2//7 8//7 9//7 6//7
f 6//8 9//8 10//8 5//8
f 5//9 10//9 7//9 1//9
