# Blender v2.92.0 OBJ File: ''
# www.blender.org
mtllib CG10_500_039058_0030.mtl
o CG10_500_039058_0030
v 188.438065 75.000000 -15.173966
v 351.666290 75.000000 -91.143051
v 87.998566 75.000000 -57.641792
v 154.316956 75.000000 -88.508171
v 233.482437 145.000000 -132.868973
v 205.038696 144.994873 -193.985504
v 193.064545 138.071182 -198.503983
v 129.002640 138.068192 -168.683441
v 247.161514 75.000000 -315.633392
v 17.654799 75.000000 -208.783401
v 188.438065 0.000000 -15.173966
v 351.666290 0.000000 -91.143051
v 247.161514 0.000000 -315.633392
v 17.654799 0.000000 -208.783401
v 87.998566 0.000000 -57.641792
v 154.316956 0.000000 -88.508171
vn 0.5548 -0.7910 -0.2581
vn 0.2632 0.7816 0.5656
vn 0.5584 0.7878 -0.2599
vn 0.2546 0.7975 0.5470
vn 0.5442 -0.7998 -0.2533
vn 0.2547 -0.7974 0.5470
vn 0.0000 1.0000 0.0000
vn 0.4220 0.0000 0.9066
vn 0.9066 0.0000 -0.4220
vn -0.4221 0.0000 -0.9066
vn -0.9066 0.0000 0.4220
vn -0.9067 0.0000 0.4219
usemtl None
s off
f 1//1 4//1 7//1 6//1 5//1
f 1//2 2//2 5//2
f 2//3 9//3 6//3 5//3
f 3//4 4//4 7//4 8//4
f 3//5 10//5 8//5
f 8//6 10//6 9//6 6//6 7//6
f 11//7 12//7 13//7 14//7 15//7 16//7
f 1//8 11//8 12//8 2//8
f 2//9 12//9 13//9 9//9
f 9//10 13//10 14//10 10//10
f 10//11 14//11 15//11 3//11
f 3//8 15//8 16//8 4//8
f 4//12 16//12 11//12 1//12
