# Blender v2.92.0 OBJ File: ''
# www.blender.org
mtllib CG10_500_041072_0017.mtl
o CG10_500_041072_0017
v 110.139313 75.000000 -342.401489
v 14.213401 75.000000 -107.773926
v 151.337021 127.794067 -256.905762
v 123.939072 127.982643 -189.227158
v 137.171890 144.963898 -161.682205
v 236.398071 75.000000 -290.805267
v 209.438339 75.000000 -223.582779
v 194.362045 145.000000 -138.365768
v 305.576965 75.000000 -184.466232
v 237.029922 75.000000 -16.722231
v 110.139313 0.000000 -342.401489
v 14.213401 0.000000 -107.773926
v 237.029922 0.000000 -16.722231
v 305.576965 0.000000 -184.466232
v 209.438339 0.000000 -223.582779
v 236.398071 0.000000 -290.805267
vn -0.2222 0.8094 0.5437
vn 0.5864 0.7738 0.2396
vn 0.2417 0.7692 -0.5915
vn -0.5549 0.8004 -0.2269
vn 0.2402 0.7705 -0.5904
vn 0.5780 0.7824 0.2318
vn 0.0000 1.0000 0.0000
vn -0.9256 0.0000 -0.3784
vn -0.3783 0.0000 0.9257
vn 0.9257 0.0000 0.3783
vn 0.3769 0.0000 -0.9263
vn 0.9281 0.0000 0.3722
vn 0.3783 0.0000 -0.9257
usemtl None
s off
f 2//1 10//1 8//1 5//1
f 10//2 9//2 8//2
f 6//3 1//3 3//3
f 2//4 5//4 4//4 3//4 1//4
f 5//5 8//5 9//5 7//5 4//5
f 4//6 7//6 6//6 3//6
f 11//7 12//7 13//7 14//7 15//7 16//7
f 1//8 11//8 12//8 2//8
f 2//9 12//9 13//9 10//9
f 10//10 13//10 14//10 9//10
f 9//11 14//11 15//11 7//11
f 7//12 15//12 16//12 6//12
f 6//13 16//13 11//13 1//13
