# Blender v2.92.0 OBJ File: ''
# www.blender.org
mtllib CG10_500_038071_0043_roof.mtl
o CG10_500_038071_0043_roof
v 83.277779 75.000000 -311.464111
v 338.283936 75.000000 -203.776123
v 125.704079 144.793869 -200.642960
v 224.372330 145.000000 -158.701416
v 212.620789 144.967804 -130.771790
v 110.572090 75.000000 -116.925949
v 17.860037 75.000000 -156.585938
v 96.553444 75.000000 -83.482132
v 258.578796 75.000000 -15.043725
v 83.277779 0.000000 -311.464111
v 338.283936 0.000000 -203.776123
v 258.578796 0.000000 -15.043725
v 96.553444 0.000000 -83.482132
v 110.572090 0.000000 -116.925949
v 17.860037 0.000000 -156.585938
vt 0.272750 0.743920
vt 0.600620 0.598860
vt 0.730450 0.953850
vt 0.955600 0.374920
vt 0.633820 0.513190
vt 0.355100 0.384530
vt 0.235250 0.044589
vt 0.050452 0.519680
vt 0.312350 0.641330
vn 0.2409 -0.7852 -0.5704
vn 0.5759 0.7805 0.2432
vn -0.2459 -0.7750 0.5822
vn -0.5962 0.7623 -0.2518
vn -0.2533 0.7651 0.5921
vn 0.5709 -0.7853 0.2393
usemtl None
s off
f 8/1/1 5/2/1 9/3/1
f 9/3/2 2/4/2 4/5/2 5/2/2
f 4/5/3 3/6/3 1/7/3 2/4/3
f 1/7/4 7/8/4 3/6/4
f 7/8/5 6/9/5 4/5/5 3/6/5
f 8/1/6 6/9/6 4/5/6 5/2/6
