# Blender v2.92.0 OBJ File: ''
# www.blender.org
mtllib CG10_500_035060_0032.mtl
o CG10_500_035060_0032
v 320.144989 75.000000 -251.511429
v 310.725006 75.000000 -80.893883
v 229.797501 145.000000 -169.749924
v 130.182892 75.000000 -90.870407
v 125.881622 75.000000 -12.946223
v 106.792473 144.986511 -176.530746
v 78.011002 121.891457 -150.280396
v 73.405251 121.883339 -66.666069
v 28.948437 75.000000 -267.524445
v 15.290338 75.000000 -19.052126
v 320.144989 0.000000 -251.511429
v 310.725006 0.000000 -80.893883
v 130.182892 0.000000 -90.870407
v 125.881622 0.000000 -12.946223
v 15.290338 0.000000 -19.052126
v 28.948437 0.000000 -267.524445
vn 0.0345 0.7777 -0.6277
vn 0.6316 0.7745 0.0349
vn -0.0353 0.7692 0.6381
vn 0.6453 0.7631 0.0356
vn -0.0374 0.7345 0.6776
vn -0.6449 0.7634 -0.0355
vn 0.0000 -1.0000 0.0000
vn -0.9985 0.0000 -0.0551
vn 0.0552 0.0000 -0.9985
vn 0.0551 0.0000 -0.9985
vn 0.9985 0.0000 0.0549
vn -0.0549 0.0000 0.9985
usemtl None
s off
f 9//1 6//1 3//1 1//1
f 2//2 1//2 3//2
f 4//3 2//3 3//3 6//3 7//3
f 5//4 4//4 7//4 8//4
f 10//5 5//5 8//5
f 10//6 8//6 7//6 6//6 9//6
f 11//7 12//7 13//7 14//7 15//7 16//7
f 1//8 11//8 12//8 2//8
f 2//9 12//9 13//9 4//9
f 4//8 13//8 14//8 5//8
f 5//10 14//10 15//10 10//10
f 10//11 15//11 16//11 9//11
f 9//12 16//12 11//12 1//12
