# Blender v2.92.0 OBJ File: ''
# www.blender.org
mtllib CG10_500_044067_0033.mtl
o CG10_500_044067_0033
v 173.281219 75.000000 -17.446829
v 257.103851 75.000000 -231.289948
v 199.252975 75.000000 -253.691223
v 212.512894 75.000000 -289.443726
v 123.659653 145.000000 -127.208931
v 144.722504 144.996887 -180.932648
v 140.474213 119.278473 -256.694275
v 127.175301 119.555573 -221.847168
v 110.537666 75.000000 -329.440002
v 12.861690 75.000000 -80.352509
v 173.281219 0.000000 -17.446829
v 257.103851 0.000000 -231.289948
v 199.252975 0.000000 -253.691223
v 212.512894 0.000000 -289.443726
v 110.537666 0.000000 -329.440002
v 12.861690 0.000000 -80.352509
vn -0.2336 0.7685 0.5957
vn 0.5867 0.7765 0.2300
vn 0.5875 -0.7757 0.2304
vn -0.2255 -0.7810 0.5824
vn 0.5805 0.7853 0.2153
vn -0.2245 -0.7886 0.5724
vn 0.0000 1.0000 0.0000
vn 0.9310 0.0000 0.3649
vn 0.3611 0.0000 -0.9325
vn 0.9376 0.0000 0.3477
vn 0.3651 0.0000 -0.9310
vn -0.9310 0.0000 -0.3651
vn -0.3651 0.0000 0.9310
usemtl None
s off
f 10//1 1//1 5//1
f 1//2 2//2 6//2 5//2
f 5//3 10//3 9//3 7//3 8//3 6//3
f 8//4 3//4 2//4 6//4
f 8//5 3//5 4//5 7//5
f 7//6 9//6 4//6
f 11//7 12//7 13//7 14//7 15//7 16//7
f 1//8 11//8 12//8 2//8
f 2//9 12//9 13//9 3//9
f 3//10 13//10 14//10 4//10
f 4//11 14//11 15//11 9//11
f 9//12 15//12 16//12 10//12
f 10//13 16//13 11//13 1//13
