# Blender v2.92.0 OBJ File: ''
# www.blender.org
mtllib CG10_500_038058_0015.mtl
o CG10_500_038058_0015
v 288.317078 75.000000 -11.156482
v 46.745026 75.000000 -24.049301
v 14.654861 75.000000 -121.173576
v 149.134674 144.999588 -114.946365
v 51.822647 75.000000 -119.189949
v 198.075745 145.000000 -112.334930
v 17.741568 75.000000 -179.009964
v 54.909355 75.000000 -177.026337
v 298.571716 75.000000 -203.300125
v 56.999367 75.000000 -216.187332
v 288.317078 0.000000 -11.156482
v 46.745026 0.000000 -24.049301
v 51.822647 0.000000 -119.189949
v 14.654861 0.000000 -121.173576
v 17.741568 0.000000 -179.009964
v 54.909355 0.000000 -177.026337
v 56.999367 0.000000 -216.187332
v 298.571716 0.000000 -203.300125
vn 0.0314 -0.8087 -0.5874
vn -0.5903 -0.8066 -0.0315
vn -0.0313 -0.8086 0.5876
vn 0.5828 -0.8120 0.0311
vn 0.0000 1.0000 -0.0000
vn 0.0000 -1.0000 0.0000
vn 0.0533 0.0000 -0.9986
vn 0.9986 0.0000 0.0533
vn -0.0533 0.0000 0.9986
vn -0.9986 0.0000 -0.0533
usemtl None
s off
f 2//1 4//1 6//1 1//1
f 1//2 6//2 9//2
f 9//3 6//3 4//3 10//3
f 10//4 4//4 2//4 5//4 8//4
f 3//5 5//5 8//5 7//5
f 11//6 12//6 13//6 14//6 15//6 16//6 17//6 18//6
f 1//7 11//7 12//7 2//7
f 2//8 12//8 13//8 5//8
f 5//7 13//7 14//7 3//7
f 3//8 14//8 15//8 7//8
f 7//9 15//9 16//9 8//9
f 8//8 16//8 17//8 10//8
f 10//9 17//9 18//9 9//9
f 9//10 18//10 11//10 1//10
