# Blender v2.92.0 OBJ File: ''
# www.blender.org
mtllib CG10_500_040059_0044_roof.mtl
o CG10_500_040059_0044_roof
v 26.799046 75.000000 -352.551788
v 9.719753 75.000000 -23.186327
v 68.920464 112.837273 -103.419121
v 67.449295 112.898727 -73.324356
v 85.692886 117.612114 -292.921509
v 86.050644 118.310204 -280.237610
v 122.965546 145.000000 -243.412323
v 117.927292 144.996826 -146.341171
v 114.124458 75.000000 -47.586853
v 112.747322 75.000000 -17.846571
v 142.057434 75.000000 -346.599945
v 143.537079 75.000000 -332.966431
v 216.108780 75.000000 -328.621307
v 201.276031 75.000000 -43.068913
v 26.799046 0.000000 -352.551788
v 9.719753 0.000000 -23.186327
v 112.747322 0.000000 -17.846571
v 114.124458 0.000000 -47.586853
v 201.276031 0.000000 -43.068913
v 216.108780 0.000000 -328.621307
v 143.537079 0.000000 -332.966431
v 142.057434 0.000000 -346.599945
vt 0.043008 0.937330
vt 0.498880 0.951770
vt 0.298450 0.801830
vt 0.504980 0.871390
vt 0.304960 0.720490
vt 0.890600 0.883600
vt 0.521800 0.604480
vt 0.956230 0.111830
vt 0.544100 0.342130
vt 0.635120 0.100090
vt 0.380760 0.242600
vt 0.628570 0.063243
vt 0.379170 0.208320
vt 0.118580 0.047157
vn -0.0301 0.8137 0.5805
vn -0.6205 -0.7837 -0.0287
vn 0.0299 -0.8160 -0.5772
vn -0.6191 -0.7846 -0.0322
vn -0.0365 -0.7914 0.6102
vn -0.5642 -0.8234 0.0612
vn -0.0310 -0.7985 0.6012
vn 0.5663 -0.8237 0.0294
usemtl None
s off
f 2/1/1 10/2/1 4/3/1
f 9/4/2 10/2/2 4/3/2 3/5/2
f 14/6/3 9/4/3 3/5/3 8/7/3
f 13/8/4 14/6/4 8/7/4 7/9/4
f 12/10/5 13/8/5 7/9/5 6/11/5
f 11/12/6 12/10/6 6/11/6 5/13/6
f 1/14/7 11/12/7 5/13/7
f 1/14/8 5/13/8 6/11/8 7/9/8 8/7/8 3/5/8 4/3/8 2/1/8
