# Blender v2.92.0 OBJ File: ''
# www.blender.org
mtllib CG10_500_048077_0020_roof.mtl
o CG10_500_048077_0020_roof
v 154.176971 75.000000 -16.963982
v 15.978196 75.000000 -274.440216
v 135.963318 145.000000 -236.642181
v 194.440536 144.971375 -127.618111
v 230.070938 121.873383 -117.367081
v 261.715118 121.854927 -134.340179
v 164.373215 75.000000 -354.020325
v 249.746216 75.000000 -194.750443
v 280.497589 75.000000 -211.219086
v 333.126404 75.000000 -113.080582
v 154.176971 0.000000 -16.963982
v 15.978196 0.000000 -274.440216
v 164.373215 0.000000 -354.020325
v 249.746216 0.000000 -194.750443
v 280.497589 0.000000 -211.219086
v 333.126404 0.000000 -113.080582
vt 0.441770 0.954270
vt 0.045783 0.260270
vt 0.389580 0.362150
vt 0.557140 0.656020
vt 0.470980 0.045767
vt 0.715610 0.475070
vt 0.659230 0.683650
vt 0.749900 0.637900
vt 0.803720 0.430680
vt 0.954520 0.695200
vn 0.5491 -0.7821 -0.2947
vn -0.2901 0.7894 -0.5410
vn -0.5784 -0.7546 0.3100
vn -0.2939 0.7826 -0.5488
vn -0.5844 -0.7485 0.3134
vn -0.3150 -0.7462 -0.5865
usemtl None
s off
f 1/1/1 2/2/1 3/3/1 4/4/1
f 3/3/2 7/5/2 2/2/2
f 7/5/3 8/6/3 5/7/3 4/4/3 3/3/3
f 5/7/4 6/8/4 9/9/4 8/6/4
f 9/9/5 10/10/5 6/8/5
f 10/10/6 1/1/6 4/4/6 5/7/6 6/8/6
