# Blender v2.92.0 OBJ File: ''
# www.blender.org
mtllib CG10_500_038063_0003.mtl
o CG10_500_038063_0003
v 491.972168 75.000000 -353.155670
v 25.720650 75.000000 -237.517731
v 93.744827 145.000000 -141.285522
v 479.196686 144.926819 -237.002090
v 546.511963 75.000000 -133.867752
v 80.329201 75.000000 -17.952101
v 491.972168 0.000000 -353.155670
v 25.720650 0.000000 -237.517731
v 80.329201 0.000000 -17.952101
v 546.511963 0.000000 -133.867752
vn -0.8401 -0.5006 0.2089
vn -0.1243 -0.8571 -0.5000
vn -0.8280 0.5215 0.2059
vn -0.1294 0.8432 -0.5218
vn 0.0000 1.0000 0.0000
vn -0.2407 0.0000 -0.9706
vn -0.9704 0.0000 0.2414
vn 0.2413 0.0000 0.9705
vn 0.9704 0.0000 -0.2414
usemtl None
s off
f 5//1 4//1 1//1
f 4//2 5//2 6//2 3//2
f 6//3 3//3 2//3
f 2//4 3//4 4//4 1//4
f 7//5 8//5 9//5 10//5
f 1//6 7//6 8//6 2//6
f 2//7 8//7 9//7 6//7
f 6//8 9//8 10//8 5//8
f 5//9 10//9 7//9 1//9
