# Blender v2.92.0 OBJ File: ''
# www.blender.org
mtllib CG10_500_048075_0011_roof.mtl
o CG10_500_048075_0011_roof
v 139.709351 75.000000 -216.456375
v 191.608459 75.000000 -214.440643
v 26.173681 75.000000 -209.700546
v 139.275833 75.000000 -205.294647
v 191.174698 75.000000 -203.272919
v 336.030090 75.000000 -197.630081
v 435.637726 75.000000 -123.426949
v 332.297272 75.000000 -127.449532
v 105.620872 145.000000 -121.028671
v 247.211548 144.991776 -115.523064
v 276.847839 119.078773 -84.876335
v 275.941742 118.964172 -65.241264
v 19.764412 75.000000 -44.681717
v 220.468475 75.000000 -36.890812
v 431.244537 75.000000 -10.315279
v 219.753693 75.000000 -18.529480
v 326.283661 75.000000 -14.388737
v 139.709351 0.000000 -216.456375
v 191.608459 0.000000 -214.440643
v 191.174698 0.000000 -203.272919
v 336.030090 0.000000 -197.630081
v 332.297272 0.000000 -127.449532
v 435.637726 0.000000 -123.426949
v 431.244537 0.000000 -10.315279
v 326.283661 0.000000 -14.388737
v 219.753693 0.000000 -18.529480
v 220.468475 0.000000 -36.890812
v 19.764412 0.000000 -44.681717
v 26.173681 0.000000 -209.700546
v 139.275833 0.000000 -205.294647
vt 0.043343 0.803160
vt 0.057398 0.076209
vt 0.231620 0.466830
vt 0.483480 0.837490
vt 0.607120 0.626100
vt 0.542130 0.491090
vt 0.481920 0.918370
vt 0.605140 0.712590
vt 0.715530 0.936610
vt 0.728720 0.438550
vt 0.736910 0.129380
vt 0.945710 0.954560
vt 0.955350 0.456270
vt 0.305430 0.095618
vt 0.419240 0.104520
vt 0.306380 0.046448
vt 0.420190 0.055328
vn 0.6450 -0.7638 0.0251
vn -0.0256 0.7510 0.6598
vn 0.6286 -0.7774 0.0245
vn 0.0260 -0.7434 -0.6684
vn 0.6377 0.7695 0.0339
vn 0.0000 1.0000 0.0000
vn -0.0247 -0.7738 0.6330
vn 0.0000 -1.0000 -0.0000
usemtl None
s off
f 13/1/1 3/2/1 9/3/1
f 13/1/2 14/4/2 11/5/2 10/6/2 9/3/2
f 16/7/3 14/4/3 11/5/3 12/8/3
f 17/9/4 16/7/4 12/8/4
f 17/9/5 8/10/5 6/11/5 10/6/5 11/5/5 12/8/5
f 17/9/6 15/12/6 7/13/6 8/10/6
f 3/2/7 4/14/7 5/15/7 6/11/7 10/6/7 9/3/7
f 4/14/8 1/16/8 2/17/8 5/15/8
