# Blender v2.92.0 OBJ File: ''
# www.blender.org
mtllib CG10_500_049063_0067_roof.mtl
o CG10_500_049063_0067_roof
v 119.762871 75.000000 -19.488510
v 10.379683 75.000000 -25.824297
v 120.703392 75.000000 -32.442268
v 238.635529 75.000000 -25.838455
v 66.696815 115.568466 -80.127045
v 67.527725 115.637619 -92.920509
v 133.478867 126.061165 -103.976349
v 170.435410 124.914017 -100.283737
v 108.255249 144.977615 -132.154785
v 109.828857 145.000000 -158.843613
v 246.729324 75.000000 -165.551498
v 210.168884 75.000000 -170.944336
v 76.409256 117.822098 -196.930695
v 214.698486 75.000000 -246.243805
v 140.443512 75.000000 -250.403931
v 81.564552 117.669998 -289.472717
v 145.411331 75.000000 -343.504791
v 29.151171 75.000000 -350.242584
v 40.429504 75.000000 -349.588959
v 138.890533 75.000000 -343.882690
v 43.485168 75.000000 -402.319855
v 141.946243 75.000000 -396.614227
v 119.762871 0.000000 -19.488510
v 10.379683 0.000000 -25.824297
v 29.151171 0.000000 -350.242584
v 40.429504 0.000000 -349.588959
v 43.485168 0.000000 -402.319855
v 141.946243 0.000000 -396.614227
v 138.890533 0.000000 -343.882690
v 145.411331 0.000000 -343.504791
v 140.443512 0.000000 -250.403931
v 214.698486 0.000000 -246.243805
v 210.168884 0.000000 -170.944336
v 246.729324 0.000000 -165.551498
v 238.635529 0.000000 -25.838455
v 120.703392 0.000000 -32.442268
vt 0.040231 0.938660
vt 0.464200 0.953710
vt 0.258510 0.809670
vt 0.467840 0.922940
vt 0.261740 0.779290
vt 0.924940 0.938630
vt 0.660600 0.761800
vt 0.517360 0.753030
vt 0.419590 0.686090
vt 0.956320 0.606770
vt 0.814610 0.593960
vt 0.425690 0.622700
vt 0.832160 0.415100
vt 0.296160 0.532230
vt 0.544350 0.405220
vt 0.563610 0.184070
vt 0.316140 0.312420
vt 0.112990 0.168070
vt 0.538340 0.183180
vt 0.156700 0.169620
vt 0.168550 0.044371
vt 0.550180 0.057923
vn -0.0333 0.8170 0.5757
vn 0.5762 0.8162 0.0418
vn -0.0323 0.8162 0.5768
vn 0.5667 0.8233 0.0328
vn -0.0803 -0.8349 0.5446
vn -0.5746 -0.8177 -0.0346
vn 0.0336 0.7994 -0.5999
vn 0.5732 0.8189 0.0306
vn 0.0344 0.8037 -0.5940
vn 0.0000 -1.0000 0.0000
vn -0.6062 0.7946 -0.0351
usemtl None
s off
f 2/1/1 1/2/1 5/3/1
f 1/2/2 3/4/2 6/5/2 5/3/2
f 3/4/3 4/6/3 8/7/3 7/8/3 9/9/3 6/5/3
f 4/6/4 11/10/4 8/7/4
f 8/7/5 7/8/5 12/11/5 11/10/5
f 7/8/6 9/9/6 10/12/6 14/13/6 12/11/6
f 13/14/7 10/12/7 14/13/7 15/15/7
f 15/15/8 17/16/8 16/17/8 13/14/8
f 18/18/9 16/17/9 17/16/9 20/19/9 19/20/9
f 19/20/10 21/21/10 22/22/10 20/19/10
f 18/18/11 2/1/11 5/3/11 6/5/11 9/9/11 10/12/11 13/14/11 16/17/11
