# Blender v2.92.0 OBJ File: ''
# www.blender.org
mtllib CG10_500_045070_0017.mtl
o CG10_500_045070_0017
v 129.050430 75.000000 -361.695892
v 12.821023 75.000000 -83.286865
v 206.428223 144.985519 -329.393402
v 90.214821 145.000000 -50.977638
v 171.562149 75.000000 -17.017986
v 287.758667 75.000000 -295.440735
v 129.050430 0.000000 -361.695892
v 12.821023 0.000000 -83.286865
v 171.562149 0.000000 -17.017986
v 287.758667 0.000000 -295.440735
vn 0.5913 -0.7677 0.2469
vn -0.5739 -0.7831 -0.2395
vn 0.3852 0.0000 -0.9228
vn -0.3852 0.0000 0.9228
vn 0.0000 1.0000 0.0000
vn -0.9228 0.0000 -0.3853
vn 0.9229 0.0000 0.3851
usemtl None
s off
f 2//1 1//1 3//1 4//1
f 3//2 6//2 5//2 4//2
f 2//3 4//3 5//3
f 6//4 3//4 1//4
f 7//5 8//5 9//5 10//5
f 1//6 7//6 8//6 2//6
f 2//4 8//4 9//4 5//4
f 5//7 9//7 10//7 6//7
f 6//3 10//3 7//3 1//3
