# Blender v2.92.0 OBJ File: ''
# www.blender.org
mtllib CG10_500_038071_0034_roof.mtl
o CG10_500_038071_0034_roof
v 297.320892 75.000000 -10.721472
v 15.702823 75.000000 -27.033129
v 302.046906 75.000000 -87.862961
v 331.226837 75.000000 -86.088905
v 110.011414 145.000000 -114.133598
v 214.341660 144.995941 -108.085304
v 252.651764 116.481369 -141.979462
v 280.016907 116.511757 -140.353195
v 337.227600 75.000000 -189.613113
v 26.172754 75.000000 -207.661057
v 297.320892 0.000000 -10.721472
v 15.702823 0.000000 -27.033129
v 26.172754 0.000000 -207.661057
v 337.227600 0.000000 -189.613113
v 331.226837 0.000000 -86.088905
v 302.046906 0.000000 -87.862961
vt 0.311650 0.478840
vt 0.074144 0.051776
vt 0.044484 0.876560
vt 0.955320 0.134190
vt 0.793250 0.359120
vt 0.715730 0.351690
vt 0.607200 0.506460
vt 0.842270 0.951040
vt 0.855660 0.598800
vt 0.938320 0.606900
vn -0.6167 0.7864 -0.0357
vn -0.0359 -0.7844 0.6193
vn -0.0349 0.7971 0.6028
vn 0.6180 0.7853 0.0379
vn 0.0383 -0.7759 -0.6297
vn 0.6066 0.7942 0.0352
usemtl None
s off
f 5/1/1 10/2/1 2/3/1
f 5/1/2 10/2/2 9/4/2 8/5/2 7/6/2 6/7/2
f 1/8/3 6/7/3 5/1/3 2/3/3
f 1/8/4 3/9/4 7/6/4 6/7/4
f 3/9/5 7/6/5 8/5/5 4/10/5
f 4/10/6 9/4/6 8/5/6
