# Blender v2.92.0 OBJ File: ''
# www.blender.org
mtllib CG10_500_043074_0016_roof.mtl
o CG10_500_043074_0016_roof
v 284.717041 75.000000 -156.668015
v 225.518784 75.000000 -11.367527
v 253.355850 144.934372 -79.691269
v 13.171611 75.000000 -97.742874
v 72.425323 75.000000 -243.179749
v 41.033653 145.000000 -166.131195
v 284.717041 0.000000 -156.668015
v 225.518784 0.000000 -11.367527
v 13.171611 0.000000 -97.742874
v 72.425323 0.000000 -243.179749
vt 0.137240 0.353580
vt 0.847340 0.689920
vt 0.952230 0.390400
vt 0.242230 0.053775
vt 0.044052 0.619680
vt 0.754240 0.955770
vn 0.2430 0.7652 -0.5962
vn -0.2592 0.7258 0.6373
vn 0.9261 -0.0000 0.3773
vn -0.9261 -0.0000 -0.3773
usemtl None
s off
f 6/1/1 3/2/1 1/3/1 5/4/1
f 6/1/2 4/5/2 2/6/2 3/2/2
f 1/3/3 3/2/3 2/6/3
f 4/5/4 6/1/4 5/4/4
