# Blender v2.92.0 OBJ File: ''
# www.blender.org
mtllib CG10_500_036060_0012_roof.mtl
o CG10_500_036060_0012_roof
v 28.526857 75.000000 -273.454071
v 12.629723 75.000000 -24.489218
v 108.394051 144.999969 -105.861443
v 112.766487 145.000000 -174.337463
v 120.512589 139.333847 -181.429169
v 194.648514 139.330460 -176.693497
v 192.565399 75.000000 -12.991680
v 197.863144 75.000000 -95.958099
v 270.997284 75.000000 -91.290619
v 281.603180 75.000000 -257.272491
v 28.526857 0.000000 -273.454071
v 12.629723 0.000000 -24.489218
v 192.565399 0.000000 -12.991680
v 197.863144 0.000000 -95.958099
v 270.997284 0.000000 -91.290619
v 281.603180 0.000000 -257.272491
vt 0.042668 0.914670
vt 0.650560 0.954730
vt 0.366200 0.631140
vt 0.668460 0.665650
vt 0.380970 0.392550
vt 0.407140 0.367840
vt 0.915530 0.681910
vt 0.657600 0.384340
vt 0.096375 0.047198
vt 0.951360 0.103580
vn -0.0399 0.7802 0.6242
vn -0.6130 -0.7891 -0.0391
vn 0.0398 -0.7807 -0.6236
vn -0.6111 0.7906 -0.0390
vn -0.6177 -0.7855 -0.0395
vn 0.0382 0.8006 -0.5979
usemtl None
s off
f 2/1/1 7/2/1 3/3/1
f 8/4/2 7/2/2 3/3/2 4/5/2 5/6/2
f 9/7/3 8/4/3 5/6/3 6/8/3
f 1/9/4 2/1/4 3/3/4 4/5/4
f 10/10/5 9/7/5 6/8/5
f 10/10/6 1/9/6 4/5/6 5/6/6 6/8/6
