# Blender v2.92.0 OBJ File: ''
# www.blender.org
mtllib CG10_500_048073_0001_roof.mtl
o CG10_500_048073_0001_roof
v 18.708044 75.000000 -18.467356
v 139.736908 75.000000 -11.348010
v 21.937864 75.000000 -73.374634
v 269.135712 75.000000 -58.872517
v 14.415090 75.000000 -73.815971
v 142.967865 75.000000 -66.274284
v 272.694366 75.000000 -125.850258
v 308.777863 75.000000 -124.419159
v 109.010544 145.000000 -156.417999
v 193.647385 144.995239 -151.446686
v 227.818604 116.726227 -183.389984
v 264.494019 116.449524 -181.565643
v 314.901398 75.000000 -228.384720
v 24.511808 75.000000 -245.460922
v 18.708044 0.000000 -18.467356
v 139.736908 0.000000 -11.348010
v 142.967865 0.000000 -66.274284
v 269.135712 0.000000 -58.872517
v 272.694366 0.000000 -125.850258
v 308.777863 0.000000 -124.419159
v 314.901398 0.000000 -228.384720
v 24.511808 0.000000 -245.460922
v 14.415090 0.000000 -73.815971
v 21.937864 0.000000 -73.374634
vt 0.043682 0.712780
vt 0.330330 0.391370
vt 0.586810 0.410710
vt 0.815560 0.770920
vt 0.433240 0.742120
vt 0.066478 0.714500
vt 0.056691 0.928140
vt 0.423450 0.955840
vt 0.690360 0.286420
vt 0.826350 0.510310
vt 0.801500 0.293520
vt 0.935690 0.515880
vt 0.954250 0.111340
vt 0.074278 0.044899
vn 0.0365 -0.7826 -0.6215
vn 0.0000 1.0000 0.0000
vn -0.6562 -0.7538 -0.0349
vn 0.0238 -0.8004 -0.5990
vn -0.6558 -0.7539 -0.0386
vn -0.0376 -0.7680 0.6394
vn 0.6147 -0.7880 0.0362
usemtl None
s off
f 5/1/1 9/2/1 10/3/1 4/4/1 6/5/1 3/6/1
f 1/7/2 2/8/2 6/5/2 3/6/2
f 4/4/3 10/3/3 11/9/3 7/10/3
f 7/10/4 11/9/4 12/11/4 8/12/4
f 8/12/5 12/11/5 13/13/5
f 13/13/6 12/11/6 11/9/6 10/3/6 9/2/6 14/14/6
f 14/14/7 9/2/7 5/1/7
