# Blender v2.92.0 OBJ File: ''
# www.blender.org
mtllib CG10_500_041071_0009_roof.mtl
o CG10_500_041071_0009_roof
v 251.342346 75.000000 -191.537491
v 241.822876 75.000000 -68.152084
v 178.738434 75.000000 -197.139053
v 183.838959 75.000000 -263.241211
v 169.217880 75.000000 -73.753731
v 164.530777 75.000000 -13.009477
v 93.370880 144.997559 -94.748222
v 100.959831 145.000000 -193.135147
v 32.235569 75.000000 -274.937775
v 12.940827 75.000000 -24.704971
v 251.342346 0.000000 -191.537491
v 241.822876 0.000000 -68.152084
v 169.217880 0.000000 -73.753731
v 164.530777 0.000000 -13.009477
v 12.940827 0.000000 -24.704971
v 32.235569 0.000000 -274.937775
v 183.838959 0.000000 -263.241211
v 178.738434 0.000000 -197.139053
vt 0.677040 0.315490
vt 0.952050 0.334940
vt 0.916000 0.763360
vt 0.640980 0.743910
vt 0.696360 0.085968
vt 0.382420 0.329390
vt 0.353680 0.671010
vt 0.623220 0.954830
vt 0.122100 0.045355
vt 0.049018 0.914220
vn 0.0000 -1.0000 0.0000
vn 0.6695 0.7410 0.0517
vn 0.0520 0.7368 -0.6742
vn -0.6812 0.7302 -0.0525
vn -0.0521 0.7357 0.6753
usemtl None
s off
f 3/1/1 1/2/1 2/3/1 5/4/1
f 3/1/2 4/5/2 8/6/2 7/7/2 6/8/2 5/4/2
f 4/5/3 9/9/3 8/6/3
f 9/9/4 10/10/4 7/7/4 8/6/4
f 10/10/5 6/8/5 7/7/5
