# Blender v2.92.0 OBJ File: ''
# www.blender.org
mtllib CG10_500_045072_0046_roof.mtl
o CG10_500_045072_0046_roof
v 283.741516 75.000000 -189.199173
v 217.892593 75.000000 -30.273012
v 298.634003 75.000000 -279.977325
v 264.210693 75.000000 -197.691620
v 176.220886 144.762497 -147.351883
v 189.053635 145.000000 -234.688171
v 156.236359 144.885101 -155.885864
v 90.563332 75.000000 -16.852953
v 114.557968 75.000000 -73.494263
v 94.027824 108.591591 -130.063690
v 70.133186 108.399536 -73.057945
v 12.793945 75.000000 -49.074932
v 136.341431 75.000000 -347.224457
v 283.741516 0.000000 -189.199173
v 217.892593 0.000000 -30.273012
v 114.557968 0.000000 -73.494263
v 90.563332 0.000000 -16.852953
v 12.793945 0.000000 -49.074932
v 136.341431 0.000000 -347.224457
v 298.634003 0.000000 -279.977325
v 264.210693 0.000000 -197.691620
vt 0.040875 0.865550
vt 0.289340 0.953830
vt 0.224070 0.799840
vt 0.366000 0.798650
vt 0.300410 0.643660
vt 0.696140 0.917060
vt 0.563010 0.596300
vt 0.499160 0.572920
vt 0.906520 0.481650
vt 0.844120 0.458380
vt 0.604010 0.357020
vt 0.954100 0.232940
vt 0.435600 0.048700
vn -0.2311 0.7972 0.5577
vn 0.5838 0.7733 0.2473
vn -0.2333 0.7966 0.5577
vn 0.5931 0.7667 0.2457
vn 0.2598 0.7587 -0.5974
vn -0.5922 -0.7668 -0.2477
vn -0.2454 -0.7674 0.5923
vn -0.5603 0.7951 -0.2322
usemtl None
s off
f 12/1/1 8/2/1 11/3/1
f 8/2/2 9/4/2 10/5/2 11/3/2
f 9/4/3 2/6/3 5/7/3 7/8/3 10/5/3
f 2/6/4 1/9/4 5/7/4
f 5/7/5 1/9/5 4/10/5 7/8/5
f 7/8/6 6/11/6 3/12/6 4/10/6
f 6/11/7 13/13/7 3/12/7
f 12/1/8 11/3/8 10/5/8 7/8/8 6/11/8 13/13/8
