# Blender v2.92.0 OBJ File: ''
# www.blender.org
mtllib CG10_500_043068_0061.mtl
o CG10_500_043068_0061
v 79.380165 75.000000 -320.787537
v 360.522186 75.000000 -204.987686
v 113.225647 118.012985 -241.710709
v 125.793617 118.264366 -236.153412
v 147.594650 144.762283 -187.046997
v 238.311127 145.000000 -149.321747
v 241.272034 140.714859 -141.762070
v 236.542709 140.585571 -129.843033
v 34.835766 75.000000 -212.676559
v 45.202087 75.000000 -207.774124
v 120.540810 75.000000 -95.562386
v 16.748318 75.000000 -139.126343
v 116.413879 75.000000 -84.695030
v 282.691254 75.000000 -16.155762
v 79.380165 0.000000 -320.787537
v 360.522186 0.000000 -204.987686
v 282.691254 0.000000 -16.155762
v 116.413879 0.000000 -84.695030
v 120.540810 0.000000 -95.562386
v 16.748318 0.000000 -139.126343
v 45.202087 0.000000 -207.774124
v 34.835766 0.000000 -212.676559
vn 0.2285 -0.8002 -0.5544
vn 0.2497 -0.8116 -0.5281
vn 0.5197 -0.8268 0.2154
vn 0.2293 -0.8055 -0.5464
vn -0.5263 0.8265 -0.1999
vn 0.5304 -0.8191 0.2185
vn -0.5607 -0.7951 -0.2311
vn -0.2213 -0.8138 0.5374
vn 0.0000 -1.0000 0.0000
vn -0.3808 0.0000 0.9246
vn -0.9245 0.0000 -0.3811
vn 0.3811 0.0000 -0.9245
vn 0.9349 0.0000 0.3550
vn 0.3870 0.0000 -0.9221
vn 0.9238 0.0000 0.3829
vn 0.4275 0.0000 -0.9040
vn 0.9246 0.0000 0.3810
usemtl None
s off
f 13//1 8//1 14//1
f 9//2 3//2 4//2 10//2
f 10//3 4//3 5//3 12//3
f 12//4 5//4 6//4 7//4 11//4
f 13//5 8//5 7//5 11//5
f 1//6 3//6 9//6
f 14//7 8//7 7//7 6//7 2//7
f 1//8 2//8 6//8 5//8 4//8 3//8
f 15//9 16//9 17//9 18//9 19//9 20//9 21//9 22//9
f 1//10 15//10 16//10 2//10
f 2//11 16//11 17//11 14//11
f 14//12 17//12 18//12 13//12
f 13//13 18//13 19//13 11//13
f 11//14 19//14 20//14 12//14
f 12//15 20//15 21//15 10//15
f 10//16 21//16 22//16 9//16
f 9//17 22//17 15//17 1//17
