# Blender v2.92.0 OBJ File: ''
# www.blender.org
mtllib CG10_500_049063_0035.mtl
o CG10_500_049063_0035
v 147.813553 75.000000 -37.277958
v 195.449158 75.000000 -799.749146
v 71.647438 144.988068 -42.034710
v 119.269974 145.000000 -804.506531
v 7.258028 75.000000 -46.055634
v 54.869541 75.000000 -808.528259
v 147.813553 0.000000 -37.277958
v 195.449158 0.000000 -799.749146
v 54.869541 0.000000 -808.528259
v 7.258028 0.000000 -46.055634
vn -0.7338 0.6778 -0.0458
vn 0.6746 0.7370 0.0421
vn -0.0623 0.0000 0.9981
vn 0.0623 -0.0000 -0.9981
vn 0.0000 1.0000 0.0000
vn 0.9981 0.0000 0.0624
vn -0.9981 0.0000 -0.0623
usemtl None
s off
f 5//1 3//1 4//1 6//1
f 3//2 1//2 2//2 4//2
f 2//3 4//3 6//3
f 5//4 3//4 1//4
f 7//5 8//5 9//5 10//5
f 1//6 7//6 8//6 2//6
f 2//4 8//4 9//4 6//4
f 6//7 9//7 10//7 5//7
f 5//3 10//3 7//3 1//3
