# Blender v2.92.0 OBJ File: ''
# www.blender.org
mtllib CG10_500_036059_0031_roof.mtl
o CG10_500_036059_0031_roof
v 303.229889 75.000000 -299.526276
v 15.035582 75.000000 -264.874908
v 174.144196 114.652313 -225.076889
v 256.996338 114.685699 -234.989090
v 137.585190 145.000000 -175.580475
v 235.827713 75.000000 -173.346313
v 317.186584 75.000000 -183.031021
v 150.144470 144.984024 -70.709389
v 45.192062 75.000000 -13.576385
v 251.966125 75.000000 -38.348728
v 303.229889 0.000000 -299.526276
v 15.035582 0.000000 -264.874908
v 45.192062 0.000000 -13.576385
v 251.966125 0.000000 -38.348728
v 235.827713 0.000000 -173.346313
v 317.186584 0.000000 -183.031021
vt 0.136120 0.956760
vt 0.758930 0.877870
vt 0.452240 0.774810
vt 0.414410 0.440830
vt 0.524530 0.283190
vt 0.710320 0.447940
vt 0.774090 0.251630
vt 0.955380 0.417100
vt 0.913340 0.046095
vt 0.045288 0.156450
vn 0.1005 0.5344 0.8393
vn -0.5799 -0.8117 0.0693
vn -0.0662 -0.8285 -0.5561
vn 0.5910 0.8036 -0.0708
vn -0.0670 0.8278 -0.5570
vn -0.5295 0.8459 0.0635
usemtl None
s off
f 9/1/1 10/2/1 8/3/1
f 8/3/2 5/4/2 3/5/2 6/6/2 10/2/2
f 3/5/3 4/7/3 7/8/3 6/6/3
f 7/8/4 1/9/4 4/7/4
f 1/9/5 2/10/5 5/4/5 3/5/5 4/7/5
f 9/1/6 8/3/6 5/4/6 2/10/6
