# Blender v2.92.0 OBJ File: ''
# www.blender.org
mtllib CG10_500_035063_0038_roof.mtl
o CG10_500_035063_0038_roof
v 279.916443 75.000000 -11.478526
v 291.244995 75.000000 -225.101852
v 202.025024 139.985764 -99.718987
v 204.105743 139.999527 -139.285461
v 198.116440 144.982513 -145.735901
v 117.366341 75.000000 -20.053869
v 119.641144 75.000000 -63.668430
v 103.512085 145.000000 -150.717499
v 23.038303 75.000000 -239.284607
v 14.065624 75.000000 -69.203705
v 279.916443 0.000000 -11.478526
v 291.244995 0.000000 -225.101852
v 23.038303 0.000000 -239.284607
v 14.065624 0.000000 -69.203705
v 119.641144 0.000000 -63.668430
v 117.366341 0.000000 -20.053869
vt 0.075784 0.054211
vt 0.340500 0.404280
vt 0.651700 0.423970
vt 0.958040 0.110270
vt 0.671400 0.449460
vt 0.393560 0.748350
vt 0.046269 0.726470
vt 0.386070 0.920740
vt 0.664560 0.605850
vt 0.920780 0.954630
vn 0.0338 0.7689 -0.6384
vn 0.0330 -0.7759 -0.6300
vn -0.6347 0.7720 -0.0335
vn -0.6278 0.7777 -0.0327
vn -0.0322 0.7910 0.6110
vn -0.6181 -0.7854 -0.0328
usemtl None
s off
f 9/1/1 8/2/1 5/3/1 2/4/1
f 8/2/2 5/3/2 4/5/2 7/6/2 10/7/2
f 8/2/3 9/1/3 10/7/3
f 4/5/4 7/6/4 6/8/4 3/9/4
f 3/9/5 6/8/5 1/10/5
f 1/10/6 3/9/6 4/5/6 5/3/6 2/4/6
