# Blender v2.92.0 OBJ File: ''
# www.blender.org
mtllib CG10_500_034059_0003.mtl
o CG10_500_034059_0003
v 137.967041 75.000000 -351.205231
v 27.634399 75.000000 -358.232422
v 136.386871 75.000000 -311.906708
v 208.492233 75.000000 -307.982330
v 80.563698 116.106995 -298.250305
v 78.676376 116.422226 -261.854401
v 115.632416 144.975800 -223.175354
v 109.046631 145.000000 -119.449387
v 6.636191 75.000000 -29.180267
v 190.134155 75.000000 -17.508610
v 137.967041 0.000000 -351.205231
v 27.634399 0.000000 -358.232422
v 6.636191 0.000000 -29.180267
v 190.134155 0.000000 -17.508610
v 208.492233 0.000000 -307.982330
v 136.386871 0.000000 -311.906708
vn -0.0373 0.8097 0.5856
vn 0.6241 0.7804 0.0394
vn 0.0334 0.7886 -0.6141
vn 0.5966 0.8022 0.0240
vn 0.0374 0.8086 -0.5872
vn 0.5862 -0.8093 0.0374
vn 0.0000 1.0000 0.0000
vn 0.0636 0.0000 -0.9980
vn -0.9980 0.0000 -0.0637
vn -0.0635 0.0000 0.9980
vn 0.9980 0.0000 0.0631
vn 0.0543 0.0000 -0.9985
vn 0.9992 0.0000 0.0402
usemtl None
s off
f 9//1 10//1 8//1
f 8//2 10//2 4//2 7//2
f 7//3 4//3 3//3 6//3
f 6//4 3//4 1//4 5//4
f 5//5 1//5 2//5
f 2//6 5//6 6//6 7//6 8//6 9//6
f 11//7 12//7 13//7 14//7 15//7 16//7
f 1//8 11//8 12//8 2//8
f 2//9 12//9 13//9 9//9
f 9//10 13//10 14//10 10//10
f 10//11 14//11 15//11 4//11
f 4//12 15//12 16//12 3//12
f 3//13 16//13 11//13 1//13
