# Blender v2.92.0 OBJ File: ''
# www.blender.org
mtllib CG10_500_035064_0021.mtl
o CG10_500_035064_0021
v 12.856159 75.000000 -29.017529
v 23.266138 145.000000 -214.259460
v 30.716412 75.000000 -345.776215
v 234.710983 75.000000 -16.282871
v 245.167038 144.862839 -201.158020
v 252.531876 75.000000 -332.421356
v 12.856159 0.000000 -29.017529
v 30.716412 0.000000 -345.776215
v 252.531876 0.000000 -332.421356
v 234.710983 0.000000 -16.282871
vn -0.0202 0.9356 0.3524
vn -0.0282 -0.8831 0.4684
vn -0.9984 -0.0005 -0.0563
vn 0.9984 -0.0005 0.0563
vn 0.0000 -1.0000 0.0000
vn 0.9984 0.0000 0.0563
vn -0.0601 0.0000 0.9982
vn -0.9984 0.0000 -0.0563
vn 0.0573 0.0000 -0.9984
usemtl None
s off
f 1//1 4//1 5//1 2//1
f 2//2 3//2 6//2 5//2
f 1//3 2//3 3//3
f 6//4 5//4 4//4
f 7//5 8//5 9//5 10//5
f 1//6 7//6 8//6 3//6
f 3//7 8//7 9//7 6//7
f 6//8 9//8 10//8 4//8
f 4//9 10//9 7//9 1//9
