# Blender v2.92.0 OBJ File: ''
# www.blender.org
mtllib CG10_500_045070_0021_roof.mtl
o CG10_500_045070_0021_roof
v 248.129715 75.000000 -31.154539
v 35.914879 75.000000 -16.475534
v 136.744827 145.000000 -23.437536
v 229.971375 75.000000 -288.327911
v 284.340240 75.000000 -292.032288
v 281.897095 97.129341 -327.524719
v 191.846756 97.366096 -321.770721
v 13.610184 75.000000 -343.291687
v 225.039932 75.000000 -358.171112
v 114.060081 144.746765 -350.452332
v 279.536560 75.000000 -361.432861
v 248.129715 0.000000 -31.154539
v 35.914879 0.000000 -16.475534
v 13.610184 0.000000 -343.291687
v 225.039932 0.000000 -358.171112
v 279.536560 0.000000 -361.432861
v 284.340240 0.000000 -292.032288
v 229.971375 0.000000 -288.327911
vt 0.120520 0.956760
vt 0.045672 0.098972
vt 0.382750 0.080178
vt 0.458880 0.938480
vt 0.832650 0.918230
vt 0.771720 0.243230
vt 0.643780 0.155460
vt 0.755170 0.059918
vt 0.954160 0.233510
vt 0.945960 0.140360
vt 0.938040 0.051357
vn 0.5680 -0.8221 -0.0388
vn 0.5299 0.8473 -0.0374
vn 0.0359 0.8491 0.5270
vn -0.0326 0.8380 -0.5447
vn 0.0690 -0.0002 0.9976
vn -0.0702 -0.0013 -0.9975
vn 0.9976 -0.0006 -0.0691
usemtl None
s off
f 2/1/1 8/2/1 10/3/1 3/4/1
f 3/4/2 1/5/2 4/6/2 7/7/2 9/8/2 10/3/2
f 4/6/3 5/9/3 6/10/3 7/7/3
f 6/10/4 11/11/4 9/8/4 7/7/4
f 1/5/5 3/4/5 2/1/5
f 8/2/6 10/3/6 9/8/6
f 11/11/7 6/10/7 5/9/7
