# Blender v2.92.0 OBJ File: ''
# www.blender.org
mtllib CG10_500_049072_0041_roof.mtl
o CG10_500_049072_0041_roof
v 220.698166 75.000000 -330.902100
v 204.247955 75.000000 -24.129601
v 134.163300 75.000000 -335.690826
v 135.560486 75.000000 -359.148926
v 117.440773 75.000000 -29.652046
v 114.781609 75.000000 -18.369070
v 123.255920 145.000000 -242.920135
v 117.142776 144.994064 -128.772690
v 83.656746 115.115700 -310.930939
v 82.192108 115.056923 -285.134186
v 69.108093 113.337105 -87.006752
v 67.185585 112.517273 -73.237457
v 28.500978 75.000000 -364.845123
v 10.268152 75.000000 -23.916149
v 220.698166 0.000000 -330.902100
v 204.247955 0.000000 -24.129601
v 117.440773 0.000000 -29.652046
v 114.781609 0.000000 -18.369070
v 10.268152 0.000000 -23.916149
v 28.500978 0.000000 -364.845123
v 135.560486 0.000000 -359.148926
v 134.163300 0.000000 -335.690826
vt 0.044259 0.937720
vt 0.122850 0.049883
vt 0.360590 0.190280
vt 0.354280 0.257460
vt 0.531280 0.367400
vt 0.504930 0.664650
vt 0.297880 0.773420
vt 0.289590 0.809280
vt 0.494750 0.952160
vt 0.506210 0.922780
vt 0.880380 0.937160
vt 0.951290 0.138280
vt 0.578290 0.125810
vt 0.584310 0.064716
vn 0.5683 -0.8222 0.0304
vn -0.0309 0.8124 0.5823
vn 0.5228 0.8435 0.1232
vn -0.0367 0.8163 0.5765
vn 0.6022 0.7977 0.0323
vn 0.0332 0.7997 -0.5995
vn 0.6328 0.7734 0.0377
vn 0.0329 0.7854 -0.6181
usemtl None
s off
f 14/1/1 13/2/1 9/3/1 10/4/1 7/5/1 8/6/1 11/7/1 12/8/1
f 14/1/2 6/9/2 12/8/2
f 6/9/3 5/10/3 11/7/3 12/8/3
f 5/10/4 2/11/4 8/6/4 11/7/4
f 2/11/5 1/12/5 7/5/5 8/6/5
f 1/12/6 3/13/6 10/4/6 7/5/6
f 3/13/7 4/14/7 9/3/7 10/4/7
f 4/14/8 13/2/8 9/3/8
