# Blender v2.92.0 OBJ File: ''
# www.blender.org
mtllib CG10_500_039069_0004_roof.mtl
o CG10_500_039069_0004_roof
v 27.906103 75.000000 -212.738235
v 16.275698 75.000000 -25.705437
v 106.042328 144.999069 -115.612167
v 186.759216 145.000000 -110.589485
v 228.530380 117.466385 -144.282684
v 278.933838 117.359825 -141.287506
v 281.104156 75.000000 -9.222092
v 285.958038 75.000000 -85.818657
v 335.611969 75.000000 -83.004501
v 342.463470 75.000000 -193.169403
v 27.906103 0.000000 -212.738235
v 16.275698 0.000000 -25.705437
v 281.104156 0.000000 -9.222092
v 285.958038 0.000000 -85.818657
v 335.611969 0.000000 -83.004501
v 342.463470 0.000000 -193.169403
vt 0.780840 0.958650
vt 0.518780 0.504080
vt 0.634810 0.352990
vt 0.794330 0.615160
vt 0.774820 0.366420
vt 0.932260 0.627780
vt 0.951290 0.133770
vt 0.294560 0.481560
vt 0.045210 0.884730
vt 0.077517 0.046017
vn -0.5701 -0.8208 -0.0361
vn 0.0345 -0.7922 -0.6093
vn -0.5744 -0.8178 -0.0357
vn -0.0368 0.8060 0.5908
vn -0.0376 -0.7961 0.6040
vn 0.6389 -0.7683 0.0397
usemtl None
s off
f 7/1/1 4/2/1 5/3/1 8/4/1
f 8/4/2 5/3/2 6/5/2 9/6/2
f 9/6/3 6/5/3 10/7/3
f 3/8/4 2/9/4 7/1/4 4/2/4
f 10/7/5 6/5/5 5/3/5 4/2/5 3/8/5 1/10/5
f 1/10/6 3/8/6 2/9/6
