# Blender v2.92.0 OBJ File: ''
# www.blender.org
mtllib CG10_500_048073_0008_roof.mtl
o CG10_500_048073_0008_roof
v 315.496979 75.000000 -14.414632
v 332.585510 75.000000 -283.222046
v 232.040344 138.932144 -177.457260
v 229.680679 137.917191 -116.907356
v 224.009201 144.808197 -186.767914
v 123.286995 75.000000 -26.620861
v 123.946907 74.999931 -87.247871
v 130.058136 145.000000 -192.388748
v 123.411613 75.000000 -38.070835
v 28.059444 75.000000 -44.149559
v 31.116142 75.000000 -92.516167
v 14.884390 75.000000 -93.437363
v 28.127388 75.000000 -302.356232
v 315.496979 0.000000 -14.414632
v 332.585510 0.000000 -283.222046
v 28.127388 0.000000 -302.356232
v 14.884390 0.000000 -93.437363
v 31.116142 0.000000 -92.516167
v 28.059444 0.000000 -44.149559
v 123.411613 0.000000 -38.070835
v 123.286995 0.000000 -26.620861
vt 0.354630 0.879900
vt 0.356170 0.724770
vt 0.089414 0.708150
vt 0.080631 0.860730
vt 0.042771 0.705240
vt 0.373730 0.393100
vt 0.643700 0.410830
vt 0.666780 0.440200
vt 0.354270 0.916020
vt 0.660000 0.631210
vt 0.906600 0.954530
vt 0.955710 0.106560
vt 0.080826 0.046195
vn 0.0000 1.0000 -0.0000
vn 0.0314 -0.8328 -0.5526
vn -0.5125 0.8587 -0.0056
vn -0.0345 0.8386 0.5437
vn 0.5628 0.8258 0.0358
vn 0.0352 0.8280 -0.5597
vn 0.5404 -0.8407 0.0343
usemtl None
s off
f 9/1/1 7/2/1 11/3/1 10/4/1
f 12/5/2 8/6/2 5/7/2 3/8/2 7/2/2 11/3/2
f 6/9/3 4/10/3 3/8/3 7/2/3 9/1/3
f 1/11/4 4/10/4 6/9/4
f 1/11/5 2/12/5 5/7/5 3/8/5 4/10/5
f 13/13/6 8/6/6 5/7/6 2/12/6
f 12/5/7 13/13/7 8/6/7
