# Blender v2.92.0 OBJ File: ''
# www.blender.org
mtllib CG10_500_033059_0006_roof.mtl
o CG10_500_033059_0006_roof
v 307.005981 75.000000 -13.822741
v 318.005615 75.000000 -195.200699
v 224.235260 145.000000 -112.623039
v 181.776779 75.000000 -286.196167
v 177.296432 75.000000 -203.680725
v 115.467804 144.997116 -119.181679
v 99.813416 132.597580 -135.753647
v 104.490501 132.410477 -217.477554
v 32.074509 75.000000 -295.276825
v 16.159603 75.000000 -31.370989
v 307.005981 0.000000 -13.822741
v 318.005615 0.000000 -195.200699
v 177.296432 0.000000 -203.680725
v 181.776779 0.000000 -286.196167
v 32.074509 0.000000 -295.276825
v 16.159603 0.000000 -31.370989
vt 0.048674 0.898800
vt 0.924720 0.955410
vt 0.675410 0.636700
vt 0.347790 0.615540
vt 0.957850 0.370320
vt 0.534030 0.342970
vt 0.300640 0.562090
vt 0.314730 0.298460
vt 0.096610 0.047494
vt 0.547520 0.076787
vn -0.0361 0.8009 0.5977
vn 0.6188 0.7847 0.0375
vn 0.0374 0.7828 -0.6211
vn -0.5968 0.8016 -0.0360
vn 0.0373 0.7872 -0.6156
vn 0.6149 0.7879 0.0334
usemtl None
s off
f 10/1/1 1/2/1 3/3/1 6/4/1
f 3/3/2 1/2/2 2/5/2
f 6/4/3 3/3/3 2/5/3 5/6/3 7/7/3
f 10/1/4 6/4/4 7/7/4 8/8/4 9/9/4
f 8/8/5 4/10/5 9/9/5
f 7/7/6 5/6/6 4/10/6 8/8/6
