# Blender v2.92.0 OBJ File: ''
# www.blender.org
mtllib CG10_500_043068_0031.mtl
o CG10_500_043068_0031
v 14.040899 75.000000 -83.391174
v 184.607422 75.000000 -10.144479
v 142.117523 144.997192 -131.174622
v 178.836426 145.000000 -216.671570
v 296.878693 75.000000 -271.532043
v 126.291275 75.000000 -344.787750
v 14.040899 0.000000 -83.391174
v 184.607422 0.000000 -10.144479
v 296.878693 0.000000 -271.532043
v 126.291275 0.000000 -344.787750
vn 0.2350 -0.8034 -0.5471
vn 0.5311 -0.8161 0.2281
vn 0.2309 0.8109 -0.5377
vn -0.5768 -0.7784 -0.2477
vn 0.0000 1.0000 0.0000
vn -0.3946 0.0000 0.9189
vn 0.9188 0.0000 0.3947
vn 0.3946 0.0000 -0.9189
vn -0.9189 0.0000 -0.3946
usemtl None
s off
f 1//1 3//1 2//1
f 1//2 6//2 4//2 3//2
f 4//3 5//3 6//3
f 5//4 2//4 3//4 4//4
f 7//5 8//5 9//5 10//5
f 1//6 7//6 8//6 2//6
f 2//7 8//7 9//7 5//7
f 5//8 9//8 10//8 6//8
f 6//9 10//9 7//9 1//9
