# Blender v2.92.0 OBJ File: ''
# www.blender.org
mtllib CG10_500_042069_0029_roof.mtl
o CG10_500_042069_0029_roof
v 212.817551 75.000000 -17.469217
v 27.631439 75.000000 -95.904846
v 166.641998 144.957413 -143.651047
v 81.394737 75.000000 -224.001480
v 181.837219 145.000000 -179.682663
v 16.747938 75.000000 -250.564407
v 81.441254 111.919441 -276.036285
v 153.004105 111.625137 -246.216644
v 307.259491 75.000000 -240.524231
v 57.312252 75.000000 -346.348328
v 212.817551 0.000000 -17.469217
v 27.631439 0.000000 -95.904846
v 81.394737 0.000000 -224.001480
v 16.747938 0.000000 -250.564407
v 57.312252 0.000000 -346.348328
v 307.259491 0.000000 -240.524231
vt 0.052337 0.307830
vt 0.179100 0.043237
vt 0.254500 0.237470
vt 0.960190 0.335570
vt 0.568240 0.503640
vt 0.478140 0.319840
vt 0.254360 0.381210
vt 0.086348 0.735070
vt 0.520760 0.603170
vt 0.665050 0.951740
vn 0.5495 -0.8024 0.2327
vn -0.2164 -0.8319 0.5111
vn -0.2313 0.7936 0.5628
vn -0.4958 0.8431 -0.2081
vn -0.2263 0.8144 0.5343
vn 0.5585 0.7951 0.2365
usemtl None
s off
f 6/1/1 10/2/1 7/3/1
f 10/2/2 9/4/2 5/5/2 8/6/2 7/3/2
f 7/3/3 6/1/3 4/7/3 8/6/3
f 4/7/4 2/8/4 3/9/4 5/5/4 8/6/4
f 2/8/5 1/10/5 3/9/5
f 1/10/6 9/4/6 5/5/6 3/9/6
