# Blender v2.92.0 OBJ File: ''
# www.blender.org
mtllib CG10_500_038057_0006_roof.mtl
o CG10_500_038057_0006_roof
v 20.272608 75.000000 -203.246780
v 275.945282 75.000000 -195.367584
v 104.540176 145.000000 -110.737854
v 174.546692 144.999176 -108.581490
v 14.565392 75.000000 -17.877863
v 270.238342 75.000000 -10.006675
v 20.272608 0.000000 -203.246780
v 275.945282 0.000000 -195.367584
v 270.238342 0.000000 -10.006675
v 14.565392 0.000000 -17.877863
vt 0.050399 0.916070
vt 0.070147 0.045790
vt 0.361730 0.480100
vt 0.935080 0.953020
vt 0.603970 0.490230
vt 0.954830 0.082781
vn 0.6263 -0.7794 0.0193
vn -0.0182 0.8068 0.5906
vn 0.5783 0.8156 0.0178
vn 0.0189 0.7889 -0.6142
usemtl None
s off
f 5/1/1 1/2/1 3/3/1
f 5/1/2 6/4/2 4/5/2 3/3/2
f 6/4/3 2/6/3 4/5/3
f 2/6/4 1/2/4 3/3/4 4/5/4
