# Blender v2.92.0 OBJ File: ''
# www.blender.org
mtllib CG10_500_041065_0032_roof.mtl
o CG10_500_041065_0032_roof
v 37.304909 75.000000 -393.323273
v 151.774384 75.000000 -384.914856
v 95.406662 118.053001 -332.121735
v 144.102386 75.000000 -269.500336
v 261.013550 75.000000 -261.310822
v 87.436241 118.346611 -217.640350
v 191.217850 128.879913 -196.803925
v 144.959518 128.826828 -200.112640
v 123.410286 144.947021 -180.859741
v 121.074478 145.000000 -147.965256
v 207.095245 75.000000 -122.071136
v 250.556641 75.000000 -118.894394
v 80.871857 119.056786 -114.071518
v 79.036224 119.090187 -88.383781
v 131.026825 75.000000 -48.358204
v 201.674210 75.000000 -43.493401
v 129.099854 75.000000 -20.768398
v 104.672371 75.000000 -22.562038
v 10.615986 75.000000 -29.468330
v 37.223469 75.000000 -27.514618
v 93.273026 75.000000 -23.399061
v 48.817547 75.000000 -26.663298
v 37.304909 0.000000 -393.323273
v 151.774384 0.000000 -384.914856
v 144.102386 0.000000 -269.500336
v 261.013550 0.000000 -261.310822
v 250.556641 0.000000 -118.894394
v 207.095245 0.000000 -122.071136
v 201.674210 0.000000 -43.493401
v 131.026825 0.000000 -48.358204
v 129.099854 0.000000 -20.768398
v 104.672371 0.000000 -22.562038
v 93.273026 0.000000 -23.399061
v 48.817547 0.000000 -26.663298
v 37.223469 0.000000 -27.514618
v 10.615986 0.000000 -29.468330
vt 0.039029 0.928470
vt 0.136850 0.933220
vt 0.179480 0.935280
vt 0.342920 0.943210
vt 0.384820 0.945240
vt 0.474630 0.949590
vt 0.290570 0.785480
vt 0.481720 0.882630
vt 0.297320 0.723130
vt 0.741450 0.894430
vt 0.445130 0.640860
vt 0.761380 0.703710
vt 0.532940 0.514290
vt 0.453710 0.561020
vt 0.921160 0.711420
vt 0.703010 0.522320
vt 0.959610 0.365750
vt 0.321460 0.471750
vt 0.529790 0.345870
vt 0.350760 0.193880
vt 0.557990 0.065741
vt 0.137150 0.045332
vn -0.0416 0.8225 0.5672
vn 0.6264 0.7783 0.0437
vn -0.0397 0.8157 0.5772
vn 0.6228 0.7812 0.0430
vn -0.0431 0.8060 0.5903
vn 0.6371 0.7693 0.0468
vn -0.0429 -0.7891 0.6127
vn -0.6310 -0.7747 -0.0419
vn 0.5662 -0.8232 0.0415
vn 0.0443 0.7968 -0.6026
usemtl None
s off
f 19/1/1 20/2/1 22/3/1 21/4/1 18/5/1 17/6/1 14/7/1
f 17/6/2 15/8/2 13/9/2 14/7/2
f 15/8/3 16/10/3 10/11/3 13/9/3
f 16/10/4 11/12/4 8/13/4 9/14/4 10/11/4
f 11/12/5 12/15/5 7/16/5 8/13/5
f 12/15/6 5/17/6 7/16/6
f 5/17/7 7/16/7 8/13/7 9/14/7 6/18/7 4/19/7
f 4/19/8 6/18/8 3/20/8 2/21/8
f 1/22/9 3/20/9 6/18/9 9/14/9 10/11/9 13/9/9 14/7/9 19/1/9
f 1/22/10 3/20/10 2/21/10
