# Blender v2.92.0 OBJ File: ''
# www.blender.org
mtllib CG10_500_042067_0044.mtl
o CG10_500_042067_0044
v 139.839279 75.000000 -23.441067
v 259.928314 75.000000 -15.933019
v 59.254208 75.000000 -68.876389
v 142.565903 75.000000 -63.345284
v 203.701752 113.778038 -77.242004
v 49.475246 75.000000 -97.829300
v 60.924545 75.000000 -97.431702
v 144.696198 74.999992 -94.522545
v 208.556778 113.636810 -151.503067
v 302.759674 75.000000 -166.538635
v 269.464844 75.000000 -168.682617
v 163.084335 145.000000 -201.135956
v 14.333813 75.000000 -226.579391
v 57.377872 75.000000 -223.887741
v 134.912628 125.257599 -233.731049
v 203.421585 120.428909 -237.732635
v 237.219894 120.560982 -235.744614
v 136.213470 125.084473 -258.708191
v 77.401833 112.228127 -283.157104
v 117.914108 112.229942 -280.626709
v 212.937973 75.000000 -308.821686
v 311.327515 75.000000 -303.640289
v 21.851738 75.000000 -346.794830
v 214.022858 75.000000 -334.805756
v 139.839279 0.000000 -23.441067
v 259.928314 0.000000 -15.933019
v 269.464844 0.000000 -168.682617
v 302.759674 0.000000 -166.538635
v 311.327515 0.000000 -303.640289
v 212.937973 0.000000 -308.821686
v 214.022858 0.000000 -334.805756
v 21.851738 0.000000 -346.794830
v 14.333813 0.000000 -226.579391
v 57.377872 0.000000 -223.887741
v 49.475246 0.000000 -97.829300
v 60.924545 0.000000 -97.431702
v 59.254208 0.000000 -68.876389
v 142.565903 0.000000 -63.345284
vn -0.5299 0.8474 -0.0331
vn -0.0327 0.8513 0.5237
vn 0.0328 0.8499 -0.5259
vn -0.5467 0.8367 -0.0343
vn -0.0348 0.8299 0.5568
vn 0.5421 0.8396 0.0338
vn -0.0369 0.8183 0.5737
vn 0.5459 0.8371 0.0341
vn 0.0282 0.8440 -0.5356
vn 0.5571 0.8301 0.0233
vn -0.0190 0.8373 0.5465
vn -0.5412 0.8401 -0.0370
vn 0.0000 1.0000 0.0000
vn -0.0624 0.0000 0.9981
vn 0.9981 0.0000 0.0623
vn -0.0643 0.0000 0.9979
vn 0.9981 0.0000 0.0624
vn 0.0526 0.0000 -0.9986
vn 0.9991 0.0000 0.0417
vn 0.0623 0.0000 -0.9981
vn -0.9981 0.0000 -0.0624
vn -0.9980 0.0000 -0.0626
vn -0.0347 0.0000 0.9994
vn -0.9983 0.0000 -0.0584
vn -0.0662 0.0000 0.9978
vn -0.9977 0.0000 -0.0682
usemtl None
s off
f 23//1 13//1 19//1
f 13//2 14//2 20//2 19//2
f 20//3 18//3 24//3 23//3 19//3
f 14//4 6//4 12//4 15//4 18//4 20//4
f 1//5 2//5 5//5
f 2//6 11//6 16//6 12//6 9//6 5//6
f 11//7 10//7 17//7 16//7
f 10//8 22//8 17//8
f 22//9 21//9 15//9 12//9 16//9 17//9
f 21//10 24//10 18//10 15//10
f 6//11 7//11 8//11 9//11 12//11
f 8//12 4//12 1//12 5//12 9//12
f 3//13 4//13 8//13 7//13
f 25//13 26//13 27//13 28//13 29//13 30//13 31//13 32//13 33//13 34//13 35//13 36//13 37//13 38//13
f 1//14 25//14 26//14 2//14
f 2//15 26//15 27//15 11//15
f 11//16 27//16 28//16 10//16
f 10//17 28//17 29//17 22//17
f 22//18 29//18 30//18 21//18
f 21//19 30//19 31//19 24//19
f 24//20 31//20 32//20 23//20
f 23//21 32//21 33//21 13//21
f 13//14 33//14 34//14 14//14
f 14//22 34//22 35//22 6//22
f 6//23 35//23 36//23 7//23
f 7//24 36//24 37//24 3//24
f 3//25 37//25 38//25 4//25
f 4//26 38//26 25//26 1//26
