# Blender v2.92.0 OBJ File: ''
# www.blender.org
mtllib CG10_500_035060_0010_roof.mtl
o CG10_500_035060_0010_roof
v 315.192108 75.000000 -93.336182
v 321.983276 75.000000 -215.069687
v 296.442902 75.000000 -28.524441
v 299.776123 75.000000 -93.873505
v 255.524185 120.125092 -158.189514
v 239.048630 120.252831 -158.941467
v 202.433319 145.000000 -127.757088
v 136.679398 75.000000 -225.456650
v 140.892838 75.000000 -296.401184
v 122.901031 75.000000 -14.259259
v 124.512413 75.000000 -38.612103
v 111.639084 144.911316 -132.965530
v 72.112488 115.712044 -96.192352
v 70.609688 115.619522 -71.549950
v 79.253647 114.738327 -245.574936
v 75.220772 114.656593 -175.640656
v 31.468901 75.000000 -302.502869
v 15.614977 75.000000 -20.240042
v 315.192108 0.000000 -93.336182
v 321.983276 0.000000 -215.069687
v 136.679398 0.000000 -225.456650
v 140.892838 0.000000 -296.401184
v 31.468901 0.000000 -302.502869
v 15.614977 0.000000 -20.240042
v 122.901031 0.000000 -14.259259
v 124.512413 0.000000 -38.612103
v 296.442902 0.000000 -28.524441
v 299.776123 0.000000 -93.873505
vt 0.046335 0.936150
vt 0.364690 0.955020
vt 0.209520 0.774290
vt 0.213980 0.696550
vt 0.369470 0.878200
vt 0.331270 0.580550
vt 0.879650 0.910020
vt 0.600690 0.596980
vt 0.709340 0.498610
vt 0.889540 0.703870
vt 0.758230 0.500980
vt 0.935290 0.705560
vt 0.955440 0.321550
vt 0.223210 0.445930
vt 0.405580 0.288780
vt 0.235170 0.225320
vt 0.418080 0.064980
vt 0.093380 0.045732
vn -0.0333 0.8007 0.5981
vn 0.5861 0.8093 0.0388
vn -0.0351 0.8007 0.5981
vn 0.5768 0.8164 0.0294
vn -0.0203 0.8118 0.5836
vn 0.5803 0.8138 0.0324
vn 0.0335 0.8016 -0.5969
vn 0.5608 0.8273 0.0333
vn 0.0329 0.8064 -0.5905
vn -0.6144 0.7882 -0.0345
usemtl None
s off
f 18/1/1 10/2/1 14/3/1
f 13/4/2 14/3/2 10/2/2 11/5/2
f 12/6/3 13/4/3 11/5/3 3/7/3 7/8/3
f 6/9/4 7/8/4 3/7/4 4/10/4
f 5/11/5 6/9/5 4/10/5 1/12/5
f 2/13/6 5/11/6 1/12/6
f 16/14/7 12/6/7 7/8/7 6/9/7 5/11/7 2/13/7 8/15/7
f 15/16/8 16/14/8 8/15/8 9/17/8
f 17/18/9 15/16/9 9/17/9
f 18/1/10 14/3/10 13/4/10 12/6/10 16/14/10 15/16/10 17/18/10
