# Blender v2.92.0 OBJ File: ''
# www.blender.org
mtllib CG10_500_045069_0021.mtl
o CG10_500_045069_0021
v 370.963318 75.000000 -210.694855
v 95.473328 75.000000 -327.344330
v 130.221680 109.224709 -253.178650
v 143.658249 109.973907 -246.187805
v 236.736359 114.692703 -198.579056
v 293.600311 114.731918 -174.433289
v 52.336971 75.000000 -225.501373
v 178.651642 144.972046 -170.574829
v 64.541023 75.000000 -217.598724
v 264.478149 75.000000 -119.295151
v 321.895050 75.000000 -94.847282
v 172.535126 145.000000 -156.019028
v 16.164358 75.000000 -103.473366
v 221.573761 75.000000 -16.472727
v 370.963318 0.000000 -210.694855
v 95.473328 0.000000 -327.344330
v 52.336971 0.000000 -225.501373
v 64.541023 0.000000 -217.598724
v 16.164358 0.000000 -103.473366
v 221.573761 0.000000 -16.472727
v 264.478149 0.000000 -119.295151
v 321.895050 0.000000 -94.847282
vn -0.4541 0.8699 -0.1925
vn -0.2515 0.8865 0.3884
vn -0.4510 0.8718 -0.1910
vn -0.2067 -0.8479 0.4881
vn -0.2110 0.8425 0.4956
vn 0.5260 0.8208 0.2228
vn 0.5328 0.8165 0.2223
vn 0.2102 -0.8423 -0.4964
vn 0.0000 1.0000 0.0000
vn 0.3899 0.0000 -0.9209
vn -0.9208 0.0000 -0.3900
vn -0.5435 0.0000 0.8394
vn -0.9207 0.0000 -0.3903
vn -0.3900 0.0000 0.9208
vn 0.9229 0.0000 0.3851
vn -0.3918 0.0000 0.9201
vn 0.9208 0.0000 0.3900
usemtl None
s off
f 13//1 12//1 8//1 4//1 9//1
f 4//2 3//2 7//2 9//2
f 3//3 2//3 7//3
f 2//4 1//4 6//4 5//4 8//4 4//4 3//4
f 10//5 11//5 6//5 5//5
f 11//6 1//6 6//6
f 14//7 10//7 5//7 8//7 12//7
f 14//8 13//8 12//8
f 15//9 16//9 17//9 18//9 19//9 20//9 21//9 22//9
f 1//10 15//10 16//10 2//10
f 2//11 16//11 17//11 7//11
f 7//12 17//12 18//12 9//12
f 9//13 18//13 19//13 13//13
f 13//14 19//14 20//14 14//14
f 14//15 20//15 21//15 10//15
f 10//16 21//16 22//16 11//16
f 11//17 22//17 15//17 1//17
