# Blender v2.92.0 OBJ File: ''
# www.blender.org
mtllib CG10_500_042059_0020.mtl
o CG10_500_042059_0020
v 34.544945 75.000000 -476.598541
v 180.809097 75.000000 -469.239655
v 78.662071 111.625145 -423.018768
v 124.692528 111.644173 -420.676178
v 29.468044 75.000000 -375.837891
v 75.566200 75.000000 -373.465973
v 72.814781 75.000000 -320.348328
v 25.558107 75.000000 -323.770142
v 173.010269 75.000000 -313.336090
v 205.706635 75.000000 -311.150391
v 203.447357 75.000000 -266.130157
v 232.665268 75.000000 -264.569031
v 116.933212 111.742836 -268.451843
v 105.702339 144.985580 -225.202438
v 121.085983 132.570236 -193.482239
v 151.567566 132.522705 -191.917206
v 101.723312 145.000000 -146.305313
v 225.169617 75.000000 -115.802803
v 195.975769 75.000000 -117.244377
v 133.970139 120.195724 -113.067581
v 132.195404 120.412781 -83.616371
v 12.291844 75.000000 -61.878090
v 74.346016 75.000000 -58.654640
v 72.267540 75.000000 -28.691603
v 191.230865 75.000000 -22.693001
v 34.544945 0.000000 -476.598541
v 180.809097 0.000000 -469.239655
v 173.010269 0.000000 -313.336090
v 205.706635 0.000000 -311.150391
v 203.447357 0.000000 -266.130157
v 232.665268 0.000000 -264.569031
v 225.169617 0.000000 -115.802803
v 195.975769 0.000000 -117.244377
v 191.230865 0.000000 -22.693001
v 72.267540 0.000000 -28.691603
v 74.346016 0.000000 -58.654640
v 12.291844 0.000000 -61.878090
v 25.558107 0.000000 -323.770142
v 72.814781 0.000000 -320.348328
v 75.566200 0.000000 -373.465973
v 29.468044 0.000000 -375.837891
vn -0.0307 0.7829 0.6214
vn -0.0320 -0.8007 0.5983
vn -0.5960 -0.8024 -0.0300
vn -0.5901 -0.8068 -0.0296
vn -0.0403 -0.7972 0.6023
vn -0.5635 -0.8256 -0.0282
vn 0.0292 0.8138 -0.5804
vn -0.6159 0.7872 -0.0310
vn -0.0305 0.8047 0.5929
vn -0.6172 0.7862 -0.0320
vn 0.0436 0.7975 -0.6017
vn -0.6347 0.7721 -0.0322
vn -0.0321 0.7859 0.6176
vn -0.6285 0.7766 -0.0436
vn -0.0311 0.7867 0.6165
vn 0.0000 -1.0000 0.0000
vn -0.0502 0.0000 0.9987
vn -0.9988 0.0000 -0.0500
vn -0.0667 0.0000 0.9978
vn -0.9987 0.0000 -0.0501
vn -0.0534 0.0000 0.9986
vn -0.9987 0.0000 -0.0503
vn 0.0493 0.0000 -0.9988
vn 0.0504 0.0000 -0.9987
vn 0.9976 0.0000 0.0692
vn 0.0519 0.0000 -0.9987
vn 0.9987 0.0000 0.0506
vn -0.0722 0.0000 0.9974
vn 0.9987 0.0000 0.0517
vn 0.0514 0.0000 -0.9987
vn 0.9987 0.0000 0.0503
usemtl None
s off
f 15//1 19//1 18//1 16//1
f 16//2 15//2 11//2 12//2
f 18//3 16//3 12//3
f 11//4 15//4 19//4 25//4 21//4 20//4 17//4 14//4 10//4
f 13//5 9//5 10//5 14//5
f 4//6 2//6 9//6 13//6
f 3//7 4//7 2//7 1//7
f 5//8 3//8 1//8
f 6//9 4//9 3//9 5//9
f 7//10 13//10 4//10 6//10
f 8//11 14//11 13//11 7//11
f 22//12 17//12 14//12 8//12
f 23//13 20//13 17//13 22//13
f 24//14 21//14 20//14 23//14
f 24//15 25//15 21//15
f 26//16 27//16 28//16 29//16 30//16 31//16 32//16 33//16 34//16 35//16 36//16 37//16 38//16 39//16 40//16 41//16
f 1//17 26//17 27//17 2//17
f 2//18 27//18 28//18 9//18
f 9//19 28//19 29//19 10//19
f 10//20 29//20 30//20 11//20
f 11//21 30//21 31//21 12//21
f 12//22 31//22 32//22 18//22
f 18//23 32//23 33//23 19//23
f 19//20 33//20 34//20 25//20
f 25//24 34//24 35//24 24//24
f 24//25 35//25 36//25 23//25
f 23//26 36//26 37//26 22//26
f 22//27 37//27 38//27 8//27
f 8//28 38//28 39//28 7//28
f 7//29 39//29 40//29 6//29
f 6//30 40//30 41//30 5//30
f 5//31 41//31 26//31 1//31
