# Blender v2.92.0 OBJ File: ''
# www.blender.org
mtllib CG10_500_037056_0026_roof.mtl
o CG10_500_037056_0026_roof
v 23.797848 75.000000 -159.302307
v 33.835575 75.000000 -327.362579
v 96.910141 125.292725 -248.487183
v 96.570152 125.709740 -233.384323
v 104.609879 121.363747 -226.251083
v 185.784576 75.000000 -318.261688
v 186.491821 75.000000 -292.382385
v 187.755585 75.000000 -150.296783
v 180.362961 75.000000 -28.926182
v 256.779358 121.118141 -217.514893
v 285.138306 144.976456 -131.632187
v 288.059753 145.000000 -179.051880
v 335.188477 118.762848 -216.428040
v 397.381744 75.000000 -15.927720
v 405.205170 75.000000 -141.190369
v 420.227692 118.878952 -211.157669
v 491.106293 75.000000 -135.676987
v 499.370972 75.000000 -273.645966
v 23.797848 0.000000 -159.302307
v 33.835575 0.000000 -327.362579
v 185.784576 0.000000 -318.261688
v 186.491821 0.000000 -292.382385
v 499.370972 0.000000 -273.645966
v 491.106293 0.000000 -135.676987
v 405.205170 0.000000 -141.190369
v 397.381744 0.000000 -15.927720
v 180.362961 0.000000 -28.926182
v 187.755585 0.000000 -150.296783
vt 0.344860 0.915910
vt 0.545200 0.617350
vt 0.759810 0.953700
vt 0.550780 0.479500
vt 0.640900 0.370850
vt 0.774770 0.589560
vt 0.803490 0.386170
vt 0.939020 0.605590
vt 0.954820 0.204520
vt 0.490970 0.367690
vt 0.200020 0.342290
vt 0.356580 0.150050
vt 0.184650 0.321560
vt 0.185300 0.277650
vt 0.355230 0.074821
vt 0.064695 0.048365
vt 0.045503 0.536910
vt 0.359000 0.563090
vn 0.0323 -0.8410 -0.5400
vn -0.5052 -0.8625 -0.0316
vn 0.0337 -0.8499 -0.5258
vn -0.5027 -0.8639 -0.0301
vn -0.0327 -0.8370 0.5463
vn -0.4846 -0.8747 0.0132
vn -0.0333 -0.8304 0.5561
vn 0.5955 -0.8026 0.0356
vn 0.0299 -0.8383 -0.5444
vn 0.5787 -0.8148 0.0352
usemtl None
s off
f 9/1/1 11/2/1 14/3/1
f 14/3/2 11/2/2 12/4/2 13/5/2 15/6/2
f 15/6/3 13/5/3 16/7/3 17/8/3
f 17/8/4 16/7/4 18/9/4
f 18/9/5 16/7/5 13/5/5 12/4/5 10/10/5 5/11/5 7/12/5
f 7/12/6 5/11/6 4/13/6 3/14/6 6/15/6
f 6/15/7 3/14/7 2/16/7
f 2/16/8 3/14/8 4/13/8 1/17/8
f 1/17/9 4/13/9 5/11/9 10/10/9 8/18/9
f 8/18/10 10/10/10 12/4/10 11/2/10 9/1/10
