# Blender v2.92.0 OBJ File: ''
# www.blender.org
mtllib CG10_500_044067_0041.mtl
o CG10_500_044067_0041
v 130.814423 75.000000 -429.836121
v 14.461424 75.000000 -153.975754
v 167.947556 134.014954 -337.154144
v 116.244148 134.030014 -214.524841
v 122.946884 145.000000 -196.823105
v 258.862640 75.000000 -375.843140
v 208.252563 75.000000 -255.762741
v 174.842667 75.000000 -87.219772
v 160.754425 75.000000 -53.740921
v 211.600525 144.812851 -159.687241
v 218.230484 111.091530 -75.478806
v 232.231705 111.101608 -108.718788
v 319.542358 75.000000 -208.826355
v 240.060730 75.000000 -20.300352
v 130.814423 0.000000 -429.836121
v 14.461424 0.000000 -153.975754
v 174.842667 0.000000 -87.219772
v 160.754425 0.000000 -53.740921
v 240.060730 0.000000 -20.300352
v 319.542358 0.000000 -208.826355
v 208.252563 0.000000 -255.762741
v 258.862640 0.000000 -375.843140
vn -0.2520 0.7612 0.5976
vn 0.6043 0.7550 0.2548
vn 0.5802 -0.7770 0.2442
vn -0.2508 0.7576 0.6026
vn -0.2428 -0.7807 0.5758
vn -0.6002 -0.7588 -0.2530
vn -0.2484 -0.7689 0.5891
vn -0.5927 0.7656 -0.2500
vn 0.0000 1.0000 0.0000
vn -0.9214 0.0000 -0.3886
vn -0.3843 0.0000 0.9232
vn -0.9217 0.0000 -0.3879
vn -0.3885 0.0000 0.9214
vn 0.9215 0.0000 0.3885
vn 0.3886 0.0000 -0.9214
vn 0.9215 0.0000 0.3884
vn 0.3885 0.0000 -0.9214
usemtl None
s off
f 9//1 14//1 11//1
f 14//2 13//2 10//2 12//2 11//2
f 11//3 9//3 8//3 12//3
f 12//4 10//4 5//4 2//4 8//4
f 5//5 4//5 7//5 13//5 10//5
f 4//6 3//6 6//6 7//6
f 3//7 1//7 6//7
f 1//8 2//8 5//8 4//8 3//8
f 15//9 16//9 17//9 18//9 19//9 20//9 21//9 22//9
f 1//10 15//10 16//10 2//10
f 2//11 16//11 17//11 8//11
f 8//12 17//12 18//12 9//12
f 9//13 18//13 19//13 14//13
f 14//14 19//14 20//14 13//14
f 13//15 20//15 21//15 7//15
f 7//16 21//16 22//16 6//16
f 6//17 22//17 15//17 1//17
