# Blender v2.92.0 OBJ File: ''
# www.blender.org
mtllib CG10_500_049074_0017_roof.mtl
o CG10_500_049074_0017_roof
v 34.722519 75.000000 -298.060730
v 174.728851 75.000000 -287.697388
v 280.590973 75.000000 -215.014282
v 224.035706 75.000000 -219.199295
v 253.514481 97.597862 -217.018311
v 95.755714 131.629944 -219.628113
v 347.717133 75.000000 -196.903793
v 278.484314 75.000000 -202.064438
v 223.127228 75.000000 -206.190796
v 168.381195 75.000000 -210.271606
v 248.621536 96.073479 -175.578064
v 89.522301 131.361816 -139.357437
v 259.618713 137.430710 -118.409599
v 209.206970 137.536133 -122.023666
v 199.016769 144.664902 -113.070389
v 104.163109 145.000000 -119.684235
v 68.473442 116.676010 -88.867348
v 336.081360 75.000000 -39.669914
v 288.037537 75.000000 -42.996021
v 286.881805 75.000000 -25.753235
v 120.169098 75.000000 -36.688076
v 119.061981 75.000000 -14.020378
v 14.355484 75.000000 -21.762644
v 64.091965 117.385658 -18.070049
v 34.722519 0.000000 -298.060730
v 174.728851 0.000000 -287.697388
v 168.381195 0.000000 -210.271606
v 223.127228 0.000000 -206.190796
v 224.035706 0.000000 -219.199295
v 280.590973 0.000000 -215.014282
v 278.484314 0.000000 -202.064438
v 347.717133 0.000000 -196.903793
v 336.081360 0.000000 -39.669914
v 288.037537 0.000000 -42.996021
v 286.881805 0.000000 -25.753235
v 120.169098 0.000000 -36.688076
v 119.061981 0.000000 -14.020378
v 14.355484 0.000000 -21.762644
vt 0.176080 0.942270
vt 0.327090 0.955210
vt 0.330130 0.882790
vt 0.188110 0.716080
vt 0.788140 0.917720
vt 0.546750 0.638750
vt 0.286160 0.617620
vt 0.791310 0.862630
vt 0.574740 0.610150
vt 0.713240 0.621690
vt 0.923300 0.873260
vt 0.955270 0.370910
vt 0.765070 0.354430
vt 0.683030 0.439050
vt 0.612990 0.341240
vt 0.462590 0.328210
vt 0.245940 0.554770
vt 0.696470 0.306650
vt 0.770850 0.313050
vt 0.615480 0.299680
vt 0.480020 0.080839
vt 0.263070 0.298310
vt 0.039438 0.930470
vt 0.095392 0.047729
vn 0.6090 0.7926 0.0297
vn -0.0426 0.7597 0.6489
vn 0.5961 0.8019 0.0400
vn 0.0448 -0.7612 -0.6470
vn 0.6038 0.7959 0.0447
vn 0.0441 0.8054 -0.5911
vn -0.6328 -0.7674 -0.1030
vn -0.6059 0.7944 -0.0423
vn 0.6101 0.7907 0.0500
vn 0.6458 -0.7620 0.0476
vn -0.0450 -0.7930 0.6076
vn 0.0738 -0.0000 -0.9973
vn -0.0737 -0.0004 0.9973
usemtl None
s off
f 24/1/1 22/2/1 21/3/1 17/4/1
f 21/3/2 20/5/2 15/6/2 16/7/2 17/4/2
f 20/5/3 19/8/3 14/9/3 15/6/3
f 14/9/4 13/10/4 18/11/4 19/8/4
f 18/11/5 7/12/5 13/10/5
f 7/12/6 8/13/6 11/14/6 9/15/6 10/16/6 12/17/6 16/7/6 15/6/6 14/9/6 13/10/6
f 11/14/7 5/18/7 3/19/7 8/13/7
f 5/18/8 4/20/8 9/15/8 11/14/8
f 10/16/9 2/21/9 6/22/9 12/17/9
f 23/23/10 1/24/10 6/22/10 12/17/10 16/7/10 17/4/10 24/1/10
f 1/24/11 2/21/11 6/22/11
f 4/20/12 5/18/12 3/19/12
f 22/2/13 24/1/13 23/23/13
