# Blender v2.92.0 OBJ File: ''
# www.blender.org
mtllib CG10_500_049072_0017_roof.mtl
o CG10_500_049072_0017_roof
v 294.386963 75.000000 -226.963821
v 27.431335 75.000000 -242.799484
v 240.790573 113.641953 -177.098206
v 176.636566 113.839508 -180.632599
v 121.393707 145.000000 -141.134674
v 132.444931 144.992630 -140.489227
v 288.160431 75.000000 -121.682159
v 225.443573 75.000000 -124.872444
v 66.651695 108.636566 -93.745682
v 64.947571 108.738297 -62.498463
v 108.635933 75.000000 -44.586754
v 220.290955 75.000000 -38.169147
v 106.955482 75.000000 -11.134053
v 14.044722 75.000000 -16.626057
v 294.386963 0.000000 -226.963821
v 27.431335 0.000000 -242.799484
v 14.044722 0.000000 -16.626057
v 106.955482 0.000000 -11.134053
v 108.635933 0.000000 -44.586754
v 220.290955 0.000000 -38.169147
v 225.443573 0.000000 -124.872444
v 288.160431 0.000000 -121.682159
vt 0.045452 0.934540
vt 0.088775 0.044097
vt 0.392860 0.444350
vt 0.215700 0.630920
vt 0.210190 0.753940
vt 0.346130 0.956170
vt 0.351570 0.824460
vt 0.712920 0.849730
vt 0.428620 0.446890
vt 0.729590 0.508380
vt 0.571640 0.288850
vt 0.932560 0.520940
vt 0.779260 0.302760
vt 0.952710 0.106440
vn 0.5732 -0.8187 0.0339
vn -0.0336 0.8225 0.5677
vn 0.6031 0.7971 0.0303
vn -0.0336 0.8112 0.5837
vn 0.5971 0.8013 0.0355
vn -0.0300 0.8077 0.5888
vn 0.6062 0.7945 0.0359
vn 0.0349 0.8078 -0.5884
usemtl None
s off
f 14/1/1 2/2/1 5/3/1 9/4/1 10/5/1
f 14/1/2 13/6/2 10/5/2
f 13/6/3 11/7/3 9/4/3 10/5/3
f 11/7/4 12/8/4 6/9/4 5/3/4 9/4/4
f 12/8/5 8/10/5 4/11/5 6/9/5
f 8/10/6 7/12/6 3/13/6 4/11/6
f 7/12/7 1/14/7 3/13/7
f 1/14/8 2/2/8 5/3/8 6/9/8 4/11/8 3/13/8
