# Blender v2.92.0 OBJ File: ''
# www.blender.org
mtllib CG10_500_040068_0056.mtl
o CG10_500_040068_0056
v 23.413925 75.000000 -34.684418
v 38.269657 75.000000 -273.743683
v 86.216568 113.862312 -119.408241
v 89.014923 119.521431 -29.610039
v 134.821594 144.912018 -161.799789
v 141.314087 75.000000 -26.837891
v 137.968811 75.000000 -58.763985
v 258.841034 145.000000 -153.572601
v 296.763031 117.195786 -110.124046
v 323.419434 75.000000 -46.268055
v 321.757202 75.000000 -21.928013
v 366.488647 75.000000 -252.322235
v 361.374603 75.000000 -164.896484
v 386.351318 117.449333 -104.460358
v 401.728912 129.380737 -86.977837
v 397.035126 129.445831 -16.923641
v 467.649872 75.000000 -12.231271
v 477.242004 75.000000 -158.026886
v 23.413925 0.000000 -34.684418
v 38.269657 0.000000 -273.743683
v 366.488647 0.000000 -252.322235
v 361.374603 0.000000 -164.896484
v 477.242004 0.000000 -158.026886
v 467.649872 0.000000 -12.231271
v 321.757202 0.000000 -21.928013
v 323.419434 0.000000 -46.268055
v 137.968811 0.000000 -58.763985
v 141.314087 0.000000 -26.837891
vn -0.5594 0.8282 -0.0348
vn 0.0360 0.8334 -0.5515
vn 0.6488 0.7579 -0.0680
vn 0.6084 0.7926 0.0400
vn 0.5660 0.8237 0.0331
vn 0.0346 0.8110 -0.5840
vn -0.0379 0.8264 0.5619
vn -0.5838 0.8109 -0.0399
vn -0.0663 -0.0000 0.9978
vn -0.0664 -0.0159 0.9977
vn 0.0000 -1.0000 0.0000
vn 0.9981 0.0000 0.0620
vn -0.0651 0.0000 0.9979
vn -0.9983 0.0000 -0.0584
vn -0.0592 0.0000 0.9982
vn -0.9978 0.0000 -0.0656
vn 0.0663 0.0000 -0.9978
vn 0.9977 0.0000 0.0681
vn 0.0672 0.0000 -0.9977
vn -0.9946 0.0000 0.1042
vn 0.0664 0.0000 -0.9978
usemtl None
s off
f 1//1 4//1 3//1 5//1 2//1
f 5//2 8//2 12//2 2//2
f 3//3 4//3 6//3 7//3
f 16//4 17//4 18//4 15//4
f 8//5 9//5 13//5 12//5
f 9//6 14//6 15//6 18//6 13//6
f 7//7 10//7 14//7 9//7 8//7 5//7 3//7
f 10//8 11//8 16//8 15//8 14//8
f 17//9 16//9 11//9
f 6//10 4//10 1//10
f 19//11 20//11 21//11 22//11 23//11 24//11 25//11 26//11 27//11 28//11
f 1//12 19//12 20//12 2//12
f 2//13 20//13 21//13 12//13
f 12//14 21//14 22//14 13//14
f 13//15 22//15 23//15 18//15
f 18//16 23//16 24//16 17//16
f 17//17 24//17 25//17 11//17
f 11//18 25//18 26//18 10//18
f 10//19 26//19 27//19 7//19
f 7//20 27//20 28//20 6//20
f 6//21 28//21 19//21 1//21
