# Blender v2.92.0 OBJ File: ''
# www.blender.org
mtllib CG10_500_042074_0023_roof.mtl
o CG10_500_042074_0023_roof
v 274.677063 144.936707 -125.490959
v 229.081772 75.000000 -13.944784
v 306.629211 75.000000 -203.665283
v 13.489808 75.000000 -102.068123
v 91.107613 75.000000 -291.960236
v 59.124214 145.000000 -213.716125
v 229.081772 0.000000 -13.944784
v 306.629211 0.000000 -203.665283
v 91.107613 0.000000 -291.960236
v 13.489808 0.000000 -102.068123
vt 0.042024 0.666440
vt 0.184190 0.301580
vt 0.855690 0.589900
vt 0.713650 0.954430
vt 0.283820 0.045882
vt 0.955230 0.334430
vn 0.1899 -0.8649 -0.4646
vn -0.2418 -0.7702 0.5902
vn -0.9257 -0.0000 -0.3784
vn 0.9257 -0.0000 0.3784
usemtl None
s off
f 4/1/1 6/2/1 1/3/1 2/4/1
f 6/2/2 5/5/2 3/6/2 1/3/2
f 4/1/3 6/2/3 5/5/3
f 3/6/4 1/3/4 2/4/4
