# Blender v2.92.0 OBJ File: ''
# www.blender.org
mtllib CG10_500_042073_0019.mtl
o CG10_500_042073_0019
v 17.914701 75.000000 -126.210709
v 105.049583 75.000000 -71.360352
v 268.288818 75.000000 -15.328133
v 126.188606 75.000000 -104.802834
v 92.925217 116.208893 -141.242477
v 114.653671 116.243980 -175.693268
v 167.398926 144.994583 -186.835480
v 245.055740 145.000000 -137.946487
v 361.869049 75.000000 -163.988861
v 132.504745 75.000000 -308.362854
v 17.914701 0.000000 -126.210709
v 105.049583 0.000000 -71.360352
v 126.188606 0.000000 -104.802834
v 268.288818 0.000000 -15.328133
v 361.869049 0.000000 -163.988861
v 132.504745 0.000000 -308.362854
vn -0.3240 0.7939 0.5146
vn 0.5534 0.7560 0.3498
vn 0.3282 -0.7876 -0.5214
vn 0.5381 0.7719 0.3387
vn 0.5047 -0.8028 0.3175
vn 0.3404 0.7692 -0.5408
vn 0.0000 1.0000 0.0000
vn -0.5327 0.0000 0.8463
vn 0.8453 0.0000 0.5343
vn -0.5328 0.0000 0.8462
vn 0.8463 0.0000 0.5327
vn 0.5327 0.0000 -0.8463
vn -0.8464 0.0000 -0.5325
usemtl None
s off
f 4//1 3//1 8//1 7//1 6//1
f 2//2 4//2 6//2 5//2
f 2//3 1//3 5//3
f 3//4 9//4 8//4
f 1//5 10//5 7//5 6//5 5//5
f 10//6 7//6 8//6 9//6
f 11//7 12//7 13//7 14//7 15//7 16//7
f 1//8 11//8 12//8 2//8
f 2//9 12//9 13//9 4//9
f 4//10 13//10 14//10 3//10
f 3//11 14//11 15//11 9//11
f 9//12 15//12 16//12 10//12
f 10//13 16//13 11//13 1//13
