# Blender v2.92.0 OBJ File: ''
# www.blender.org
mtllib CG10_500_045070_0015_roof.mtl
o CG10_500_045070_0015_roof
v 172.978409 75.000000 -17.314293
v 288.155579 75.000000 -297.397034
v 106.967499 145.000000 -87.748489
v 192.773468 144.955582 -296.261108
v 129.164642 75.000000 -362.858978
v 13.851846 75.000000 -82.832016
v 172.978409 0.000000 -17.314293
v 288.155579 0.000000 -297.397034
v 129.164642 0.000000 -362.858978
v 13.851846 0.000000 -82.832016
vt 0.046019 0.782590
vt 0.355370 0.769690
vt 0.574680 0.954560
vt 0.429120 0.047614
vt 0.640440 0.222410
vt 0.957330 0.219430
vn 0.3306 -0.4961 -0.8029
vn 0.5910 -0.7691 0.2434
vn -0.3358 -0.4711 0.8156
vn 0.5764 0.7820 0.2370
usemtl None
s off
f 6/1/1 3/2/1 1/3/1
f 6/1/2 5/4/2 4/5/2 3/2/2
f 5/4/3 2/6/3 4/5/3
f 1/3/4 2/6/4 4/5/4 3/2/4
