# Blender v2.92.0 OBJ File: ''
# www.blender.org
mtllib CG10_500_044064_0001.mtl
o CG10_500_044064_0001
v 341.231903 145.000000 -108.452126
v 334.288239 75.000000 -180.728806
v 347.944275 75.000000 -38.582462
v 23.607323 144.986435 -77.928703
v 30.318439 75.000000 -8.072596
v 16.665030 75.000000 -150.191391
v 334.288239 0.000000 -180.728806
v 347.944275 0.000000 -38.582462
v 30.318439 0.000000 -8.072596
v 16.665030 0.000000 -150.191391
vn -0.0675 -0.7081 -0.7029
vn 0.0664 -0.7199 0.6909
vn 0.9954 0.0000 -0.0956
vn -0.9954 -0.0000 0.0956
vn 0.0000 -1.0000 0.0000
vn -0.0956 0.0000 -0.9954
vn 0.0957 0.0000 0.9954
usemtl None
s off
f 5//1 4//1 1//1 3//1
f 1//2 4//2 6//2 2//2
f 6//3 4//3 5//3
f 3//4 1//4 2//4
f 7//5 8//5 9//5 10//5
f 2//4 7//4 8//4 3//4
f 3//6 8//6 9//6 5//6
f 5//3 9//3 10//3 6//3
f 6//7 10//7 7//7 2//7
