# Blender v2.92.0 OBJ File: ''
# www.blender.org
mtllib CG10_500_042071_0003.mtl
o CG10_500_042071_0003
v 118.107841 75.000000 -337.163727
v 281.631897 75.000000 -268.531616
v 164.055740 145.000000 -219.798553
v 126.558907 144.998734 -130.461258
v 12.320387 75.000000 -85.110504
v 175.836090 75.000000 -16.481888
v 118.107841 0.000000 -337.163727
v 281.631897 0.000000 -268.531616
v 175.836090 0.000000 -16.481888
v 12.320387 0.000000 -85.110504
vn 0.5749 -0.7819 0.2413
vn -0.2443 0.7757 0.5820
vn 0.5679 0.7879 0.2384
vn 0.2369 0.7908 -0.5644
vn 0.0000 -1.0000 0.0000
vn -0.3870 0.0000 0.9221
vn -0.9221 0.0000 -0.3870
vn 0.3870 0.0000 -0.9221
vn 0.9221 0.0000 0.3870
usemtl None
s off
f 5//1 1//1 3//1 4//1
f 5//2 6//2 4//2
f 6//3 2//3 3//3 4//3
f 2//4 1//4 3//4
f 7//5 8//5 9//5 10//5
f 1//6 7//6 8//6 2//6
f 2//7 8//7 9//7 6//7
f 6//8 9//8 10//8 5//8
f 5//9 10//9 7//9 1//9
