# Blender v2.92.0 OBJ File: ''
# www.blender.org
mtllib CG10_500_049069_0020.mtl
o CG10_500_049069_0020
v 291.377258 75.000000 -18.338505
v 13.958804 75.000000 -34.184696
v 197.136246 145.000000 -126.680916
v 134.425598 144.997528 -130.259323
v 97.266136 120.923210 -172.465744
v 303.909332 75.000000 -237.158890
v 166.628448 75.000000 -244.983459
v 104.620476 120.934326 -301.663544
v 173.800598 75.000000 -370.710571
v 33.523457 75.000000 -378.744293
v 291.377258 0.000000 -18.338505
v 13.958804 0.000000 -34.184696
v 33.523457 0.000000 -378.744293
v 173.800598 0.000000 -370.710571
v 166.628448 0.000000 -244.983459
v 303.909332 0.000000 -237.158890
vn 0.0321 -0.8265 -0.5620
vn 0.5714 0.8200 0.0327
vn 0.0293 0.8569 -0.5146
vn 0.5754 0.8172 0.0328
vn 0.0305 0.8460 -0.5323
vn -0.5197 0.8539 -0.0295
vn 0.0000 -1.0000 0.0000
vn 0.0570 0.0000 -0.9984
vn 0.9984 0.0000 0.0567
vn -0.0572 0.0000 0.9984
vn -0.9984 0.0000 -0.0570
vn -0.0569 0.0000 0.9984
vn -0.9984 0.0000 -0.0572
usemtl None
s off
f 2//1 4//1 3//1 1//1
f 1//2 6//2 3//2
f 6//3 7//3 5//3 4//3 3//3
f 7//4 9//4 8//4 5//4
f 9//5 10//5 8//5
f 10//6 2//6 4//6 5//6 8//6
f 11//7 12//7 13//7 14//7 15//7 16//7
f 1//8 11//8 12//8 2//8
f 2//9 12//9 13//9 10//9
f 10//10 13//10 14//10 9//10
f 9//11 14//11 15//11 7//11
f 7//12 15//12 16//12 6//12
f 6//13 16//13 11//13 1//13
