# Blender v2.92.0 OBJ File: ''
# www.blender.org
mtllib CG10_500_041068_0059_roof.mtl
o CG10_500_041068_0059_roof
v 12.019914 75.000000 -21.662281
v 113.553505 75.000000 -16.046879
v 66.826859 109.018166 -66.532257
v 239.074707 75.000000 -90.404770
v 118.115295 75.000000 -96.834671
v 71.378662 109.057014 -148.145935
v 142.974319 145.000000 -195.870789
v 129.323135 144.987106 -196.577972
v 80.154045 111.027176 -252.511444
v 81.540657 111.057739 -276.849640
v 250.701584 75.000000 -300.643829
v 137.135529 75.000000 -306.358063
v 138.629135 75.000000 -331.738556
v 29.419054 75.000000 -337.779694
v 12.019914 0.000000 -21.662281
v 113.553505 0.000000 -16.046879
v 118.115295 0.000000 -96.834671
v 239.074707 0.000000 -90.404770
v 250.701584 0.000000 -300.643829
v 137.135529 0.000000 -306.358063
v 138.629135 0.000000 -331.738556
v 29.419054 0.000000 -337.779694
vt 0.310040 0.217940
vt 0.527110 0.062885
vt 0.521430 0.134580
vt 0.304770 0.286690
vt 0.953240 0.150720
vt 0.543630 0.446690
vt 0.491720 0.444700
vt 0.909030 0.744620
vt 0.449110 0.726460
vt 0.271400 0.581510
vt 0.431760 0.954670
vt 0.254090 0.812060
vt 0.045703 0.938810
vt 0.111860 0.045820
vn -0.5560 -0.8305 -0.0327
vn -0.0270 -0.8438 0.5360
vn 0.5658 0.8239 0.0313
vn -0.0304 0.8198 0.5718
vn 0.5655 0.8241 0.0319
vn -0.0320 0.8149 0.5787
vn 0.0292 0.8491 -0.5274
vn 0.5447 -0.8381 0.0300
usemtl None
s off
f 10/1/1 13/2/1 12/3/1 9/4/1
f 11/5/2 7/6/2 8/7/2 9/4/2 12/3/2
f 4/8/3 11/5/3 7/6/3
f 5/9/4 4/8/4 7/6/4 8/7/4 6/10/4
f 2/11/5 5/9/5 6/10/5 3/12/5
f 1/13/6 2/11/6 3/12/6
f 14/14/7 10/1/7 13/2/7
f 14/14/8 10/1/8 9/4/8 8/7/8 6/10/8 3/12/8 1/13/8
