# Blender v2.92.0 OBJ File: ''
# www.blender.org
mtllib CG10_500_038058_0035.mtl
o CG10_500_038058_0035
v 27.416929 75.000000 -215.167358
v 451.104462 75.000000 -192.378479
v 78.517937 115.716026 -160.704834
v 241.015823 115.933868 -151.687866
v 356.941956 145.000000 -108.535255
v 276.702667 144.995468 -112.856842
v 184.392700 75.000000 -99.105728
v 21.655958 75.000000 -108.433510
v 441.238739 75.000000 -9.618512
v 179.924698 75.000000 -23.712433
v 27.416929 0.000000 -215.167358
v 451.104462 0.000000 -192.378479
v 441.238739 0.000000 -9.618512
v 179.924698 0.000000 -23.712433
v 184.392700 0.000000 -99.105728
v 21.655958 0.000000 -108.433510
vn -0.6151 -0.7877 -0.0332
vn 0.0321 -0.8028 -0.5954
vn -0.6072 0.7937 -0.0360
vn -0.0339 0.8060 0.5910
vn -0.6014 0.7983 -0.0325
vn 0.0333 0.7853 -0.6183
vn 0.0000 -1.0000 0.0000
vn -0.0537 0.0000 0.9986
vn -0.9985 0.0000 -0.0539
vn 0.0539 0.0000 -0.9985
vn 0.9982 0.0000 0.0592
vn 0.0572 0.0000 -0.9984
vn 0.9985 0.0000 0.0539
usemtl None
s off
f 9//1 5//1 2//1
f 9//2 10//2 6//2 5//2
f 10//3 6//3 4//3 7//3
f 7//4 4//4 3//4 8//4
f 8//5 3//5 1//5
f 1//6 3//6 4//6 6//6 5//6 2//6
f 11//7 12//7 13//7 14//7 15//7 16//7
f 1//8 11//8 12//8 2//8
f 2//9 12//9 13//9 9//9
f 9//10 13//10 14//10 10//10
f 10//11 14//11 15//11 7//11
f 7//12 15//12 16//12 8//12
f 8//13 16//13 11//13 1//13
