# Blender v2.92.0 OBJ File: ''
# www.blender.org
mtllib CG10_500_035061_0038_roof.mtl
o CG10_500_035061_0038_roof
v 34.200077 75.000000 -26.129116
v 190.025909 75.000000 -17.335751
v 117.808342 144.967834 -97.288345
v 45.584431 75.000000 -229.310287
v 125.906410 144.998077 -241.203735
v 203.952057 75.000000 -263.815979
v 113.169014 145.000000 -266.447815
v 8.359153 75.000000 -303.072906
v 148.486023 75.000000 -373.764587
v 34.200077 0.000000 -26.129116
v 190.025909 0.000000 -17.335751
v 203.952057 0.000000 -263.815979
v 148.486023 0.000000 -373.764587
v 8.359153 0.000000 -303.072906
v 45.584431 0.000000 -229.310287
vt 0.038880 0.226850
vt 0.526370 0.320290
vt 0.690630 0.046519
vt 0.948610 0.327000
vt 0.585610 0.384680
vt 0.883840 0.955780
vt 0.547950 0.751820
vt 0.159070 0.933340
vt 0.212020 0.415020
vn -0.2968 0.7522 -0.5883
vn 0.5885 0.7520 -0.2969
vn 0.6733 0.7384 0.0380
vn -0.0382 0.7346 0.6774
vn -0.6597 0.7507 -0.0370
vn -0.6002 0.7402 0.3029
usemtl None
s off
f 8/1/1 7/2/1 9/3/1
f 6/4/2 9/3/2 7/2/2 5/5/2
f 2/6/3 6/4/3 5/5/3 3/7/3
f 1/8/4 2/6/4 3/7/4
f 4/9/5 1/8/5 3/7/5 5/5/5
f 8/1/6 4/9/6 5/5/6 7/2/6
