# Blender v2.92.0 OBJ File: ''
# www.blender.org
mtllib CG10_500_045072_0029_roof.mtl
o CG10_500_045072_0029_roof
v 15.074569 75.000000 -102.378899
v 150.327316 75.000000 -426.311584
v 147.031311 113.664001 -264.275818
v 183.661972 113.922081 -350.978027
v 173.262741 145.000000 -202.173401
v 155.701721 144.995987 -160.130447
v 257.072083 75.000000 -381.714233
v 220.370590 75.000000 -295.782104
v 309.063507 75.000000 -257.924561
v 210.036224 75.000000 -20.929844
v 15.074569 0.000000 -102.378899
v 150.327316 0.000000 -426.311584
v 257.072083 0.000000 -381.714233
v 220.370590 0.000000 -295.782104
v 309.063507 0.000000 -257.924561
v 210.036224 0.000000 -20.929844
vt 0.046670 0.770960
vt 0.482050 0.641770
vt 0.650270 0.953180
vt 0.536420 0.547710
vt 0.455210 0.408780
vt 0.568610 0.214810
vt 0.465410 0.046283
vt 0.795890 0.146050
vt 0.682260 0.338300
vt 0.956850 0.422990
vn 0.2103 -0.8380 -0.5035
vn -0.5035 0.8381 -0.2102
vn 0.2183 0.8243 -0.5224
vn -0.5284 -0.8184 -0.2257
vn -0.2184 -0.8310 0.5116
vn -0.5159 -0.8291 -0.2156
usemtl None
s off
f 1/1/1 6/2/1 10/3/1
f 6/2/2 5/4/2 3/5/2 4/6/2 2/7/2 1/1/2
f 4/6/3 7/8/3 2/7/3
f 7/8/4 8/9/4 3/5/4 4/6/4
f 8/9/5 9/10/5 5/4/5 3/5/5
f 6/2/6 5/4/6 9/10/6 10/3/6
