# Blender v2.92.0 OBJ File: ''
# www.blender.org
mtllib CG10_500_038059_0017.mtl
o CG10_500_038059_0017
v 235.016525 75.000000 -358.517365
v 29.519783 75.000000 -370.280548
v 135.530426 145.000000 -364.212219
v 215.392670 75.000000 -15.697825
v 115.907364 144.999435 -21.392609
v 9.897560 75.000000 -27.460869
v 235.016525 0.000000 -358.517365
v 29.519783 0.000000 -370.280548
v 9.897560 0.000000 -27.460869
v 215.392670 0.000000 -15.697825
vn -0.5739 -0.8183 -0.0329
vn 0.5495 -0.8349 0.0315
vn -0.0571 0.0000 0.9984
vn 0.0571 -0.0000 -0.9984
vn 0.0000 1.0000 0.0000
vn -0.9984 0.0000 -0.0571
vn 0.9984 0.0000 0.0571
usemtl None
s off
f 5//1 3//1 1//1 4//1
f 5//2 6//2 2//2 3//2
f 1//3 3//3 2//3
f 6//4 5//4 4//4
f 7//5 8//5 9//5 10//5
f 1//4 7//4 8//4 2//4
f 2//6 8//6 9//6 6//6
f 6//3 9//3 10//3 4//3
f 4//7 10//7 7//7 1//7
