# Blender v2.92.0 OBJ File: ''
# www.blender.org
mtllib CG10_500_042059_0004.mtl
o CG10_500_042059_0004
v 137.883667 75.000000 -350.267914
v 30.557676 75.000000 -356.193634
v 78.187004 113.037346 -297.138306
v 255.545883 75.000000 -257.568115
v 132.853882 75.000000 -264.517578
v 73.453880 112.936699 -213.893097
v 146.870377 144.992142 -164.115479
v 113.705963 145.000000 -165.982773
v 92.149231 129.731766 -145.548080
v 89.393112 129.699249 -96.441994
v 244.607941 75.000000 -59.438488
v 173.982422 75.000000 -63.391270
v 171.256592 75.000000 -15.714482
v 12.234627 75.000000 -24.493408
v 137.883667 0.000000 -350.267914
v 30.557676 0.000000 -356.193634
v 12.234627 0.000000 -24.493408
v 171.256592 0.000000 -15.714482
v 173.982422 0.000000 -63.391270
v 244.607941 0.000000 -59.438488
v 255.545883 0.000000 -257.568115
v 132.853882 0.000000 -264.517578
vn 0.0322 -0.8120 -0.5828
vn -0.5983 0.8006 -0.0331
vn -0.0308 -0.8288 0.5587
vn 0.5576 0.8295 0.0327
vn 0.0325 0.8178 -0.5746
vn -0.5343 -0.8447 -0.0305
vn 0.0322 -0.8167 -0.5762
vn 0.5599 0.8280 0.0309
vn 0.0000 1.0000 0.0000
vn 0.0551 0.0000 -0.9985
vn -0.9985 0.0000 -0.0552
vn -0.0551 0.0000 0.9985
vn 0.9984 0.0000 0.0571
vn -0.0559 0.0000 0.9984
vn 0.9985 0.0000 0.0551
vn 0.0566 0.0000 -0.9984
vn 0.9983 0.0000 0.0586
usemtl None
s off
f 14//1 10//1 13//1
f 10//2 9//2 8//2 6//2 3//2 2//2 14//2
f 3//3 2//3 1//3
f 1//4 3//4 6//4 5//4
f 5//5 6//5 8//5 7//5 4//5
f 13//6 10//6 9//6 12//6
f 12//7 9//7 8//7 7//7 11//7
f 4//8 7//8 11//8
f 15//9 16//9 17//9 18//9 19//9 20//9 21//9 22//9
f 1//10 15//10 16//10 2//10
f 2//11 16//11 17//11 14//11
f 14//12 17//12 18//12 13//12
f 13//13 18//13 19//13 12//13
f 12//14 19//14 20//14 11//14
f 11//15 20//15 21//15 4//15
f 4//16 21//16 22//16 5//16
f 5//17 22//17 15//17 1//17
