# Blender v2.92.0 OBJ File: ''
# www.blender.org
mtllib CG10_500_035064_0015_roof.mtl
o CG10_500_035064_0015_roof
v 524.685913 75.000000 -12.195497
v 25.694134 75.000000 -44.147873
v 531.611084 145.000000 -120.328506
v 32.615540 144.966019 -152.228409
v 538.164124 75.000000 -222.657455
v 39.165890 75.000000 -254.507645
v 524.685913 0.000000 -12.195497
v 25.694134 0.000000 -44.147873
v 39.165890 0.000000 -254.507645
v 538.164124 0.000000 -222.657455
vt 0.045557 0.835270
vt 0.930290 0.954490
vt 0.942570 0.551010
vt 0.057829 0.431980
vt 0.069443 0.050345
vt 0.954190 0.169190
vn -0.0347 0.8400 0.5415
vn -0.0359 -0.8259 0.5627
vn -0.9980 -0.0000 -0.0639
vn 0.9980 -0.0000 0.0639
usemtl None
s off
f 2/1/1 1/2/1 3/3/1 4/4/1
f 4/4/2 6/5/2 5/6/2 3/3/2
f 2/1/3 4/4/3 6/5/3
f 5/6/4 3/3/4 1/2/4
