# Blender v2.92.0 OBJ File: ''
# www.blender.org
mtllib CG10_500_035061_0017_roof.mtl
o CG10_500_035061_0017_roof
v 17.634102 75.000000 -24.785326
v 25.951696 75.000000 -207.863571
v 21.661545 145.000000 -113.491325
v 140.658127 75.000000 -215.060791
v 141.185608 75.000000 -202.524567
v 189.622375 75.000000 -212.836273
v 189.053116 75.000000 -200.306778
v 317.669098 75.000000 -11.170147
v 325.973450 75.000000 -193.962997
v 321.695496 144.890869 -99.737617
v 17.634102 0.000000 -24.785326
v 25.951696 0.000000 -207.863571
v 141.185608 0.000000 -202.524567
v 140.658127 0.000000 -215.060791
v 189.622375 0.000000 -212.836273
v 189.053116 0.000000 -200.306778
v 325.973450 0.000000 -193.962997
v 317.669098 0.000000 -11.170147
vt 0.051562 0.890330
vt 0.063338 0.497830
vt 0.940630 0.558680
vt 0.928860 0.950570
vt 0.075882 0.080250
vt 0.412820 0.103870
vt 0.552790 0.113690
vt 0.953140 0.141760
vt 0.411280 0.048404
vt 0.554450 0.058247
vn 0.0281 -0.7853 -0.6184
vn -0.0276 -0.8035 0.5947
vn 0.0000 -1.0000 -0.0000
vn -0.9990 -0.0000 -0.0454
vn 0.9990 -0.0000 0.0454
usemtl None
s off
f 1/1/1 3/2/1 10/3/1 8/4/1
f 3/2/2 2/5/2 5/6/2 7/7/2 9/8/2 10/3/2
f 5/6/3 4/9/3 6/10/3 7/7/3
f 1/1/4 3/2/4 2/5/4
f 9/8/5 10/3/5 8/4/5
