# Blender v2.92.0 OBJ File: ''
# www.blender.org
mtllib CG10_500_034060_0016.mtl
o CG10_500_034060_0016
v 289.397339 75.000000 -298.481140
v 280.085602 75.000000 -147.269852
v 226.355560 75.000000 -29.912390
v 263.329346 75.000000 -630.463989
v 243.045807 75.000000 -301.005798
v 233.759430 75.000000 -150.170776
v 205.529755 123.065033 -222.587387
v 158.315369 122.942612 -225.363983
v 156.508148 131.789597 -436.014404
v 163.015274 131.817139 -542.454224
v 136.021103 132.663879 -126.968277
v 147.927536 132.736801 -322.338867
v 128.658844 144.998108 -341.992645
v 133.157074 145.000000 -415.106964
v 79.797264 75.000000 -641.767761
v 73.485451 75.000000 -537.831726
v 35.539959 75.000000 -41.664955
v 47.380741 75.000000 -237.945831
v 12.886189 75.000000 -239.416321
v 31.401989 75.000000 -540.571289
v 289.397339 0.000000 -298.481140
v 280.085602 0.000000 -147.269852
v 233.759430 0.000000 -150.170776
v 226.355560 0.000000 -29.912390
v 35.539959 0.000000 -41.664955
v 47.380741 0.000000 -237.945831
v 12.886189 0.000000 -239.416321
v 31.401989 0.000000 -540.571289
v 73.485451 0.000000 -537.831726
v 79.797264 0.000000 -641.767761
v 263.329346 0.000000 -630.463989
v 243.045807 0.000000 -301.005798
vn -0.0328 0.8455 0.5329
vn 0.5173 -0.8552 0.0312
vn 0.5134 0.8575 0.0316
vn -0.0233 0.8378 0.5455
vn -0.5384 0.8420 -0.0331
vn 0.0330 0.8612 -0.5072
vn -0.5367 0.8431 -0.0326
vn 0.0318 0.8558 -0.5163
vn 0.0352 -0.8263 -0.5622
vn 0.5186 0.8544 0.0319
vn 0.0279 0.8582 -0.5126
vn 0.0000 -1.0000 0.0000
vn -0.9981 0.0000 -0.0615
vn 0.0625 0.0000 -0.9980
vn 0.0615 0.0000 -0.9981
vn 0.9982 0.0000 0.0602
vn 0.0426 0.0000 -0.9991
vn 0.9981 0.0000 0.0614
vn -0.0650 0.0000 0.9979
vn 0.9982 0.0000 0.0606
vn -0.0615 0.0000 0.9981
vn -0.9981 0.0000 -0.0614
vn -0.0544 0.0000 0.9985
usemtl None
s off
f 17//1 3//1 11//1
f 17//2 18//2 12//2 11//2
f 12//3 11//3 3//3 6//3 8//3 5//3 4//3 10//3 9//3 14//3 13//3
f 19//4 18//4 12//4 13//4
f 19//5 13//5 14//5 20//5
f 20//6 14//6 9//6 16//6
f 16//7 9//7 10//7 15//7
f 15//8 10//8 4//8
f 6//9 8//9 7//9 2//9
f 7//10 2//10 1//10
f 5//11 8//11 7//11 1//11
f 21//12 22//12 23//12 24//12 25//12 26//12 27//12 28//12 29//12 30//12 31//12 32//12
f 1//13 21//13 22//13 2//13
f 2//14 22//14 23//14 6//14
f 6//13 23//13 24//13 3//13
f 3//15 24//15 25//15 17//15
f 17//16 25//16 26//16 18//16
f 18//17 26//17 27//17 19//17
f 19//18 27//18 28//18 20//18
f 20//19 28//19 29//19 16//19
f 16//20 29//20 30//20 15//20
f 15//21 30//21 31//21 4//21
f 4//22 31//22 32//22 5//22
f 5//23 32//23 21//23 1//23
