# Blender v2.92.0 OBJ File: ''
# www.blender.org
mtllib CG10_500_041073_0009_roof.mtl
o CG10_500_041073_0009_roof
v 225.420151 75.000000 -15.048504
v 14.258892 75.000000 -103.719849
v 179.461349 145.000000 -159.478409
v 162.375336 144.991287 -166.637634
v 131.591782 112.835831 -226.487686
v 137.292542 112.830673 -240.087067
v 200.466644 75.000000 -252.952255
v 306.668884 75.000000 -208.531540
v 101.563431 75.000000 -311.661346
v 206.582092 75.000000 -267.561127
v 225.420151 0.000000 -15.048504
v 14.258892 0.000000 -103.719849
v 101.563431 0.000000 -311.661346
v 206.582092 0.000000 -267.561127
v 200.466644 0.000000 -252.952255
v 306.668884 0.000000 -208.531540
vt 0.315410 0.043984
vt 0.426370 0.263540
vt 0.408670 0.305250
vt 0.504270 0.488840
vt 0.044282 0.681840
vt 0.641560 0.179260
vt 0.622570 0.224070
vt 0.557330 0.510800
vt 0.700060 0.953840
vt 0.952390 0.360330
vn 0.4880 -0.8485 0.2049
vn -0.2273 -0.8095 0.5413
vn 0.5339 0.8155 0.2235
vn 0.2008 -0.8549 -0.4783
vn -0.2299 -0.8031 0.5497
vn 0.5348 0.8146 0.2246
usemtl None
s off
f 9/1/1 6/2/1 5/3/1 4/4/1 2/5/1
f 10/6/2 6/2/2 9/1/2
f 7/7/3 10/6/3 6/2/3 5/3/3
f 2/5/4 4/4/4 3/8/4 1/9/4
f 8/10/5 3/8/5 4/4/5 5/3/5 7/7/5
f 1/9/6 8/10/6 3/8/6
