# Blender v2.92.0 OBJ File: ''
# www.blender.org
mtllib CG10_500_038060_0016.mtl
o CG10_500_038060_0016
v 26.389334 75.000000 -289.820709
v 327.284454 75.000000 -273.008820
v 117.912071 145.000000 -177.550995
v 214.375473 144.998901 -172.163010
v 262.028412 112.100807 -122.665970
v 64.449524 108.741631 -128.916229
v 111.955605 75.000000 -78.226471
v 207.351471 75.000000 -72.899658
v 205.862350 75.000000 -54.106827
v 314.717834 75.000000 -48.027122
v 257.155762 112.676758 -51.232960
v 108.326042 75.000000 -13.290092
v 11.015348 75.000000 -18.720459
v 58.095177 108.773468 -16.080553
v 26.389334 0.000000 -289.820709
v 327.284454 0.000000 -273.008820
v 314.717834 0.000000 -48.027122
v 205.862350 0.000000 -54.106827
v 207.351471 0.000000 -72.899658
v 111.955605 0.000000 -78.226471
v 108.326042 0.000000 -13.290092
v 11.015348 0.000000 -18.720459
vn -0.0305 -0.8368 0.5466
vn 0.5462 0.8371 0.0305
vn -0.5896 0.8063 -0.0467
vn -0.0321 0.8179 0.5745
vn 0.5565 0.8303 0.0311
vn -0.5814 0.8130 -0.0330
vn -0.0558 -0.0002 0.9984
vn -0.0557 -0.0004 0.9984
vn 0.0000 -1.0000 0.0000
vn -0.0558 0.0000 0.9984
vn -0.9984 0.0000 -0.0558
vn 0.0558 0.0000 -0.9984
vn 0.9969 0.0000 0.0790
vn 0.0557 0.0000 -0.9984
vn 0.9984 0.0000 0.0566
usemtl None
s off
f 1//1 2//1 4//1 3//1
f 10//2 2//2 4//2 5//2 11//2
f 9//3 11//3 5//3 8//3
f 7//4 8//4 5//4 4//4 3//4 6//4
f 12//5 7//5 6//5 14//5
f 13//6 14//6 6//6 3//6 1//6
f 10//7 11//7 9//7
f 12//8 14//8 13//8
f 15//9 16//9 17//9 18//9 19//9 20//9 21//9 22//9
f 1//10 15//10 16//10 2//10
f 2//11 16//11 17//11 10//11
f 10//12 17//12 18//12 9//12
f 9//13 18//13 19//13 8//13
f 8//12 19//12 20//12 7//12
f 7//11 20//11 21//11 12//11
f 12//14 21//14 22//14 13//14
f 13//15 22//15 15//15 1//15
