# Blender v2.92.0 OBJ File: ''
# www.blender.org
mtllib CG10_500_045071_0012.mtl
o CG10_500_045071_0012
v 79.631454 75.000000 -340.743103
v 15.778905 75.000000 -185.362686
v 123.660645 145.000000 -230.596909
v 182.361710 75.000000 -116.934319
v 156.863541 75.000000 -54.863567
v 231.356369 144.972290 -186.322556
v 249.256088 117.882828 -144.314789
v 224.262680 117.863579 -83.533592
v 341.471649 75.000000 -233.010468
v 252.044113 75.000000 -15.749846
v 79.631454 0.000000 -340.743103
v 15.778905 0.000000 -185.362686
v 182.361710 0.000000 -116.934319
v 156.863541 0.000000 -54.863567
v 252.044113 0.000000 -15.749846
v 341.471649 0.000000 -233.010468
vn -0.2453 0.7638 0.5971
vn 0.2417 0.7723 -0.5874
vn -0.5921 0.7683 -0.2432
vn -0.2414 0.7725 0.5874
vn 0.5916 0.7686 0.2435
vn -0.5980 0.7629 -0.2458
vn 0.0000 1.0000 0.0000
vn -0.9249 0.0000 -0.3801
vn -0.3800 0.0000 0.9250
vn -0.9250 0.0000 -0.3800
vn -0.3801 0.0000 0.9249
vn 0.9247 0.0000 0.3806
vn 0.3805 0.0000 -0.9248
usemtl None
s off
f 4//1 7//1 6//1 3//1 2//1
f 1//2 3//2 6//2 9//2
f 7//3 4//3 5//3 8//3
f 8//4 5//4 10//4
f 9//5 6//5 7//5 8//5 10//5
f 3//6 1//6 2//6
f 11//7 12//7 13//7 14//7 15//7 16//7
f 1//8 11//8 12//8 2//8
f 2//9 12//9 13//9 4//9
f 4//10 13//10 14//10 5//10
f 5//11 14//11 15//11 10//11
f 10//12 15//12 16//12 9//12
f 9//13 16//13 11//13 1//13
