# Blender v2.92.0 OBJ File: ''
# www.blender.org
mtllib CG10_500_038067_0020.mtl
o CG10_500_038067_0020
v 404.626068 75.000000 -174.965454
v 324.789581 75.000000 -15.289268
v 363.115051 145.000000 -91.930199
v 290.552643 75.000000 -253.325241
v 281.952087 75.000000 -236.123932
v 229.167999 75.000000 -262.439148
v 237.799042 75.000000 -279.701630
v 17.836685 75.000000 -168.796967
v 56.061329 144.832275 -245.258743
v 97.482437 75.000000 -328.090302
v 404.626068 0.000000 -174.965454
v 324.789581 0.000000 -15.289268
v 17.836685 0.000000 -168.796967
v 97.482437 0.000000 -328.090302
v 229.167999 0.000000 -262.439148
v 237.799042 0.000000 -279.701630
v 290.552643 0.000000 -253.325241
v 281.952087 0.000000 -236.123932
vn 0.2830 -0.7744 -0.5658
vn -0.2686 -0.7984 0.5388
vn 0.0000 -1.0000 0.0000
vn 0.8944 -0.0001 0.4472
vn -0.8944 -0.0001 -0.4472
vn -0.8944 0.0000 -0.4472
vn 0.4473 0.0000 -0.8944
vn 0.8944 0.0000 0.4472
vn -0.4462 0.0000 0.8949
vn -0.4472 0.0000 0.8944
usemtl None
s off
f 2//1 8//1 9//1 3//1
f 3//2 9//2 10//2 6//2 5//2 1//2
f 6//3 7//3 4//3 5//3
f 1//4 3//4 2//4
f 8//5 9//5 10//5
f 11//3 12//3 13//3 14//3 15//3 16//3 17//3 18//3
f 1//6 11//6 12//6 2//6
f 2//7 12//7 13//7 8//7
f 8//8 13//8 14//8 10//8
f 10//9 14//9 15//9 6//9
f 6//8 15//8 16//8 7//8
f 7//10 16//10 17//10 4//10
f 4//6 17//6 18//6 5//6
f 5//9 18//9 11//9 1//9
