# Blender v2.92.0 OBJ File: ''
# www.blender.org
mtllib CG10_500_040068_0009_roof.mtl
o CG10_500_040068_0009_roof
v 16.083933 75.000000 -165.061554
v 29.305273 75.000000 -402.586578
v 41.971523 75.000000 -163.670898
v 36.848824 75.000000 -81.860855
v 117.571793 145.000000 -249.139130
v 120.461319 144.981873 -301.500549
v 123.414558 136.164673 -152.707382
v 128.346542 135.909927 -236.934204
v 150.766937 122.198662 -331.185669
v 138.753189 75.000000 -75.385193
v 135.800339 75.000000 -26.038755
v 143.180908 119.503510 -130.654373
v 186.035004 75.000000 -422.226349
v 184.997833 75.000000 -394.217468
v 197.995300 119.960258 -127.741219
v 195.003860 120.040146 -76.083878
v 202.047913 75.000000 -182.604767
v 206.825043 75.000000 -269.860138
v 244.983307 122.267067 -326.027130
v 259.379120 132.810745 -338.228638
v 245.014236 75.000000 -19.937441
v 254.012131 75.000000 -180.373138
v 332.120300 75.000000 -414.069824
v 323.700836 75.000000 -263.356293
v 16.083933 0.000000 -165.061554
v 29.305273 0.000000 -402.586578
v 184.997833 0.000000 -394.217468
v 186.035004 0.000000 -422.226349
v 332.120300 0.000000 -414.069824
v 323.700836 0.000000 -263.356293
v 206.825043 0.000000 -269.860138
v 202.047913 0.000000 -182.604767
v 254.012131 0.000000 -180.373138
v 245.014236 0.000000 -19.937441
v 135.800339 0.000000 -26.038755
v 138.753189 0.000000 -75.385193
v 36.848824 0.000000 -81.860855
v 41.971523 0.000000 -163.670898
vt 0.390230 0.941220
vt 0.560360 0.828250
vt 0.704060 0.954990
vt 0.398720 0.829830
vt 0.568950 0.711650
vt 0.729920 0.592840
vt 0.105890 0.815210
vt 0.354640 0.655290
vt 0.411440 0.705070
vt 0.580600 0.587800
vt 0.120610 0.630540
vt 0.368810 0.465160
vt 0.046218 0.627400
vt 0.337850 0.437610
vt 0.084211 0.091227
vt 0.346150 0.319410
vt 0.531600 0.110120
vt 0.703980 0.264050
vt 0.433240 0.252400
vt 0.745340 0.236500
vt 0.534580 0.046893
vt 0.954370 0.065305
vt 0.930170 0.405520
vt 0.594320 0.390830
vn 0.0360 -0.7636 -0.6447
vn 0.6249 -0.7798 0.0374
vn -0.6460 -0.7625 -0.0362
vn 0.0397 -0.7798 -0.6247
vn -0.0272 -0.7742 0.6324
vn 0.5969 -0.8015 0.0374
vn 0.0331 -0.7874 -0.6156
vn 0.5856 -0.8099 0.0326
vn -0.0316 -0.8082 0.5880
vn -0.6030 0.7974 -0.0223
vn 0.0327 0.8097 -0.5859
vn 0.6445 0.7637 0.0360
vn -0.0350 0.7762 0.6295
vn 0.6216 0.7826 0.0340
usemtl None
s off
f 11/1/1 16/2/1 21/3/1
f 11/1/2 10/4/2 15/5/2 16/2/2
f 15/5/3 22/6/3 21/3/3 16/2/3
f 4/7/4 7/8/4 12/9/4 15/5/4 10/4/4
f 12/9/5 17/10/5 22/6/5 15/5/5
f 3/11/6 8/12/6 7/8/6 4/7/6
f 1/13/7 5/14/7 8/12/7 3/11/7
f 1/13/8 2/15/8 6/16/8 5/14/8
f 2/15/9 14/17/9 19/18/9 9/19/9 6/16/9
f 19/18/10 20/20/10 13/21/10 14/17/10
f 20/20/11 23/22/11 13/21/11
f 20/20/12 24/23/12 23/22/12
f 9/19/13 18/24/13 24/23/13 20/20/13 19/18/13
f 17/10/14 18/24/14 9/19/14 6/16/14 5/14/14 8/12/14 7/8/14 12/9/14
