# Blender v2.92.0 OBJ File: ''
# www.blender.org
mtllib CG10_500_044073_0034_roof.mtl
o CG10_500_044073_0034_roof
v 450.931030 75.000000 -383.714355
v 513.803284 75.000000 -235.745239
v 418.052063 135.264130 -280.907471
v 404.494812 75.000000 -189.346542
v 414.037598 75.000000 -166.354965
v 307.442474 135.248032 -233.933548
v 301.722870 144.972778 -217.167847
v 247.689713 75.000000 -54.884056
v 232.997086 75.000000 -89.335236
v 192.656296 103.387726 -94.896652
v 201.424789 103.542580 -73.850655
v 153.961533 145.000000 -154.344376
v 148.497772 130.399338 -113.725533
v 142.114319 130.391006 -128.719513
v 180.042908 75.000000 -26.144186
v 171.712433 75.000000 -46.656071
v 103.096741 75.000000 -17.669750
v 24.548414 75.000000 -202.545761
v 450.931030 0.000000 -383.714355
v 513.803284 0.000000 -235.745239
v 404.494812 0.000000 -189.346542
v 414.037598 0.000000 -166.354965
v 232.997086 0.000000 -89.335236
v 247.689713 0.000000 -54.884056
v 180.042908 0.000000 -26.144186
v 171.712433 0.000000 -46.656071
v 103.096741 0.000000 -17.669750
v 24.548414 0.000000 -202.545761
vt 0.191630 0.956050
vt 0.045629 0.496150
vt 0.286170 0.616060
vt 0.264150 0.679800
vt 0.276020 0.717100
vt 0.319170 0.883940
vt 0.358100 0.763940
vt 0.334650 0.934960
vt 0.374400 0.816290
vt 0.460390 0.863470
vt 0.433080 0.777770
vt 0.769590 0.586180
vt 0.560820 0.459780
vt 0.751850 0.528990
vt 0.571450 0.418080
vt 0.955020 0.413570
vt 0.777050 0.301230
vt 0.838160 0.045487
vn 0.5269 -0.8199 -0.2239
vn 0.2398 0.7876 0.5676
vn -0.5587 0.7977 0.2269
vn 0.2448 0.7797 0.5762
vn 0.5802 0.7760 -0.2474
vn 0.2391 0.7918 0.5620
vn 0.5901 0.7693 -0.2449
vn 0.2370 0.7950 0.5584
vn 0.5982 0.7600 -0.2542
vn -0.2320 0.8050 -0.5461
usemtl None
s off
f 17/1/1 18/2/1 12/3/1 14/4/1 13/5/1
f 17/1/2 16/6/2 10/7/2 13/5/2
f 16/6/3 15/8/3 11/9/3 10/7/3
f 15/8/4 8/10/4 11/9/4
f 8/10/5 9/11/5 14/4/5 13/5/5 10/7/5 11/9/5
f 9/11/6 5/12/6 7/13/6 12/3/6 14/4/6
f 5/12/7 4/14/7 6/15/7 7/13/7
f 4/14/8 2/16/8 3/17/8 6/15/8
f 2/16/9 1/18/9 3/17/9
f 1/18/10 18/2/10 12/3/10 7/13/10 6/15/10 3/17/10
