# Blender v2.92.0 OBJ File: ''
# www.blender.org
mtllib CG10_500_040073_0007_roof.mtl
o CG10_500_040073_0007_roof
v 319.583740 75.000000 -241.115616
v 28.139063 75.000000 -256.907745
v 266.020996 114.277298 -190.795929
v 165.078857 114.312088 -196.218399
v 123.078690 145.000000 -156.911087
v 122.361862 144.983597 -144.075241
v 313.699310 75.000000 -132.437439
v 212.628738 75.000000 -137.817291
v 71.008873 110.813278 -100.162094
v 68.733337 110.580276 -64.216896
v 207.204117 75.000000 -43.477833
v 114.390221 75.000000 -48.684540
v 15.208009 75.000000 -17.503780
v 111.775398 75.000000 -12.280183
v 319.583740 0.000000 -241.115616
v 28.139063 0.000000 -256.907745
v 15.208009 0.000000 -17.503780
v 111.775398 0.000000 -12.280183
v 114.390221 0.000000 -48.684540
v 207.204117 0.000000 -43.477833
v 212.628738 0.000000 -137.817291
v 313.699310 0.000000 -132.437439
vt 0.045262 0.935170
vt 0.083747 0.048490
vt 0.366310 0.418850
vt 0.364170 0.466390
vt 0.211340 0.629030
vt 0.204560 0.762160
vt 0.340450 0.819690
vt 0.616680 0.838970
vt 0.332660 0.954520
vt 0.933630 0.509490
vt 0.951140 0.106980
vt 0.791730 0.293350
vt 0.491310 0.273270
vt 0.632820 0.489570
vn 0.5719 -0.8198 0.0309
vn -0.0331 0.8072 0.5894
vn 0.6049 0.7951 0.0434
vn 0.6110 0.7909 0.0331
vn 0.0322 0.8042 -0.5935
vn 0.6108 0.7910 0.0351
vn -0.0306 0.8174 0.5752
vn -0.0315 0.8122 0.5825
usemtl None
s off
f 13/1/1 2/2/1 5/3/1 6/4/1 9/5/1 10/6/1
f 12/7/2 11/8/2 6/4/2 9/5/2
f 14/9/3 12/7/3 9/5/3 10/6/3
f 7/10/4 1/11/4 3/12/4
f 1/11/5 2/2/5 5/3/5 4/13/5 3/12/5
f 11/8/6 8/14/6 4/13/6 5/3/6 6/4/6
f 8/14/7 7/10/7 3/12/7 4/13/7
f 13/1/8 14/9/8 10/6/8
