# Blender v2.92.0 OBJ File: ''
# www.blender.org
mtllib CG10_500_048070_0046.mtl
o CG10_500_048070_0046
v 25.165709 75.000000 -277.597961
v 9.108716 75.000000 -27.290167
v 72.028778 75.000000 -325.061279
v 69.329643 75.000000 -274.922455
v 99.114830 139.751465 -190.544434
v 94.991608 138.677261 -146.837036
v 103.983253 136.397110 -194.527100
v 102.214867 145.000000 -138.374191
v 100.470154 144.992874 -111.312607
v 125.259323 123.604790 -263.356171
v 122.083214 123.339928 -210.081619
v 149.394958 101.134132 -190.733063
v 166.457245 88.813492 -205.190247
v 191.745438 75.000000 -317.304260
v 185.411285 75.000000 -221.410629
v 203.541763 75.000000 -220.226440
v 190.271744 75.000000 -15.546622
v 25.165709 0.000000 -277.597961
v 9.108716 0.000000 -27.290167
v 190.271744 0.000000 -15.546622
v 203.541763 0.000000 -220.226440
v 185.411285 0.000000 -221.410629
v 191.745438 0.000000 -317.304260
v 72.028778 0.000000 -325.061279
v 69.329643 0.000000 -274.922455
vn -0.0398 0.7886 0.6137
vn 0.5887 0.8075 0.0382
vn 0.0405 0.7836 -0.6200
vn -0.6075 -0.7906 -0.0767
vn -0.6103 -0.7909 -0.0462
vn -0.6108 -0.7907 -0.0403
vn 0.0415 0.7672 -0.6401
vn 0.6514 -0.7579 0.0351
vn 0.0374 0.7864 -0.6166
vn 0.6308 -0.7749 0.0405
vn 0.0000 1.0000 0.0000
vn -0.9979 0.0000 -0.0640
vn -0.0647 0.0000 0.9979
vn 0.9979 0.0000 0.0647
vn 0.0652 0.0000 -0.9979
vn 0.9978 0.0000 0.0659
vn 0.0647 0.0000 -0.9979
vn -0.9986 0.0000 -0.0538
vn 0.0605 0.0000 -0.9982
usemtl None
s off
f 2//1 17//1 9//1
f 17//2 16//2 8//2 9//2
f 16//3 15//3 13//3 12//3 6//3 8//3
f 6//4 5//4 7//4 12//4
f 7//5 11//5 13//5 12//5
f 11//6 10//6 14//6 15//6 13//6
f 14//7 3//7 10//7
f 4//8 3//8 10//8 11//8
f 4//9 1//9 5//9 7//9 11//9
f 2//10 1//10 5//10 6//10 8//10 9//10
f 18//11 19//11 20//11 21//11 22//11 23//11 24//11 25//11
f 1//12 18//12 19//12 2//12
f 2//13 19//13 20//13 17//13
f 17//14 20//14 21//14 16//14
f 16//15 21//15 22//15 15//15
f 15//16 22//16 23//16 14//16
f 14//17 23//17 24//17 3//17
f 3//18 24//18 25//18 4//18
f 4//19 25//19 18//19 1//19
