# Blender v2.92.0 OBJ File: ''
# www.blender.org
mtllib CG10_500_042068_0001.mtl
o CG10_500_042068_0001
v 28.089933 75.000000 -318.888794
v 13.005888 75.000000 -27.658775
v 138.652145 145.000000 -134.519241
v 141.551178 144.947495 -192.230347
v 205.620773 108.552406 -251.789322
v 239.820389 108.332924 -250.406006
v 259.315643 75.000000 -196.430130
v 250.494659 75.000000 -15.317513
v 296.122894 75.000000 -305.076324
v 290.419922 75.000000 -195.491714
v 28.089933 0.000000 -318.888794
v 13.005888 0.000000 -27.658775
v 250.494659 0.000000 -15.317513
v 259.315643 0.000000 -196.430130
v 290.419922 0.000000 -195.491714
v 296.122894 0.000000 -305.076324
vn 0.0258 0.8651 -0.5009
vn 0.5112 0.8591 0.0249
vn -0.0160 0.8481 0.5295
vn 0.5289 0.8482 0.0275
vn -0.5034 0.8637 -0.0261
vn -0.0273 0.8506 0.5251
vn 0.0000 1.0000 0.0000
vn -0.9987 0.0000 -0.0517
vn -0.0519 0.0000 0.9987
vn 0.9988 0.0000 0.0486
vn -0.0302 0.0000 0.9995
vn 0.9986 0.0000 0.0520
vn 0.0515 0.0000 -0.9987
usemtl None
s off
f 1//1 4//1 5//1 6//1 9//1
f 4//2 3//2 8//2 7//2 5//2
f 7//3 10//3 6//3 5//3
f 10//4 9//4 6//4
f 1//5 2//5 3//5 4//5
f 2//6 8//6 3//6
f 11//7 12//7 13//7 14//7 15//7 16//7
f 1//8 11//8 12//8 2//8
f 2//9 12//9 13//9 8//9
f 8//10 13//10 14//10 7//10
f 7//11 14//11 15//11 10//11
f 10//12 15//12 16//12 9//12
f 9//13 16//13 11//13 1//13
