# Blender v2.92.0 OBJ File: ''
# www.blender.org
mtllib CG10_500_039056_0024_roof.mtl
o CG10_500_039056_0024_roof
v 65.043022 75.000000 -43.106190
v 13.135393 75.000000 -341.813293
v 178.959763 75.000000 -19.702597
v 171.672974 75.000000 -61.635529
v 149.547241 144.999161 -299.264191
v 180.697052 145.000000 -120.018639
v 287.461945 75.000000 -38.557274
v 280.175171 75.000000 -80.490211
v 294.574371 75.000000 -82.992393
v 242.662201 75.000000 -381.698669
v 65.043022 0.000000 -43.106190
v 13.135393 0.000000 -341.813293
v 242.662201 0.000000 -381.698669
v 294.574371 0.000000 -82.992393
v 280.175171 0.000000 -80.490211
v 287.461945 0.000000 -38.557274
v 178.959763 0.000000 -19.702597
v 171.672974 0.000000 -61.635529
vt 0.582930 0.950870
vt 0.559200 0.846300
vt 0.912620 0.799280
vt 0.936360 0.903850
vt 0.211870 0.892500
vt 0.588590 0.700700
vt 0.959530 0.793040
vt 0.042786 0.147600
vt 0.487120 0.253710
vt 0.790430 0.048133
vn 0.0000 -1.0000 -0.0000
vn -0.1337 -0.6245 -0.7695
vn 0.4753 -0.8760 -0.0826
vn 0.5434 0.8341 -0.0944
vn 0.1252 -0.6820 0.7206
usemtl None
s off
f 3/1/1 4/2/1 8/3/1 7/4/1
f 1/5/2 6/6/2 9/7/2 8/3/2 4/2/2
f 1/5/3 2/8/3 5/9/3 6/6/3
f 10/10/4 5/9/4 6/6/4 9/7/4
f 2/8/5 10/10/5 5/9/5
