# Blender v2.92.0 OBJ File: ''
# www.blender.org
mtllib CG10_500_039073_0008.mtl
o CG10_500_039073_0008
v 183.334335 75.000000 -486.956055
v 323.484344 75.000000 -428.360443
v 59.247158 145.000000 -189.247101
v 199.418655 144.995239 -130.666306
v 154.631073 75.000000 -23.223421
v 14.469056 75.000000 -81.791695
v 183.334335 0.000000 -486.956055
v 323.484344 0.000000 -428.360443
v 154.631073 0.000000 -23.223421
v 14.469056 0.000000 -81.791695
vn -0.1987 0.8570 0.4755
vn 0.0818 0.9772 -0.1957
vn 0.9230 -0.0001 0.3847
vn -0.9230 -0.0001 -0.3847
vn 0.0000 -1.0000 0.0000
vn -0.3857 0.0000 0.9226
vn -0.9230 0.0000 -0.3847
vn 0.3856 0.0000 -0.9227
vn 0.9230 0.0000 0.3847
usemtl None
s off
f 6//1 5//1 4//1 3//1
f 4//2 2//2 1//2 3//2
f 2//3 4//3 5//3
f 6//4 3//4 1//4
f 7//5 8//5 9//5 10//5
f 1//6 7//6 8//6 2//6
f 2//7 8//7 9//7 5//7
f 5//8 9//8 10//8 6//8
f 6//9 10//9 7//9 1//9
