# Blender v2.92.0 OBJ File: ''
# www.blender.org
mtllib CG10_500_048072_0023_roof.mtl
o CG10_500_048072_0023_roof
v 18.296795 75.000000 -68.142975
v 26.342417 75.000000 -230.262558
v 106.410034 145.000000 -144.094498
v 217.886414 75.000000 -58.253601
v 247.106125 144.976318 -137.096054
v 267.028961 75.000000 -218.242889
v 272.447357 144.978485 -120.741341
v 293.126892 75.000000 -9.685966
v 380.488586 75.000000 -145.031433
v 18.296795 0.000000 -68.142975
v 26.342417 0.000000 -230.262558
v 267.028961 0.000000 -218.242889
v 380.488586 0.000000 -145.031433
v 293.126892 0.000000 -9.685966
v 217.886414 0.000000 -58.253601
vt 0.045628 0.718420
vt 0.543360 0.759280
vt 0.616220 0.433490
vt 0.265360 0.404570
vt 0.065692 0.048502
vt 0.665910 0.098170
vt 0.948850 0.400700
vt 0.679420 0.501070
vt 0.730990 0.959980
vn -0.0325 0.7535 0.6567
vn -0.6383 0.7691 -0.0317
vn 0.0324 0.7608 -0.6481
vn -0.3595 -0.7485 0.5572
vn 0.5627 0.7426 0.3632
vn 0.3518 -0.7610 -0.5450
usemtl None
s off
f 1/1/1 4/2/1 5/3/1 3/4/1
f 3/4/2 2/5/2 1/1/2
f 5/3/3 6/6/3 2/5/3 3/4/3
f 6/6/4 9/7/4 7/8/4 5/3/4
f 7/8/5 8/9/5 9/7/5
f 8/9/6 4/2/6 5/3/6 7/8/6
