# Blender v2.92.0 OBJ File: ''
# www.blender.org
mtllib CG10_500_039056_0003.mtl
o CG10_500_039056_0003
v 178.428757 75.000000 -16.592842
v 9.439884 75.000000 -26.587959
v 92.859764 144.997971 -105.947350
v 101.841713 145.000000 -257.777954
v 197.393982 75.000000 -337.086578
v 28.394791 75.000000 -347.082336
v 178.428757 0.000000 -16.592842
v 9.439884 0.000000 -26.587959
v 28.394791 0.000000 -347.082336
v 197.393982 0.000000 -337.086578
vn 0.0378 -0.7688 -0.6384
vn 0.6640 -0.7467 0.0393
vn -0.6099 -0.7917 -0.0361
vn -0.0376 -0.7712 0.6354
vn 0.0000 -1.0000 0.0000
vn 0.0590 0.0000 -0.9983
vn 0.9983 0.0000 0.0590
vn -0.0590 0.0000 0.9983
vn -0.9983 0.0000 -0.0591
usemtl None
s off
f 2//1 3//1 1//1
f 2//2 6//2 4//2 3//2
f 4//3 5//3 1//3 3//3
f 6//4 5//4 4//4
f 7//5 8//5 9//5 10//5
f 1//6 7//6 8//6 2//6
f 2//7 8//7 9//7 6//7
f 6//8 9//8 10//8 5//8
f 5//9 10//9 7//9 1//9
