# Blender v2.92.0 OBJ File: ''
# www.blender.org
mtllib CG10_500_037058_0011.mtl
o CG10_500_037058_0011
v 357.775909 75.000000 -12.532885
v 231.513641 75.000000 -19.194031
v 17.633848 75.000000 -65.005646
v 232.385086 75.000000 -53.759007
v 300.315399 125.850502 -79.240761
v 301.632904 126.215363 -112.348557
v 104.530365 144.995132 -145.484451
v 280.368835 145.000000 -136.281616
v 368.452118 75.000000 -213.917709
v 26.416410 75.000000 -231.807648
v 357.775909 0.000000 -12.532885
v 231.513641 0.000000 -19.194031
v 232.385086 0.000000 -53.759007
v 17.633848 0.000000 -65.005646
v 26.416410 0.000000 -231.807648
v 368.452118 0.000000 -213.917709
vn -0.0333 0.7716 0.6352
vn 0.6459 -0.7627 0.0340
vn 0.0339 0.7611 -0.6478
vn -0.6400 -0.7677 -0.0339
vn -0.0329 0.7810 0.6237
vn 0.6028 -0.7977 0.0152
vn 0.0000 -1.0000 0.0000
vn 0.0527 0.0000 -0.9986
vn 0.9997 0.0000 0.0252
vn 0.0523 0.0000 -0.9986
vn 0.9986 0.0000 0.0526
vn -0.0522 0.0000 0.9986
vn -0.9986 0.0000 -0.0529
usemtl None
s off
f 4//1 6//1 8//1 7//1 3//1
f 10//2 7//2 3//2
f 8//3 9//3 10//3 7//3
f 5//4 6//4 8//4 9//4 1//4
f 2//5 1//5 5//5
f 4//6 6//6 5//6 2//6
f 11//7 12//7 13//7 14//7 15//7 16//7
f 1//8 11//8 12//8 2//8
f 2//9 12//9 13//9 4//9
f 4//10 13//10 14//10 3//10
f 3//11 14//11 15//11 10//11
f 10//12 15//12 16//12 9//12
f 9//13 16//13 11//13 1//13
