# Blender v2.92.0 OBJ File: ''
# www.blender.org
mtllib CG10_500_041071_0006.mtl
o CG10_500_041071_0006
v 25.686539 75.000000 -273.330475
v 9.972161 75.000000 -22.105944
v 87.867477 145.000000 -95.502327
v 94.005470 144.999069 -193.645355
v 160.208267 75.000000 -12.711050
v 171.924805 75.000000 -200.082977
v 164.262451 75.000000 -77.545952
v 175.917572 75.000000 -263.935883
v 234.528687 75.000000 -73.151909
v 242.191452 75.000000 -195.688904
v 25.686539 0.000000 -273.330475
v 9.972161 0.000000 -22.105944
v 160.208267 0.000000 -12.711050
v 164.262451 0.000000 -77.545952
v 234.528687 0.000000 -73.151909
v 242.191452 0.000000 -195.688904
v 171.924805 0.000000 -200.082977
v 175.917572 0.000000 -263.935883
vn 0.0000 1.0000 0.0000
vn -0.6696 -0.7415 -0.0419
vn 0.0417 -0.7447 -0.6661
vn 0.6900 -0.7225 0.0432
vn -0.0425 -0.7323 0.6797
vn -0.9980 0.0000 -0.0624
vn -0.0624 0.0000 0.9981
vn 0.9981 0.0000 0.0624
vn 0.0624 0.0000 -0.9981
usemtl None
s off
f 7//1 9//1 10//1 6//1
f 5//2 3//2 4//2 8//2 6//2 7//2
f 5//3 2//3 3//3
f 2//4 1//4 4//4 3//4
f 1//5 8//5 4//5
f 11//1 12//1 13//1 14//1 15//1 16//1 17//1 18//1
f 1//6 11//6 12//6 2//6
f 2//7 12//7 13//7 5//7
f 5//8 13//8 14//8 7//8
f 7//7 14//7 15//7 9//7
f 9//8 15//8 16//8 10//8
f 10//9 16//9 17//9 6//9
f 6//8 17//8 18//8 8//8
f 8//9 18//9 11//9 1//9
