# Blender v2.92.0 OBJ File: ''
# www.blender.org
mtllib CG10_500_034059_0041.mtl
o CG10_500_034059_0041
v 28.717365 75.000000 -216.347427
v 424.573944 75.000000 -195.852600
v 112.133766 145.000000 -131.376617
v 342.494141 144.967361 -119.487694
v 298.111450 126.814949 -99.607071
v 296.715851 126.603867 -76.218445
v 20.180996 75.000000 -50.638454
v 230.771957 75.000000 -39.806271
v 416.044403 75.000000 -30.276407
v 350.502045 75.000000 -33.647709
v 348.841614 75.000000 -9.789468
v 229.615112 75.000000 -15.926981
v 28.717365 0.000000 -216.347427
v 424.573944 0.000000 -195.852600
v 416.044403 0.000000 -30.276407
v 350.502045 0.000000 -33.647709
v 348.841614 0.000000 -9.789468
v 229.615112 0.000000 -15.926981
v 230.771957 0.000000 -39.806271
v 20.180996 0.000000 -50.638454
vn -0.6231 0.7815 -0.0321
vn 0.0326 -0.7732 -0.6333
vn -0.6263 0.7790 -0.0303
vn -0.6720 -0.7390 -0.0468
vn -0.0324 0.7768 0.6289
vn 0.6667 0.7446 0.0343
vn 0.0339 0.7548 -0.6551
vn 0.0000 -1.0000 0.0000
vn -0.0517 0.0000 0.9987
vn -0.9987 0.0000 -0.0514
vn 0.0514 0.0000 -0.9987
vn -0.9976 0.0000 -0.0694
vn 0.9988 0.0000 0.0484
vn 0.9987 0.0000 0.0514
usemtl None
s off
f 7//1 3//1 1//1
f 7//2 3//2 4//2 9//2 10//2 5//2 8//2
f 12//3 6//3 5//3 8//3
f 6//4 5//4 10//4 11//4
f 12//5 11//5 6//5
f 4//6 9//6 2//6
f 3//7 4//7 2//7 1//7
f 13//8 14//8 15//8 16//8 17//8 18//8 19//8 20//8
f 1//9 13//9 14//9 2//9
f 2//10 14//10 15//10 9//10
f 9//11 15//11 16//11 10//11
f 10//12 16//12 17//12 11//12
f 11//11 17//11 18//11 12//11
f 12//13 18//13 19//13 8//13
f 8//11 19//11 20//11 7//11
f 7//14 20//14 13//14 1//14
