# Blender v2.92.0 OBJ File: ''
# www.blender.org
mtllib CG10_500_043075_0004.mtl
o CG10_500_043075_0004
v 584.028931 75.000000 -188.229156
v 284.623230 75.000000 -315.257416
v 460.590698 144.923981 -136.180618
v 248.498566 75.000000 -226.846359
v 337.300079 145.000000 -188.375336
v 85.979385 75.000000 -295.518646
v 280.369446 112.977196 -166.065689
v 245.795120 139.124741 -148.099274
v 126.457520 139.086731 -198.572601
v 509.935730 75.000000 -14.103805
v 304.157776 75.000000 -101.035606
v 289.091431 75.000000 -49.086273
v 28.128649 75.000000 -159.563980
v 584.028931 0.000000 -188.229156
v 284.623230 0.000000 -315.257416
v 248.498566 0.000000 -226.846359
v 85.979385 0.000000 -295.518646
v 28.128649 0.000000 -159.563980
v 289.091431 0.000000 -49.086273
v 304.157776 0.000000 -101.035606
v 509.935730 0.000000 -14.103805
vn 0.2298 0.8087 -0.5415
vn 0.5522 0.7999 0.2350
vn -0.2335 0.8001 0.5526
vn 0.6530 0.7333 0.1894
vn -0.2547 0.7570 0.6017
vn 0.5968 -0.7611 0.2540
vn -0.5426 0.8102 -0.2217
vn 0.2557 0.7539 -0.6052
vn 0.0000 1.0000 0.0000
vn 0.3906 0.0000 -0.9206
vn -0.9257 0.0000 -0.3782
vn 0.3892 0.0000 -0.9211
vn -0.9202 0.0000 -0.3915
vn -0.3899 0.0000 0.9209
vn 0.9604 0.0000 0.2785
vn -0.3892 0.0000 0.9212
vn 0.9202 0.0000 0.3915
usemtl None
s off
f 2//1 5//1 3//1 1//1
f 3//2 10//2 1//2
f 7//3 11//3 10//3 3//3 5//3
f 7//4 8//4 12//4 11//4
f 8//5 9//5 13//5 12//5
f 6//6 9//6 13//6
f 2//7 4//7 7//7 5//7
f 6//8 9//8 8//8 7//8 4//8
f 14//9 15//9 16//9 17//9 18//9 19//9 20//9 21//9
f 1//10 14//10 15//10 2//10
f 2//11 15//11 16//11 4//11
f 4//12 16//12 17//12 6//12
f 6//13 17//13 18//13 13//13
f 13//14 18//14 19//14 12//14
f 12//15 19//15 20//15 11//15
f 11//16 20//16 21//16 10//16
f 10//17 21//17 14//17 1//17
