# Blender v2.92.0 OBJ File: ''
# www.blender.org
mtllib CG10_500_039068_0050.mtl
o CG10_500_039068_0050
v 285.390228 75.000000 -366.614258
v 473.198914 75.000000 -354.811890
v 281.983856 75.000000 -313.747406
v 28.693203 75.000000 -329.561218
v 381.280640 124.994621 -269.477234
v 367.938049 124.998543 -270.308594
v 83.106789 107.965454 -268.378693
v 104.152107 107.961655 -267.071442
v 341.259857 110.805298 -247.283356
v 226.371323 110.826279 -254.419464
v 43.237091 75.000000 -212.668106
v 21.432228 75.000000 -214.015594
v 164.637436 144.982498 -198.401138
v 462.061096 75.000000 -177.573639
v 283.868835 75.000000 -188.585190
v 163.386780 145.000000 -177.437393
v 262.751129 75.000000 -51.763359
v 275.853912 75.000000 -50.939995
v 120.220665 75.000000 -60.719761
v 34.280579 75.000000 -66.120110
v 260.539734 75.000000 -16.573051
v 118.009308 75.000000 -25.529736
v 285.390228 0.000000 -366.614258
v 473.198914 0.000000 -354.811890
v 462.061096 0.000000 -177.573639
v 283.868835 0.000000 -188.585190
v 275.853912 0.000000 -50.939995
v 262.751129 0.000000 -51.763359
v 260.539734 0.000000 -16.573051
v 118.009308 0.000000 -25.529736
v 120.220665 0.000000 -60.719761
v 34.280579 0.000000 -66.120110
v 43.237091 0.000000 -212.668106
v 21.432228 0.000000 -214.015594
v 28.693203 0.000000 -329.561218
v 281.983856 0.000000 -313.747406
vn 0.4965 -0.8675 0.0303
vn -0.0318 0.8623 0.5054
vn 0.0000 1.0000 -0.0000
vn 0.0305 -0.8696 -0.4928
vn 0.4922 -0.8699 0.0309
vn -0.0309 -0.8682 0.4953
vn -0.4906 0.8708 -0.0316
vn -0.0302 -0.8763 0.4808
vn 0.5042 0.8631 0.0294
vn 0.4999 0.8655 0.0314
vn 0.0308 -0.8664 -0.4984
vn 0.0000 -1.0000 0.0000
vn -0.0627 0.0000 0.9980
vn -0.9980 0.0000 -0.0627
vn 0.0617 0.0000 -0.9981
vn -0.9983 0.0000 -0.0581
vn 0.0627 0.0000 -0.9980
vn 0.9980 0.0000 0.0627
vn 0.9981 0.0000 0.0610
vn -0.0623 0.0000 0.9981
vn 0.9979 0.0000 0.0643
usemtl None
s off
f 8//1 13//1 16//1 20//1 11//1
f 20//2 19//2 17//2 18//2 16//2
f 22//3 21//3 17//3 19//3
f 7//4 8//4 11//4 12//4
f 12//5 4//5 7//5
f 4//6 3//6 9//6 10//6 13//6 8//6 7//6
f 9//7 6//7 1//7 3//7
f 1//8 2//8 5//8 6//8
f 15//9 10//9 13//9 16//9 18//9
f 5//10 14//10 2//10
f 14//11 15//11 10//11 9//11 6//11 5//11
f 23//12 24//12 25//12 26//12 27//12 28//12 29//12 30//12 31//12 32//12 33//12 34//12 35//12 36//12
f 1//13 23//13 24//13 2//13
f 2//14 24//14 25//14 14//14
f 14//15 25//15 26//15 15//15
f 15//16 26//16 27//16 18//16
f 18//17 27//17 28//17 17//17
f 17//14 28//14 29//14 21//14
f 21//17 29//17 30//17 22//17
f 22//18 30//18 31//18 19//18
f 19//17 31//17 32//17 20//17
f 20//19 32//19 33//19 11//19
f 11//15 33//15 34//15 12//15
f 12//18 34//18 35//18 4//18
f 4//20 35//20 36//20 3//20
f 3//21 36//21 23//21 1//21
