# Blender v2.92.0 OBJ File: ''
# www.blender.org
mtllib CG10_500_044066_0016.mtl
o CG10_500_044066_0016
v 370.481537 75.000000 -264.735931
v 29.434628 75.000000 -287.744110
v 27.757030 75.000000 -262.878357
v 27.151421 75.000000 -253.902008
v 305.195679 110.347626 -210.534317
v 204.011032 110.880287 -216.477432
v 24.097048 75.000000 -208.629257
v 23.250069 75.000000 -196.074966
v 125.021385 132.315598 -186.266953
v 112.342415 132.324142 -187.108109
v 362.794556 74.752762 -150.925690
v 261.195923 74.761192 -156.054276
v 142.599564 145.000000 -164.050476
v 140.243271 144.988174 -128.845673
v 257.463776 75.000000 -106.759354
v 359.359650 75.000000 -99.884804
v 16.838127 75.000000 -101.035583
v 33.192089 75.000000 -99.968437
v 251.147385 75.000000 -13.186581
v 28.425726 75.000000 -28.212906
v 370.481537 0.000000 -264.735931
v 29.434628 0.000000 -287.744110
v 27.757030 0.000000 -262.878357
v 27.151421 0.000000 -253.902008
v 24.097048 0.000000 -208.629257
v 23.250069 0.000000 -196.074966
v 16.838127 0.000000 -101.035583
v 33.192089 0.000000 -99.968437
v 28.425726 0.000000 -28.212906
v 251.147385 0.000000 -13.186581
v 257.463776 0.000000 -106.759354
v 359.359650 0.000000 -99.884804
vn -0.4985 -0.8662 -0.0356
vn -0.0003 -1.0000 0.0048
vn -0.0268 0.8467 0.5314
vn 0.5076 0.8609 0.0343
vn -0.0366 0.8390 0.5428
vn -0.5538 0.8319 -0.0368
vn -0.0344 0.8490 0.5273
vn -0.5382 0.8421 -0.0363
vn 0.0348 0.8558 -0.5162
vn 0.9971 -0.0348 0.0673
vn 0.0000 1.0000 0.0000
vn 0.0673 0.0000 -0.9977
vn -0.9977 0.0000 -0.0673
vn -0.0651 0.0000 0.9979
vn -0.9978 0.0000 -0.0663
vn -0.0673 0.0000 0.9977
vn 0.9977 0.0000 0.0673
usemtl None
s off
f 11//1 5//1 1//1
f 11//2 16//2 15//2 12//2
f 12//3 11//3 5//3 6//3
f 19//4 15//4 12//4 6//4 13//4 14//4
f 19//5 14//5 20//5
f 20//6 14//6 13//6 9//6 18//6
f 18//7 9//7 10//7 17//7
f 17//8 10//8 2//8 3//8 4//8 7//8 8//8
f 2//9 10//9 9//9 13//9 6//9 5//9 1//9
f 16//10 11//10 1//10
f 21//11 22//11 23//11 24//11 25//11 26//11 27//11 28//11 29//11 30//11 31//11 32//11
f 1//12 21//12 22//12 2//12
f 2//13 22//13 23//13 3//13
f 3//13 23//13 24//13 4//13
f 4//13 24//13 25//13 7//13
f 7//13 25//13 26//13 8//13
f 8//13 26//13 27//13 17//13
f 17//14 27//14 28//14 18//14
f 18//15 28//15 29//15 20//15
f 20//16 29//16 30//16 19//16
f 19//17 30//17 31//17 15//17
f 15//16 31//16 32//16 16//16
f 16//17 32//17 21//17 1//17
