# Blender v2.92.0 OBJ File: ''
# www.blender.org
mtllib CG10_500_034059_0008_roof.mtl
o CG10_500_034059_0008_roof
v 25.502405 75.000000 -297.035645
v 196.462967 75.000000 -287.478912
v 215.785110 75.000000 -221.107941
v 193.060440 75.000000 -222.694778
v 112.414993 144.958267 -209.703171
v 110.877861 145.000000 -181.344330
v 125.598885 131.261566 -162.643661
v 149.248245 131.119141 -161.156204
v 84.871689 126.172058 -158.258286
v 135.726303 75.000000 -88.822174
v 208.170670 75.000000 -84.833839
v 80.773109 126.308868 -82.045776
v 131.841370 75.000000 -13.921631
v 9.992283 75.000000 -20.732103
v 25.502405 0.000000 -297.035645
v 196.462967 0.000000 -287.478912
v 193.060440 0.000000 -222.694778
v 215.785110 0.000000 -221.107941
v 208.170670 0.000000 -84.833839
v 135.726303 0.000000 -88.822174
v 131.841370 0.000000 -13.921631
v 9.992283 0.000000 -20.732103
vt 0.044214 0.933340
vt 0.583370 0.955240
vt 0.357400 0.736190
vt 0.375540 0.491130
vt 0.600560 0.714400
vt 0.921110 0.727220
vt 0.660390 0.481810
vt 0.555750 0.477030
vt 0.490610 0.416900
vt 0.954800 0.289040
vt 0.854250 0.283940
vt 0.869310 0.075631
vt 0.497410 0.325710
vt 0.112840 0.044901
vn -0.0345 0.7857 0.6176
vn -0.6844 -0.7283 -0.0355
vn -0.0335 0.7927 0.6087
vn -0.6636 -0.7472 -0.0371
vn 0.0457 0.7541 -0.6551
vn 0.6581 0.7522 0.0346
vn 0.0361 0.7621 -0.6464
vn 0.6057 -0.7950 0.0340
usemtl None
s off
f 14/1/1 13/2/1 12/3/1
f 13/2/2 12/3/2 9/4/2 10/5/2
f 9/4/3 10/5/3 11/6/3 8/7/3 7/8/3 6/9/3
f 11/6/4 8/7/4 3/10/4
f 8/7/5 3/10/5 4/11/5 7/8/5
f 6/9/6 7/8/6 4/11/6 2/12/6 5/13/6
f 5/13/7 2/12/7 1/14/7
f 1/14/8 5/13/8 6/9/8 9/4/8 12/3/8 14/1/8
