# Blender v2.92.0 OBJ File: ''
# www.blender.org
mtllib CG10_500_035062_0015_roof.mtl
o CG10_500_035062_0015_roof
v 13.449560 75.000000 -20.007513
v 141.337128 75.000000 -12.475537
v 87.006660 123.603546 -78.408401
v 307.245941 75.000000 -81.266754
v 145.761169 75.000000 -90.703667
v 91.238838 123.513367 -151.338943
v 112.554161 124.816689 -151.636688
v 140.677933 145.000000 -173.894089
v 232.133621 144.980545 -168.526535
v 25.161448 75.000000 -215.815903
v 50.143486 75.000000 -218.411179
v 317.414093 75.000000 -253.914993
v 53.083855 75.000000 -269.501190
v 13.449560 0.000000 -20.007513
v 141.337128 0.000000 -12.475537
v 145.761169 0.000000 -90.703667
v 307.245941 0.000000 -81.266754
v 317.414093 0.000000 -253.914993
v 53.083855 0.000000 -269.501190
v 50.143486 0.000000 -218.411179
v 25.161448 0.000000 -215.815903
vt 0.040511 0.929300
vt 0.425710 0.955920
vt 0.262070 0.722940
vt 0.439040 0.679490
vt 0.274820 0.465230
vt 0.339020 0.464180
vt 0.925440 0.712840
vt 0.699200 0.404500
vt 0.423730 0.385530
vt 0.956070 0.102770
vt 0.159890 0.047699
vt 0.151030 0.228230
vt 0.075787 0.237400
vn -0.0360 0.7900 0.6121
vn 0.6415 0.7663 0.0363
vn -0.0377 0.7635 0.6447
vn 0.6567 0.7531 0.0387
vn 0.0361 0.7903 -0.6117
vn 0.6006 -0.7988 0.0346
vn 0.0583 -0.8255 0.5614
vn -0.5697 0.8212 -0.0341
usemtl None
s off
f 1/1/1 2/2/1 3/3/1
f 5/4/2 6/5/2 3/3/2 2/2/2
f 7/6/3 6/5/3 5/4/3 4/7/3 9/8/3 8/9/3
f 9/8/4 4/7/4 12/10/4
f 13/11/5 8/9/5 9/8/5 12/10/5
f 7/6/6 11/12/6 13/11/6 8/9/6
f 7/6/7 6/5/7 10/13/7 11/12/7
f 1/1/8 3/3/8 6/5/8 10/13/8
