# Blender v2.92.0 OBJ File: ''
# www.blender.org
mtllib CG10_500_043070_0016.mtl
o CG10_500_043070_0016
v 67.866386 75.000000 -13.214008
v 238.979004 75.000000 -54.634892
v 237.766418 75.000000 -139.598022
v 219.483032 75.000000 -135.172195
v 128.022659 145.000000 -122.977707
v 227.224792 75.000000 -183.146164
v 208.941177 75.000000 -178.720291
v 114.082619 144.998779 -180.570496
v 12.724969 75.000000 -241.053558
v 183.825714 75.000000 -282.471588
v 67.866386 0.000000 -13.214008
v 238.979004 0.000000 -54.634892
v 219.483032 0.000000 -135.172195
v 237.766418 0.000000 -139.598022
v 227.224792 0.000000 -183.146164
v 208.941177 0.000000 -178.720291
v 183.825714 0.000000 -282.471588
v 12.724969 0.000000 -241.053558
vn 0.0000 -1.0000 0.0000
vn -0.5895 -0.7951 0.1427
vn -0.1521 0.7630 -0.6282
vn -0.6210 0.7693 0.1503
vn 0.1419 0.7975 0.5864
vn 0.0000 1.0000 0.0000
vn 0.2353 0.0000 0.9719
vn 0.9719 0.0000 -0.2353
vn -0.2353 0.0000 -0.9719
vn -0.9719 0.0000 0.2352
usemtl None
s off
f 4//1 7//1 6//1 3//1
f 2//2 5//2 8//2 10//2 7//2 4//2
f 10//3 9//3 8//3
f 9//4 1//4 5//4 8//4
f 1//5 2//5 5//5
f 11//6 12//6 13//6 14//6 15//6 16//6 17//6 18//6
f 1//7 11//7 12//7 2//7
f 2//8 12//8 13//8 4//8
f 4//7 13//7 14//7 3//7
f 3//8 14//8 15//8 6//8
f 6//9 15//9 16//9 7//9
f 7//8 16//8 17//8 10//8
f 10//9 17//9 18//9 9//9
f 9//10 18//10 11//10 1//10
