# Blender v2.92.0 OBJ File: ''
# www.blender.org
mtllib CG10_500_037058_0015.mtl
o CG10_500_037058_0015
v 315.413757 75.000000 -10.388448
v 15.444394 75.000000 -25.158472
v 236.171478 144.998703 -100.427757
v 102.244385 145.000000 -107.023712
v 323.816162 75.000000 -181.025848
v 23.847168 75.000000 -195.802948
v 315.413757 0.000000 -10.388448
v 15.444394 0.000000 -25.158472
v 23.847168 0.000000 -195.802948
v 323.816162 0.000000 -181.025848
vn -0.0310 0.7757 0.6304
vn 0.6413 0.7666 0.0316
vn 0.0313 0.7712 -0.6358
vn -0.6454 0.7632 -0.0318
vn 0.0000 -1.0000 0.0000
vn 0.0492 0.0000 -0.9988
vn 0.9988 0.0000 0.0492
vn -0.0492 0.0000 0.9988
vn -0.9988 0.0000 -0.0492
usemtl None
s off
f 2//1 1//1 3//1 4//1
f 1//2 5//2 3//2
f 6//3 4//3 3//3 5//3
f 6//4 2//4 4//4
f 7//5 8//5 9//5 10//5
f 1//6 7//6 8//6 2//6
f 2//7 8//7 9//7 6//7
f 6//8 9//8 10//8 5//8
f 5//9 10//9 7//9 1//9
