# Blender v2.92.0 OBJ File: ''
# www.blender.org
mtllib CG10_500_035062_0032.mtl
o CG10_500_035062_0032
v 135.017517 75.000000 -17.623135
v 18.858004 75.000000 -15.967126
v 276.140533 75.000000 -26.938375
v 135.190414 75.000000 -24.928795
v 78.621399 118.748596 -72.780807
v 285.801086 75.000000 -106.445740
v 275.012604 75.000000 -106.293938
v 137.070007 75.000168 -104.352959
v 79.100769 120.012009 -163.446487
v 213.667526 131.216812 -180.253265
v 130.376846 131.302841 -179.195740
v 113.193367 144.981964 -197.160309
v 112.659782 145.000000 -237.054672
v 283.595245 75.000000 -261.598938
v 199.112137 75.000000 -260.651215
v 198.131378 75.000000 -337.183380
v 14.397363 75.000000 -334.571686
v 135.017517 0.000000 -17.623135
v 18.858004 0.000000 -15.967126
v 14.397363 0.000000 -334.571686
v 198.131378 0.000000 -337.183380
v 199.112137 0.000000 -260.651215
v 283.595245 0.000000 -261.598938
v 285.801086 0.000000 -106.445740
v 275.012604 0.000000 -106.293938
v 276.140533 0.000000 -26.938375
v 135.190414 0.000000 -24.928795
vn 0.0082 -0.8162 0.5776
vn 0.0088 0.7878 0.6159
vn 0.6041 0.7968 0.0143
vn -0.0085 -0.7995 -0.6007
vn 0.0000 1.0000 0.0000
vn 0.6203 0.7843 -0.0088
vn 0.0064 -0.8201 0.5722
vn -0.6279 -0.7782 0.0080
vn 0.5856 -0.8106 -0.0082
vn 0.0000 -1.0000 0.0000
vn -0.0143 0.0000 -0.9999
vn 0.9999 0.0000 -0.0140
vn 0.0142 0.0000 0.9999
vn -0.9999 0.0000 0.0128
vn 0.0112 0.0000 0.9999
vn -0.9999 0.0000 0.0142
vn -0.0141 0.0000 -0.9999
vn -0.9997 0.0000 -0.0237
usemtl None
s off
f 17//1 16//1 13//1
f 2//2 1//2 5//2
f 9//3 5//3 1//3 4//3 8//3
f 12//4 11//4 10//4 6//4 7//4 8//4 9//4
f 3//5 7//5 8//5 4//5
f 14//6 10//6 6//6
f 15//7 14//7 10//7 11//7
f 16//8 15//8 11//8 12//8 13//8
f 17//9 13//9 12//9 9//9 5//9 2//9
f 18//10 19//10 20//10 21//10 22//10 23//10 24//10 25//10 26//10 27//10
f 1//11 18//11 19//11 2//11
f 2//12 19//12 20//12 17//12
f 17//13 20//13 21//13 16//13
f 16//14 21//14 22//14 15//14
f 15//15 22//15 23//15 14//15
f 14//16 23//16 24//16 6//16
f 6//17 24//17 25//17 7//17
f 7//16 25//16 26//16 3//16
f 3//11 26//11 27//11 4//11
f 4//18 27//18 18//18 1//18
