# Blender v2.92.0 OBJ File: ''
# www.blender.org
mtllib CG10_500_036062_0025_roof.mtl
o CG10_500_036062_0025_roof
v 245.892807 75.000000 -24.084602
v 370.928864 75.000000 -16.005407
v 164.089966 75.000000 -60.453392
v 244.743256 75.000000 -55.449738
v 316.395569 116.821724 -82.108047
v 24.568216 75.000000 -127.382401
v 167.848907 75.000000 -118.048874
v 317.009949 117.865463 -114.801376
v 281.609924 145.000000 -157.406174
v 380.055145 75.000000 -159.429062
v 512.353455 75.000000 -151.314133
v 285.313690 144.968613 -214.919724
v 142.290024 144.933685 -224.184311
v 311.551483 127.442337 -240.406494
v 445.534973 127.306351 -231.989105
v 38.222706 75.000000 -339.325867
v 522.457947 75.000000 -308.142090
v 245.892807 0.000000 -24.084602
v 370.928864 0.000000 -16.005407
v 380.055145 0.000000 -159.429062
v 512.353455 0.000000 -151.314133
v 522.457947 0.000000 -308.142090
v 38.222706 0.000000 -339.325867
v 24.568216 0.000000 -127.382401
v 167.848907 0.000000 -118.048874
v 164.089966 0.000000 -60.453392
v 244.743256 0.000000 -55.449738
vt 0.447890 0.932350
vt 0.675640 0.955040
vt 0.576310 0.769360
vt 0.692270 0.552170
vt 0.567490 0.324700
vt 0.519700 0.396290
vt 0.512950 0.557850
vt 0.577430 0.677520
vt 0.933250 0.574960
vt 0.811540 0.348350
vt 0.951650 0.134430
vt 0.069622 0.046837
vt 0.259180 0.370270
vt 0.044751 0.642180
vt 0.305740 0.668400
vt 0.298890 0.830190
vt 0.445800 0.844240
vn -0.0359 0.8309 0.5553
vn 0.5796 0.8141 0.0369
vn -0.0346 0.8253 0.5637
vn 0.5872 0.8085 0.0378
vn 0.0349 0.8399 -0.5416
vn -0.5311 0.8466 -0.0342
vn -0.0362 0.8305 0.5559
vn -0.5324 0.8458 -0.0347
vn -0.0346 0.8297 0.5571
vn -0.4989 0.8665 0.0183
usemtl None
s off
f 1/1/1 2/2/1 5/3/1
f 2/2/2 10/4/2 14/5/2 12/6/2 9/7/2 8/8/2 5/3/2
f 10/4/3 11/9/3 15/10/3 14/5/3
f 11/9/4 17/11/4 15/10/4
f 17/11/5 16/12/5 13/13/5 12/6/5 14/5/5 15/10/5
f 16/12/6 6/14/6 13/13/6
f 6/14/7 7/15/7 12/6/7 13/13/7
f 7/15/8 3/16/8 9/7/8 12/6/8
f 3/16/9 4/17/9 8/8/9 9/7/9
f 4/17/10 1/1/10 5/3/10 8/8/10
