# Blender v2.92.0 OBJ File: ''
# www.blender.org
mtllib CG10_500_049069_0046.mtl
o CG10_500_049069_0046
v 344.965759 75.000000 -190.551956
v 336.384064 75.000000 -33.555637
v 254.573639 145.000000 -119.431351
v 180.072952 75.000000 -210.853516
v 179.457397 75.000000 -199.589355
v 161.710098 75.000000 -9.462513
v 163.948257 75.000000 -43.949982
v 152.787888 75.000000 -201.045624
v 153.403488 75.000000 -212.310913
v 130.879837 144.686981 -126.525604
v 104.274590 121.524666 -66.377075
v 106.523712 121.533905 -101.220810
v 103.460396 114.511177 -160.809418
v 61.683056 75.000000 -114.311264
v 55.316372 75.000000 -15.278292
v 61.174789 114.187378 -163.470184
v 22.747383 75.000000 -208.146347
v 17.800079 75.000000 -117.493759
v 344.965759 0.000000 -190.551956
v 336.384064 0.000000 -33.555637
v 163.948257 0.000000 -43.949982
v 161.710098 0.000000 -9.462513
v 55.316372 0.000000 -15.278292
v 61.683056 0.000000 -114.311264
v 17.800079 0.000000 -117.493759
v 22.747383 0.000000 -208.146347
v 152.787888 0.000000 -201.045624
v 153.403488 0.000000 -212.310913
v 180.072952 0.000000 -210.853516
v 179.457397 0.000000 -199.589355
vn 0.0357 -0.7558 -0.6539
vn 0.6052 0.7951 0.0393
vn -0.0394 0.7558 0.6536
vn 0.6287 0.7769 0.0344
vn 0.0370 0.7353 -0.6767
vn 0.6916 -0.7213 0.0377
vn -0.0452 0.7809 0.6230
vn -0.7129 0.6998 -0.0458
vn 0.0000 -1.0000 -0.0000
vn -0.9985 0.0000 -0.0546
vn 0.0602 0.0000 -0.9982
vn -0.9979 0.0000 -0.0648
vn 0.0546 0.0000 -0.9985
vn 0.9979 0.0000 0.0642
vn 0.0723 0.0000 -0.9974
vn 0.9985 0.0000 0.0545
vn -0.0545 0.0000 0.9985
vn 0.9985 0.0000 0.0546
vn -0.0546 0.0000 0.9985
usemtl None
s off
f 15//1 11//1 6//1
f 6//2 7//2 12//2 11//2
f 7//3 2//3 3//3 10//3 12//3
f 2//4 1//4 3//4
f 1//5 5//5 8//5 17//5 16//5 13//5 10//5 3//5
f 16//6 18//6 17//6
f 18//7 14//7 13//7 16//7
f 14//8 15//8 11//8 12//8 10//8 13//8
f 8//9 9//9 4//9 5//9
f 19//9 20//9 21//9 22//9 23//9 24//9 25//9 26//9 27//9 28//9 29//9 30//9
f 1//10 19//10 20//10 2//10
f 2//11 20//11 21//11 7//11
f 7//12 21//12 22//12 6//12
f 6//13 22//13 23//13 15//13
f 15//14 23//14 24//14 14//14
f 14//15 24//15 25//15 18//15
f 18//16 25//16 26//16 17//16
f 17//17 26//17 27//17 8//17
f 8//18 27//18 28//18 9//18
f 9//19 28//19 29//19 4//19
f 4//10 29//10 30//10 5//10
f 5//17 30//17 19//17 1//17
