# Blender v2.92.0 OBJ File: ''
# www.blender.org
mtllib CG10_500_035062_0043.mtl
o CG10_500_035062_0043
v 307.278778 75.000000 -220.158585
v 27.606533 75.000000 -237.842926
v 107.372978 145.000000 -151.188629
v 233.931274 144.991241 -143.196259
v 76.473045 120.860245 -127.412140
v 120.696861 75.000000 -75.749611
v 297.459564 75.000000 -64.599785
v 72.556648 120.863503 -65.397476
v 13.709014 75.000000 -18.003477
v 116.643196 75.000000 -11.506044
v 307.278778 0.000000 -220.158585
v 27.606533 0.000000 -237.842926
v 13.709014 0.000000 -18.003477
v 116.643196 0.000000 -11.506044
v 120.696861 0.000000 -75.749611
v 297.459564 0.000000 -64.599785
vn 0.6940 0.7186 0.0438
vn -0.0431 0.7285 0.6836
vn -0.0411 -0.7584 0.6505
vn -0.7140 -0.6987 -0.0451
vn 0.6341 -0.7722 0.0401
vn 0.0421 -0.7436 -0.6673
vn 0.0000 1.0000 0.0000
vn 0.0631 0.0000 -0.9980
vn -0.9980 0.0000 -0.0631
vn -0.0630 0.0000 0.9980
vn 0.9980 0.0000 0.0630
usemtl None
s off
f 8//1 10//1 6//1 5//1
f 6//2 7//2 4//2 3//2 5//2
f 2//3 1//3 4//3 3//3
f 1//4 7//4 4//4
f 9//5 2//5 3//5 5//5 8//5
f 10//6 9//6 8//6
f 11//7 12//7 13//7 14//7 15//7 16//7
f 1//8 11//8 12//8 2//8
f 2//9 12//9 13//9 9//9
f 9//10 13//10 14//10 10//10
f 10//11 14//11 15//11 6//11
f 6//10 15//10 16//10 7//10
f 7//11 16//11 11//11 1//11
