# Blender v2.92.0 OBJ File: ''
# www.blender.org
mtllib CG10_500_043068_0006.mtl
o CG10_500_043068_0006
v 17.610043 75.000000 -105.587067
v 121.786270 144.746567 -61.764977
v 218.923706 75.000000 -20.944565
v 266.792236 145.000000 -405.461548
v 364.266968 75.000000 -364.455719
v 162.222900 75.000000 -449.408203
v 17.610043 0.000000 -105.587067
v 218.923706 0.000000 -20.944565
v 364.266968 0.000000 -364.455719
v 162.222900 0.000000 -449.408203
vn 0.4841 -0.8510 0.2036
vn 0.5083 0.8339 0.2151
vn 0.3876 0.0003 -0.9218
vn -0.3876 0.0003 0.9218
vn 0.0000 1.0000 0.0000
vn -0.3876 0.0000 0.9218
vn 0.9210 0.0000 0.3897
vn 0.3876 0.0000 -0.9218
vn -0.9218 0.0000 -0.3877
usemtl None
s off
f 1//1 6//1 4//1 2//1
f 2//2 3//2 5//2 4//2
f 1//3 2//3 3//3
f 5//4 4//4 6//4
f 7//5 8//5 9//5 10//5
f 1//6 7//6 8//6 3//6
f 3//7 8//7 9//7 5//7
f 5//8 9//8 10//8 6//8
f 6//9 10//9 7//9 1//9
