# Blender v2.92.0 OBJ File: ''
# www.blender.org
mtllib CG10_500_039067_0039.mtl
o CG10_500_039067_0039
v 15.621431 75.000000 -26.506069
v 123.894218 75.000000 -19.271780
v 210.410568 75.000000 -23.598986
v 310.341125 75.000000 -16.921898
v 125.988136 75.000000 -51.252979
v 211.869720 75.000000 -47.548588
v 72.981461 110.451233 -75.563736
v 262.447540 106.330261 -69.000000
v 264.048859 106.361801 -94.468666
v 75.187706 110.440590 -109.009903
v 131.366394 145.000000 -160.770859
v 205.688049 144.493439 -156.770844
v 319.119568 75.000000 -152.184479
v 338.146851 75.000000 -151.533905
v 107.629875 128.259888 -188.004105
v 268.569214 108.124847 -208.578537
v 290.171570 107.920784 -207.503159
v 190.883392 75.000000 -264.441589
v 112.424309 127.814919 -270.374542
v 345.040741 75.000000 -254.531189
v 195.085434 75.000000 -348.230682
v 37.699707 75.000000 -358.762085
v 15.621431 0.000000 -26.506069
v 123.894218 0.000000 -19.271780
v 125.988136 0.000000 -51.252979
v 211.869720 0.000000 -47.548588
v 210.410568 0.000000 -23.598986
v 310.341125 0.000000 -16.921898
v 319.119568 0.000000 -152.184479
v 338.146851 0.000000 -151.533905
v 345.040741 0.000000 -254.531189
v 190.883392 0.000000 -264.441589
v 195.085434 0.000000 -348.230682
v 37.699707 0.000000 -358.762085
vn 0.5442 0.8382 0.0356
vn -0.0232 0.8429 0.5376
vn -0.5363 0.8434 -0.0327
vn -0.0360 0.8413 0.5393
vn 0.5211 0.8528 0.0338
vn 0.5567 0.8302 0.0279
vn 0.0372 -0.8301 -0.5564
vn 0.0358 0.8443 -0.5347
vn -0.0177 0.8551 0.5182
vn -0.5366 -0.8431 -0.0359
vn 0.0351 0.8375 -0.5453
vn -0.5477 0.8359 -0.0364
vn 0.0000 1.0000 0.0000
vn -0.0667 0.0000 0.9978
vn 0.9979 0.0000 0.0653
vn -0.0431 0.0000 0.9991
vn -0.9981 0.0000 -0.0608
vn 0.9979 0.0000 0.0648
vn -0.0342 0.0000 0.9994
vn 0.9978 0.0000 0.0668
vn 0.0642 0.0000 -0.9979
vn 0.9987 0.0000 0.0501
vn 0.0668 0.0000 -0.9978
vn -0.9978 0.0000 -0.0663
usemtl None
s off
f 2//1 5//1 10//1 7//1
f 5//2 6//2 9//2 12//2 11//2 10//2
f 6//3 3//3 8//3 9//3
f 8//4 3//4 4//4
f 9//5 8//5 4//5 13//5 16//5 12//5
f 18//6 21//6 19//6 15//6
f 2//7 1//7 7//7
f 21//8 22//8 19//8
f 16//9 13//9 14//9 17//9
f 20//10 14//10 17//10
f 20//11 18//11 15//11 11//11 12//11 16//11 17//11
f 22//12 1//12 7//12 10//12 11//12 15//12 19//12
f 23//13 24//13 25//13 26//13 27//13 28//13 29//13 30//13 31//13 32//13 33//13 34//13
f 1//14 23//14 24//14 2//14
f 2//15 24//15 25//15 5//15
f 5//16 25//16 26//16 6//16
f 6//17 26//17 27//17 3//17
f 3//14 27//14 28//14 4//14
f 4//18 28//18 29//18 13//18
f 13//19 29//19 30//19 14//19
f 14//20 30//20 31//20 20//20
f 20//21 31//21 32//21 18//21
f 18//22 32//22 33//22 21//22
f 21//23 33//23 34//23 22//23
f 22//24 34//24 23//24 1//24
