# Blender v2.92.0 OBJ File: ''
# www.blender.org
mtllib CG10_500_034059_0036.mtl
o CG10_500_034059_0036
v 248.945984 75.000000 -255.292755
v 234.471878 75.000000 -12.613159
v 159.917938 144.917297 -173.892960
v 155.772781 145.000000 -106.062630
v 124.740707 115.732185 -212.185501
v 60.437187 75.000000 -22.995604
v 69.280067 75.000000 -164.073608
v 67.491714 115.704178 -215.634583
v 11.740993 75.000000 -167.575745
v 17.796246 75.000000 -269.078613
v 248.945984 0.000000 -255.292755
v 234.471878 0.000000 -12.613159
v 60.437187 0.000000 -22.995604
v 69.280067 0.000000 -164.073608
v 11.740993 0.000000 -167.575745
v 17.796246 0.000000 -269.078613
vn -0.0369 0.7846 0.6188
vn -0.6385 -0.7687 -0.0381
vn 0.0374 0.7779 -0.6273
vn 0.6129 -0.7892 0.0384
vn 0.0377 -0.7837 -0.6200
vn -0.6095 0.7919 -0.0364
vn 0.0000 -1.0000 0.0000
vn -0.9982 0.0000 -0.0595
vn 0.0596 0.0000 -0.9982
vn 0.9980 0.0000 0.0626
vn 0.0608 0.0000 -0.9982
vn 0.9982 0.0000 0.0596
vn -0.0595 0.0000 0.9982
usemtl None
s off
f 6//1 2//1 4//1
f 2//2 4//2 3//2 1//2
f 3//3 1//3 10//3 8//3 5//3
f 5//4 3//4 4//4 6//4 7//4
f 8//5 5//5 7//5 9//5
f 9//6 8//6 10//6
f 11//7 12//7 13//7 14//7 15//7 16//7
f 1//8 11//8 12//8 2//8
f 2//9 12//9 13//9 6//9
f 6//10 13//10 14//10 7//10
f 7//11 14//11 15//11 9//11
f 9//12 15//12 16//12 10//12
f 10//13 16//13 11//13 1//13
