# Blender v2.92.0 OBJ File: ''
# www.blender.org
mtllib CG10_500_038056_0046.mtl
o CG10_500_038056_0046
v 330.884766 75.000000 -9.371989
v 341.309021 75.000000 -173.068100
v 246.899994 145.000000 -97.009628
v 92.842812 144.948624 -106.777267
v 13.390079 75.000000 -29.626478
v 23.798723 75.000000 -193.075012
v 330.884766 0.000000 -9.371989
v 341.309021 0.000000 -173.068100
v 23.798723 0.000000 -193.075012
v 13.390079 0.000000 -29.626478
vn -0.0413 0.7610 0.6474
vn 0.6153 0.7873 0.0392
vn 0.0409 0.7600 -0.6487
vn -0.6836 0.7285 -0.0435
vn 0.0000 1.0000 0.0000
vn 0.9980 0.0000 0.0636
vn 0.0629 0.0000 -0.9980
vn -0.9980 0.0000 -0.0636
vn -0.0637 0.0000 0.9980
usemtl None
s off
f 5//1 1//1 3//1 4//1
f 1//2 2//2 3//2
f 6//3 4//3 3//3 2//3
f 6//4 5//4 4//4
f 7//5 8//5 9//5 10//5
f 1//6 7//6 8//6 2//6
f 2//7 8//7 9//7 6//7
f 6//8 9//8 10//8 5//8
f 5//9 10//9 7//9 1//9
