# Blender v2.92.0 OBJ File: ''
# www.blender.org
mtllib CG10_500_035060_0001.mtl
o CG10_500_035060_0001
v 303.707458 75.000000 -11.601037
v 321.509033 75.000000 -261.140350
v 247.223923 110.912086 -15.575237
v 252.240112 111.977089 -109.489883
v 203.869232 144.900299 -160.957535
v 194.436188 75.000000 -59.185280
v 192.997147 75.000000 -19.480812
v 132.593307 145.000000 -165.871155
v 58.803963 75.000000 -155.216003
v 28.846220 75.000000 -70.261421
v 32.980881 75.000000 -128.526779
v 37.008583 75.000000 -185.284729
v 43.792900 75.000000 -280.888824
v 16.454866 61.578335 -157.631531
v 303.707458 0.000000 -11.601037
v 321.509033 0.000000 -261.140350
v 43.792900 0.000000 -280.888824
v 37.008583 0.000000 -185.284729
v 58.803963 0.000000 -155.216003
v 32.980881 0.000000 -128.526779
v 28.846220 0.000000 -70.261421
v 194.436188 0.000000 -59.185280
v 192.997147 0.000000 -19.480812
vn 0.0385 0.8401 -0.5410
vn -0.5342 -0.8445 -0.0381
vn -0.5510 0.8342 -0.0200
vn -0.0377 0.8253 0.5634
vn 0.5848 -0.8101 0.0415
vn -0.3061 0.9258 0.2219
vn 0.2771 -0.9227 0.2681
vn 0.0710 0.0013 -0.9975
vn 0.0000 1.0000 0.0000
vn 0.9975 0.0000 0.0712
vn 0.0709 0.0000 -0.9975
vn -0.9975 0.0000 -0.0708
vn -0.8097 0.0000 0.5869
vn -0.7187 0.0000 -0.6953
vn -0.0667 0.0000 0.9978
vn -0.9993 0.0000 -0.0362
vn -0.0710 0.0000 0.9975
usemtl None
s off
f 2//1 13//1 8//1 5//1
f 5//2 2//2 1//2 3//2 4//2
f 3//3 4//3 6//3 7//3
f 6//4 4//4 5//4 8//4 10//4
f 12//5 13//5 8//5 10//5 11//5 14//5
f 12//6 14//6 9//6
f 11//7 14//7 9//7
f 7//8 3//8 1//8
f 15//9 16//9 17//9 18//9 19//9 20//9 21//9 22//9 23//9
f 1//10 15//10 16//10 2//10
f 2//11 16//11 17//11 13//11
f 13//12 17//12 18//12 12//12
f 12//13 18//13 19//13 9//13
f 9//14 19//14 20//14 11//14
f 11//12 20//12 21//12 10//12
f 10//15 21//15 22//15 6//15
f 6//16 22//16 23//16 7//16
f 7//17 23//17 15//17 1//17
