# Blender v2.92.0 OBJ File: ''
# www.blender.org
mtllib CG10_500_038056_0025.mtl
o CG10_500_038056_0025
v 328.288208 75.000000 -211.850372
v 16.339849 75.000000 -176.838135
v 251.516281 145.000000 -120.638313
v 100.450142 144.978638 -103.708275
v 346.761658 75.000000 -46.829823
v 34.801609 75.000000 -11.921582
v 328.288208 0.000000 -211.850372
v 16.339849 0.000000 -176.838135
v 34.801609 0.000000 -11.921582
v 346.761658 0.000000 -46.829823
vn 0.0712 0.7680 0.6365
vn 0.6254 0.7771 -0.0700
vn -0.0724 0.7609 -0.6448
vn -0.6758 0.7332 0.0757
vn 0.0000 1.0000 0.0000
vn -0.1115 0.0000 -0.9938
vn -0.9938 0.0000 0.1113
vn 0.1112 0.0000 0.9938
vn 0.9938 0.0000 -0.1113
usemtl None
s off
f 6//1 5//1 3//1 4//1
f 5//2 1//2 3//2
f 2//3 4//3 3//3 1//3
f 2//4 6//4 4//4
f 7//5 8//5 9//5 10//5
f 1//6 7//6 8//6 2//6
f 2//7 8//7 9//7 6//7
f 6//8 9//8 10//8 5//8
f 5//9 10//9 7//9 1//9
