# Blender v2.92.0 OBJ File: ''
# www.blender.org
mtllib CG10_500_043061_0006.mtl
o CG10_500_043061_0006
v 201.602982 75.000000 -14.054833
v 12.088944 75.000000 -24.175785
v 211.432373 75.000000 -94.505867
v 205.915176 75.000000 -94.800468
v 10.495060 75.000000 -105.235214
v 16.401068 75.000000 -104.919853
v 76.825996 145.000000 -183.299911
v 156.249496 144.999664 -179.058594
v 119.256294 75.000000 -220.374573
v 220.490112 75.000000 -264.111603
v 123.089821 75.012596 -269.297455
v 156.186218 75.000000 -267.545868
v 87.560463 75.000000 -271.210968
v 19.552986 75.000000 -274.843018
v 201.602982 0.000000 -14.054833
v 12.088944 0.000000 -24.175785
v 16.401068 0.000000 -104.919853
v 10.495060 0.000000 -105.235214
v 19.552986 0.000000 -274.843018
v 87.560463 0.000000 -271.210968
v 119.256294 0.000000 -220.374573
v 156.186218 0.000000 -267.545868
v 220.490112 0.000000 -264.111603
v 211.432373 0.000000 -94.505867
v 205.915176 0.000000 -94.800468
vn -0.0004 -1.0000 -0.0003
vn 0.0004 -1.0000 -0.0002
vn 0.0331 0.7838 -0.6201
vn 0.7602 0.6484 0.0406
vn 0.7471 -0.6635 0.0399
vn -0.0347 0.7586 0.6507
vn 0.0000 1.0000 0.0000
vn 0.0000 -1.0000 0.0000
vn 0.0533 0.0000 -0.9986
vn 0.9986 0.0000 0.0533
vn -0.0533 0.0000 0.9986
vn -0.8486 0.0000 0.5291
vn 0.7874 0.0000 0.6164
vn -0.9986 0.0000 -0.0533
usemtl None
s off
f 9//1 11//1 12//1
f 13//2 11//2 9//2
f 7//3 8//3 10//3 12//3 11//3 13//3 14//3
f 8//4 3//4 10//4
f 5//5 14//5 7//5
f 5//6 6//6 4//6 3//6 8//6 7//6
f 4//7 6//7 2//7 1//7
f 15//8 16//8 17//8 18//8 19//8 20//8 21//8 22//8 23//8 24//8 25//8
f 1//9 15//9 16//9 2//9
f 2//10 16//10 17//10 6//10
f 6//9 17//9 18//9 5//9
f 5//10 18//10 19//10 14//10
f 14//11 19//11 20//11 13//11
f 13//12 20//12 21//12 9//12
f 9//13 21//13 22//13 12//13
f 12//11 22//11 23//11 10//11
f 10//14 23//14 24//14 3//14
f 3//9 24//9 25//9 4//9
f 4//14 25//14 15//14 1//14
