# Blender v2.92.0 OBJ File: ''
# www.blender.org
mtllib CG10_500_042071_0001.mtl
o CG10_500_042071_0001
v 203.980804 75.000000 -12.970394
v 282.989960 75.000000 -199.737518
v 149.847046 145.000000 -145.942871
v 143.129120 145.000000 -148.784790
v 12.386150 75.000000 -94.021782
v 91.395348 75.000000 -280.788879
v 203.980804 0.000000 -12.970394
v 282.989960 0.000000 -199.737518
v 91.395348 0.000000 -280.788879
v 12.386150 0.000000 -94.021782
vn 0.5314 -0.8167 0.2248
vn 0.2213 0.8230 -0.5232
vn -0.5223 -0.8236 -0.2210
vn 0.2214 -0.8229 -0.5233
vn 0.0000 1.0000 0.0000
vn 0.9210 0.0000 0.3896
vn 0.3896 0.0000 -0.9210
vn -0.9210 0.0000 -0.3896
vn -0.3896 0.0000 0.9210
usemtl None
s off
f 5//1 6//1 4//1
f 4//2 3//2 2//2 6//2
f 2//3 1//3 3//3
f 1//4 5//4 4//4 3//4
f 7//5 8//5 9//5 10//5
f 1//6 7//6 8//6 2//6
f 2//7 8//7 9//7 6//7
f 6//8 9//8 10//8 5//8
f 5//9 10//9 7//9 1//9
