# Blender v2.92.0 OBJ File: ''
# www.blender.org
mtllib CG10_500_048066_0003_roof.mtl
o CG10_500_048066_0003_roof
v 259.239929 75.000000 -451.229065
v 237.000885 75.000000 -20.221691
v 173.566208 114.581833 -124.367561
v 170.590836 114.950027 -79.107841
v 163.339951 127.651047 -366.491089
v 156.981522 127.816162 -248.823288
v 125.723358 144.995300 -221.801727
v 123.218056 145.000000 -173.405289
v 109.808006 75.000000 -26.808626
v 112.989990 75.000000 -67.976105
v 89.629135 75.000000 -459.995636
v 83.047806 75.000000 -342.768524
v 26.875050 75.000000 -346.359283
v 12.729922 75.000000 -73.875381
v 259.239929 0.000000 -451.229065
v 237.000885 0.000000 -20.221691
v 109.808006 0.000000 -26.808626
v 112.989990 0.000000 -67.976105
v 12.729922 0.000000 -73.875381
v 26.875050 0.000000 -346.359283
v 83.047806 0.000000 -342.768524
v 89.629135 0.000000 -459.995636
vt 0.402230 0.944500
vt 0.624870 0.836220
vt 0.868140 0.958130
vt 0.949600 0.065778
vt 0.598310 0.241220
vt 0.328310 0.047628
vt 0.575020 0.484840
vt 0.304200 0.290330
vt 0.460530 0.540780
vt 0.098443 0.282900
vt 0.451350 0.640980
vt 0.046630 0.847050
vt 0.635770 0.742510
vt 0.413880 0.859260
vn 0.0303 -0.8110 -0.5843
vn -0.0262 -0.8621 0.5061
vn 0.5545 -0.8316 0.0311
vn -0.0325 -0.8601 0.5091
vn 0.5533 -0.8325 0.0287
vn -0.4985 -0.8665 -0.0257
vn 0.0324 -0.8341 -0.5507
vn 0.5751 -0.8169 0.0445
usemtl None
s off
f 9/1/1 4/2/1 2/3/1
f 1/4/2 5/5/2 11/6/2
f 11/6/3 5/5/3 6/7/3 12/8/3
f 12/8/4 6/7/4 7/9/4 13/10/4
f 13/10/5 7/9/5 8/11/5 14/12/5
f 2/3/6 4/2/6 3/13/6 8/11/6 7/9/6 6/7/6 5/5/6 1/4/6
f 14/12/7 8/11/7 3/13/7 10/14/7
f 10/14/8 3/13/8 4/2/8 9/1/8
