# Blender v2.92.0 OBJ File: ''
# www.blender.org
mtllib CG10_500_037059_0028_roof.mtl
o CG10_500_037059_0028_roof
v 239.696365 75.000000 -360.182739
v 221.908020 75.000000 -17.808167
v 133.256180 144.847000 -365.727997
v 115.232887 145.000000 -23.331482
v 36.160072 75.000000 -370.753082
v 30.852015 75.000000 -271.091766
v 20.615673 75.000000 -78.901901
v 17.925966 75.000000 -28.402544
v 22.422976 75.000000 -112.834457
v 32.440407 75.000000 -300.914276
v 22.778120 75.000000 -271.511292
v 24.327087 75.000000 -301.335907
v 11.170286 75.000000 -77.710732
v 12.932727 75.000000 -111.645699
v 239.696365 0.000000 -360.182739
v 221.908020 0.000000 -17.808167
v 17.925966 0.000000 -28.402544
v 20.615673 0.000000 -78.901901
v 11.170286 0.000000 -77.710732
v 12.932727 0.000000 -111.645699
v 22.422976 0.000000 -112.834457
v 30.852015 0.000000 -271.091766
v 22.778120 0.000000 -271.511292
v 24.327087 0.000000 -301.335907
v 32.440407 0.000000 -300.914276
v 36.160072 0.000000 -370.753082
vt 0.457270 0.940020
vt 0.528790 0.059825
vt 0.951180 0.074080
vt 0.880590 0.954220
vt 0.071135 0.926990
vt 0.081808 0.797170
vt 0.088980 0.709940
vt 0.122430 0.303110
vt 0.128730 0.226440
vt 0.143490 0.046907
vt 0.044327 0.800230
vt 0.051320 0.712990
vt 0.090389 0.302030
vt 0.096536 0.225360
vn -0.5474 -0.8364 -0.0284
vn 0.5826 -0.8122 0.0310
vn 0.0000 -1.0000 -0.0000
vn 0.0000 1.0000 0.0000
vn -0.0519 -0.0002 0.9987
vn 0.0519 -0.0002 -0.9987
usemtl None
s off
f 4/1/1 3/2/1 1/3/1 2/4/1
f 4/1/2 8/5/2 7/6/2 9/7/2 6/8/2 10/9/2 5/10/2 3/2/2
f 13/11/3 14/12/3 9/7/3 7/6/3
f 11/13/4 6/8/4 10/9/4 12/14/4
f 2/4/5 4/1/5 8/5/5
f 5/10/6 3/2/6 1/3/6
