# Blender v2.92.0 OBJ File: ''
# www.blender.org
mtllib CG10_500_041073_0012_roof.mtl
o CG10_500_041073_0012_roof
v 315.831238 75.000000 -121.272926
v 272.028870 75.000000 -18.546774
v 245.978088 113.224258 -92.278481
v 242.016418 75.000000 -152.598999
v 285.499847 75.000000 -255.409409
v 174.540070 113.176964 -122.668419
v 215.559494 75.000000 -284.888519
v 255.594864 75.000000 -378.892853
v 154.509537 145.000000 -183.345688
v 164.179993 144.974625 -206.123962
v 180.988129 118.174194 -349.264099
v 140.606857 118.189476 -254.499100
v 15.398512 75.000000 -127.996429
v 142.871643 75.000000 -426.958069
v 315.831238 0.000000 -121.272926
v 272.028870 0.000000 -18.546774
v 15.398512 0.000000 -127.996429
v 142.871643 0.000000 -426.958069
v 255.594864 0.000000 -378.892853
v 215.559494 0.000000 -284.888519
v 285.499847 0.000000 -255.409409
v 242.016418 0.000000 -152.598999
vt 0.046521 0.714290
vt 0.466800 0.590750
vt 0.527310 0.726190
vt 0.743140 0.794020
vt 0.821840 0.958600
vt 0.431640 0.046969
vt 0.546790 0.220390
vt 0.424790 0.431920
vt 0.496010 0.539900
vt 0.772190 0.154260
vt 0.651240 0.364090
vt 0.862540 0.429890
vt 0.731170 0.659380
vt 0.954170 0.729300
vn 0.2169 -0.8332 -0.5086
vn 0.5061 -0.8351 0.2158
vn -0.2381 -0.7947 0.5584
vn 0.5553 0.7973 0.2365
vn -0.2343 -0.7976 0.5558
vn 0.5555 0.7976 0.2349
vn -0.2258 -0.8161 0.5320
vn 0.5389 0.8105 0.2298
usemtl None
s off
f 13/1/1 9/2/1 6/3/1 3/4/1 2/5/1
f 14/6/2 11/7/2 12/8/2 10/9/2 9/2/2 13/1/2
f 8/10/3 11/7/3 14/6/3
f 7/11/4 8/10/4 11/7/4 12/8/4
f 5/12/5 10/9/5 12/8/5 7/11/5
f 6/3/6 4/13/6 5/12/6 10/9/6 9/2/6
f 1/14/7 3/4/7 6/3/7 4/13/7
f 2/5/8 1/14/8 3/4/8
