# Blender v2.92.0 OBJ File: ''
# www.blender.org
mtllib CG10_500_041071_0040.mtl
o CG10_500_041071_0040
v 14.598423 75.000000 -25.551529
v 25.768269 75.000000 -206.684692
v 105.870384 145.000000 -114.163353
v 180.680038 144.993835 -109.561615
v 199.386108 131.440338 -125.367500
v 229.252380 131.261002 -123.751656
v 271.141510 75.000000 -43.794498
v 269.728607 75.000000 -9.886097
v 307.459442 75.000000 -189.328079
v 298.404541 75.000000 -42.546570
v 14.598423 0.000000 -25.551529
v 25.768269 0.000000 -206.684692
v 307.459442 0.000000 -189.328079
v 298.404541 0.000000 -42.546570
v 271.141510 0.000000 -43.794498
v 269.728607 0.000000 -9.886097
vn 0.6316 -0.7743 0.0390
vn -0.0384 -0.7806 0.6239
vn -0.0366 0.8022 0.5960
vn 0.6003 0.7994 0.0250
vn -0.0268 0.8109 0.5846
vn 0.6040 0.7961 0.0373
vn 0.0000 -1.0000 0.0000
vn 0.9981 0.0000 0.0615
vn -0.0615 0.0000 0.9981
vn -0.9981 0.0000 -0.0616
vn 0.0457 0.0000 -0.9990
vn -0.9991 0.0000 -0.0416
vn 0.0613 0.0000 -0.9981
usemtl None
s off
f 1//1 2//1 3//1
f 3//2 2//2 9//2 6//2 5//2 4//2
f 1//3 8//3 4//3 3//3
f 8//4 7//4 5//4 4//4
f 7//5 10//5 6//5 5//5
f 10//6 9//6 6//6
f 11//7 12//7 13//7 14//7 15//7 16//7
f 1//8 11//8 12//8 2//8
f 2//9 12//9 13//9 9//9
f 9//10 13//10 14//10 10//10
f 10//11 14//11 15//11 7//11
f 7//12 15//12 16//12 8//12
f 8//13 16//13 11//13 1//13
