# Blender v2.92.0 OBJ File: ''
# www.blender.org
mtllib CG10_500_035063_0035_roof.mtl
o CG10_500_035063_0035_roof
v 292.197510 75.000000 -11.554796
v 190.674789 75.000000 -16.636478
v 193.091202 75.000000 -60.792519
v 14.494914 75.000000 -70.011185
v 241.320847 119.078720 -65.694435
v 243.697815 118.984428 -111.004761
v 213.711914 145.000000 -143.796738
v 97.522827 144.918335 -149.696045
v 302.679291 75.000000 -221.483994
v 22.775837 75.000000 -235.464798
v 292.197510 0.000000 -11.554796
v 190.674789 0.000000 -16.636478
v 193.091202 0.000000 -60.792519
v 14.494914 0.000000 -70.011185
v 22.775837 0.000000 -235.464798
v 302.679291 0.000000 -221.483994
vt 0.071398 0.046701
vt 0.948840 0.103300
vt 0.669940 0.417830
vt 0.305710 0.393940
vt 0.915980 0.953220
vt 0.756490 0.734030
vt 0.763940 0.550590
vt 0.597730 0.932650
vt 0.605300 0.753880
vt 0.045439 0.716550
vn -0.0324 -0.7607 0.6483
vn -0.6350 -0.7719 -0.0317
vn -0.0325 0.7599 0.6492
vn 0.6762 -0.7358 0.0370
vn 0.0330 -0.7681 -0.6395
vn 0.6622 -0.7486 0.0331
usemtl None
s off
f 10/1/1 9/2/1 7/3/1 8/4/1
f 1/5/2 5/6/2 6/7/2 7/3/2 9/2/2
f 2/8/3 1/5/3 5/6/3
f 3/9/4 6/7/4 5/6/4 2/8/4
f 4/10/5 8/4/5 7/3/5 6/7/5 3/9/5
f 10/1/6 8/4/6 4/10/6
