# Blender v2.92.0 OBJ File: ''
# www.blender.org
mtllib CG10_500_048066_0053.mtl
o CG10_500_048066_0053
v 275.941132 75.000000 -190.541214
v 266.073700 75.000000 -12.748690
v 243.276733 75.000000 -244.946869
v 240.366837 75.000000 -192.515793
v 221.433258 144.993027 -102.674637
v 173.371613 75.000000 -248.826569
v 172.074951 75.000000 -259.663147
v 165.499985 75.000000 -196.671341
v 50.747120 145.000000 -112.139641
v 38.958046 75.000000 -267.051086
v 35.452576 75.000000 -203.889694
v 23.635593 75.000000 -204.545609
v 13.766636 75.000000 -26.726929
v 275.941132 0.000000 -190.541214
v 266.073700 0.000000 -12.748690
v 13.766636 0.000000 -26.726929
v 23.635593 0.000000 -204.545609
v 35.452576 0.000000 -203.889694
v 38.958046 0.000000 -267.051086
v 172.074951 0.000000 -259.663147
v 173.371613 0.000000 -248.826569
v 243.276733 0.000000 -244.946869
v 240.366837 0.000000 -192.515793
vn -0.9071 0.4178 -0.0503
vn -0.0346 0.7803 0.6245
vn 0.8149 0.5778 0.0452
vn -0.0338 -0.7918 0.6098
vn 0.0000 -1.0000 -0.0000
vn -0.9985 0.0000 -0.0554
vn 0.0553 0.0000 -0.9985
vn 0.9985 0.0000 0.0554
vn -0.0554 0.0000 0.9985
vn -0.9929 0.0000 0.1188
usemtl None
s off
f 13//1 9//1 12//1
f 13//2 2//2 5//2 9//2
f 2//3 1//3 5//3
f 12//4 11//4 8//4 4//4 1//4 5//4 9//4
f 11//5 10//5 7//5 6//5 8//5
f 6//5 3//5 4//5 8//5
f 14//5 15//5 16//5 17//5 18//5 19//5 20//5 21//5 22//5 23//5
f 1//6 14//6 15//6 2//6
f 2//7 15//7 16//7 13//7
f 13//8 16//8 17//8 12//8
f 12//9 17//9 18//9 11//9
f 11//8 18//8 19//8 10//8
f 10//9 19//9 20//9 7//9
f 7//10 20//10 21//10 6//10
f 6//9 21//9 22//9 3//9
f 3//6 22//6 23//6 4//6
f 4//9 23//9 14//9 1//9
