# Blender v2.92.0 OBJ File: ''
# www.blender.org
mtllib CG10_500_042073_0021_roof.mtl
o CG10_500_042073_0021_roof
v 335.296997 75.000000 -213.376358
v 86.173264 75.000000 -319.910614
v 226.138306 145.000000 -167.256088
v 140.198547 144.997009 -204.010986
v 241.879883 116.746269 -119.669785
v 227.158615 116.745552 -85.251846
v 168.917404 75.000000 -90.515717
v 16.027332 75.000000 -155.911758
v 250.180298 75.000000 -14.388185
v 153.960205 75.000000 -55.543648
v 335.296997 0.000000 -213.376358
v 86.173264 0.000000 -319.910614
v 16.027332 0.000000 -155.911758
v 168.917404 0.000000 -90.515717
v 153.960205 0.000000 -55.543648
v 250.180298 0.000000 -14.388185
vt 0.438630 0.834200
vt 0.712760 0.957050
vt 0.647180 0.745520
vt 0.481250 0.729800
vt 0.689120 0.642780
vt 0.045662 0.534590
vt 0.399430 0.391010
vt 0.644270 0.500730
vt 0.245510 0.045043
vt 0.955260 0.363060
vn -0.2348 0.8023 0.5489
vn 0.5519 -0.7998 0.2361
vn 0.2364 -0.7992 -0.5527
vn 0.5445 -0.8058 0.2329
vn 0.5960 0.7614 0.2549
vn 0.2494 0.7731 -0.5832
usemtl None
s off
f 10/1/1 9/2/1 6/3/1
f 10/1/2 7/4/2 5/5/2 6/3/2
f 8/6/3 4/7/3 3/8/3 5/5/3 7/4/3
f 8/6/4 2/9/4 4/7/4
f 9/2/5 1/10/5 3/8/5 5/5/5 6/3/5
f 2/9/6 4/7/6 3/8/6 1/10/6
