# Blender v2.92.0 OBJ File: ''
# www.blender.org
mtllib CG10_500_039069_0038_roof.mtl
o CG10_500_039069_0038_roof
v 192.587219 75.000000 -388.325348
v 174.813507 75.000000 -86.132286
v 129.308548 75.000000 -18.581144
v 133.165207 75.000000 -87.933212
v 95.506691 144.990738 -314.320587
v 87.217026 145.000000 -173.586304
v 64.576637 127.308899 -85.039742
v 68.493683 127.209167 -153.131729
v 31.516624 75.000000 -397.823151
v 9.569891 75.000000 -25.641438
v 192.587219 0.000000 -388.325348
v 174.813507 0.000000 -86.132286
v 133.165207 0.000000 -87.933212
v 129.308548 0.000000 -18.581144
v 9.569891 0.000000 -25.641438
v 31.516624 0.000000 -397.823151
vt 0.047376 0.938510
vt 0.640140 0.955440
vt 0.319690 0.796070
vt 0.339080 0.632780
vt 0.659230 0.789130
vt 0.865410 0.793450
vt 0.431770 0.583730
vt 0.472810 0.246230
vt 0.953400 0.068764
vt 0.156020 0.045988
vn -0.0378 0.7670 0.6405
vn -0.6070 -0.7940 -0.0338
vn -0.0277 0.7667 0.6414
vn -0.6021 -0.7977 -0.0354
vn -0.0389 -0.7509 0.6592
vn -0.7119 0.7010 -0.0420
usemtl None
s off
f 10/1/1 3/2/1 7/3/1
f 7/3/2 8/4/2 4/5/2 3/2/2
f 4/5/3 2/6/3 6/7/3 8/4/3
f 6/7/4 5/8/4 1/9/4 2/6/4
f 5/8/5 9/10/5 1/9/5
f 10/1/6 7/3/6 8/4/6 6/7/6 5/8/6 9/10/6
