# Blender v2.92.0 OBJ File: ''
# www.blender.org
mtllib CG10_500_044069_0009_roof.mtl
o CG10_500_044069_0009_roof
v 517.680542 75.000000 -161.777405
v 83.397110 75.000000 -348.535553
v 467.001923 105.478508 -136.743256
v 451.907288 106.457123 -141.730942
v 241.924973 130.732773 -194.733521
v 127.977501 130.890472 -243.492905
v 403.782745 135.120010 -118.387978
v 483.627991 75.000000 -82.641884
v 318.771179 135.360138 -154.577209
v 469.784851 75.000000 -85.732269
v 302.203308 144.900284 -147.044281
v 253.577576 145.000000 -167.801926
v 137.294510 75.000000 -159.298431
v 22.957941 75.000000 -207.997192
v 329.880981 97.465248 -67.248703
v 439.837463 75.000000 -15.774328
v 353.572449 75.000000 -52.142868
v 285.256744 75.000000 -53.932720
v 122.083801 75.000000 -123.108757
v 338.562958 75.000000 -17.738869
v 280.620514 75.000000 -42.658585
v 313.417145 97.151588 -28.541941
v 517.680542 0.000000 -161.777405
v 83.397110 0.000000 -348.535553
v 22.957941 0.000000 -207.997192
v 137.294510 0.000000 -159.298431
v 122.083801 0.000000 -123.108757
v 285.256744 0.000000 -53.932720
v 280.620514 0.000000 -42.658585
v 338.562958 0.000000 -17.738869
v 353.572449 0.000000 -52.142868
v 439.837463 0.000000 -15.774328
v 469.784851 0.000000 -85.732269
v 483.627991 0.000000 -82.641884
vt 0.622360 0.951130
vt 0.576130 0.921370
vt 0.606400 0.814740
vt 0.649950 0.856360
vt 0.515850 0.882480
vt 0.524370 0.851430
vt 0.808520 0.956540
vt 0.742250 0.673860
vt 0.585980 0.574170
vt 0.555520 0.594920
vt 0.466140 0.537740
vt 0.224420 0.660860
vt 0.444720 0.463540
vt 0.252380 0.561160
vt 0.235250 0.329220
vt 0.042202 0.427000
vt 0.830710 0.609560
vt 0.858460 0.623300
vt 0.889020 0.772340
vt 0.863580 0.763820
vt 0.153300 0.039847
vt 0.951620 0.554330
vn -0.5767 -0.7773 -0.2516
vn 0.4876 -0.8497 0.2005
vn -0.2324 0.8014 0.5512
vn -0.5689 -0.7784 -0.2654
vn -0.2356 0.7973 0.5557
vn -0.5151 0.8293 -0.2165
vn -0.2366 0.7972 0.5554
vn 0.1148 -0.8500 -0.5141
vn -0.5819 -0.7742 -0.2491
vn -0.5154 0.8278 -0.2217
vn 0.2284 0.8160 -0.5311
vn -0.5873 -0.7689 -0.2527
vn 0.3951 0.0005 -0.9186
usemtl None
s off
f 20/1/1 22/2/1 15/3/1 17/4/1
f 22/2/2 21/5/2 18/6/2 15/3/2
f 17/4/3 16/7/3 7/8/3 9/9/3
f 17/4/4 15/3/4 11/10/4 9/9/4
f 18/6/5 15/3/5 11/10/5 12/11/5 19/12/5
f 12/11/6 5/13/6 13/14/6 19/12/6
f 5/13/7 6/15/7 14/16/7 13/14/7
f 4/17/8 3/18/8 8/19/8 10/20/8
f 16/7/9 7/8/9 4/17/9 10/20/9
f 14/16/10 6/15/10 2/21/10
f 2/21/11 6/15/11 5/13/11 12/11/11 11/10/11 9/9/11 7/8/11 4/17/11 3/18/11 1/22/11
f 8/19/12 3/18/12 1/22/12
f 21/5/13 22/2/13 20/1/13
