# Blender v2.92.0 OBJ File: ''
# www.blender.org
mtllib CG10_500_045067_0038.mtl
o CG10_500_045067_0038
v 80.349213 112.349907 -61.172653
v 139.017334 75.000000 -38.013401
v 18.377378 75.000000 -85.636917
v 142.249786 75.000000 -46.044010
v 211.558563 75.000000 -19.017897
v 274.347076 75.000000 -61.675850
v 233.993027 75.000000 -76.615082
v 107.830742 112.492943 -130.093872
v 155.809021 133.295166 -150.572174
v 177.102646 133.219162 -204.882309
v 204.286804 145.000000 -216.512161
v 211.935226 144.999832 -235.887909
v 372.190033 75.000000 -309.550812
v 142.554413 75.000000 -400.201630
v 139.017334 0.000000 -38.013401
v 18.377378 0.000000 -85.636917
v 142.554413 0.000000 -400.201630
v 372.190033 0.000000 -309.550812
v 274.347076 0.000000 -61.675850
v 233.993027 0.000000 -76.615082
v 211.558563 0.000000 -19.017897
v 142.249786 0.000000 -46.044010
vn -0.1740 0.8654 0.4700
vn 0.4629 0.8674 0.1827
vn -0.1769 -0.8764 0.4480
vn 0.4704 0.8633 0.1832
vn -0.1799 0.8689 0.4612
vn 0.4727 0.8604 0.1903
vn 0.4548 -0.8723 0.1796
vn 0.3672 0.0000 -0.9301
vn 0.0000 -1.0000 0.0000
vn 0.9301 0.0000 0.3672
vn -0.3672 0.0000 0.9301
vn -0.9302 0.0000 -0.3672
vn 0.3472 0.0000 -0.9378
vn -0.9318 0.0000 -0.3629
vn 0.3633 0.0000 -0.9317
vn -0.9277 0.0000 -0.3734
usemtl None
s off
f 7//1 6//1 11//1 10//1
f 6//2 13//2 12//2 11//2
f 12//3 14//3 13//3
f 5//4 7//4 10//4 9//4
f 8//5 4//5 5//5 9//5
f 1//6 2//6 4//6 8//6
f 1//7 3//7 14//7 12//7 11//7 10//7 9//7 8//7
f 3//8 1//8 2//8
f 15//9 16//9 17//9 18//9 19//9 20//9 21//9 22//9
f 2//8 15//8 16//8 3//8
f 3//10 16//10 17//10 14//10
f 14//11 17//11 18//11 13//11
f 13//12 18//12 19//12 6//12
f 6//13 19//13 20//13 7//13
f 7//14 20//14 21//14 5//14
f 5//15 21//15 22//15 4//15
f 4//16 22//16 15//16 2//16
