# Blender v2.92.0 OBJ File: ''
# www.blender.org
mtllib CG10_500_041067_0023.mtl
o CG10_500_041067_0023
v 358.019562 75.000000 -234.496902
v 352.995789 145.000000 -136.872208
v 348.155670 75.000000 -42.842735
v 304.739899 75.000000 -237.224258
v 304.475250 75.000000 -244.560501
v 266.134979 75.000000 -246.533768
v 265.758545 75.000000 -239.219696
v 150.629745 75.000000 -11.218526
v 152.759613 75.000000 -52.863083
v 118.691460 144.992081 -148.877197
v 90.727829 125.463661 -124.009888
v 85.053024 125.522598 -14.552152
v 16.278440 75.000000 -18.133404
v 28.541561 75.000000 -251.362701
v 358.019562 0.000000 -234.496902
v 348.155670 0.000000 -42.842735
v 152.759613 0.000000 -52.863083
v 150.629745 0.000000 -11.218526
v 16.278440 0.000000 -18.133404
v 28.541561 0.000000 -251.362701
v 265.758545 0.000000 -239.219696
v 266.134979 0.000000 -246.533768
v 304.475250 0.000000 -244.560501
v 304.739899 0.000000 -237.224258
vn -0.0298 -0.8130 0.5814
vn -0.0306 0.8025 0.5959
vn 0.0000 -1.0000 0.0000
vn 0.6090 0.7925 0.0311
vn 0.5907 -0.8063 0.0311
vn 0.9987 -0.0000 0.0514
vn -0.0514 -0.0008 0.9987
vn -0.9987 0.0000 -0.0514
vn 0.0512 0.0000 -0.9987
vn -0.9987 0.0000 -0.0511
vn 0.0514 0.0000 -0.9987
vn 0.9986 0.0000 0.0525
vn -0.0511 0.0000 0.9987
vn -0.0514 0.0000 0.9987
vn -0.9993 0.0000 0.0361
usemtl None
s off
f 10//1 14//1 7//1 4//1 1//1 2//1
f 10//2 11//2 9//2 3//2 2//2
f 7//3 6//3 5//3 4//3
f 11//4 12//4 8//4 9//4
f 12//5 13//5 14//5 10//5 11//5
f 1//6 2//6 3//6
f 8//7 12//7 13//7
f 15//3 16//3 17//3 18//3 19//3 20//3 21//3 22//3 23//3 24//3
f 1//8 15//8 16//8 3//8
f 3//9 16//9 17//9 9//9
f 9//10 17//10 18//10 8//10
f 8//11 18//11 19//11 13//11
f 13//12 19//12 20//12 14//12
f 14//13 20//13 21//13 7//13
f 7//6 21//6 22//6 6//6
f 6//14 22//14 23//14 5//14
f 5//15 23//15 24//15 4//15
f 4//13 24//13 15//13 1//13
