# Blender v2.92.0 OBJ File: ''
# www.blender.org
mtllib CG10_500_042059_0024.mtl
o CG10_500_042059_0024
v 24.964691 75.000000 -378.218689
v 11.493119 75.000000 -102.277191
v 25.067770 75.000000 -101.614983
v 21.147503 75.000000 -21.252754
v 83.001465 75.000000 -18.235357
v 86.921745 75.000000 -98.597588
v 114.106003 145.000000 -143.379822
v 123.077072 144.996979 -327.225494
v 168.238647 112.490936 -205.657516
v 221.622314 75.000000 -92.026535
v 224.414520 75.000000 -149.277679
v 230.049927 74.742653 -256.534546
v 231.135712 75.000000 -287.088898
v 235.080292 75.000000 -367.968719
v 248.201477 111.453156 -200.272293
v 245.654800 75.000000 -148.241608
v 250.850037 74.736092 -254.741333
v 252.377548 75.000000 -286.052673
v 24.964691 0.000000 -378.218689
v 11.493119 0.000000 -102.277191
v 25.067770 0.000000 -101.614983
v 21.147503 0.000000 -21.252754
v 83.001465 0.000000 -18.235357
v 86.921745 0.000000 -98.597588
v 221.622314 0.000000 -92.026535
v 224.414520 0.000000 -149.277679
v 245.654800 0.000000 -148.241608
v 252.377548 0.000000 -286.052673
v 231.135712 0.000000 -287.088898
v 235.080292 0.000000 -367.968719
vn 0.0000 1.0000 -0.0000
vn -0.0407 0.5496 0.8344
vn -0.5709 0.8205 -0.0279
vn 0.0407 0.5505 -0.8339
vn 0.5366 0.8434 0.0262
vn 0.0279 -0.8193 -0.5727
vn -0.0004 1.0000 0.0084
vn -0.0483 -0.8293 0.5567
vn -0.9988 0.0002 -0.0487
vn -0.9988 0.0000 -0.0488
vn -0.0487 0.0000 0.9988
vn -0.9988 0.0000 -0.0487
vn 0.9988 0.0000 0.0487
vn 0.0487 0.0000 -0.9988
usemtl None
s off
f 4//1 5//1 6//1 3//1
f 2//2 3//2 6//2 10//2 7//2
f 1//3 2//3 7//3 8//3
f 14//4 1//4 8//4
f 13//5 14//5 8//5 7//5 10//5 11//5 9//5 12//5
f 15//6 16//6 11//6 9//6
f 18//7 13//7 12//7 17//7
f 15//8 9//8 12//8 17//8
f 16//9 15//9 17//9 18//9
f 19//1 20//1 21//1 22//1 23//1 24//1 25//1 26//1 27//1 28//1 29//1 30//1
f 1//10 19//10 20//10 2//10
f 2//11 20//11 21//11 3//11
f 3//12 21//12 22//12 4//12
f 4//11 22//11 23//11 5//11
f 5//13 23//13 24//13 6//13
f 6//11 24//11 25//11 10//11
f 10//13 25//13 26//13 11//13
f 11//11 26//11 27//11 16//11
f 16//13 27//13 28//13 18//13
f 18//14 28//14 29//14 13//14
f 13//13 29//13 30//13 14//13
f 14//14 30//14 19//14 1//14
