# Blender v2.92.0 OBJ File: ''
# www.blender.org
mtllib CG10_500_041069_0028.mtl
o CG10_500_041069_0028
v 33.252705 75.000000 -356.320862
v 13.299971 75.000000 -26.856104
v 92.000244 109.753075 -293.251526
v 91.537743 110.533791 -262.404633
v 105.121758 123.583145 -98.782806
v 107.792770 123.680611 -139.989304
v 147.050705 75.000000 -349.471466
v 147.816147 75.000000 -320.223328
v 148.057999 145.000000 -171.086349
v 149.760223 144.999893 -199.196457
v 179.628601 75.000000 -57.445396
v 176.855270 75.000000 -17.009912
v 224.228928 99.795525 -272.569000
v 249.860031 99.534271 -271.401001
v 249.316391 75.000000 -52.536396
v 260.447998 74.831551 -232.062515
v 256.223083 75.000000 -166.600403
v 279.965271 75.000000 -165.171448
v 288.764465 75.000000 -311.318756
v 283.971252 74.829758 -231.366470
v 33.252705 0.000000 -356.320862
v 13.299971 0.000000 -26.856104
v 176.855270 0.000000 -17.009912
v 179.628601 0.000000 -57.445396
v 249.316391 0.000000 -52.536396
v 256.223083 0.000000 -166.600403
v 279.965271 0.000000 -165.171448
v 288.764465 0.000000 -311.318756
v 147.816147 0.000000 -320.223328
v 147.050705 0.000000 -349.471466
vn -0.0320 0.8467 0.5311
vn 0.5316 0.8462 0.0365
vn 0.0374 -0.8462 -0.5316
vn -0.5421 -0.8397 -0.0328
vn 0.4854 -0.8738 0.0294
vn -0.0303 -0.8632 0.5039
vn 0.5237 0.8518 -0.0137
vn -0.0316 -0.8650 0.5008
vn -0.0158 0.8449 0.5348
vn 0.5587 0.8286 0.0353
vn 0.0002 1.0000 -0.0026
vn 0.9910 0.1195 0.0597
vn 0.0000 1.0000 0.0000
vn -0.9982 0.0000 -0.0605
vn -0.0601 0.0000 0.9982
vn 0.9977 0.0000 0.0684
vn -0.0703 0.0000 0.9975
vn 0.9982 0.0000 0.0604
vn 0.9982 0.0000 0.0601
vn 0.0631 0.0000 -0.9980
vn 0.9997 0.0000 -0.0262
vn 0.0601 0.0000 -0.9982
usemtl None
s off
f 2//1 12//1 5//1
f 12//2 11//2 6//2 5//2
f 15//3 11//3 6//3 9//3
f 16//4 17//4 15//4 9//4 10//4 13//4
f 2//5 1//5 3//5 4//5 10//5 9//5 6//5 5//5
f 7//6 3//6 1//6
f 8//7 7//7 3//7 4//7
f 19//8 14//8 13//8 10//8 4//8 8//8
f 16//9 20//9 14//9 13//9
f 20//10 19//10 14//10
f 17//11 18//11 20//11 16//11
f 18//12 20//12 19//12
f 21//13 22//13 23//13 24//13 25//13 26//13 27//13 28//13 29//13 30//13
f 1//14 21//14 22//14 2//14
f 2//15 22//15 23//15 12//15
f 12//16 23//16 24//16 11//16
f 11//17 24//17 25//17 15//17
f 15//18 25//18 26//18 17//18
f 17//15 26//15 27//15 18//15
f 18//19 27//19 28//19 19//19
f 19//20 28//20 29//20 8//20
f 8//21 29//21 30//21 7//21
f 7//22 30//22 21//22 1//22
