# Blender v2.92.0 OBJ File: ''
# www.blender.org
mtllib CG10_500_042065_0040.mtl
o CG10_500_042065_0040
v 28.859627 75.000000 -219.736145
v 22.509556 75.000000 -106.246948
v 74.629120 119.964462 -157.127548
v 164.057663 75.000000 -98.541084
v 159.377060 75.000000 -18.200089
v 216.995193 119.878029 -149.273880
v 238.173996 141.919449 -91.440636
v 242.935104 145.000000 -114.273392
v 240.067032 142.567871 -111.538498
v 327.940491 75.000000 -8.765872
v 330.549561 75.000000 -26.988747
v 343.644318 144.775909 -108.935356
v 380.118683 120.806961 -138.902374
v 406.506012 119.760109 -138.823318
v 440.587555 75.000000 -21.446133
v 443.779358 75.000000 -81.821510
v 466.355682 75.000000 -82.931160
v 472.642944 75.000000 -194.894913
v 28.859627 0.000000 -219.736145
v 22.509556 0.000000 -106.246948
v 164.057663 0.000000 -98.541084
v 159.377060 0.000000 -18.200089
v 327.940491 0.000000 -8.765872
v 330.549561 0.000000 -26.988747
v 440.587555 0.000000 -21.446133
v 443.779358 0.000000 -81.821510
v 466.355682 0.000000 -82.931160
v 472.642944 0.000000 -194.894913
vn -0.5660 -0.8239 -0.0299
vn 0.0297 0.7955 0.6052
vn 0.5789 0.8147 0.0325
vn -0.0335 -0.8000 0.5991
vn -0.0325 0.7635 0.6449
vn 0.5483 0.8326 0.0785
vn -0.0365 0.7570 0.6524
vn -0.6676 0.7435 -0.0389
vn -0.0349 0.7664 0.6415
vn -0.6736 0.7381 -0.0377
vn 0.0000 1.0000 0.0000
vn -0.9984 0.0000 -0.0559
vn -0.0544 0.0000 0.9985
vn -0.9983 0.0000 -0.0582
vn -0.0559 0.0000 0.9984
vn 0.9899 0.0000 0.1417
vn -0.0503 0.0000 0.9987
vn 0.9986 0.0000 0.0528
vn 0.0491 0.0000 0.9988
vn 0.9984 0.0000 0.0561
vn 0.0559 0.0000 -0.9984
usemtl None
s off
f 15//1 12//1 13//1 16//1
f 16//2 17//2 14//2 13//2
f 17//3 18//3 14//3
f 18//4 14//4 13//4 12//4 8//4 6//4 3//4 1//4
f 15//5 12//5 8//5 9//5 11//5
f 9//6 7//6 10//6 11//6
f 10//7 7//7 5//7
f 5//8 7//8 9//8 8//8 6//8 4//8
f 6//9 3//9 2//9 4//9
f 2//10 3//10 1//10
f 19//11 20//11 21//11 22//11 23//11 24//11 25//11 26//11 27//11 28//11
f 1//12 19//12 20//12 2//12
f 2//13 20//13 21//13 4//13
f 4//14 21//14 22//14 5//14
f 5//15 22//15 23//15 10//15
f 10//16 23//16 24//16 11//16
f 11//17 24//17 25//17 15//17
f 15//18 25//18 26//18 16//18
f 16//19 26//19 27//19 17//19
f 17//20 27//20 28//20 18//20
f 18//21 28//21 19//21 1//21
