# Blender v2.92.0 OBJ File: ''
# www.blender.org
mtllib CG10_500_043071_0001_roof.mtl
o CG10_500_043071_0001_roof
v 26.639915 75.000000 -188.448990
v 31.586695 75.000000 -232.031860
v 84.941658 75.000000 -243.250717
v 83.006371 75.000000 -226.195587
v 78.060890 75.000000 -182.612564
v 68.204338 75.000000 -95.749695
v 146.759918 132.157654 -161.845367
v 230.164154 75.000000 -78.533302
v 226.393158 75.000000 -39.424343
v 308.682037 131.701950 -144.039429
v 323.781158 145.000000 -125.018562
v 402.529358 144.977493 -116.099815
v 446.811737 115.358902 -149.611649
v 495.291473 114.942276 -144.645142
v 496.494019 75.000000 -86.688492
v 488.946655 75.000000 -9.792020
v 558.457886 75.000000 -189.445755
v 546.272583 75.000000 -82.208496
v 26.639915 0.000000 -188.448990
v 31.586695 0.000000 -232.031860
v 83.006371 0.000000 -226.195587
v 84.941658 0.000000 -243.250717
v 558.457886 0.000000 -189.445755
v 546.272583 0.000000 -82.208496
v 496.494019 0.000000 -86.688492
v 488.946655 0.000000 -9.792020
v 226.393158 0.000000 -39.424343
v 230.164154 0.000000 -78.533302
v 68.204338 0.000000 -95.749695
v 78.060890 0.000000 -182.612564
vt 0.116790 0.618530
vt 0.133670 0.272460
vt 0.142130 0.098822
vt 0.145450 0.030874
vt 0.251300 0.355200
vt 0.394120 0.687120
vt 0.528570 0.426140
vt 0.387660 0.842930
vt 0.554420 0.501920
vt 0.837240 0.960990
vt 0.689260 0.537450
vt 0.850160 0.654630
vt 0.765090 0.403940
vt 0.935400 0.672480
vt 0.848100 0.423720
vt 0.956260 0.245240
vt 0.045616 0.249210
vt 0.054087 0.075570
vn 0.6252 -0.7772 0.0709
vn -0.0646 0.7915 0.6077
vn 0.6165 -0.7851 0.0594
vn -0.0661 0.8079 0.5855
vn 0.5847 0.8092 0.0574
vn -0.0511 0.8218 0.5674
vn 0.5655 0.8222 0.0643
vn 0.0691 0.7910 -0.6079
vn 0.0000 -1.0000 -0.0000
usemtl None
s off
f 6/1/1 5/2/1 4/3/1 3/4/1 7/5/1
f 6/1/2 8/6/2 10/7/2 7/5/2
f 9/8/3 8/6/3 10/7/3 11/9/3
f 9/8/4 16/10/4 12/11/4 11/9/4
f 16/10/5 15/12/5 13/13/5 12/11/5
f 15/12/6 18/14/6 14/15/6 13/13/6
f 18/14/7 17/16/7 14/15/7
f 17/16/8 3/4/8 7/5/8 10/7/8 11/9/8 12/11/8 13/13/8 14/15/8
f 5/2/9 1/17/9 2/18/9 4/3/9
