# Blender v2.92.0 OBJ File: ''
# www.blender.org
mtllib CG10_500_040070_0062.mtl
o CG10_500_040070_0062
v 26.668915 75.000000 -242.214050
v 14.776097 75.000000 -53.817368
v 110.713295 144.878815 -144.511917
v 121.909004 75.000000 -22.643137
v 123.578087 75.000000 -46.595013
v 213.343674 143.218628 -135.393204
v 211.058243 145.000000 -138.019272
v 211.770798 143.278534 -111.768898
v 299.390076 75.000000 -11.438083
v 312.810364 75.000000 -224.156647
v 26.668915 0.000000 -242.214050
v 14.776097 0.000000 -53.817368
v 123.578087 0.000000 -46.595013
v 121.909004 0.000000 -22.643137
v 299.390076 0.000000 -11.438083
v 312.810364 0.000000 -224.156647
vn -0.6119 0.7900 -0.0386
vn 0.0380 0.7970 -0.6028
vn -0.5875 -0.8084 -0.0371
vn -0.6317 0.7739 -0.0440
vn 0.0369 -0.8109 -0.5840
vn -0.0388 0.8110 0.5838
vn 0.0000 1.0000 0.0000
vn -0.9980 0.0000 -0.0630
vn -0.0662 0.0000 0.9978
vn -0.9976 0.0000 -0.0695
vn -0.0630 0.0000 0.9980
vn 0.9980 0.0000 0.0630
vn 0.0630 0.0000 -0.9980
usemtl None
s off
f 2//1 3//1 1//1
f 3//2 7//2 10//2 1//2
f 6//3 7//3 10//3 9//3 8//3
f 6//4 5//4 4//4 8//4
f 8//5 9//5 4//5
f 5//6 6//6 7//6 3//6 2//6
f 11//7 12//7 13//7 14//7 15//7 16//7
f 1//8 11//8 12//8 2//8
f 2//9 12//9 13//9 5//9
f 5//10 13//10 14//10 4//10
f 4//11 14//11 15//11 9//11
f 9//12 15//12 16//12 10//12
f 10//13 16//13 11//13 1//13
