# Blender v2.92.0 OBJ File: ''
# www.blender.org
mtllib CG10_500_041060_0034.mtl
o CG10_500_041060_0034
v 89.940186 75.000000 -24.753035
v 156.926056 75.000000 -20.655365
v 238.096512 75.000000 -53.873734
v 11.599664 75.000000 -67.729034
v 92.267258 75.000000 -62.794422
v 159.253128 75.000000 -58.696751
v 127.659714 144.999939 -169.280991
v 130.589035 145.000000 -217.163925
v 28.371761 75.000000 -341.904480
v 38.666794 75.000000 -341.274689
v 201.223267 75.000000 -331.330780
v 254.870850 75.000000 -328.049042
v 206.973343 75.000000 -425.329193
v 44.416889 75.000000 -435.273132
v 89.940186 0.000000 -24.753035
v 156.926056 0.000000 -20.655365
v 159.253128 0.000000 -58.696751
v 238.096512 0.000000 -53.873734
v 254.870850 0.000000 -328.049042
v 201.223267 0.000000 -331.330780
v 206.973343 0.000000 -425.329193
v 44.416889 0.000000 -435.273132
v 38.666794 0.000000 -341.274689
v 28.371761 0.000000 -341.904480
v 11.599664 0.000000 -67.729034
v 92.267258 0.000000 -62.794422
vn 0.0000 -1.0000 0.0000
vn 0.0331 -0.8402 -0.5413
vn 0.5371 -0.8429 0.0329
vn -0.0311 -0.8606 0.5084
vn 0.5116 0.8587 0.0313
vn 0.0000 1.0000 0.0000
vn -0.0611 0.0000 0.9981
vn 0.9981 0.0000 0.0611
vn 0.0611 0.0000 -0.9981
vn -0.9981 0.0000 -0.0611
usemtl None
s off
f 1//1 5//1 6//1 2//1
f 4//2 7//2 3//2 6//2 5//2
f 4//3 9//3 8//3 7//3
f 9//4 10//4 11//4 12//4 8//4
f 10//1 14//1 13//1 11//1
f 3//5 12//5 8//5 7//5
f 15//6 16//6 17//6 18//6 19//6 20//6 21//6 22//6 23//6 24//6 25//6 26//6
f 1//7 15//7 16//7 2//7
f 2//8 16//8 17//8 6//8
f 6//7 17//7 18//7 3//7
f 3//8 18//8 19//8 12//8
f 12//9 19//9 20//9 11//9
f 11//8 20//8 21//8 13//8
f 13//9 21//9 22//9 14//9
f 14//10 22//10 23//10 10//10
f 10//9 23//9 24//9 9//9
f 9//10 24//10 25//10 4//10
f 4//7 25//7 26//7 5//7
f 5//10 26//10 15//10 1//10
