# Blender v2.92.0 OBJ File: ''
# www.blender.org
mtllib CG10_500_037059_0001_roof.mtl
o CG10_500_037059_0001_roof
v 281.748688 75.000000 -246.664917
v 267.556549 75.000000 -17.730684
v 165.344055 145.000000 -140.975540
v 149.142090 75.000000 -254.675201
v 155.999741 75.000000 -366.571960
v 137.653534 144.987778 -142.667892
v 93.771065 113.441986 -311.385559
v 86.760513 113.424934 -196.567795
v 10.904423 75.000000 -33.605602
v 31.618618 75.000000 -374.281952
v 281.748688 0.000000 -246.664917
v 267.556549 0.000000 -17.730684
v 10.904423 0.000000 -33.605602
v 31.618618 0.000000 -374.281952
v 155.999741 0.000000 -366.571960
v 149.142090 0.000000 -254.675201
vt 0.036839 0.914710
vt 0.465050 0.637900
vt 0.558590 0.642190
vt 0.903910 0.955000
vt 0.951850 0.373950
vt 0.293110 0.501100
vt 0.503860 0.353620
vt 0.316790 0.209680
vt 0.527030 0.069614
vt 0.106820 0.050046
vn 0.0318 -0.8576 -0.5134
vn -0.5371 -0.8429 -0.0333
vn -0.0319 -0.8491 0.5273
vn -0.5466 -0.8367 -0.0335
vn -0.0338 -0.8376 0.5453
vn 0.5032 -0.8636 0.0306
usemtl None
s off
f 9/1/1 6/2/1 3/3/1 2/4/1
f 2/4/2 3/3/2 1/5/2
f 1/5/3 3/3/3 6/2/3 8/6/3 4/7/3
f 4/7/4 8/6/4 7/8/4 5/9/4
f 5/9/5 7/8/5 10/10/5
f 10/10/6 7/8/6 8/6/6 6/2/6 9/1/6
