# Blender v2.92.0 OBJ File: ''
# www.blender.org
mtllib CG10_500_039066_0002_roof.mtl
o CG10_500_039066_0002_roof
v 41.401237 75.000000 -475.551422
v 17.156096 75.000000 -43.018284
v 100.013191 120.810181 -200.977737
v 110.587952 120.817841 -389.411041
v 136.576080 145.000000 -156.129242
v 200.740448 75.000000 -466.602936
v 190.083115 75.000000 -276.955688
v 230.682388 144.996872 -150.844925
v 355.918823 75.000000 -24.015104
v 369.557404 75.000000 -266.867126
v 41.401237 0.000000 -475.551422
v 17.156096 0.000000 -43.018284
v 355.918823 0.000000 -24.015104
v 369.557404 0.000000 -266.867126
v 190.083115 0.000000 -276.955688
v 200.740448 0.000000 -466.602936
vt 0.044217 0.913620
vt 0.917320 0.951780
vt 0.594540 0.697100
vt 0.352000 0.686490
vt 0.952470 0.464120
vt 0.489900 0.443860
vt 0.257770 0.596430
vt 0.517370 0.063046
vt 0.285020 0.218050
vt 0.106700 0.045077
vn -0.0283 0.8631 0.5043
vn 0.4673 0.8837 0.0262
vn 0.0277 0.8702 -0.4919
vn 0.4708 0.8818 0.0265
vn 0.0273 0.8733 -0.4864
vn -0.5261 0.8499 -0.0295
usemtl None
s off
f 2/1/1 9/2/1 8/3/1 5/4/1
f 9/2/2 10/5/2 8/3/2
f 10/5/3 7/6/3 3/7/3 5/4/3 8/3/3
f 7/6/4 6/8/4 4/9/4 3/7/4
f 6/8/5 1/10/5 4/9/5
f 1/10/6 2/1/6 5/4/6 3/7/6 4/9/6
