# Blender v2.92.0 OBJ File: ''
# www.blender.org
mtllib CG10_500_044069_0047.mtl
o CG10_500_044069_0047
v 342.787476 75.000000 -80.574120
v 384.020874 75.000000 -177.377884
v 312.814636 111.007683 -149.060745
v 285.407043 75.000000 -103.630989
v 276.063141 75.000000 -88.960678
v 230.781586 75.000000 -14.211741
v 262.690094 75.000000 -89.585243
v 252.096146 111.470650 -174.184647
v 236.953537 117.518990 -170.784225
v 223.795227 118.941368 -174.074905
v 171.059631 145.000000 -154.094971
v 164.800262 134.697327 -173.548279
v 120.940697 134.718155 -192.207275
v 45.794636 75.000000 -92.981819
v 60.140156 75.000000 -126.495178
v 17.379868 75.000000 -144.655380
v 85.491356 75.000000 -304.611084
v 342.787476 0.000000 -80.574120
v 384.020874 0.000000 -177.377884
v 85.491356 0.000000 -304.611084
v 17.379868 0.000000 -144.655380
v 60.140156 0.000000 -126.495178
v 45.794636 0.000000 -92.981819
v 230.781586 0.000000 -14.211741
v 262.690094 0.000000 -89.585243
v 276.063141 0.000000 -88.960678
v 285.407043 0.000000 -103.630989
vn -0.5077 -0.8339 -0.2163
vn 0.2112 -0.8240 -0.5257
vn -0.4079 -0.8753 -0.2598
vn 0.0219 -0.8828 -0.4692
vn -0.4959 -0.8426 -0.2099
vn 0.2169 -0.8328 -0.5093
vn 0.5601 -0.7930 0.2398
vn 0.2261 -0.8158 -0.5323
vn 0.5654 -0.7889 0.2408
vn 0.2176 0.8318 -0.5106
vn 0.0000 1.0000 0.0000
vn 0.9200 0.0000 0.3919
vn 0.3921 0.0000 -0.9199
vn -0.9201 0.0000 -0.3918
vn -0.3909 0.0000 0.9204
vn -0.9193 0.0000 -0.3935
vn -0.3918 0.0000 0.9201
vn 0.9209 0.0000 0.3898
vn -0.0467 0.0000 0.9989
vn 0.8434 0.0000 0.5372
vn -0.3728 0.0000 0.9279
usemtl None
s off
f 1//1 3//1 2//1
f 4//2 8//2 3//2 1//2
f 5//3 9//3 8//3 4//3
f 7//4 10//4 9//4 5//4
f 6//5 11//5 10//5 7//5
f 14//6 11//6 6//6
f 14//7 15//7 12//7 11//7
f 15//8 16//8 13//8 12//8
f 16//9 17//9 13//9
f 17//10 13//10 12//10 11//10 10//10 9//10 8//10 3//10 2//10
f 18//11 19//11 20//11 21//11 22//11 23//11 24//11 25//11 26//11 27//11
f 1//12 18//12 19//12 2//12
f 2//13 19//13 20//13 17//13
f 17//14 20//14 21//14 16//14
f 16//15 21//15 22//15 15//15
f 15//16 22//16 23//16 14//16
f 14//17 23//17 24//17 6//17
f 6//18 24//18 25//18 7//18
f 7//19 25//19 26//19 5//19
f 5//20 26//20 27//20 4//20
f 4//21 27//21 18//21 1//21
