# Blender v2.92.0 OBJ File: ''
# www.blender.org
mtllib CG10_500_035061_0048_roof.mtl
o CG10_500_035061_0048_roof
v 43.039688 75.000000 -299.705780
v 15.822649 75.000000 -100.916992
v 80.454483 120.056305 -148.317871
v 84.761253 120.877541 -172.033630
v 119.465683 145.000000 -198.152893
v 129.236511 75.000000 -85.469482
v 134.128174 75.000000 -106.718010
v 189.111969 75.000000 -28.302313
v 198.615570 75.000000 -97.975632
v 229.193512 144.940887 -183.201859
v 257.660919 117.785393 -144.642868
v 247.839890 117.769485 -72.786102
v 292.962952 75.000000 -14.154259
v 326.747955 75.000000 -260.850098
v 43.039688 0.000000 -299.705780
v 15.822649 0.000000 -100.916992
v 129.236511 0.000000 -85.469482
v 134.128174 0.000000 -106.718010
v 198.615570 0.000000 -97.975632
v 189.111969 0.000000 -28.302313
v 292.962952 0.000000 -14.154259
v 326.747955 0.000000 -260.850098
vt 0.125480 0.045523
vt 0.348300 0.368940
vt 0.668200 0.416550
vt 0.952620 0.169270
vt 0.247120 0.452120
vt 0.046130 0.678610
vt 0.234560 0.527650
vt 0.376780 0.727800
vt 0.391040 0.660130
vt 0.579050 0.687980
vt 0.751200 0.539350
vt 0.551350 0.909870
vt 0.722570 0.768200
vt 0.854120 0.954920
vn 0.0832 0.7902 -0.6072
vn -0.6104 0.7877 -0.0836
vn -0.0849 0.7774 0.6232
vn -0.5751 -0.8073 -0.1324
vn 0.0833 -0.7848 -0.6142
vn -0.6281 0.7734 -0.0857
vn -0.0857 0.7723 0.6294
vn 0.6246 0.7762 0.0855
usemtl None
s off
f 1/1/1 5/2/1 10/3/1 14/4/1
f 4/5/2 5/2/2 1/1/2 2/6/2 3/7/2
f 6/8/3 3/7/3 2/6/3
f 7/9/4 6/8/4 3/7/4 4/5/4
f 9/10/5 7/9/5 4/5/5 5/2/5 10/3/5 11/11/5
f 8/12/6 12/13/6 11/11/6 9/10/6
f 13/14/7 12/13/7 8/12/7
f 13/14/8 14/4/8 10/3/8 11/11/8 12/13/8
