# Blender v2.92.0 OBJ File: ''
# www.blender.org
mtllib CG10_500_040062_0024_roof.mtl
o CG10_500_040062_0024_roof
v 10.459480 75.000000 -25.338697
v 30.106983 75.000000 -299.857697
v 103.265228 145.000000 -18.786821
v 122.755936 144.881409 -293.322937
v 205.441269 75.000000 -287.485321
v 186.091278 75.000000 -12.944979
v 10.459480 0.000000 -25.338697
v 30.106983 0.000000 -299.857697
v 205.441269 0.000000 -287.485321
v 186.091278 0.000000 -12.944979
vt 0.482550 0.939790
vt 0.573630 0.059862
vt 0.960010 0.078573
vt 0.869590 0.958510
vt 0.048876 0.918790
vt 0.140690 0.038918
vn -0.6430 -0.7646 -0.0453
vn 0.5997 -0.7991 0.0429
vn 0.0704 -0.0000 -0.9975
vn -0.0704 -0.0000 0.9975
usemtl None
s off
f 3/1/1 4/2/1 5/3/1 6/4/1
f 3/1/2 1/5/2 2/6/2 4/2/2
f 2/6/3 4/2/3 5/3/3
f 6/4/4 3/1/4 1/5/4
