# Blender v2.92.0 OBJ File: ''
# www.blender.org
mtllib CG10_500_040059_0004.mtl
o CG10_500_040059_0004
v 336.301086 75.000000 -10.774068
v 348.358063 75.000000 -203.467636
v 287.481537 118.822845 -71.177132
v 288.430481 118.936790 -88.528763
v 259.530426 144.903732 -124.762283
v 228.069778 75.000000 -17.543476
v 228.820419 75.000000 -33.806412
v 127.598038 145.000000 -132.897476
v 89.140457 113.159378 -173.682800
v 69.569489 112.862793 -175.264297
v 36.601231 75.000000 -126.585663
v 31.172451 75.000000 -45.802261
v 16.124388 75.000000 -128.666779
v 22.063913 75.000000 -223.874527
v 336.301086 0.000000 -10.774068
v 348.358063 0.000000 -203.467636
v 22.063913 0.000000 -223.874527
v 16.124388 0.000000 -128.666779
v 36.601231 0.000000 -126.585663
v 31.172451 0.000000 -45.802261
v 228.820419 0.000000 -33.806412
v 228.069778 0.000000 -17.543476
vn -0.0379 0.7940 0.6067
vn 0.6097 -0.7921 0.0281
vn 0.6396 0.7677 0.0400
vn 0.0399 0.7690 -0.6380
vn -0.5992 0.7998 -0.0374
vn -0.0597 0.8071 0.5874
vn -0.6110 0.7906 -0.0411
vn -0.0365 0.7983 0.6012
vn 0.0000 1.0000 0.0000
vn 0.9980 0.0000 0.0624
vn 0.0624 0.0000 -0.9980
vn -0.9981 0.0000 -0.0623
vn -0.1011 0.0000 0.9949
vn -0.9977 0.0000 -0.0671
vn -0.0606 0.0000 0.9982
vn -0.9989 0.0000 -0.0461
vn -0.0624 0.0000 0.9980
usemtl None
s off
f 6//1 1//1 3//1
f 6//2 7//2 4//2 3//2
f 1//3 2//3 5//3 4//3 3//3
f 2//4 14//4 10//4 9//4 8//4 5//4
f 14//5 13//5 10//5
f 13//6 11//6 9//6 10//6
f 11//7 12//7 8//7 9//7
f 12//8 7//8 4//8 5//8 8//8
f 15//9 16//9 17//9 18//9 19//9 20//9 21//9 22//9
f 1//10 15//10 16//10 2//10
f 2//11 16//11 17//11 14//11
f 14//12 17//12 18//12 13//12
f 13//13 18//13 19//13 11//13
f 11//14 19//14 20//14 12//14
f 12//15 20//15 21//15 7//15
f 7//16 21//16 22//16 6//16
f 6//17 22//17 15//17 1//17
