# Blender v2.92.0 OBJ File: ''
# www.blender.org
mtllib CG10_500_043069_0021_roof.mtl
o CG10_500_043069_0021_roof
v 215.924072 75.000000 -219.271912
v 158.790390 145.000000 -244.128067
v 99.590538 75.000000 -269.869751
v 10.304063 75.000000 -63.600430
v 69.269798 144.729019 -37.946976
v 126.186981 75.000000 -13.197788
v 215.924072 0.000000 -219.271912
v 99.590538 0.000000 -269.869751
v 10.304063 0.000000 -63.600430
v 126.186981 0.000000 -13.197788
vt 0.305150 0.865440
vt 0.699520 0.134300
vt 0.951210 0.222440
vt 0.555890 0.953200
vt 0.438720 0.043015
vt 0.045392 0.774470
vn -0.6848 -0.6649 -0.2982
vn -0.6746 0.6779 -0.2920
vn -0.3988 0.0001 0.9170
vn 0.3989 0.0001 -0.9170
usemtl None
s off
f 5/1/1 2/2/1 1/3/1 6/4/1
f 2/2/2 3/5/2 4/6/2 5/1/2
f 1/3/3 2/2/3 3/5/3
f 4/6/4 5/1/4 6/4/4
