# Blender v2.92.0 OBJ File: ''
# www.blender.org
mtllib CG10_500_045064_0010_roof.mtl
o CG10_500_045064_0010_roof
v 62.138416 75.000000 -415.426666
v 218.221283 75.000000 -405.494720
v 136.432724 132.907791 -332.565765
v 340.787842 75.000000 -276.251648
v 210.501114 75.000000 -283.773865
v 23.198315 75.000000 -233.866104
v 50.558216 75.000000 -232.652725
v 128.903122 132.904831 -213.787430
v 249.307602 145.000000 -191.232941
v 144.064911 144.683762 -197.717163
v 259.902985 135.743393 -178.322433
v 110.240974 121.376495 -169.177368
v 79.144279 121.125618 -170.885544
v 254.150482 139.313416 -156.504013
v 15.576597 75.000000 -114.183601
v 179.019638 75.000000 -103.465393
v 328.335022 75.000000 -75.966103
v 322.973389 75.000000 -76.310242
v 181.244492 75.000000 -85.407120
v 172.020477 75.000000 -85.999161
v 319.352142 75.000000 -19.401224
v 177.618240 75.000000 -28.420092
v 62.138416 0.000000 -415.426666
v 218.221283 0.000000 -405.494720
v 210.501114 0.000000 -283.773865
v 340.787842 0.000000 -276.251648
v 328.335022 0.000000 -75.966103
v 322.973389 0.000000 -76.310242
v 319.352142 0.000000 -19.401224
v 177.618240 0.000000 -28.420092
v 181.244492 0.000000 -85.407120
v 172.020477 0.000000 -85.999161
v 179.019638 0.000000 -103.465393
v 15.576597 0.000000 -114.183601
v 23.198315 0.000000 -233.866104
v 50.558216 0.000000 -232.652725
vt 0.173570 0.044996
vt 0.381100 0.235480
vt 0.609560 0.067828
vt 0.360060 0.508530
vt 0.587990 0.347650
vt 0.402420 0.545480
vt 0.696390 0.560380
vt 0.951920 0.364940
vt 0.725990 0.590060
vt 0.709920 0.640220
vt 0.917140 0.825370
vt 0.480500 0.802300
vt 0.506270 0.803660
vt 0.902160 0.824570
vt 0.496140 0.934670
vt 0.892050 0.955400
vt 0.500050 0.762150
vt 0.043510 0.737510
vt 0.221070 0.607160
vt 0.307940 0.611090
vt 0.064800 0.462380
vt 0.141220 0.465170
vn 0.0379 0.8028 -0.5950
vn 0.5998 0.7992 0.0380
vn 0.0354 0.7898 -0.6123
vn 0.6299 0.7757 0.0392
vn -0.0415 0.7618 0.6465
vn 0.0000 1.0000 -0.0000
vn 0.7328 -0.6139 0.2936
vn 0.0396 -0.7964 -0.6035
vn -0.6093 0.7920 -0.0388
vn 0.5881 -0.8079 0.0373
vn -0.0269 -0.7949 0.6061
usemtl None
s off
f 1/1/1 3/2/1 2/3/1
f 8/4/2 5/5/2 2/3/2 3/2/2
f 8/4/3 10/6/3 9/7/3 4/8/3 5/5/3
f 9/7/4 11/9/4 14/10/4 17/11/4 4/8/4
f 14/10/5 20/12/5 19/13/5 18/14/5 17/11/5
f 19/13/6 22/15/6 21/16/6 18/14/6
f 16/17/7 11/9/7 14/10/7 20/12/7
f 16/17/8 15/18/8 13/19/8 12/20/8 10/6/8 9/7/8 11/9/8
f 13/19/9 6/21/9 15/18/9
f 12/20/10 7/22/10 1/1/10 3/2/10 8/4/10 10/6/10
f 6/21/11 7/22/11 12/20/11 13/19/11
