# Blender v2.92.0 OBJ File: ''
# www.blender.org
mtllib CG10_500_043067_0006.mtl
o CG10_500_043067_0006
v 8.920194 75.000000 -25.654385
v 221.412811 75.000000 -14.258205
v 172.859512 116.031532 -67.846832
v 135.878128 115.884567 -69.647568
v 100.948158 144.957535 -107.646172
v 190.608398 75.000000 -121.401787
v 227.088577 75.000000 -119.817406
v 106.066772 145.000000 -204.650070
v 23.314325 75.000000 -301.308441
v 199.695847 75.000000 -291.822601
v 8.920194 0.000000 -25.654385
v 221.412811 0.000000 -14.258205
v 227.088577 0.000000 -119.817406
v 190.608398 0.000000 -121.401787
v 199.695847 0.000000 -291.822601
v 23.314325 0.000000 -301.308441
vn -0.0336 0.7786 0.6266
vn 0.6233 0.7813 0.0335
vn 0.0262 0.7977 -0.6025
vn 0.6180 0.7855 0.0330
vn 0.0325 0.7961 -0.6043
vn 0.6231 -0.7815 0.0325
vn 0.0000 1.0000 0.0000
vn -0.0536 0.0000 0.9986
vn 0.9986 0.0000 0.0537
vn 0.0434 0.0000 -0.9991
vn 0.9986 0.0000 0.0532
vn 0.0537 0.0000 -0.9986
vn -0.9986 0.0000 -0.0521
usemtl None
s off
f 1//1 2//1 3//1 4//1 5//1
f 2//2 7//2 3//2
f 7//3 6//3 4//3 3//3
f 6//4 10//4 8//4 5//4 4//4
f 10//5 9//5 8//5
f 8//6 5//6 1//6 9//6
f 11//7 12//7 13//7 14//7 15//7 16//7
f 1//8 11//8 12//8 2//8
f 2//9 12//9 13//9 7//9
f 7//10 13//10 14//10 6//10
f 6//11 14//11 15//11 10//11
f 10//12 15//12 16//12 9//12
f 9//13 16//13 11//13 1//13
