# Blender v2.92.0 OBJ File: ''
# www.blender.org
mtllib CG10_500_041059_0053.mtl
o CG10_500_041059_0053
v 93.451019 75.000000 -24.142073
v 248.628067 75.000000 -15.156856
v 178.761368 136.870834 -95.264992
v 32.753403 75.000000 -143.686462
v 100.251732 75.000000 -139.633789
v 36.924641 75.000000 -216.490112
v 20.183567 75.000000 -220.476456
v 185.618927 136.819870 -212.857010
v 260.125793 75.000000 -214.098465
v 316.007202 75.000000 -211.025848
v 176.400665 145.000000 -223.777756
v 130.725098 144.961823 -226.471771
v 21.451895 75.000000 -242.385239
v 22.081278 75.000000 -253.257019
v 95.234077 116.654457 -265.399475
v 81.665138 115.784218 -267.318604
v 217.356018 112.880203 -263.245819
v 274.086426 112.815201 -260.046234
v 24.039707 75.000000 -287.086578
v 24.606964 75.000000 -296.885284
v 26.156824 75.000000 -323.657471
v 321.539001 75.000000 -306.556976
v 93.451019 0.000000 -24.142073
v 248.628067 0.000000 -15.156856
v 260.125793 0.000000 -214.098465
v 316.007202 0.000000 -211.025848
v 321.539001 0.000000 -306.556976
v 26.156824 0.000000 -323.657471
v 24.606964 0.000000 -296.885284
v 24.039707 0.000000 -287.086578
v 22.081278 0.000000 -253.257019
v 21.451895 0.000000 -242.385239
v 20.183567 0.000000 -220.476456
v 36.924641 0.000000 -216.490112
v 32.753403 0.000000 -143.686462
v 100.251732 0.000000 -139.633789
vn -0.0365 0.7752 0.6306
vn -0.5999 0.7994 -0.0344
vn -0.0372 0.7845 0.6190
vn -0.6060 0.7946 -0.0357
vn -0.1305 0.8262 0.5481
vn 0.5698 -0.8211 0.0330
vn -0.0352 -0.7927 0.6086
vn 0.6385 0.7688 0.0369
vn -0.0346 0.7768 0.6288
vn 0.6449 0.7633 0.0373
vn 0.0000 1.0000 0.0000
vn -0.0578 0.0000 0.9983
vn 0.9983 0.0000 0.0577
vn -0.0549 0.0000 0.9985
vn 0.9983 0.0000 0.0578
vn 0.0578 0.0000 -0.9983
vn -0.9983 0.0000 -0.0578
vn -0.2316 0.0000 0.9728
vn -0.9984 0.0000 -0.0572
vn -0.0599 0.0000 0.9982
vn -0.9983 0.0000 -0.0588
usemtl None
s off
f 1//1 2//1 3//1
f 4//2 12//2 15//2 6//2
f 5//3 8//3 11//3 12//3 4//3
f 1//4 3//4 8//4 5//4
f 6//5 15//5 16//5 7//5
f 7//6 13//6 14//6 19//6 20//6 21//6 16//6
f 16//7 21//7 22//7 18//7 17//7 11//7 12//7 15//7
f 3//8 2//8 9//8 17//8 11//8 8//8
f 9//9 10//9 18//9 17//9
f 18//10 10//10 22//10
f 23//11 24//11 25//11 26//11 27//11 28//11 29//11 30//11 31//11 32//11 33//11 34//11 35//11 36//11
f 1//12 23//12 24//12 2//12
f 2//13 24//13 25//13 9//13
f 9//14 25//14 26//14 10//14
f 10//15 26//15 27//15 22//15
f 22//16 27//16 28//16 21//16
f 21//17 28//17 29//17 20//17
f 20//17 29//17 30//17 19//17
f 19//17 30//17 31//17 14//17
f 14//17 31//17 32//17 13//17
f 13//17 32//17 33//17 7//17
f 7//18 33//18 34//18 6//18
f 6//19 34//19 35//19 4//19
f 4//20 35//20 36//20 5//20
f 5//21 36//21 23//21 1//21
