# Blender v2.92.0 OBJ File: ''
# www.blender.org
mtllib CG10_500_040071_0005_roof.mtl
o CG10_500_040071_0005_roof
v 359.056641 75.000000 -11.906993
v 371.815521 75.000000 -238.558853
v 249.644302 144.999802 -135.293839
v 224.574722 145.000000 -136.705795
v 172.501297 110.728806 -193.566269
v 111.605843 75.000000 -138.921997
v 105.068764 75.000000 -26.208643
v 78.492744 110.708206 -198.894501
v 24.293715 75.000000 -258.135895
v 17.883793 75.000000 -144.267410
v 359.056641 0.000000 -11.906993
v 371.815521 0.000000 -238.558853
v 24.293715 0.000000 -258.135895
v 17.883793 0.000000 -144.267410
v 111.605843 0.000000 -138.921997
v 105.068764 0.000000 -26.208643
vt 0.045974 0.467650
vt 0.201780 0.266070
vt 0.062452 0.047469
vt 0.286900 0.487370
vt 0.443450 0.285730
vt 0.270100 0.903290
vt 0.577310 0.495550
vt 0.923020 0.956060
vt 0.641760 0.500760
vt 0.955820 0.119710
vn -0.5271 0.8493 -0.0297
vn -0.0299 0.8515 0.5235
vn -0.5260 0.8499 -0.0305
vn -0.0289 0.8582 0.5125
vn 0.5153 0.8565 0.0290
vn 0.0302 0.8436 -0.5361
usemtl None
s off
f 10/1/1 8/2/1 9/3/1
f 6/4/2 5/5/2 8/2/2 10/1/2
f 7/6/3 4/7/3 5/5/3 6/4/3
f 1/8/4 3/9/4 4/7/4 7/6/4
f 2/10/5 3/9/5 1/8/5
f 9/3/6 8/2/6 5/5/6 4/7/6 3/9/6 2/10/6
