# Blender v2.92.0 OBJ File: ''
# www.blender.org
mtllib CG10_500_042067_0051_roof.mtl
o CG10_500_042067_0051_roof
v 196.637848 75.000000 -313.985168
v 179.821899 75.000000 -15.332563
v 98.464600 145.000000 -59.751392
v 110.243927 144.950760 -267.905396
v 8.644123 75.000000 -25.059830
v 25.632822 75.000000 -323.702667
v 196.637848 0.000000 -313.985168
v 179.821899 0.000000 -15.332563
v 8.644123 0.000000 -25.059830
v 25.632822 0.000000 -323.702667
vt 0.041962 0.926080
vt 0.477980 0.823740
vt 0.872920 0.954770
vt 0.124430 0.045125
vt 0.535160 0.209720
vt 0.954550 0.073790
vn 0.0493 -0.4936 -0.8683
vn 0.6228 -0.7816 0.0354
vn -0.0459 -0.5884 0.8072
vn -0.6404 -0.7672 -0.0361
usemtl None
s off
f 5/1/1 3/2/1 2/3/1
f 5/1/2 6/4/2 4/5/2 3/2/2
f 4/5/3 6/4/3 1/6/3
f 2/3/4 3/2/4 4/5/4 1/6/4
