# Blender v2.92.0 OBJ File: ''
# www.blender.org
mtllib CG10_500_044073_0029.mtl
o CG10_500_044073_0029
v 391.209412 75.000000 -25.044106
v 22.915350 75.000000 -377.019531
v 447.548370 144.677490 -83.930336
v 79.472527 145.000000 -436.218964
v 512.780579 75.000000 -152.205795
v 449.398712 75.000000 -212.973434
v 344.486420 75.000000 -313.558502
v 273.414429 75.000000 -381.699066
v 215.311584 75.000000 -437.405365
v 145.050186 75.000000 -504.768768
v 474.039612 75.000000 -238.746567
v 368.985016 75.000000 -339.183411
v 299.831543 75.000000 -409.331024
v 241.649887 75.000000 -464.955231
v 391.209412 0.000000 -25.044106
v 22.915350 0.000000 -377.019531
v 145.050186 0.000000 -504.768768
v 215.311584 0.000000 -437.405365
v 241.649887 0.000000 -464.955231
v 299.831543 0.000000 -409.331024
v 273.414429 0.000000 -381.699066
v 344.486420 0.000000 -313.558502
v 368.985016 0.000000 -339.183411
v 474.039612 0.000000 -238.746567
v 449.398712 0.000000 -212.973434
v 512.780579 0.000000 -152.205795
vn -0.4490 0.7601 0.4698
vn 0.4109 0.8047 -0.4286
vn 0.0000 -1.0000 0.0000
vn 0.0000 1.0000 -0.0000
vn -0.7228 -0.0004 -0.6910
vn 0.7228 -0.0004 0.6910
vn 0.6909 0.0000 -0.7229
vn 0.7228 0.0000 0.6910
vn -0.6921 0.0000 0.7218
vn -0.6910 0.0000 0.7228
vn -0.7228 0.0000 -0.6910
vn -0.7228 0.0000 -0.6911
usemtl None
s off
f 3//1 4//1 2//1 1//1
f 3//2 5//2 6//2 7//2 8//2 9//2 10//2 4//2
f 7//3 12//3 11//3 6//3
f 8//4 13//4 14//4 9//4
f 2//5 4//5 10//5
f 5//6 3//6 1//6
f 15//3 16//3 17//3 18//3 19//3 20//3 21//3 22//3 23//3 24//3 25//3 26//3
f 1//7 15//7 16//7 2//7
f 2//8 16//8 17//8 10//8
f 10//9 17//9 18//9 9//9
f 9//8 18//8 19//8 14//8
f 14//10 19//10 20//10 13//10
f 13//11 20//11 21//11 8//11
f 8//9 21//9 22//9 7//9
f 7//8 22//8 23//8 12//8
f 12//10 23//10 24//10 11//10
f 11//12 24//12 25//12 6//12
f 6//9 25//9 26//9 5//9
f 5//11 26//11 15//11 1//11
