# Blender v2.92.0 OBJ File: ''
# www.blender.org
mtllib CG10_500_043070_0047.mtl
o CG10_500_043070_0047
v 190.601364 75.000000 -11.925527
v 255.622330 75.000000 -169.203217
v 152.423981 144.986633 -92.665703
v 168.457977 145.000000 -131.483017
v 73.942604 75.000000 -60.088005
v 90.005135 75.000000 -99.004562
v 91.024918 144.546509 -163.887390
v 61.593975 75.000000 -249.204910
v 13.057261 75.000000 -131.629135
v 190.601364 0.000000 -11.925527
v 255.622330 0.000000 -169.203217
v 61.593975 0.000000 -249.204910
v 13.057261 0.000000 -131.629135
v 90.005135 0.000000 -99.004562
v 73.942604 0.000000 -60.088005
vn -0.2896 0.6512 0.7014
vn 0.7012 -0.6516 0.2894
vn -0.6717 -0.6868 -0.2777
vn 0.2732 0.6973 -0.6627
vn -0.7011 0.6517 -0.2894
vn -0.2953 0.6541 0.6964
vn 0.0000 1.0000 0.0000
vn 0.9241 0.0000 0.3821
vn 0.3812 0.0000 -0.9245
vn -0.9243 0.0000 -0.3816
vn -0.3903 0.0000 0.9207
vn -0.9244 0.0000 -0.3815
vn -0.3816 0.0000 0.9243
usemtl None
s off
f 5//1 1//1 3//1
f 5//2 6//2 4//2 3//2
f 4//3 2//3 1//3 3//3
f 2//4 8//4 7//4 4//4
f 8//5 9//5 7//5
f 4//6 7//6 9//6 6//6
f 10//7 11//7 12//7 13//7 14//7 15//7
f 1//8 10//8 11//8 2//8
f 2//9 11//9 12//9 8//9
f 8//10 12//10 13//10 9//10
f 9//11 13//11 14//11 6//11
f 6//12 14//12 15//12 5//12
f 5//13 15//13 10//13 1//13
