# Blender v2.92.0 OBJ File: ''
# www.blender.org
mtllib CG10_500_049064_0049.mtl
o CG10_500_049064_0049
v 236.400726 75.000000 -292.012054
v 176.867249 75.697937 -296.066956
v 27.280575 75.000000 -306.394806
v 234.774002 75.000000 -268.346832
v 382.545288 75.000000 -258.673004
v 176.524445 75.681908 -271.166809
v 94.090210 121.000938 -234.320999
v 105.655869 121.024216 -233.567795
v 200.289093 113.290802 -214.816666
v 117.573181 113.213303 -220.344604
v 245.894394 144.982849 -165.657394
v 273.094910 145.000000 -163.851730
v 137.534424 75.000000 -158.272049
v 17.656664 75.000000 -166.462036
v 368.059509 75.000000 -48.039337
v 213.663239 75.000000 -58.441029
v 131.310410 75.000000 -63.989147
v 365.637299 75.000000 -12.820895
v 211.256027 75.000000 -23.438612
v 236.400726 0.000000 -292.012054
v 27.280575 0.000000 -306.394806
v 17.656664 0.000000 -166.462036
v 137.534424 0.000000 -158.272049
v 131.310410 0.000000 -63.989147
v 213.663239 0.000000 -58.441029
v 211.256027 0.000000 -23.438612
v 365.637299 0.000000 -12.820895
v 368.059509 0.000000 -48.039337
v 382.545288 0.000000 -258.673004
v 234.774002 0.000000 -268.346832
vn 0.5439 -0.8384 0.0359
vn -0.0363 0.8418 0.5386
vn 0.5619 0.8263 0.0386
vn 0.0000 1.0000 0.0000
vn -0.0370 -0.8239 0.5655
vn -0.0117 -0.9999 -0.0008
vn -0.5419 -0.8404 -0.0080
vn -0.0348 -0.8275 0.5604
vn -0.5393 0.8413 -0.0371
vn -0.0364 0.8457 0.5324
vn -0.0685 -0.0566 0.9960
vn 0.0686 0.0000 -0.9976
vn -0.9976 0.0000 -0.0686
vn -0.0682 0.0000 0.9977
vn -0.9978 0.0000 -0.0659
vn -0.0672 0.0000 0.9977
vn -0.0686 0.0000 0.9976
vn 0.9976 0.0000 0.0686
vn 0.0653 0.0000 -0.9979
usemtl None
s off
f 17//1 13//1 9//1 11//1
f 17//2 16//2 15//2 12//2 11//2
f 15//3 5//3 12//3
f 16//4 19//4 18//4 15//4
f 9//5 10//5 6//5 4//5 5//5 12//5 11//5
f 6//6 2//6 1//6 4//6
f 10//7 8//7 2//7 6//7
f 8//8 7//8 3//8 2//8
f 3//9 14//9 7//9
f 14//10 13//10 9//10 10//10 8//10 7//10
f 1//11 2//11 3//11
f 20//4 21//4 22//4 23//4 24//4 25//4 26//4 27//4 28//4 29//4 30//4
f 1//12 20//12 21//12 3//12
f 3//13 21//13 22//13 14//13
f 14//14 22//14 23//14 13//14
f 13//15 23//15 24//15 17//15
f 17//16 24//16 25//16 16//16
f 16//13 25//13 26//13 19//13
f 19//17 26//17 27//17 18//17
f 18//18 27//18 28//18 15//18
f 15//18 28//18 29//18 5//18
f 5//19 29//19 30//19 4//19
f 4//18 30//18 20//18 1//18
