# Blender v2.92.0 OBJ File: ''
# www.blender.org
mtllib CG10_500_044068_0054.mtl
o CG10_500_044068_0054
v 16.489986 75.000000 -80.865578
v 137.676208 75.000000 -368.406372
v 151.636612 112.339012 -247.184601
v 169.519485 111.652870 -292.451843
v 144.646912 127.655083 -167.288879
v 126.400200 127.752571 -123.591469
v 241.321991 77.004082 -325.619263
v 179.948975 144.867050 -179.902649
v 223.774597 76.811249 -277.166473
v 205.320648 145.000000 -168.966370
v 268.897095 75.000000 -313.096527
v 250.101044 75.000000 -269.133942
v 167.168640 75.000000 -17.361357
v 186.068604 75.000000 -63.015114
v 257.467041 75.000000 -31.627703
v 341.342896 75.000000 -230.618225
v 16.489986 0.000000 -80.865578
v 137.676208 0.000000 -368.406372
v 268.897095 0.000000 -313.096527
v 250.101044 0.000000 -269.133942
v 341.342896 0.000000 -230.618225
v 257.467041 0.000000 -31.627703
v 186.068604 0.000000 -63.015114
v 167.168640 0.000000 -17.361357
vn 0.5235 0.8229 0.2207
vn -0.2236 0.8314 0.5087
vn 0.5162 0.8293 0.2137
vn -0.2100 0.8412 0.4983
vn 0.4944 0.8499 0.1824
vn 0.4872 -0.8488 0.2053
vn 0.1854 0.8523 -0.4890
vn 0.0607 0.9978 0.0260
vn 0.2092 0.8430 -0.4956
vn 0.3589 -0.3823 -0.8515
vn 0.0000 -1.0000 0.0000
vn 0.9215 0.0000 0.3884
vn -0.3884 0.0000 0.9215
vn -0.9195 0.0000 -0.3931
vn -0.3889 0.0000 0.9213
vn -0.9215 0.0000 -0.3884
vn 0.4024 0.0000 -0.9154
vn -0.9240 0.0000 -0.3825
vn 0.3884 0.0000 -0.9215
usemtl None
s off
f 10//1 15//1 16//1
f 5//2 14//2 15//2 10//2 8//2
f 6//3 13//3 14//3 5//3
f 1//4 13//4 6//4
f 3//5 9//5 7//5 4//5
f 1//6 2//6 4//6 3//6 8//6 5//6 6//6
f 2//7 4//7 7//7
f 9//8 12//8 11//8 7//8
f 10//9 16//9 12//9 9//9 3//9 8//9
f 2//10 7//10 11//10
f 17//11 18//11 19//11 20//11 21//11 22//11 23//11 24//11
f 1//12 17//12 18//12 2//12
f 2//13 18//13 19//13 11//13
f 11//14 19//14 20//14 12//14
f 12//15 20//15 21//15 16//15
f 16//16 21//16 22//16 15//16
f 15//17 22//17 23//17 14//17
f 14//18 23//18 24//18 13//18
f 13//19 24//19 17//19 1//19
