# Blender v2.92.0 OBJ File: ''
# www.blender.org
mtllib CG10_500_033058_0025_roof.mtl
o CG10_500_033058_0025_roof
v 23.473303 75.000000 -192.273056
v 323.565521 75.000000 -176.180649
v 239.291534 118.276382 -129.168869
v 320.789429 118.616104 -124.394012
v 207.450455 145.000000 -99.055428
v 19.018631 144.926727 -109.247330
v 215.916672 137.040375 -89.203949
v 318.160492 75.000000 -75.469513
v 285.426697 75.000000 -77.540924
v 14.605841 75.000000 -26.998274
v 137.622192 75.000000 -20.288128
v 281.694977 75.000000 -8.526659
v 211.526260 137.245117 -12.288775
v 137.380035 75.000000 -16.269630
v 23.473303 0.000000 -192.273056
v 323.565521 0.000000 -176.180649
v 318.160492 0.000000 -75.469513
v 285.426697 0.000000 -77.540924
v 281.694977 0.000000 -8.526659
v 137.380035 0.000000 -16.269630
v 137.622192 0.000000 -20.288128
v 14.605841 0.000000 -26.998274
vt 0.056102 0.459170
vt 0.069243 0.048153
vt 0.954470 0.127820
vt 0.946280 0.384190
vt 0.705870 0.360550
vt 0.611950 0.509630
vt 0.043085 0.866350
vt 0.636920 0.558400
vt 0.405970 0.899560
vt 0.405250 0.919460
vt 0.623970 0.939160
vt 0.830960 0.957790
vt 0.841970 0.616130
vt 0.938530 0.626390
vn -0.0345 -0.7653 0.6427
vn 0.0352 -0.7623 -0.6462
vn -0.6413 0.7663 -0.0386
vn 0.6621 0.7486 0.0358
vn 0.0420 -0.7469 -0.6636
vn 0.9986 -0.0001 0.0536
vn -0.0536 -0.0000 0.9986
vn -0.9986 -0.0000 -0.0536
usemtl None
s off
f 6/1/1 1/2/1 2/3/1 4/4/1 3/5/1 5/6/1
f 10/7/2 6/1/2 5/6/2 7/8/2 11/9/2
f 11/9/3 14/10/3 13/11/3 7/8/3
f 13/11/4 12/12/4 9/13/4 3/5/4 5/6/4 7/8/4
f 3/5/5 4/4/5 8/14/5 9/13/5
f 2/3/6 4/4/6 8/14/6
f 12/12/7 13/11/7 14/10/7
f 10/7/8 6/1/8 1/2/8
