# Blender v2.92.0 OBJ File: ''
# www.blender.org
mtllib CG10_500_038058_0003_roof.mtl
o CG10_500_038058_0003_roof
v 409.111176 75.000000 -7.358464
v 419.897400 75.000000 -174.359299
v 329.897644 144.993927 -100.244087
v 279.916077 145.000000 -103.474426
v 263.707581 130.301163 -121.312698
v 193.878830 75.000000 -21.236237
v 195.901047 75.000000 -59.448292
v 85.151497 130.731995 -132.385605
v 28.962038 75.000000 -199.679977
v 20.577423 75.000000 -69.816849
v 409.111176 0.000000 -7.358464
v 419.897400 0.000000 -174.359299
v 28.962038 0.000000 -199.679977
v 20.577423 0.000000 -69.816849
v 195.901047 0.000000 -59.448292
v 193.878830 0.000000 -21.236237
vt 0.046873 0.665950
vt 0.193970 0.366580
vt 0.600700 0.419560
vt 0.446240 0.715560
vt 0.637620 0.504910
vt 0.441640 0.898390
vt 0.751480 0.520360
vt 0.931920 0.964790
vt 0.956490 0.165750
vt 0.065973 0.044593
vn 0.0380 -0.7653 -0.6425
vn 0.6503 -0.7589 0.0344
vn 0.0402 -0.7812 -0.6229
vn -0.6342 -0.7721 -0.0410
vn -0.0426 -0.7517 0.6581
vn 0.6767 -0.7350 0.0437
usemtl None
s off
f 10/1/1 8/2/1 5/3/1 7/4/1
f 7/4/2 5/3/2 4/5/2 6/6/2
f 6/6/3 4/5/3 3/7/3 1/8/3
f 1/8/4 3/7/4 2/9/4
f 2/9/5 3/7/5 4/5/5 5/3/5 8/2/5 9/10/5
f 9/10/6 8/2/6 10/1/6
