# Blender v2.92.0 OBJ File: ''
# www.blender.org
mtllib CG10_500_043068_0061_roof.mtl
o CG10_500_043068_0061_roof
v 79.380165 75.000000 -320.787537
v 360.522186 75.000000 -204.987686
v 113.225647 118.012985 -241.710709
v 125.793617 118.264366 -236.153412
v 147.594650 144.762283 -187.046997
v 238.311127 145.000000 -149.321747
v 241.272034 140.714859 -141.762070
v 236.542709 140.585571 -129.843033
v 34.835766 75.000000 -212.676559
v 45.202087 75.000000 -207.774124
v 120.540810 75.000000 -95.562386
v 16.748318 75.000000 -139.126343
v 116.413879 75.000000 -84.695030
v 282.691254 75.000000 -16.155762
v 79.380165 0.000000 -320.787537
v 360.522186 0.000000 -204.987686
v 282.691254 0.000000 -16.155762
v 116.413879 0.000000 -84.695030
v 120.540810 0.000000 -95.562386
v 16.748318 0.000000 -139.126343
v 45.202087 0.000000 -207.774124
v 34.835766 0.000000 -212.676559
vt 0.308790 0.747930
vt 0.627430 0.613560
vt 0.749840 0.951920
vt 0.092403 0.367030
vt 0.300330 0.280620
vt 0.333670 0.297160
vt 0.119900 0.381620
vt 0.391500 0.443310
vt 0.044425 0.585930
vt 0.632130 0.555590
vt 0.639980 0.578090
vt 0.319740 0.715590
vt 0.210560 0.045275
vt 0.956290 0.389920
vn 0.2285 -0.8002 -0.5544
vn 0.2497 -0.8116 -0.5281
vn 0.5197 -0.8268 0.2154
vn 0.2293 -0.8055 -0.5464
vn -0.5263 0.8265 -0.1999
vn 0.5304 -0.8191 0.2185
vn -0.5607 -0.7951 -0.2311
vn -0.2213 -0.8138 0.5374
usemtl None
s off
f 13/1/1 8/2/1 14/3/1
f 9/4/2 3/5/2 4/6/2 10/7/2
f 10/7/3 4/6/3 5/8/3 12/9/3
f 12/9/4 5/8/4 6/10/4 7/11/4 11/12/4
f 13/1/5 8/2/5 7/11/5 11/12/5
f 1/13/6 3/5/6 9/4/6
f 14/3/7 8/2/7 7/11/7 6/10/7 2/14/7
f 1/13/8 2/14/8 6/10/8 5/8/8 4/6/8 3/5/8
