# Blender v2.92.0 OBJ File: ''
# www.blender.org
mtllib CG10_500_049074_0068.mtl
o CG10_500_049074_0068
v 298.390656 75.000000 -241.794281
v 175.855255 75.000000 -261.797638
v 288.071289 75.000000 -178.580551
v 341.884674 75.000000 -169.796051
v 165.535782 75.000000 -198.583282
v 40.981270 75.000000 -218.915604
v 328.872375 145.000000 -90.086197
v 27.969429 144.999176 -139.206619
v 316.122650 75.000000 -11.984697
v 15.219863 75.000000 -61.106037
v 298.390656 0.000000 -241.794281
v 175.855255 0.000000 -261.797638
v 165.535782 0.000000 -198.583282
v 40.981270 0.000000 -218.915604
v 15.219863 0.000000 -61.106037
v 316.122650 0.000000 -11.984697
v 341.884674 0.000000 -169.796051
v 288.071289 0.000000 -178.580551
vn 0.1067 -0.7490 -0.6539
vn -0.1055 -0.7557 0.6464
vn 0.0000 -1.0000 -0.0000
vn 0.9869 -0.0000 0.1611
vn -0.9869 -0.0000 -0.1611
vn 0.0000 1.0000 0.0000
vn 0.1611 0.0000 -0.9869
vn -0.1611 0.0000 0.9869
usemtl None
s off
f 10//1 8//1 7//1 9//1
f 8//2 6//2 5//2 3//2 4//2 7//2
f 5//3 2//3 1//3 3//3
f 6//4 8//4 10//4
f 9//5 7//5 4//5
f 11//6 12//6 13//6 14//6 15//6 16//6 17//6 18//6
f 1//7 11//7 12//7 2//7
f 2//5 12//5 13//5 5//5
f 5//7 13//7 14//7 6//7
f 6//5 14//5 15//5 10//5
f 10//8 15//8 16//8 9//8
f 9//4 16//4 17//4 4//4
f 4//7 17//7 18//7 3//7
f 3//4 18//4 11//4 1//4
