# Blender v2.92.0 OBJ File: ''
# www.blender.org
mtllib CG10_500_042072_0014.mtl
o CG10_500_042072_0014
v 132.852692 75.000000 -19.756285
v 31.751629 75.000000 -11.414922
v 129.487015 75.000000 -57.908409
v 294.005219 75.000000 -71.495201
v 80.446259 116.254631 -66.889488
v 77.103622 116.162552 -106.001282
v 111.079628 144.999908 -145.530487
v 203.812790 145.000000 -153.189011
v 279.560638 75.000000 -246.580765
v 14.174920 75.000000 -224.663116
v 132.852692 0.000000 -19.756285
v 31.751629 0.000000 -11.414922
v 14.174920 0.000000 -224.663116
v 279.560638 0.000000 -246.580765
v 294.005219 0.000000 -71.495201
v 129.487015 0.000000 -57.908409
vn 0.6115 -0.7896 -0.0504
vn 0.0515 0.7792 0.6247
vn 0.6488 0.7588 -0.0572
vn 0.0509 0.7855 0.6168
vn -0.6418 -0.7651 0.0529
vn 0.0517 -0.7786 0.6254
vn 0.0000 -1.0000 0.0000
vn -0.0822 0.0000 -0.9966
vn 0.9966 0.0000 -0.0821
vn 0.0823 0.0000 0.9966
vn -0.9966 0.0000 0.0822
vn -0.0823 0.0000 -0.9966
vn -0.9961 0.0000 0.0879
usemtl None
s off
f 2//1 10//1 7//1 6//1 5//1
f 2//2 1//2 5//2
f 1//3 3//3 6//3 5//3
f 3//4 4//4 8//4 7//4 6//4
f 8//5 9//5 4//5
f 10//6 9//6 8//6 7//6
f 11//7 12//7 13//7 14//7 15//7 16//7
f 1//8 11//8 12//8 2//8
f 2//9 12//9 13//9 10//9
f 10//10 13//10 14//10 9//10
f 9//11 14//11 15//11 4//11
f 4//12 15//12 16//12 3//12
f 3//13 16//13 11//13 1//13
