# Blender v2.92.0 OBJ File: ''
# www.blender.org
mtllib CG10_500_040075_0007_roof.mtl
o CG10_500_040075_0007_roof
v 156.015686 75.000000 -369.743652
v 312.510590 75.000000 -303.000092
v 203.171997 145.000000 -255.948761
v 63.352459 75.000000 -209.366989
v 83.910782 75.000000 -200.628021
v 146.893265 144.995071 -123.967842
v 122.034569 129.549286 -115.177826
v 97.393784 129.532272 -125.673790
v 190.694046 75.000000 -17.356497
v 13.684273 75.000000 -92.909081
v 156.015686 0.000000 -369.743652
v 312.510590 0.000000 -303.000092
v 190.694046 0.000000 -17.356497
v 13.684273 0.000000 -92.909081
v 63.352459 0.000000 -209.366989
v 83.910782 0.000000 -200.628021
vt 0.621320 0.338630
vt 0.477110 0.044590
vt 0.955690 0.217050
vt 0.449210 0.679670
vt 0.373190 0.702380
vt 0.256610 0.481580
vt 0.297840 0.675260
vt 0.193740 0.459000
vt 0.041848 0.759920
vt 0.583160 0.955150
vn -0.2473 -0.7762 0.5800
vn 0.5726 -0.7826 0.2441
vn -0.2544 -0.7597 0.5985
vn 0.5958 -0.7619 0.2541
vn -0.2569 0.7561 0.6020
vn -0.5967 -0.7610 -0.2545
usemtl None
s off
f 3/1/1 1/2/1 2/3/1
f 3/1/2 6/4/2 7/5/2 5/6/2 1/2/2 3/1/2 6/4/2
f 8/7/3 4/8/3 5/6/3 7/5/3
f 10/9/4 4/8/4 8/7/4
f 9/10/5 6/4/5 7/5/5 8/7/5 10/9/5
f 6/4/6 9/10/6 6/4/6 3/1/6 2/3/6 9/10/6
