# Blender v2.92.0 OBJ File: ''
# www.blender.org
mtllib CG10_500_042072_0026.mtl
o CG10_500_042072_0026
v 278.145477 75.000000 -12.656448
v 17.199715 75.000000 -120.654625
v 239.590652 144.782272 -117.884941
v 127.628288 145.000000 -164.501587
v 266.622131 125.914200 -129.570023
v 230.627014 75.000000 -206.716934
v 79.095154 75.000000 -270.167999
v 289.251434 125.709618 -183.681412
v 361.819824 75.000000 -214.890076
v 253.131516 75.000000 -259.881836
v 278.145477 0.000000 -12.656448
v 17.199715 0.000000 -120.654625
v 79.095154 0.000000 -270.167999
v 230.627014 0.000000 -206.716934
v 253.131516 0.000000 -259.881836
v 361.819824 0.000000 -214.890076
vn 0.5863 -0.7729 0.2427
vn -0.2470 0.7634 0.5968
vn 0.6256 0.7360 0.2588
vn 0.2552 0.7447 -0.6166
vn -0.5776 0.7788 -0.2445
vn 0.2567 0.7473 -0.6129
vn 0.0000 -1.0000 0.0000
vn 0.3824 0.0000 -0.9240
vn 0.9240 0.0000 0.3825
vn -0.3862 0.0000 0.9224
vn 0.9209 0.0000 0.3898
vn -0.3825 0.0000 0.9240
vn -0.9240 0.0000 -0.3823
usemtl None
s off
f 2//1 7//1 4//1
f 2//2 1//2 3//2 4//2
f 1//3 9//3 8//3 5//3 3//3
f 9//4 10//4 8//4
f 10//5 6//5 5//5 8//5
f 6//6 7//6 4//6 3//6 5//6
f 11//7 12//7 13//7 14//7 15//7 16//7
f 1//8 11//8 12//8 2//8
f 2//9 12//9 13//9 7//9
f 7//10 13//10 14//10 6//10
f 6//11 14//11 15//11 10//11
f 10//12 15//12 16//12 9//12
f 9//13 16//13 11//13 1//13
