# Blender v2.92.0 OBJ File: ''
# www.blender.org
mtllib CG10_500_049072_0032.mtl
o CG10_500_049072_0032
v 29.669390 75.000000 -355.041656
v 261.613190 75.000000 -342.920502
v 194.458389 123.273903 -281.753113
v 152.639099 123.280411 -283.929840
v 123.506622 144.985077 -256.372589
v 254.730164 75.000000 -211.520782
v 210.578598 75.000000 -213.809341
v 116.274254 145.000000 -118.255295
v 12.467084 75.000000 -27.485035
v 200.333679 75.000000 -17.644117
v 29.669390 0.000000 -355.041656
v 261.613190 0.000000 -342.920502
v 254.730164 0.000000 -211.520782
v 210.578598 0.000000 -213.809341
v 200.333679 0.000000 -17.644117
v 12.467084 0.000000 -27.485035
vn 0.5769 -0.8162 0.0303
vn -0.0308 0.8082 0.5881
vn 0.6165 0.7867 0.0322
vn -0.0303 0.8114 0.5837
vn 0.6022 0.7977 0.0315
vn 0.0312 0.8010 -0.5979
vn 0.0000 -1.0000 0.0000
vn -0.0522 0.0000 0.9986
vn -0.9986 0.0000 -0.0523
vn 0.0518 0.0000 -0.9987
vn -0.9986 0.0000 -0.0522
vn 0.0523 0.0000 -0.9986
vn 0.9986 0.0000 0.0524
usemtl None
s off
f 9//1 1//1 5//1 8//1
f 9//2 10//2 8//2
f 10//3 7//3 4//3 5//3 8//3
f 7//4 6//4 3//4 4//4
f 6//5 2//5 3//5
f 2//6 1//6 5//6 4//6 3//6
f 11//7 12//7 13//7 14//7 15//7 16//7
f 1//8 11//8 12//8 2//8
f 2//9 12//9 13//9 6//9
f 6//10 13//10 14//10 7//10
f 7//11 14//11 15//11 10//11
f 10//12 15//12 16//12 9//12
f 9//13 16//13 11//13 1//13
