# Blender v2.92.0 OBJ File: ''
# www.blender.org
mtllib CG10_500_043074_0010.mtl
o CG10_500_043074_0010
v 286.137360 75.000000 -16.198431
v 16.522396 75.000000 -124.420868
v 321.917328 145.000000 -105.673447
v 52.218536 144.855820 -213.715668
v 358.366028 75.000000 -196.849518
v 234.156128 75.000000 -246.508102
v 204.146423 75.000000 -258.505859
v 88.601700 75.000000 -304.700134
v 208.760269 75.000000 -270.045593
v 238.769684 75.000000 -258.047150
v 286.137360 0.000000 -16.198431
v 16.522396 0.000000 -124.420868
v 88.601700 0.000000 -304.700134
v 204.146423 0.000000 -258.505859
v 208.760269 0.000000 -270.045593
v 238.769684 0.000000 -258.047150
v 234.156128 0.000000 -246.508102
v 358.366028 0.000000 -196.849518
vn 0.2155 0.8143 -0.5390
vn 0.0000 -1.0000 -0.0000
vn -0.2189 0.8091 0.5454
vn -0.9285 -0.0001 -0.3712
vn 0.9285 -0.0001 0.3712
vn 0.3725 0.0000 -0.9280
vn 0.9285 0.0000 0.3712
vn -0.3712 0.0000 0.9285
vn -0.9285 0.0000 -0.3712
usemtl None
s off
f 4//1 3//1 5//1 6//1 7//1 8//1
f 7//2 9//2 10//2 6//2
f 4//3 2//3 1//3 3//3
f 2//4 4//4 8//4
f 5//5 3//5 1//5
f 11//2 12//2 13//2 14//2 15//2 16//2 17//2 18//2
f 1//6 11//6 12//6 2//6
f 2//7 12//7 13//7 8//7
f 8//8 13//8 14//8 7//8
f 7//7 14//7 15//7 9//7
f 9//8 15//8 16//8 10//8
f 10//9 16//9 17//9 6//9
f 6//8 17//8 18//8 5//8
f 5//9 18//9 11//9 1//9
