# Blender v2.92.0 OBJ File: ''
# www.blender.org
mtllib CG10_500_049074_0013.mtl
o CG10_500_049074_0013
v 340.038086 75.000000 -245.320801
v 30.232529 75.000000 -262.960724
v 334.077698 145.000000 -145.238403
v 120.820572 144.894180 -157.532776
v 80.495583 117.267570 -122.792755
v 140.581039 75.000000 -62.540089
v 328.461548 75.000000 -51.583511
v 138.356445 75.000000 -11.480555
v 15.793221 75.000000 -18.798634
v 74.944366 117.851181 -15.253494
v 340.038086 0.000000 -245.320801
v 30.232529 0.000000 -262.960724
v 15.793221 0.000000 -18.798634
v 138.356445 0.000000 -11.480555
v 140.581039 0.000000 -62.540089
v 328.461548 0.000000 -51.583511
vn 0.5850 -0.8103 0.0346
vn 0.5587 0.8290 0.0243
vn -0.0348 0.8015 0.5970
vn 0.0325 0.8199 -0.5715
vn 0.0596 0.0003 -0.9982
vn -0.9982 0.0003 -0.0596
vn 0.0000 1.0000 0.0000
vn 0.0568 0.0000 -0.9984
vn -0.9983 0.0000 -0.0590
vn -0.0596 0.0000 0.9982
vn 0.9991 0.0000 0.0435
vn -0.0582 0.0000 0.9983
vn 0.9982 0.0000 0.0596
usemtl None
s off
f 9//1 2//1 4//1 5//1 10//1
f 10//2 8//2 6//2 5//2
f 6//3 7//3 3//3 4//3 5//3
f 4//4 3//4 1//4 2//4
f 9//5 10//5 8//5
f 7//6 3//6 1//6
f 11//7 12//7 13//7 14//7 15//7 16//7
f 1//8 11//8 12//8 2//8
f 2//9 12//9 13//9 9//9
f 9//10 13//10 14//10 8//10
f 8//11 14//11 15//11 6//11
f 6//12 15//12 16//12 7//12
f 7//13 16//13 11//13 1//13
