# Blender v2.92.0 OBJ File: ''
# www.blender.org
mtllib CG10_500_048071_0006.mtl
o CG10_500_048071_0006
v 21.704454 75.000000 -30.376354
v 32.875790 75.000000 -248.672562
v 135.609344 145.000000 -136.138611
v 249.639160 144.999130 -130.250443
v 255.538116 75.000000 -237.172333
v 256.401520 75.000000 -252.923080
v 306.874146 110.487434 -195.212875
v 306.068451 110.499458 -180.183487
v 353.443024 75.000000 -27.397936
v 352.704254 75.000000 -13.288553
v 359.666901 75.000000 -146.265793
v 364.960510 75.000000 -247.367218
v 407.263062 75.000000 -24.643650
v 413.346558 75.000000 -143.518906
v 21.704454 0.000000 -30.376354
v 32.875790 0.000000 -248.672562
v 255.538116 0.000000 -237.172333
v 256.401520 0.000000 -252.923080
v 364.960510 0.000000 -247.367218
v 359.666901 0.000000 -146.265793
v 413.346558 0.000000 -143.518906
v 407.263062 0.000000 -24.643650
v 353.443024 0.000000 -27.397936
v 352.704254 0.000000 -13.288553
vn -0.5419 0.8400 -0.0277
vn -0.0282 -0.8370 0.5464
vn -0.5515 0.8336 -0.0302
vn -0.0277 -0.8405 0.5411
vn -0.0274 0.8469 0.5310
vn 0.5395 0.8415 0.0282
vn 0.0000 1.0000 0.0000
vn 0.0000 -1.0000 0.0000
vn 0.9987 0.0000 0.0511
vn -0.0516 0.0000 0.9987
vn 0.9985 0.0000 0.0547
vn -0.0511 0.0000 0.9987
vn -0.9986 0.0000 -0.0523
vn -0.9987 0.0000 -0.0511
vn 0.0511 0.0000 -0.9987
vn 0.0516 0.0000 -0.9987
usemtl None
s off
f 3//1 2//1 1//1
f 2//2 5//2 8//2 4//2 3//2
f 5//3 8//3 7//3 6//3
f 7//4 6//4 12//4
f 1//5 10//5 4//5 3//5
f 10//6 9//6 11//6 12//6 7//6 8//6 4//6
f 9//7 13//7 14//7 11//7
f 15//8 16//8 17//8 18//8 19//8 20//8 21//8 22//8 23//8 24//8
f 1//9 15//9 16//9 2//9
f 2//10 16//10 17//10 5//10
f 5//11 17//11 18//11 6//11
f 6//12 18//12 19//12 12//12
f 12//13 19//13 20//13 11//13
f 11//12 20//12 21//12 14//12
f 14//14 21//14 22//14 13//14
f 13//15 22//15 23//15 9//15
f 9//13 23//13 24//13 10//13
f 10//16 24//16 15//16 1//16
