# Blender v2.92.0 OBJ File: ''
# www.blender.org
mtllib CG10_500_041069_0027.mtl
o CG10_500_041069_0027
v 386.489594 75.000000 -247.890594
v 30.469418 75.000000 -268.369293
v 191.009430 125.747490 -178.823807
v 313.596222 125.763115 -171.747757
v 163.420258 145.000000 -149.942490
v 140.408539 144.999847 -151.266373
v 177.722092 118.555580 -111.669334
v 255.070877 75.000000 -102.185463
v 377.698181 75.000000 -95.084602
v 175.702347 118.582108 -76.930252
v 251.869766 75.000000 -45.719978
v 231.903549 75.000000 -46.868828
v 102.521446 75.000000 -54.313431
v 18.432383 75.000000 -59.151901
v 100.514534 75.000000 -20.526453
v 229.973267 75.000000 -13.078238
v 386.489594 0.000000 -247.890594
v 30.469418 0.000000 -268.369293
v 18.432383 0.000000 -59.151901
v 102.521446 0.000000 -54.313431
v 100.514534 0.000000 -20.526453
v 229.973267 0.000000 -13.078238
v 231.903549 0.000000 -46.868828
v 251.869766 0.000000 -45.719978
v 255.070877 0.000000 -102.185463
v 377.698181 0.000000 -95.084602
vn -0.0335 0.8120 0.5827
vn 0.6009 0.7986 0.0343
vn 0.5184 -0.8546 0.0308
vn 0.5955 0.8027 0.0338
vn -0.0331 0.8204 0.5709
vn 0.5950 0.8030 0.0342
vn 0.0332 -0.8164 -0.5765
vn 0.5142 -0.8571 0.0296
vn -0.0307 -0.8450 0.5339
vn 0.0000 1.0000 0.0000
vn 0.0574 0.0000 -0.9983
vn -0.9983 0.0000 -0.0574
vn -0.0574 0.0000 0.9983
vn -0.9982 0.0000 -0.0593
vn 0.9984 0.0000 0.0570
vn 0.9984 0.0000 0.0566
vn -0.0578 0.0000 0.9983
vn 0.9983 0.0000 0.0574
usemtl None
s off
f 15//1 16//1 10//1
f 16//2 12//2 7//2 10//2
f 15//3 13//3 7//3 10//3
f 11//4 8//4 3//4 5//4
f 8//5 9//5 4//5 3//5
f 1//6 4//6 9//6
f 11//7 12//7 7//7 13//7 14//7 6//7 5//7
f 14//8 2//8 6//8
f 6//9 2//9 1//9 4//9 3//9 5//9
f 17//10 18//10 19//10 20//10 21//10 22//10 23//10 24//10 25//10 26//10
f 1//11 17//11 18//11 2//11
f 2//12 18//12 19//12 14//12
f 14//13 19//13 20//13 13//13
f 13//14 20//14 21//14 15//14
f 15//13 21//13 22//13 16//13
f 16//15 22//15 23//15 12//15
f 12//13 23//13 24//13 11//13
f 11//16 24//16 25//16 8//16
f 8//17 25//17 26//17 9//17
f 9//18 26//18 17//18 1//18
