# Blender v2.92.0 OBJ File: ''
# www.blender.org
mtllib CG10_500_035063_0019.mtl
o CG10_500_035063_0019
v 156.590622 75.000000 -12.548662
v 171.077240 75.000000 -259.810486
v 96.815346 145.000000 -264.023102
v 82.613129 144.730942 -16.727392
v 22.172340 75.000000 -268.240143
v 8.257969 75.000000 -20.944809
v 156.590622 0.000000 -12.548662
v 171.077240 0.000000 -259.810486
v 22.172340 0.000000 -268.240143
v 8.257969 0.000000 -20.944809
vn -0.6824 0.7300 -0.0384
vn 0.6842 0.7282 0.0401
vn -0.0565 0.0001 0.9984
vn 0.0565 0.0001 -0.9984
vn 0.0000 1.0000 0.0000
vn 0.9983 0.0000 0.0585
vn 0.0565 0.0000 -0.9984
vn -0.9984 0.0000 -0.0562
vn -0.0565 0.0000 0.9984
usemtl None
s off
f 4//1 3//1 5//1 6//1
f 4//2 1//2 2//2 3//2
f 2//3 3//3 5//3
f 6//4 4//4 1//4
f 7//5 8//5 9//5 10//5
f 1//6 7//6 8//6 2//6
f 2//7 8//7 9//7 5//7
f 5//8 9//8 10//8 6//8
f 6//9 10//9 7//9 1//9
