# Blender v2.92.0 OBJ File: ''
# www.blender.org
mtllib CG10_500_041067_0067_roof.mtl
o CG10_500_041067_0067_roof
v 32.925308 75.000000 -383.521149
v 12.964985 75.000000 -23.781719
v 65.863930 115.227440 -69.169899
v 69.664322 115.425041 -133.202988
v 115.342400 144.984604 -289.241943
v 108.487221 145.000000 -165.345261
v 115.188728 75.000000 -83.572983
v 111.075020 75.000000 -18.342972
v 133.454758 124.276581 -139.808853
v 209.080185 75.000000 -373.752167
v 199.383041 75.000000 -197.988495
v 215.496140 124.448570 -135.269073
v 271.790985 75.000000 -74.525696
v 278.406799 75.000000 -193.822952
v 32.925308 0.000000 -383.521149
v 12.964985 0.000000 -23.781719
v 111.075020 0.000000 -18.342972
v 115.188728 0.000000 -83.572983
v 271.790985 0.000000 -74.525696
v 278.406799 0.000000 -193.822952
v 199.383041 0.000000 -197.988495
v 209.080185 0.000000 -373.752167
vt 0.225560 0.828360
vt 0.380390 0.954480
vt 0.044401 0.940990
vt 0.395010 0.282280
vt 0.371530 0.589710
vt 0.238580 0.669470
vt 0.112760 0.048335
vt 0.457040 0.653080
vt 0.682820 0.508710
vt 0.716030 0.072575
vt 0.394480 0.792620
vt 0.930790 0.815070
vt 0.738000 0.664340
vt 0.953450 0.519050
vn 0.0354 -0.7680 -0.6394
vn 0.6236 -0.7810 0.0346
vn 0.6174 0.7859 0.0341
vn 0.0341 0.7880 -0.6147
vn -0.6385 -0.7685 -0.0403
vn -0.0376 0.7576 0.6516
vn -0.0329 -0.7807 0.6240
vn 0.6377 0.7695 0.0354
usemtl None
s off
f 3/1/1 8/2/1 2/3/1
f 5/4/2 6/5/2 4/6/2 3/1/2 2/3/2 1/7/2
f 9/8/3 11/9/3 10/10/3 5/4/3 6/5/3
f 10/10/4 1/7/4 5/4/4
f 7/11/5 8/2/5 3/1/5 4/6/5
f 13/12/6 12/13/6 9/8/6 6/5/6 4/6/6 7/11/6
f 14/14/7 12/13/7 9/8/7 11/9/7
f 13/12/8 14/14/8 12/13/8
