# Blender v2.92.0 OBJ File: ''
# www.blender.org
mtllib CG10_500_038058_0010_roof.mtl
o CG10_500_038058_0010_roof
v 23.779367 75.000000 -205.961365
v 17.031740 75.000000 -90.232864
v 76.907127 121.023819 -147.497055
v 124.932816 75.000000 -83.866272
v 121.053421 75.000000 -23.090593
v 186.042740 121.055321 -141.099243
v 213.969803 144.997696 -110.668259
v 269.415894 145.000000 -107.434357
v 363.161499 75.000000 -186.183777
v 352.863098 75.000000 -9.557500
v 23.779367 0.000000 -205.961365
v 17.031740 0.000000 -90.232864
v 124.932816 0.000000 -83.866272
v 121.053421 0.000000 -23.090593
v 352.863098 0.000000 -9.557500
v 363.161499 0.000000 -186.183777
vt 0.044820 0.582260
vt 0.062577 0.046475
vt 0.202390 0.317140
vt 0.328770 0.611730
vt 0.489590 0.346760
vt 0.955690 0.138040
vt 0.708990 0.502620
vt 0.563080 0.487650
vt 0.318560 0.893100
vt 0.928590 0.955750
vn 0.6309 -0.7750 0.0368
vn -0.0356 0.7968 0.6032
vn -0.0372 -0.7685 0.6388
vn 0.6249 -0.7797 0.0399
vn 0.6172 0.7860 0.0360
vn 0.0351 -0.7985 -0.6010
usemtl None
s off
f 2/1/1 1/2/1 3/3/1
f 4/4/2 6/5/2 3/3/2 2/1/2
f 9/6/3 8/7/3 7/8/3 6/5/3 3/3/3 1/2/3
f 5/9/4 4/4/4 6/5/4 7/8/4
f 10/10/5 9/6/5 8/7/5
f 5/9/6 7/8/6 8/7/6 10/10/6
