# Blender v2.92.0 OBJ File: ''
# www.blender.org
mtllib CG10_500_040064_0008.mtl
o CG10_500_040064_0008
v 33.488091 75.000000 -352.948029
v 131.265030 75.000000 -347.268585
v 129.775452 75.000000 -316.043335
v 301.169525 75.000000 -306.209900
v 81.640038 109.446335 -298.944641
v 80.078278 109.552681 -269.268738
v 237.455444 118.885712 -246.835068
v 222.058289 118.967422 -247.601105
v 183.337814 145.000000 -212.433670
v 129.638992 144.931793 -215.612473
v 125.919312 142.556473 -212.447556
v 293.972809 75.000000 -182.320343
v 279.837708 75.000000 -182.917389
v 120.182404 142.341324 -118.996986
v 213.053467 75.000000 -110.662834
v 275.169434 75.000000 -106.873146
v 78.677010 115.840233 -83.598145
v 207.084641 75.000000 -18.242081
v 134.039078 75.000000 -22.344378
v 133.928802 75.000000 -16.333927
v 14.379233 75.000000 -23.270880
v 76.283813 116.722298 -19.653866
v 33.488091 0.000000 -352.948029
v 131.265030 0.000000 -347.268585
v 129.775452 0.000000 -316.043335
v 301.169525 0.000000 -306.209900
v 293.972809 0.000000 -182.320343
v 279.837708 0.000000 -182.917389
v 275.169434 0.000000 -106.873146
v 213.053467 0.000000 -110.662834
v 207.084641 0.000000 -18.242081
v 134.039078 0.000000 -22.344378
v 133.928802 0.000000 -16.333927
v 14.379233 0.000000 -23.270880
vn -0.0323 0.8179 0.5745
vn 0.5859 0.8103 0.0107
vn 0.5844 0.8106 0.0377
vn -0.0350 0.8186 0.5733
vn 0.5796 0.8141 0.0356
vn -0.0244 0.8165 0.5768
vn 0.5883 0.8079 0.0342
vn -0.0328 -0.8202 0.5711
vn 0.5883 0.8082 0.0281
vn 0.0324 0.8293 -0.5579
vn 0.5573 -0.8297 0.0323
vn -0.0579 -0.0006 0.9983
vn 0.0000 -1.0000 0.0000
vn -0.0580 0.0000 0.9983
vn -0.9989 0.0000 -0.0477
vn -0.0573 0.0000 0.9984
vn -0.9983 0.0000 -0.0580
vn 0.0422 0.0000 -0.9991
vn -0.9981 0.0000 -0.0613
vn 0.0609 0.0000 -0.9981
vn -0.9979 0.0000 -0.0644
vn 0.0561 0.0000 -0.9984
vn -0.9998 0.0000 -0.0183
vn 0.0579 0.0000 -0.9983
vn 0.9983 0.0000 0.0579
usemtl None
s off
f 17//1 19//1 18//1 14//1
f 22//2 20//2 19//2 17//2
f 14//3 18//3 15//3 11//3
f 11//4 15//4 16//4 9//4 10//4
f 9//5 16//5 13//5 8//5
f 8//6 13//6 12//6 7//6
f 12//7 4//7 7//7
f 4//8 7//8 8//8 9//8 10//8 6//8 3//8
f 6//9 3//9 2//9 5//9
f 5//10 2//10 1//10
f 1//11 5//11 6//11 10//11 11//11 14//11 17//11 22//11 21//11
f 20//12 22//12 21//12
f 23//13 24//13 25//13 26//13 27//13 28//13 29//13 30//13 31//13 32//13 33//13 34//13
f 1//14 23//14 24//14 2//14
f 2//15 24//15 25//15 3//15
f 3//16 25//16 26//16 4//16
f 4//17 26//17 27//17 12//17
f 12//18 27//18 28//18 13//18
f 13//19 28//19 29//19 16//19
f 16//20 29//20 30//20 15//20
f 15//21 30//21 31//21 18//21
f 18//22 31//22 32//22 19//22
f 19//23 32//23 33//23 20//23
f 20//24 33//24 34//24 21//24
f 21//25 34//25 23//25 1//25
