# Blender v2.92.0 OBJ File: ''
# www.blender.org
mtllib CG10_500_039067_0051.mtl
o CG10_500_039067_0051
v 197.056488 75.000000 -12.607922
v 17.429148 75.000000 -18.600296
v 108.262062 145.000000 -101.951630
v 354.331665 81.670792 -109.599548
v 362.410706 75.000000 -106.707191
v 200.219818 75.000000 -111.941505
v 110.042236 144.967941 -156.534637
v 299.682434 127.981773 -172.232086
v 136.113800 125.641586 -180.735809
v 366.873413 75.000000 -238.720978
v 25.151699 75.000000 -250.143997
v 197.056488 0.000000 -12.607922
v 17.429148 0.000000 -18.600296
v 25.151699 0.000000 -250.143997
v 366.873413 0.000000 -238.720978
v 362.410706 0.000000 -106.707191
v 200.219818 0.000000 -111.941505
vn -0.0210 0.7768 0.6295
vn 0.6222 -0.7826 0.0208
vn -0.0204 -0.7919 0.6104
vn 0.6320 0.7747 0.0214
vn -0.6069 -0.7945 -0.0193
vn 0.0434 -0.7849 -0.6182
vn -0.0300 0.3668 0.9298
vn 0.0000 -1.0000 0.0000
vn 0.0333 0.0000 -0.9994
vn 0.9994 0.0000 0.0333
vn -0.0334 0.0000 0.9994
vn -0.9994 0.0000 -0.0338
vn 0.0323 0.0000 -0.9995
vn -0.9995 0.0000 -0.0318
usemtl None
s off
f 2//1 1//1 3//1
f 11//2 7//2 3//2 2//2
f 9//3 7//3 11//3 10//3 8//3
f 4//4 5//4 10//4 8//4
f 6//5 1//5 3//5 7//5 9//5
f 6//6 9//6 8//6 4//6
f 5//7 4//7 6//7
f 12//8 13//8 14//8 15//8 16//8 17//8
f 1//9 12//9 13//9 2//9
f 2//10 13//10 14//10 11//10
f 11//11 14//11 15//11 10//11
f 10//12 15//12 16//12 5//12
f 5//13 16//13 17//13 6//13
f 6//14 17//14 12//14 1//14
