# Blender v2.92.0 OBJ File: ''
# www.blender.org
mtllib CG10_500_043070_0025.mtl
o CG10_500_043070_0025
v 308.533539 75.000000 -179.587509
v 240.842087 75.000000 -14.937541
v 185.780746 144.993576 -134.950974
v 213.046066 75.000000 -218.854721
v 229.673599 75.000000 -259.298096
v 124.274147 145.000000 -160.235550
v 131.669312 129.742126 -225.511139
v 114.944992 129.737015 -184.813217
v 13.822549 75.000000 -108.229401
v 98.098679 75.000000 -313.391602
v 308.533539 0.000000 -179.587509
v 240.842087 0.000000 -14.937541
v 13.822549 0.000000 -108.229401
v 98.098679 0.000000 -313.391602
v 229.673599 0.000000 -259.298096
v 213.046066 0.000000 -218.854721
vn 0.5322 0.8178 0.2188
vn 0.2374 0.7813 -0.5773
vn 0.2368 0.7825 -0.5758
vn 0.5428 0.8097 0.2232
vn -0.5988 0.7621 -0.2460
vn -0.2332 0.7896 0.5675
vn 0.0000 -1.0000 0.0000
vn -0.9249 0.0000 -0.3802
vn 0.3801 0.0000 -0.9249
vn 0.9250 0.0000 0.3800
vn -0.3802 0.0000 0.9249
vn -0.3803 0.0000 0.9249
usemtl None
s off
f 4//1 5//1 7//1 8//1
f 5//2 10//2 7//2
f 1//3 4//3 8//3 6//3 3//3
f 2//4 1//4 3//4
f 10//5 9//5 6//5 8//5 7//5
f 9//6 2//6 3//6 6//6
f 11//7 12//7 13//7 14//7 15//7 16//7
f 1//8 11//8 12//8 2//8
f 2//9 12//9 13//9 9//9
f 9//10 13//10 14//10 10//10
f 10//11 14//11 15//11 5//11
f 5//8 15//8 16//8 4//8
f 4//12 16//12 11//12 1//12
