# Blender v2.92.0 OBJ File: ''
# www.blender.org
mtllib CG10_500_045073_0049.mtl
o CG10_500_045073_0049
v 93.444176 75.000000 -337.945190
v 15.276740 75.000000 -151.989105
v 153.686615 144.997803 -208.256531
v 172.371979 75.000000 -85.920410
v 212.791458 145.000000 -183.402740
v 158.369659 75.000000 -52.649036
v 238.935120 107.854263 -111.657738
v 224.269638 107.853241 -76.814697
v 248.060196 75.000000 -14.947328
v 340.329529 75.000000 -234.142700
v 93.444176 0.000000 -337.945190
v 15.276740 0.000000 -151.989105
v 172.371979 0.000000 -85.920410
v 158.369659 0.000000 -52.649036
v 248.060196 0.000000 -14.947328
v 340.329529 0.000000 -234.142700
vn 0.5087 -0.8340 0.2138
vn -0.2143 0.8333 0.5095
vn 0.4966 -0.8424 0.2090
vn 0.2194 -0.8242 -0.5221
vn 0.5362 0.8133 0.2257
vn 0.2280 0.8086 -0.5424
vn 0.0000 1.0000 0.0000
vn -0.9219 0.0000 -0.3875
vn -0.3877 0.0000 0.9218
vn -0.9217 0.0000 -0.3879
vn -0.3875 0.0000 0.9219
vn 0.9217 0.0000 0.3880
vn 0.3876 0.0000 -0.9218
usemtl None
s off
f 2//1 1//1 3//1
f 2//2 4//2 7//2 5//2 3//2
f 7//3 8//3 6//3 4//3
f 8//4 9//4 6//4
f 9//5 10//5 5//5 7//5 8//5
f 10//6 1//6 3//6 5//6
f 11//7 12//7 13//7 14//7 15//7 16//7
f 1//8 11//8 12//8 2//8
f 2//9 12//9 13//9 4//9
f 4//10 13//10 14//10 6//10
f 6//11 14//11 15//11 9//11
f 9//12 15//12 16//12 10//12
f 10//13 16//13 11//13 1//13
