# Blender v2.92.0 OBJ File: ''
# www.blender.org
mtllib CG10_500_043069_0049.mtl
o CG10_500_043069_0049
v 222.619705 75.000000 -325.810883
v 305.409454 75.000000 -290.439148
v 249.922607 111.401756 -265.520081
v 198.499893 75.000000 -267.801727
v 119.675430 75.000000 -300.849670
v 225.015518 111.142494 -206.514496
v 172.619934 144.996918 -181.487686
v 149.705750 145.000000 -127.899315
v 98.009193 115.379951 -109.917595
v 85.358147 115.861473 -78.664345
v 120.311386 75.000000 -45.474564
v 188.191269 75.000000 -16.260927
v 108.553162 75.000000 -15.073614
v 14.613130 75.000000 -55.194324
v 222.619705 0.000000 -325.810883
v 305.409454 0.000000 -290.439148
v 188.191269 0.000000 -16.260927
v 120.311386 0.000000 -45.474564
v 108.553162 0.000000 -15.073614
v 14.613130 0.000000 -55.194324
v 119.675430 0.000000 -300.849670
v 198.499893 0.000000 -267.801727
vn 0.2480 0.7755 -0.5806
vn 0.5553 -0.7989 0.2309
vn 0.2380 0.7881 -0.5677
vn 0.2504 -0.7704 -0.5864
vn -0.6303 -0.7371 -0.2438
vn -0.5431 0.8069 -0.2323
vn -0.2472 0.7803 0.5745
vn 0.6086 0.7496 0.2602
vn 0.0000 -1.0000 0.0000
vn -0.3929 0.0000 0.9196
vn -0.9195 0.0000 -0.3931
vn 0.3953 0.0000 -0.9185
vn -0.9327 0.0000 -0.3607
vn 0.3928 0.0000 -0.9196
vn 0.9194 0.0000 0.3932
vn -0.3867 0.0000 0.9222
vn 0.9234 0.0000 0.3839
usemtl None
s off
f 2//1 1//1 3//1
f 3//2 6//2 4//2 1//2
f 4//3 5//3 7//3 6//3
f 10//4 13//4 14//4
f 10//5 9//5 11//5 13//5
f 5//6 14//6 10//6 9//6 8//6 7//6
f 12//7 8//7 9//7 11//7
f 12//8 2//8 3//8 6//8 7//8 8//8
f 15//9 16//9 17//9 18//9 19//9 20//9 21//9 22//9
f 1//10 15//10 16//10 2//10
f 2//11 16//11 17//11 12//11
f 12//12 17//12 18//12 11//12
f 11//13 18//13 19//13 13//13
f 13//14 19//14 20//14 14//14
f 14//15 20//15 21//15 5//15
f 5//16 21//16 22//16 4//16
f 4//17 22//17 15//17 1//17
