# Blender v2.92.0 OBJ File: ''
# www.blender.org
mtllib CG10_500_041069_0025.mtl
o CG10_500_041069_0025
v 229.029541 75.000000 -104.880280
v 234.342331 75.000000 -196.763382
v 210.980164 75.000000 -288.000153
v 205.799805 75.000000 -198.536484
v 195.286240 75.000000 -16.968985
v 200.471680 75.000000 -106.520813
v 191.123413 111.319756 -152.206787
v 160.499496 111.376045 -154.035965
v 130.569565 75.000000 -292.663940
v 134.099503 75.000000 -350.306274
v 123.517639 145.000000 -197.372055
v 118.492661 144.997070 -110.532249
v 85.202103 114.589645 -300.912628
v 81.652786 114.511879 -241.482239
v 30.729227 75.000000 -356.284027
v 11.725138 75.000000 -27.583412
v 229.029541 0.000000 -104.880280
v 234.342331 0.000000 -196.763382
v 205.799805 0.000000 -198.536484
v 210.980164 0.000000 -288.000153
v 130.569565 0.000000 -292.663940
v 134.099503 0.000000 -350.306274
v 30.729227 0.000000 -356.284027
v 11.725138 0.000000 -27.583412
v 195.286240 0.000000 -16.968985
v 200.471680 0.000000 -106.520813
vn -0.6658 -0.7451 -0.0385
vn -0.0360 0.7787 0.6264
vn 0.0378 0.7922 -0.6091
vn 0.6478 0.7609 0.0375
vn -0.0342 -0.8067 0.5900
vn -0.6528 -0.7564 -0.0400
vn 0.0349 0.7964 -0.6038
vn 0.0357 -0.7859 -0.6173
vn -0.5656 0.8240 -0.0327
vn 0.0000 1.0000 0.0000
vn 0.9983 0.0000 0.0577
vn 0.0620 0.0000 -0.9981
vn 0.9983 0.0000 0.0578
vn 0.0579 0.0000 -0.9983
vn 0.9981 0.0000 0.0611
vn 0.0577 0.0000 -0.9983
vn -0.9983 0.0000 -0.0577
vn -0.0577 0.0000 0.9983
vn -0.0574 0.0000 0.9984
usemtl None
s off
f 1//1 7//1 2//1
f 1//2 7//2 8//2 6//2
f 2//3 4//3 8//3 7//3
f 5//4 6//4 8//4 4//4 3//4 11//4 12//4
f 11//5 14//5 9//5 3//5
f 14//6 13//6 10//6 9//6
f 10//7 15//7 13//7
f 5//8 16//8 12//8
f 15//9 16//9 12//9 11//9 14//9 13//9
f 17//10 18//10 19//10 20//10 21//10 22//10 23//10 24//10 25//10 26//10
f 1//11 17//11 18//11 2//11
f 2//12 18//12 19//12 4//12
f 4//13 19//13 20//13 3//13
f 3//14 20//14 21//14 9//14
f 9//15 21//15 22//15 10//15
f 10//16 22//16 23//16 15//16
f 15//17 23//17 24//17 16//17
f 16//18 24//18 25//18 5//18
f 5//13 25//13 26//13 6//13
f 6//19 26//19 17//19 1//19
