# Blender v2.92.0 OBJ File: ''
# www.blender.org
mtllib CG10_500_042065_0018.mtl
o CG10_500_042065_0018
v 206.386414 75.000000 -16.568859
v 224.541748 75.000000 -354.757507
v 118.714897 144.491669 -360.497528
v 99.780174 145.000000 -22.253054
v 29.921221 75.000000 -365.219757
v 10.343070 75.000000 -27.115032
v 206.386414 0.000000 -16.568859
v 224.541748 0.000000 -354.757507
v 29.921221 0.000000 -365.219757
v 10.343070 0.000000 -27.115032
vn -0.5475 -0.8363 -0.0294
vn -0.6147 0.7879 -0.0356
vn -0.0537 0.0007 0.9986
vn 0.0537 0.0007 -0.9986
vn 0.0000 1.0000 0.0000
vn 0.9986 0.0000 0.0536
vn 0.0537 0.0000 -0.9986
vn -0.9983 0.0000 -0.0578
vn -0.0537 0.0000 0.9986
usemtl None
s off
f 4//1 3//1 2//1 1//1
f 4//2 3//2 5//2 6//2
f 2//3 3//3 5//3
f 6//4 4//4 1//4
f 7//5 8//5 9//5 10//5
f 1//6 7//6 8//6 2//6
f 2//7 8//7 9//7 5//7
f 5//8 9//8 10//8 6//8
f 6//9 10//9 7//9 1//9
