# Blender v2.92.0 OBJ File: ''
# www.blender.org
mtllib CG10_500_049074_0082_roof.mtl
o CG10_500_049074_0082_roof
v 336.122070 75.000000 -9.380554
v 16.446339 75.000000 -27.982073
v 102.684868 144.999954 -104.468102
v 255.602493 145.000000 -95.570206
v 345.846619 75.000000 -176.502609
v 26.170900 75.000000 -195.103348
v 336.122070 0.000000 -9.380554
v 16.446339 0.000000 -27.982073
v 26.170900 0.000000 -195.103348
v 345.846619 0.000000 -176.502609
vt 0.045432 0.863500
vt 0.072295 0.048276
vt 0.283660 0.490400
vt 0.928510 0.954240
vt 0.706080 0.533800
vt 0.955380 0.139010
vn 0.6498 -0.7592 0.0378
vn -0.0379 0.7581 0.6511
vn 0.6329 0.7734 0.0368
vn 0.0367 0.7757 -0.6300
usemtl None
s off
f 2/1/1 6/2/1 3/3/1
f 2/1/2 1/4/2 4/5/2 3/3/2
f 1/4/3 5/6/3 4/5/3
f 5/6/4 6/2/4 3/3/4 4/5/4
