# Blender v2.92.0 OBJ File: ''
# www.blender.org
mtllib CG10_500_038067_0019.mtl
o CG10_500_038067_0019
v 241.321167 75.000000 -135.692902
v 234.871445 75.000000 -14.516923
v 182.759628 75.000000 -138.326935
v 179.640594 126.656967 -76.017311
v 191.983551 75.000000 -303.994934
v 117.512291 126.433205 -79.082283
v 103.214676 145.000000 -223.938354
v 96.541504 144.861633 -101.090012
v 27.368151 75.000000 -312.760162
v 12.184795 75.000000 -26.411762
v 241.321167 0.000000 -135.692902
v 234.871445 0.000000 -14.516923
v 12.184795 0.000000 -26.411762
v 27.368151 0.000000 -312.760162
v 191.983551 0.000000 -303.994934
v 182.759628 0.000000 -138.326935
vn -0.6555 0.7544 -0.0348
vn 0.0353 -0.7494 -0.6612
vn -0.0287 -0.7702 0.6371
vn 0.6615 0.7491 0.0352
vn -0.6384 -0.7689 -0.0355
vn -0.0339 -0.7707 0.6363
vn 0.0000 -1.0000 0.0000
vn -0.9986 0.0000 -0.0532
vn 0.0533 0.0000 -0.9986
vn 0.9986 0.0000 0.0529
vn -0.0532 0.0000 0.9986
vn -0.9985 0.0000 -0.0556
vn -0.0449 0.0000 0.9990
usemtl None
s off
f 10//1 8//1 7//1 9//1
f 10//2 8//2 6//2 4//2 2//2
f 4//3 6//3 3//3 1//3
f 1//4 4//4 2//4
f 3//5 6//5 8//5 7//5 5//5
f 7//6 9//6 5//6
f 11//7 12//7 13//7 14//7 15//7 16//7
f 1//8 11//8 12//8 2//8
f 2//9 12//9 13//9 10//9
f 10//10 13//10 14//10 9//10
f 9//11 14//11 15//11 5//11
f 5//12 15//12 16//12 3//12
f 3//13 16//13 11//13 1//13
