# Blender v2.92.0 OBJ File: ''
# www.blender.org
mtllib CG10_500_044068_0059_roof.mtl
o CG10_500_044068_0059_roof
v 129.601013 75.000000 -350.490936
v 22.520687 75.000000 -93.054138
v 123.751389 113.364372 -161.810593
v 107.908920 113.440552 -123.376274
v 195.043671 145.000000 -189.216873
v 142.133331 75.000000 -43.519005
v 156.703094 75.000000 -79.163841
v 243.267136 144.986023 -169.236679
v 288.901794 124.217705 -190.096817
v 333.110077 75.000000 -83.560188
v 305.984619 75.000000 -17.390600
v 380.215912 124.167130 -152.309311
v 427.919495 75.000000 -44.420467
v 492.346893 75.000000 -199.994888
v 129.601013 0.000000 -350.490936
v 22.520687 0.000000 -93.054138
v 142.133331 0.000000 -43.519005
v 156.703094 0.000000 -79.163841
v 305.984619 0.000000 -17.390600
v 333.110077 0.000000 -83.560188
v 427.919495 0.000000 -44.420467
v 492.346893 0.000000 -199.994888
vt 0.251160 0.044984
vt 0.377990 0.484420
vt 0.471450 0.538860
vt 0.559890 0.482030
vt 0.736850 0.584990
vt 0.954160 0.455050
vt 0.829300 0.878960
vt 0.645560 0.772320
vt 0.239830 0.559100
vt 0.303690 0.784290
vt 0.592990 0.952610
vt 0.209130 0.663820
vt 0.275450 0.881420
vt 0.043645 0.746450
vn 0.1885 0.8706 -0.4544
vn -0.4612 -0.8665 -0.1910
vn 0.1971 -0.8563 -0.4774
vn -0.1971 0.8569 0.4764
vn 0.4884 0.8495 0.1996
vn 0.2047 -0.8448 -0.4944
vn -0.4585 0.8680 -0.1907
vn -0.4791 -0.8555 -0.1964
usemtl None
s off
f 1/1/1 5/2/1 8/3/1 9/4/1 12/5/1 14/6/1
f 14/6/2 13/7/2 12/5/2
f 13/7/3 10/8/3 9/4/3 12/5/3
f 3/9/4 7/10/4 11/11/4 8/3/4 5/2/4
f 3/9/5 4/12/5 6/13/5 7/10/5
f 4/12/6 6/13/6 2/14/6
f 2/14/7 4/12/7 3/9/7 5/2/7 1/1/7
f 10/8/8 11/11/8 8/3/8 9/4/8
