# Blender v2.92.0 OBJ File: ''
# www.blender.org
mtllib CG10_500_039064_0025_roof.mtl
o CG10_500_039064_0025_roof
v 348.992676 75.000000 -191.620514
v 343.328217 145.000000 -104.009727
v 338.031158 75.000000 -22.226473
v 205.260818 75.000000 -30.834433
v 203.904099 75.000000 -9.868937
v 111.368179 75.000000 -15.857126
v 112.725624 75.000000 -36.833817
v 15.722859 75.000000 -43.122841
v 20.996912 144.820190 -124.696617
v 26.656866 75.000000 -212.081726
v 348.992676 0.000000 -191.620514
v 338.031158 0.000000 -22.226473
v 205.260818 0.000000 -30.834433
v 203.904099 0.000000 -9.868937
v 111.368179 0.000000 -15.857126
v 112.725624 0.000000 -36.833817
v 15.722859 0.000000 -43.122841
v 26.656866 0.000000 -212.081726
vt 0.042725 0.806620
vt 0.057057 0.440820
vt 0.932960 0.533590
vt 0.918560 0.900330
vt 0.557770 0.861730
vt 0.306320 0.834830
vt 0.302630 0.928890
vt 0.554090 0.955740
vt 0.072437 0.048961
vt 0.948350 0.140720
vn 0.0420 -0.7604 -0.6481
vn 0.0000 1.0000 0.0000
vn -0.0395 -0.7819 0.6222
vn 0.9979 -0.0001 0.0646
vn -0.9979 -0.0001 -0.0646
usemtl None
s off
f 8/1/1 9/2/1 2/3/1 3/4/1 4/5/1 7/6/1
f 7/6/2 6/7/2 5/8/2 4/5/2
f 9/2/3 10/9/3 1/10/3 2/3/3
f 1/10/4 2/3/4 3/4/4
f 8/1/5 9/2/5 10/9/5
