# Blender v2.92.0 OBJ File: ''
# www.blender.org
mtllib CG10_500_043073_0001.mtl
o CG10_500_043073_0001
v 238.852829 75.000000 -15.541635
v 15.420910 75.000000 -116.144363
v 202.479034 145.000000 -139.639130
v 147.174728 144.954376 -164.470291
v 133.880661 128.444595 -192.596741
v 152.359665 128.285385 -234.190384
v 314.474335 75.000000 -183.486755
v 220.879700 75.000000 -225.406235
v 238.984009 75.000000 -266.639008
v 109.452118 75.000000 -324.966644
v 238.852829 0.000000 -15.541635
v 15.420910 0.000000 -116.144363
v 109.452118 0.000000 -324.966644
v 238.984009 0.000000 -266.639008
v 220.879700 0.000000 -225.406235
v 314.474335 0.000000 -183.486755
vn -0.2383 0.8144 0.5292
vn 0.5216 -0.8202 0.2349
vn 0.2584 0.7748 -0.5769
vn -0.5738 -0.7793 -0.2519
vn 0.2599 0.7741 -0.5773
vn 0.5833 0.7687 0.2626
vn 0.0000 -1.0000 0.0000
vn 0.4106 0.0000 -0.9118
vn 0.9118 0.0000 0.4106
vn -0.4106 0.0000 0.9118
vn -0.9156 0.0000 -0.4020
vn -0.4088 0.0000 0.9126
vn -0.9118 0.0000 -0.4106
usemtl None
s off
f 2//1 1//1 3//1 4//1
f 2//2 10//2 6//2 5//2 4//2
f 4//3 3//3 7//3 8//3 5//3
f 5//4 6//4 9//4 8//4
f 6//5 9//5 10//5
f 1//6 7//6 3//6
f 11//7 12//7 13//7 14//7 15//7 16//7
f 1//8 11//8 12//8 2//8
f 2//9 12//9 13//9 10//9
f 10//10 13//10 14//10 9//10
f 9//11 14//11 15//11 8//11
f 8//12 15//12 16//12 7//12
f 7//13 16//13 11//13 1//13
