# Blender v2.92.0 OBJ File: ''
# www.blender.org
mtllib CG10_500_039058_0025_roof.mtl
o CG10_500_039058_0025_roof
v 284.862915 75.000000 -60.939823
v 78.112389 75.000000 -16.906462
v 260.964020 75.000000 -55.849365
v 169.532776 144.449753 -36.377003
v 228.533447 75.000000 -211.755051
v 251.692276 75.000000 -216.685272
v 197.804504 75.000000 -359.480377
v 13.504050 75.000000 -320.229553
v 105.648506 145.000000 -339.855469
v 284.862915 0.000000 -60.939823
v 260.964020 0.000000 -55.849365
v 78.112389 0.000000 -16.906462
v 13.504050 0.000000 -320.229553
v 197.804504 0.000000 -359.480377
v 228.533447 0.000000 -211.755051
v 251.692276 0.000000 -216.685272
vt 0.263000 0.955160
vt 0.045468 0.150580
vt 0.355720 0.098527
vt 0.570820 0.903510
vt 0.878670 0.851860
vt 0.769470 0.438320
vt 0.666010 0.046471
vt 0.959130 0.838360
vt 0.847450 0.425240
vn 0.5833 -0.8027 -0.1242
vn 0.5839 0.8027 -0.1215
vn 0.0000 1.0000 0.0000
vn 0.2083 0.0000 0.9781
vn -0.2083 -0.0000 -0.9781
usemtl None
s off
f 2/1/1 8/2/1 9/3/1 4/4/1
f 4/4/2 3/5/2 5/6/2 7/7/2 9/3/2
f 3/5/3 1/8/3 6/9/3 5/6/3
f 3/5/4 4/4/4 2/1/4
f 8/2/5 9/3/5 7/7/5
