# Blender v2.92.0 OBJ File: ''
# www.blender.org
mtllib CG10_500_042068_0042_roof.mtl
o CG10_500_042068_0042_roof
v 29.236555 75.000000 -263.690125
v 11.548111 75.000000 -18.855099
v 60.602856 75.000000 -261.416931
v 69.767540 75.000000 -270.861176
v 61.483963 108.925110 -102.461868
v 58.171021 108.980827 -55.607677
v 86.066513 122.535599 -198.964767
v 84.583061 122.825218 -173.244690
v 107.198601 75.000000 -268.151123
v 96.654228 75.000000 -58.385517
v 93.500526 75.000000 -12.921833
v 116.524765 75.000000 -257.364136
v 110.980545 144.913406 -143.037735
v 146.245636 75.000000 -255.210190
v 145.172165 75.000000 -230.817612
v 157.309158 145.000000 -139.844986
v 246.162964 75.000000 -224.100906
v 233.461121 75.000000 -48.644146
v 29.236555 0.000000 -263.690125
v 11.548111 0.000000 -18.855099
v 93.500526 0.000000 -12.921833
v 96.654228 0.000000 -58.385517
v 233.461121 0.000000 -48.644146
v 246.162964 0.000000 -224.100906
v 145.172165 0.000000 -230.817612
v 146.245636 0.000000 -255.210190
v 116.524765 0.000000 -257.364136
v 107.198601 0.000000 -268.151123
v 69.767540 0.000000 -270.861176
v 60.602856 0.000000 -261.416931
vt 0.044760 0.933370
vt 0.362410 0.954340
vt 0.225470 0.803510
vt 0.374630 0.793690
vt 0.238310 0.637940
vt 0.904890 0.828110
vt 0.609730 0.505850
vt 0.430160 0.494570
vt 0.954120 0.208120
vt 0.327840 0.387830
vt 0.562680 0.184390
vt 0.333590 0.296940
vt 0.566840 0.098197
vt 0.113320 0.068233
vt 0.451650 0.090586
vt 0.234890 0.076265
vt 0.415500 0.052470
vt 0.270420 0.042893
vn -0.0467 0.7623 0.6455
vn 0.6631 0.7472 0.0460
vn -0.0450 0.7740 0.6316
vn 0.6451 0.7627 0.0467
vn 0.0408 0.7892 -0.6127
vn 0.6356 0.7715 0.0280
vn 0.0447 0.7861 -0.6165
vn 0.0000 1.0000 0.0000
vn -0.6109 0.7905 -0.0441
usemtl None
s off
f 2/1/1 11/2/1 6/3/1
f 11/2/2 10/4/2 5/5/2 6/3/2
f 10/4/3 18/6/3 16/7/3 13/8/3 5/5/3
f 16/7/4 18/6/4 17/9/4
f 8/10/5 13/8/5 16/7/5 17/9/5 15/11/5
f 7/12/6 8/10/6 15/11/6 14/13/6
f 1/14/7 7/12/7 14/13/7 12/15/7 3/16/7
f 3/16/8 12/15/8 9/17/8 4/18/8
f 2/1/9 6/3/9 5/5/9 13/8/9 8/10/9 7/12/9 1/14/9
