# Blender v2.92.0 OBJ File: ''
# www.blender.org
mtllib CG10_500_042061_0030.mtl
o CG10_500_042061_0030
v 205.585068 75.000000 -13.499498
v 15.188176 75.000000 -24.385052
v 116.743698 145.000000 -113.848328
v 280.356628 75.000000 -126.278091
v 212.254959 75.000000 -130.171753
v 120.615616 144.998383 -181.539261
v 145.584259 127.471252 -204.059875
v 215.757202 127.472038 -200.048843
v 288.435730 75.000000 -267.588562
v 29.952730 75.000000 -282.359314
v 205.585068 0.000000 -13.499498
v 15.188176 0.000000 -24.385052
v 29.952730 0.000000 -282.359314
v 288.435730 0.000000 -267.588562
v 280.356628 0.000000 -126.278091
v 212.254959 0.000000 -130.171753
vn -0.0338 0.8054 0.5918
vn -0.5871 0.8088 -0.0336
vn 0.5946 0.8033 0.0340
vn -0.0342 0.8000 0.5990
vn -0.6060 -0.7947 -0.0346
vn 0.0337 0.8065 -0.5903
vn 0.0000 -1.0000 0.0000
vn 0.0571 0.0000 -0.9984
vn 0.9984 0.0000 0.0571
vn -0.0571 0.0000 0.9984
vn -0.9984 0.0000 -0.0571
usemtl None
s off
f 2//1 1//1 3//1
f 10//2 2//2 3//2 6//2
f 1//3 5//3 7//3 6//3 3//3
f 5//4 4//4 8//4 7//4
f 9//5 4//5 8//5
f 10//6 6//6 7//6 8//6 9//6
f 11//7 12//7 13//7 14//7 15//7 16//7
f 1//8 11//8 12//8 2//8
f 2//9 12//9 13//9 10//9
f 10//10 13//10 14//10 9//10
f 9//11 14//11 15//11 4//11
f 4//8 15//8 16//8 5//8
f 5//11 16//11 11//11 1//11
