# Blender v2.92.0 OBJ File: ''
# www.blender.org
mtllib CG10_500_043075_0006_roof.mtl
o CG10_500_043075_0006_roof
v 75.537262 75.000000 -314.133789
v 23.172022 75.000000 -188.213959
v 113.396988 133.383911 -219.533875
v 117.736671 75.000000 -116.795898
v 129.110352 75.000000 -143.388641
v 123.237877 75.000000 -114.507446
v 218.879028 133.690018 -175.266006
v 225.787338 144.998291 -157.119690
v 244.101730 145.000000 -149.503143
v 263.104462 132.813812 -158.062714
v 290.255005 75.000000 -45.029896
v 300.785309 75.000000 -70.709740
v 399.734802 132.831924 -101.233864
v 437.988251 75.000000 -13.620170
v 491.111847 75.000000 -141.357697
v 75.537262 0.000000 -314.133789
v 23.172022 0.000000 -188.213959
v 129.110352 0.000000 -143.388641
v 117.736671 0.000000 -116.795898
v 123.237877 0.000000 -114.507446
v 290.255005 0.000000 -45.029896
v 300.785309 0.000000 -70.709740
v 437.988251 0.000000 -13.620170
v 491.111847 0.000000 -141.357697
vt 0.473980 0.545580
vt 0.563600 0.863130
vt 0.584050 0.785080
vt 0.510880 0.519570
vt 0.776180 0.692300
vt 0.850460 0.958600
vt 0.953620 0.570340
vt 0.239300 0.651950
vt 0.228610 0.645000
vt 0.438420 0.522430
vt 0.250700 0.564170
vt 0.425010 0.467280
vt 0.044994 0.427920
vt 0.220190 0.332720
vt 0.146670 0.045186
vn 0.5993 0.7619 0.2457
vn 0.2528 -0.7531 -0.6074
vn 0.5933 0.7662 0.2467
vn 0.2552 -0.7473 -0.6135
vn 0.5907 -0.7663 0.2527
vn -0.2626 0.7388 0.6207
vn -0.5851 0.7736 -0.2433
vn -0.2401 -0.7802 0.5776
usemtl None
s off
f 9/1/1 11/2/1 12/3/1 10/4/1
f 10/4/2 13/5/2 14/6/2 12/3/2
f 13/5/3 14/6/3 15/7/3
f 9/1/4 11/2/4 6/8/4 4/9/4 8/10/4
f 4/9/5 5/11/5 7/12/5 8/10/5
f 2/13/6 5/11/6 7/12/6 3/14/6
f 1/15/7 2/13/7 3/14/7
f 1/15/8 15/7/8 13/5/8 10/4/8 9/1/8 8/10/8 7/12/8 3/14/8
