# Blender v2.92.0 OBJ File: ''
# www.blender.org
mtllib CG10_500_040065_0032.mtl
o CG10_500_040065_0032
v 122.225769 75.000000 -16.854750
v 12.186612 75.000000 -23.577316
v 72.416779 118.671387 -19.893055
v 260.102142 75.000000 -61.626118
v 125.110146 75.000000 -69.830910
v 78.645866 118.386810 -128.319000
v 191.232925 137.999863 -146.638947
v 122.183922 138.168777 -151.052444
v 117.428711 145.000000 -160.105728
v 101.458992 132.811493 -174.890198
v 200.108414 75.000000 -226.667572
v 269.899078 75.000000 -221.988174
v 172.102737 75.000000 -241.975937
v 203.232834 75.000000 -241.329727
v 32.347847 75.000000 -353.638184
v 178.072052 75.000000 -344.733490
v 111.797302 132.606552 -348.783813
v 122.225769 0.000000 -16.854750
v 12.186612 0.000000 -23.577316
v 32.347847 0.000000 -353.638184
v 178.072052 0.000000 -344.733490
v 172.102737 0.000000 -241.975937
v 203.232834 0.000000 -241.329727
v 200.108414 0.000000 -226.667572
v 269.899078 0.000000 -221.988174
v 260.102142 0.000000 -61.626118
v 125.110146 0.000000 -69.830910
vn 0.6576 0.7525 0.0358
vn 0.6474 0.7611 0.0396
vn -0.0373 0.7882 0.6143
vn 0.0412 0.7873 -0.6152
vn 0.7066 0.6914 0.1506
vn 0.0134 0.7644 -0.6446
vn 0.6542 0.7553 0.0380
vn -0.5852 0.8101 -0.0357
vn -0.0610 -0.0001 0.9981
vn 0.0610 -0.0000 -0.9981
vn 0.0000 -1.0000 0.0000
vn 0.9981 0.0000 0.0610
vn -0.0610 0.0000 0.9981
vn -0.9983 0.0000 -0.0580
vn -0.0208 0.0000 0.9998
vn -0.9780 0.0000 -0.2084
vn -0.0669 0.0000 0.9978
vn -0.9981 0.0000 -0.0610
vn 0.0607 0.0000 -0.9982
vn -0.9985 0.0000 -0.0544
usemtl None
s off
f 3//1 1//1 5//1 6//1
f 7//2 4//2 12//2
f 6//3 5//3 4//3 7//3 8//3 9//3
f 8//4 7//4 12//4 11//4
f 8//5 11//5 14//5 9//5
f 9//6 14//6 13//6 10//6
f 10//7 13//7 16//7 17//7
f 2//8 3//8 6//8 9//8 10//8 17//8 15//8
f 1//9 3//9 2//9
f 15//10 17//10 16//10
f 18//11 19//11 20//11 21//11 22//11 23//11 24//11 25//11 26//11 27//11
f 1//10 18//10 19//10 2//10
f 2//12 19//12 20//12 15//12
f 15//13 20//13 21//13 16//13
f 16//14 21//14 22//14 13//14
f 13//15 22//15 23//15 14//15
f 14//16 23//16 24//16 11//16
f 11//17 24//17 25//17 12//17
f 12//18 25//18 26//18 4//18
f 4//19 26//19 27//19 5//19
f 5//20 27//20 18//20 1//20
