# Blender v2.92.0 OBJ File: ''
# www.blender.org
mtllib CG10_500_038070_0043.mtl
o CG10_500_038070_0043
v 212.585968 75.000000 -16.857279
v 9.643980 75.000000 -29.547638
v 158.096054 121.287521 -74.921471
v 121.611145 121.481056 -77.431458
v 94.558792 144.896332 -106.772118
v 219.322617 75.000000 -124.142151
v 182.240540 75.000000 -126.921890
v 102.265594 145.000000 -228.601288
v 193.886353 75.000000 -308.008148
v 27.638004 75.000000 -318.451141
v 212.585968 0.000000 -16.857279
v 9.643980 0.000000 -29.547638
v 27.638004 0.000000 -318.451141
v 193.886353 0.000000 -308.008148
v 182.240540 0.000000 -126.921890
v 219.322617 0.000000 -124.142151
vn -0.0404 0.7625 0.6457
vn -0.6224 -0.7817 -0.0391
vn 0.6285 0.7768 0.0404
vn 0.6569 -0.7529 0.0409
vn -0.0399 -0.7719 0.6345
vn 0.0488 0.7572 -0.6513
vn 0.0000 -1.0000 0.0000
vn 0.0624 0.0000 -0.9981
vn 0.9981 0.0000 0.0622
vn -0.0627 0.0000 0.9980
vn -0.9979 0.0000 -0.0642
vn -0.0748 0.0000 0.9972
vn -0.9980 0.0000 -0.0627
usemtl None
s off
f 2//1 1//1 3//1 4//1 5//1
f 3//2 6//2 1//2
f 5//3 4//3 7//3 9//3 8//3
f 5//4 2//4 10//4 8//4
f 8//5 10//5 9//5
f 4//6 3//6 6//6 7//6
f 11//7 12//7 13//7 14//7 15//7 16//7
f 1//8 11//8 12//8 2//8
f 2//9 12//9 13//9 10//9
f 10//10 13//10 14//10 9//10
f 9//11 14//11 15//11 7//11
f 7//12 15//12 16//12 6//12
f 6//13 16//13 11//13 1//13
