# Blender v2.92.0 OBJ File: ''
# www.blender.org
mtllib CG10_500_044066_0053_roof.mtl
o CG10_500_044066_0053_roof
v 229.452484 75.000000 -10.345551
v 275.264404 75.000000 -211.047653
v 168.999390 144.998917 -95.146400
v 182.218903 145.000000 -153.066528
v 86.448395 75.000000 -42.985947
v 109.455597 75.000000 -143.798294
v 132.252640 75.000000 -243.689804
v 127.804169 75.000000 -224.197571
v 12.410965 75.000000 -165.948547
v 30.761818 75.000000 -246.347290
v 229.452484 0.000000 -10.345551
v 275.264404 0.000000 -211.047653
v 132.252640 0.000000 -243.689804
v 127.804169 0.000000 -224.197571
v 30.761818 0.000000 -246.347290
v 12.410965 0.000000 -165.948547
v 109.455597 0.000000 -143.798294
v 86.448395 0.000000 -42.985947
vt 0.632700 0.406720
vt 0.459210 0.055466
vt 0.955780 0.181990
vt 0.586800 0.631220
vt 0.796710 0.959900
vt 0.300170 0.833390
vt 0.380050 0.442640
vt 0.443760 0.131020
vt 0.043094 0.356790
vt 0.106810 0.045166
vn -0.1494 -0.7409 0.6547
vn 0.6520 0.7434 0.1488
vn 0.1582 -0.7032 -0.6932
vn 0.6949 -0.7014 0.1586
vn 0.0000 -1.0000 0.0000
usemtl None
s off
f 4/1/1 7/2/1 2/3/1
f 4/1/2 3/4/2 1/5/2 2/3/2
f 1/5/3 5/6/3 3/4/3
f 5/6/4 6/7/4 8/8/4 7/2/4 4/1/4 3/4/4
f 6/7/5 9/9/5 10/10/5 8/8/5
