# Blender v2.92.0 OBJ File: ''
# www.blender.org
mtllib CG10_500_036057_0012_roof.mtl
o CG10_500_036057_0012_roof
v 6.763597 75.000000 -20.159645
v 133.895569 75.000000 -12.152653
v 69.193596 145.000000 -16.225037
v 149.189362 75.000000 -259.311035
v 22.396816 75.000000 -267.296967
v 84.660469 144.813110 -263.377991
v 6.763597 0.000000 -20.159645
v 133.895569 0.000000 -12.152653
v 149.189362 0.000000 -259.311035
v 22.396816 0.000000 -267.296967
vt 0.440720 0.942050
vt 0.539240 0.059364
vt 0.142650 0.045368
vt 0.043080 0.928000
vt 0.852840 0.956600
vt 0.950250 0.073889
vn -0.7442 0.6663 -0.0471
vn 0.7323 0.6795 0.0453
vn 0.0629 0.0000 -0.9980
vn -0.0629 0.0000 0.9980
usemtl None
s off
f 3/1/1 6/2/1 5/3/1 1/4/1
f 3/1/2 2/5/2 4/6/2 6/2/2
f 1/4/3 3/1/3 2/5/3
f 4/6/4 6/2/4 5/3/4
