# Blender v2.92.0 OBJ File: ''
# www.blender.org
mtllib CG10_500_049071_0007_roof.mtl
o CG10_500_049071_0007_roof
v 169.651520 75.000000 -20.368753
v 263.628082 75.000000 -13.981761
v 14.858137 75.000000 -68.859215
v 172.222214 75.000000 -58.193188
v 266.199921 75.000000 -51.823441
v 293.657074 75.000000 -49.962418
v 107.073387 145.000000 -155.327713
v 208.504120 144.991074 -148.440979
v 252.880081 112.924309 -183.136597
v 26.701550 75.000000 -243.118790
v 206.237564 75.000000 -230.910400
v 256.852936 112.906685 -241.921219
v 309.470398 75.000000 -285.314606
v 210.393570 75.000000 -292.048370
v 169.651520 0.000000 -20.368753
v 263.628082 0.000000 -13.981761
v 266.199921 0.000000 -51.823441
v 293.657074 0.000000 -49.962418
v 309.470398 0.000000 -285.314606
v 210.393570 0.000000 -292.048370
v 206.237564 0.000000 -230.910400
v 26.701550 0.000000 -243.118790
v 14.858137 0.000000 -68.859215
v 172.222214 0.000000 -58.193188
vt 0.046000 0.774970
vt 0.331500 0.492390
vt 0.645520 0.514900
vt 0.909160 0.836720
vt 0.824150 0.830640
vt 0.533200 0.809830
vt 0.525240 0.933440
vt 0.816190 0.954310
vt 0.082667 0.205490
vt 0.638510 0.245390
vt 0.782910 0.401510
vt 0.651370 0.045594
vt 0.795210 0.209410
vt 0.958110 0.067599
vn 0.0408 -0.7974 -0.6020
vn 0.0000 -1.0000 -0.0000
vn 0.6292 -0.7761 0.0428
vn -0.0440 -0.7611 0.6471
vn 0.6047 -0.7954 0.0411
vn -0.0426 -0.7775 0.6275
vn -0.6059 -0.7945 -0.0407
usemtl None
s off
f 3/1/1 7/2/1 8/3/1 6/4/1 5/5/1 4/6/1
f 1/7/2 4/6/2 5/5/2 2/8/2
f 10/9/3 7/2/3 3/1/3
f 10/9/4 11/10/4 9/11/4 8/3/4 7/2/4
f 14/12/5 12/13/5 9/11/5 11/10/5
f 14/12/6 13/14/6 12/13/6
f 13/14/7 6/4/7 8/3/7 9/11/7 12/13/7
