# Blender v2.92.0 OBJ File: ''
# www.blender.org
mtllib CG10_500_037057_0043_roof.mtl
o CG10_500_037057_0043_roof
v 359.052673 75.000000 -182.095520
v 349.975159 75.000000 -14.493083
v 271.190430 145.000000 -101.939934
v 164.020264 75.000000 -24.592405
v 159.098541 75.000000 -9.515916
v 103.213181 144.962799 -111.018677
v 93.337723 136.962662 -102.049942
v 90.818687 135.493408 -87.362808
v 16.021536 75.000000 -17.265463
v 25.906891 75.000000 -200.011703
v 359.052673 0.000000 -182.095520
v 349.975159 0.000000 -14.493083
v 164.020264 0.000000 -24.592405
v 159.098541 0.000000 -9.515916
v 16.021536 0.000000 -17.265463
v 25.906891 0.000000 -200.011703
vt 0.042610 0.917780
vt 0.423130 0.954690
vt 0.241540 0.583990
vt 0.954930 0.132880
vt 0.068901 0.047563
vt 0.274500 0.471340
vt 0.721250 0.514570
vt 0.930780 0.930990
vt 0.436220 0.882890
vt 0.248240 0.514050
vn -0.0342 0.7744 0.6318
vn 0.0342 0.7710 -0.6359
vn -0.6420 -0.7660 -0.0348
vn 0.0350 -0.7646 -0.6435
vn -0.5341 -0.8272 -0.1744
vn 0.6481 -0.7607 0.0351
usemtl None
s off
f 9/1/1 5/2/1 8/3/1
f 1/4/2 10/5/2 6/6/2 3/7/2
f 1/4/3 2/8/3 3/7/3
f 2/8/4 4/9/4 7/10/4 6/6/4 3/7/4
f 4/9/5 5/2/5 8/3/5 7/10/5
f 9/1/6 10/5/6 6/6/6 7/10/6 8/3/6
