# Blender v2.92.0 OBJ File: ''
# www.blender.org
mtllib CG10_500_039067_0046_roof.mtl
o CG10_500_039067_0046_roof
v 33.345528 75.000000 -311.016296
v 20.388021 75.000000 -90.544785
v 104.148354 75.000000 -84.804405
v 99.950974 75.000000 -26.118286
v 132.549026 144.855927 -191.876266
v 179.983398 145.000000 -188.850266
v 192.296188 134.430069 -111.254707
v 196.233948 134.204468 -170.888885
v 215.628479 123.986916 -220.833313
v 289.332336 75.000000 -138.723816
v 281.938629 75.000000 -15.413934
v 353.131927 124.133675 -212.500809
v 430.245087 75.000000 -129.946716
v 439.485748 75.000000 -287.107910
v 33.345528 0.000000 -311.016296
v 20.388021 0.000000 -90.544785
v 104.148354 0.000000 -84.804405
v 99.950974 0.000000 -26.118286
v 281.938629 0.000000 -15.413934
v 289.332336 0.000000 -138.723816
v 430.245087 0.000000 -129.946716
v 439.485748 0.000000 -287.107910
vt 0.216810 0.919880
vt 0.611580 0.952720
vt 0.417130 0.658730
vt 0.627620 0.574470
vt 0.933290 0.601390
vt 0.766010 0.348160
vt 0.467740 0.322600
vt 0.287530 0.411420
vt 0.390420 0.420700
vt 0.953330 0.119300
vt 0.072333 0.045962
vt 0.225920 0.739860
vt 0.425670 0.475800
vt 0.044226 0.722260
vn -0.0323 0.8356 0.5483
vn -0.0333 0.8449 0.5339
vn 0.0309 0.8508 -0.5246
vn 0.5669 -0.8228 0.0405
vn -0.0369 0.8414 0.5391
vn 0.5492 -0.8350 0.0323
vn 0.5285 0.8483 0.0317
vn 0.5139 0.8573 0.0302
usemtl None
s off
f 4/1/1 11/2/1 7/3/1
f 10/4/2 13/5/2 12/6/2 9/7/2
f 5/8/3 6/9/3 9/7/3 12/6/3 14/10/3 1/11/3
f 4/1/4 3/12/4 8/13/4 7/3/4
f 8/13/5 6/9/5 5/8/5 2/14/5 3/12/5
f 2/14/6 1/11/6 5/8/6
f 11/2/7 10/4/7 9/7/7 6/9/7 8/13/7 7/3/7
f 13/5/8 14/10/8 12/6/8
