# Blender v2.92.0 OBJ File: ''
# www.blender.org
mtllib CG10_500_041070_0008_roof.mtl
o CG10_500_041070_0008_roof
v 164.588287 75.000000 -12.376698
v 180.769958 75.000000 -253.698044
v 97.215820 145.000000 -84.811928
v 104.107475 144.983170 -187.329803
v 70.495590 105.859116 -229.587982
v 27.723957 75.000000 -21.586840
v 39.914917 75.000000 -202.523468
v 38.180416 105.865593 -231.759811
v 7.472068 75.000000 -204.697739
v 11.537178 75.000000 -265.106476
v 164.588287 0.000000 -12.376698
v 180.769958 0.000000 -253.698044
v 11.537178 0.000000 -265.106476
v 7.472068 0.000000 -204.697739
v 39.914917 0.000000 -202.523468
v 27.723957 0.000000 -21.586840
vt 0.146690 0.922350
vt 0.514370 0.694920
vt 0.550830 0.326150
vt 0.372990 0.174140
vt 0.211190 0.271500
vt 0.039535 0.263680
vt 0.202010 0.166330
vt 0.061043 0.046380
vt 0.956450 0.087417
vt 0.870840 0.955480
vn -0.7307 0.6809 -0.0492
vn 0.0487 -0.6854 -0.7265
vn -0.7292 0.6825 -0.0491
vn 0.6952 0.7173 0.0466
vn 0.0482 -0.6955 -0.7169
vn 0.0471 0.7140 -0.6985
usemtl None
s off
f 6/1/1 3/2/1 4/3/1 5/4/1 7/5/1
f 9/6/2 8/7/2 5/4/2 7/5/2
f 10/8/3 9/6/3 8/7/3
f 2/9/4 4/3/4 3/2/4 1/10/4
f 3/2/5 1/10/5 6/1/5
f 10/8/6 8/7/6 5/4/6 4/3/6 2/9/6
