# Blender v2.92.0 OBJ File: ''
# www.blender.org
mtllib CG10_500_039071_0016_roof.mtl
o CG10_500_039071_0016_roof
v 365.213837 75.000000 -66.740608
v 373.221161 75.000000 -195.226562
v 307.515106 129.047928 -138.541336
v 292.756836 75.000000 -71.176750
v 288.312531 75.000000 -11.022407
v 230.980743 129.084671 -143.273529
v 217.483032 136.832779 -90.694641
v 219.117126 137.032898 -116.172600
v 210.008865 145.000000 -126.682854
v 143.057938 75.000000 -43.559692
v 141.770142 75.000000 -20.151089
v 102.046310 144.983261 -133.435394
v 16.366283 75.000000 -51.508156
v 26.669544 75.000000 -216.841263
v 365.213837 0.000000 -66.740608
v 373.221161 0.000000 -195.226562
v 26.669544 0.000000 -216.841263
v 16.366283 0.000000 -51.508156
v 143.057938 0.000000 -43.559692
v 141.770142 0.000000 -20.151089
v 288.312531 0.000000 -11.022407
v 292.756836 0.000000 -71.176750
vt 0.362580 0.911230
vt 0.365880 0.808110
vt 0.560400 0.488230
vt 0.556220 0.600460
vt 0.737370 0.951440
vt 0.041858 0.773090
vt 0.537110 0.441930
vt 0.260990 0.412180
vt 0.068209 0.044752
vt 0.954530 0.139970
vt 0.786480 0.389690
vt 0.590740 0.368840
vt 0.748740 0.686450
vt 0.934050 0.705990
vn 0.6520 -0.7574 0.0359
vn 0.0395 -0.7721 -0.6343
vn -0.0392 0.7797 0.6250
vn 0.6552 -0.7544 0.0408
vn -0.0414 -0.7467 0.6639
vn -0.6269 -0.7777 -0.0463
vn 0.0380 -0.7835 -0.6203
vn 0.6555 0.7541 0.0409
usemtl None
s off
f 11/1/1 10/2/1 8/3/1 7/4/1
f 5/5/2 11/1/2 7/4/2
f 13/6/3 10/2/3 8/3/3 9/7/3 12/8/3
f 13/6/4 14/9/4 12/8/4
f 12/8/5 14/9/5 2/10/5 3/11/5 6/12/5 9/7/5
f 5/5/6 7/4/6 8/3/6 9/7/6 6/12/6 4/13/6
f 6/12/7 3/11/7 1/14/7 4/13/7
f 1/14/8 2/10/8 3/11/8
