# Blender v2.92.0 OBJ File: ''
# www.blender.org
mtllib CG10_500_036058_0022.mtl
o CG10_500_036058_0022
v 119.816612 75.000000 -14.217651
v 11.712037 75.000000 -20.307817
v 69.547287 116.723297 -70.180603
v 125.644722 75.000000 -101.650787
v 236.612183 75.000000 -95.148727
v 74.991524 117.093857 -159.049469
v 176.155212 126.838387 -165.722290
v 135.167526 126.839409 -168.125275
v 113.699585 145.000000 -192.866241
v 114.367119 144.974777 -205.434616
v 244.038223 75.000000 -226.853165
v 203.114655 75.000000 -229.253662
v 206.036545 75.000000 -286.996368
v 27.144983 75.000000 -297.084076
v 119.816612 0.000000 -14.217651
v 11.712037 0.000000 -20.307817
v 27.144983 0.000000 -297.084076
v 206.036545 0.000000 -286.996368
v 203.114655 0.000000 -229.253662
v 244.038223 0.000000 -226.853165
v 236.612183 0.000000 -95.148727
v 125.644722 0.000000 -101.650787
vn 0.0348 -0.7860 -0.6172
vn -0.6109 -0.7907 -0.0407
vn 0.0358 -0.7905 -0.6114
vn 0.6241 0.7807 0.0316
vn -0.0365 -0.7818 0.6224
vn -0.6264 -0.7787 -0.0353
vn -0.0354 -0.7778 0.6275
vn -0.6037 0.7965 -0.0337
vn 0.0000 -1.0000 0.0000
vn 0.0562 0.0000 -0.9984
vn 0.9984 0.0000 0.0557
vn -0.0563 0.0000 0.9984
vn -0.9987 0.0000 -0.0505
vn -0.0586 0.0000 0.9983
vn -0.9984 0.0000 -0.0563
vn 0.0585 0.0000 -0.9983
vn -0.9978 0.0000 -0.0665
usemtl None
s off
f 3//1 1//1 2//1
f 6//2 4//2 1//2 3//2
f 9//3 8//3 7//3 5//3 4//3 6//3
f 10//4 9//4 8//4 12//4 13//4
f 11//5 7//5 8//5 12//5
f 5//6 7//6 11//6
f 14//7 13//7 10//7
f 2//8 3//8 6//8 9//8 10//8 14//8
f 15//9 16//9 17//9 18//9 19//9 20//9 21//9 22//9
f 1//10 15//10 16//10 2//10
f 2//11 16//11 17//11 14//11
f 14//12 17//12 18//12 13//12
f 13//13 18//13 19//13 12//13
f 12//14 19//14 20//14 11//14
f 11//15 20//15 21//15 5//15
f 5//16 21//16 22//16 4//16
f 4//17 22//17 15//17 1//17
