# Blender v2.92.0 OBJ File: ''
# www.blender.org
mtllib CG10_500_040069_0020.mtl
o CG10_500_040069_0020
v 118.494545 75.000000 -34.015549
v 481.761475 75.000000 -12.089399
v 23.360876 75.000000 -100.404366
v 122.558899 75.000000 -94.051308
v 387.656219 145.000000 -122.956161
v 241.691299 144.996002 -131.760330
v 210.796021 125.090340 -165.113541
v 111.276871 124.969810 -171.302597
v 494.717102 75.000000 -227.244171
v 32.674694 75.000000 -255.093155
v 118.494545 0.000000 -34.015549
v 481.761475 0.000000 -12.089399
v 494.717102 0.000000 -227.244171
v 32.674694 0.000000 -255.093155
v 23.360876 0.000000 -100.404366
v 122.558899 0.000000 -94.051308
vn 0.5126 -0.8581 0.0309
vn -0.0322 -0.8448 0.5340
vn -0.0350 0.8368 0.5464
vn 0.5144 -0.8568 0.0348
vn 0.0334 -0.8320 -0.5537
vn -0.5701 -0.8208 -0.0343
vn 0.0000 1.0000 0.0000
vn -0.0602 0.0000 0.9982
vn 0.9982 0.0000 0.0601
vn 0.0602 0.0000 -0.9982
vn -0.9982 0.0000 -0.0601
vn -0.0639 0.0000 0.9980
vn -0.9977 0.0000 -0.0675
usemtl None
s off
f 8//1 3//1 10//1
f 8//2 10//2 9//2 5//2 6//2 7//2
f 7//3 8//3 3//3 4//3
f 4//4 7//4 6//4 1//4
f 1//5 6//5 5//5 2//5
f 2//6 5//6 9//6
f 11//7 12//7 13//7 14//7 15//7 16//7
f 1//8 11//8 12//8 2//8
f 2//9 12//9 13//9 9//9
f 9//10 13//10 14//10 10//10
f 10//11 14//11 15//11 3//11
f 3//12 15//12 16//12 4//12
f 4//13 16//13 11//13 1//13
