# Blender v2.92.0 OBJ File: ''
# www.blender.org
mtllib CG10_500_047072_0057_roof.mtl
o CG10_500_047072_0057_roof
v 12.084168 75.000000 -22.801039
v 26.072037 75.000000 -266.683777
v 31.826935 75.000000 -305.117615
v 34.525452 75.000000 -352.991516
v 44.813164 75.000000 -304.385620
v 42.635334 75.000000 -265.749054
v 68.767899 113.168213 -70.842934
v 73.736366 114.625877 -121.560745
v 87.500740 75.000000 -304.056427
v 90.082550 75.000000 -349.859924
v 118.985657 145.000000 -162.243591
v 119.441452 75.000000 -16.744154
v 125.898300 75.000000 -62.246712
v 152.021606 144.996262 -160.384506
v 168.633179 75.000000 -299.483215
v 169.900024 75.000000 -258.566895
v 242.633072 75.000000 -55.696339
v 253.801422 75.000000 -253.831940
v 12.084168 0.000000 -22.801039
v 26.072037 0.000000 -266.683777
v 42.635334 0.000000 -265.749054
v 44.813164 0.000000 -304.385620
v 31.826935 0.000000 -305.117615
v 34.525452 0.000000 -352.991516
v 90.082550 0.000000 -349.859924
v 87.500740 0.000000 -304.056427
v 168.633179 0.000000 -299.483215
v 169.900024 0.000000 -258.566895
v 253.801422 0.000000 -253.831940
v 242.633072 0.000000 -55.696339
v 125.898300 0.000000 -62.246712
v 119.441452 0.000000 -16.744154
vt 0.045429 0.938210
vt 0.258530 0.808010
vt 0.449030 0.954620
vt 0.277200 0.670570
vt 0.473300 0.831310
vt 0.447310 0.560320
vt 0.571510 0.565350
vt 0.912150 0.849060
vt 0.954140 0.312110
vt 0.098015 0.277280
vt 0.160280 0.279810
vt 0.638720 0.299280
vt 0.168470 0.175110
vt 0.328950 0.176000
vt 0.633960 0.188390
vt 0.129790 0.043383
vt 0.338660 0.051870
vt 0.119650 0.173120
vn 0.0337 -0.8015 -0.5970
vn -0.5458 -0.8344 -0.0774
vn 0.0322 -0.8177 -0.5747
vn -0.5868 -0.8091 -0.0331
vn -0.0325 -0.8166 0.5763
vn 0.0000 -1.0000 0.0000
vn -0.5774 0.8158 -0.0331
usemtl None
s off
f 1/1/1 7/2/1 12/3/1
f 12/3/2 7/2/2 8/4/2 13/5/2
f 13/5/3 8/4/3 11/6/3 14/7/3 17/8/3
f 17/8/4 14/7/4 18/9/4
f 18/9/5 14/7/5 11/6/5 2/10/5 6/11/5 16/12/5
f 5/13/6 9/14/6 15/15/6 16/12/6 6/11/6
f 4/16/6 10/17/6 9/14/6 5/13/6 3/18/6
f 1/1/7 7/2/7 8/4/7 11/6/7 2/10/7
