# Blender v2.92.0 OBJ File: ''
# www.blender.org
mtllib CG10_500_042067_0048_roof.mtl
o CG10_500_042067_0048_roof
v 45.266354 145.000000 -176.682007
v 51.625889 75.000000 -304.886963
v 39.126598 75.000000 -52.891632
v 812.315186 75.000000 -14.512578
v 824.807495 75.000000 -266.369110
v 818.452332 144.961441 -138.234726
v 51.625889 0.000000 -304.886963
v 39.126598 0.000000 -52.891632
v 812.315186 0.000000 -14.512578
v 824.807495 0.000000 -266.369110
vt 0.045233 0.834200
vt 0.052331 0.446140
vt 0.946190 0.566660
vt 0.939090 0.954510
vt 0.059683 0.044242
vt 0.953530 0.164990
vn 0.0244 -0.8707 -0.4912
vn -0.0238 -0.8779 0.4782
vn 0.9988 -0.0000 0.0495
vn -0.9988 -0.0000 -0.0495
usemtl None
s off
f 3/1/1 1/2/1 6/3/1 4/4/1
f 1/2/2 2/5/2 5/6/2 6/3/2
f 5/6/3 6/3/3 4/4/3
f 3/1/4 1/2/4 2/5/4
