# Blender v2.92.0 OBJ File: ''
# www.blender.org
mtllib CG10_500_045074_0021_roof.mtl
o CG10_500_045074_0021_roof
v 123.336411 75.000000 -370.354004
v 19.012690 75.000000 -119.092003
v 32.542652 75.000000 -113.477173
v 13.713878 75.000000 -68.093796
v 136.042770 144.981857 -164.151627
v 170.191147 145.000000 -246.336044
v 105.839149 75.000000 -29.872601
v 124.664391 75.000000 -75.247437
v 151.143555 125.179993 -131.392761
v 163.033295 125.088951 -126.336838
v 172.945465 111.016541 -103.396416
v 238.855728 75.000000 -167.285645
v 293.875946 75.000000 -299.600037
v 248.845139 75.000000 -162.924744
v 235.030838 75.000000 -130.599396
v 232.957062 110.845291 -78.263016
v 295.780731 75.000000 -104.899460
v 260.153137 75.000000 -19.020769
v 123.336411 0.000000 -370.354004
v 19.012690 0.000000 -119.092003
v 32.542652 0.000000 -113.477173
v 13.713878 0.000000 -68.093796
v 105.839149 0.000000 -29.872601
v 124.664391 0.000000 -75.247437
v 260.153137 0.000000 -19.020769
v 295.780731 0.000000 -104.899460
v 235.030838 0.000000 -130.599396
v 248.845139 0.000000 -162.924744
v 238.855728 0.000000 -167.285645
v 293.875946 0.000000 -299.600037
vt 0.438850 0.578020
vt 0.549000 0.366750
vt 0.947990 0.229820
vt 0.770500 0.569960
vt 0.487560 0.662230
vt 0.525910 0.675230
vt 0.802730 0.581170
vt 0.557890 0.734200
vt 0.758160 0.664270
vt 0.751470 0.798810
vt 0.954130 0.730340
vt 0.839200 0.951100
vt 0.061331 0.693850
vt 0.104980 0.708280
vt 0.402140 0.806560
vt 0.044238 0.824950
vt 0.341420 0.923210
vt 0.397860 0.047933
vn -0.5524 -0.8013 -0.2297
vn 0.2376 0.8046 -0.5442
vn -0.5638 -0.7900 -0.2410
vn -0.2300 -0.8071 0.5437
vn -0.5540 -0.8002 -0.2298
vn -0.2411 0.7773 0.5810
vn 0.0000 1.0000 -0.0000
vn -0.2249 -0.8097 0.5420
vn -0.5638 0.7921 -0.2341
usemtl None
s off
f 5/1/1 6/2/1 13/3/1 12/4/1 9/5/1
f 9/5/2 10/6/2 14/7/2 12/4/2
f 11/8/3 10/6/3 14/7/3 15/9/3
f 16/10/4 11/8/4 15/9/4 17/11/4
f 18/12/5 16/10/5 17/11/5
f 5/1/6 2/13/6 3/14/6 8/15/6 18/12/6 16/10/6 11/8/6 10/6/6 9/5/6
f 3/14/7 4/16/7 7/17/7 8/15/7
f 1/18/8 13/3/8 6/2/8
f 5/1/9 6/2/9 1/18/9 2/13/9
