# Blender v2.92.0 OBJ File: ''
# www.blender.org
mtllib CG10_500_048075_0011.mtl
o CG10_500_048075_0011
v 139.709351 75.000000 -216.456375
v 191.608459 75.000000 -214.440643
v 26.173681 75.000000 -209.700546
v 139.275833 75.000000 -205.294647
v 191.174698 75.000000 -203.272919
v 336.030090 75.000000 -197.630081
v 435.637726 75.000000 -123.426949
v 332.297272 75.000000 -127.449532
v 105.620872 145.000000 -121.028671
v 247.211548 144.991776 -115.523064
v 276.847839 119.078773 -84.876335
v 275.941742 118.964172 -65.241264
v 19.764412 75.000000 -44.681717
v 220.468475 75.000000 -36.890812
v 431.244537 75.000000 -10.315279
v 219.753693 75.000000 -18.529480
v 326.283661 75.000000 -14.388737
v 139.709351 0.000000 -216.456375
v 191.608459 0.000000 -214.440643
v 191.174698 0.000000 -203.272919
v 336.030090 0.000000 -197.630081
v 332.297272 0.000000 -127.449532
v 435.637726 0.000000 -123.426949
v 431.244537 0.000000 -10.315279
v 326.283661 0.000000 -14.388737
v 219.753693 0.000000 -18.529480
v 220.468475 0.000000 -36.890812
v 19.764412 0.000000 -44.681717
v 26.173681 0.000000 -209.700546
v 139.275833 0.000000 -205.294647
vn 0.6450 -0.7638 0.0251
vn -0.0256 0.7510 0.6598
vn 0.6286 -0.7774 0.0245
vn 0.0260 -0.7434 -0.6684
vn 0.6377 0.7695 0.0339
vn 0.0000 1.0000 0.0000
vn -0.0247 -0.7738 0.6330
vn 0.0000 -1.0000 -0.0000
vn -0.0388 0.0000 0.9992
vn -0.9992 0.0000 -0.0388
vn -0.0389 0.0000 0.9992
vn -0.9986 0.0000 -0.0531
vn 0.0388 0.0000 -0.9992
vn 0.9992 0.0000 0.0389
vn 0.9992 0.0000 0.0388
usemtl None
s off
f 13//1 3//1 9//1
f 13//2 14//2 11//2 10//2 9//2
f 16//3 14//3 11//3 12//3
f 17//4 16//4 12//4
f 17//5 8//5 6//5 10//5 11//5 12//5
f 17//6 15//6 7//6 8//6
f 3//7 4//7 5//7 6//7 10//7 9//7
f 4//8 1//8 2//8 5//8
f 18//8 19//8 20//8 21//8 22//8 23//8 24//8 25//8 26//8 27//8 28//8 29//8 30//8
f 1//9 18//9 19//9 2//9
f 2//10 19//10 20//10 5//10
f 5//11 20//11 21//11 6//11
f 6//12 21//12 22//12 8//12
f 8//11 22//11 23//11 7//11
f 7//10 23//10 24//10 15//10
f 15//13 24//13 25//13 17//13
f 17//13 25//13 26//13 16//13
f 16//14 26//14 27//14 14//14
f 14//13 27//13 28//13 13//13
f 13//15 28//15 29//15 3//15
f 3//11 29//11 30//11 4//11
f 4//15 30//15 18//15 1//15
