# Blender v2.92.0 OBJ File: ''
# www.blender.org
mtllib CG10_500_043066_0005.mtl
o CG10_500_043066_0005
v 257.837402 75.000000 -275.583954
v 423.677795 75.000000 -265.574219
v 33.879414 75.000000 -273.122559
v 256.155945 75.000000 -259.589752
v 319.625854 122.041451 -193.181168
v 334.960632 122.045723 -192.248459
v 310.460663 116.489372 -185.094772
v 206.919495 116.477509 -191.419006
v 129.886383 145.000000 -147.169220
v 152.571243 144.996490 -145.794128
v 414.537201 75.000000 -114.096054
v 276.908173 75.000000 -122.526909
v 142.195251 106.875664 -85.474579
v 93.974037 75.000000 -37.424274
v 270.497345 75.000000 -26.767506
v 19.926596 75.000000 -41.894539
v 196.085083 75.000000 -31.259794
v 194.962875 75.000000 -13.004584
v 93.408073 75.000000 -19.140633
v 139.107834 106.228973 -16.365864
v 257.837402 0.000000 -275.583954
v 423.677795 0.000000 -265.574219
v 414.537201 0.000000 -114.096054
v 276.908173 0.000000 -122.526909
v 270.497345 0.000000 -26.767506
v 196.085083 0.000000 -31.259794
v 194.962875 0.000000 -13.004584
v 93.408073 0.000000 -19.140633
v 93.974037 0.000000 -37.424274
v 19.926596 0.000000 -41.894539
v 33.879414 0.000000 -273.122559
v 256.155945 0.000000 -259.589752
vn 0.0331 -0.8410 -0.5400
vn 0.4857 0.8735 0.0325
vn -0.0306 -0.8636 0.5033
vn -0.4864 -0.8732 -0.0299
vn 0.4871 0.8728 0.0294
vn -0.5544 0.8302 -0.0583
vn -0.0310 -0.8579 0.5129
vn -0.5595 0.8281 -0.0338
vn 0.5634 -0.8260 0.0174
vn -0.0320 0.8474 0.5300
vn -0.0603 -0.0004 0.9982
vn 0.0000 -1.0000 0.0000
vn -0.0602 0.0000 0.9982
vn -0.9982 0.0000 -0.0602
vn 0.0611 0.0000 -0.9981
vn -0.9978 0.0000 -0.0668
vn 0.0603 0.0000 -0.9982
vn -0.9981 0.0000 -0.0614
vn 0.9995 0.0000 0.0309
vn 0.9982 0.0000 0.0602
vn -0.0608 0.0000 0.9982
vn 0.9945 0.0000 0.1046
usemtl None
s off
f 11//1 12//1 8//1 7//1 5//1 6//1
f 8//2 10//2 15//2 12//2
f 3//3 4//3 7//3 8//3 10//3 9//3
f 17//4 18//4 20//4 13//4
f 6//5 11//5 2//5
f 1//6 4//6 7//6 5//6
f 1//7 2//7 6//7 5//7
f 9//8 3//8 16//8
f 20//9 19//9 14//9 13//9
f 16//10 14//10 13//10 17//10 15//10 10//10 9//10
f 18//11 20//11 19//11
f 21//12 22//12 23//12 24//12 25//12 26//12 27//12 28//12 29//12 30//12 31//12 32//12
f 1//13 21//13 22//13 2//13
f 2//14 22//14 23//14 11//14
f 11//15 23//15 24//15 12//15
f 12//16 24//16 25//16 15//16
f 15//17 25//17 26//17 17//17
f 17//18 26//18 27//18 18//18
f 18//17 27//17 28//17 19//17
f 19//19 28//19 29//19 14//19
f 14//17 29//17 30//17 16//17
f 16//20 30//20 31//20 3//20
f 3//21 31//21 32//21 4//21
f 4//22 32//22 21//22 1//22
