# Blender v2.92.0 OBJ File: ''
# www.blender.org
mtllib CG10_500_048071_0032_roof.mtl
o CG10_500_048071_0032_roof
v 25.991985 75.000000 -26.358089
v 253.668747 75.000000 -12.993038
v 309.811279 75.000000 -82.673729
v 258.156860 75.000000 -85.870354
v 143.472488 144.997955 -133.285828
v 313.598236 75.000000 -144.791763
v 357.193298 75.000000 -142.215347
v 145.233658 145.000000 -161.939163
v 34.915344 75.000000 -171.804459
v 16.472193 75.000000 -177.897644
v 222.662308 130.641388 -180.636063
v 170.781387 130.594177 -183.768143
v 256.238800 111.628647 -209.454193
v 299.016632 111.631279 -206.930466
v 91.110939 108.428162 -224.363663
v 72.806168 107.102081 -227.589661
v 364.249634 75.000000 -262.421600
v 22.609081 75.000000 -282.543091
v 25.991985 0.000000 -26.358089
v 253.668747 0.000000 -12.993038
v 258.156860 0.000000 -85.870354
v 309.811279 0.000000 -82.673729
v 313.598236 0.000000 -144.791763
v 357.193298 0.000000 -142.215347
v 364.249634 0.000000 -262.421600
v 22.609081 0.000000 -282.543091
v 16.472193 0.000000 -177.897644
v 34.915344 0.000000 -171.804459
vt 0.059186 0.048676
vt 0.190590 0.233700
vt 0.238510 0.244570
vt 0.380190 0.454750
vt 0.447070 0.381250
vt 0.582890 0.391800
vt 0.670780 0.294770
vt 0.782770 0.303260
vt 0.953530 0.116430
vt 0.043121 0.401020
vt 0.091401 0.421530
vt 0.068042 0.911250
vt 0.375580 0.551230
vt 0.664050 0.956250
vt 0.675800 0.710870
vt 0.811020 0.721640
vt 0.820940 0.512490
vt 0.935060 0.521160
vn 0.0309 0.8505 -0.5251
vn 0.5149 -0.8567 0.0302
vn -0.1392 0.8962 0.4212
vn -0.5334 0.8452 -0.0327
vn -0.0307 0.8514 0.5236
vn 0.5112 0.8589 0.0315
vn -0.0319 0.8566 0.5149
vn 0.5127 0.8580 0.0313
vn -0.0303 0.8579 0.5129
vn 0.5086 0.8605 0.0299
usemtl None
s off
f 18/1/1 16/2/1 15/3/1 8/4/1 12/5/1 11/6/1 13/7/1 14/8/1 17/9/1
f 16/2/2 10/10/2 18/1/2
f 10/10/3 9/11/3 15/3/3 16/2/3
f 9/11/4 1/12/4 5/13/4 8/4/4 15/3/4
f 1/12/5 2/14/5 5/13/5
f 2/14/6 4/15/6 12/5/6 8/4/6 5/13/6
f 4/15/7 3/16/7 11/6/7 12/5/7
f 3/16/8 6/17/8 13/7/8 11/6/8
f 6/17/9 7/18/9 14/8/9 13/7/9
f 7/18/10 17/9/10 14/8/10
