# Blender v2.92.0 OBJ File: ''
# www.blender.org
mtllib CG10_500_038058_0030_roof.mtl
o CG10_500_038058_0030_roof
v 20.926836 75.000000 -276.581299
v 13.972985 75.000000 -148.436844
v 80.029816 119.493454 -210.342163
v 85.704285 75.000000 -144.066040
v 78.375595 75.000000 -24.124397
v 154.108139 119.668785 -206.088165
v 185.470367 145.000000 -119.678795
v 188.284393 144.882523 -168.514526
v 279.693237 75.000000 -13.195430
v 293.167450 75.000000 -261.860718
v 20.926836 0.000000 -276.581299
v 13.972985 0.000000 -148.436844
v 85.704285 0.000000 -144.066040
v 78.375595 0.000000 -24.124397
v 279.693237 0.000000 -13.195430
v 293.167450 0.000000 -261.860718
vt 0.254470 0.916810
vt 0.602180 0.587310
vt 0.908090 0.954500
vt 0.611310 0.418920
vt 0.951840 0.097032
vt 0.067944 0.046271
vt 0.259840 0.274680
vt 0.500350 0.289350
vt 0.045367 0.488150
vt 0.278260 0.503220
vn 0.0308 -0.8225 -0.5680
vn -0.5732 -0.8188 -0.0311
vn 0.0312 0.8166 -0.5763
vn 0.5784 -0.8151 0.0314
vn -0.0341 0.8284 0.5591
vn 0.5683 -0.8221 0.0347
usemtl None
s off
f 5/1/1 7/2/1 9/3/1
f 9/3/2 7/2/2 8/4/2 10/5/2
f 1/6/3 3/7/3 6/8/3 8/4/3 10/5/3
f 2/9/4 1/6/4 3/7/4
f 2/9/5 4/10/5 6/8/5 3/7/5
f 5/1/6 4/10/6 6/8/6 8/4/6 7/2/6
