# Blender v2.92.0 OBJ File: ''
# www.blender.org
mtllib CG10_500_035060_0010.mtl
o CG10_500_035060_0010
v 315.192108 75.000000 -93.336182
v 321.983276 75.000000 -215.069687
v 296.442902 75.000000 -28.524441
v 299.776123 75.000000 -93.873505
v 255.524185 120.125092 -158.189514
v 239.048630 120.252831 -158.941467
v 202.433319 145.000000 -127.757088
v 136.679398 75.000000 -225.456650
v 140.892838 75.000000 -296.401184
v 122.901031 75.000000 -14.259259
v 124.512413 75.000000 -38.612103
v 111.639084 144.911316 -132.965530
v 72.112488 115.712044 -96.192352
v 70.609688 115.619522 -71.549950
v 79.253647 114.738327 -245.574936
v 75.220772 114.656593 -175.640656
v 31.468901 75.000000 -302.502869
v 15.614977 75.000000 -20.240042
v 315.192108 0.000000 -93.336182
v 321.983276 0.000000 -215.069687
v 136.679398 0.000000 -225.456650
v 140.892838 0.000000 -296.401184
v 31.468901 0.000000 -302.502869
v 15.614977 0.000000 -20.240042
v 122.901031 0.000000 -14.259259
v 124.512413 0.000000 -38.612103
v 296.442902 0.000000 -28.524441
v 299.776123 0.000000 -93.873505
vn -0.0333 0.8007 0.5981
vn 0.5861 0.8093 0.0388
vn -0.0351 0.8007 0.5981
vn 0.5768 0.8164 0.0294
vn -0.0203 0.8118 0.5836
vn 0.5803 0.8138 0.0324
vn 0.0335 0.8016 -0.5969
vn 0.5608 0.8273 0.0333
vn 0.0329 0.8064 -0.5905
vn -0.6144 0.7882 -0.0345
vn 0.0000 1.0000 0.0000
vn 0.9984 0.0000 0.0557
vn 0.0560 0.0000 -0.9984
vn 0.9982 0.0000 0.0593
vn 0.0557 0.0000 -0.9984
vn -0.9984 0.0000 -0.0561
vn -0.0557 0.0000 0.9984
vn 0.9978 0.0000 0.0660
vn -0.0586 0.0000 0.9983
vn 0.9987 0.0000 0.0509
vn -0.0348 0.0000 0.9994
usemtl None
s off
f 18//1 10//1 14//1
f 13//2 14//2 10//2 11//2
f 12//3 13//3 11//3 3//3 7//3
f 6//4 7//4 3//4 4//4
f 5//5 6//5 4//5 1//5
f 2//6 5//6 1//6
f 16//7 12//7 7//7 6//7 5//7 2//7 8//7
f 15//8 16//8 8//8 9//8
f 17//9 15//9 9//9
f 18//10 14//10 13//10 12//10 16//10 15//10 17//10
f 19//11 20//11 21//11 22//11 23//11 24//11 25//11 26//11 27//11 28//11
f 1//12 19//12 20//12 2//12
f 2//13 20//13 21//13 8//13
f 8//14 21//14 22//14 9//14
f 9//15 22//15 23//15 17//15
f 17//16 23//16 24//16 18//16
f 18//17 24//17 25//17 10//17
f 10//18 25//18 26//18 11//18
f 11//19 26//19 27//19 3//19
f 3//20 27//20 28//20 4//20
f 4//21 28//21 19//21 1//21
