# Blender v2.92.0 OBJ File: ''
# www.blender.org
mtllib CG10_500_038057_0056.mtl
o CG10_500_038057_0056
v 249.622238 75.000000 -276.478638
v 65.511040 75.000000 -287.952362
v 61.985367 75.000000 -227.834793
v 18.616493 75.000000 -230.634033
v 149.562790 144.962677 -191.817795
v 90.615051 98.819321 -195.337387
v 147.615067 145.000000 -161.373688
v 120.887634 124.192429 -160.734634
v 75.865631 124.320259 -163.476105
v 144.589645 144.808121 -108.652328
v 10.721665 75.000000 -103.947014
v 54.653149 75.000000 -101.431931
v 233.139435 75.000000 -11.975439
v 50.537361 75.000000 -23.357418
v 249.622238 0.000000 -276.478638
v 65.511040 0.000000 -287.952362
v 61.985367 0.000000 -227.834793
v 18.616493 0.000000 -230.634033
v 10.721665 0.000000 -103.947014
v 54.653149 0.000000 -101.431931
v 50.537361 0.000000 -23.357418
v 233.139435 0.000000 -11.975439
vn 0.6147 -0.7880 0.0360
vn -0.0380 -0.7919 0.6095
vn 0.0379 -0.7934 -0.6076
vn -0.5935 -0.8040 -0.0370
vn 0.6145 -0.7883 0.0324
vn -0.0352 0.7881 0.6145
vn -0.6144 0.7880 -0.0403
vn 0.0396 0.7890 -0.6132
vn 0.6256 -0.7792 0.0390
vn 0.0000 1.0000 0.0000
vn 0.0622 0.0000 -0.9981
vn -0.9983 0.0000 -0.0585
vn 0.0644 0.0000 -0.9979
vn -0.9981 0.0000 -0.0622
vn -0.0572 0.0000 0.9984
vn -0.9986 0.0000 -0.0526
vn -0.0622 0.0000 0.9981
vn 0.9981 0.0000 0.0622
usemtl None
s off
f 3//1 2//1 5//1 6//1
f 2//2 1//2 5//2
f 10//3 13//3 14//3
f 5//4 1//4 13//4 10//4 7//4
f 8//5 7//5 10//5 14//5 12//5
f 12//6 8//6 9//6 11//6
f 8//7 7//7 5//7 6//7
f 4//8 9//8 8//8 6//8 3//8
f 4//9 9//9 11//9
f 15//10 16//10 17//10 18//10 19//10 20//10 21//10 22//10
f 1//11 15//11 16//11 2//11
f 2//12 16//12 17//12 3//12
f 3//13 17//13 18//13 4//13
f 4//14 18//14 19//14 11//14
f 11//15 19//15 20//15 12//15
f 12//16 20//16 21//16 14//16
f 14//17 21//17 22//17 13//17
f 13//18 22//18 15//18 1//18
