# Blender v2.92.0 OBJ File: ''
# www.blender.org
mtllib CG10_500_040069_0025.mtl
o CG10_500_040069_0025
v 25.379713 75.000000 -336.849884
v 16.117811 75.000000 -193.896515
v 29.042150 75.000000 -63.412880
v 36.759670 75.000000 -193.099976
v 94.635223 126.448311 -259.362274
v 118.796822 126.219185 -258.124878
v 110.611435 75.000000 -58.093121
v 108.505821 75.000000 -22.743126
v 145.769150 145.000000 -229.729279
v 140.980942 144.858871 -152.886078
v 172.024460 125.659866 -255.476349
v 176.016800 115.091270 -109.364876
v 173.813293 115.027740 -74.029938
v 231.721283 75.000000 -182.511383
v 220.921631 75.000000 -15.453821
v 258.961426 125.680923 -249.824234
v 325.389984 75.000000 -300.550720
v 326.480957 75.000000 -317.377563
v 322.381195 75.000000 -254.144028
v 317.373962 75.000000 -176.914490
v 349.273346 75.000000 -299.002228
v 346.264526 75.000000 -252.595551
v 25.379713 0.000000 -336.849884
v 16.117811 0.000000 -193.896515
v 36.759670 0.000000 -193.099976
v 29.042150 0.000000 -63.412880
v 110.611435 0.000000 -58.093121
v 108.505821 0.000000 -22.743126
v 220.921631 0.000000 -15.453821
v 231.721283 0.000000 -182.511383
v 317.373962 0.000000 -176.914490
v 322.381195 0.000000 -254.144028
v 346.264526 0.000000 -252.595551
v 349.273346 0.000000 -299.002228
v 325.389984 0.000000 -300.550720
v 326.480957 0.000000 -317.377563
vn 0.0372 0.8169 -0.5756
vn -0.0386 0.8057 0.5910
vn -0.0232 0.7994 0.6004
vn -0.5478 0.8360 -0.0326
vn -0.0381 0.8102 0.5849
vn -0.5406 0.8407 -0.0322
vn -0.0379 0.8106 0.5844
vn 0.6177 0.7854 0.0399
vn -0.5690 0.8215 -0.0369
vn 0.6255 0.7792 0.0406
vn 0.0000 1.0000 0.0000
vn -0.9979 0.0000 -0.0647
vn -0.0386 0.0000 0.9993
vn -0.9982 0.0000 -0.0594
vn -0.0651 0.0000 0.9979
vn -0.9982 0.0000 -0.0595
vn -0.0647 0.0000 0.9979
vn 0.9979 0.0000 0.0645
vn -0.0652 0.0000 0.9979
vn 0.9979 0.0000 0.0647
vn 0.0647 0.0000 -0.9979
vn 0.0645 0.0000 -0.9979
usemtl None
s off
f 1//1 5//1 6//1 9//1 11//1 16//1 18//1
f 14//2 20//2 16//2 11//2
f 4//3 6//3 5//3 2//3
f 3//4 10//4 9//4 6//4 4//4
f 7//5 12//5 10//5 3//5
f 8//6 13//6 12//6 7//6
f 15//7 13//7 8//7
f 15//8 14//8 11//8 9//8 10//8 12//8 13//8
f 2//9 5//9 1//9
f 20//10 19//10 17//10 18//10 16//10
f 19//11 22//11 21//11 17//11
f 23//11 24//11 25//11 26//11 27//11 28//11 29//11 30//11 31//11 32//11 33//11 34//11 35//11 36//11
f 1//12 23//12 24//12 2//12
f 2//13 24//13 25//13 4//13
f 4//14 25//14 26//14 3//14
f 3//15 26//15 27//15 7//15
f 7//16 27//16 28//16 8//16
f 8//17 28//17 29//17 15//17
f 15//18 29//18 30//18 14//18
f 14//19 30//19 31//19 20//19
f 20//20 31//20 32//20 19//20
f 19//17 32//17 33//17 22//17
f 22//20 33//20 34//20 21//20
f 21//21 34//21 35//21 17//21
f 17//20 35//20 36//20 18//20
f 18//22 36//22 23//22 1//22
