# Blender v2.92.0 OBJ File: ''
# www.blender.org
mtllib CG10_500_045068_0023.mtl
o CG10_500_045068_0023
v 16.419357 75.000000 -99.448250
v 200.442764 75.000000 -23.360994
v 152.011017 145.000000 -145.730347
v 57.215588 75.000000 -198.117340
v 39.038982 75.000000 -205.632736
v 55.085960 75.000000 -244.443710
v 73.262558 75.000000 -236.928314
v 234.417297 144.998962 -345.041077
v 357.294708 75.000000 -402.735474
v 173.276550 75.000000 -478.820557
v 16.419357 0.000000 -99.448250
v 200.442764 0.000000 -23.360994
v 357.294708 0.000000 -402.735474
v 173.276550 0.000000 -478.820557
v 73.262558 0.000000 -236.928314
v 55.085960 0.000000 -244.443710
v 39.038982 0.000000 -205.632736
v 57.215588 0.000000 -198.117340
vn 0.5039 -0.8383 0.2083
vn 0.2273 -0.8038 -0.5498
vn 0.5615 0.7943 0.2321
vn 0.2187 0.8200 -0.5290
vn 0.0000 -1.0000 -0.0000
vn 0.0000 1.0000 0.0000
vn -0.3821 0.0000 0.9241
vn 0.9241 0.0000 0.3821
vn 0.3821 0.0000 -0.9241
vn -0.9241 0.0000 -0.3821
usemtl None
s off
f 1//1 4//1 7//1 10//1 8//1 3//1
f 3//2 2//2 1//2
f 2//3 9//3 8//3 3//3
f 9//4 10//4 8//4
f 4//5 5//5 6//5 7//5
f 11//6 12//6 13//6 14//6 15//6 16//6 17//6 18//6
f 1//7 11//7 12//7 2//7
f 2//8 12//8 13//8 9//8
f 9//9 13//9 14//9 10//9
f 10//10 14//10 15//10 7//10
f 7//9 15//9 16//9 6//9
f 6//10 16//10 17//10 5//10
f 5//7 17//7 18//7 4//7
f 4//10 18//10 11//10 1//10
