# Blender v2.92.0 OBJ File: ''
# www.blender.org
mtllib CG10_500_042065_0018_roof.mtl
o CG10_500_042065_0018_roof
v 206.386414 75.000000 -16.568859
v 224.541748 75.000000 -354.757507
v 118.714897 144.491669 -360.497528
v 99.780174 145.000000 -22.253054
v 29.921221 75.000000 -365.219757
v 10.343070 75.000000 -27.115032
v 206.386414 0.000000 -16.568859
v 224.541748 0.000000 -354.757507
v 29.921221 0.000000 -365.219757
v 10.343070 0.000000 -27.115032
vt 0.424600 0.941750
vt 0.505170 0.056289
vt 0.955500 0.071315
vt 0.878240 0.956630
vt 0.127320 0.043927
vt 0.044013 0.929020
vn -0.5475 -0.8363 -0.0294
vn -0.6147 0.7879 -0.0356
vn -0.0537 0.0007 0.9986
vn 0.0537 0.0007 -0.9986
usemtl None
s off
f 4/1/1 3/2/1 2/3/1 1/4/1
f 4/1/2 3/2/2 5/5/2 6/6/2
f 2/3/3 3/2/3 5/5/3
f 6/6/4 4/1/4 1/4/4
