# Blender v2.92.0 OBJ File: ''
# www.blender.org
mtllib CG10_500_038065_0026.mtl
o CG10_500_038065_0026
v 288.578949 75.000000 -108.926956
v 401.355927 75.000000 -41.267834
v 126.809517 75.000000 -207.626587
v 346.775391 114.415680 -74.012566
v 240.385483 75.000000 -139.486069
v 185.050171 115.779480 -172.679184
v 31.331543 75.000000 -331.216156
v 155.728058 75.000000 -256.631561
v 279.228760 75.000000 -204.267349
v 577.924500 75.000000 -25.058435
v 328.160522 75.000000 -174.909683
v 440.873108 75.000000 -107.285355
v 248.926590 116.049126 -280.039612
v 421.280334 114.374374 -198.350983
v 556.587646 121.725761 -131.978088
v 370.157379 121.766899 -243.913834
v 192.856796 145.000000 -369.576630
v 234.305878 144.988434 -344.702576
v 362.927490 137.896698 -280.741272
v 249.743713 137.916016 -348.687225
v 473.575562 75.000000 -272.068878
v 659.202698 75.000000 -160.536285
v 500.446686 75.000000 -316.041534
v 148.904022 75.000000 -527.190491
v 288.578949 0.000000 -108.926956
v 401.355927 0.000000 -41.267834
v 440.873108 0.000000 -107.285355
v 577.924500 0.000000 -25.058435
v 659.202698 0.000000 -160.536285
v 473.575562 0.000000 -272.068878
v 500.446686 0.000000 -316.041534
v 148.904022 0.000000 -527.190491
v 31.331543 0.000000 -331.216156
v 155.728058 0.000000 -256.631561
v 126.809517 0.000000 -207.626587
v 240.385483 0.000000 -139.486069
v 279.228760 0.000000 -204.267349
v 328.160522 0.000000 -174.909683
vn -0.4354 0.8615 -0.2612
vn -0.2657 0.8561 0.4432
vn -0.4433 0.8573 -0.2616
vn -0.4582 -0.8453 -0.2747
vn -0.2578 0.8654 0.4296
vn -0.4307 0.8647 -0.2584
vn 0.4517 0.8502 0.2704
vn -0.4609 -0.8432 -0.2765
vn -0.2664 -0.8559 0.4433
vn -0.4578 -0.8439 -0.2797
vn -0.2720 -0.8490 0.4529
vn 0.5145 0.0000 -0.8575
vn 0.5145 0.0001 -0.8575
vn 0.0000 1.0000 0.0000
vn -0.5145 0.0000 0.8575
vn 0.8580 0.0000 0.5136
vn 0.8575 0.0000 0.5145
vn 0.5150 0.0000 -0.8572
vn 0.8533 0.0000 0.5214
vn 0.5149 0.0000 -0.8573
vn -0.8575 0.0000 -0.5145
vn -0.5142 0.0000 0.8577
vn -0.8612 0.0000 -0.5082
vn 0.8576 0.0000 0.5142
vn -0.8575 0.0000 -0.5144
usemtl None
s off
f 24//1 7//1 17//1
f 7//2 8//2 13//2 18//2 17//2
f 8//3 3//3 6//3 13//3
f 6//4 13//4 18//4 20//4 9//4 5//4
f 9//5 11//5 14//5 12//5 10//5 15//5 16//5 19//5 20//5
f 11//6 1//6 4//6 14//6
f 4//7 2//7 12//7 14//7
f 10//8 15//8 22//8
f 22//9 15//9 16//9 21//9
f 21//10 16//10 19//10 23//10
f 23//11 19//11 20//11 18//11 17//11 24//11
f 1//12 4//12 2//12
f 3//13 6//13 5//13
f 25//14 26//14 27//14 28//14 29//14 30//14 31//14 32//14 33//14 34//14 35//14 36//14 37//14 38//14
f 1//15 25//15 26//15 2//15
f 2//16 26//16 27//16 12//16
f 12//15 27//15 28//15 10//15
f 10//17 28//17 29//17 22//17
f 22//18 29//18 30//18 21//18
f 21//19 30//19 31//19 23//19
f 23//20 31//20 32//20 24//20
f 24//21 32//21 33//21 7//21
f 7//22 33//22 34//22 8//22
f 8//23 34//23 35//23 3//23
f 3//15 35//15 36//15 5//15
f 5//24 36//24 37//24 9//24
f 9//15 37//15 38//15 11//15
f 11//25 38//25 25//25 1//25
