# Blender v2.92.0 OBJ File: ''
# www.blender.org
mtllib CG10_500_042067_0049.mtl
o CG10_500_042067_0049
v 431.583282 75.000000 -12.270902
v 440.815063 75.000000 -237.263657
v 345.009613 144.967453 -147.285400
v 343.420990 145.000000 -109.612617
v 320.798035 126.715912 -172.773529
v 242.438278 75.000000 -20.030388
v 246.201828 75.000000 -106.814240
v 94.637505 126.656479 -182.122620
v 26.782633 75.000000 -254.233002
v 21.120041 75.000000 -116.197739
v 431.583282 0.000000 -12.270902
v 440.815063 0.000000 -237.263657
v 26.782633 0.000000 -254.233002
v 21.120041 0.000000 -116.197739
v 246.201828 0.000000 -106.814240
v 242.438278 0.000000 -20.030388
vn 0.0245 -0.8010 -0.5982
vn -0.6047 -0.7961 -0.0248
vn -0.0245 -0.8016 0.5973
vn 0.5892 -0.8077 0.0242
vn 0.0250 -0.8002 -0.5992
vn 0.5846 -0.8109 0.0254
vn 0.0000 1.0000 0.0000
vn 0.9992 0.0000 0.0410
vn 0.0410 0.0000 -0.9992
vn -0.9992 0.0000 -0.0410
vn -0.0417 0.0000 0.9991
vn -0.9991 0.0000 -0.0433
vn -0.0410 0.0000 0.9992
usemtl None
s off
f 6//1 4//1 1//1
f 1//2 4//2 3//2 2//2
f 2//3 3//3 5//3 8//3 9//3
f 8//4 10//4 9//4
f 10//5 8//5 5//5 7//5
f 6//6 7//6 5//6 3//6 4//6
f 11//7 12//7 13//7 14//7 15//7 16//7
f 1//8 11//8 12//8 2//8
f 2//9 12//9 13//9 9//9
f 9//10 13//10 14//10 10//10
f 10//11 14//11 15//11 7//11
f 7//12 15//12 16//12 6//12
f 6//13 16//13 11//13 1//13
