# Blender v2.92.0 OBJ File: ''
# www.blender.org
mtllib CG10_500_045068_0009.mtl
o CG10_500_045068_0009
v 224.344269 75.000000 -400.361298
v 392.610931 75.000000 -331.874451
v 311.102478 132.461426 -365.049683
v 180.942352 75.000000 -293.712372
v 101.443504 75.000000 -326.067505
v 321.905853 75.000000 -158.156281
v 355.706512 75.000000 -144.499390
v 232.058716 132.458588 -170.832367
v 161.599182 144.999237 -177.229889
v 301.873627 102.979271 -120.944221
v 266.414154 102.942192 -135.331406
v 206.489151 145.000000 -158.958847
v 289.991730 75.000000 -79.745216
v 323.751984 75.000000 -65.989372
v 18.127186 75.000000 -121.365807
v 265.885162 75.000000 -20.516863
v 224.344269 0.000000 -400.361298
v 392.610931 0.000000 -331.874451
v 321.905853 0.000000 -158.156281
v 355.706512 0.000000 -144.499390
v 323.751984 0.000000 -65.989372
v 289.991730 0.000000 -79.745216
v 265.885162 0.000000 -20.516863
v 18.127186 0.000000 -121.365807
v 101.443504 0.000000 -326.067505
v 180.942352 0.000000 -293.712372
vn 0.5223 0.8259 0.2126
vn -0.2070 0.8361 0.5081
vn 0.2077 0.8323 -0.5140
vn 0.5064 0.8373 0.2061
vn 0.1958 0.8546 -0.4810
vn -0.4843 0.8524 -0.1971
vn -0.2080 0.8341 0.5110
vn -0.4914 0.8476 -0.2000
vn 0.3770 -0.0000 -0.9262
vn 0.0000 -1.0000 0.0000
vn -0.3770 0.0000 0.9262
vn -0.9262 0.0000 -0.3770
vn -0.3746 0.0000 0.9272
vn 0.3773 0.0000 -0.9261
vn 0.9262 0.0000 0.3770
vn 0.9262 0.0000 0.3769
usemtl None
s off
f 14//1 7//1 10//1
f 10//2 11//2 13//2 14//2
f 10//3 7//3 6//3 11//3
f 6//4 2//4 3//4 8//4 12//4 16//4 13//4 11//4
f 8//5 4//5 5//5 9//5 12//5
f 8//6 3//6 1//6 4//6
f 15//7 16//7 12//7 9//7
f 9//8 5//8 15//8
f 1//9 3//9 2//9
f 17//10 18//10 19//10 20//10 21//10 22//10 23//10 24//10 25//10 26//10
f 1//11 17//11 18//11 2//11
f 2//12 18//12 19//12 6//12
f 6//13 19//13 20//13 7//13
f 7//12 20//12 21//12 14//12
f 14//14 21//14 22//14 13//14
f 13//12 22//12 23//12 16//12
f 16//9 23//9 24//9 15//9
f 15//15 24//15 25//15 5//15
f 5//11 25//11 26//11 4//11
f 4//16 26//16 17//16 1//16
