# Blender v2.92.0 OBJ File: ''
# www.blender.org
mtllib CG10_500_038071_0036_roof.mtl
o CG10_500_038071_0036_roof
v 188.722168 75.000000 -13.608193
v 11.399679 75.000000 -21.670359
v 103.771263 144.994797 -105.871147
v 195.940552 75.000000 -171.855499
v 234.327469 75.000000 -170.193497
v 107.711128 145.000000 -192.389465
v 146.071838 116.130463 -227.173660
v 185.558517 116.096947 -225.420715
v 239.092102 75.000000 -274.986267
v 23.361845 75.000000 -284.794952
v 188.722168 0.000000 -13.608193
v 11.399679 0.000000 -21.670359
v 23.361845 0.000000 -284.794952
v 239.092102 0.000000 -274.986267
v 234.327469 0.000000 -170.193497
v 195.940552 0.000000 -171.855499
vt 0.093075 0.047509
vt 0.429130 0.356560
vt 0.581960 0.240220
vt 0.739280 0.246080
vt 0.952560 0.080313
vt 0.933580 0.430790
vt 0.780640 0.425230
vt 0.413430 0.645920
vt 0.045417 0.927520
vt 0.751880 0.954490
vn 0.0282 0.7842 -0.6198
vn 0.6251 0.7800 0.0284
vn -0.0265 0.7906 0.6117
vn 0.6199 -0.7842 0.0282
vn 0.6173 0.7863 0.0282
vn -0.0282 0.7837 0.6205
usemtl None
s off
f 10/1/1 6/2/1 7/3/1 8/4/1 9/5/1
f 9/5/2 8/4/2 5/6/2
f 8/4/3 7/3/3 4/7/3 5/6/3
f 6/2/4 3/8/4 2/9/4 10/1/4
f 4/7/5 7/3/5 6/2/5 3/8/5 1/10/5
f 3/8/6 2/9/6 1/10/6
