# Blender v2.92.0 OBJ File: ''
# www.blender.org
mtllib CG10_500_048076_0024.mtl
o CG10_500_048076_0024
v 285.210602 75.000000 -12.414339
v 181.716904 75.000000 -17.946493
v 237.903595 117.419250 -63.379093
v 14.239269 75.000000 -76.995148
v 184.413208 75.000000 -67.890472
v 240.639084 117.400986 -114.477654
v 209.900726 145.000000 -148.404129
v 106.649582 144.996170 -153.923813
v 296.897491 75.000000 -232.456070
v 23.330061 75.000000 -247.067795
v 285.210602 0.000000 -12.414339
v 181.716904 0.000000 -17.946493
v 184.413208 0.000000 -67.890472
v 14.239269 0.000000 -76.995148
v 23.330061 0.000000 -247.067795
v 296.897491 0.000000 -232.456070
vn 0.6209 -0.7832 0.0332
vn 0.0347 -0.7596 -0.6494
vn -0.6193 0.7845 -0.0334
vn 0.0352 -0.7518 -0.6584
vn -0.6464 -0.7622 -0.0343
vn -0.0331 -0.7846 0.6192
vn 0.0000 -1.0000 0.0000
vn 0.0534 0.0000 -0.9986
vn 0.9985 0.0000 0.0539
vn 0.9986 0.0000 0.0534
vn -0.0533 0.0000 0.9986
vn -0.9986 0.0000 -0.0530
usemtl None
s off
f 10//1 8//1 4//1
f 4//2 8//2 7//2 6//2 5//2
f 6//3 5//3 2//3 3//3
f 2//4 3//4 1//4
f 1//5 3//5 6//5 7//5 9//5
f 9//6 7//6 8//6 10//6
f 11//7 12//7 13//7 14//7 15//7 16//7
f 1//8 11//8 12//8 2//8
f 2//9 12//9 13//9 5//9
f 5//8 13//8 14//8 4//8
f 4//10 14//10 15//10 10//10
f 10//11 15//11 16//11 9//11
f 9//12 16//12 11//12 1//12
