# Blender v2.92.0 OBJ File: ''
# www.blender.org
mtllib CG10_500_036062_0018.mtl
o CG10_500_036062_0018
v 46.998878 75.000000 -420.041077
v 16.040789 75.000000 -31.239027
v 92.433891 120.239983 -141.378998
v 89.031860 120.504158 -93.693642
v 103.459839 123.699554 -214.907959
v 113.179237 123.654640 -337.816864
v 132.404892 145.000000 -178.560287
v 145.058640 144.968826 -177.603256
v 158.294586 75.000000 -63.492252
v 155.574066 75.000000 -20.089209
v 183.035858 123.954636 -208.168488
v 204.440506 75.000000 -407.452148
v 194.873077 75.000000 -285.470947
v 220.863373 75.000000 -283.402954
v 221.006882 75.000000 -288.019104
v 250.988998 99.233864 -285.631439
v 248.754486 98.484627 -243.648132
v 265.152313 123.903992 -201.715530
v 256.564697 75.000000 -56.451454
v 260.910553 75.000000 -121.284554
v 287.203674 75.000000 -282.731689
v 286.837097 75.000000 -278.153473
v 353.638000 75.000000 -272.838196
v 341.023041 75.000000 -115.070671
v 46.998878 0.000000 -420.041077
v 16.040789 0.000000 -31.239027
v 155.574066 0.000000 -20.089209
v 158.294586 0.000000 -63.492252
v 256.564697 0.000000 -56.451454
v 260.910553 0.000000 -121.284554
v 341.023041 0.000000 -115.070671
v 353.638000 0.000000 -272.838196
v 286.837097 0.000000 -278.153473
v 287.203674 0.000000 -282.731689
v 221.006882 0.000000 -288.019104
v 220.863373 0.000000 -283.402954
v 194.873077 0.000000 -285.470947
v 204.440506 0.000000 -407.452148
vn -0.0443 0.8314 0.5540
vn -0.5384 -0.8420 -0.0338
vn -0.5531 -0.8319 -0.0443
vn 0.5046 0.8627 0.0338
vn -0.0377 0.8499 0.5255
vn 0.5081 0.8603 0.0406
vn 0.0422 0.8470 -0.5299
vn -0.6276 0.7783 -0.0195
vn -0.0427 -0.8444 0.5340
vn 0.4929 0.8692 0.0387
vn 0.5555 -0.8303 0.0442
vn -0.0401 0.8547 0.5176
vn -0.0796 0.0003 0.9968
vn 0.0000 1.0000 0.0000
vn -0.9968 0.0000 -0.0794
vn -0.0797 0.0000 0.9968
vn 0.9980 0.0000 0.0626
vn -0.0715 0.0000 0.9974
vn 0.9978 0.0000 0.0669
vn -0.0773 0.0000 0.9970
vn 0.9968 0.0000 0.0797
vn 0.0793 0.0000 -0.9968
vn 0.9968 0.0000 0.0798
vn 0.0796 0.0000 -0.9968
vn -0.9995 0.0000 -0.0311
vn 0.9969 0.0000 0.0782
vn 0.0797 0.0000 -0.9968
usemtl None
s off
f 2//1 10//1 4//1
f 4//2 3//2 9//2 10//2
f 16//3 21//3 22//3 17//3
f 19//4 20//4 11//4 8//4
f 9//5 19//5 8//5 7//5 3//5
f 18//6 24//6 23//6
f 7//7 8//7 11//7 18//7 23//7 22//7 17//7 14//7 13//7 5//7
f 14//8 17//8 16//8 15//8
f 1//9 12//9 6//9
f 6//10 5//10 13//10 12//10
f 1//11 6//11 5//11 7//11 3//11 4//11 2//11
f 20//12 24//12 18//12 11//12
f 21//13 16//13 15//13
f 25//14 26//14 27//14 28//14 29//14 30//14 31//14 32//14 33//14 34//14 35//14 36//14 37//14 38//14
f 1//15 25//15 26//15 2//15
f 2//16 26//16 27//16 10//16
f 10//17 27//17 28//17 9//17
f 9//18 28//18 29//18 19//18
f 19//19 29//19 30//19 20//19
f 20//20 30//20 31//20 24//20
f 24//21 31//21 32//21 23//21
f 23//22 32//22 33//22 22//22
f 22//23 33//23 34//23 21//23
f 21//24 34//24 35//24 15//24
f 15//25 35//25 36//25 14//25
f 14//22 36//22 37//22 13//22
f 13//26 37//26 38//26 12//26
f 12//27 38//27 25//27 1//27
