# Blender v2.92.0 OBJ File: ''
# www.blender.org
mtllib CG10_500_049069_0021.mtl
o CG10_500_049069_0021
v 9.758648 75.000000 -22.631170
v 117.999550 75.000000 -14.502247
v 119.166359 75.000000 -44.995583
v 229.529739 75.000000 -37.576946
v 73.908569 145.000000 -65.719604
v 190.774139 143.605820 -124.869873
v 77.430275 143.524475 -132.388443
v 24.578140 75.000000 -228.105423
v 120.744987 75.000000 -221.819183
v 242.797607 75.000000 -213.840866
v 126.994522 75.000000 -305.930511
v 32.245743 75.000000 -313.149017
v 9.758648 0.000000 -22.631170
v 117.999550 0.000000 -14.502247
v 119.166359 0.000000 -44.995583
v 229.529739 0.000000 -37.576946
v 242.797607 0.000000 -213.840866
v 120.744987 0.000000 -221.819183
v 126.994522 0.000000 -305.930511
v 32.245743 0.000000 -313.149017
vn 0.0000 1.0000 -0.0000
vn 0.0389 0.8022 -0.5958
vn -0.8327 -0.5502 -0.0627
vn 0.0423 -0.7763 -0.6289
vn -0.8350 -0.5493 -0.0320
vn 0.0619 -0.5637 -0.8237
vn 0.7526 -0.6563 0.0543
vn -0.0749 0.0000 0.9972
vn 0.9993 0.0000 0.0382
vn -0.0671 0.0000 0.9977
vn 0.9972 0.0000 0.0751
vn 0.0652 0.0000 -0.9979
vn 0.9973 0.0000 0.0741
vn 0.0760 0.0000 -0.9971
vn -0.9970 0.0000 -0.0772
usemtl None
s off
f 9//1 11//1 12//1 8//1
f 8//2 7//2 6//2 10//2 9//2
f 10//3 4//3 6//3
f 4//4 3//4 7//4 6//4
f 3//5 2//5 5//5 7//5
f 2//6 1//6 5//6
f 1//7 8//7 7//7 5//7
f 12//1 8//1 1//1
f 13//1 14//1 15//1 16//1 17//1 18//1 19//1 20//1
f 1//8 13//8 14//8 2//8
f 2//9 14//9 15//9 3//9
f 3//10 15//10 16//10 4//10
f 4//11 16//11 17//11 10//11
f 10//12 17//12 18//12 9//12
f 9//13 18//13 19//13 11//13
f 11//14 19//14 20//14 12//14
f 12//15 20//15 13//15 1//15
