# Blender v2.92.0 OBJ File: ''
# www.blender.org
mtllib CG10_500_041072_0013.mtl
o CG10_500_041072_0013
v 255.303162 75.000000 -19.227894
v 13.851837 75.000000 -118.973045
v 195.048859 116.016617 -113.020332
v 225.287537 116.031677 -100.553833
v 153.470428 145.000000 -178.883850
v 173.358627 144.975021 -170.625946
v 302.257050 75.000000 -132.917343
v 273.156006 75.000000 -144.892212
v 129.654678 116.547905 -234.294617
v 307.275543 75.000000 -226.591873
v 210.875427 75.000000 -266.812317
v 165.715302 116.613167 -321.371185
v 247.064331 75.000000 -353.941681
v 130.710831 75.000000 -401.996094
v 255.303162 0.000000 -19.227894
v 13.851837 0.000000 -118.973045
v 130.710831 0.000000 -401.996094
v 247.064331 0.000000 -353.941681
v 210.875427 0.000000 -266.812317
v 307.275543 0.000000 -226.591873
v 273.156006 0.000000 -144.892212
v 302.257050 0.000000 -132.917343
vn -0.2067 0.8407 0.5005
vn 0.5290 0.8200 0.2185
vn 0.2167 0.8220 -0.5267
vn 0.5220 0.8246 0.2180
vn 0.2161 0.8277 -0.5179
vn 0.5111 0.8329 0.2123
vn 0.2147 0.8268 -0.5200
vn -0.5087 0.8349 -0.2101
vn 0.0000 -1.0000 0.0000
vn 0.3818 0.0000 -0.9242
vn 0.9243 0.0000 0.3816
vn -0.3817 0.0000 0.9243
vn -0.9235 0.0000 -0.3836
vn -0.3851 0.0000 0.9229
vn -0.9228 0.0000 -0.3854
vn -0.3805 0.0000 0.9248
vn -0.9243 0.0000 -0.3817
usemtl None
s off
f 2//1 1//1 4//1 3//1 6//1 5//1
f 1//2 7//2 4//2
f 4//3 7//3 8//3 3//3
f 8//4 10//4 6//4 3//4
f 6//5 10//5 11//5 9//5 5//5
f 11//6 13//6 12//6 9//6
f 12//7 13//7 14//7
f 2//8 5//8 9//8 12//8 14//8
f 15//9 16//9 17//9 18//9 19//9 20//9 21//9 22//9
f 1//10 15//10 16//10 2//10
f 2//11 16//11 17//11 14//11
f 14//12 17//12 18//12 13//12
f 13//13 18//13 19//13 11//13
f 11//14 19//14 20//14 10//14
f 10//15 20//15 21//15 8//15
f 8//16 21//16 22//16 7//16
f 7//17 22//17 15//17 1//17
