# Blender v2.92.0 OBJ File: ''
# www.blender.org
mtllib CG10_500_041067_0049_roof.mtl
o CG10_500_041067_0049_roof
v 148.913498 75.000000 -350.237213
v 89.616058 118.532913 -353.758362
v 31.124846 75.000000 -357.221466
v 222.778259 75.000000 -335.831177
v 148.053940 75.000000 -340.693085
v 84.488914 117.749977 -284.924591
v 238.664795 75.000000 -262.206055
v 218.472351 75.000000 -263.402649
v 118.839691 145.000000 -244.504913
v 234.526718 75.000000 -192.374893
v 214.320908 75.000000 -193.572281
v 115.358635 144.993591 -185.799393
v 73.862259 115.853035 -148.508255
v 207.776672 75.000000 -83.493568
v 125.674065 75.000000 -88.936790
v 69.117729 115.556419 -75.057411
v 120.606125 75.000000 -16.671085
v 11.364100 75.000000 -23.140917
v 148.913498 0.000000 -350.237213
v 31.124846 0.000000 -357.221466
v 11.364100 0.000000 -23.140917
v 120.606125 0.000000 -16.671085
v 125.674065 0.000000 -88.936790
v 207.776672 0.000000 -83.493568
v 214.320908 0.000000 -193.572281
v 234.526718 0.000000 -192.374893
v 238.664795 0.000000 -262.206055
v 218.472351 0.000000 -263.402649
v 222.778259 0.000000 -335.831177
v 148.053940 0.000000 -340.693085
vt 0.045639 0.937960
vt 0.484360 0.955310
vt 0.277580 0.798770
vt 0.504720 0.761560
vt 0.296640 0.601850
vt 0.834440 0.776160
vt 0.463290 0.501880
vt 0.860730 0.481040
vt 0.877400 0.293830
vt 0.894690 0.099648
vt 0.477270 0.344490
vt 0.941870 0.484250
vt 0.958490 0.297030
vt 0.339310 0.236130
vt 0.359900 0.051586
vt 0.125000 0.042302
vt 0.594590 0.086614
vt 0.598050 0.061026
vn -0.0350 0.8061 0.5908
vn 0.5889 0.8071 0.0413
vn -0.0390 0.8079 0.5880
vn 0.5789 0.8147 0.0344
vn 0.0000 1.0000 0.0000
vn -0.5953 0.8027 -0.0352
vn 0.5889 0.8065 0.0530
vn 0.0378 0.8134 -0.5805
vn -0.0592 0.0001 0.9982
usemtl None
s off
f 18/1/1 17/2/1 16/3/1
f 17/2/2 15/4/2 13/5/2 16/3/2
f 15/4/3 14/6/3 12/7/3 13/5/3
f 14/6/4 11/8/4 8/9/4 4/10/4 9/11/4 12/7/4
f 11/8/5 10/12/5 7/13/5 8/9/5
f 18/1/6 16/3/6 13/5/6 12/7/6 9/11/6 6/14/6 2/15/6 3/16/6
f 2/15/7 6/14/7 5/17/7 1/18/7
f 5/17/8 6/14/8 9/11/8 4/10/8
f 1/18/9 2/15/9 3/16/9
