# Blender v2.92.0 OBJ File: ''
# www.blender.org
mtllib CG10_500_043071_0001.mtl
o CG10_500_043071_0001
v 26.639915 75.000000 -188.448990
v 31.586695 75.000000 -232.031860
v 84.941658 75.000000 -243.250717
v 83.006371 75.000000 -226.195587
v 78.060890 75.000000 -182.612564
v 68.204338 75.000000 -95.749695
v 146.759918 132.157654 -161.845367
v 230.164154 75.000000 -78.533302
v 226.393158 75.000000 -39.424343
v 308.682037 131.701950 -144.039429
v 323.781158 145.000000 -125.018562
v 402.529358 144.977493 -116.099815
v 446.811737 115.358902 -149.611649
v 495.291473 114.942276 -144.645142
v 496.494019 75.000000 -86.688492
v 488.946655 75.000000 -9.792020
v 558.457886 75.000000 -189.445755
v 546.272583 75.000000 -82.208496
v 26.639915 0.000000 -188.448990
v 31.586695 0.000000 -232.031860
v 83.006371 0.000000 -226.195587
v 84.941658 0.000000 -243.250717
v 558.457886 0.000000 -189.445755
v 546.272583 0.000000 -82.208496
v 496.494019 0.000000 -86.688492
v 488.946655 0.000000 -9.792020
v 226.393158 0.000000 -39.424343
v 230.164154 0.000000 -78.533302
v 68.204338 0.000000 -95.749695
v 78.060890 0.000000 -182.612564
vn 0.6252 -0.7772 0.0709
vn -0.0646 0.7915 0.6077
vn 0.6165 -0.7851 0.0594
vn -0.0661 0.8079 0.5855
vn 0.5847 0.8092 0.0574
vn -0.0511 0.8218 0.5674
vn 0.5655 0.8222 0.0643
vn 0.0691 0.7910 -0.6079
vn 0.0000 -1.0000 -0.0000
vn 0.9936 0.0000 0.1128
vn -0.1128 0.0000 0.9936
vn 0.9936 0.0000 0.1127
vn -0.1129 0.0000 0.9936
vn -0.9936 0.0000 -0.1129
vn 0.0896 0.0000 -0.9960
vn -0.9952 0.0000 -0.0977
vn 0.1122 0.0000 -0.9937
vn 0.9954 0.0000 0.0960
vn 0.1057 0.0000 -0.9944
vn 0.1128 0.0000 -0.9936
usemtl None
s off
f 6//1 5//1 4//1 3//1 7//1
f 6//2 8//2 10//2 7//2
f 9//3 8//3 10//3 11//3
f 9//4 16//4 12//4 11//4
f 16//5 15//5 13//5 12//5
f 15//6 18//6 14//6 13//6
f 18//7 17//7 14//7
f 17//8 3//8 7//8 10//8 11//8 12//8 13//8 14//8
f 5//9 1//9 2//9 4//9
f 19//9 20//9 21//9 22//9 23//9 24//9 25//9 26//9 27//9 28//9 29//9 30//9
f 1//10 19//10 20//10 2//10
f 2//11 20//11 21//11 4//11
f 4//12 21//12 22//12 3//12
f 3//13 22//13 23//13 17//13
f 17//14 23//14 24//14 18//14
f 18//15 24//15 25//15 15//15
f 15//16 25//16 26//16 16//16
f 16//17 26//17 27//17 9//17
f 9//18 27//18 28//18 8//18
f 8//19 28//19 29//19 6//19
f 6//12 29//12 30//12 5//12
f 5//20 30//20 19//20 1//20
