# Blender v2.92.0 OBJ File: ''
# www.blender.org
mtllib CG10_500_038069_0011.mtl
o CG10_500_038069_0011
v 203.214920 75.000000 -15.863626
v 10.488535 75.000000 -27.083519
v 100.674118 145.000000 -21.830877
v 219.993271 75.000000 -308.262909
v 27.516567 75.000000 -319.468597
v 117.585587 144.909317 -314.227234
v 203.214920 0.000000 -15.863626
v 10.488535 0.000000 -27.083519
v 27.516567 0.000000 -319.468597
v 219.993271 0.000000 -308.262909
vn 0.6115 -0.7905 0.0356
vn -0.5622 -0.8263 -0.0323
vn -0.0581 -0.0000 0.9983
vn 0.0581 -0.0000 -0.9983
vn 0.0000 -1.0000 0.0000
vn 0.9983 0.0000 0.0581
vn -0.9984 0.0000 -0.0573
usemtl None
s off
f 2//1 5//1 6//1 3//1
f 3//2 6//2 4//2 1//2
f 1//3 3//3 2//3
f 5//4 6//4 4//4
f 7//5 8//5 9//5 10//5
f 1//4 7//4 8//4 2//4
f 2//6 8//6 9//6 5//6
f 5//3 9//3 10//3 4//3
f 4//7 10//7 7//7 1//7
