# Blender v2.92.0 OBJ File: ''
# www.blender.org
mtllib CG10_500_047073_0008.mtl
o CG10_500_047073_0008
v 337.582794 75.000000 -336.760376
v 37.333172 75.000000 -355.704285
v 275.850067 121.037636 -278.151459
v 165.267227 121.784180 -284.115021
v 133.854385 145.000000 -254.577728
v 329.719513 75.922585 -212.141876
v 219.452057 75.881943 -216.981567
v 326.697784 75.000000 -164.207855
v 217.677246 75.000000 -171.085037
v 126.095032 144.996704 -131.594879
v 87.898636 120.388138 -99.513535
v 87.093071 120.381111 -86.898582
v 208.646057 75.000000 -28.023851
v 144.473770 75.000000 -32.158386
v 16.530422 75.000000 -25.775635
v 143.543930 75.000000 -17.763363
v 337.582794 0.000000 -336.760376
v 37.333172 0.000000 -355.704285
v 16.530422 0.000000 -25.775635
v 143.543930 0.000000 -17.763363
v 144.473770 0.000000 -32.158386
v 208.646057 0.000000 -28.023851
v 217.677246 0.000000 -171.085037
v 326.697784 0.000000 -164.207855
vn 0.0359 -0.8218 -0.5687
vn -0.5970 -0.8013 -0.0386
vn 0.0374 -0.8139 -0.5798
vn -0.6173 -0.7857 -0.0390
vn 0.0012 -0.9998 -0.0192
vn 0.0257 -0.8154 -0.5783
vn -0.6175 -0.7859 -0.0331
vn -0.0374 -0.8046 0.5926
vn 0.5621 -0.8263 0.0354
vn -0.9980 -0.0023 -0.0630
vn 0.0000 1.0000 0.0000
vn 0.0630 0.0000 -0.9980
vn -0.9980 0.0000 -0.0629
vn -0.0630 0.0000 0.9980
vn 0.9979 0.0000 0.0645
vn -0.0643 0.0000 0.9979
vn 0.9980 0.0000 0.0630
usemtl None
s off
f 15//1 12//1 16//1
f 16//2 12//2 11//2 14//2
f 14//3 11//3 10//3 13//3
f 13//4 10//4 5//4 4//4 7//4 9//4
f 6//5 8//5 9//5 7//5
f 6//6 7//6 4//6 3//6
f 6//7 3//7 1//7
f 1//8 3//8 4//8 5//8 2//8
f 2//9 5//9 10//9 11//9 12//9 15//9
f 8//10 6//10 1//10
f 17//11 18//11 19//11 20//11 21//11 22//11 23//11 24//11
f 1//12 17//12 18//12 2//12
f 2//13 18//13 19//13 15//13
f 15//14 19//14 20//14 16//14
f 16//15 20//15 21//15 14//15
f 14//16 21//16 22//16 13//16
f 13//17 22//17 23//17 9//17
f 9//14 23//14 24//14 8//14
f 8//17 24//17 17//17 1//17
