# Blender v2.92.0 OBJ File: ''
# www.blender.org
mtllib CG10_500_048067_0013.mtl
o CG10_500_048067_0013
v 353.032379 75.000000 -172.186844
v 346.374512 75.000000 -54.641617
v 331.274170 75.000000 -54.177803
v 328.154205 75.000000 -9.248960
v 289.835205 126.861137 -114.765030
v 272.373596 127.504417 -114.995995
v 249.998337 145.000000 -95.684196
v 106.411018 144.966431 -103.844421
v 26.527409 75.000000 -190.652710
v 17.256348 75.000000 -27.002752
v 353.032379 0.000000 -172.186844
v 346.374512 0.000000 -54.641617
v 331.274170 0.000000 -54.177803
v 328.154205 0.000000 -9.248960
v 17.256348 0.000000 -27.002752
v 26.527409 0.000000 -190.652710
vn 0.0371 -0.7599 -0.6489
vn -0.6388 -0.7681 -0.0444
vn -0.0197 -0.7662 -0.6423
vn -0.6538 -0.7557 -0.0370
vn -0.0366 -0.7613 0.6473
vn 0.6360 -0.7708 0.0360
vn 0.0000 -1.0000 0.0000
vn -0.9984 0.0000 -0.0566
vn -0.0307 0.0000 -0.9995
vn -0.9976 0.0000 -0.0693
vn 0.0570 0.0000 -0.9984
vn 0.9984 0.0000 0.0566
vn -0.0565 0.0000 0.9984
usemtl None
s off
f 10//1 8//1 7//1 4//1
f 4//2 7//2 6//2 3//2
f 3//3 6//3 5//3 2//3
f 2//4 5//4 1//4
f 1//5 5//5 6//5 7//5 8//5 9//5
f 9//6 8//6 10//6
f 11//7 12//7 13//7 14//7 15//7 16//7
f 1//8 11//8 12//8 2//8
f 2//9 12//9 13//9 3//9
f 3//10 13//10 14//10 4//10
f 4//11 14//11 15//11 10//11
f 10//12 15//12 16//12 9//12
f 9//13 16//13 11//13 1//13
