# Blender v2.92.0 OBJ File: ''
# www.blender.org
mtllib CG10_500_034060_0011_roof.mtl
o CG10_500_034060_0011_roof
v 326.488098 75.000000 -255.105621
v 314.646423 75.000000 -80.467407
v 228.861740 144.912491 -165.462601
v 132.155380 75.000000 -14.301382
v 137.180862 75.000000 -91.867638
v 126.035004 75.000000 -268.360687
v 128.704224 75.000000 -305.575012
v 112.355934 145.000000 -173.046326
v 72.198547 121.165344 -18.365955
v 80.778145 121.017334 -147.808624
v 76.563187 111.564613 -259.437561
v 73.929863 111.505714 -221.627029
v 14.964986 75.000000 -22.246931
v 34.579891 75.000000 -311.957428
v 326.488098 0.000000 -255.105621
v 314.646423 0.000000 -80.467407
v 137.180862 0.000000 -91.867638
v 132.155380 0.000000 -14.301382
v 14.964986 0.000000 -22.246931
v 34.579891 0.000000 -311.957428
v 128.704224 0.000000 -305.575012
v 126.035004 0.000000 -268.360687
vt 0.043630 0.931760
vt 0.210490 0.943660
vt 0.235500 0.546600
vt 0.327570 0.469180
vt 0.215540 0.320160
vt 0.223220 0.204180
vt 0.100820 0.043075
vt 0.375230 0.062653
vt 0.367450 0.176810
vt 0.667240 0.492450
vt 0.951860 0.217470
vt 0.917340 0.753170
vt 0.399940 0.718200
vt 0.385290 0.956130
vn -0.6255 0.7791 -0.0424
vn 0.0402 0.8047 -0.5923
vn 0.5988 0.7997 0.0430
vn 0.0389 0.8080 -0.5879
vn 0.6064 0.7941 0.0411
vn -0.6079 -0.7930 -0.0394
vn -0.0424 0.7502 0.6599
vn -0.0676 -0.0000 0.9977
usemtl None
s off
f 13/1/1 9/2/1 10/3/1 8/4/1 12/5/1 11/6/1 14/7/1
f 14/7/2 11/6/2 7/8/2
f 7/8/3 11/6/3 12/5/3 6/9/3
f 6/9/4 12/5/4 8/4/4 3/10/4 1/11/4
f 1/11/5 3/10/5 2/12/5
f 9/2/6 10/3/6 5/13/6 4/14/6
f 5/13/7 2/12/7 3/10/7 8/4/7 10/3/7
f 4/14/8 9/2/8 13/1/8
