# Blender v2.92.0 OBJ File: ''
# www.blender.org
mtllib CG10_500_038058_0004.mtl
o CG10_500_038058_0004
v 292.108978 75.000000 -9.670584
v 14.787454 75.000000 -25.827858
v 102.798218 144.998001 -110.519753
v 209.519043 145.000000 -104.304565
v 302.118988 75.000000 -181.496704
v 24.796635 75.000000 -197.641205
v 292.108978 0.000000 -9.670584
v 14.787454 0.000000 -25.827858
v 24.796635 0.000000 -197.641205
v 302.118988 0.000000 -181.496704
vn 0.0358 -0.7883 -0.6143
vn -0.6217 -0.7824 -0.0362
vn -0.0376 -0.7623 0.6461
vn 0.6439 -0.7642 0.0375
vn 0.0000 -1.0000 0.0000
vn 0.0582 0.0000 -0.9983
vn 0.9983 0.0000 0.0582
vn -0.0581 0.0000 0.9983
vn -0.9983 0.0000 -0.0582
usemtl None
s off
f 2//1 3//1 4//1 1//1
f 1//2 4//2 5//2
f 5//3 4//3 3//3 6//3
f 6//4 3//4 2//4
f 7//5 8//5 9//5 10//5
f 1//6 7//6 8//6 2//6
f 2//7 8//7 9//7 6//7
f 6//8 9//8 10//8 5//8
f 5//9 10//9 7//9 1//9
