# Blender v2.92.0 OBJ File: ''
# www.blender.org
mtllib CG10_500_038059_0055.mtl
o CG10_500_038059_0055
v 195.037048 75.000000 -14.052661
v 213.746567 75.000000 -296.561310
v 141.027390 75.000000 -302.703613
v 137.428467 75.000000 -312.376404
v 97.535469 145.000000 -112.533836
v 103.922684 144.997711 -208.927689
v 75.310860 118.533066 -247.984009
v 74.099983 116.807350 -260.409363
v 9.291298 75.000000 -26.295631
v 28.723085 75.000000 -319.429626
v 195.037048 0.000000 -14.052661
v 213.746567 0.000000 -296.561310
v 141.027390 0.000000 -302.703613
v 137.428467 0.000000 -312.376404
v 28.723085 0.000000 -319.429626
v 9.291298 0.000000 -26.295631
vn 0.0388 0.8011 -0.5973
vn 0.4451 0.8800 -0.1656
vn 0.0494 0.8097 -0.5848
vn 0.5579 0.8291 0.0369
vn -0.0399 0.7954 0.6048
vn -0.6463 0.7619 -0.0428
vn 0.0000 1.0000 0.0000
vn 0.9978 0.0000 0.0661
vn 0.0842 0.0000 -0.9965
vn 0.9372 0.0000 -0.3487
vn 0.0647 0.0000 -0.9979
vn -0.9978 0.0000 -0.0661
vn -0.0658 0.0000 0.9978
usemtl None
s off
f 10//1 8//1 4//1
f 4//2 8//2 7//2 3//2
f 3//3 7//3 6//3 2//3
f 2//4 6//4 5//4 1//4
f 1//5 5//5 9//5
f 9//6 5//6 6//6 7//6 8//6 10//6
f 11//7 12//7 13//7 14//7 15//7 16//7
f 1//8 11//8 12//8 2//8
f 2//9 12//9 13//9 3//9
f 3//10 13//10 14//10 4//10
f 4//11 14//11 15//11 10//11
f 10//12 15//12 16//12 9//12
f 9//13 16//13 11//13 1//13
