# Blender v2.92.0 OBJ File: ''
# www.blender.org
mtllib CG10_500_041072_0031.mtl
o CG10_500_041072_0031
v 110.193489 75.000000 -18.435350
v 14.598234 75.000000 -58.649212
v 83.978966 116.954704 -87.281792
v 143.960358 75.000000 -99.328392
v 207.101013 75.000000 -72.881668
v 117.795097 116.854309 -167.977814
v 164.372284 145.000000 -187.263443
v 196.520035 144.998535 -263.672913
v 177.308090 117.259827 -308.103699
v 184.202179 116.968597 -325.434570
v 243.098511 75.000000 -335.995880
v 306.608337 75.000000 -309.406647
v 249.303726 75.000000 -352.507904
v 154.947418 75.000000 -392.213470
v 110.193489 0.000000 -18.435350
v 14.598234 0.000000 -58.649212
v 154.947418 0.000000 -392.213470
v 249.303726 0.000000 -352.507904
v 243.098511 0.000000 -335.995880
v 306.608337 0.000000 -309.406647
v 207.101013 0.000000 -72.881668
v 143.960358 0.000000 -99.328392
vn -0.5919 -0.7747 -0.2224
vn -0.2488 -0.7672 0.5912
vn 0.2460 0.7708 -0.5876
vn -0.5912 -0.7672 -0.2487
vn -0.2388 0.7860 0.5702
vn -0.5883 -0.7705 -0.2456
vn -0.2398 0.7857 0.5702
vn -0.5731 0.7832 -0.2411
vn 0.0000 -1.0000 0.0000
vn 0.3878 0.0000 -0.9218
vn 0.9217 0.0000 0.3878
vn -0.3879 0.0000 0.9217
vn -0.9361 0.0000 -0.3518
vn -0.3862 0.0000 0.9224
vn -0.9217 0.0000 -0.3878
vn 0.3863 0.0000 -0.9224
vn -0.9228 0.0000 -0.3852
usemtl None
s off
f 10//1 13//1 11//1 9//1
f 14//2 13//2 10//2
f 12//3 11//3 9//3 8//3
f 5//4 7//4 8//4 12//4
f 4//5 5//5 7//5 6//5
f 1//6 3//6 6//6 4//6
f 2//7 1//7 3//7
f 2//8 3//8 6//8 7//8 8//8 9//8 10//8 14//8
f 15//9 16//9 17//9 18//9 19//9 20//9 21//9 22//9
f 1//10 15//10 16//10 2//10
f 2//11 16//11 17//11 14//11
f 14//12 17//12 18//12 13//12
f 13//13 18//13 19//13 11//13
f 11//14 19//14 20//14 12//14
f 12//15 20//15 21//15 5//15
f 5//16 21//16 22//16 4//16
f 4//17 22//17 15//17 1//17
