# Blender v2.92.0 OBJ File: ''
# www.blender.org
mtllib CG10_500_042067_0007_roof.mtl
o CG10_500_042067_0007_roof
v 179.356155 75.000000 -15.854427
v 193.614960 75.000000 -326.446747
v 104.903122 145.000000 -278.726196
v 95.256142 144.981064 -68.081223
v 24.136204 75.000000 -334.194550
v 9.944973 75.000000 -23.599129
v 179.356155 0.000000 -15.854427
v 193.614960 0.000000 -326.446747
v 24.136204 0.000000 -334.194550
v 9.944973 0.000000 -23.599129
vt 0.049233 0.932190
vt 0.119490 0.039671
vt 0.519320 0.199060
vt 0.471570 0.804360
vt 0.958490 0.061935
vt 0.887900 0.954440
vn 0.6431 -0.7653 0.0294
vn -0.0367 -0.5943 0.8034
vn -0.6287 -0.7771 -0.0289
vn 0.0376 -0.5683 -0.8220
usemtl None
s off
f 6/1/1 5/2/1 3/3/1 4/4/1
f 3/3/2 5/2/2 2/5/2
f 1/6/3 4/4/3 3/3/3 2/5/3
f 6/1/4 4/4/4 1/6/4
