# Blender v2.92.0 OBJ File: ''
# www.blender.org
mtllib CG10_500_044067_0042_roof.mtl
o CG10_500_044067_0042_roof
v 338.169342 75.000000 -238.686371
v 245.559631 75.000000 -22.716269
v 214.041260 122.256737 -98.412285
v 236.654709 122.321259 -151.351639
v 221.839020 145.000000 -188.401764
v 133.916931 75.000000 -70.595276
v 225.466568 75.000000 -286.860596
v 155.889572 75.000000 -122.247398
v 281.125916 75.000000 -416.859863
v 132.369553 144.865341 -226.837463
v 125.339737 134.352844 -244.861572
v 180.851471 134.265747 -374.234528
v 15.263347 75.000000 -182.945923
v 141.587051 75.000000 -476.701904
v 338.169342 0.000000 -238.686371
v 245.559631 0.000000 -22.716269
v 133.916931 0.000000 -70.595276
v 155.889572 0.000000 -122.247398
v 15.263347 0.000000 -182.945923
v 141.587051 0.000000 -476.701904
v 281.125916 0.000000 -416.859863
v 225.466568 0.000000 -286.860596
vt 0.510880 0.251530
vt 0.399960 0.046596
vt 0.794140 0.166280
vt 0.636910 0.426280
vt 0.354070 0.510280
vt 0.373930 0.546330
vt 0.043117 0.634110
vt 0.955280 0.522630
vt 0.626660 0.623200
vt 0.693670 0.954570
vt 0.604640 0.803180
vt 0.668520 0.697300
vt 0.378300 0.858810
vt 0.440370 0.755510
vn -0.2371 -0.7988 0.5529
vn -0.5681 -0.7862 -0.2432
vn 0.5624 -0.7907 0.2418
vn -0.2381 -0.7957 0.5569
vn -0.5757 -0.7795 -0.2469
vn -0.2512 0.7706 0.5857
vn 0.5531 -0.7992 0.2353
vn 0.2486 -0.7787 -0.5761
usemtl None
s off
f 12/1/1 14/2/1 9/3/1
f 9/3/2 7/4/2 11/5/2 12/1/2
f 11/5/3 10/6/3 13/7/3 14/2/3 12/1/3
f 7/4/4 1/8/4 5/9/4 10/6/4 11/5/4
f 1/8/5 2/10/5 3/11/5 4/12/5 5/9/5
f 3/11/6 6/13/6 2/10/6
f 6/13/7 8/14/7 4/12/7 3/11/7
f 8/14/8 13/7/8 10/6/8 5/9/8 4/12/8
