# Blender v2.92.0 OBJ File: ''
# www.blender.org
mtllib CG10_500_038060_0008.mtl
o CG10_500_038060_0008
v 8.937819 75.000000 -24.917574
v 212.824142 75.000000 -15.845157
v 159.766006 115.462158 -66.570007
v 135.900665 115.560783 -67.749840
v 98.416420 145.000000 -104.606117
v 190.556046 75.000000 -115.421989
v 217.108597 75.000000 -113.972267
v 104.173553 143.934601 -247.192245
v 197.232254 75.000000 -333.765686
v 24.601681 75.000000 -341.317627
v 8.937819 0.000000 -24.917574
v 212.824142 0.000000 -15.845157
v 217.108597 0.000000 -113.972267
v 190.556046 0.000000 -115.421989
v 197.232254 0.000000 -333.765686
v 24.601681 0.000000 -341.317627
vn -0.0285 0.7667 0.6414
vn 0.5905 0.8066 0.0258
vn -0.0341 -0.7801 0.6247
vn -0.6062 -0.7951 -0.0185
vn 0.0265 0.7957 -0.6051
vn -0.6330 0.7735 -0.0313
vn 0.0000 1.0000 0.0000
vn -0.0445 0.0000 0.9990
vn 0.9990 0.0000 0.0436
vn 0.0545 0.0000 -0.9985
vn 0.9995 0.0000 0.0306
vn 0.0437 0.0000 -0.9990
vn -0.9988 0.0000 -0.0494
usemtl None
s off
f 1//1 2//1 3//1 4//1 5//1
f 7//2 3//2 2//2
f 6//3 7//3 3//3 4//3
f 6//4 4//4 5//4 8//4 9//4
f 8//5 9//5 10//5
f 10//6 1//6 5//6 8//6
f 11//7 12//7 13//7 14//7 15//7 16//7
f 1//8 11//8 12//8 2//8
f 2//9 12//9 13//9 7//9
f 7//10 13//10 14//10 6//10
f 6//11 14//11 15//11 9//11
f 9//12 15//12 16//12 10//12
f 10//13 16//13 11//13 1//13
