# Blender v2.92.0 OBJ File: ''
# www.blender.org
mtllib CG10_500_041065_0033_roof.mtl
o CG10_500_041065_0033_roof
v 24.538902 75.000000 -191.018402
v 331.746124 75.000000 -174.790085
v 235.729752 120.805405 -126.465836
v 280.989716 120.884750 -123.982475
v 206.952103 144.994583 -99.788177
v 105.590584 145.000000 -105.136330
v 326.017975 75.000000 -66.303726
v 283.636139 75.000000 -68.718399
v 15.759063 75.000000 -24.727747
v 280.111633 75.000000 -10.796874
v 24.538902 0.000000 -191.018402
v 331.746124 0.000000 -174.790085
v 326.017975 0.000000 -66.303726
v 283.636139 0.000000 -68.718399
v 280.111633 0.000000 -10.796874
v 15.759063 0.000000 -24.727747
vt 0.045285 0.876980
vt 0.303420 0.476930
vt 0.070514 0.049660
vt 0.804920 0.946280
vt 0.594690 0.503540
vt 0.677380 0.370820
vt 0.815050 0.658120
vt 0.936830 0.670130
vt 0.807440 0.383170
vt 0.953290 0.130400
vn -0.6327 0.7736 -0.0334
vn -0.0334 0.7720 0.6347
vn -0.6646 -0.7461 -0.0404
vn -0.0364 0.7680 0.6394
vn 0.6900 0.7229 0.0364
vn 0.0344 0.7585 -0.6507
usemtl None
s off
f 9/1/1 6/2/1 1/3/1
f 9/1/2 10/4/2 5/5/2 6/2/2
f 3/6/3 8/7/3 10/4/3 5/5/3
f 8/7/4 7/8/4 4/9/4 3/6/4
f 7/8/5 2/10/5 4/9/5
f 1/3/6 6/2/6 5/5/6 3/6/6 4/9/6 2/10/6
