# Blender v2.92.0 OBJ File: ''
# www.blender.org
mtllib CG10_500_034060_0040.mtl
o CG10_500_034060_0040
v 30.264879 75.000000 -273.292419
v 473.697968 75.000000 -247.658920
v 25.463770 118.838936 -202.216324
v 396.933533 120.152435 -178.604904
v 274.187347 120.320274 -185.427307
v 81.469826 126.375542 -186.711960
v 230.978867 144.999374 -147.756561
v 90.550804 145.000000 -155.873291
v 36.454842 75.000000 -134.958450
v 22.735197 75.000000 -141.372589
v 465.615295 75.000000 -107.736679
v 345.391846 75.000000 -114.174240
v 207.064911 111.961098 -99.538338
v 340.877228 75.000000 -36.315239
v 24.726942 75.000000 -54.586605
v 266.718994 75.000000 -40.601093
v 107.924431 75.000000 -49.778351
v 265.117798 75.000000 -12.958502
v 106.608521 75.000000 -22.115114
v 202.597794 111.762390 -16.566408
v 30.264879 0.000000 -273.292419
v 473.697968 0.000000 -247.658920
v 465.615295 0.000000 -107.736679
v 345.391846 0.000000 -114.174240
v 340.877228 0.000000 -36.315239
v 266.718994 0.000000 -40.601093
v 265.117798 0.000000 -12.958502
v 106.608521 0.000000 -22.115114
v 107.924431 0.000000 -49.778351
v 24.726942 0.000000 -54.586605
v 36.454842 0.000000 -134.958450
v 22.735197 0.000000 -141.372589
vn -0.2603 0.7889 0.5567
vn 0.8024 -0.5851 0.1171
vn -0.5054 -0.8624 -0.0293
vn 0.5153 0.8565 0.0299
vn 0.0299 -0.8296 -0.5575
vn -0.5270 -0.8493 -0.0304
vn -0.0302 -0.8516 0.5232
vn -0.0320 0.8318 0.5541
vn -0.3567 0.9340 -0.0170
vn -0.0577 -0.0001 0.9983
vn -0.9982 -0.0169 -0.0570
vn 0.0000 -1.0000 0.0000
vn -0.0577 0.0000 0.9983
vn -0.9983 0.0000 -0.0577
vn 0.0535 0.0000 -0.9986
vn -0.9983 0.0000 -0.0579
vn 0.0577 0.0000 -0.9983
vn -0.9983 0.0000 -0.0578
vn 0.9989 0.0000 0.0475
vn 0.9895 0.0000 0.1444
vn 0.4235 0.0000 -0.9059
vn 0.9984 0.0000 0.0570
usemtl None
s off
f 10//1 9//1 6//1 3//1
f 15//2 9//2 6//2 8//2
f 20//3 13//3 16//3 18//3
f 7//4 14//4 12//4 5//4
f 12//5 5//5 4//5 11//5
f 4//6 2//6 11//6
f 1//7 2//7 4//7 5//7 7//7 8//7 6//7 3//7
f 15//8 17//8 13//8 16//8 14//8 7//8 8//8
f 19//9 20//9 13//9 17//9
f 18//10 20//10 19//10
f 10//11 3//11 1//11
f 21//12 22//12 23//12 24//12 25//12 26//12 27//12 28//12 29//12 30//12 31//12 32//12
f 1//13 21//13 22//13 2//13
f 2//14 22//14 23//14 11//14
f 11//15 23//15 24//15 12//15
f 12//16 24//16 25//16 14//16
f 14//17 25//17 26//17 16//17
f 16//18 26//18 27//18 18//18
f 18//17 27//17 28//17 19//17
f 19//19 28//19 29//19 17//19
f 17//17 29//17 30//17 15//17
f 15//20 30//20 31//20 9//20
f 9//21 31//21 32//21 10//21
f 10//22 32//22 21//22 1//22
