# Blender v2.92.0 OBJ File: ''
# www.blender.org
mtllib CG10_500_042071_0011_roof.mtl
o CG10_500_042071_0011_roof
v 81.082573 75.000000 -265.210876
v 292.654297 75.000000 -178.542175
v 47.072163 144.859970 -182.542175
v 258.584839 145.000000 -95.704018
v 13.271491 75.000000 -100.358292
v 224.707916 75.000000 -13.358884
v 81.082573 0.000000 -265.210876
v 292.654297 0.000000 -178.542175
v 224.707916 0.000000 -13.358884
v 13.271491 0.000000 -100.358292
vt 0.153830 0.343370
vt 0.845050 0.655740
vt 0.734340 0.951950
vt 0.043371 0.639000
vt 0.264980 0.046004
vt 0.956390 0.357760
vn 0.2352 -0.7862 -0.5715
vn -0.2334 -0.7879 0.5698
vn 0.9248 -0.0001 0.3804
vn -0.9248 -0.0001 -0.3804
usemtl None
s off
f 3/1/1 4/2/1 6/3/1 5/4/1
f 3/1/2 1/5/2 2/6/2 4/2/2
f 2/6/3 4/2/3 6/3/3
f 5/4/4 3/1/4 1/5/4
