# Blender v2.92.0 OBJ File: ''
# www.blender.org
mtllib CG10_500_049074_0029.mtl
o CG10_500_049074_0029
v 379.091644 75.000000 -27.722826
v 417.019592 75.000000 -213.618790
v 299.365082 144.999649 -139.322800
v 172.421616 75.000000 -15.071118
v 183.067398 75.000000 -67.689529
v 137.519913 145.000000 -172.321335
v 108.655991 133.719284 -103.881454
v 120.149834 133.684143 -160.449799
v 19.341810 75.000000 -46.303600
v 67.992874 75.000000 -284.782745
v 379.091644 0.000000 -27.722826
v 417.019592 0.000000 -213.618790
v 67.992874 0.000000 -284.782745
v 19.341810 0.000000 -46.303600
v 172.421616 0.000000 -15.071118
v 183.067398 0.000000 -67.689529
vn 0.5990 -0.7913 0.1222
vn -0.1240 0.7844 0.6077
vn 0.5794 0.8065 0.1172
vn -0.1198 0.8003 0.5875
vn 0.5603 0.8204 0.1143
vn 0.1175 0.8089 -0.5761
vn 0.0000 1.0000 0.0000
vn 0.9798 0.0000 0.1999
vn 0.1998 0.0000 -0.9798
vn -0.9798 0.0000 -0.1999
vn -0.1999 0.0000 0.9798
vn 0.9801 0.0000 0.1983
vn -0.1998 0.0000 0.9798
usemtl None
s off
f 9//1 10//1 6//1 8//1 7//1
f 9//2 4//2 7//2
f 4//3 5//3 8//3 7//3
f 5//4 1//4 3//4 6//4 8//4
f 1//5 2//5 3//5
f 2//6 10//6 6//6 3//6
f 11//7 12//7 13//7 14//7 15//7 16//7
f 1//8 11//8 12//8 2//8
f 2//9 12//9 13//9 10//9
f 10//10 13//10 14//10 9//10
f 9//11 14//11 15//11 4//11
f 4//12 15//12 16//12 5//12
f 5//13 16//13 11//13 1//13
