# Blender v2.92.0 OBJ File: ''
# www.blender.org
mtllib CG10_500_045070_0001_roof.mtl
o CG10_500_045070_0001_roof
v 14.031398 75.000000 -58.039726
v 109.108994 75.000000 -17.104662
v 78.032104 115.053879 -83.938362
v 224.937820 75.000000 -54.174824
v 139.598709 75.000000 -90.428391
v 111.186935 114.633125 -162.184235
v 254.557587 75.000000 -122.992241
v 265.127472 75.000000 -118.280396
v 161.705963 145.000000 -186.454254
v 235.666931 109.170067 -186.609085
v 226.216675 108.070641 -189.045898
v 293.131989 75.000000 -212.614471
v 305.016968 75.000000 -210.931427
v 197.621063 144.988754 -269.853149
v 183.379196 119.339752 -315.340424
v 187.108047 118.650658 -326.105804
v 271.327850 75.000000 -346.283966
v 338.429047 75.000000 -317.855896
v 163.510284 75.000000 -405.003021
v 273.894562 75.000000 -357.459747
v 14.031398 0.000000 -58.039726
v 109.108994 0.000000 -17.104662
v 139.598709 0.000000 -90.428391
v 224.937820 0.000000 -54.174824
v 254.557587 0.000000 -122.992241
v 265.127472 0.000000 -118.280396
v 305.016968 0.000000 -210.931427
v 293.131989 0.000000 -212.614471
v 338.429047 0.000000 -317.855896
v 271.327850 0.000000 -346.283966
v 273.894562 0.000000 -357.459747
v 163.510284 0.000000 -405.003021
vt 0.463200 0.047052
vt 0.530050 0.232690
vt 0.775910 0.158920
vt 0.519490 0.258020
vt 0.768630 0.185210
vt 0.958720 0.252100
vt 0.559830 0.365050
vt 0.637220 0.872530
vt 0.458090 0.561280
vt 0.830400 0.499730
vt 0.640840 0.555190
vt 0.721130 0.710610
vt 0.751070 0.721690
vt 0.667610 0.560920
vt 0.864070 0.503690
vt 0.314980 0.618390
vt 0.395460 0.787230
vt 0.221050 0.802500
vt 0.309090 0.959750
vt 0.039749 0.863440
vn 0.2250 0.8225 -0.5224
vn 0.4780 0.8715 0.1098
vn -0.2250 -0.8169 0.5311
vn -0.4919 -0.8445 -0.2117
vn -0.4906 -0.8454 -0.2112
vn -0.0997 -0.7033 0.7039
vn -0.2284 0.8278 0.5125
vn -0.2288 0.8110 0.5385
vn 0.5478 0.8050 0.2278
vn -0.2500 0.7749 0.5806
vn -0.5846 0.7712 -0.2519
usemtl None
s off
f 19/1/1 16/2/1 20/3/1
f 16/2/2 15/4/2 17/5/2 20/3/2
f 15/4/3 17/5/3 18/6/3 14/7/3
f 4/8/4 9/9/4 14/7/4 18/6/4 12/10/4 11/11/4 7/12/4
f 8/13/5 10/14/5 13/15/5
f 13/15/6 10/14/6 11/11/6 12/10/6
f 8/13/7 10/14/7 11/11/7 7/12/7
f 4/8/8 9/9/8 6/16/8 5/17/8
f 5/17/9 6/16/9 3/18/9 2/19/9
f 2/19/10 3/18/10 1/20/10
f 1/20/11 3/18/11 6/16/11 9/9/11 14/7/11 15/4/11 16/2/11 19/1/11
