# Blender v2.92.0 OBJ File: ''
# www.blender.org
mtllib CG10_500_036062_0014.mtl
o CG10_500_036062_0014
v 578.620239 75.000000 -15.198050
v 594.301331 75.000000 -268.775665
v 518.126709 109.174736 -19.228874
v 524.852356 108.088470 -96.766762
v 467.341858 75.000000 -47.569450
v 464.586853 75.000000 -22.253109
v 463.119171 145.000000 -159.413574
v 328.209686 75.000000 -56.151596
v 325.915222 75.000000 -30.703440
v 311.838165 144.930878 -168.634888
v 287.528564 127.445244 -199.388489
v 255.479889 111.944542 -34.314861
v 261.530640 112.846939 -120.594574
v 200.795044 75.000000 -38.428890
v 205.189926 75.000000 -118.943245
v 113.459610 127.433350 -209.885529
v 28.177118 75.000000 -129.637512
v 38.810406 75.000000 -302.210388
v 578.620239 0.000000 -15.198050
v 594.301331 0.000000 -268.775665
v 38.810406 0.000000 -302.210388
v 28.177118 0.000000 -129.637512
v 205.189926 0.000000 -118.943245
v 200.795044 0.000000 -38.428890
v 325.915222 0.000000 -30.703440
v 328.209686 0.000000 -56.151596
v 467.341858 0.000000 -47.569450
v 464.586853 0.000000 -22.253109
vn 0.4901 0.8711 0.0303
vn -0.5348 0.8430 -0.0582
vn -0.0328 0.8467 0.5311
vn 0.4624 0.8857 0.0417
vn -0.5580 0.8293 -0.0305
vn -0.0316 0.8518 0.5230
vn 0.5462 -0.8369 0.0337
vn 0.0308 0.8582 -0.5123
vn 0.0616 0.0199 -0.9979
vn 0.0617 -0.0084 -0.9981
vn 0.0000 1.0000 0.0000
vn 0.9981 0.0000 0.0617
vn 0.0601 0.0000 -0.9982
vn -0.9981 0.0000 -0.0615
vn -0.0603 0.0000 0.9982
vn -0.9985 0.0000 -0.0545
vn -0.0616 0.0000 0.9981
vn 0.9960 0.0000 0.0898
vn -0.9941 0.0000 -0.1082
vn -0.0618 0.0000 0.9981
usemtl None
s off
f 3//1 1//1 2//1 7//1 4//1
f 3//2 4//2 5//2 6//2
f 5//3 4//3 7//3 10//3 13//3 8//3
f 12//4 9//4 8//4 13//4
f 12//5 13//5 10//5 11//5 15//5 14//5
f 17//6 15//6 11//6 16//6
f 18//7 16//7 17//7
f 18//8 16//8 11//8 10//8 7//8 2//8
f 14//9 12//9 9//9
f 6//10 3//10 1//10
f 19//11 20//11 21//11 22//11 23//11 24//11 25//11 26//11 27//11 28//11
f 1//12 19//12 20//12 2//12
f 2//13 20//13 21//13 18//13
f 18//14 21//14 22//14 17//14
f 17//15 22//15 23//15 15//15
f 15//16 23//16 24//16 14//16
f 14//17 24//17 25//17 9//17
f 9//18 25//18 26//18 8//18
f 8//17 26//17 27//17 5//17
f 5//19 27//19 28//19 6//19
f 6//20 28//20 19//20 1//20
