# Blender v2.92.0 OBJ File: ''
# www.blender.org
mtllib CG10_500_041066_0001_roof.mtl
o CG10_500_041066_0001_roof
v 118.911774 75.000000 -14.954166
v 8.641453 75.000000 -20.934843
v 218.824570 75.000000 -47.829536
v 120.903748 75.000000 -52.604973
v 74.194611 122.985771 -70.563408
v 76.350777 122.962891 -110.888206
v 152.305374 144.039154 -131.840561
v 106.537804 145.000000 -135.196640
v 92.326775 133.565369 -149.374954
v 194.672745 104.809242 -171.659836
v 225.920197 75.000000 -183.793167
v 18.433554 75.000000 -201.557190
v 18.436100 75.000000 -201.604233
v 154.935287 75.000000 -208.882187
v 206.893860 75.000000 -203.850861
v 97.047592 133.432205 -239.672089
v 159.534744 75.000000 -299.457581
v 24.139174 75.000000 -306.801849
v 118.911774 0.000000 -14.954166
v 8.641453 0.000000 -20.934843
v 18.433554 0.000000 -201.557190
v 18.436100 0.000000 -201.604233
v 24.139174 0.000000 -306.801849
v 159.534744 0.000000 -299.457581
v 154.935287 0.000000 -208.882187
v 206.893860 0.000000 -203.850861
v 225.920197 0.000000 -183.793167
v 218.824570 0.000000 -47.829536
v 120.903748 0.000000 -52.604973
vt 0.036309 0.934980
vt 0.499630 0.953560
vt 0.311740 0.780860
vt 0.320800 0.655630
vt 0.508000 0.836630
vt 0.447640 0.580130
vt 0.639940 0.590560
vt 0.919430 0.851460
vt 0.407760 0.255680
vt 0.101430 0.047199
vt 0.670310 0.070008
vt 0.387930 0.536100
vt 0.650990 0.351300
vt 0.817950 0.466890
vt 0.869300 0.366920
vt 0.949240 0.429210
vt 0.077463 0.373900
vt 0.077452 0.374050
vn -0.0363 0.7420 0.6694
vn -0.7090 -0.7042 -0.0375
vn 0.0317 -0.7598 -0.6494
vn -0.0368 -0.7336 0.6786
vn 0.7005 0.7127 0.0356
vn 0.0644 0.7443 -0.6648
vn -0.5027 -0.7210 0.4769
vn -0.6972 -0.7160 -0.0364
vn -0.6064 0.7945 -0.0329
usemtl None
s off
f 2/1/1 1/2/1 5/3/1
f 1/2/2 5/3/2 6/4/2 4/5/2
f 4/5/3 6/4/3 8/6/3 7/7/3 3/8/3
f 16/9/4 18/10/4 17/11/4
f 17/11/5 16/9/5 9/12/5 14/13/5
f 14/13/6 9/12/6 8/6/6 7/7/6 10/14/6 15/15/6
f 10/14/7 15/15/7 11/16/7
f 3/8/8 7/7/8 10/14/8 11/16/8
f 2/1/9 5/3/9 6/4/9 8/6/9 9/12/9 16/9/9 18/10/9 13/17/9 12/18/9
