# Blender v2.92.0 OBJ File: ''
# www.blender.org
mtllib CG10_500_041072_0007.mtl
o CG10_500_041072_0007
v 243.622772 75.000000 -317.510925
v 128.018204 75.000000 -366.452362
v 163.488510 122.740784 -286.648712
v 101.190079 75.000000 -302.558289
v 216.617020 75.000000 -253.879593
v 312.737091 75.000000 -213.278275
v 84.692459 75.000000 -309.493927
v 136.996140 122.641083 -223.897263
v 198.488281 145.000000 -168.067307
v 135.529144 144.965164 -194.707932
v 112.103127 110.423416 -154.040070
v 242.318527 75.000000 -46.943958
v 202.892715 75.000000 -63.658627
v 131.314621 69.874985 -86.496819
v 14.440514 75.000000 -143.553421
v 49.265541 75.000000 -128.789261
v 92.059235 110.541672 -106.214783
v 182.846329 75.000000 -16.463507
v 29.266462 75.000000 -81.481873
v 114.223961 69.895554 -45.492928
v 243.622772 0.000000 -317.510925
v 128.018204 0.000000 -366.452362
v 101.190079 0.000000 -302.558289
v 84.692459 0.000000 -309.493927
v 14.440514 0.000000 -143.553421
v 49.265541 0.000000 -128.789261
v 29.266462 0.000000 -81.481873
v 182.846329 0.000000 -16.463507
v 202.892715 0.000000 -63.658627
v 242.318527 0.000000 -46.943958
v 312.737091 0.000000 -213.278275
v 216.617020 0.000000 -253.879593
vn -0.5466 0.8049 -0.2311
vn 0.2325 -0.8033 -0.5484
vn -0.0629 0.9977 -0.0267
vn 0.6280 0.7330 0.2614
vn -0.2054 0.7770 0.5951
vn 0.5749 0.7812 0.2434
vn -0.2455 -0.7759 0.5811
vn 0.5633 0.7909 0.2391
vn 0.2436 0.7808 -0.5754
vn 0.5535 -0.7998 0.2324
vn -0.2444 -0.7761 0.5813
vn -0.5591 0.7946 -0.2367
vn -0.3899 0.0040 0.9209
vn 0.0000 1.0000 0.0000
vn 0.3899 0.0000 -0.9209
vn -0.9220 0.0000 -0.3871
vn 0.3875 0.0000 -0.9218
vn -0.9209 0.0000 -0.3899
vn -0.3903 0.0000 0.9207
vn -0.9211 0.0000 -0.3894
vn -0.3899 0.0000 0.9209
vn 0.9204 0.0000 0.3910
vn 0.9209 0.0000 0.3899
vn 0.3891 0.0000 -0.9212
vn 0.9205 0.0000 0.3907
usemtl None
s off
f 19//1 17//1 11//1 16//1
f 15//2 10//2 9//2 12//2 13//2 14//2 11//2 16//2
f 18//3 13//3 14//3 20//3
f 20//4 14//4 11//4 17//4
f 20//5 17//5 19//5
f 6//6 9//6 12//6
f 5//7 6//7 9//7 10//7 8//7
f 1//8 3//8 8//8 5//8
f 2//9 3//9 1//9
f 4//10 2//10 3//10 8//10
f 7//11 4//11 8//11 10//11
f 15//12 10//12 7//12
f 19//13 20//13 18//13
f 21//14 22//14 23//14 24//14 25//14 26//14 27//14 28//14 29//14 30//14 31//14 32//14
f 1//15 21//15 22//15 2//15
f 2//16 22//16 23//16 4//16
f 4//17 23//17 24//17 7//17
f 7//18 24//18 25//18 15//18
f 15//19 25//19 26//19 16//19
f 16//20 26//20 27//20 19//20
f 19//21 27//21 28//21 18//21
f 18//22 28//22 29//22 13//22
f 13//19 29//19 30//19 12//19
f 12//23 30//23 31//23 6//23
f 6//24 31//24 32//24 5//24
f 5//25 32//25 21//25 1//25
