# Blender v2.92.0 OBJ File: ''
# www.blender.org
mtllib CG10_500_048071_0009.mtl
o CG10_500_048071_0009
v 24.624561 145.000000 -131.024460
v 30.645895 75.000000 -229.509949
v 18.657942 75.000000 -33.182373
v 400.506195 144.808533 -108.337112
v 394.540070 75.000000 -10.763582
v 406.496307 75.000000 -206.554123
v 30.645895 0.000000 -229.509949
v 18.657942 0.000000 -33.182373
v 394.540070 0.000000 -10.763582
v 406.496307 0.000000 -206.554123
vn 0.0353 0.8156 -0.5775
vn -0.0346 0.8138 0.5801
vn 0.9981 -0.0001 0.0610
vn -0.9981 -0.0001 -0.0609
vn 0.0000 1.0000 0.0000
vn -0.9981 0.0000 -0.0609
vn -0.0595 0.0000 0.9982
vn 0.9981 0.0000 0.0610
vn 0.0610 0.0000 -0.9981
usemtl None
s off
f 1//1 4//1 6//1 2//1
f 1//2 3//2 5//2 4//2
f 6//3 4//3 5//3
f 3//4 1//4 2//4
f 7//5 8//5 9//5 10//5
f 2//6 7//6 8//6 3//6
f 3//7 8//7 9//7 5//7
f 5//8 9//8 10//8 6//8
f 6//9 10//9 7//9 2//9
