# Blender v2.92.0 OBJ File: ''
# www.blender.org
mtllib CG10_500_041066_0013.mtl
o CG10_500_041066_0013
v 245.389999 75.000000 -289.989380
v 520.792114 75.000000 -272.465759
v 432.679382 144.898514 -190.672455
v 341.651917 145.000000 -196.337570
v 238.591095 75.000000 -186.214951
v 201.508347 75.000000 -188.461838
v 282.251404 106.627686 -146.447479
v 244.485550 106.626366 -148.737320
v 39.685268 75.000000 -148.593689
v 198.221497 75.000000 -138.606232
v 215.300308 87.519974 -123.872200
v 169.141846 87.562965 -126.733139
v 509.117554 75.000000 -88.589081
v 180.927231 75.000000 -108.503998
v 104.142220 134.017487 -80.150398
v 117.886734 134.712204 -78.526649
v 31.976585 75.000000 -27.178190
v 162.080032 87.894608 -15.134356
v 31.714979 75.000000 -23.057743
v 175.231964 75.000000 -13.947135
v 245.389999 0.000000 -289.989380
v 520.792114 0.000000 -272.465759
v 509.117554 0.000000 -88.589081
v 180.927231 0.000000 -108.503998
v 175.231964 0.000000 -13.947135
v 31.714979 0.000000 -23.057743
v 31.976585 0.000000 -27.178190
v 39.685268 0.000000 -148.593689
v 198.221497 0.000000 -138.606232
v 201.508347 0.000000 -188.461838
v 238.591095 0.000000 -186.214951
vn 0.0397 0.7803 -0.6241
vn -0.6440 -0.7639 -0.0409
vn -0.5640 0.8250 -0.0369
vn 0.0393 0.7606 -0.6480
vn -0.5695 0.8211 -0.0375
vn 0.0425 0.7365 -0.6751
vn -0.6975 -0.7153 -0.0420
vn -0.6505 0.7584 -0.0413
vn -0.1140 0.7595 0.6404
vn -0.0353 0.8121 0.5825
vn -0.0633 0.0273 0.9976
vn 0.0000 -1.0000 0.0000
vn -0.0635 0.0000 0.9980
vn -0.9980 0.0000 -0.0634
vn 0.0606 0.0000 -0.9982
vn -0.9982 0.0000 -0.0601
vn 0.0634 0.0000 -0.9980
vn 0.9980 0.0000 0.0634
vn -0.0629 0.0000 0.9980
vn 0.9978 0.0000 0.0658
vn -0.0605 0.0000 0.9982
vn 0.9979 0.0000 0.0654
usemtl None
s off
f 1//1 4//1 3//1 2//1
f 13//2 3//2 2//2
f 5//3 7//3 4//3 1//3
f 6//4 8//4 7//4 5//4
f 10//5 11//5 8//5 6//5
f 9//6 15//6 16//6 12//6 11//6 10//6
f 20//7 18//7 16//7 12//7 14//7
f 17//8 19//8 15//8 9//8
f 19//9 18//9 16//9 15//9
f 13//10 3//10 4//10 7//10 8//10 11//10 12//10 14//10
f 20//11 18//11 19//11
f 21//12 22//12 23//12 24//12 25//12 26//12 27//12 28//12 29//12 30//12 31//12
f 1//13 21//13 22//13 2//13
f 2//14 22//14 23//14 13//14
f 13//15 23//15 24//15 14//15
f 14//16 24//16 25//16 20//16
f 20//17 25//17 26//17 19//17
f 19//18 26//18 27//18 17//18
f 17//18 27//18 28//18 9//18
f 9//19 28//19 29//19 10//19
f 10//20 29//20 30//20 6//20
f 6//21 30//21 31//21 5//21
f 5//22 31//22 21//22 1//22
