# Blender v2.92.0 OBJ File: ''
# www.blender.org
mtllib CG10_500_038058_0030.mtl
o CG10_500_038058_0030
v 20.926836 75.000000 -276.581299
v 13.972985 75.000000 -148.436844
v 80.029816 119.493454 -210.342163
v 85.704285 75.000000 -144.066040
v 78.375595 75.000000 -24.124397
v 154.108139 119.668785 -206.088165
v 185.470367 145.000000 -119.678795
v 188.284393 144.882523 -168.514526
v 279.693237 75.000000 -13.195430
v 293.167450 75.000000 -261.860718
v 20.926836 0.000000 -276.581299
v 13.972985 0.000000 -148.436844
v 85.704285 0.000000 -144.066040
v 78.375595 0.000000 -24.124397
v 279.693237 0.000000 -13.195430
v 293.167450 0.000000 -261.860718
vn 0.0308 -0.8225 -0.5680
vn -0.5732 -0.8188 -0.0311
vn 0.0312 0.8166 -0.5763
vn 0.5784 -0.8151 0.0314
vn -0.0341 0.8284 0.5591
vn 0.5683 -0.8221 0.0347
vn 0.0000 1.0000 0.0000
vn -0.9985 0.0000 -0.0542
vn -0.0608 0.0000 0.9981
vn -0.9981 0.0000 -0.0610
vn -0.0542 0.0000 0.9985
vn 0.9985 0.0000 0.0541
vn 0.0540 0.0000 -0.9985
usemtl None
s off
f 5//1 7//1 9//1
f 9//2 7//2 8//2 10//2
f 1//3 3//3 6//3 8//3 10//3
f 2//4 1//4 3//4
f 2//5 4//5 6//5 3//5
f 5//6 4//6 6//6 8//6 7//6
f 11//7 12//7 13//7 14//7 15//7 16//7
f 1//8 11//8 12//8 2//8
f 2//9 12//9 13//9 4//9
f 4//10 13//10 14//10 5//10
f 5//11 14//11 15//11 9//11
f 9//12 15//12 16//12 10//12
f 10//13 16//13 11//13 1//13
