# Blender v2.92.0 OBJ File: ''
# www.blender.org
mtllib CG10_500_039072_0004_roof.mtl
o CG10_500_039072_0004_roof
v 431.011078 75.000000 -202.766678
v 32.454182 75.000000 -229.669815
v 378.094208 110.950439 -155.115570
v 358.699799 111.579620 -155.528244
v 320.007324 137.782867 -120.805016
v 245.739685 137.882202 -125.676643
v 129.938858 145.000000 -123.351723
v 235.470062 144.998993 -116.229675
v 424.046112 75.000000 -99.612373
v 405.332581 75.000000 -99.049973
v 324.428955 75.000000 -29.614563
v 400.110016 75.000000 -24.796782
v 323.098022 75.000000 -9.785899
v 19.009903 75.000000 -30.303833
v 431.011078 0.000000 -202.766678
v 32.454182 0.000000 -229.669815
v 19.009903 0.000000 -30.303833
v 323.098022 0.000000 -9.785899
v 324.428955 0.000000 -29.614563
v 400.110016 0.000000 -24.796782
v 405.332581 0.000000 -99.049973
v 424.046112 0.000000 -99.612373
vt 0.042151 0.873730
vt 0.288110 0.486030
vt 0.522110 0.515710
vt 0.716400 0.959230
vt 0.719350 0.876610
vt 0.544880 0.476350
vt 0.071960 0.043042
vt 0.709550 0.496650
vt 0.795340 0.351970
vt 0.838350 0.353690
vt 0.955680 0.155140
vt 0.940240 0.584950
vt 0.898740 0.587290
vt 0.887160 0.896680
vn 0.0385 -0.8201 -0.5710
vn 0.5936 0.8037 0.0398
vn -0.5556 0.8306 -0.0375
vn 0.0387 0.8179 -0.5740
vn 0.5856 0.8096 0.0395
vn -0.0161 -0.8452 -0.5342
vn 0.5853 0.8098 0.0412
vn -0.0362 0.8223 0.5679
usemtl None
s off
f 14/1/1 7/2/1 8/3/1 13/4/1
f 13/4/2 11/5/2 6/6/2 8/3/2
f 14/1/3 7/2/3 2/7/3
f 2/7/4 7/2/4 8/3/4 6/6/4 5/8/4 4/9/4 3/10/4 1/11/4
f 3/10/5 9/12/5 1/11/5
f 9/12/6 10/13/6 4/9/6 3/10/6
f 5/8/7 12/14/7 10/13/7 4/9/7
f 6/6/8 11/5/8 12/14/8 5/8/8
