# Blender v2.92.0 OBJ File: ''
# www.blender.org
mtllib CG10_500_038056_0018.mtl
o CG10_500_038056_0018
v 164.295563 75.000000 -284.979523
v 343.166412 75.000000 -275.575165
v 25.340454 75.000000 -219.362549
v 160.602585 75.000000 -212.253342
v 256.033966 141.599518 -199.160233
v 236.418274 141.597504 -200.194016
v 225.053589 132.175262 -189.330841
v 222.445633 132.138565 -138.801544
v 205.745209 144.738770 -124.389183
v 97.483681 145.000000 -130.440613
v 293.554474 75.000000 -116.150208
v 334.666748 75.000000 -113.978401
v 235.043961 120.274185 -92.849228
v 233.923203 120.396469 -74.459892
v 16.375853 75.000000 -48.927731
v 180.725113 75.000000 -40.227291
v 179.372742 75.000000 -20.454544
v 288.226501 75.000000 -14.726183
v 164.295563 0.000000 -284.979523
v 343.166412 0.000000 -275.575165
v 334.666748 0.000000 -113.978401
v 293.554474 0.000000 -116.150208
v 288.226501 0.000000 -14.726183
v 179.372742 0.000000 -20.454544
v 180.725113 0.000000 -40.227291
v 16.375853 0.000000 -48.927731
v 25.340454 0.000000 -219.362549
v 160.602585 0.000000 -212.253342
vn -0.0328 0.7811 0.6235
vn -0.6652 0.7452 -0.0455
vn -0.0334 0.7744 0.6318
vn -0.6731 0.7387 -0.0354
vn 0.0372 0.7733 -0.6329
vn 0.0334 0.7720 -0.6348
vn 0.6197 0.7841 0.0326
vn -0.0335 0.7721 0.6346
vn 0.6250 0.7799 0.0329
vn -0.6566 0.7535 -0.0333
vn 0.0000 -1.0000 0.0000
vn -0.0525 0.0000 0.9986
vn -0.9986 0.0000 -0.0525
vn 0.0528 0.0000 -0.9986
vn 0.0526 0.0000 -0.9986
vn 0.9977 0.0000 0.0682
vn 0.0529 0.0000 -0.9986
vn 0.9986 0.0000 0.0525
vn 0.9987 0.0000 0.0507
usemtl None
s off
f 17//1 18//1 14//1
f 17//2 14//2 13//2 16//2
f 15//3 16//3 13//3 9//3 10//3
f 15//4 10//4 3//4
f 10//5 9//5 8//5 4//5
f 10//6 4//6 3//6
f 14//7 18//7 11//7 7//7 8//7 9//7 13//7
f 11//8 12//8 5//8 6//8 7//8
f 12//9 2//9 5//9
f 1//6 6//6 5//6 2//6
f 4//10 8//10 7//10 6//10 1//10
f 19//11 20//11 21//11 22//11 23//11 24//11 25//11 26//11 27//11 28//11
f 1//12 19//12 20//12 2//12
f 2//13 20//13 21//13 12//13
f 12//14 21//14 22//14 11//14
f 11//13 22//13 23//13 18//13
f 18//15 23//15 24//15 17//15
f 17//16 24//16 25//16 16//16
f 16//17 25//17 26//17 15//17
f 15//18 26//18 27//18 3//18
f 3//12 27//12 28//12 4//12
f 4//19 28//19 19//19 1//19
