# Blender v2.92.0 OBJ File: ''
# www.blender.org
mtllib CG10_500_045073_0022.mtl
o CG10_500_045073_0022
v 423.664154 75.000000 -16.376980
v 493.659363 75.000000 -182.546356
v 372.259827 145.000000 -131.166473
v 354.346497 75.000000 -240.318176
v 360.295746 75.000000 -259.704285
v 256.279785 75.000000 -87.571442
v 249.036118 75.000000 -70.298378
v 249.592865 144.530457 -182.717712
v 244.628510 136.551590 -196.371216
v 250.737442 135.903610 -212.976501
v 245.590958 127.251953 -228.344040
v 186.682510 124.621445 -96.558983
v 217.479645 124.598839 -169.917267
v 130.137329 75.000000 -120.382996
v 159.856964 75.000000 -191.105042
v 111.962234 127.474228 -284.332153
v 79.259537 75.000000 -378.166718
v 24.262234 75.000000 -247.601959
v 423.664154 0.000000 -16.376980
v 493.659363 0.000000 -182.546356
v 354.346497 0.000000 -240.318176
v 360.295746 0.000000 -259.704285
v 79.259537 0.000000 -378.166718
v 24.262234 0.000000 -247.601959
v 159.856964 0.000000 -191.105042
v 130.137329 0.000000 -120.382996
v 249.036118 0.000000 -70.298378
v 256.279785 0.000000 -87.571442
vn -0.5583 -0.7956 -0.2352
vn -0.5316 -0.8311 -0.1631
vn 0.2252 0.8149 -0.5342
vn 0.5705 -0.7853 0.2403
vn -0.2358 0.7901 0.5658
vn 0.5797 -0.7776 0.2436
vn 0.5454 0.8064 0.2287
vn 0.2479 -0.7738 -0.5829
vn -0.2288 -0.8019 0.5518
vn 0.3882 0.0001 -0.9216
vn 0.0000 1.0000 0.0000
vn 0.9216 0.0000 0.3882
vn 0.3831 0.0000 -0.9237
vn 0.9560 0.0000 0.2934
vn 0.3884 0.0000 -0.9215
vn -0.9216 0.0000 -0.3882
vn -0.3846 0.0000 0.9231
vn -0.9219 0.0000 -0.3874
vn -0.3882 0.0000 0.9216
vn 0.9222 0.0000 0.3867
vn -0.3914 0.0000 0.9202
usemtl None
s off
f 3//1 2//1 1//1
f 9//2 10//2 5//2 4//2
f 16//3 11//3 10//3 5//3 17//3
f 18//4 17//4 16//4
f 18//5 15//5 11//5 16//5
f 13//6 12//6 14//6 15//6 11//6 10//6 9//6 8//6
f 12//7 7//7 6//7 13//7
f 6//8 13//8 8//8 3//8 1//8
f 4//9 2//9 3//9 8//9 9//9
f 14//10 12//10 7//10
f 19//11 20//11 21//11 22//11 23//11 24//11 25//11 26//11 27//11 28//11
f 1//12 19//12 20//12 2//12
f 2//13 20//13 21//13 4//13
f 4//14 21//14 22//14 5//14
f 5//15 22//15 23//15 17//15
f 17//16 23//16 24//16 18//16
f 18//17 24//17 25//17 15//17
f 15//18 25//18 26//18 14//18
f 14//19 26//19 27//19 7//19
f 7//20 27//20 28//20 6//20
f 6//21 28//21 19//21 1//21
