# Blender v2.92.0 OBJ File: ''
# www.blender.org
mtllib CG10_500_040059_0046_roof.mtl
o CG10_500_040059_0046_roof
v 17.119724 75.000000 -23.382408
v 29.211245 75.000000 -344.050629
v 95.189232 119.514687 -94.150124
v 96.543442 116.599327 -261.024841
v 96.941856 116.568642 -272.969269
v 98.594757 119.635544 -179.036377
v 142.905212 144.979126 -215.695450
v 150.337921 145.000000 -215.434494
v 156.540359 75.000000 -17.988792
v 160.378174 75.000000 -108.967880
v 170.335587 75.000000 -338.590210
v 169.887955 75.000000 -323.121613
v 178.117142 124.807198 -183.742752
v 215.858612 124.740906 -182.156662
v 252.375275 75.000000 -249.654404
v 255.196747 75.000000 -320.496948
v 283.645721 75.000000 -104.115669
v 289.212585 75.000000 -248.016388
v 17.119724 0.000000 -23.382408
v 29.211245 0.000000 -344.050629
v 170.335587 0.000000 -338.590210
v 169.887955 0.000000 -323.121613
v 255.196747 0.000000 -320.496948
v 252.375275 0.000000 -249.654404
v 289.212585 0.000000 -248.016388
v 283.645721 0.000000 -104.115669
v 160.378174 0.000000 -108.967880
v 156.540359 0.000000 -17.988792
vt 0.558840 0.117150
vt 0.560310 0.074890
vt 0.318890 0.254180
vt 0.317580 0.286820
vt 0.839460 0.124330
vt 0.494530 0.411380
vt 0.470080 0.410670
vt 0.830180 0.317880
vt 0.585910 0.497970
vt 0.951360 0.322360
vt 0.710060 0.502300
vt 0.933050 0.715530
vt 0.056315 0.936110
vt 0.514940 0.950850
vt 0.313120 0.742760
vt 0.527560 0.702270
vt 0.324320 0.510830
vt 0.096090 0.059971
vn 0.5026 0.8644 0.0145
vn -0.0167 -0.8397 0.5428
vn 0.5707 0.8208 0.0227
vn -0.0260 -0.8114 0.5839
vn 0.5747 0.8181 0.0222
vn -0.0200 0.8561 0.5165
vn -0.0217 0.8344 0.5507
vn -0.5675 -0.8230 -0.0239
vn -0.5083 0.8610 -0.0192
vn -0.0201 -0.8546 0.5189
usemtl None
s off
f 12/1/1 11/2/1 5/3/1 4/4/1
f 16/5/2 8/6/2 7/7/2 4/4/2 12/1/2
f 15/8/3 16/5/3 8/6/3 13/9/3
f 18/10/4 14/11/4 13/9/4 15/8/4
f 17/12/5 18/10/5 14/11/5
f 1/13/6 9/14/6 3/15/6
f 10/16/7 17/12/7 14/11/7 13/9/7 8/6/7 7/7/7 6/17/7
f 10/16/8 9/14/8 3/15/8 6/17/8
f 1/13/9 3/15/9 6/17/9 7/7/9 4/4/9 5/3/9 2/18/9
f 2/18/10 11/2/10 5/3/10
