# Blender v2.92.0 OBJ File: ''
# www.blender.org
mtllib CG10_500_048073_0037_roof.mtl
o CG10_500_048073_0037_roof
v 14.152618 75.000000 -19.679316
v 26.348343 95.836510 -247.616364
v 27.932060 75.000000 -275.775360
v 86.926804 124.126915 -76.468773
v 87.781166 129.421783 -158.900131
v 110.865852 144.978577 -176.450684
v 134.235550 75.000000 -13.249466
v 140.293625 75.000000 -90.198219
v 168.607178 145.000000 -173.311386
v 259.247253 75.000000 -83.677559
v 268.882416 75.000000 -262.796448
v 14.152618 0.000000 -19.679316
v 27.932060 0.000000 -275.775360
v 268.882416 0.000000 -262.796448
v 259.247253 0.000000 -83.677559
v 140.293625 0.000000 -90.198219
v 134.235550 0.000000 -13.249466
vt 0.099050 0.042447
vt 0.093434 0.140220
vt 0.393140 0.387320
vt 0.597900 0.398220
vt 0.953480 0.087512
vt 0.050187 0.931670
vt 0.308250 0.734480
vt 0.311280 0.448260
vt 0.476010 0.953990
vt 0.919320 0.709450
vt 0.497500 0.686810
vn 0.0320 0.8043 -0.5934
vn -0.5324 0.8451 0.0488
vn -0.0337 0.7768 0.6288
vn -0.5910 -0.8060 -0.0318
vn 0.0349 -0.7702 -0.6368
vn -0.6838 -0.7277 -0.0538
vn -0.9986 -0.0033 -0.0537
usemtl None
s off
f 3/1/1 2/2/1 6/3/1 9/4/1 11/5/1
f 2/2/2 1/6/2 4/7/2 5/8/2 6/3/2
f 1/6/3 7/9/3 4/7/3
f 11/5/4 10/10/4 9/4/4
f 10/10/5 8/11/5 5/8/5 6/3/5 9/4/5
f 8/11/6 7/9/6 4/7/6 5/8/6
f 1/6/7 2/2/7 3/1/7
