# Blender v2.92.0 OBJ File: ''
# www.blender.org
mtllib CG10_500_042070_0029_roof.mtl
o CG10_500_042070_0029_roof
v 227.453522 75.000000 -303.833618
v 14.038853 75.000000 -205.700546
v 121.375412 145.000000 -163.956406
v 176.765976 144.999802 -189.426529
v 144.064407 108.547142 -121.510719
v 300.576569 75.000000 -144.816406
v 122.464729 75.000000 -62.914745
v 87.162666 75.000000 -46.681690
v 206.915115 75.000000 -101.747787
v 163.751740 108.525406 -78.642128
v 228.481842 75.000000 -54.703568
v 144.091904 75.000000 -15.897340
v 227.453522 0.000000 -303.833618
v 14.038853 0.000000 -205.700546
v 87.162666 0.000000 -46.681690
v 122.464729 0.000000 -62.914745
v 144.091904 0.000000 -15.897340
v 228.481842 0.000000 -54.703568
v 206.915115 0.000000 -101.747787
v 300.576569 0.000000 -144.816406
vt 0.460360 0.950170
vt 0.729970 0.828520
vt 0.523170 0.753470
vt 0.391260 0.802780
vt 0.460270 0.619090
vt 0.661070 0.681040
vt 0.278470 0.853660
vt 0.387780 0.486030
vt 0.044853 0.355170
vt 0.960310 0.546030
vt 0.564750 0.406190
vt 0.726690 0.047544
vn 0.2366 0.8242 0.5145
vn -0.5500 0.7960 0.2530
vn 0.5143 0.8246 -0.2358
vn -0.5979 0.7529 0.2750
vn 0.2525 0.7966 0.5492
vn 0.5432 0.8016 -0.2498
vn 0.2698 -0.7635 0.5867
usemtl None
s off
f 12/1/1 11/2/1 10/3/1
f 7/4/2 12/1/2 10/3/2 5/5/2
f 10/3/3 11/2/3 9/6/3 5/5/3
f 8/7/4 3/8/4 2/9/4
f 8/7/5 7/4/5 5/5/5 9/6/5 6/10/5 4/11/5 3/8/5
f 1/12/6 4/11/6 6/10/6
f 4/11/7 3/8/7 2/9/7 1/12/7
