# Blender v2.92.0 OBJ File: ''
# www.blender.org
mtllib CG10_500_042071_0008.mtl
o CG10_500_042071_0008
v 301.500824 75.000000 -178.795120
v 80.850609 75.000000 -268.677307
v 128.631332 145.000000 -154.521271
v 185.932785 144.998444 -131.181534
v 13.849375 75.000000 -104.170311
v 234.505310 75.000000 -14.302124
v 301.500824 0.000000 -178.795120
v 80.850609 0.000000 -268.677307
v 13.849375 0.000000 -104.170311
v 234.505310 0.000000 -14.302124
vn 0.5793 -0.7802 0.2359
vn -0.2317 0.7891 0.5689
vn 0.5723 0.7863 0.2331
vn 0.2353 0.7815 -0.5777
vn 0.0000 1.0000 0.0000
vn 0.3773 0.0000 -0.9261
vn -0.9261 0.0000 -0.3772
vn -0.3772 0.0000 0.9261
vn 0.9261 0.0000 0.3772
usemtl None
s off
f 5//1 2//1 3//1
f 5//2 6//2 4//2 3//2
f 6//3 1//3 4//3
f 1//4 2//4 3//4 4//4
f 7//5 8//5 9//5 10//5
f 1//6 7//6 8//6 2//6
f 2//7 8//7 9//7 5//7
f 5//8 9//8 10//8 6//8
f 6//9 10//9 7//9 1//9
