# Blender v2.92.0 OBJ File: ''
# www.blender.org
mtllib CG10_500_038060_0014.mtl
o CG10_500_038060_0014
v 15.217796 75.000000 -28.044680
v 38.476101 75.000000 -475.416656
v 73.040443 121.546585 -25.047579
v 78.128044 121.600479 -121.615509
v 81.742043 122.057411 -180.182861
v 93.710121 123.217270 -382.598450
v 105.069069 131.883865 -393.444427
v 118.358398 131.832474 -392.826630
v 108.061455 144.496506 -148.816437
v 134.951752 75.000000 -21.840782
v 152.710922 75.000000 -317.191895
v 136.948242 75.000000 -59.207901
v 147.543549 75.000000 -239.668839
v 191.075989 75.000000 -315.602020
v 198.928558 75.000000 -467.101471
v 300.019409 145.000000 -138.159317
v 304.845825 75.000000 -231.487259
v 295.432129 75.000000 -49.883411
v 15.217796 0.000000 -28.044680
v 38.476101 0.000000 -475.416656
v 198.928558 0.000000 -467.101471
v 191.075989 0.000000 -315.602020
v 152.710922 0.000000 -317.191895
v 147.543549 0.000000 -239.668839
v 304.845825 0.000000 -231.487259
v 295.432129 0.000000 -49.883411
v 136.948242 0.000000 -59.207901
v 134.951752 0.000000 -21.840782
vn -0.0304 -0.8095 0.5864
vn 0.5950 0.8032 0.0308
vn -0.0252 0.7937 0.6078
vn 0.6051 0.7951 0.0403
vn 0.0311 0.8004 -0.5987
vn -0.0365 0.7839 0.6198
vn 0.5996 0.7997 0.0320
vn -0.6257 0.7794 -0.0325
vn 0.9987 -0.0002 0.0518
vn -0.0517 -0.0000 0.9987
vn 0.0000 -1.0000 0.0000
vn 0.9987 0.0000 0.0519
vn -0.0518 0.0000 0.9987
vn -0.9987 0.0000 -0.0518
vn 0.0414 0.0000 -0.9991
vn -0.9978 0.0000 -0.0665
vn -0.0519 0.0000 0.9987
vn 0.0587 0.0000 -0.9983
vn -0.9986 0.0000 -0.0534
vn 0.0517 0.0000 -0.9987
usemtl None
s off
f 2//1 15//1 8//1 7//1
f 14//2 15//2 8//2
f 11//3 14//3 8//3 7//3 6//3
f 13//4 11//4 6//4 5//4
f 16//5 17//5 13//5 5//5 9//5
f 18//6 16//6 9//6 4//6 12//6
f 10//7 12//7 4//7 3//7
f 1//8 3//8 4//8 9//8 5//8 6//8 7//8 2//8
f 17//9 16//9 18//9
f 10//10 3//10 1//10
f 19//11 20//11 21//11 22//11 23//11 24//11 25//11 26//11 27//11 28//11
f 1//12 19//12 20//12 2//12
f 2//13 20//13 21//13 15//13
f 15//14 21//14 22//14 14//14
f 14//15 22//15 23//15 11//15
f 11//16 23//16 24//16 13//16
f 13//17 24//17 25//17 17//17
f 17//14 25//14 26//14 18//14
f 18//18 26//18 27//18 12//18
f 12//19 27//19 28//19 10//19
f 10//20 28//20 19//20 1//20
