# Blender v2.92.0 OBJ File: ''
# www.blender.org
mtllib CG10_500_036059_0010_roof.mtl
o CG10_500_036059_0010_roof
v 225.994064 75.000000 -275.529114
v 208.951538 75.000000 -13.766105
v 121.134514 145.000000 -122.347107
v 125.027725 144.999573 -182.135849
v 9.411119 75.000000 -26.761629
v 26.458893 75.000000 -288.524292
v 225.994064 0.000000 -275.529114
v 208.951538 0.000000 -13.766105
v 9.411119 0.000000 -26.761629
v 26.458893 0.000000 -288.524292
vt 0.039878 0.911390
vt 0.513280 0.594880
vt 0.885390 0.954420
vt 0.112110 0.044622
vt 0.529780 0.396900
vt 0.957600 0.087652
vn 0.0366 -0.8262 -0.5622
vn 0.5525 -0.8327 0.0360
vn -0.0373 -0.8186 0.5732
vn 0.5932 0.8041 0.0386
usemtl None
s off
f 5/1/1 3/2/1 2/3/1
f 6/4/2 4/5/2 3/2/2 5/1/2
f 6/4/3 1/6/3 4/5/3
f 2/3/4 1/6/4 4/5/4 3/2/4
