# Blender v2.92.0 OBJ File: ''
# www.blender.org
mtllib CG10_500_048070_0030.mtl
o CG10_500_048070_0030
v 270.654968 75.000000 -43.555279
v 281.740906 75.000000 -216.984589
v 203.817596 75.000000 -11.003636
v 205.210617 75.000000 -46.224392
v 187.151810 144.711258 -130.970413
v 155.616852 145.000000 -132.604507
v 138.655869 133.011322 -79.938225
v 140.644577 132.607834 -118.281250
v 128.275360 118.859215 -168.872910
v 75.075958 75.000000 -114.910797
v 68.994644 75.000000 -19.599146
v 73.006554 118.901649 -172.349091
v 12.477144 75.000000 -118.785240
v 19.812538 75.000000 -233.724396
v 270.654968 0.000000 -43.555279
v 281.740906 0.000000 -216.984589
v 19.812538 0.000000 -233.724396
v 12.477144 0.000000 -118.785240
v 75.075958 0.000000 -114.910797
v 68.994644 0.000000 -19.599146
v 203.817596 0.000000 -11.003636
v 205.210617 0.000000 -46.224392
vn 0.0425 -0.7443 -0.6665
vn 0.6158 0.7869 0.0394
vn -0.0386 -0.7966 0.6032
vn -0.6090 0.7922 -0.0389
vn -0.0376 0.7933 0.6077
vn 0.6494 0.7600 0.0257
vn 0.6607 -0.7495 0.0422
vn 0.0260 -0.7693 -0.6384
vn 0.0000 1.0000 0.0000
vn 0.9980 0.0000 0.0638
vn 0.0638 0.0000 -0.9980
vn -0.9980 0.0000 -0.0637
vn -0.0618 0.0000 0.9981
vn -0.0636 0.0000 0.9980
vn 0.9992 0.0000 0.0395
vn -0.0408 0.0000 0.9992
usemtl None
s off
f 11//1 7//1 3//1
f 1//2 2//2 5//2
f 14//3 2//3 5//3 6//3 9//3 12//3
f 13//4 12//4 14//4
f 10//5 9//5 12//5 13//5
f 4//6 8//6 7//6 3//6
f 11//7 10//7 9//7 6//7 8//7 7//7
f 1//8 4//8 8//8 6//8 5//8
f 15//9 16//9 17//9 18//9 19//9 20//9 21//9 22//9
f 1//10 15//10 16//10 2//10
f 2//11 16//11 17//11 14//11
f 14//12 17//12 18//12 13//12
f 13//13 18//13 19//13 10//13
f 10//12 19//12 20//12 11//12
f 11//14 20//14 21//14 3//14
f 3//15 21//15 22//15 4//15
f 4//16 22//16 15//16 1//16
