# Blender v2.92.0 OBJ File: ''
# www.blender.org
mtllib CG10_500_039068_0021_roof.mtl
o CG10_500_039068_0021_roof
v 339.351166 75.000000 -253.217697
v 327.947357 75.000000 -73.651222
v 252.357208 75.000000 -42.831932
v 253.839737 75.000000 -77.818161
v 250.304581 133.347931 -168.071213
v 176.146652 133.521835 -172.509384
v 159.420212 144.992661 -155.720642
v 128.115891 75.000000 -13.135811
v 137.141937 145.000000 -157.123825
v 130.587860 75.000000 -50.440094
v 80.695045 111.748390 -109.778893
v 78.129051 111.713028 -70.274063
v 15.949516 75.000000 -20.257740
v 31.985661 75.000000 -272.734436
v 339.351166 0.000000 -253.217697
v 327.947357 0.000000 -73.651222
v 253.839737 0.000000 -77.818161
v 252.357208 0.000000 -42.831932
v 130.587860 0.000000 -50.440094
v 128.115891 0.000000 -13.135811
v 15.949516 0.000000 -20.257740
v 31.985661 0.000000 -272.734436
vt 0.044928 0.929170
vt 0.360890 0.954070
vt 0.220080 0.754290
vt 0.367850 0.823640
vt 0.227310 0.616160
vt 0.710870 0.850240
vt 0.449070 0.455520
vt 0.386320 0.450620
vt 0.715040 0.727910
vt 0.496190 0.396820
vt 0.923800 0.742480
vt 0.705080 0.412340
vt 0.955920 0.114620
vt 0.090100 0.046383
vn -0.0357 0.8263 0.5621
vn 0.5635 0.8253 0.0373
vn -0.0342 0.8366 0.5468
vn 0.5821 0.8127 0.0247
vn -0.0306 0.8388 0.5435
vn 0.5718 0.8196 0.0363
vn -0.0343 -0.8408 0.5403
vn 0.5280 -0.8486 0.0335
usemtl None
s off
f 13/1/1 8/2/1 12/3/1
f 8/2/2 10/4/2 11/5/2 12/3/2
f 10/4/3 3/6/3 7/7/3 9/8/3 11/5/3
f 3/6/4 4/9/4 6/10/4 7/7/4
f 4/9/5 2/11/5 5/12/5 6/10/5
f 2/11/6 1/13/6 5/12/6
f 9/8/7 14/14/7 1/13/7 5/12/7 6/10/7 7/7/7
f 13/1/8 14/14/8 9/8/8 11/5/8 12/3/8
